<?xml version="1.0" standalone="no"?>
<!DOCTYPE svg PUBLIC "-//W3C//DTD SVG 1.1//EN" "http://www.w3.org/Graphics/SVG/1.1/DTD/svg11.dtd" >
<svg xmlns="http://www.w3.org/2000/svg" xmlns:xlink="http://www.w3.org/1999/xlink" version="1.1">
<metadata>
Created by FontForge 20170731 at Mon Apr  9 23:07:46 2018
 By Aleksey,,,
Copyright (c) 2018 Monotype Imaging Inc. All rights reserved.
</metadata>
<defs>
<font id="NeuePlak-CondSemiBold" horiz-adv-x="0" >
  <font-face 
    font-family="Neue Plak Condensed SemiBold"
    font-weight="400"
    font-stretch="condensed"
    units-per-em="1000"
    panose-1="2 11 6 6 3 2 2 2 2 4"
    ascent="799"
    descent="-201"
    x-height="517"
    cap-height="706"
    bbox="-489 -183 797 1055"
    underline-thickness="50"
    underline-position="-200"
    unicode-range="U+000D-FEFF"
  />
<missing-glyph horiz-adv-x="413" 
d="M36 706h341v-706h-341v706zM286 85v536h-159v-536h159z" />
    <glyph glyph-name=".notdef" horiz-adv-x="413" 
d="M36 706h341v-706h-341v706zM286 85v536h-159v-536h159z" />
    <glyph glyph-name=".null" 
 />
    <glyph glyph-name="nonmarkingreturn" horiz-adv-x="333" 
 />
    <glyph glyph-name="NULL" 
 />
    <glyph glyph-name="NULL" 
 />
    <glyph glyph-name="CR" unicode="&#xd;" horiz-adv-x="127" 
 />
    <glyph glyph-name="space" unicode=" " horiz-adv-x="127" 
 />
    <glyph glyph-name="exclam" unicode="!" horiz-adv-x="219" 
d="M64 706h92l-9 -522h-74zM69 6q-16 15 -16 39q0 25 16 40t41 15t40 -15t15 -40t-15 -39.5t-40 -14.5t-41 15z" />
    <glyph glyph-name="quotedbl" unicode="&#x22;" horiz-adv-x="325" 
d="M53 706h85l-9 -258h-67zM186 706h85l-9 -258h-67z" />
    <glyph glyph-name="numbersign" unicode="#" horiz-adv-x="464" 
d="M364 433l-18 -161h78l-11 -80h-77l-23 -203h-77l23 203h-93l-23 -203h-76l23 203h-77l9 80h77l19 161h-78l10 80h77l23 204h76l-23 -204h93l24 204h77l-24 -204h78l-10 -80h-77zM287 433h-93l-19 -161h94z" />
    <glyph glyph-name="dollar" unicode="$" horiz-adv-x="391" 
d="M364 257q3 -24 3 -75q0 -50 -3 -72t-11 -42q-17 -35 -51 -55t-85 -23v-67h-45v67q-51 4 -84 23.5t-48 53.5q-6 14 -9.5 29t-4.5 45.5t-1 75.5h94q0 -63 1.5 -82.5t6.5 -30.5q15 -29 48 -34v252l-15 6q-48 22 -74.5 42t-39.5 48q-9 20 -12.5 45t-3.5 71t3 66.5t12 40.5
q15 33 47.5 52.5t79.5 22.5v67h45v-67q93 -7 124 -74q9 -20 11.5 -47t2.5 -98h-89q0 59 -1 77t-6 29q-12 26 -45 33v-231l19 -8q49 -23 77 -44t41 -50q10 -22 13 -46zM175 422v215q-37 -4 -50 -33q-4 -8 -5 -19t-1 -45t2 -49t8 -27q11 -24 46 -42zM275 124q1 13 1 53
q0 35 -2 51.5t-8 29.5q-6 14 -19 25.5t-33 20.5v-235q41 4 55 33q5 9 6 22z" />
    <glyph glyph-name="percent" unicode="%" horiz-adv-x="467" 
d="M61.5 422.5q-20.5 11.5 -30.5 34.5q-7 15 -9.5 34.5t-2.5 69.5t2.5 69.5t9.5 35.5q10 23 30.5 34.5t51.5 11.5q62 0 82 -46q7 -16 9.5 -35.5t2.5 -69.5t-2.5 -69.5t-9.5 -34.5q-20 -46 -82 -46q-31 0 -51.5 11.5zM359 706h61l-312 -706h-61zM142 484q3 7 4 24t1 53
t-1 53.5t-4 24.5q-4 8 -10.5 11.5t-18.5 3.5q-21 0 -29 -15q-2 -7 -3 -24.5t-1 -53.5t1 -53t3 -24q8 -16 29 -16q22 0 29 16zM271 41q-7 14 -9 33.5t-2 71.5q0 51 2 70t9 34q21 46 83 46t82 -46q7 -16 9.5 -35t2.5 -69t-2.5 -70t-9.5 -35q-20 -46 -82 -46t-83 46zM383 69
q3 6 3.5 23.5t0.5 53.5t-1 53t-3 24q-8 16 -29 16q-11 0 -18 -4t-11 -12q-3 -6 -3.5 -23.5t-0.5 -53.5t0.5 -54t3.5 -24q4 -8 10.5 -11.5t18.5 -3.5q21 0 29 16z" />
    <glyph glyph-name="ampersand" unicode="&#x26;" horiz-adv-x="445" 
d="M427 0q-36 0 -64 9.5t-50 29.5q-49 -48 -129 -48t-120 42.5t-40 117.5q0 46 15 85.5t38.5 72.5t57.5 70q-30 67 -44 116.5t-14 87.5q0 63 35.5 98.5t105.5 35.5q63 0 99.5 -30.5t36.5 -93.5q0 -41 -17 -78.5t-41 -68t-66 -77.5l82 -186v-1q18 52 30 130l70 -12
q-16 -120 -51 -192q13 -11 29 -16t37 -7v-85zM169.5 527q8.5 -32 27.5 -80q35 40 54 74.5t19 72.5q0 26 -13 39.5t-38 13.5q-29 0 -43.5 -16.5t-14.5 -46.5q0 -25 8.5 -57zM137 95q22 -24 61 -24q40 0 68 28q-6 10 -18 34l-77 167q-26 -35 -41 -68.5t-15 -68.5q0 -44 22 -68
z" />
    <glyph glyph-name="quotesingle" unicode="'" horiz-adv-x="191" 
d="M53 706h85l-9 -258h-67z" />
    <glyph glyph-name="parenleft" unicode="(" horiz-adv-x="250" 
d="M78 48.5q-23 108.5 -23 245.5t23 245.5t73 218.5h80q-47 -109 -71 -222t-24 -242t24 -242t71 -222h-81q-49 110 -72 218.5z" />
    <glyph glyph-name="parenright" unicode=")" horiz-adv-x="250" 
d="M19 -170q47 109 71 222t24 242t-24 242t-71 222h80q50 -110 73 -218.5t23 -245.5t-23 -245.5t-72 -218.5h-81z" />
    <glyph glyph-name="asterisk" unicode="*" horiz-adv-x="322" 
d="M60 497l62 70l-92 20l21 64l86 -38l-9 93h66l-9 -93l85 38l21 -64l-92 -20l62 -70l-53 -39l-47 81l-48 -81z" />
    <glyph glyph-name="plus" unicode="+" horiz-adv-x="376" 
d="M346 266h-122v-123h-70v123h-121v69h121v124h70v-124h122v-69z" />
    <glyph glyph-name="comma" unicode="," horiz-adv-x="201" 
d="M72 154h84l-58 -313h-67z" />
    <glyph glyph-name="hyphen" unicode="-" horiz-adv-x="259" 
d="M33 343h196v-83h-196v83z" />
    <glyph glyph-name="period" unicode="." horiz-adv-x="221" 
d="M70 6q-16 15 -16 39q0 25 16 40t40 15q25 0 40.5 -15t15.5 -40t-15.5 -39.5t-40.5 -14.5q-24 0 -40 15z" />
    <glyph glyph-name="slash" unicode="/" horiz-adv-x="323" 
d="M213 717h85l-188 -767h-85z" />
    <glyph glyph-name="zero" unicode="0" horiz-adv-x="421" 
d="M116.5 11q-37.5 22 -57.5 68q-10 22 -15 50t-7 79.5t-2 144.5t2 144.5t7 79.5t15 50q20 46 57.5 68t93.5 22q111 0 151 -90q10 -22 15 -50t7 -78.5t2 -145.5t-2 -145.5t-7 -78.5t-15 -50q-40 -90 -151 -90q-56 0 -93.5 22zM253 85.5q17 10.5 26 31.5q6 13 8.5 33t3.5 72
t1 131t-1 131t-3.5 72.5t-8.5 33.5q-9 21 -26 31.5t-43 10.5q-50 0 -69 -42q-5 -14 -8 -34t-4 -72t-1 -131t1 -130.5t4 -71.5t8 -34q19 -42 69 -42q26 0 43 10.5z" />
    <glyph glyph-name="one" unicode="1" horiz-adv-x="230" 
d="M92 621h-77l15 85h152v-706h-90v621z" />
    <glyph glyph-name="two" unicode="2" horiz-adv-x="361" 
d="M19 3l171 336q25 51 35.5 75t15.5 48t5 58q0 39 -2 54t-6 25q-13 33 -60 33q-24 0 -39 -8.5t-23 -26.5q-5 -13 -7 -35t-2 -77h-87q0 69 4 100.5t15 55.5q16 38 52 57t89 19q107 0 143 -79q8 -19 11.5 -42t3.5 -68q0 -58 -12.5 -100.5t-44.5 -102.5q-21 -45 -46.5 -96
l-32.5 -65l-39 -81h176v-83h-320v3z" />
    <glyph glyph-name="three" unicode="3" horiz-adv-x="384" 
d="M349.5 285.5q2.5 -21.5 2.5 -79.5q0 -43 -1 -72t-4.5 -42.5t-9.5 -26.5q-33 -76 -149 -76q-54 0 -91.5 18t-54.5 58q-11 23 -14.5 54.5t-3.5 108.5h86q0 -61 2 -83.5t7 -35.5q17 -36 67 -36q51 0 67 35q5 10 6 27.5t1 73.5q0 48 -1.5 64t-6.5 26q-10 20 -32 28t-60 8h-16
v81h17q36 0 56.5 8.5t30.5 27.5q5 10 6 22.5t1 50.5q0 41 -1 55t-6 23q-15 33 -62 33q-48 0 -63 -35q-5 -11 -6.5 -31t-1.5 -74h-86q0 65 3 94t12 51q35 76 147 76q55 0 90 -19t51 -54q8 -17 10.5 -38.5t2.5 -77.5q0 -46 -2.5 -64.5t-8.5 -32.5q-17 -40 -68 -53
q28 -7 46 -20t27 -34q8 -17 10.5 -38.5z" />
    <glyph glyph-name="four" unicode="4" horiz-adv-x="404" 
d="M395 168h-62v-168h-90v168h-245v2l171 536h164v-456h62v-82zM243 250v416h-1l-127 -416h128z" />
    <glyph glyph-name="five" unicode="5" horiz-adv-x="370" 
d="M39 66q-10 21 -13.5 52.5t-3.5 102.5h87q0 -58 2 -79t7 -33q15 -36 64 -36q48 0 66 37q5 11 6 29t1 79q0 59 -2 81t-7 36q-12 24 -37.5 35.5t-66.5 11.5q-23 0 -51 -3.5t-53 -8.5l35 336h261l-14 -84h-168l-17 -166q30 5 53 5q53 0 89.5 -20t53.5 -58q7 -15 10 -30.5
t4.5 -45t1.5 -84.5q0 -47 -1 -79.5t-4.5 -48t-9.5 -29.5q-38 -77 -148 -77q-112 0 -145 77z" />
    <glyph glyph-name="six" unicode="6" horiz-adv-x="410" 
d="M374.5 349.5q2.5 -14.5 4 -42.5t1.5 -81q0 -54 -1.5 -81.5t-4.5 -43t-10 -31.5q-19 -40 -57.5 -60.5t-93.5 -20.5q-113 0 -154 93q-10 21 -15 46.5t-7 75.5t-2 146q0 97 2 148t7 78t15 50q20 44 58 67.5t94 23.5q77 0 118 -41q23 -22 32.5 -59t11.5 -110h-86q-2 53 -7 75
t-15 33q-19 21 -54 21q-51 0 -73 -46q-6 -14 -8.5 -31.5t-4 -55t-1.5 -109.5q18 25 48 39t70 14q45 0 77 -18t47 -52q6 -13 8.5 -27.5zM287.5 140.5q1.5 19.5 1.5 81.5q0 59 -1.5 78.5t-6.5 30.5q-18 40 -68 40q-27 0 -45 -11.5t-26 -31.5q-5 -12 -6.5 -30t-1.5 -77
q0 -60 1 -79t6 -30q8 -20 26 -31t45 -11q50 0 68 40q6 11 7.5 30.5z" />
    <glyph glyph-name="seven" unicode="7" horiz-adv-x="333" 
d="M208 621h-189v85h305l-173 -706h-95z" />
    <glyph glyph-name="eight" unicode="8" horiz-adv-x="404" 
d="M369 287.5q3 -25.5 3 -88.5q0 -64 -3 -89t-11 -43q-16 -37 -55.5 -57.5t-100.5 -20.5q-60 0 -99.5 20.5t-56.5 57.5q-8 18 -11 43t-3 89q0 63 3 88t11 43q21 44 73 57q-49 15 -68 55q-7 15 -9 35t-2 67q0 44 2.5 64t9.5 36q16 35 54.5 54t95.5 19q58 0 95.5 -18.5
t54.5 -54.5q8 -17 10.5 -37t2.5 -63q0 -47 -2 -67t-9 -35q-18 -40 -68 -55q52 -13 72 -56q8 -18 11 -43.5zM133 580.5q-1 -17.5 -1 -48.5q0 -33 1 -50.5t5 -26.5q17 -34 64 -34q49 0 64 34q5 9 6 23t1 54q0 38 -1.5 51.5t-5.5 23.5q-16 33 -64 33t-64 -33q-4 -9 -5 -26.5z
M278 134q1 16 1 71q0 56 -1 73t-6 27q-9 18 -26.5 28t-43.5 10t-43.5 -10t-26.5 -28q-4 -9 -5 -24.5t-1 -74.5q0 -55 1 -72t5 -27q18 -38 70 -38q53 0 70 38q5 11 6 27z" />
    <glyph glyph-name="nine" unicode="9" horiz-adv-x="410" 
d="M365.5 579q4.5 -25 6.5 -75t2 -147t-2 -148t-7 -78.5t-15 -49.5q-41 -91 -152 -91q-77 0 -118 41q-22 22 -31.5 59.5t-11.5 109.5h86q2 -53 6.5 -75t14.5 -34q20 -20 55 -20q51 0 72 46q6 14 9 31.5t4.5 54.5t1.5 109q-18 -25 -48 -39t-70 -14q-44 0 -76.5 18.5
t-47.5 52.5q-6 13 -9 27.5t-4 45.5t-1 77q0 55 1.5 82.5t4.5 42.5t10 31q19 40 57 60.5t94 20.5q113 0 154 -92q10 -21 14.5 -46zM274.5 408.5q1.5 17.5 1.5 77.5q0 61 -1.5 80t-6.5 29q-17 41 -70 41q-51 0 -68 -39q-6 -11 -7.5 -31t-1.5 -81q0 -60 1.5 -79t6.5 -30
q18 -40 68 -40q26 0 44 11.5t27 30.5q5 13 6.5 30.5z" />
    <glyph glyph-name="colon" unicode=":" horiz-adv-x="221" 
d="M70 6q-16 15 -16 39q0 25 16 40t40 15q25 0 40.5 -15t15.5 -40t-15.5 -39.5t-40.5 -14.5q-24 0 -40 15zM70 380q-16 15 -16 39q0 25 16 40t40 15q25 0 40.5 -15t15.5 -40t-15.5 -39.5t-40.5 -14.5q-24 0 -40 15z" />
    <glyph glyph-name="semicolon" unicode=";" horiz-adv-x="228" 
d="M72 154h84l-58 -313h-67zM77 380q-16 15 -16 39q0 25 16 40t40 15q25 0 40.5 -15t15.5 -40t-15.5 -39.5t-40.5 -14.5q-24 0 -40 15z" />
    <glyph glyph-name="less" unicode="&#x3c;" horiz-adv-x="376" 
d="M350 384l-247 -83l247 -83v-73l-313 108v96l313 108v-73z" />
    <glyph glyph-name="equal" unicode="=" horiz-adv-x="376" 
d="M33 414h313v-69h-313v69zM33 258h313v-69h-313v69z" />
    <glyph glyph-name="greater" unicode="&#x3e;" horiz-adv-x="376" 
d="M346 349v-96l-313 -108v73l247 83l-247 83v73z" />
    <glyph glyph-name="question" unicode="?" horiz-adv-x="361" 
d="M203.5 405.5q21.5 65.5 29 98.5t7.5 62q0 37 -13 55.5t-47 18.5q-44 0 -56 -31q-5 -12 -6 -27t-1 -70h-89q0 63 2.5 87t11.5 44q16 37 52 55.5t88 18.5q75 0 113 -38.5t38 -109.5q0 -28 -6.5 -58t-28.5 -99.5t-57 -173.5l-18 -54h-96q55 156 76.5 221.5zM133.5 5.5
q-15.5 14.5 -15.5 39.5t15.5 40t40.5 15t40 -15t15 -40t-15 -39.5t-40 -14.5t-40.5 14.5z" />
    <glyph glyph-name="at" unicode="@" horiz-adv-x="534" 
d="M496.5 478.5q5.5 -53.5 5.5 -162.5q0 -83 -3.5 -124t-14.5 -66q-17 -36 -47.5 -53t-82.5 -17h-37v36q-15 -19 -37.5 -29.5t-50.5 -10.5q-30 0 -50.5 11.5t-29.5 32.5q-6 13 -8 31t-2 57q0 47 1.5 65t7.5 31q12 27 41 40.5t85 13.5h41v15q0 58 -1 72.5t-5 23.5
q-4 10 -14.5 15t-27.5 5q-31 0 -42 -21q-3 -7 -4 -23.5t-1 -41.5h-73q0 36 2.5 58t9.5 37q12 26 40 39.5t70 13.5q43 0 68.5 -12t37.5 -37q8 -18 10.5 -43.5t2.5 -83.5v-249q23 3 36.5 14t21.5 30q9 18 11.5 54t2.5 115q0 107 -4.5 156.5t-19.5 80.5q-19 44 -61 67t-105 23
q-65 0 -107 -24t-63 -72q-15 -33 -20.5 -87t-5.5 -159q0 -109 5.5 -168t20.5 -93q22 -48 67.5 -73t116.5 -25q25 0 71 4v-39q-38 -5 -71 -5q-86 0 -140.5 30t-82.5 90q-17 38 -23 101t-6 177q0 110 6.5 168.5t24.5 96.5q54 117 207 117q78 0 129.5 -29t75.5 -83
q16 -37 21.5 -90.5zM315 276h-33q-28 0 -42 -5t-20 -18q-4 -9 -5 -20.5t-1 -32.5q0 -28 1 -41t5 -20q4 -10 13.5 -14.5t25.5 -4.5q18 0 30.5 7t18.5 21q4 8 5 17.5t1.5 35t0.5 63.5v12z" />
    <glyph glyph-name="A" unicode="A" horiz-adv-x="404" 
d="M288 142h-171l-24 -142h-92l131 706h141l130 -706h-91zM274 223l-71 409h-2l-70 -409h143z" />
    <glyph glyph-name="B" unicode="B" horiz-adv-x="391" 
d="M356.5 300q2.5 -11 3.5 -35.5t1 -61.5q0 -41 -1 -69t-3.5 -41t-7.5 -24q-31 -69 -139 -69h-170v706h168q102 0 131 -65q8 -16 10.5 -36.5t2.5 -72.5q0 -47 -2.5 -65t-9.5 -33q-16 -41 -74 -53q63 -13 83 -60q5 -10 7.5 -21zM132 417h47q56 0 72 33q4 10 5.5 24t1.5 50
t-1.5 48.5t-5.5 23.5q-14 31 -71 31h-48v-210zM265 141.5q2 17.5 2 66.5t-2 65.5t-6 26.5q-16 37 -80 37h-47v-258h48q64 0 79 35q4 10 6 27.5z" />
    <glyph glyph-name="C" unicode="C" horiz-adv-x="435" 
d="M119.5 14.5q-42.5 25.5 -63.5 74.5q-10 22 -15 48.5t-7 75.5t-2 140t2 140t7 76t15 49q21 48 63 73.5t105 25.5q77 0 126 -44q30 -27 42 -69.5t13 -120.5h-94q0 42 -2.5 66.5t-8.5 37.5t-16 23q-24 21 -62 21q-60 0 -82 -50q-6 -14 -9 -33t-4 -69t-1 -126t1 -125.5
t4 -69.5t9 -34q21 -49 82 -49q39 0 63 21q10 9 16 23t9 39t3 69h93q-1 -55 -6 -91t-16.5 -60t-32.5 -43q-47 -44 -126 -44q-63 0 -105.5 25.5z" />
    <glyph glyph-name="D" unicode="D" horiz-adv-x="426" 
d="M40 706h157q131 0 176 -97q9 -20 13 -44t6 -72t2 -140t-2 -140t-6 -72t-13 -44q-45 -97 -176 -97h-157v706zM189 84q38 0 61.5 13.5t35.5 39.5q6 13 9 30.5t4 64.5t1 120q0 74 -1 121.5t-4 65t-9 30.5q-11 27 -35 40t-62 13h-57v-538h57z" />
    <glyph glyph-name="E" unicode="E" horiz-adv-x="319" 
d="M40 706h259v-84h-167v-205h164v-85h-164v-248h167v-84h-259v706z" />
    <glyph glyph-name="F" unicode="F" horiz-adv-x="291" 
d="M40 706h232v-84h-140v-205h138v-85h-138v-332h-92v706z" />
    <glyph glyph-name="G" unicode="G" horiz-adv-x="439" 
d="M407 360v-46q0 -78 -2 -121t-7 -66.5t-14 -44.5q-43 -93 -160 -93q-123 0 -169 101q-10 21 -14.5 47t-6.5 75t-2 141t2 141t6.5 75t14.5 47q46 101 170 101q80 0 125 -42q20 -19 31.5 -42.5t16 -58t5.5 -87.5h-90q-2 54 -7.5 82t-20.5 42q-20 20 -61 20q-63 0 -84 -50
q-6 -14 -9 -33.5t-4.5 -63.5t-1.5 -131t1.5 -131t4.5 -63.5t9 -33.5q23 -50 85 -50q60 0 81 45q4 10 6 23t3 46.5t1 85.5h-87v85h178z" />
    <glyph glyph-name="H" unicode="H" horiz-adv-x="422" 
d="M40 706h92v-289h158v289h91v-706h-91v332h-158v-332h-92v706z" />
    <glyph glyph-name="I" unicode="I" horiz-adv-x="172" 
d="M40 706h92v-706h-92v706z" />
    <glyph glyph-name="J" unicode="J" horiz-adv-x="215" 
d="M5 0v87q8 -1 23 -1q33 0 46 16t13 54v550h91v-567q0 -73 -30.5 -107t-100.5 -34q-12 0 -42 2z" />
    <glyph glyph-name="K" unicode="K" horiz-adv-x="392" 
d="M288 0l-156 345v-345h-92v706h92v-291l135 291h99l-150 -325l174 -381h-102z" />
    <glyph glyph-name="L" unicode="L" horiz-adv-x="257" 
d="M40 706h92v-622h120v-84h-212v706z" />
    <glyph glyph-name="M" unicode="M" horiz-adv-x="557" 
d="M40 706h121l117 -518l121 518h118v-706h-87v531l-121 -531h-60l-122 531v-531h-87v706z" />
    <glyph glyph-name="N" unicode="N" horiz-adv-x="449" 
d="M40 706h99l181 -501v501h88v-706h-97l-183 514v-514h-88v706z" />
    <glyph glyph-name="O" unicode="O" horiz-adv-x="448" 
d="M71 63q-15 23 -23 54t-12 86t-4 150q0 91 2 140t7 76t15 49q21 48 63 73.5t105 25.5q62 0 104 -25.5t63 -73.5q10 -22 15 -49.5t7.5 -76.5t2.5 -139t-2.5 -139t-7.5 -76.5t-15 -49.5q-21 -48 -63 -73.5t-104 -25.5q-107 0 -153 74zM308 127q6 14 9 33.5t4 68.5t1 124
t-1 124t-4 68.5t-9 33.5q-23 51 -84 51t-84 -51q-6 -14 -9 -33.5t-4.5 -63t-1.5 -129.5t1.5 -129.5t4.5 -63t9 -33.5q23 -51 84 -51t84 51z" />
    <glyph glyph-name="P" unicode="P" horiz-adv-x="373" 
d="M40 706h169q54 0 87.5 -16t48.5 -49q8 -18 10.5 -41t2.5 -82t-2.5 -82t-10.5 -42q-15 -33 -48.5 -48.5t-87.5 -15.5h-77v-330h-92v706zM186 413q30 0 47.5 7t25.5 25q4 9 5.5 23t1.5 52q0 39 -1.5 52.5t-5.5 23.5q-8 17 -25.5 24t-47.5 7h-54v-214h54z" />
    <glyph glyph-name="Q" unicode="Q" horiz-adv-x="448" 
d="M321 11l57 -120l-80 -34l-58 132h-16q-107 0 -153 74q-15 23 -23 54t-12 86t-4 150q0 91 2 140t7 76t15 49q21 48 63 73.5t105 25.5q62 0 104 -25.5t63 -73.5q10 -22 15 -49.5t7.5 -76.5t2.5 -139t-2.5 -139t-7.5 -76.5t-15 -49.5q-24 -54 -70 -77zM317 160.5
q3 19.5 4 68.5t1 124t-1 124t-4 68.5t-9 33.5q-23 51 -84 51t-84 -51q-6 -14 -9 -33.5t-4.5 -63t-1.5 -129.5t1.5 -129.5t4.5 -63t9 -33.5q23 -51 84 -51t84 51q6 14 9 33.5z" />
    <glyph glyph-name="R" unicode="R" horiz-adv-x="394" 
d="M342.5 339.5q13.5 -23.5 13.5 -63.5v-276h-91v270q0 32 -15 46t-50 14h-68v-330h-92v706h171q56 0 89.5 -15.5t48.5 -49.5q8 -18 11 -40t3 -75q0 -51 -2.5 -71t-8.5 -34q-17 -36 -56 -49q33 -9 46.5 -32.5zM238.5 420q17.5 8 24.5 24q4 10 5.5 23.5t1.5 52.5
q0 36 -1.5 49t-5.5 22q-8 18 -26 25t-49 7h-56v-211h60q29 0 46.5 8z" />
    <glyph glyph-name="S" unicode="S" horiz-adv-x="385" 
d="M93.5 9q-38.5 20 -55.5 58q-7 15 -10 30t-4.5 42.5t-1.5 78.5h96q0 -60 1.5 -80t6.5 -32q17 -36 67 -36q52 0 67 34q5 10 6 22.5t1 50.5q0 35 -2 51t-8 30q-9 22 -32 35.5t-69 32.5q-45 22 -72 42.5t-40 48.5q-9 20 -12 45.5t-3 72.5q0 46 3 66.5t12 39.5
q17 37 53.5 56.5t90.5 19.5q110 0 144 -75q6 -14 9.5 -29t4.5 -44.5t1 -72.5h-92q0 59 -1 78t-6 30q-16 33 -61 33q-23 0 -38.5 -8.5t-22.5 -24.5q-3 -9 -4 -23t-1 -42q0 -34 1.5 -49t7.5 -27q6 -14 19.5 -24.5t34.5 -20.5t45 -20q48 -21 76.5 -42t41.5 -50q10 -23 13 -46.5
t3 -77.5q0 -51 -3 -72.5t-12 -41.5q-17 -38 -57 -58.5t-100 -20.5q-59 0 -97.5 20z" />
    <glyph glyph-name="T" unicode="T" horiz-adv-x="296" 
d="M102 622h-97v84h286v-84h-97v-622h-92v622z" />
    <glyph glyph-name="U" unicode="U" horiz-adv-x="411" 
d="M77 30q-40 41 -40 126v550h92v-545q0 -44 18 -65t58 -21q41 0 59.5 21t18.5 65v545h91v-550q0 -85 -40 -126t-129 -41q-88 0 -128 41z" />
    <glyph glyph-name="V" unicode="V" horiz-adv-x="388" 
d="M387 706l-145 -706h-95l-146 706h92l102 -565l101 565h91z" />
    <glyph glyph-name="W" unicode="W" horiz-adv-x="598" 
d="M597 706l-119 -706h-101l-78 532l-79 -532h-100l-119 706h89l83 -555l78 555h96l78 -545l83 545h89z" />
    <glyph glyph-name="X" unicode="X" horiz-adv-x="418" 
d="M148 373l-131 333h97l95 -268l96 268h96l-130 -334l145 -372h-97l-110 304l-110 -304h-97z" />
    <glyph glyph-name="Y" unicode="Y" horiz-adv-x="374" 
d="M141 293l-140 413h94l92 -309l92 309h94l-140 -413v-293h-92v293z" />
    <glyph glyph-name="Z" unicode="Z" horiz-adv-x="340" 
d="M200 622h-181v84h303l-191 -622h196v-84h-318z" />
    <glyph glyph-name="bracketleft" unicode="[" horiz-adv-x="237" 
d="M68 758h153v-72h-74v-784h74v-72h-153v928z" />
    <glyph glyph-name="backslash" unicode="\" horiz-adv-x="323" 
d="M213 -50l-188 767h85l188 -767h-85z" />
    <glyph glyph-name="bracketright" unicode="]" horiz-adv-x="237" 
d="M15 -170v72h75v784h-75v72h153v-928h-153z" />
    <glyph glyph-name="asciicircum" unicode="^" horiz-adv-x="314" 
d="M214 409l-56 227l-57 -227h-86l84 297h116l84 -297h-85z" />
    <glyph glyph-name="underscore" unicode="_" horiz-adv-x="265" 
d="M0 -70h265v-81h-265v81z" />
    <glyph glyph-name="grave" unicode="`" horiz-adv-x="253" 
d="M125 569l-75 137h88l65 -137h-78z" />
    <glyph glyph-name="a" unicode="a" horiz-adv-x="359" 
d="M322 416q3 -26 3 -86v-330h-87v39q-17 -23 -44 -34.5t-61 -11.5q-76 0 -99 51q-7 15 -9 33t-2 63q0 54 1.5 73t8.5 34q16 35 52.5 49.5t99.5 14.5h53v19q0 50 -1 65t-6 26q-7 14 -19.5 20t-32.5 6q-22 0 -35 -7t-19 -21q-3 -9 -4 -21.5t-1 -38.5h-86q0 47 2.5 66t9.5 36
q29 64 134 64q53 0 84.5 -15.5t46.5 -48.5q8 -19 11 -45zM229 106q6 13 7.5 33.5t1.5 85.5v14h-43q-34 0 -53 -6t-25 -22q-3 -8 -4 -21t-1 -38t1 -38.5t4 -20.5q11 -25 49 -25q46 0 63 38z" />
    <glyph glyph-name="b" unicode="b" horiz-adv-x="374" 
d="M341.5 424q3.5 -19 5 -56.5t1.5 -108.5t-1.5 -108.5t-5 -56.5t-10.5 -36q-14 -31 -40.5 -48t-65.5 -17q-68 0 -104 50v-43h-85v706h87v-228q18 23 44 35t58 12q39 0 65.5 -17t40.5 -48q7 -17 10.5 -36zM256 146.5q2 28.5 2 112.5q0 83 -2 112t-8 41q-15 34 -55 34
q-33 0 -51.5 -24.5t-18.5 -69.5v-186q0 -45 18.5 -69.5t51.5 -24.5q40 0 55 34q6 12 8 40.5z" />
    <glyph glyph-name="c" unicode="c" horiz-adv-x="358" 
d="M96 13q-35 20 -53 58q-7 17 -10.5 35.5t-5 52.5t-1.5 100t1.5 99.5t5 52.5t10.5 35q36 79 140 79q33 0 61 -9t47 -26q16 -15 25 -33.5t12.5 -46.5t4.5 -73h-92q0 33 -2 51t-6 27.5t-11 16.5q-16 14 -39 14q-41 0 -58 -35q-4 -9 -5.5 -21.5t-2.5 -46t-1 -85.5q0 -51 1 -84
t3 -45.5t6 -21.5q15 -35 57 -35q25 0 39 13q8 7 11.5 17t5.5 30.5t2 58.5h91q-1 -52 -4.5 -82t-12 -48.5t-24.5 -33.5q-19 -17 -46.5 -25.5t-61.5 -8.5q-52 0 -87 20z" />
    <glyph glyph-name="d" unicode="d" horiz-adv-x="374" 
d="M338 706v-706h-85v43q-36 -50 -104 -50q-39 0 -65.5 17t-40.5 48q-7 17 -10.5 36t-5 56.5t-1.5 108.5t1.5 108.5t5 56.5t10.5 36q14 31 40.5 48t65.5 17q32 0 58 -12t44 -35v228h87zM251 352q0 45 -18.5 69.5t-51.5 24.5q-40 0 -55 -34q-6 -12 -8 -41t-2 -112
q0 -84 2 -112.5t8 -40.5q15 -34 55 -34q33 0 51.5 24.5t18.5 69.5v186z" />
    <glyph glyph-name="e" unicode="e" horiz-adv-x="365" 
d="M243 101q4 9 5.5 26t2.5 48h87q-1 -44 -4.5 -70.5t-12.5 -44t-25 -32.5q-39 -35 -110 -35q-54 0 -90 20.5t-53 58.5q-7 16 -10.5 35t-5 52.5t-1.5 99.5q0 67 1.5 100.5t5 52t10.5 34.5q17 38 52.5 58.5t87.5 20.5q51 0 86 -19.5t52 -57.5q8 -19 12 -39.5t5.5 -57.5
t1.5 -109h-227q0 -45 1 -74t3 -41t6 -21q8 -18 23 -27t38 -9q32 0 48 15q7 7 11 16zM123 411q-6 -12 -7.5 -29t-2.5 -68h138q-1 53 -2.5 70.5t-6.5 28.5q-17 34 -59 34q-45 0 -60 -36z" />
    <glyph glyph-name="f" unicode="f" horiz-adv-x="242" 
d="M62 439h-54v78h54v67q0 69 32 99t101 30q21 0 39 -3v-78q-10 3 -25 3q-32 0 -45.5 -15.5t-13.5 -50.5v-52h80v-78h-80v-439h-88v439z" />
    <glyph glyph-name="g" unicode="g" horiz-adv-x="374" 
d="M338 517v-497q0 -57 -3.5 -83t-12.5 -45q-17 -36 -51 -53.5t-88 -17.5q-76 0 -114 33q-20 18 -28 44t-10 63h87q1 -20 4.5 -32t12.5 -20q20 -15 50 -15q43 0 59 33q4 10 5.5 24.5t1.5 54.5v34q-18 -23 -44 -35t-58 -12q-39 0 -65.5 17.5t-40.5 48.5q-7 16 -10.5 35.5
t-5 56t-1.5 108.5q0 73 1.5 109.5t5 56t10.5 35.5q14 31 40.5 48t65.5 17q66 0 103 -49v41h86zM232.5 97q18.5 24 18.5 70v185q0 45 -18.5 69.5t-51.5 24.5q-41 0 -56 -34q-5 -12 -7 -40t-2 -113t2 -113t7 -40q15 -33 56 -33q33 0 51.5 24z" />
    <glyph glyph-name="h" unicode="h" horiz-adv-x="366" 
d="M304 493q28 -32 28 -96v-397h-87v372q0 39 -13.5 56t-43.5 17q-31 0 -48 -20.5t-17 -60.5v-364h-87v706h87v-227q34 46 99 46q54 0 82 -32z" />
    <glyph glyph-name="i" unicode="i" horiz-adv-x="159" 
d="M42 597q-15 14 -15 37t15 36.5t39 13.5q23 0 37.5 -13.5t14.5 -36.5t-14.5 -37t-37.5 -14q-24 0 -39 14zM36 517h87v-517h-87v517z" />
    <glyph glyph-name="j" unicode="j" horiz-adv-x="164" 
d="M46 597q-15 14 -15 37t15 36.5t39 13.5q23 0 37.5 -13.5t14.5 -36.5t-14.5 -37t-37.5 -14q-24 0 -39 14zM-21 -170v79h19q24 0 33.5 10.5t9.5 38.5v559h87v-574q0 -61 -27 -88t-85 -27q-25 0 -37 2z" />
    <glyph glyph-name="k" unicode="k" horiz-adv-x="342" 
d="M240 0l-117 254v-254h-87v706h87v-391l103 202h101l-121 -233l136 -284h-102z" />
    <glyph glyph-name="l" unicode="l" horiz-adv-x="159" 
d="M36 706h87v-706h-87v706z" />
    <glyph glyph-name="m" unicode="m" horiz-adv-x="567" 
d="M505.5 492.5q27.5 -32.5 27.5 -96.5v-396h-87v370q0 40 -13 57.5t-42 17.5q-30 0 -46.5 -21t-16.5 -62v-362h-87v370q0 40 -13 57.5t-43 17.5q-29 0 -45.5 -21t-16.5 -62v-362h-87v517h87v-36q32 44 98 44q36 0 60.5 -14.5t36.5 -44.5q17 31 43.5 45t62.5 14
q54 0 81.5 -32.5z" />
    <glyph glyph-name="n" unicode="n" horiz-adv-x="366" 
d="M304 493q28 -32 28 -96v-397h-87v372q0 39 -13.5 56t-43.5 17q-31 0 -48 -20.5t-17 -60.5v-364h-87v517h87v-38q34 46 99 46q54 0 82 -32z" />
    <glyph glyph-name="o" unicode="o" horiz-adv-x="366" 
d="M95.5 13.5q-35.5 20.5 -51.5 57.5q-8 17 -11.5 36t-5 52.5t-1.5 99.5q0 65 1.5 99t5 52.5t10.5 34.5q17 38 52.5 59t87.5 21q53 0 88 -21t52 -59q7 -17 11 -35.5t5.5 -52.5t1.5 -98t-1.5 -98t-5.5 -53t-11 -36q-17 -38 -52 -58.5t-88 -20.5q-52 0 -87.5 20.5zM241 106
q4 9 6 22.5t3 46.5t1 84t-1 84t-3 46.5t-6 22.5q-15 34 -58 34t-58 -34q-4 -9 -6 -22.5t-3 -46.5t-1 -84t1 -84t3 -46.5t6 -22.5q15 -34 58 -34t58 34z" />
    <glyph glyph-name="p" unicode="p" horiz-adv-x="374" 
d="M341.5 424q3.5 -19 5 -56.5t1.5 -108.5t-1.5 -108.5t-5 -56.5t-10.5 -36q-14 -31 -40.5 -48t-65.5 -17q-32 0 -58 12t-44 35v-210h-87v687h85v-42q36 50 104 50q39 0 65.5 -17t40.5 -48q7 -17 10.5 -36zM256 146.5q2 28.5 2 112.5q0 83 -2 112t-8 41q-15 34 -55 34
q-33 0 -51.5 -24.5t-18.5 -69.5v-186q0 -45 18.5 -69.5t51.5 -24.5q40 0 55 34q6 12 8 40.5z" />
    <glyph glyph-name="q" unicode="q" horiz-adv-x="374" 
d="M338 517v-687h-87v210q-18 -23 -44 -35t-58 -12q-39 0 -65.5 17t-40.5 48q-7 17 -10.5 36t-5 56.5t-1.5 108.5t1.5 108.5t5 56.5t10.5 36q14 31 40.5 48t65.5 17q68 0 104 -50v42h85zM232.5 96.5q18.5 24.5 18.5 69.5v186q0 45 -18.5 69.5t-51.5 24.5q-40 0 -55 -34
q-6 -12 -8 -41t-2 -112q0 -84 2 -112.5t8 -40.5q15 -34 55 -34q33 0 51.5 24.5z" />
    <glyph glyph-name="r" unicode="r" horiz-adv-x="238" 
d="M227 517v-83q-6 2 -21 2q-41 0 -62 -29t-21 -79v-328h-87v517h85v-46q13 23 34.5 35.5t49.5 12.5q16 0 22 -2z" />
    <glyph glyph-name="s" unicode="s" horiz-adv-x="324" 
d="M80.5 7q-31.5 16 -46.5 49q-8 17 -10.5 39.5t-2.5 76.5h86q0 -43 1 -57t5 -22q6 -13 17.5 -19.5t31.5 -6.5q19 0 30.5 5.5t17.5 18.5q2 6 3 14t1 23q0 27 -1 37.5t-5 19.5q-7 16 -21.5 25.5t-48.5 24.5q-39 17 -63 34.5t-36 44.5q-7 14 -9 30t-2 48q0 28 2.5 42.5
t7.5 27.5q28 63 123 63q48 0 78.5 -15t44.5 -46q7 -15 9 -34.5t2 -67.5h-85q0 29 -1 43t-4 22q-11 25 -45 25t-43 -23q-2 -6 -3 -13t-1 -19q0 -16 1 -27t5 -18q7 -16 23.5 -27t49.5 -25q42 -19 65 -35.5t35 -42.5q7 -16 9 -33t2 -55q0 -32 -2 -48t-9 -30q-30 -65 -130 -65
q-50 0 -81.5 16z" />
    <glyph glyph-name="t" unicode="t" horiz-adv-x="245" 
d="M113 7q-25 11 -37.5 38.5t-12.5 76.5v317h-55v78h55v113h87v-113h80v-78h-80v-298q0 -26 5.5 -40.5t17 -20t30.5 -5.5q16 0 31 3v-77q-30 -5 -54 -5q-42 0 -67 11z" />
    <glyph glyph-name="u" unicode="u" horiz-adv-x="366" 
d="M330 517v-517h-87v38q-34 -46 -99 -46q-54 0 -82 32t-28 96v397h87v-372q0 -39 13.5 -56t43.5 -17q31 0 48 20.5t17 60.5v364h87z" />
    <glyph glyph-name="v" unicode="v" horiz-adv-x="346" 
d="M5 517h93l75 -411l76 411h92l-116 -517h-103z" />
    <glyph glyph-name="w" unicode="w" horiz-adv-x="537" 
d="M532 517l-108 -517h-92l-63 371l-64 -371h-92l-108 517h88l64 -384l68 384h87l67 -383l64 383h89z" />
    <glyph glyph-name="x" unicode="x" horiz-adv-x="357" 
d="M122 268l-111 249h98l69 -182l70 182h98l-110 -249l117 -268h-97l-78 200l-77 -200h-98z" />
    <glyph glyph-name="y" unicode="y" horiz-adv-x="346" 
d="M340 517l-129 -517l-47 -170h-87l48 176l-120 511h93l70 -395l81 395h91z" />
    <glyph glyph-name="z" unicode="z" horiz-adv-x="295" 
d="M124 78h163v-78h-288l171 439h-154v78h276z" />
    <glyph glyph-name="braceleft" unicode="{" horiz-adv-x="252" 
d="M153 323.5q-13 -23.5 -47 -30.5q34 -6 47 -29.5t13 -72.5v-226q0 -36 13 -51.5t47 -15.5h11v-68h-30q-59 0 -87 29.5t-28 89.5v232q0 28 -5.5 43t-19 21.5t-40.5 6.5v83q27 0 41 6.5t19 21.5t5 43v231q0 60 28 90.5t87 30.5h30v-68h-11q-34 0 -47 -15.5t-13 -51.5v-227
q0 -49 -13 -72.5z" />
    <glyph glyph-name="bar" unicode="|" horiz-adv-x="230" 
d="M72 756h86v-926h-86v926z" />
    <glyph glyph-name="braceright" unicode="}" horiz-adv-x="252" 
d="M166 363q5 -15 18.5 -21.5t41.5 -6.5v-83q-27 0 -41 -6.5t-19 -21.5t-5 -43v-232q0 -60 -28 -89.5t-87 -29.5h-31v68h11q34 0 47 15.5t13 51.5v226q0 49 13 72.5t47 29.5q-34 7 -47 30.5t-13 72.5v227q0 36 -13 51.5t-47 15.5h-11v68h31q59 0 87 -30.5t28 -90.5v-231
q0 -28 5 -43z" />
    <glyph glyph-name="asciitilde" unicode="~" horiz-adv-x="376" 
d="M217 222.5q-15 8.5 -24.5 19.5t-22.5 30q-15 19 -22 26t-18 7q-15 0 -20.5 -21t-7.5 -69h-62q2 61 10 98t26.5 55.5t51.5 18.5q20 0 34.5 -8.5t22.5 -18.5t24 -32q14 -18 21.5 -25.5t17.5 -7.5q15 0 20.5 20.5t8.5 69.5h62q-2 -60 -10.5 -97t-27 -55.5t-50.5 -18.5
q-19 0 -34 8.5z" />
    <glyph glyph-name="uni00A0" unicode="&#xa0;" horiz-adv-x="127" 
 />
    <glyph glyph-name="exclamdown" unicode="&#xa1;" horiz-adv-x="219" 
d="M69 433q-16 15 -16 39q0 25 16 40t41 15t40 -15t15 -40t-15 -39.5t-40 -14.5t-41 15zM73 344h74l9 -514h-93z" />
    <glyph glyph-name="cent" unicode="&#xa2;" horiz-adv-x="358" 
d="M236 196q4 10 6 30.5t2 58.5h88q-1 -51 -4.5 -80t-12 -48t-24.5 -34q-17 -14 -39.5 -23t-48.5 -11v-89h-45v89q-84 9 -115 77q-7 17 -10.5 35.5t-5 52.5t-1.5 100t1.5 99.5t5 52.5t10.5 35q31 69 115 78v87h45v-87q26 -2 48.5 -11t39.5 -23q16 -15 25 -33.5t12.5 -46.5
t4.5 -73h-89q0 34 -2 52.5t-6 28t-12 16.5q-7 7 -24 13v-376q15 3 24 12q8 8 12 18zM160 167v374q-25 -7 -37 -33q-4 -9 -6 -21.5t-3 -46t-1 -86.5t1 -86.5t3 -46.5t6 -22q12 -26 37 -32z" />
    <glyph glyph-name="sterling" unicode="&#xa3;" horiz-adv-x="421" 
d="M392 230q0 -68 -4 -98t-15 -55q-17 -40 -52.5 -58.5t-92.5 -18.5h-202v80h46v247h-46v58h46v78q0 59 1.5 90.5t5.5 50t12 36.5q18 39 53.5 58t89.5 19q102 0 136 -76q8 -17 12 -34t5.5 -44.5t1.5 -76.5h-88q0 63 -2 85t-9 37q-15 31 -56 31q-23 0 -37.5 -8t-21.5 -24
q-5 -10 -7 -22.5t-3 -43t-1 -76.5v-80h123v-58h-123v-247h56q30 0 47 8.5t28 27.5q5 13 7 34t2 80h88z" />
    <glyph glyph-name="currency" unicode="&#xa4;" horiz-adv-x="356" 
d="M286 186l51 -111h-71l-35 77q-22 -7 -53 -7t-52 7l-35 -77h-71l51 110q-10 10 -21 32q-8 19 -11 44.5t-3 91.5q0 67 3 92.5t12 44.5q10 19 21 32l-52 109h71l35 -76q21 7 52 7q32 0 53 -7l35 76h71l-52 -109q14 -15 21 -33q9 -19 12 -44.5t3 -91.5t-3 -91.5t-12 -44.5
q-7 -16 -20 -31zM141 223q15 -9 37 -9t37.5 9.5t23.5 27.5q5 11 7 30.5t2 71.5t-2 71.5t-7 31.5q-16 36 -61 36q-22 0 -37.5 -9t-22.5 -27q-5 -11 -6.5 -30.5t-1.5 -72.5t1.5 -72.5t6.5 -29.5q8 -19 23 -28z" />
    <glyph glyph-name="yen" unicode="&#xa5;" horiz-adv-x="376" 
d="M240 346h108v-55h-112v-43h112v-56h-112v-192h-94v192h-113v56h113v43h-113v55h109l-136 360h95l92 -275l93 275h93z" />
    <glyph glyph-name="brokenbar" unicode="&#xa6;" horiz-adv-x="230" 
d="M72 756h86v-313h-86v313zM72 143h86v-313h-86v313z" />
    <glyph glyph-name="section" unicode="&#xa7;" horiz-adv-x="337" 
d="M272 88q18 -17 27 -38q7 -15 9.5 -33t2.5 -49q0 -32 -2.5 -49t-8.5 -32q-31 -65 -132 -65q-51 0 -83 15.5t-47 48.5q-7 16 -9.5 38t-2.5 77h88q0 -47 1 -61.5t5 -22.5q11 -24 48 -24q19 0 30.5 5.5t17.5 17.5q4 6 4.5 17.5t0.5 30.5q0 23 -1.5 34t-5.5 22q-8 16 -24 28
t-49 29q-41 21 -66 40t-38 47q-7 16 -9.5 38t-2.5 70q0 46 2.5 65.5t8.5 32.5q21 46 80 60q-57 34 -76 73q-6 17 -9 34t-3 43q0 27 2.5 42.5t8.5 29.5q14 32 47.5 48.5t82.5 16.5t81.5 -16t46.5 -47q7 -16 9 -35t2 -69h-87q0 29 -1 44t-4 23q-12 24 -49 24q-35 0 -47 -24
q-3 -6 -3.5 -14.5t-0.5 -21.5q0 -14 1 -24.5t5 -19.5q7 -17 24.5 -29.5t51.5 -30.5q43 -22 66 -40t35 -45q8 -17 10.5 -39.5t2.5 -73.5q0 -45 -2.5 -65t-9.5 -35q-19 -44 -74 -58q28 -16 46 -33zM110 326.5q-1 -16.5 -1 -50.5q0 -40 1.5 -53.5t4.5 -21.5q13 -28 54 -28
q39 0 53 28q3 7 4 23.5t1 50.5q0 43 -1 55.5t-5 20.5q-13 27 -53 27q-19 0 -33.5 -7.5t-20.5 -20.5q-3 -7 -4 -23.5z" />
    <glyph glyph-name="dieresis" unicode="&#xa8;" horiz-adv-x="345" 
d="M64 593.5q-14 13.5 -14 35.5t14.5 35.5t36.5 13.5t36.5 -13.5t14.5 -35.5t-14.5 -35.5t-36.5 -13.5q-23 0 -37 13.5zM208 593.5q-14 13.5 -14 35.5t14 35.5t36 13.5t36.5 -13.5t14.5 -35.5t-14.5 -35.5t-36.5 -13.5t-36 13.5z" />
    <glyph glyph-name="copyright" unicode="&#xa9;" horiz-adv-x="519" 
d="M134 19.5q-51 30.5 -76 87.5q-11 23 -16.5 52.5t-7.5 74t-2 119.5t2 119.5t7.5 74t16.5 52.5q25 57 76 87.5t125 30.5q73 0 124 -30t78 -86q15 -35 20.5 -88t5.5 -160q0 -75 -2.5 -120t-8 -73.5t-15.5 -52.5q-26 -57 -77 -87.5t-125 -30.5t-125 30.5zM424 127
q12 29 16 75t4 150t-4.5 152t-16.5 77q-45 97 -163 97q-61 0 -103 -25.5t-63 -73.5q-12 -27 -16 -74.5t-4 -151.5t4 -151t17 -75q46 -99 164 -99q119 0 165 99zM188.5 120.5q-30.5 17.5 -45.5 51.5q-7 16 -10 32t-4.5 49.5t-1.5 99.5t1.5 99.5t4.5 50t10 30.5q15 35 45 52.5
t72 17.5q53 0 88 -30q22 -21 30 -50t8 -86h-71q-1 42 -4 60t-10 27q-16 16 -42 16q-19 0 -31.5 -7.5t-19.5 -23.5q-5 -12 -7 -42.5t-2 -112.5q0 -83 2 -112.5t7 -41.5q13 -31 51 -31q14 0 24 4t19 13q8 10 10.5 28.5t2.5 59.5h72q0 -61 -8 -91t-29 -50q-34 -30 -89 -30
q-42 0 -72.5 17.5z" />
    <glyph glyph-name="ordfeminine" unicode="&#xaa;" horiz-adv-x="258" 
d="M231.5 637q2.5 -18 2.5 -59v-231h-67v26q-28 -31 -75 -31q-26 0 -43.5 9t-24.5 27q-5 10 -6.5 22.5t-1.5 45.5q0 34 1.5 48t6.5 27q10 24 36 34.5t73 10.5h34v12q0 29 -1 42t-4 21q-8 16 -34 16q-24 0 -32 -16q-3 -5 -4 -15t-1 -27h-67q0 32 1.5 45t6.5 25q21 45 97 45
q37 0 60.5 -11t33.5 -34q6 -14 8.5 -32zM166 445q1 13 1 60v9h-28q-21 0 -33.5 -4t-17.5 -14q-2 -6 -3 -15.5t-1 -26.5q0 -15 1 -23t3 -14q8 -17 33 -17q28 0 40 23q4 9 5 22z" />
    <glyph glyph-name="guillemotleft" unicode="&#xab;" horiz-adv-x="341" 
d="M12 297l93 161h84l-93 -161l93 -160h-84zM151 297l93 161h84l-93 -161l93 -160h-84z" />
    <glyph glyph-name="logicalnot" unicode="&#xac;" horiz-adv-x="376" 
d="M275 328h-242v68h313v-254h-71v186z" />
    <glyph glyph-name="uni00AD" unicode="&#xad;" horiz-adv-x="259" 
d="M33 343h196v-83h-196v83z" />
    <glyph glyph-name="registered" unicode="&#xae;" horiz-adv-x="343" 
d="M313 617q3 -13 4 -39.5t1 -65.5t-1 -65.5t-4 -39.5t-10 -28q-33 -70 -131 -70q-99 0 -132 70q-6 14 -9 27.5t-4 40t-1 65.5t1 65.5t4 40t9 27.5q32 70 132 70q99 0 131 -70q7 -15 10 -28zM281 430.5q2 21.5 2 81.5q0 61 -2 82t-10 37q-13 27 -36.5 38.5t-62.5 11.5
q-40 0 -64 -11.5t-36 -38.5q-7 -17 -9.5 -38.5t-2.5 -80.5q0 -58 2.5 -80t9.5 -38q12 -27 36 -39t64 -12q39 0 62.5 12t36.5 39q8 15 10 36.5zM238.5 524.5q-5.5 -13.5 -21.5 -18.5q14 -4 19.5 -14t5.5 -27v-79h-44v74q0 14 -6 20.5t-20 6.5h-24v-101h-44v252h75
q27 0 41 -6.5t19 -21.5t5 -43q0 -29 -5.5 -42.5zM173 526q17 0 22 8t5 30q0 16 -2.5 23t-8.5 10t-19 3h-22v-74h25z" />
    <glyph glyph-name="macron" unicode="&#xaf;" horiz-adv-x="308" 
d="M50 663h208v-66h-208v66z" />
    <glyph glyph-name="degree" unicode="&#xb0;" horiz-adv-x="261" 
d="M71 512q-26 14 -40 39t-14 56q0 32 14 57t39.5 39t59.5 14q33 0 59 -14t40.5 -39t14.5 -57q0 -31 -14.5 -56t-40.5 -39t-59 -14t-59 14zM165 571.5q13 13.5 13 35.5q0 23 -13 37t-34 14q-23 0 -36.5 -14t-13.5 -37q0 -22 13.5 -35.5t36.5 -13.5q21 0 34 13.5z" />
    <glyph glyph-name="plusminus" unicode="&#xb1;" horiz-adv-x="376" 
d="M346 381v-70h-122v-102h-70v102h-121v70h121v102h70v-102h122zM33 177h313v-70h-313v70z" />
    <glyph glyph-name="twosuperior" unicode="&#xb2;" horiz-adv-x="239" 
d="M12 441l109 184q21 34 27 50t6 42q0 16 -1 24t-3 13q-8 17 -32 17q-25 0 -33 -18q-3 -6 -3.5 -15t-0.5 -26h-66q0 34 2 47t7 26q21 47 93 47q76 0 96 -45q5 -11 7 -23t2 -36q0 -36 -6 -59t-25 -54l-25 -44q-26 -46 -40 -69h93v-64h-207v3z" />
    <glyph glyph-name="threesuperior" unicode="&#xb3;" horiz-adv-x="256" 
d="M230.5 597q1.5 -12 1.5 -45q0 -37 -1.5 -50.5t-6.5 -24.5q-10 -23 -36 -34t-64 -11q-37 0 -61 11.5t-34 35.5q-6 13 -8 29.5t-2 59.5h64q0 -25 1 -38t4 -20q4 -8 13 -13t22 -5q29 0 36 16q2 5 3 15t1 31t-1 31t-4 15q-4 9 -15.5 13t-33.5 4h-11v54h11q20 0 31 4.5
t16 13.5q2 5 3 12.5t1 22.5q0 14 -0.5 21t-2.5 12q-7 15 -32 15t-35 -18q-2 -6 -3 -14.5t-1 -26.5h-64q0 31 2 45t6 25q12 26 36 37.5t60 11.5q35 0 60 -11t35 -33q4 -11 6 -22.5t2 -39.5q0 -22 -1.5 -31.5t-4.5 -18.5q-11 -20 -38 -29q30 -7 40 -29q4 -9 5.5 -21z" />
    <glyph glyph-name="acute" unicode="&#xb4;" horiz-adv-x="253" 
d="M115 706h88l-75 -137h-78z" />
    <glyph glyph-name="mu" unicode="&#xb5;" horiz-adv-x="368" 
d="M333 517v-517h-85v43q-14 -24 -36 -37t-50 -13q-27 0 -45 12q6 -50 6 -101v-74h-87v687h86v-370q0 -40 14 -58.5t44 -18.5q31 0 48 21t17 62v364h88z" />
    <glyph glyph-name="paragraph" unicode="&#xb6;" horiz-adv-x="462" 
d="M190 302h-34q-52 0 -83.5 16t-45.5 49q-8 17 -10.5 42.5t-2.5 94.5t2.5 94t10.5 44q14 33 46.5 48.5t85.5 15.5h298v-77h-43v-799h-77v799h-71v-799h-76v472z" />
    <glyph glyph-name="periodcentered" unicode="&#xb7;" horiz-adv-x="221" 
d="M70 262q-16 15 -16 39q0 25 16 40t40 15q25 0 40.5 -15t15.5 -40t-15.5 -39.5t-40.5 -14.5q-24 0 -40 15z" />
    <glyph glyph-name="cedilla" unicode="&#xb8;" horiz-adv-x="266" 
d="M195.5 -55q20.5 -18 20.5 -50q0 -38 -27.5 -56.5t-74.5 -18.5q-34 0 -64 10l10 48q25 -9 48 -9q45 0 45 28q0 14 -12 20.5t-38 6.5h-37l23 87h62l-13 -47q37 -1 57.5 -19z" />
    <glyph glyph-name="onesuperior" unicode="&#xb9;" horiz-adv-x="178" 
d="M69 759h-56l9 67h118v-388h-71v321z" />
    <glyph glyph-name="ordmasculine" unicode="&#xba;" horiz-adv-x="259" 
d="M68 355.5q-25 14.5 -37 41.5q-8 17 -10.5 41t-2.5 90q0 65 2.5 89.5t10.5 41.5q24 55 98 55q37 0 62 -14t37 -41q8 -17 10.5 -41.5t2.5 -89.5q0 -66 -2.5 -90t-10.5 -41q-12 -27 -37.5 -41.5t-61.5 -14.5t-61 14.5zM152 408.5q9 5.5 14 16.5q4 8 5 25.5t1 77.5
q0 59 -1 77t-5 26q-5 11 -14 16.5t-23 5.5q-26 0 -35 -22q-4 -9 -5.5 -27.5t-1.5 -75.5t1.5 -76t5.5 -27q9 -22 35 -22q14 0 23 5.5z" />
    <glyph glyph-name="guillemotright" unicode="&#xbb;" horiz-adv-x="341" 
d="M13 137l93 160l-93 161h84l93 -161l-93 -160h-84zM152 137l94 160l-94 161h84l94 -161l-94 -160h-84z" />
    <glyph glyph-name="onequarter" unicode="&#xbc;" horiz-adv-x="549" 
d="M69 639h-56l9 67h118v-388h-71v321zM366 706h59l-302 -706h-60zM437 87h-155v2l99 299h124v-241h37v-60h-37v-87h-68v87zM437 147v216l-68 -216h68z" />
    <glyph glyph-name="onehalf" unicode="&#xbd;" horiz-adv-x="546" 
d="M69 639h-56l9 67h118v-388h-71v321zM366 706h59l-302 -706h-60zM319 3l109 184q21 34 27 50t6 42q0 16 -1 24t-3 13q-8 17 -32 17q-25 0 -33 -18q-3 -6 -3.5 -15t-0.5 -26h-66q0 34 2 47t7 26q21 47 93 47q76 0 96 -45q5 -11 7 -23t2 -36q0 -36 -6 -59t-25 -54l-25 -44
q-26 -46 -40 -69h93v-64h-207v3z" />
    <glyph glyph-name="threequarters" unicode="&#xbe;" horiz-adv-x="631" 
d="M230.5 477q1.5 -12 1.5 -45q0 -37 -1.5 -50.5t-6.5 -24.5q-10 -23 -36 -34t-64 -11q-37 0 -61 11.5t-34 35.5q-6 13 -8 29.5t-2 59.5h64q0 -25 1 -38t4 -20q4 -8 13 -13t22 -5q29 0 36 16q2 5 3 15t1 31t-1 31t-4 15q-4 9 -15.5 13t-33.5 4h-11v54h11q20 0 31 4.5
t16 13.5q2 5 3 12.5t1 22.5q0 14 -0.5 21t-2.5 12q-7 15 -32 15t-35 -18q-2 -6 -3 -14.5t-1 -26.5h-64q0 31 2 45t6 25q12 26 36 37.5t60 11.5q35 0 60 -11t35 -33q4 -11 6 -22.5t2 -39.5q0 -22 -1.5 -31.5t-4.5 -18.5q-11 -20 -38 -29q30 -7 40 -29q4 -9 5.5 -21zM449 706
h59l-302 -706h-60zM519 87h-155v2l99 299h124v-241h37v-60h-37v-87h-68v87zM519 147v216l-68 -216h68z" />
    <glyph glyph-name="questiondown" unicode="&#xbf;" horiz-adv-x="360" 
d="M146 435q-16 15 -16 40t16 40t40 15q25 0 40.5 -15t15.5 -40t-15.5 -40t-40.5 -15q-24 0 -40 15zM65.5 -141.5q-37.5 37.5 -37.5 106.5q0 28 6.5 58.5t31 103.5t62.5 183q2 8 8 24h95l-19 -52q-36 -99 -58.5 -165t-29 -93.5t-6.5 -53.5q0 -36 13.5 -54t48.5 -18
q22 0 35 7.5t20 23.5q5 11 6.5 28t1.5 69h88q0 -62 -2.5 -85.5t-10.5 -44.5q-16 -37 -52.5 -56t-88.5 -19q-74 0 -111.5 37.5z" />
    <glyph glyph-name="Agrave" unicode="&#xc0;" horiz-adv-x="404" 
d="M288 142h-171l-24 -142h-92l131 706h141l130 -706h-91zM274 223l-71 409h-2l-70 -409h143zM175 750l-88 109h95l77 -109h-84z" />
    <glyph glyph-name="Aacute" unicode="&#xc1;" horiz-adv-x="404" 
d="M288 142h-171l-24 -142h-92l131 706h141l130 -706h-91zM274 223l-71 409h-2l-70 -409h143zM221 859h95l-88 -109h-84z" />
    <glyph glyph-name="Acircumflex" unicode="&#xc2;" horiz-adv-x="404" 
d="M288 142h-171l-24 -142h-92l131 706h141l130 -706h-91zM274 223l-71 409h-2l-70 -409h143zM149 859h105l77 -109h-84l-45 66l-47 -66h-82z" />
    <glyph glyph-name="Atilde" unicode="&#xc3;" horiz-adv-x="404" 
d="M288 142h-171l-24 -142h-92l131 706h141l130 -706h-91zM274 223l-71 409h-2l-70 -409h143zM216.5 754q-17.5 9 -33.5 25q-2 2 -9 8.5t-13.5 9.5t-13.5 3q-14 0 -19.5 -13t-7.5 -40h-55q1 58 20 86.5t61 28.5q24 0 40 -9t33 -26q14 -12 20.5 -16t15.5 -4q14 0 19 12.5
t6 40.5h57q-2 -58 -20.5 -86.5t-59.5 -28.5q-23 0 -40.5 9z" />
    <glyph glyph-name="Adieresis" unicode="&#xc4;" horiz-adv-x="404" 
d="M288 142h-171l-24 -142h-92l131 706h141l130 -706h-91zM274 223l-71 409h-2l-70 -409h143zM90 772q-14 13 -14 34q0 22 14 35.5t36 13.5q21 0 35 -13.5t14 -35.5q0 -21 -14 -34t-35 -13q-22 0 -36 13zM243 772q-14 13 -14 34q0 22 14 35.5t36 13.5q21 0 35 -13.5
t14 -35.5q0 -21 -14 -34t-35 -13q-22 0 -36 13z" />
    <glyph glyph-name="Aring" unicode="&#xc5;" horiz-adv-x="404" 
d="M288 142h-171l-24 -142h-92l131 706h141l130 -706h-91zM274 223l-71 409h-2l-70 -409h143zM134.5 755q-25.5 24 -25.5 63t25.5 62.5t66.5 23.5q42 0 68 -24t26 -62q0 -39 -26 -63t-68 -24q-41 0 -66.5 24zM231.5 789q11.5 11 11.5 29t-11.5 29t-30.5 11q-18 0 -29 -11.5
t-11 -28.5q0 -18 11 -29t29 -11q19 0 30.5 11z" />
    <glyph glyph-name="AE" unicode="&#xc6;" horiz-adv-x="501" 
d="M321 622l13 -205h144v-85h-138l16 -248h123v-84h-206l-8 129h-143l-29 -129h-92l171 706h309v-84h-160zM260 210l-25 416h-2l-93 -416h120z" />
    <glyph glyph-name="Ccedilla" unicode="&#xc7;" horiz-adv-x="435" 
d="M406 227q-1 -55 -6 -91t-16.5 -60t-32.5 -43q-39 -36 -99 -43l-8 -27q37 -1 57.5 -19.5t20.5 -50.5q0 -38 -27.5 -56.5t-74.5 -18.5q-35 0 -64 10l10 48q22 -8 48 -8q44 0 44 27q0 14 -11.5 20.5t-37.5 6.5h-37l18 69q-98 13 -134 98q-10 22 -15 48.5t-7 75.5t-2 140
t2 140t7 76t15 49q21 48 63 73.5t105 25.5q77 0 126 -44q30 -27 42 -69.5t13 -120.5h-94q0 42 -2.5 66.5t-8.5 37.5t-16 23q-24 21 -62 21q-60 0 -82 -50q-6 -14 -9 -33t-4 -69t-1 -126t1 -125.5t4 -69.5t9 -34q21 -49 82 -49q39 0 63 21q10 9 16 23t9 39t3 69h93z" />
    <glyph glyph-name="Egrave" unicode="&#xc8;" horiz-adv-x="319" 
d="M40 706h259v-84h-167v-205h164v-85h-164v-248h167v-84h-259v706zM144 750l-88 109h95l77 -109h-84z" />
    <glyph glyph-name="Eacute" unicode="&#xc9;" horiz-adv-x="319" 
d="M40 706h259v-84h-167v-205h164v-85h-164v-248h167v-84h-259v706zM189 859h95l-88 -109h-84z" />
    <glyph glyph-name="Ecircumflex" unicode="&#xca;" horiz-adv-x="319" 
d="M40 706h259v-84h-167v-205h164v-85h-164v-248h167v-84h-259v706zM117 859h105l77 -109h-84l-45 66l-47 -66h-82z" />
    <glyph glyph-name="Edieresis" unicode="&#xcb;" horiz-adv-x="319" 
d="M40 706h259v-84h-167v-205h164v-85h-164v-248h167v-84h-259v706zM58 772q-14 13 -14 34q0 22 14 35.5t36 13.5q21 0 35 -13.5t14 -35.5q0 -21 -14 -34t-35 -13q-22 0 -36 13zM211 772q-14 13 -14 34q0 22 14 35.5t36 13.5q21 0 35 -13.5t14 -35.5q0 -21 -14 -34t-35 -13
q-22 0 -36 13z" />
    <glyph glyph-name="Igrave" unicode="&#xcc;" horiz-adv-x="172" 
d="M40 706h92v-706h-92v706zM60 750l-88 109h95l77 -109h-84z" />
    <glyph glyph-name="Iacute" unicode="&#xcd;" horiz-adv-x="172" 
d="M40 706h92v-706h-92v706zM105 859h95l-88 -109h-84z" />
    <glyph glyph-name="Icircumflex" unicode="&#xce;" horiz-adv-x="172" 
d="M40 706h92v-706h-92v706zM36 859h99l59 -109h-74l-34 64l-35 -64h-75z" />
    <glyph glyph-name="Idieresis" unicode="&#xcf;" horiz-adv-x="172" 
d="M40 706h92v-706h-92v706zM-6.5 770.5q-13.5 13.5 -13.5 34.5q0 22 13 35.5t34 13.5t34 -13.5t13 -35.5q0 -21 -13.5 -34.5t-33.5 -13.5t-33.5 13.5zM113 770.5q-13 13.5 -13 34.5q0 22 13 35t34 13q20 0 33.5 -13t13.5 -35q0 -21 -13.5 -34.5t-33.5 -13.5q-21 0 -34 13.5
z" />
    <glyph glyph-name="Eth" unicode="&#xd0;" horiz-adv-x="431" 
d="M390.5 565q4.5 -24 6.5 -71.5t2 -140.5t-2 -140.5t-6.5 -71.5t-13.5 -44q-21 -48 -65.5 -72.5t-110.5 -24.5h-157v332h-42v81h42v293h157q66 0 110.5 -24.5t65.5 -72.5q9 -20 13.5 -44zM299 167.5q3 17.5 4 64.5t1 120q0 74 -1 121.5t-4 65t-9 30.5q-11 27 -34.5 40
t-62.5 13h-57v-209h85v-81h-85v-248h57q39 0 62 13.5t35 39.5q6 13 9 30.5z" />
    <glyph glyph-name="Ntilde" unicode="&#xd1;" horiz-adv-x="449" 
d="M40 706h99l181 -501v501h88v-706h-97l-183 514v-514h-88v706zM238.5 754q-17.5 9 -33.5 25q-2 2 -9 8.5t-13.5 9.5t-13.5 3q-14 0 -19.5 -13t-7.5 -40h-55q1 58 20 86.5t61 28.5q24 0 40 -9t33 -26q14 -12 20.5 -16t15.5 -4q14 0 19 12.5t6 40.5h57q-2 -58 -20.5 -86.5
t-59.5 -28.5q-23 0 -40.5 9z" />
    <glyph glyph-name="Ograve" unicode="&#xd2;" horiz-adv-x="448" 
d="M71 63q-15 23 -23 54t-12 86t-4 150q0 91 2 140t7 76t15 49q21 48 63 73.5t105 25.5q62 0 104 -25.5t63 -73.5q10 -22 15 -49.5t7.5 -76.5t2.5 -139t-2.5 -139t-7.5 -76.5t-15 -49.5q-21 -48 -63 -73.5t-104 -25.5q-107 0 -153 74zM308 127q6 14 9 33.5t4 68.5t1 124
t-1 124t-4 68.5t-9 33.5q-23 51 -84 51t-84 -51q-6 -14 -9 -33.5t-4.5 -63t-1.5 -129.5t1.5 -129.5t4.5 -63t9 -33.5q23 -51 84 -51t84 51zM197 750l-88 109h95l77 -109h-84z" />
    <glyph glyph-name="Oacute" unicode="&#xd3;" horiz-adv-x="448" 
d="M71 63q-15 23 -23 54t-12 86t-4 150q0 91 2 140t7 76t15 49q21 48 63 73.5t105 25.5q62 0 104 -25.5t63 -73.5q10 -22 15 -49.5t7.5 -76.5t2.5 -139t-2.5 -139t-7.5 -76.5t-15 -49.5q-21 -48 -63 -73.5t-104 -25.5q-107 0 -153 74zM308 127q6 14 9 33.5t4 68.5t1 124
t-1 124t-4 68.5t-9 33.5q-23 51 -84 51t-84 -51q-6 -14 -9 -33.5t-4.5 -63t-1.5 -129.5t1.5 -129.5t4.5 -63t9 -33.5q23 -51 84 -51t84 51zM243 859h95l-88 -109h-84z" />
    <glyph glyph-name="Ocircumflex" unicode="&#xd4;" horiz-adv-x="448" 
d="M71 63q-15 23 -23 54t-12 86t-4 150q0 91 2 140t7 76t15 49q21 48 63 73.5t105 25.5q62 0 104 -25.5t63 -73.5q10 -22 15 -49.5t7.5 -76.5t2.5 -139t-2.5 -139t-7.5 -76.5t-15 -49.5q-21 -48 -63 -73.5t-104 -25.5q-107 0 -153 74zM308 127q6 14 9 33.5t4 68.5t1 124
t-1 124t-4 68.5t-9 33.5q-23 51 -84 51t-84 -51q-6 -14 -9 -33.5t-4.5 -63t-1.5 -129.5t1.5 -129.5t4.5 -63t9 -33.5q23 -51 84 -51t84 51zM171 859h105l77 -109h-84l-45 66l-47 -66h-82z" />
    <glyph glyph-name="Otilde" unicode="&#xd5;" horiz-adv-x="448" 
d="M71 63q-15 23 -23 54t-12 86t-4 150q0 91 2 140t7 76t15 49q21 48 63 73.5t105 25.5q62 0 104 -25.5t63 -73.5q10 -22 15 -49.5t7.5 -76.5t2.5 -139t-2.5 -139t-7.5 -76.5t-15 -49.5q-21 -48 -63 -73.5t-104 -25.5q-107 0 -153 74zM308 127q6 14 9 33.5t4 68.5t1 124
t-1 124t-4 68.5t-9 33.5q-23 51 -84 51t-84 -51q-6 -14 -9 -33.5t-4.5 -63t-1.5 -129.5t1.5 -129.5t4.5 -63t9 -33.5q23 -51 84 -51t84 51zM238.5 754q-17.5 9 -33.5 25q-2 2 -9 8.5t-13.5 9.5t-13.5 3q-14 0 -19.5 -13t-7.5 -40h-55q1 58 20 86.5t61 28.5q24 0 40 -9
t33 -26q14 -12 20.5 -16t15.5 -4q14 0 19 12.5t6 40.5h57q-2 -58 -20.5 -86.5t-59.5 -28.5q-23 0 -40.5 9z" />
    <glyph glyph-name="Odieresis" unicode="&#xd6;" horiz-adv-x="448" 
d="M71 63q-15 23 -23 54t-12 86t-4 150q0 91 2 140t7 76t15 49q21 48 63 73.5t105 25.5q62 0 104 -25.5t63 -73.5q10 -22 15 -49.5t7.5 -76.5t2.5 -139t-2.5 -139t-7.5 -76.5t-15 -49.5q-21 -48 -63 -73.5t-104 -25.5q-107 0 -153 74zM308 127q6 14 9 33.5t4 68.5t1 124
t-1 124t-4 68.5t-9 33.5q-23 51 -84 51t-84 -51q-6 -14 -9 -33.5t-4.5 -63t-1.5 -129.5t1.5 -129.5t4.5 -63t9 -33.5q23 -51 84 -51t84 51zM112 772q-14 13 -14 34q0 22 14 35.5t36 13.5q21 0 35 -13.5t14 -35.5q0 -21 -14 -34t-35 -13q-22 0 -36 13zM265 772q-14 13 -14 34
q0 22 14 35.5t36 13.5q21 0 35 -13.5t14 -35.5q0 -21 -14 -34t-35 -13q-22 0 -36 13z" />
    <glyph glyph-name="multiply" unicode="&#xd7;" horiz-adv-x="376" 
d="M237 301l99 -99l-48 -49l-99 100l-99 -99l-48 48l99 99l-99 100l48 47l99 -99l99 99l48 -47z" />
    <glyph glyph-name="Oslash" unicode="&#xd8;" horiz-adv-x="448" 
d="M393 615q9 -22 14 -49.5t7 -76.5t2 -136q0 -90 -2.5 -139t-7.5 -76.5t-15 -49.5q-21 -48 -63 -73.5t-104 -25.5q-97 0 -143 60l-29 -49h-52l56 92q-13 33 -18.5 90.5t-5.5 170.5q0 91 2 140t7 76t15 49q21 48 63 73.5t105 25.5q48 0 84 -15.5t60 -45.5l30 50h51z
M131 545.5q-3 -19.5 -4.5 -63t-1.5 -129.5q0 -81 2 -143l184 361l-3 8q-23 51 -84 51t-84 -51q-6 -14 -9 -33.5zM317 160.5q3 19.5 4 68.5t1 124q0 113 -2 145l-184 -361l4 -10q23 -51 84 -51t84 51q6 14 9 33.5z" />
    <glyph glyph-name="Ugrave" unicode="&#xd9;" horiz-adv-x="411" 
d="M77 30q-40 41 -40 126v550h92v-545q0 -44 18 -65t58 -21q41 0 59.5 21t18.5 65v545h91v-550q0 -85 -40 -126t-129 -41q-88 0 -128 41zM179 750l-88 109h95l77 -109h-84z" />
    <glyph glyph-name="Uacute" unicode="&#xda;" horiz-adv-x="411" 
d="M77 30q-40 41 -40 126v550h92v-545q0 -44 18 -65t58 -21q41 0 59.5 21t18.5 65v545h91v-550q0 -85 -40 -126t-129 -41q-88 0 -128 41zM225 859h95l-88 -109h-84z" />
    <glyph glyph-name="Ucircumflex" unicode="&#xdb;" horiz-adv-x="411" 
d="M77 30q-40 41 -40 126v550h92v-545q0 -44 18 -65t58 -21q41 0 59.5 21t18.5 65v545h91v-550q0 -85 -40 -126t-129 -41q-88 0 -128 41zM153 859h105l77 -109h-84l-45 66l-47 -66h-82z" />
    <glyph glyph-name="Udieresis" unicode="&#xdc;" horiz-adv-x="411" 
d="M77 30q-40 41 -40 126v550h92v-545q0 -44 18 -65t58 -21q41 0 59.5 21t18.5 65v545h91v-550q0 -85 -40 -126t-129 -41q-88 0 -128 41zM93 772q-14 13 -14 34q0 22 14 35.5t36 13.5q21 0 35 -13.5t14 -35.5q0 -21 -14 -34t-35 -13q-22 0 -36 13zM246 772q-14 13 -14 34
q0 22 14 35.5t36 13.5q21 0 35 -13.5t14 -35.5q0 -21 -14 -34t-35 -13q-22 0 -36 13z" />
    <glyph glyph-name="Yacute" unicode="&#xdd;" horiz-adv-x="374" 
d="M141 293l-140 413h94l92 -309l92 309h94l-140 -413v-293h-92v293zM207 859h95l-88 -109h-84z" />
    <glyph glyph-name="Thorn" unicode="&#xde;" horiz-adv-x="373" 
d="M40 706h92v-118h67q57 0 92.5 -17t51.5 -52q6 -14 9.5 -29.5t5 -44.5t1.5 -81q0 -53 -1.5 -82t-5 -44.5t-9.5 -29.5q-16 -35 -51.5 -52.5t-92.5 -17.5h-67v-138h-92v706zM178 221q63 0 79 34q5 12 7 31.5t2 77.5q0 57 -2 76.5t-7 30.5q-16 34 -79 34h-46v-284h46z" />
    <glyph glyph-name="germandbls" unicode="&#xdf;" horiz-adv-x="375" 
d="M346.5 304q2.5 -25 2.5 -92q0 -68 -2.5 -94.5t-10.5 -45.5q-32 -72 -144 -72h-35v77l21 -1q57 0 74 38q5 10 6.5 29.5t1.5 75.5q0 55 -2 74.5t-7 30.5q-8 18 -27 28t-50 10h-16v73h14q31 0 47.5 8.5t23.5 24.5q5 10 6 22.5t1 51.5q0 35 -1.5 49t-6.5 24q-6 15 -20.5 22.5
t-34.5 7.5q-41 0 -55 -32q-5 -11 -7 -28.5t-2 -55.5v-529h-87v526q0 50 3 74.5t13 45.5q17 36 50 53.5t85 17.5q103 0 135 -70q8 -18 10.5 -37t2.5 -60q0 -42 -2.5 -64t-8.5 -37q-15 -33 -53 -46q45 -14 65 -55q8 -19 10.5 -44z" />
    <glyph glyph-name="agrave" unicode="&#xe0;" horiz-adv-x="359" 
d="M322 416q3 -26 3 -86v-330h-87v39q-17 -23 -44 -34.5t-61 -11.5q-76 0 -99 51q-7 15 -9 33t-2 63q0 54 1.5 73t8.5 34q16 35 52.5 49.5t99.5 14.5h53v19q0 50 -1 65t-6 26q-7 14 -19.5 20t-32.5 6q-22 0 -35 -7t-19 -21q-3 -9 -4 -21.5t-1 -38.5h-86q0 47 2.5 66t9.5 36
q29 64 134 64q53 0 84.5 -15.5t46.5 -48.5q8 -19 11 -45zM229 106q6 13 7.5 33.5t1.5 85.5v14h-43q-34 0 -53 -6t-25 -22q-3 -8 -4 -21t-1 -38t1 -38.5t4 -20.5q11 -25 49 -25q46 0 63 38zM153 569l-75 137h88l65 -137h-78z" />
    <glyph glyph-name="aacute" unicode="&#xe1;" horiz-adv-x="359" 
d="M322 416q3 -26 3 -86v-330h-87v39q-17 -23 -44 -34.5t-61 -11.5q-76 0 -99 51q-7 15 -9 33t-2 63q0 54 1.5 73t8.5 34q16 35 52.5 49.5t99.5 14.5h53v19q0 50 -1 65t-6 26q-7 14 -19.5 20t-32.5 6q-22 0 -35 -7t-19 -21q-3 -9 -4 -21.5t-1 -38.5h-86q0 47 2.5 66t9.5 36
q29 64 134 64q53 0 84.5 -15.5t46.5 -48.5q8 -19 11 -45zM229 106q6 13 7.5 33.5t1.5 85.5v14h-43q-34 0 -53 -6t-25 -22q-3 -8 -4 -21t-1 -38t1 -38.5t4 -20.5q11 -25 49 -25q46 0 63 38zM195 706h88l-75 -137h-78z" />
    <glyph glyph-name="acircumflex" unicode="&#xe2;" horiz-adv-x="359" 
d="M322 416q3 -26 3 -86v-330h-87v39q-17 -23 -44 -34.5t-61 -11.5q-76 0 -99 51q-7 15 -9 33t-2 63q0 54 1.5 73t8.5 34q16 35 52.5 49.5t99.5 14.5h53v19q0 50 -1 65t-6 26q-7 14 -19.5 20t-32.5 6q-22 0 -35 -7t-19 -21q-3 -9 -4 -21.5t-1 -38.5h-86q0 47 2.5 66t9.5 36
q29 64 134 64q53 0 84.5 -15.5t46.5 -48.5q8 -19 11 -45zM229 106q6 13 7.5 33.5t1.5 85.5v14h-43q-34 0 -53 -6t-25 -22q-3 -8 -4 -21t-1 -38t1 -38.5t4 -20.5q11 -25 49 -25q46 0 63 38zM131 706h100l73 -137h-78l-45 87l-46 -87h-78z" />
    <glyph glyph-name="atilde" unicode="&#xe3;" horiz-adv-x="359" 
d="M322 416q3 -26 3 -86v-330h-87v39q-17 -23 -44 -34.5t-61 -11.5q-76 0 -99 51q-7 15 -9 33t-2 63q0 54 1.5 73t8.5 34q16 35 52.5 49.5t99.5 14.5h53v19q0 50 -1 65t-6 26q-7 14 -19.5 20t-32.5 6q-22 0 -35 -7t-19 -21q-3 -9 -4 -21.5t-1 -38.5h-86q0 47 2.5 66t9.5 36
q29 64 134 64q53 0 84.5 -15.5t46.5 -48.5q8 -19 11 -45zM229 106q6 13 7.5 33.5t1.5 85.5v14h-43q-34 0 -53 -6t-25 -22q-3 -8 -4 -21t-1 -38t1 -38.5t4 -20.5q11 -25 49 -25q46 0 63 38zM192 578.5q-16 11.5 -29 33.5q-3 4 -8.5 13.5t-10.5 13.5t-12 4q-9 0 -14 -6.5
t-7 -22t-3 -44.5h-55q1 72 18 105.5t57 33.5q18 0 30.5 -7t19.5 -15.5t19 -25.5q3 -4 9 -12.5t11.5 -12t12.5 -3.5q9 0 13.5 7t6.5 21.5t3 44.5h55q-1 -72 -18 -105.5t-57 -33.5q-25 0 -41 11.5z" />
    <glyph glyph-name="adieresis" unicode="&#xe4;" horiz-adv-x="359" 
d="M322 416q3 -26 3 -86v-330h-87v39q-17 -23 -44 -34.5t-61 -11.5q-76 0 -99 51q-7 15 -9 33t-2 63q0 54 1.5 73t8.5 34q16 35 52.5 49.5t99.5 14.5h53v19q0 50 -1 65t-6 26q-7 14 -19.5 20t-32.5 6q-22 0 -35 -7t-19 -21q-3 -9 -4 -21.5t-1 -38.5h-86q0 47 2.5 66t9.5 36
q29 64 134 64q53 0 84.5 -15.5t46.5 -48.5q8 -19 11 -45zM229 106q6 13 7.5 33.5t1.5 85.5v14h-43q-34 0 -53 -6t-25 -22q-3 -8 -4 -21t-1 -38t1 -38.5t4 -20.5q11 -25 49 -25q46 0 63 38zM72 593.5q-14 13.5 -14 35.5t14.5 35.5t36.5 13.5t36.5 -13.5t14.5 -35.5
t-14.5 -35.5t-36.5 -13.5q-23 0 -37 13.5zM216 593.5q-14 13.5 -14 35.5t14 35.5t36 13.5t36.5 -13.5t14.5 -35.5t-14.5 -35.5t-36.5 -13.5t-36 13.5z" />
    <glyph glyph-name="aring" unicode="&#xe5;" horiz-adv-x="359" 
d="M322 416q3 -26 3 -86v-330h-87v39q-17 -23 -44 -34.5t-61 -11.5q-76 0 -99 51q-7 15 -9 33t-2 63q0 54 1.5 73t8.5 34q16 35 52.5 49.5t99.5 14.5h53v19q0 50 -1 65t-6 26q-7 14 -19.5 20t-32.5 6q-22 0 -35 -7t-19 -21q-3 -9 -4 -21.5t-1 -38.5h-86q0 47 2.5 66t9.5 36
q29 64 134 64q53 0 84.5 -15.5t46.5 -48.5q8 -19 11 -45zM229 106q6 13 7.5 33.5t1.5 85.5v14h-43q-34 0 -53 -6t-25 -22q-3 -8 -4 -21t-1 -38t1 -38.5t4 -20.5q11 -25 49 -25q46 0 63 38zM113.5 587q-25.5 24 -25.5 63t25.5 62.5t66.5 23.5q42 0 68 -24t26 -62
q0 -39 -26 -63t-68 -24q-41 0 -66.5 24zM210.5 621q11.5 11 11.5 29t-11.5 29t-30.5 11q-18 0 -29 -11.5t-11 -28.5q0 -18 11 -29t29 -11q19 0 30.5 11z" />
    <glyph glyph-name="ae" unicode="&#xe6;" horiz-adv-x="569" 
d="M446.5 99.5q3.5 8.5 5 25t2.5 50.5h89q-1 -45 -5 -72t-13 -45t-25 -32q-36 -33 -106 -33q-94 0 -129 66q-43 -66 -129 -66q-80 0 -102 51q-7 15 -9 33.5t-2 62.5q0 55 1.5 74.5t8.5 33.5q15 34 52 49t100 15h53v15q0 49 -1.5 66t-5.5 28q-7 14 -19.5 20t-32.5 6
q-22 0 -35 -7t-19 -21q-3 -8 -4 -21t-1 -39h-86q0 47 2.5 66.5t9.5 35.5q29 64 134 64q41 0 66.5 -8.5t41.5 -26.5q37 35 102 35q101 0 135 -76q8 -18 12 -39.5t5.5 -59t1.5 -110.5h-218q0 -74 2 -99t7 -38q8 -17 22 -25t36 -8q28 0 42 14q8 7 11.5 15.5zM335 415
q-5 -13 -6.5 -31t-2.5 -72h129q-1 54 -3 72.5t-7 30.5q-15 32 -53 32q-42 0 -57 -32zM238 240h-43q-35 0 -53 -5.5t-25 -21.5q-3 -8 -4 -22t-1 -39q0 -28 1.5 -39.5t4.5 -19.5q6 -14 18.5 -19.5t30.5 -5.5q46 0 61 34q4 9 6 19.5t3 36.5t1 67v15z" />
    <glyph glyph-name="ccedilla" unicode="&#xe7;" horiz-adv-x="358" 
d="M233.5 102q3.5 10 5.5 30.5t2 58.5h91q-1 -52 -4.5 -82t-12 -48.5t-24.5 -33.5q-28 -25 -79 -32l-8 -31q37 -1 57 -19.5t20 -50.5q0 -38 -27 -56.5t-74 -18.5q-35 0 -64 10l10 48q25 -9 48 -9q44 0 44 28q0 14 -11.5 20.5t-37.5 6.5h-37l19 72q-79 12 -108 76
q-7 17 -10.5 35.5t-5 52.5t-1.5 100t1.5 99.5t5 52.5t10.5 35q36 79 140 79q33 0 61 -9t47 -26q16 -15 25 -33.5t12.5 -46.5t4.5 -73h-92q0 33 -2 51t-6 27.5t-11 16.5q-16 14 -39 14q-41 0 -58 -35q-4 -9 -5.5 -21.5t-2.5 -46t-1 -85.5q0 -51 1 -84t3 -45.5t6 -21.5
q15 -35 57 -35q25 0 39 13q8 7 11.5 17z" />
    <glyph glyph-name="egrave" unicode="&#xe8;" horiz-adv-x="365" 
d="M243 101q4 9 5.5 26t2.5 48h87q-1 -44 -4.5 -70.5t-12.5 -44t-25 -32.5q-39 -35 -110 -35q-54 0 -90 20.5t-53 58.5q-7 16 -10.5 35t-5 52.5t-1.5 99.5q0 67 1.5 100.5t5 52t10.5 34.5q17 38 52.5 58.5t87.5 20.5q51 0 86 -19.5t52 -57.5q8 -19 12 -39.5t5.5 -57.5
t1.5 -109h-227q0 -45 1 -74t3 -41t6 -21q8 -18 23 -27t38 -9q32 0 48 15q7 7 11 16zM123 411q-6 -12 -7.5 -29t-2.5 -68h138q-1 53 -2.5 70.5t-6.5 28.5q-17 34 -59 34q-45 0 -60 -36zM156 569l-75 137h88l65 -137h-78z" />
    <glyph glyph-name="eacute" unicode="&#xe9;" horiz-adv-x="365" 
d="M243 101q4 9 5.5 26t2.5 48h87q-1 -44 -4.5 -70.5t-12.5 -44t-25 -32.5q-39 -35 -110 -35q-54 0 -90 20.5t-53 58.5q-7 16 -10.5 35t-5 52.5t-1.5 99.5q0 67 1.5 100.5t5 52t10.5 34.5q17 38 52.5 58.5t87.5 20.5q51 0 86 -19.5t52 -57.5q8 -19 12 -39.5t5.5 -57.5
t1.5 -109h-227q0 -45 1 -74t3 -41t6 -21q8 -18 23 -27t38 -9q32 0 48 15q7 7 11 16zM123 411q-6 -12 -7.5 -29t-2.5 -68h138q-1 53 -2.5 70.5t-6.5 28.5q-17 34 -59 34q-45 0 -60 -36zM198 706h88l-75 -137h-78z" />
    <glyph glyph-name="ecircumflex" unicode="&#xea;" horiz-adv-x="365" 
d="M243 101q4 9 5.5 26t2.5 48h87q-1 -44 -4.5 -70.5t-12.5 -44t-25 -32.5q-39 -35 -110 -35q-54 0 -90 20.5t-53 58.5q-7 16 -10.5 35t-5 52.5t-1.5 99.5q0 67 1.5 100.5t5 52t10.5 34.5q17 38 52.5 58.5t87.5 20.5q51 0 86 -19.5t52 -57.5q8 -19 12 -39.5t5.5 -57.5
t1.5 -109h-227q0 -45 1 -74t3 -41t6 -21q8 -18 23 -27t38 -9q32 0 48 15q7 7 11 16zM123 411q-6 -12 -7.5 -29t-2.5 -68h138q-1 53 -2.5 70.5t-6.5 28.5q-17 34 -59 34q-45 0 -60 -36zM134 706h100l73 -137h-78l-45 87l-46 -87h-78z" />
    <glyph glyph-name="edieresis" unicode="&#xeb;" horiz-adv-x="365" 
d="M243 101q4 9 5.5 26t2.5 48h87q-1 -44 -4.5 -70.5t-12.5 -44t-25 -32.5q-39 -35 -110 -35q-54 0 -90 20.5t-53 58.5q-7 16 -10.5 35t-5 52.5t-1.5 99.5q0 67 1.5 100.5t5 52t10.5 34.5q17 38 52.5 58.5t87.5 20.5q51 0 86 -19.5t52 -57.5q8 -19 12 -39.5t5.5 -57.5
t1.5 -109h-227q0 -45 1 -74t3 -41t6 -21q8 -18 23 -27t38 -9q32 0 48 15q7 7 11 16zM123 411q-6 -12 -7.5 -29t-2.5 -68h138q-1 53 -2.5 70.5t-6.5 28.5q-17 34 -59 34q-45 0 -60 -36zM75 593.5q-14 13.5 -14 35.5t14.5 35.5t36.5 13.5t36.5 -13.5t14.5 -35.5t-14.5 -35.5
t-36.5 -13.5q-23 0 -37 13.5zM219 593.5q-14 13.5 -14 35.5t14 35.5t36 13.5t36.5 -13.5t14.5 -35.5t-14.5 -35.5t-36.5 -13.5t-36 13.5z" />
    <glyph glyph-name="igrave" unicode="&#xec;" horiz-adv-x="159" 
d="M36 517h87v-517h-87v517zM48 569l-71 137h88l61 -137h-78z" />
    <glyph glyph-name="iacute" unicode="&#xed;" horiz-adv-x="159" 
d="M36 517h87v-517h-87v517zM94 706h88l-71 -137h-78z" />
    <glyph glyph-name="icircumflex" unicode="&#xee;" horiz-adv-x="159" 
d="M36 517h87v-517h-87v517zM32 706h94l62 -137h-72l-36 86l-40 -86h-71z" />
    <glyph glyph-name="idieresis" unicode="&#xef;" horiz-adv-x="159" 
d="M36 517h87v-517h-87v517zM-10 593.5q-13 13.5 -13 35.5t13 35.5t33 13.5q21 0 34 -13.5t13 -35.5t-13 -35.5t-34 -13.5q-20 0 -33 13.5zM103 593.5q-13 13.5 -13 35.5t13 35.5t34 13.5q20 0 33 -13.5t13 -35.5t-13 -35.5t-33 -13.5q-21 0 -34 13.5z" />
    <glyph glyph-name="eth" unicode="&#xf0;" horiz-adv-x="367" 
d="M326 480.5q10 -34.5 13 -80.5t3 -140q0 -69 -1.5 -103.5t-5 -52.5t-10.5 -34q-35 -77 -143 -77q-53 0 -88.5 19.5t-52.5 56.5q-7 16 -10 34t-4 56t-1 93q0 69 1.5 104t4.5 53t10 33q29 65 106 65q59 0 95 -39q-9 26 -28 67q-14 30 -23 45l-135 -50v66l102 39
q-14 22 -48 70v1h95q11 -14 31 -42l85 32v-67l-51 -19q4 -7 22 -43q23 -52 33 -86.5zM249 126.5q2 12.5 2.5 45.5t0.5 83q0 73 -2 98.5t-8 39.5q-18 38 -60 38q-41 0 -55 -33q-4 -10 -6.5 -22.5t-3.5 -43.5t-1 -78q0 -50 1 -82t3 -44t6 -22q15 -35 59 -35q43 0 57 34
q5 9 7 21.5z" />
    <glyph glyph-name="ntilde" unicode="&#xf1;" horiz-adv-x="366" 
d="M304 493q28 -32 28 -96v-397h-87v372q0 39 -13.5 56t-43.5 17q-31 0 -48 -20.5t-17 -60.5v-364h-87v517h87v-38q34 46 99 46q54 0 82 -32zM197 578.5q-16 11.5 -29 33.5q-3 4 -8.5 13.5t-10.5 13.5t-12 4q-9 0 -14 -6.5t-7 -22t-3 -44.5h-55q1 72 18 105.5t57 33.5
q18 0 30.5 -7t19.5 -15.5t19 -25.5q3 -4 9 -12.5t11.5 -12t12.5 -3.5q9 0 13.5 7t6.5 21.5t3 44.5h55q-1 -72 -18 -105.5t-57 -33.5q-25 0 -41 11.5z" />
    <glyph glyph-name="ograve" unicode="&#xf2;" horiz-adv-x="366" 
d="M95.5 13.5q-35.5 20.5 -51.5 57.5q-8 17 -11.5 36t-5 52.5t-1.5 99.5q0 65 1.5 99t5 52.5t10.5 34.5q17 38 52.5 59t87.5 21q53 0 88 -21t52 -59q7 -17 11 -35.5t5.5 -52.5t1.5 -98t-1.5 -98t-5.5 -53t-11 -36q-17 -38 -52 -58.5t-88 -20.5q-52 0 -87.5 20.5zM241 106
q4 9 6 22.5t3 46.5t1 84t-1 84t-3 46.5t-6 22.5q-15 34 -58 34t-58 -34q-4 -9 -6 -22.5t-3 -46.5t-1 -84t1 -84t3 -46.5t6 -22.5q15 -34 58 -34t58 34zM156 569l-75 137h88l65 -137h-78z" />
    <glyph glyph-name="oacute" unicode="&#xf3;" horiz-adv-x="366" 
d="M95.5 13.5q-35.5 20.5 -51.5 57.5q-8 17 -11.5 36t-5 52.5t-1.5 99.5q0 65 1.5 99t5 52.5t10.5 34.5q17 38 52.5 59t87.5 21q53 0 88 -21t52 -59q7 -17 11 -35.5t5.5 -52.5t1.5 -98t-1.5 -98t-5.5 -53t-11 -36q-17 -38 -52 -58.5t-88 -20.5q-52 0 -87.5 20.5zM241 106
q4 9 6 22.5t3 46.5t1 84t-1 84t-3 46.5t-6 22.5q-15 34 -58 34t-58 -34q-4 -9 -6 -22.5t-3 -46.5t-1 -84t1 -84t3 -46.5t6 -22.5q15 -34 58 -34t58 34zM198 706h88l-75 -137h-78z" />
    <glyph glyph-name="ocircumflex" unicode="&#xf4;" horiz-adv-x="366" 
d="M95.5 13.5q-35.5 20.5 -51.5 57.5q-8 17 -11.5 36t-5 52.5t-1.5 99.5q0 65 1.5 99t5 52.5t10.5 34.5q17 38 52.5 59t87.5 21q53 0 88 -21t52 -59q7 -17 11 -35.5t5.5 -52.5t1.5 -98t-1.5 -98t-5.5 -53t-11 -36q-17 -38 -52 -58.5t-88 -20.5q-52 0 -87.5 20.5zM241 106
q4 9 6 22.5t3 46.5t1 84t-1 84t-3 46.5t-6 22.5q-15 34 -58 34t-58 -34q-4 -9 -6 -22.5t-3 -46.5t-1 -84t1 -84t3 -46.5t6 -22.5q15 -34 58 -34t58 34zM134 706h100l73 -137h-78l-45 87l-46 -87h-78z" />
    <glyph glyph-name="otilde" unicode="&#xf5;" horiz-adv-x="366" 
d="M95.5 13.5q-35.5 20.5 -51.5 57.5q-8 17 -11.5 36t-5 52.5t-1.5 99.5q0 65 1.5 99t5 52.5t10.5 34.5q17 38 52.5 59t87.5 21q53 0 88 -21t52 -59q7 -17 11 -35.5t5.5 -52.5t1.5 -98t-1.5 -98t-5.5 -53t-11 -36q-17 -38 -52 -58.5t-88 -20.5q-52 0 -87.5 20.5zM241 106
q4 9 6 22.5t3 46.5t1 84t-1 84t-3 46.5t-6 22.5q-15 34 -58 34t-58 -34q-4 -9 -6 -22.5t-3 -46.5t-1 -84t1 -84t3 -46.5t6 -22.5q15 -34 58 -34t58 34zM195 578.5q-16 11.5 -29 33.5q-3 4 -8.5 13.5t-10.5 13.5t-12 4q-9 0 -14 -6.5t-7 -22t-3 -44.5h-55q1 72 18 105.5
t57 33.5q18 0 30.5 -7t19.5 -15.5t19 -25.5q3 -4 9 -12.5t11.5 -12t12.5 -3.5q9 0 13.5 7t6.5 21.5t3 44.5h55q-1 -72 -18 -105.5t-57 -33.5q-25 0 -41 11.5z" />
    <glyph glyph-name="odieresis" unicode="&#xf6;" horiz-adv-x="366" 
d="M95.5 13.5q-35.5 20.5 -51.5 57.5q-8 17 -11.5 36t-5 52.5t-1.5 99.5q0 65 1.5 99t5 52.5t10.5 34.5q17 38 52.5 59t87.5 21q53 0 88 -21t52 -59q7 -17 11 -35.5t5.5 -52.5t1.5 -98t-1.5 -98t-5.5 -53t-11 -36q-17 -38 -52 -58.5t-88 -20.5q-52 0 -87.5 20.5zM241 106
q4 9 6 22.5t3 46.5t1 84t-1 84t-3 46.5t-6 22.5q-15 34 -58 34t-58 -34q-4 -9 -6 -22.5t-3 -46.5t-1 -84t1 -84t3 -46.5t6 -22.5q15 -34 58 -34t58 34zM75 593.5q-14 13.5 -14 35.5t14.5 35.5t36.5 13.5t36.5 -13.5t14.5 -35.5t-14.5 -35.5t-36.5 -13.5q-23 0 -37 13.5z
M219 593.5q-14 13.5 -14 35.5t14 35.5t36 13.5t36.5 -13.5t14.5 -35.5t-14.5 -35.5t-36.5 -13.5t-36 13.5z" />
    <glyph glyph-name="divide" unicode="&#xf7;" horiz-adv-x="376" 
d="M154 406q-14 13 -14 34q0 22 14 35t35 13t34 -13t13 -35q0 -21 -13 -34t-34 -13t-35 13zM33 336h313v-69h-313v69zM154 126q-14 13 -14 34q0 22 14 35t35 13t34 -13t13 -35q0 -21 -13.5 -34t-33.5 -13q-21 0 -35 13z" />
    <glyph glyph-name="oslash" unicode="&#xf8;" horiz-adv-x="366" 
d="M323 445q7 -17 11 -35.5t5.5 -52.5t1.5 -98t-1.5 -98t-5.5 -53t-11 -36q-17 -38 -52 -58.5t-88 -20.5q-67 0 -106 33l-16 -26h-45l35 57l-7 14q-8 17 -11.5 36t-5 52.5t-1.5 99.5q0 65 1.5 99t5 52.5t10.5 34.5q17 38 52.5 59t87.5 21q67 0 108 -35l16 27h45l-36 -57z
M119 389.5q-2 -13.5 -3 -46.5t-1 -84q0 -71 1 -93l125 247q-16 33 -58 33q-43 0 -58 -34q-4 -9 -6 -22.5zM247 128.5q2 13.5 3 46.5t1 84q0 70 -1 91l-124 -246q15 -32 57 -32q43 0 58 34q4 9 6 22.5z" />
    <glyph glyph-name="ugrave" unicode="&#xf9;" horiz-adv-x="366" 
d="M330 517v-517h-87v38q-34 -46 -99 -46q-54 0 -82 32t-28 96v397h87v-372q0 -39 13.5 -56t43.5 -17q31 0 48 20.5t17 60.5v364h87zM151 569l-75 137h88l65 -137h-78z" />
    <glyph glyph-name="uacute" unicode="&#xfa;" horiz-adv-x="366" 
d="M330 517v-517h-87v38q-34 -46 -99 -46q-54 0 -82 32t-28 96v397h87v-372q0 -39 13.5 -56t43.5 -17q31 0 48 20.5t17 60.5v364h87zM193 706h88l-75 -137h-78z" />
    <glyph glyph-name="ucircumflex" unicode="&#xfb;" horiz-adv-x="366" 
d="M330 517v-517h-87v38q-34 -46 -99 -46q-54 0 -82 32t-28 96v397h87v-372q0 -39 13.5 -56t43.5 -17q31 0 48 20.5t17 60.5v364h87zM129 706h100l73 -137h-78l-45 87l-46 -87h-78z" />
    <glyph glyph-name="udieresis" unicode="&#xfc;" horiz-adv-x="366" 
d="M330 517v-517h-87v38q-34 -46 -99 -46q-54 0 -82 32t-28 96v397h87v-372q0 -39 13.5 -56t43.5 -17q31 0 48 20.5t17 60.5v364h87zM70 593.5q-14 13.5 -14 35.5t14.5 35.5t36.5 13.5t36.5 -13.5t14.5 -35.5t-14.5 -35.5t-36.5 -13.5q-23 0 -37 13.5zM214 593.5
q-14 13.5 -14 35.5t14 35.5t36 13.5t36.5 -13.5t14.5 -35.5t-14.5 -35.5t-36.5 -13.5t-36 13.5z" />
    <glyph glyph-name="yacute" unicode="&#xfd;" horiz-adv-x="346" 
d="M340 517l-129 -517l-47 -170h-87l48 176l-120 511h93l70 -395l81 395h91zM189 706h88l-75 -137h-78z" />
    <glyph glyph-name="thorn" unicode="&#xfe;" horiz-adv-x="374" 
d="M341.5 424q3.5 -19 5 -56.5t1.5 -108.5t-1.5 -108.5t-5 -56.5t-10.5 -36q-14 -31 -40.5 -48t-65.5 -17q-32 0 -58 12t-44 35v-210h-87v876h87v-228q18 23 44 35t58 12q39 0 65.5 -17t40.5 -48q7 -17 10.5 -36zM256 146.5q2 28.5 2 112.5q0 83 -2 112t-8 41q-15 34 -55 34
q-33 0 -51.5 -24.5t-18.5 -69.5v-186q0 -45 18.5 -69.5t51.5 -24.5q40 0 55 34q6 12 8 40.5z" />
    <glyph glyph-name="ydieresis" unicode="&#xff;" horiz-adv-x="346" 
d="M340 517l-129 -517l-47 -170h-87l48 176l-120 511h93l70 -395l81 395h91zM66 593.5q-14 13.5 -14 35.5t14.5 35.5t36.5 13.5t36.5 -13.5t14.5 -35.5t-14.5 -35.5t-36.5 -13.5q-23 0 -37 13.5zM210 593.5q-14 13.5 -14 35.5t14 35.5t36 13.5t36.5 -13.5t14.5 -35.5
t-14.5 -35.5t-36.5 -13.5t-36 13.5z" />
    <glyph glyph-name="Amacron" unicode="&#x100;" horiz-adv-x="404" 
d="M288 142h-171l-24 -142h-92l131 706h141l130 -706h-91zM274 223l-71 409h-2l-70 -409h143zM86 837h232v-63h-232v63z" />
    <glyph glyph-name="amacron" unicode="&#x101;" horiz-adv-x="359" 
d="M322 416q3 -26 3 -86v-330h-87v39q-17 -23 -44 -34.5t-61 -11.5q-76 0 -99 51q-7 15 -9 33t-2 63q0 54 1.5 73t8.5 34q16 35 52.5 49.5t99.5 14.5h53v19q0 50 -1 65t-6 26q-7 14 -19.5 20t-32.5 6q-22 0 -35 -7t-19 -21q-3 -9 -4 -21.5t-1 -38.5h-86q0 47 2.5 66t9.5 36
q29 64 134 64q53 0 84.5 -15.5t46.5 -48.5q8 -19 11 -45zM229 106q6 13 7.5 33.5t1.5 85.5v14h-43q-34 0 -53 -6t-25 -22q-3 -8 -4 -21t-1 -38t1 -38.5t4 -20.5q11 -25 49 -25q46 0 63 38zM76 663h208v-66h-208v66z" />
    <glyph glyph-name="Abreve" unicode="&#x102;" horiz-adv-x="404" 
d="M288 142h-171l-24 -142h-92l131 706h141l130 -706h-91zM274 223l-71 409h-2l-70 -409h143zM116 772.5q-29 27.5 -30 86.5h64q1 -32 14 -46t38 -14q26 0 38 14t14 46h64q-1 -59 -30.5 -86.5t-85.5 -27.5q-57 0 -86 27.5z" />
    <glyph glyph-name="abreve" unicode="&#x103;" horiz-adv-x="359" 
d="M322 416q3 -26 3 -86v-330h-87v39q-17 -23 -44 -34.5t-61 -11.5q-76 0 -99 51q-7 15 -9 33t-2 63q0 54 1.5 73t8.5 34q16 35 52.5 49.5t99.5 14.5h53v19q0 50 -1 65t-6 26q-7 14 -19.5 20t-32.5 6q-22 0 -35 -7t-19 -21q-3 -9 -4 -21.5t-1 -38.5h-86q0 47 2.5 66t9.5 36
q29 64 134 64q53 0 84.5 -15.5t46.5 -48.5q8 -19 11 -45zM229 106q6 13 7.5 33.5t1.5 85.5v14h-43q-34 0 -53 -6t-25 -22q-3 -8 -4 -21t-1 -38t1 -38.5t4 -20.5q11 -25 49 -25q46 0 63 38zM92 598q-29 33 -30 108h65q1 -47 13.5 -66t39.5 -19q19 0 30 8t16.5 26.5t7.5 50.5
h64q-1 -75 -30 -108t-88 -33t-88 33z" />
    <glyph glyph-name="Aogonek" unicode="&#x104;" horiz-adv-x="404" 
d="M409 -115v-55q-22 -9 -51 -9q-43 0 -67.5 19t-24.5 54q0 30 17.5 54.5t53.5 51.5h-25l-24 142h-171l-24 -142h-92l131 706h141l130 -706q-34 -28 -49.5 -48t-15.5 -42q0 -16 10 -24t26 -8t35 7zM274 223l-71 409h-2l-70 -409h143z" />
    <glyph glyph-name="aogonek" unicode="&#x105;" horiz-adv-x="359" 
d="M331 -115v-55q-23 -9 -51 -9q-42 0 -67 19t-25 54q0 30 17.5 54.5t53.5 51.5h-21v39q-17 -23 -44 -34.5t-61 -11.5q-76 0 -99 51q-7 15 -9 33t-2 63q0 54 1.5 73t8.5 34q16 35 52.5 49.5t99.5 14.5h53v19q0 50 -1 65t-6 26q-7 14 -19.5 20t-32.5 6q-22 0 -35 -7t-19 -21
q-3 -9 -4 -21.5t-1 -38.5h-86q0 47 2.5 66t9.5 36q29 64 134 64q53 0 84.5 -15.5t46.5 -48.5q8 -19 11 -45t3 -86v-330q-34 -29 -49.5 -48.5t-15.5 -41.5q0 -16 10 -24t26 -8t35 7zM229 106q6 13 7.5 33.5t1.5 85.5v14h-43q-34 0 -53 -6t-25 -22q-3 -8 -4 -21t-1 -38
t1 -38.5t4 -20.5q11 -25 49 -25q46 0 63 38z" />
    <glyph glyph-name="Cacute" unicode="&#x106;" horiz-adv-x="435" 
d="M119.5 14.5q-42.5 25.5 -63.5 74.5q-10 22 -15 48.5t-7 75.5t-2 140t2 140t7 76t15 49q21 48 63 73.5t105 25.5q77 0 126 -44q30 -27 42 -69.5t13 -120.5h-94q0 42 -2.5 66.5t-8.5 37.5t-16 23q-24 21 -62 21q-60 0 -82 -50q-6 -14 -9 -33t-4 -69t-1 -126t1 -125.5
t4 -69.5t9 -34q21 -49 82 -49q39 0 63 21q10 9 16 23t9 39t3 69h93q-1 -55 -6 -91t-16.5 -60t-32.5 -43q-47 -44 -126 -44q-63 0 -105.5 25.5zM243 859h95l-88 -109h-84z" />
    <glyph glyph-name="cacute" unicode="&#x107;" horiz-adv-x="358" 
d="M96 13q-35 20 -53 58q-7 17 -10.5 35.5t-5 52.5t-1.5 100t1.5 99.5t5 52.5t10.5 35q36 79 140 79q33 0 61 -9t47 -26q16 -15 25 -33.5t12.5 -46.5t4.5 -73h-92q0 33 -2 51t-6 27.5t-11 16.5q-16 14 -39 14q-41 0 -58 -35q-4 -9 -5.5 -21.5t-2.5 -46t-1 -85.5q0 -51 1 -84
t3 -45.5t6 -21.5q15 -35 57 -35q25 0 39 13q8 7 11.5 17t5.5 30.5t2 58.5h91q-1 -52 -4.5 -82t-12 -48.5t-24.5 -33.5q-19 -17 -46.5 -25.5t-61.5 -8.5q-52 0 -87 20zM197 706h88l-75 -137h-78z" />
    <glyph glyph-name="Ccircumflex" unicode="&#x108;" horiz-adv-x="435" 
d="M119.5 14.5q-42.5 25.5 -63.5 74.5q-10 22 -15 48.5t-7 75.5t-2 140t2 140t7 76t15 49q21 48 63 73.5t105 25.5q77 0 126 -44q30 -27 42 -69.5t13 -120.5h-94q0 42 -2.5 66.5t-8.5 37.5t-16 23q-24 21 -62 21q-60 0 -82 -50q-6 -14 -9 -33t-4 -69t-1 -126t1 -125.5
t4 -69.5t9 -34q21 -49 82 -49q39 0 63 21q10 9 16 23t9 39t3 69h93q-1 -55 -6 -91t-16.5 -60t-32.5 -43q-47 -44 -126 -44q-63 0 -105.5 25.5zM171 859h105l77 -109h-84l-45 66l-47 -66h-82z" />
    <glyph glyph-name="ccircumflex" unicode="&#x109;" horiz-adv-x="358" 
d="M96 13q-35 20 -53 58q-7 17 -10.5 35.5t-5 52.5t-1.5 100t1.5 99.5t5 52.5t10.5 35q36 79 140 79q33 0 61 -9t47 -26q16 -15 25 -33.5t12.5 -46.5t4.5 -73h-92q0 33 -2 51t-6 27.5t-11 16.5q-16 14 -39 14q-41 0 -58 -35q-4 -9 -5.5 -21.5t-2.5 -46t-1 -85.5q0 -51 1 -84
t3 -45.5t6 -21.5q15 -35 57 -35q25 0 39 13q8 7 11.5 17t5.5 30.5t2 58.5h91q-1 -52 -4.5 -82t-12 -48.5t-24.5 -33.5q-19 -17 -46.5 -25.5t-61.5 -8.5q-52 0 -87 20zM133 706h100l73 -137h-78l-45 87l-46 -87h-78z" />
    <glyph glyph-name="Cdotaccent" unicode="&#x10a;" horiz-adv-x="435" 
d="M119.5 14.5q-42.5 25.5 -63.5 74.5q-10 22 -15 48.5t-7 75.5t-2 140t2 140t7 76t15 49q21 48 63 73.5t105 25.5q77 0 126 -44q30 -27 42 -69.5t13 -120.5h-94q0 42 -2.5 66.5t-8.5 37.5t-16 23q-24 21 -62 21q-60 0 -82 -50q-6 -14 -9 -33t-4 -69t-1 -126t1 -125.5
t4 -69.5t9 -34q21 -49 82 -49q39 0 63 21q10 9 16 23t9 39t3 69h93q-1 -55 -6 -91t-16.5 -60t-32.5 -43q-47 -44 -126 -44q-63 0 -105.5 25.5zM187.5 772.5q-14.5 13.5 -14.5 36.5q0 22 14.5 35t36.5 13t36 -13t14 -35q0 -23 -14 -36.5t-36 -13.5t-36.5 13.5z" />
    <glyph glyph-name="cdotaccent" unicode="&#x10b;" horiz-adv-x="358" 
d="M96 13q-35 20 -53 58q-7 17 -10.5 35.5t-5 52.5t-1.5 100t1.5 99.5t5 52.5t10.5 35q36 79 140 79q33 0 61 -9t47 -26q16 -15 25 -33.5t12.5 -46.5t4.5 -73h-92q0 33 -2 51t-6 27.5t-11 16.5q-16 14 -39 14q-41 0 -58 -35q-4 -9 -5.5 -21.5t-2.5 -46t-1 -85.5q0 -51 1 -84
t3 -45.5t6 -21.5q15 -35 57 -35q25 0 39 13q8 7 11.5 17t5.5 30.5t2 58.5h91q-1 -52 -4.5 -82t-12 -48.5t-24.5 -33.5q-19 -17 -46.5 -25.5t-61.5 -8.5q-52 0 -87 20zM144.5 596q-14.5 14 -14.5 36q0 24 14.5 37.5t37.5 13.5t38 -14t15 -37q0 -22 -15 -36t-38 -14t-37.5 14z
" />
    <glyph glyph-name="Ccaron" unicode="&#x10c;" horiz-adv-x="435" 
d="M119.5 14.5q-42.5 25.5 -63.5 74.5q-10 22 -15 48.5t-7 75.5t-2 140t2 140t7 76t15 49q21 48 63 73.5t105 25.5q77 0 126 -44q30 -27 42 -69.5t13 -120.5h-94q0 42 -2.5 66.5t-8.5 37.5t-16 23q-24 21 -62 21q-60 0 -82 -50q-6 -14 -9 -33t-4 -69t-1 -126t1 -125.5
t4 -69.5t9 -34q21 -49 82 -49q39 0 63 21q10 9 16 23t9 39t3 69h93q-1 -55 -6 -91t-16.5 -60t-32.5 -43q-47 -44 -126 -44q-63 0 -105.5 25.5zM277 749h-105l-77 109h84l45 -66l47 66h82z" />
    <glyph glyph-name="ccaron" unicode="&#x10d;" horiz-adv-x="358" 
d="M96 13q-35 20 -53 58q-7 17 -10.5 35.5t-5 52.5t-1.5 100t1.5 99.5t5 52.5t10.5 35q36 79 140 79q33 0 61 -9t47 -26q16 -15 25 -33.5t12.5 -46.5t4.5 -73h-92q0 33 -2 51t-6 27.5t-11 16.5q-16 14 -39 14q-41 0 -58 -35q-4 -9 -5.5 -21.5t-2.5 -46t-1 -85.5q0 -51 1 -84
t3 -45.5t6 -21.5q15 -35 57 -35q25 0 39 13q8 7 11.5 17t5.5 30.5t2 58.5h91q-1 -52 -4.5 -82t-12 -48.5t-24.5 -33.5q-19 -17 -46.5 -25.5t-61.5 -8.5q-52 0 -87 20zM232 569h-101l-72 137h78l45 -87l46 87h78z" />
    <glyph glyph-name="Dcaron" unicode="&#x10e;" horiz-adv-x="426" 
d="M40 706h157q131 0 176 -97q9 -20 13 -44t6 -72t2 -140t-2 -140t-6 -72t-13 -44q-45 -97 -176 -97h-157v706zM189 84q38 0 61.5 13.5t35.5 39.5q6 13 9 30.5t4 64.5t1 120q0 74 -1 121.5t-4 65t-9 30.5q-11 27 -35 40t-62 13h-57v-538h57zM252 749h-105l-77 109h84l45 -66
l47 66h82z" />
    <glyph glyph-name="dcaron" unicode="&#x10f;" horiz-adv-x="441" 
d="M338 706v-706h-85v43q-36 -50 -104 -50q-39 0 -65.5 17t-40.5 48q-7 17 -10.5 36t-5 56.5t-1.5 108.5t1.5 108.5t5 56.5t10.5 36q14 31 40.5 48t65.5 17q32 0 58 -12t44 -35v228h87zM251 352q0 45 -18.5 69.5t-51.5 24.5q-40 0 -55 -34q-6 -12 -8 -41t-2 -112
q0 -84 2 -112.5t8 -40.5q15 -34 55 -34q33 0 51.5 24.5t18.5 69.5v186zM379 706h68l-24 -148h-60z" />
    <glyph glyph-name="Dcroat" unicode="&#x110;" horiz-adv-x="431" 
d="M390.5 565q4.5 -24 6.5 -71.5t2 -140.5t-2 -140.5t-6.5 -71.5t-13.5 -44q-21 -48 -65.5 -72.5t-110.5 -24.5h-157v332h-42v81h42v293h157q66 0 110.5 -24.5t65.5 -72.5q9 -20 13.5 -44zM299 167.5q3 17.5 4 64.5t1 120q0 74 -1 121.5t-4 65t-9 30.5q-11 27 -34.5 40
t-62.5 13h-57v-209h85v-81h-85v-248h57q39 0 62 13.5t35 39.5q6 13 9 30.5z" />
    <glyph glyph-name="dcroat" unicode="&#x111;" horiz-adv-x="374" 
d="M376 582h-38v-582h-85v43q-36 -50 -104 -50q-39 0 -65.5 17t-40.5 48q-7 17 -10.5 36t-5 56.5t-1.5 108.5t1.5 108.5t5 56.5t10.5 36q14 31 40.5 48t65.5 17q32 0 58 -12t44 -35v104h-129v62h129v62h87v-62h38v-62zM251 352q0 45 -18.5 69.5t-51.5 24.5q-40 0 -55 -34
q-6 -12 -8 -41t-2 -112q0 -84 2 -112.5t8 -40.5q15 -34 55 -34q33 0 51.5 24.5t18.5 69.5v186z" />
    <glyph glyph-name="Emacron" unicode="&#x112;" horiz-adv-x="319" 
d="M40 706h259v-84h-167v-205h164v-85h-164v-248h167v-84h-259v706zM54 837h232v-63h-232v63z" />
    <glyph glyph-name="emacron" unicode="&#x113;" horiz-adv-x="365" 
d="M243 101q4 9 5.5 26t2.5 48h87q-1 -44 -4.5 -70.5t-12.5 -44t-25 -32.5q-39 -35 -110 -35q-54 0 -90 20.5t-53 58.5q-7 16 -10.5 35t-5 52.5t-1.5 99.5q0 67 1.5 100.5t5 52t10.5 34.5q17 38 52.5 58.5t87.5 20.5q51 0 86 -19.5t52 -57.5q8 -19 12 -39.5t5.5 -57.5
t1.5 -109h-227q0 -45 1 -74t3 -41t6 -21q8 -18 23 -27t38 -9q32 0 48 15q7 7 11 16zM123 411q-6 -12 -7.5 -29t-2.5 -68h138q-1 53 -2.5 70.5t-6.5 28.5q-17 34 -59 34q-45 0 -60 -36zM79 663h208v-66h-208v66z" />
    <glyph glyph-name="Ebreve" unicode="&#x114;" horiz-adv-x="319" 
d="M40 706h259v-84h-167v-205h164v-85h-164v-248h167v-84h-259v706zM84 772.5q-29 27.5 -30 86.5h64q1 -32 14 -46t38 -14q26 0 38 14t14 46h64q-1 -59 -30.5 -86.5t-85.5 -27.5q-57 0 -86 27.5z" />
    <glyph glyph-name="ebreve" unicode="&#x115;" horiz-adv-x="365" 
d="M243 101q4 9 5.5 26t2.5 48h87q-1 -44 -4.5 -70.5t-12.5 -44t-25 -32.5q-39 -35 -110 -35q-54 0 -90 20.5t-53 58.5q-7 16 -10.5 35t-5 52.5t-1.5 99.5q0 67 1.5 100.5t5 52t10.5 34.5q17 38 52.5 58.5t87.5 20.5q51 0 86 -19.5t52 -57.5q8 -19 12 -39.5t5.5 -57.5
t1.5 -109h-227q0 -45 1 -74t3 -41t6 -21q8 -18 23 -27t38 -9q32 0 48 15q7 7 11 16zM123 411q-6 -12 -7.5 -29t-2.5 -68h138q-1 53 -2.5 70.5t-6.5 28.5q-17 34 -59 34q-45 0 -60 -36zM95 598q-29 33 -30 108h65q1 -47 13.5 -66t39.5 -19q19 0 30 8t16.5 26.5t7.5 50.5h64
q-1 -75 -30 -108t-88 -33t-88 33z" />
    <glyph glyph-name="Edotaccent" unicode="&#x116;" horiz-adv-x="319" 
d="M40 706h259v-84h-167v-205h164v-85h-164v-248h167v-84h-259v706zM133.5 772.5q-14.5 13.5 -14.5 36.5q0 22 14.5 35t36.5 13t36 -13t14 -35q0 -23 -14 -36.5t-36 -13.5t-36.5 13.5z" />
    <glyph glyph-name="edotaccent" unicode="&#x117;" horiz-adv-x="365" 
d="M243 101q4 9 5.5 26t2.5 48h87q-1 -44 -4.5 -70.5t-12.5 -44t-25 -32.5q-39 -35 -110 -35q-54 0 -90 20.5t-53 58.5q-7 16 -10.5 35t-5 52.5t-1.5 99.5q0 67 1.5 100.5t5 52t10.5 34.5q17 38 52.5 58.5t87.5 20.5q51 0 86 -19.5t52 -57.5q8 -19 12 -39.5t5.5 -57.5
t1.5 -109h-227q0 -45 1 -74t3 -41t6 -21q8 -18 23 -27t38 -9q32 0 48 15q7 7 11 16zM123 411q-6 -12 -7.5 -29t-2.5 -68h138q-1 53 -2.5 70.5t-6.5 28.5q-17 34 -59 34q-45 0 -60 -36zM145.5 596q-14.5 14 -14.5 36q0 24 14.5 37.5t37.5 13.5t38 -14t15 -37q0 -22 -15 -36
t-38 -14t-37.5 14z" />
    <glyph glyph-name="Eogonek" unicode="&#x118;" horiz-adv-x="319" 
d="M304 -115v-55q-22 -9 -51 -9q-42 0 -66.5 19t-24.5 54q0 30 17.5 55t52.5 51h-192v706h259v-84h-167v-205h164v-85h-164v-248h167v-84q-35 -29 -50.5 -48.5t-15.5 -41.5q0 -16 10 -24t26 -8t35 7z" />
    <glyph glyph-name="eogonek" unicode="&#x119;" horiz-adv-x="366" 
d="M246.5 -26q-12.5 -14 -20 -28.5t-7.5 -30.5q0 -18 10 -27.5t26 -9.5t35 7v-55q-22 -9 -51 -9q-42 0 -67 20.5t-25 58.5q0 27 13 49t38 44h-12q-54 0 -90 20t-53 59q-7 16 -10.5 35t-5 52.5t-1.5 99.5q0 67 1.5 100.5t5 52t10.5 34.5q18 38 53 58.5t87 20.5
q51 0 86.5 -19.5t52.5 -57.5q8 -19 12 -39.5t5 -56.5t1 -110h-226q0 -45 0.5 -74.5t2.5 -41t6 -20.5q8 -18 23 -27t39 -9q32 0 48 15q7 7 11 16t5.5 26t2.5 48h87q-1 -46 -5 -73t-15.5 -47t-35.5 -44q-24 -23 -36.5 -37zM146 438q-15 -9 -23 -27q-5 -11 -6.5 -27.5
t-2.5 -69.5h138q-1 51 -3 69t-7 30q-15 34 -58 34q-23 0 -38 -9z" />
    <glyph glyph-name="Ecaron" unicode="&#x11a;" horiz-adv-x="319" 
d="M40 706h259v-84h-167v-205h164v-85h-164v-248h167v-84h-259v706zM223 749h-105l-77 109h84l45 -66l47 66h82z" />
    <glyph glyph-name="ecaron" unicode="&#x11b;" horiz-adv-x="365" 
d="M243 101q4 9 5.5 26t2.5 48h87q-1 -44 -4.5 -70.5t-12.5 -44t-25 -32.5q-39 -35 -110 -35q-54 0 -90 20.5t-53 58.5q-7 16 -10.5 35t-5 52.5t-1.5 99.5q0 67 1.5 100.5t5 52t10.5 34.5q17 38 52.5 58.5t87.5 20.5q51 0 86 -19.5t52 -57.5q8 -19 12 -39.5t5.5 -57.5
t1.5 -109h-227q0 -45 1 -74t3 -41t6 -21q8 -18 23 -27t38 -9q32 0 48 15q7 7 11 16zM123 411q-6 -12 -7.5 -29t-2.5 -68h138q-1 53 -2.5 70.5t-6.5 28.5q-17 34 -59 34q-45 0 -60 -36zM233 569h-101l-72 137h78l45 -87l46 87h78z" />
    <glyph glyph-name="Gcircumflex" unicode="&#x11c;" horiz-adv-x="439" 
d="M407 360v-46q0 -78 -2 -121t-7 -66.5t-14 -44.5q-43 -93 -160 -93q-123 0 -169 101q-10 21 -14.5 47t-6.5 75t-2 141t2 141t6.5 75t14.5 47q46 101 170 101q80 0 125 -42q20 -19 31.5 -42.5t16 -58t5.5 -87.5h-90q-2 54 -7.5 82t-20.5 42q-20 20 -61 20q-63 0 -84 -50
q-6 -14 -9 -33.5t-4.5 -63.5t-1.5 -131t1.5 -131t4.5 -63.5t9 -33.5q23 -50 85 -50q60 0 81 45q4 10 6 23t3 46.5t1 85.5h-87v85h178zM170 859h105l77 -109h-84l-45 66l-47 -66h-82z" />
    <glyph glyph-name="gcircumflex" unicode="&#x11d;" horiz-adv-x="374" 
d="M338 517v-497q0 -57 -3.5 -83t-12.5 -45q-17 -36 -51 -53.5t-88 -17.5q-76 0 -114 33q-20 18 -28 44t-10 63h87q1 -20 4.5 -32t12.5 -20q20 -15 50 -15q43 0 59 33q4 10 5.5 24.5t1.5 54.5v34q-18 -23 -44 -35t-58 -12q-39 0 -65.5 17.5t-40.5 48.5q-7 16 -10.5 35.5
t-5 56t-1.5 108.5q0 73 1.5 109.5t5 56t10.5 35.5q14 31 40.5 48t65.5 17q66 0 103 -49v41h86zM232.5 97q18.5 24 18.5 70v185q0 45 -18.5 69.5t-51.5 24.5q-41 0 -56 -34q-5 -12 -7 -40t-2 -113t2 -113t7 -40q15 -33 56 -33q33 0 51.5 24zM136 706h100l73 -137h-78l-45 87
l-46 -87h-78z" />
    <glyph glyph-name="Gbreve" unicode="&#x11e;" horiz-adv-x="439" 
d="M407 360v-46q0 -78 -2 -121t-7 -66.5t-14 -44.5q-43 -93 -160 -93q-123 0 -169 101q-10 21 -14.5 47t-6.5 75t-2 141t2 141t6.5 75t14.5 47q46 101 170 101q80 0 125 -42q20 -19 31.5 -42.5t16 -58t5.5 -87.5h-90q-2 54 -7.5 82t-20.5 42q-20 20 -61 20q-63 0 -84 -50
q-6 -14 -9 -33.5t-4.5 -63.5t-1.5 -131t1.5 -131t4.5 -63.5t9 -33.5q23 -50 85 -50q60 0 81 45q4 10 6 23t3 46.5t1 85.5h-87v85h178zM137 772.5q-29 27.5 -30 86.5h64q1 -32 14 -46t38 -14q26 0 38 14t14 46h64q-1 -59 -30.5 -86.5t-85.5 -27.5q-57 0 -86 27.5z" />
    <glyph glyph-name="gbreve" unicode="&#x11f;" horiz-adv-x="374" 
d="M338 517v-497q0 -57 -3.5 -83t-12.5 -45q-17 -36 -51 -53.5t-88 -17.5q-76 0 -114 33q-20 18 -28 44t-10 63h87q1 -20 4.5 -32t12.5 -20q20 -15 50 -15q43 0 59 33q4 10 5.5 24.5t1.5 54.5v34q-18 -23 -44 -35t-58 -12q-39 0 -65.5 17.5t-40.5 48.5q-7 16 -10.5 35.5
t-5 56t-1.5 108.5q0 73 1.5 109.5t5 56t10.5 35.5q14 31 40.5 48t65.5 17q66 0 103 -49v41h86zM232.5 97q18.5 24 18.5 70v185q0 45 -18.5 69.5t-51.5 24.5q-41 0 -56 -34q-5 -12 -7 -40t-2 -113t2 -113t7 -40q15 -33 56 -33q33 0 51.5 24zM97 598q-29 33 -30 108h65
q1 -47 13.5 -66t39.5 -19q19 0 30 8t16.5 26.5t7.5 50.5h64q-1 -75 -30 -108t-88 -33t-88 33z" />
    <glyph glyph-name="Gdotaccent" unicode="&#x120;" horiz-adv-x="439" 
d="M407 360v-46q0 -78 -2 -121t-7 -66.5t-14 -44.5q-43 -93 -160 -93q-123 0 -169 101q-10 21 -14.5 47t-6.5 75t-2 141t2 141t6.5 75t14.5 47q46 101 170 101q80 0 125 -42q20 -19 31.5 -42.5t16 -58t5.5 -87.5h-90q-2 54 -7.5 82t-20.5 42q-20 20 -61 20q-63 0 -84 -50
q-6 -14 -9 -33.5t-4.5 -63.5t-1.5 -131t1.5 -131t4.5 -63.5t9 -33.5q23 -50 85 -50q60 0 81 45q4 10 6 23t3 46.5t1 85.5h-87v85h178zM186.5 772.5q-14.5 13.5 -14.5 36.5q0 22 14.5 35t36.5 13t36 -13t14 -35q0 -23 -14 -36.5t-36 -13.5t-36.5 13.5z" />
    <glyph glyph-name="gdotaccent" unicode="&#x121;" horiz-adv-x="374" 
d="M338 517v-497q0 -57 -3.5 -83t-12.5 -45q-17 -36 -51 -53.5t-88 -17.5q-76 0 -114 33q-20 18 -28 44t-10 63h87q1 -20 4.5 -32t12.5 -20q20 -15 50 -15q43 0 59 33q4 10 5.5 24.5t1.5 54.5v34q-18 -23 -44 -35t-58 -12q-39 0 -65.5 17.5t-40.5 48.5q-7 16 -10.5 35.5
t-5 56t-1.5 108.5q0 73 1.5 109.5t5 56t10.5 35.5q14 31 40.5 48t65.5 17q66 0 103 -49v41h86zM232.5 97q18.5 24 18.5 70v185q0 45 -18.5 69.5t-51.5 24.5q-41 0 -56 -34q-5 -12 -7 -40t-2 -113t2 -113t7 -40q15 -33 56 -33q33 0 51.5 24zM146.5 596q-14.5 14 -14.5 36
q0 24 14.5 37.5t37.5 13.5t38 -14t15 -37q0 -22 -15 -36t-38 -14t-37.5 14z" />
    <glyph glyph-name="Gcommaaccent" unicode="&#x122;" horiz-adv-x="439" 
d="M407 360v-46q0 -78 -2 -121t-7 -66.5t-14 -44.5q-43 -93 -160 -93q-123 0 -169 101q-10 21 -14.5 47t-6.5 75t-2 141t2 141t6.5 75t14.5 47q46 101 170 101q80 0 125 -42q20 -19 31.5 -42.5t16 -58t5.5 -87.5h-90q-2 54 -7.5 82t-20.5 42q-20 20 -61 20q-63 0 -84 -50
q-6 -14 -9 -33.5t-4.5 -63.5t-1.5 -131t1.5 -131t4.5 -63.5t9 -33.5q23 -50 85 -50q60 0 81 45q4 10 6 23t3 46.5t1 85.5h-87v85h178zM180 -40h87l-29 -130h-81z" />
    <glyph glyph-name="gcommaaccent" unicode="&#x123;" horiz-adv-x="374" 
d="M338 517v-497q0 -57 -3.5 -83t-12.5 -45q-17 -36 -51 -53.5t-88 -17.5q-76 0 -114 33q-20 18 -28 44t-10 63h87q1 -20 4.5 -32t12.5 -20q20 -15 50 -15q43 0 59 33q4 10 5.5 24.5t1.5 54.5v34q-18 -23 -44 -35t-58 -12q-39 0 -65.5 17.5t-40.5 48.5q-7 16 -10.5 35.5
t-5 56t-1.5 108.5q0 73 1.5 109.5t5 56t10.5 35.5q14 31 40.5 48t65.5 17q66 0 103 -49v41h86zM232.5 97q18.5 24 18.5 70v185q0 45 -18.5 69.5t-51.5 24.5q-41 0 -56 -34q-5 -12 -7 -40t-2 -113t2 -113t7 -40q15 -33 56 -33q33 0 51.5 24zM212 573h-87l30 130h80z" />
    <glyph glyph-name="Hcircumflex" unicode="&#x124;" horiz-adv-x="422" 
d="M40 706h92v-289h158v289h91v-706h-91v332h-158v-332h-92v706zM158 859h105l77 -109h-84l-45 66l-47 -66h-82z" />
    <glyph glyph-name="hcircumflex" unicode="&#x125;" horiz-adv-x="366" 
d="M304 493q28 -32 28 -96v-397h-87v372q0 39 -13.5 56t-43.5 17q-31 0 -48 -20.5t-17 -60.5v-364h-87v706h87v-227q34 46 99 46q54 0 82 -32zM132 859h105l77 -109h-84l-45 66l-47 -66h-82z" />
    <glyph glyph-name="Hbar" unicode="&#x126;" horiz-adv-x="422" 
d="M381 706v-706h-91v332h-158v-332h-92v706h92v-115h158v115h91zM290 417v112h-158v-112h158z" />
    <glyph glyph-name="hbar" unicode="&#x127;" horiz-adv-x="366" 
d="M304 493q28 -32 28 -96v-397h-87v372q0 39 -13.5 56t-43.5 17q-31 0 -48 -20.5t-17 -60.5v-364h-87v582h-35v62h35v62h87v-62h131v-62h-131v-103q34 46 99 46q54 0 82 -32z" />
    <glyph glyph-name="Itilde" unicode="&#x128;" horiz-adv-x="172" 
d="M40 706h92v-706h-92v706zM96 755.5q-14 8.5 -26 24.5q-9 11 -14.5 15.5t-12.5 4.5q-11 0 -14.5 -11.5t-4.5 -38.5h-50q1 57 16.5 84t50.5 27q22 0 35.5 -8t26.5 -24q9 -11 14.5 -16t11.5 -5q10 0 13.5 11t4.5 41h51q-1 -59 -16.5 -86t-49.5 -27q-22 0 -36 8.5z" />
    <glyph glyph-name="itilde" unicode="&#x129;" horiz-adv-x="159" 
d="M36 517h87v-517h-87v517zM90 574.5q-12 7.5 -17.5 17t-13.5 26.5q-4 13 -8.5 20t-9.5 7q-6 0 -9 -7.5t-4 -25.5t-1 -42h-53q0 50 5 79.5t19.5 44.5t40.5 15q18 0 30 -7.5t17.5 -17t13.5 -26.5q4 -13 8.5 -20t9.5 -7q6 0 9 7.5t4 25.5t1 42h53q0 -50 -5 -79.5t-19.5 -44.5
t-40.5 -15q-18 0 -30 7.5z" />
    <glyph glyph-name="Imacron" unicode="&#x12a;" horiz-adv-x="172" 
d="M40 706h92v-706h-92v706zM-4 836h181v-63h-181v63z" />
    <glyph glyph-name="imacron" unicode="&#x12b;" horiz-adv-x="159" 
d="M36 517h87v-517h-87v517zM-7 663h175v-66h-175v66z" />
    <glyph glyph-name="Ibreve" unicode="&#x12c;" horiz-adv-x="172" 
d="M40 706h92v-706h-92v706zM10.5 772q-24.5 27 -24.5 87h61q1 -34 9.5 -47t30.5 -13q20 0 28.5 13t9.5 47h61q0 -60 -24 -87t-75 -27q-52 0 -76.5 27z" />
    <glyph glyph-name="ibreve" unicode="&#x12d;" horiz-adv-x="159" 
d="M36 517h87v-517h-87v517zM3.5 598q-24.5 33 -24.5 108h61q0 -34 4 -52t12.5 -25t23.5 -7t23.5 7t12 25t3.5 52h61q0 -75 -24 -108t-76 -33t-76.5 33z" />
    <glyph glyph-name="Iogonek" unicode="&#x12e;" horiz-adv-x="172" 
d="M140 -115v-55q-21 -9 -45 -9q-39 0 -61.5 17.5t-22.5 50.5q0 31 13.5 57t41.5 54h-26v706h92v-706q-26 -31 -37.5 -52t-11.5 -44q0 -26 29 -26q12 0 28 7z" />
    <glyph glyph-name="iogonek" unicode="&#x12f;" horiz-adv-x="159" 
d="M42 597q-15 14 -15 37t15 36.5t39 13.5q23 0 37.5 -13.5t14.5 -36.5t-14.5 -37t-37.5 -14q-24 0 -39 14zM103 -122q12 0 28 7v-55q-21 -9 -44 -9q-39 0 -62 17.5t-23 50.5q0 31 13.5 57t41.5 54h-21v517h87v-517q-26 -31 -37.5 -52t-11.5 -44q0 -26 29 -26z" />
    <glyph glyph-name="Idotaccent" unicode="&#x130;" horiz-adv-x="172" 
d="M40 706h92v-706h-92v706zM49.5 772.5q-14.5 13.5 -14.5 36.5q0 22 14.5 35t36.5 13t36 -13t14 -35q0 -23 -14 -36.5t-36 -13.5t-36.5 13.5z" />
    <glyph glyph-name="dotlessi" unicode="&#x131;" horiz-adv-x="159" 
d="M36 517h87v-517h-87v517z" />
    <glyph glyph-name="IJ" unicode="&#x132;" horiz-adv-x="387" 
d="M40 706h92v-706h-92v706zM177 0v87q8 -1 23 -1q33 0 46 16t13 54v550h91v-567q0 -73 -30.5 -107t-100.5 -34q-12 0 -42 2z" />
    <glyph glyph-name="ij" unicode="&#x133;" horiz-adv-x="322" 
d="M42 597q-15 14 -15 37t15 36.5t39 13.5q23 0 37.5 -13.5t14.5 -36.5t-14.5 -37t-37.5 -14q-24 0 -39 14zM36 517h87v-517h-87v517zM205 597q-15 14 -15 37t15 36.5t39 13.5q23 0 37.5 -13.5t14.5 -36.5t-14.5 -37t-37.5 -14q-24 0 -39 14zM138 -170v79h19q24 0 33.5 10.5
t9.5 38.5v559h87v-574q0 -61 -27 -88t-85 -27q-25 0 -37 2z" />
    <glyph glyph-name="Jcircumflex" unicode="&#x134;" horiz-adv-x="215" 
d="M5 0v87q8 -1 23 -1q33 0 46 16t13 54v550h91v-567q0 -73 -30.5 -107t-100.5 -34q-12 0 -42 2zM84 859h99l59 -109h-74l-34 64l-35 -64h-75z" />
    <glyph glyph-name="jcircumflex" unicode="&#x135;" horiz-adv-x="164" 
d="M-21 -170v79h19q24 0 33.5 10.5t9.5 38.5v559h87v-574q0 -61 -27 -88t-85 -27q-25 0 -37 2zM36 706h94l62 -137h-72l-36 86l-40 -86h-71z" />
    <glyph glyph-name="Kcommaaccent" unicode="&#x136;" horiz-adv-x="392" 
d="M288 0l-156 345v-345h-92v706h92v-291l135 291h99l-150 -325l174 -381h-102zM161 -40h87l-29 -130h-81z" />
    <glyph glyph-name="kcommaaccent" unicode="&#x137;" horiz-adv-x="342" 
d="M240 0l-117 254v-254h-87v706h87v-391l103 202h101l-121 -233l136 -284h-102zM136 -40h87l-29 -130h-81z" />
    <glyph glyph-name="kgreenlandic" unicode="&#x138;" horiz-adv-x="342" 
d="M240 0l-117 254v-254h-87v517h87v-202l103 202h101l-121 -233l136 -284h-102z" />
    <glyph glyph-name="Lacute" unicode="&#x139;" horiz-adv-x="257" 
d="M40 706h92v-622h120v-84h-212v706zM109 859h95l-88 -109h-84z" />
    <glyph glyph-name="lacute" unicode="&#x13a;" horiz-adv-x="159" 
d="M36 706h87v-706h-87v706zM99 859h95l-88 -109h-84z" />
    <glyph glyph-name="Lcommaaccent" unicode="&#x13b;" horiz-adv-x="257" 
d="M40 706h92v-622h120v-84h-212v706zM102 -40h87l-29 -130h-81z" />
    <glyph glyph-name="lcommaaccent" unicode="&#x13c;" horiz-adv-x="159" 
d="M36 706h87v-706h-87v706zM37 -40h87l-29 -130h-81z" />
    <glyph glyph-name="Lcaron" unicode="&#x13d;" horiz-adv-x="273" 
d="M40 706h92v-622h120v-84h-212v706zM181 706h68l-24 -148h-60z" />
    <glyph glyph-name="lcaron" unicode="&#x13e;" horiz-adv-x="225" 
d="M36 706h87v-706h-87v706zM163 706h68l-24 -148h-60z" />
    <glyph glyph-name="Ldot" unicode="&#x13f;" horiz-adv-x="327" 
d="M40 706h92v-622h120v-84h-212v706zM207 351q-16 15 -16 39q0 25 16 40t40 15q25 0 40.5 -15t15.5 -40t-15.5 -39.5t-40.5 -14.5q-24 0 -40 15z" />
    <glyph glyph-name="ldot" unicode="&#x140;" horiz-adv-x="292" 
d="M36 706h87v-706h-87v706zM185 330q-16 15 -16 39q0 25 16 40t40 15q25 0 40.5 -15t15.5 -40t-15.5 -39.5t-40.5 -14.5q-24 0 -40 15z" />
    <glyph glyph-name="Lslash" unicode="&#x141;" horiz-adv-x="261" 
d="M256 84v-84h-212v317l-43 -29v87l43 30v301h92v-252l84 59v-88l-84 -59v-282h120z" />
    <glyph glyph-name="lslash" unicode="&#x142;" horiz-adv-x="181" 
d="M182 404l-52 -38v-366h-87v316l-44 -32v75l44 32v315h87v-265l52 38v-75z" />
    <glyph glyph-name="Nacute" unicode="&#x143;" horiz-adv-x="449" 
d="M40 706h99l181 -501v501h88v-706h-97l-183 514v-514h-88v706zM243 859h95l-88 -109h-84z" />
    <glyph glyph-name="nacute" unicode="&#x144;" horiz-adv-x="366" 
d="M304 493q28 -32 28 -96v-397h-87v372q0 39 -13.5 56t-43.5 17q-31 0 -48 -20.5t-17 -60.5v-364h-87v517h87v-38q34 46 99 46q54 0 82 -32zM201 706h88l-75 -137h-78z" />
    <glyph glyph-name="Ncommaaccent" unicode="&#x145;" horiz-adv-x="449" 
d="M40 706h99l181 -501v501h88v-706h-97l-183 514v-514h-88v706zM183 -40h87l-29 -130h-81z" />
    <glyph glyph-name="ncommaaccent" unicode="&#x146;" horiz-adv-x="366" 
d="M304 493q28 -32 28 -96v-397h-87v372q0 39 -13.5 56t-43.5 17q-31 0 -48 -20.5t-17 -60.5v-364h-87v517h87v-38q34 46 99 46q54 0 82 -32zM145 -40h87l-29 -130h-81z" />
    <glyph glyph-name="Ncaron" unicode="&#x147;" horiz-adv-x="449" 
d="M40 706h99l181 -501v501h88v-706h-97l-183 514v-514h-88v706zM276 749h-105l-77 109h84l45 -66l47 66h82z" />
    <glyph glyph-name="ncaron" unicode="&#x148;" horiz-adv-x="366" 
d="M304 493q28 -32 28 -96v-397h-87v372q0 39 -13.5 56t-43.5 17q-31 0 -48 -20.5t-17 -60.5v-364h-87v517h87v-38q34 46 99 46q54 0 82 -32zM236 569h-101l-72 137h78l45 -87l46 87h78z" />
    <glyph glyph-name="napostrophe" unicode="&#x149;" horiz-adv-x="492" 
d="M66 706h87l-62 -258h-68zM430 493q28 -32 28 -96v-397h-87v372q0 39 -13.5 56t-43.5 17q-31 0 -48 -20.5t-17 -60.5v-364h-87v517h87v-38q34 46 99 46q54 0 82 -32z" />
    <glyph glyph-name="Eng" unicode="&#x14a;" horiz-adv-x="449" 
d="M408 706v-767q0 -59 -26.5 -85t-82.5 -26q-27 0 -41 2v75l19 -1q23 0 33 13t10 41v54l-192 507v-519h-88v706h99l181 -481v481h88z" />
    <glyph glyph-name="eng" unicode="&#x14b;" horiz-adv-x="366" 
d="M304 493q28 -32 28 -96v-454q0 -61 -27 -88t-85 -27q-25 0 -37 2v79h20q23 0 32.5 10.5t9.5 38.5v414q0 39 -13.5 56t-43.5 17q-31 0 -48 -20.5t-17 -60.5v-364h-87v517h87v-38q34 46 99 46q54 0 82 -32z" />
    <glyph glyph-name="Omacron" unicode="&#x14c;" horiz-adv-x="448" 
d="M71 63q-15 23 -23 54t-12 86t-4 150q0 91 2 140t7 76t15 49q21 48 63 73.5t105 25.5q62 0 104 -25.5t63 -73.5q10 -22 15 -49.5t7.5 -76.5t2.5 -139t-2.5 -139t-7.5 -76.5t-15 -49.5q-21 -48 -63 -73.5t-104 -25.5q-107 0 -153 74zM308 127q6 14 9 33.5t4 68.5t1 124
t-1 124t-4 68.5t-9 33.5q-23 51 -84 51t-84 -51q-6 -14 -9 -33.5t-4.5 -63t-1.5 -129.5t1.5 -129.5t4.5 -63t9 -33.5q23 -51 84 -51t84 51zM108 837h232v-63h-232v63z" />
    <glyph glyph-name="omacron" unicode="&#x14d;" horiz-adv-x="366" 
d="M95.5 13.5q-35.5 20.5 -51.5 57.5q-8 17 -11.5 36t-5 52.5t-1.5 99.5q0 65 1.5 99t5 52.5t10.5 34.5q17 38 52.5 59t87.5 21q53 0 88 -21t52 -59q7 -17 11 -35.5t5.5 -52.5t1.5 -98t-1.5 -98t-5.5 -53t-11 -36q-17 -38 -52 -58.5t-88 -20.5q-52 0 -87.5 20.5zM241 106
q4 9 6 22.5t3 46.5t1 84t-1 84t-3 46.5t-6 22.5q-15 34 -58 34t-58 -34q-4 -9 -6 -22.5t-3 -46.5t-1 -84t1 -84t3 -46.5t6 -22.5q15 -34 58 -34t58 34zM79 663h208v-66h-208v66z" />
    <glyph glyph-name="Obreve" unicode="&#x14e;" horiz-adv-x="448" 
d="M71 63q-15 23 -23 54t-12 86t-4 150q0 91 2 140t7 76t15 49q21 48 63 73.5t105 25.5q62 0 104 -25.5t63 -73.5q10 -22 15 -49.5t7.5 -76.5t2.5 -139t-2.5 -139t-7.5 -76.5t-15 -49.5q-21 -48 -63 -73.5t-104 -25.5q-107 0 -153 74zM308 127q6 14 9 33.5t4 68.5t1 124
t-1 124t-4 68.5t-9 33.5q-23 51 -84 51t-84 -51q-6 -14 -9 -33.5t-4.5 -63t-1.5 -129.5t1.5 -129.5t4.5 -63t9 -33.5q23 -51 84 -51t84 51zM138 772.5q-29 27.5 -30 86.5h64q1 -32 14 -46t38 -14q26 0 38 14t14 46h64q-1 -59 -30.5 -86.5t-85.5 -27.5q-57 0 -86 27.5z" />
    <glyph glyph-name="obreve" unicode="&#x14f;" horiz-adv-x="366" 
d="M95.5 13.5q-35.5 20.5 -51.5 57.5q-8 17 -11.5 36t-5 52.5t-1.5 99.5q0 65 1.5 99t5 52.5t10.5 34.5q17 38 52.5 59t87.5 21q53 0 88 -21t52 -59q7 -17 11 -35.5t5.5 -52.5t1.5 -98t-1.5 -98t-5.5 -53t-11 -36q-17 -38 -52 -58.5t-88 -20.5q-52 0 -87.5 20.5zM241 106
q4 9 6 22.5t3 46.5t1 84t-1 84t-3 46.5t-6 22.5q-15 34 -58 34t-58 -34q-4 -9 -6 -22.5t-3 -46.5t-1 -84t1 -84t3 -46.5t6 -22.5q15 -34 58 -34t58 34zM95 598q-29 33 -30 108h65q1 -47 13.5 -66t39.5 -19q19 0 30 8t16.5 26.5t7.5 50.5h64q-1 -75 -30 -108t-88 -33t-88 33z
" />
    <glyph glyph-name="Ohungarumlaut" unicode="&#x150;" horiz-adv-x="448" 
d="M71 63q-15 23 -23 54t-12 86t-4 150q0 91 2 140t7 76t15 49q21 48 63 73.5t105 25.5q62 0 104 -25.5t63 -73.5q10 -22 15 -49.5t7.5 -76.5t2.5 -139t-2.5 -139t-7.5 -76.5t-15 -49.5q-21 -48 -63 -73.5t-104 -25.5q-107 0 -153 74zM308 127q6 14 9 33.5t4 68.5t1 124
t-1 124t-4 68.5t-9 33.5q-23 51 -84 51t-84 -51q-6 -14 -9 -33.5t-4.5 -63t-1.5 -129.5t1.5 -129.5t4.5 -63t9 -33.5q23 -51 84 -51t84 51zM196 859h78l-80 -109h-66zM315 859h80l-80 -109h-67z" />
    <glyph glyph-name="ohungarumlaut" unicode="&#x151;" horiz-adv-x="366" 
d="M95.5 13.5q-35.5 20.5 -51.5 57.5q-8 17 -11.5 36t-5 52.5t-1.5 99.5q0 65 1.5 99t5 52.5t10.5 34.5q17 38 52.5 59t87.5 21q53 0 88 -21t52 -59q7 -17 11 -35.5t5.5 -52.5t1.5 -98t-1.5 -98t-5.5 -53t-11 -36q-17 -38 -52 -58.5t-88 -20.5q-52 0 -87.5 20.5zM241 106
q4 9 6 22.5t3 46.5t1 84t-1 84t-3 46.5t-6 22.5q-15 34 -58 34t-58 -34q-4 -9 -6 -22.5t-3 -46.5t-1 -84t1 -84t3 -46.5t6 -22.5q15 -34 58 -34t58 34zM156 706h75l-81 -137h-63zM272 706h75l-82 -137h-63z" />
    <glyph glyph-name="OE" unicode="&#x152;" horiz-adv-x="593" 
d="M405 622v-205h164v-85h-164v-248h167v-84h-251v27q-39 -34 -103 -34q-59 0 -100 24t-61 69q-10 22 -15.5 49.5t-7.5 77t-2 140.5t2 140.5t7.5 77t15.5 49.5q20 45 61 68.5t100 23.5q64 0 103 -34v28h251v-84h-167zM310 159q3 19 4 68.5t1 125.5t-1 125.5t-4 68.5t-9 33
q-22 50 -80 50q-31 0 -50.5 -12.5t-30.5 -37.5q-6 -14 -9 -33.5t-4.5 -63t-1.5 -130.5t1.5 -130.5t4.5 -63t9 -33.5q11 -25 30.5 -37.5t50.5 -12.5q58 0 80 50q6 14 9 33z" />
    <glyph glyph-name="oe" unicode="&#x153;" horiz-adv-x="575" 
d="M454.5 106.5q2.5 7.5 3.5 25t1 43.5h89q-1 -42 -4 -67t-10 -41t-20 -30q-35 -44 -114 -44q-74 0 -113 42q-37 -42 -108 -42q-51 0 -85 20t-51 58q-7 17 -10.5 35.5t-5 52.5t-1.5 100t1.5 99.5t5 52.5t10.5 35q17 39 51 59t85 20q71 0 108 -42q37 42 109 42q99 0 135 -76
q8 -18 12 -39t5 -57.5t1 -110.5h-218q0 -45 1 -74.5t3 -41.5t6 -21q8 -17 22 -25.5t36 -8.5q35 0 48 22q5 6 7.5 13.5zM341 416q-5 -12 -7 -30t-3 -72h129q-1 53 -2.5 71.5t-6.5 30.5q-17 33 -54 33q-40 0 -56 -33zM239 126.5q2 13.5 3 47t1 85.5q0 51 -1 84.5t-3 47
t-6 23.5q-15 32 -54 32q-20 0 -33 -8t-21 -25q-4 -9 -6 -22t-2.5 -47t-0.5 -85t0.5 -85t2.5 -47.5t6 -22.5q15 -32 54 -32t54 31q4 10 6 23.5z" />
    <glyph glyph-name="Racute" unicode="&#x154;" horiz-adv-x="388" 
d="M342.5 339.5q13.5 -23.5 13.5 -63.5v-276h-91v270q0 32 -15 46t-50 14h-68v-330h-92v706h171q56 0 89.5 -15.5t48.5 -49.5q8 -18 11 -40t3 -75q0 -51 -2.5 -71t-8.5 -34q-17 -36 -56 -49q33 -9 46.5 -32.5zM238.5 420q17.5 8 24.5 24q4 10 5.5 23.5t1.5 52.5
q0 36 -1.5 49t-5.5 22q-8 18 -26 25t-49 7h-56v-211h60q29 0 46.5 8zM211 859h95l-88 -109h-84z" />
    <glyph glyph-name="racute" unicode="&#x155;" horiz-adv-x="238" 
d="M227 517v-83q-6 2 -21 2q-41 0 -62 -29t-21 -79v-328h-87v517h85v-46q13 23 34.5 35.5t49.5 12.5q16 0 22 -2zM146 706h88l-75 -137h-78z" />
    <glyph glyph-name="Rcommaaccent" unicode="&#x156;" horiz-adv-x="388" 
d="M342.5 339.5q13.5 -23.5 13.5 -63.5v-276h-91v270q0 32 -15 46t-50 14h-68v-330h-92v706h171q56 0 89.5 -15.5t48.5 -49.5q8 -18 11 -40t3 -75q0 -51 -2.5 -71t-8.5 -34q-17 -36 -56 -49q33 -9 46.5 -32.5zM238.5 420q17.5 8 24.5 24q4 10 5.5 23.5t1.5 52.5
q0 36 -1.5 49t-5.5 22q-8 18 -26 25t-49 7h-56v-211h60q29 0 46.5 8zM165 -40h87l-29 -130h-81z" />
    <glyph glyph-name="rcommaaccent" unicode="&#x157;" horiz-adv-x="238" 
d="M227 517v-83q-6 2 -21 2q-41 0 -62 -29t-21 -79v-328h-87v517h85v-46q13 23 34.5 35.5t49.5 12.5q16 0 22 -2zM38 -40h87l-29 -130h-81z" />
    <glyph glyph-name="Rcaron" unicode="&#x158;" horiz-adv-x="388" 
d="M342.5 339.5q13.5 -23.5 13.5 -63.5v-276h-91v270q0 32 -15 46t-50 14h-68v-330h-92v706h171q56 0 89.5 -15.5t48.5 -49.5q8 -18 11 -40t3 -75q0 -51 -2.5 -71t-8.5 -34q-17 -36 -56 -49q33 -9 46.5 -32.5zM238.5 420q17.5 8 24.5 24q4 10 5.5 23.5t1.5 52.5
q0 36 -1.5 49t-5.5 22q-8 18 -26 25t-49 7h-56v-211h60q29 0 46.5 8zM244 749h-105l-77 109h84l45 -66l47 66h82z" />
    <glyph glyph-name="rcaron" unicode="&#x159;" horiz-adv-x="238" 
d="M227 517v-83q-6 2 -21 2q-41 0 -62 -29t-21 -79v-328h-87v517h85v-46q13 23 34.5 35.5t49.5 12.5q16 0 22 -2zM181 569h-101l-72 137h78l45 -87l46 87h78z" />
    <glyph glyph-name="Sacute" unicode="&#x15a;" horiz-adv-x="385" 
d="M93.5 9q-38.5 20 -55.5 58q-7 15 -10 30t-4.5 42.5t-1.5 78.5h96q0 -60 1.5 -80t6.5 -32q17 -36 67 -36q52 0 67 34q5 10 6 22.5t1 50.5q0 35 -2 51t-8 30q-9 22 -32 35.5t-69 32.5q-45 22 -72 42.5t-40 48.5q-9 20 -12 45.5t-3 72.5q0 46 3 66.5t12 39.5
q17 37 53.5 56.5t90.5 19.5q110 0 144 -75q6 -14 9.5 -29t4.5 -44.5t1 -72.5h-92q0 59 -1 78t-6 30q-16 33 -61 33q-23 0 -38.5 -8.5t-22.5 -24.5q-3 -9 -4 -23t-1 -42q0 -34 1.5 -49t7.5 -27q6 -14 19.5 -24.5t34.5 -20.5t45 -20q48 -21 76.5 -42t41.5 -50q10 -23 13 -46.5
t3 -77.5q0 -51 -3 -72.5t-12 -41.5q-17 -38 -57 -58.5t-100 -20.5q-59 0 -97.5 20zM201 859h95l-88 -109h-84z" />
    <glyph glyph-name="sacute" unicode="&#x15b;" horiz-adv-x="324" 
d="M80.5 7q-31.5 16 -46.5 49q-8 17 -10.5 39.5t-2.5 76.5h86q0 -43 1 -57t5 -22q6 -13 17.5 -19.5t31.5 -6.5q19 0 30.5 5.5t17.5 18.5q2 6 3 14t1 23q0 27 -1 37.5t-5 19.5q-7 16 -21.5 25.5t-48.5 24.5q-39 17 -63 34.5t-36 44.5q-7 14 -9 30t-2 48q0 28 2.5 42.5
t7.5 27.5q28 63 123 63q48 0 78.5 -15t44.5 -46q7 -15 9 -34.5t2 -67.5h-85q0 29 -1 43t-4 22q-11 25 -45 25t-43 -23q-2 -6 -3 -13t-1 -19q0 -16 1 -27t5 -18q7 -16 23.5 -27t49.5 -25q42 -19 65 -35.5t35 -42.5q7 -16 9 -33t2 -55q0 -32 -2 -48t-9 -30q-30 -65 -130 -65
q-50 0 -81.5 16zM178 706h88l-75 -137h-78z" />
    <glyph glyph-name="Scircumflex" unicode="&#x15c;" horiz-adv-x="385" 
d="M93.5 9q-38.5 20 -55.5 58q-7 15 -10 30t-4.5 42.5t-1.5 78.5h96q0 -60 1.5 -80t6.5 -32q17 -36 67 -36q52 0 67 34q5 10 6 22.5t1 50.5q0 35 -2 51t-8 30q-9 22 -32 35.5t-69 32.5q-45 22 -72 42.5t-40 48.5q-9 20 -12 45.5t-3 72.5q0 46 3 66.5t12 39.5
q17 37 53.5 56.5t90.5 19.5q110 0 144 -75q6 -14 9.5 -29t4.5 -44.5t1 -72.5h-92q0 59 -1 78t-6 30q-16 33 -61 33q-23 0 -38.5 -8.5t-22.5 -24.5q-3 -9 -4 -23t-1 -42q0 -34 1.5 -49t7.5 -27q6 -14 19.5 -24.5t34.5 -20.5t45 -20q48 -21 76.5 -42t41.5 -50q10 -23 13 -46.5
t3 -77.5q0 -51 -3 -72.5t-12 -41.5q-17 -38 -57 -58.5t-100 -20.5q-59 0 -97.5 20zM143 859h105l77 -109h-84l-45 66l-47 -66h-82z" />
    <glyph glyph-name="scircumflex" unicode="&#x15d;" horiz-adv-x="324" 
d="M80.5 7q-31.5 16 -46.5 49q-8 17 -10.5 39.5t-2.5 76.5h86q0 -43 1 -57t5 -22q6 -13 17.5 -19.5t31.5 -6.5q19 0 30.5 5.5t17.5 18.5q2 6 3 14t1 23q0 27 -1 37.5t-5 19.5q-7 16 -21.5 25.5t-48.5 24.5q-39 17 -63 34.5t-36 44.5q-7 14 -9 30t-2 48q0 28 2.5 42.5
t7.5 27.5q28 63 123 63q48 0 78.5 -15t44.5 -46q7 -15 9 -34.5t2 -67.5h-85q0 29 -1 43t-4 22q-11 25 -45 25t-43 -23q-2 -6 -3 -13t-1 -19q0 -16 1 -27t5 -18q7 -16 23.5 -27t49.5 -25q42 -19 65 -35.5t35 -42.5q7 -16 9 -33t2 -55q0 -32 -2 -48t-9 -30q-30 -65 -130 -65
q-50 0 -81.5 16zM114 706h100l73 -137h-78l-45 87l-46 -87h-78z" />
    <glyph glyph-name="Scedilla" unicode="&#x15e;" horiz-adv-x="385" 
d="M360 259.5q3 -23.5 3 -77.5q0 -51 -3 -72.5t-12 -41.5q-15 -33 -47 -53t-80 -25l-7 -27q37 -1 57 -19t20 -51q0 -38 -27 -56.5t-74 -18.5q-35 0 -64 10l10 48q22 -8 48 -8q44 0 44 27q0 14 -11.5 20.5t-37.5 6.5h-37l18 69q-46 4 -76.5 24t-45.5 52q-7 15 -10 30
t-4.5 42.5t-1.5 78.5h96q0 -60 1.5 -80t6.5 -32q17 -36 67 -36q52 0 67 34q5 10 6 22.5t1 50.5q0 35 -2 51t-8 30q-9 22 -32 35.5t-69 32.5q-45 22 -72 42.5t-40 48.5q-9 20 -12 45.5t-3 72.5q0 46 3 66.5t12 39.5q17 37 53.5 56.5t90.5 19.5q110 0 144 -75q6 -14 9.5 -29
t4.5 -44.5t1 -72.5h-92q0 59 -1 78t-6 30q-16 33 -61 33q-23 0 -38.5 -8.5t-22.5 -24.5q-3 -9 -4 -23t-1 -42q0 -34 1.5 -49t7.5 -27q6 -14 19.5 -24.5t34.5 -20.5t45 -20q48 -21 76.5 -42t41.5 -50q10 -23 13 -46.5z" />
    <glyph glyph-name="scedilla" unicode="&#x15f;" horiz-adv-x="324" 
d="M301 189q2 -17 2 -55q0 -32 -2 -48t-9 -30q-25 -54 -99 -63l-8 -29q37 -1 57.5 -19.5t20.5 -50.5q0 -38 -27.5 -56.5t-74.5 -18.5q-34 0 -64 10l10 48q25 -9 48 -9q45 0 45 28q0 14 -12 20.5t-38 6.5h-37l18 70q-36 5 -60 20t-37 43q-8 17 -10.5 39.5t-2.5 76.5h86
q0 -43 1 -57t5 -22q6 -13 17.5 -19.5t31.5 -6.5q19 0 30.5 5.5t17.5 18.5q2 6 3 14t1 23q0 27 -1 37.5t-5 19.5q-7 16 -21.5 25.5t-48.5 24.5q-39 17 -63 34.5t-36 44.5q-7 14 -9 30t-2 48q0 28 2.5 42.5t7.5 27.5q28 63 123 63q48 0 78.5 -15t44.5 -46q7 -15 9 -34.5
t2 -67.5h-85q0 29 -1 43t-4 22q-11 25 -45 25t-43 -23q-2 -6 -3 -13t-1 -19q0 -16 1 -27t5 -18q7 -16 23.5 -27t49.5 -25q42 -19 65 -35.5t35 -42.5q7 -16 9 -33z" />
    <glyph glyph-name="Scaron" unicode="&#x160;" horiz-adv-x="385" 
d="M93.5 9q-38.5 20 -55.5 58q-7 15 -10 30t-4.5 42.5t-1.5 78.5h96q0 -60 1.5 -80t6.5 -32q17 -36 67 -36q52 0 67 34q5 10 6 22.5t1 50.5q0 35 -2 51t-8 30q-9 22 -32 35.5t-69 32.5q-45 22 -72 42.5t-40 48.5q-9 20 -12 45.5t-3 72.5q0 46 3 66.5t12 39.5
q17 37 53.5 56.5t90.5 19.5q110 0 144 -75q6 -14 9.5 -29t4.5 -44.5t1 -72.5h-92q0 59 -1 78t-6 30q-16 33 -61 33q-23 0 -38.5 -8.5t-22.5 -24.5q-3 -9 -4 -23t-1 -42q0 -34 1.5 -49t7.5 -27q6 -14 19.5 -24.5t34.5 -20.5t45 -20q48 -21 76.5 -42t41.5 -50q10 -23 13 -46.5
t3 -77.5q0 -51 -3 -72.5t-12 -41.5q-17 -38 -57 -58.5t-100 -20.5q-59 0 -97.5 20zM246 749h-105l-77 109h84l45 -66l47 66h82z" />
    <glyph glyph-name="scaron" unicode="&#x161;" horiz-adv-x="324" 
d="M80.5 7q-31.5 16 -46.5 49q-8 17 -10.5 39.5t-2.5 76.5h86q0 -43 1 -57t5 -22q6 -13 17.5 -19.5t31.5 -6.5q19 0 30.5 5.5t17.5 18.5q2 6 3 14t1 23q0 27 -1 37.5t-5 19.5q-7 16 -21.5 25.5t-48.5 24.5q-39 17 -63 34.5t-36 44.5q-7 14 -9 30t-2 48q0 28 2.5 42.5
t7.5 27.5q28 63 123 63q48 0 78.5 -15t44.5 -46q7 -15 9 -34.5t2 -67.5h-85q0 29 -1 43t-4 22q-11 25 -45 25t-43 -23q-2 -6 -3 -13t-1 -19q0 -16 1 -27t5 -18q7 -16 23.5 -27t49.5 -25q42 -19 65 -35.5t35 -42.5q7 -16 9 -33t2 -55q0 -32 -2 -48t-9 -30q-30 -65 -130 -65
q-50 0 -81.5 16zM214 569h-101l-72 137h78l45 -87l46 87h78z" />
    <glyph glyph-name="uni0162" unicode="&#x162;" horiz-adv-x="296" 
d="M180 0l-10 -36q37 -1 57.5 -19t20.5 -50q0 -38 -27.5 -56.5t-74.5 -18.5q-35 0 -64 10l10 48q25 -9 48 -9q44 0 44 28q0 14 -11.5 20.5t-37.5 6.5h-37l20 76h-16v622h-97v84h286v-84h-97v-622h-14z" />
    <glyph glyph-name="uni0163" unicode="&#x163;" horiz-adv-x="245" 
d="M233 -53q20 -18 20 -50q0 -38 -27 -56.5t-74 -18.5q-35 0 -65 10l11 48q25 -9 48 -9q44 0 44 28q0 14 -11.5 20.5t-38.5 6.5h-36l19 77q-31 10 -45.5 38t-14.5 81v317h-55v78h55v113h87v-113h80v-78h-80v-298q0 -26 5.5 -40.5t17 -20t30.5 -5.5q16 0 31 3v-77
q-28 -5 -50 -5l-8 -30q37 -1 57 -19z" />
    <glyph glyph-name="Tcaron" unicode="&#x164;" horiz-adv-x="296" 
d="M102 622h-97v84h286v-84h-97v-622h-92v622zM201 749h-105l-77 109h84l45 -66l47 66h82z" />
    <glyph glyph-name="tcaron" unicode="&#x165;" horiz-adv-x="278" 
d="M113 7q-25 11 -37.5 38.5t-12.5 76.5v317h-55v78h55v113h87v-113h80v-78h-80v-298q0 -26 5.5 -40.5t17 -20t30.5 -5.5q16 0 31 3v-77q-30 -5 -54 -5q-42 0 -67 11zM196 706h68l-24 -148h-60z" />
    <glyph glyph-name="Tbar" unicode="&#x166;" horiz-adv-x="296" 
d="M194 622v-177h77v-76h-77v-369h-92v369h-77v76h77v177h-97v84h286v-84h-97z" />
    <glyph glyph-name="tbar" unicode="&#x167;" horiz-adv-x="245" 
d="M234 78v-77q-30 -5 -54 -5q-42 0 -67 11t-37.5 38.5t-12.5 76.5v129h-56v65h56v123h-55v78h55v113h87v-113h80v-78h-80v-123h81v-65h-81v-110q0 -26 5.5 -40.5t17 -20t30.5 -5.5q16 0 31 3z" />
    <glyph glyph-name="Utilde" unicode="&#x168;" horiz-adv-x="411" 
d="M77 30q-40 41 -40 126v550h92v-545q0 -44 18 -65t58 -21q41 0 59.5 21t18.5 65v545h91v-550q0 -85 -40 -126t-129 -41q-88 0 -128 41zM220.5 754q-17.5 9 -33.5 25q-2 2 -9 8.5t-13.5 9.5t-13.5 3q-14 0 -19.5 -13t-7.5 -40h-55q1 58 20 86.5t61 28.5q24 0 40 -9t33 -26
q14 -12 20.5 -16t15.5 -4q14 0 19 12.5t6 40.5h57q-2 -58 -20.5 -86.5t-59.5 -28.5q-23 0 -40.5 9z" />
    <glyph glyph-name="utilde" unicode="&#x169;" horiz-adv-x="366" 
d="M330 517v-517h-87v38q-34 -46 -99 -46q-54 0 -82 32t-28 96v397h87v-372q0 -39 13.5 -56t43.5 -17q31 0 48 20.5t17 60.5v364h87zM190 578.5q-16 11.5 -29 33.5q-3 4 -8.5 13.5t-10.5 13.5t-12 4q-9 0 -14 -6.5t-7 -22t-3 -44.5h-55q1 72 18 105.5t57 33.5q18 0 30.5 -7
t19.5 -15.5t19 -25.5q3 -4 9 -12.5t11.5 -12t12.5 -3.5q9 0 13.5 7t6.5 21.5t3 44.5h55q-1 -72 -18 -105.5t-57 -33.5q-25 0 -41 11.5z" />
    <glyph glyph-name="Umacron" unicode="&#x16a;" horiz-adv-x="411" 
d="M77 30q-40 41 -40 126v550h92v-545q0 -44 18 -65t58 -21q41 0 59.5 21t18.5 65v545h91v-550q0 -85 -40 -126t-129 -41q-88 0 -128 41zM89 837h232v-63h-232v63z" />
    <glyph glyph-name="umacron" unicode="&#x16b;" horiz-adv-x="366" 
d="M330 517v-517h-87v38q-34 -46 -99 -46q-54 0 -82 32t-28 96v397h87v-372q0 -39 13.5 -56t43.5 -17q31 0 48 20.5t17 60.5v364h87zM75 663h208v-66h-208v66z" />
    <glyph glyph-name="Ubreve" unicode="&#x16c;" horiz-adv-x="411" 
d="M77 30q-40 41 -40 126v550h92v-545q0 -44 18 -65t58 -21q41 0 59.5 21t18.5 65v545h91v-550q0 -85 -40 -126t-129 -41q-88 0 -128 41zM120 772.5q-29 27.5 -30 86.5h64q1 -32 14 -46t38 -14q26 0 38 14t14 46h64q-1 -59 -30.5 -86.5t-85.5 -27.5q-57 0 -86 27.5z" />
    <glyph glyph-name="ubreve" unicode="&#x16d;" horiz-adv-x="366" 
d="M330 517v-517h-87v38q-34 -46 -99 -46q-54 0 -82 32t-28 96v397h87v-372q0 -39 13.5 -56t43.5 -17q31 0 48 20.5t17 60.5v364h87zM91 598q-29 33 -30 108h65q1 -47 13.5 -66t39.5 -19q19 0 30 8t16.5 26.5t7.5 50.5h64q-1 -75 -30 -108t-88 -33t-88 33z" />
    <glyph glyph-name="Uring" unicode="&#x16e;" horiz-adv-x="411" 
d="M77 30q-40 41 -40 126v550h92v-545q0 -44 18 -65t58 -21q41 0 59.5 21t18.5 65v545h91v-550q0 -85 -40 -126t-129 -41q-88 0 -128 41zM138.5 755q-25.5 24 -25.5 63t25.5 62.5t66.5 23.5q42 0 68 -24t26 -62q0 -39 -26 -63t-68 -24q-41 0 -66.5 24zM235.5 789
q11.5 11 11.5 29t-11.5 29t-30.5 11q-18 0 -29 -11.5t-11 -28.5q0 -18 11 -29t29 -11q19 0 30.5 11z" />
    <glyph glyph-name="uring" unicode="&#x16f;" horiz-adv-x="366" 
d="M330 517v-517h-87v38q-34 -46 -99 -46q-54 0 -82 32t-28 96v397h87v-372q0 -39 13.5 -56t43.5 -17q31 0 48 20.5t17 60.5v364h87zM111.5 587q-25.5 24 -25.5 63t25.5 62.5t66.5 23.5q42 0 68 -24t26 -62q0 -39 -26 -63t-68 -24q-41 0 -66.5 24zM208.5 621
q11.5 11 11.5 29t-11.5 29t-30.5 11q-18 0 -29 -11.5t-11 -28.5q0 -18 11 -29t29 -11q19 0 30.5 11z" />
    <glyph glyph-name="Uhungarumlaut" unicode="&#x170;" horiz-adv-x="411" 
d="M77 30q-40 41 -40 126v550h92v-545q0 -44 18 -65t58 -21q41 0 59.5 21t18.5 65v545h91v-550q0 -85 -40 -126t-129 -41q-88 0 -128 41zM178 859h78l-80 -109h-66zM297 859h80l-80 -109h-67z" />
    <glyph glyph-name="uhungarumlaut" unicode="&#x171;" horiz-adv-x="366" 
d="M330 517v-517h-87v38q-34 -46 -99 -46q-54 0 -82 32t-28 96v397h87v-372q0 -39 13.5 -56t43.5 -17q31 0 48 20.5t17 60.5v364h87zM152 706h75l-81 -137h-63zM268 706h75l-82 -137h-63z" />
    <glyph glyph-name="Uogonek" unicode="&#x172;" horiz-adv-x="408" 
d="M373 706v-550q0 -52 -14.5 -85.5t-44.5 -60.5q-35 -31 -50 -51.5t-15 -42.5q0 -38 36 -38q16 0 35 7v-55q-24 -9 -52 -9q-42 0 -66.5 20.5t-24.5 58.5q0 25 11.5 47t34.5 43q-6 -1 -19 -1q-88 0 -128 41t-40 126v550h92v-545q0 -44 18 -65t58 -21q41 0 59 21t18 65v545
h92z" />
    <glyph glyph-name="uogonek" unicode="&#x173;" horiz-adv-x="366" 
d="M336 -115v-55q-23 -9 -51 -9q-43 0 -67.5 19t-24.5 54q0 30 17.5 54.5t53.5 51.5h-21v38q-34 -46 -99 -46q-54 0 -82 32t-28 96v397h87v-372q0 -39 13.5 -56t43.5 -17q31 0 48 20.5t17 60.5v364h87v-517q-34 -28 -49.5 -48t-15.5 -42q0 -16 10 -24t26 -8t35 7z" />
    <glyph glyph-name="Wcircumflex" unicode="&#x174;" horiz-adv-x="598" 
d="M597 706l-119 -706h-101l-78 532l-79 -532h-100l-119 706h89l83 -555l78 555h96l78 -545l83 545h89zM247 859h105l77 -109h-84l-45 66l-47 -66h-82z" />
    <glyph glyph-name="wcircumflex" unicode="&#x175;" horiz-adv-x="537" 
d="M532 517l-108 -517h-92l-63 371l-64 -371h-92l-108 517h88l64 -384l68 384h87l67 -383l64 383h89zM219 706h100l73 -137h-78l-45 87l-46 -87h-78z" />
    <glyph glyph-name="Ycircumflex" unicode="&#x176;" horiz-adv-x="374" 
d="M141 293l-140 413h94l92 -309l92 309h94l-140 -413v-293h-92v293zM135 859h105l77 -109h-84l-45 66l-47 -66h-82z" />
    <glyph glyph-name="ycircumflex" unicode="&#x177;" horiz-adv-x="346" 
d="M340 517l-129 -517l-47 -170h-87l48 176l-120 511h93l70 -395l81 395h91zM125 706h100l73 -137h-78l-45 87l-46 -87h-78z" />
    <glyph glyph-name="Ydieresis" unicode="&#x178;" horiz-adv-x="374" 
d="M141 293l-140 413h94l92 -309l92 309h94l-140 -413v-293h-92v293zM76 772q-14 13 -14 34q0 22 14 35.5t36 13.5q21 0 35 -13.5t14 -35.5q0 -21 -14 -34t-35 -13q-22 0 -36 13zM229 772q-14 13 -14 34q0 22 14 35.5t36 13.5q21 0 35 -13.5t14 -35.5q0 -21 -14 -34t-35 -13
q-22 0 -36 13z" />
    <glyph glyph-name="Zacute" unicode="&#x179;" horiz-adv-x="340" 
d="M200 622h-181v84h303l-191 -622h196v-84h-318zM188 859h95l-88 -109h-84z" />
    <glyph glyph-name="zacute" unicode="&#x17a;" horiz-adv-x="295" 
d="M124 78h163v-78h-288l171 439h-154v78h276zM165 706h88l-75 -137h-78z" />
    <glyph glyph-name="Zdotaccent" unicode="&#x17b;" horiz-adv-x="340" 
d="M200 622h-181v84h303l-191 -622h196v-84h-318zM132.5 772.5q-14.5 13.5 -14.5 36.5q0 22 14.5 35t36.5 13t36 -13t14 -35q0 -23 -14 -36.5t-36 -13.5t-36.5 13.5z" />
    <glyph glyph-name="zdotaccent" unicode="&#x17c;" horiz-adv-x="295" 
d="M124 78h163v-78h-288l171 439h-154v78h276zM112.5 596q-14.5 14 -14.5 36q0 24 14.5 37.5t37.5 13.5t38 -14t15 -37q0 -22 -15 -36t-38 -14t-37.5 14z" />
    <glyph glyph-name="Zcaron" unicode="&#x17d;" horiz-adv-x="340" 
d="M200 622h-181v84h303l-191 -622h196v-84h-318zM222 749h-105l-77 109h84l45 -66l47 66h82z" />
    <glyph glyph-name="zcaron" unicode="&#x17e;" horiz-adv-x="295" 
d="M124 78h163v-78h-288l171 439h-154v78h276zM201 569h-101l-72 137h78l45 -87l46 87h78z" />
    <glyph glyph-name="Schwa" unicode="&#x18f;" horiz-adv-x="439" 
d="M398 569q5 -26 7 -75.5t2 -140.5t-2 -140.5t-7 -75.5t-15 -47q-22 -50 -64 -75.5t-104 -25.5q-60 0 -99.5 23t-60.5 70q-9 20 -14 43.5t-7 63.5t-2 107v67h281q0 73 -1 120t-4 65.5t-9 32.5q-21 50 -84 50q-45 0 -66 -25q-8 -10 -12.5 -23t-7 -39.5t-3.5 -75.5h-92
q1 57 6 92.5t13.5 57t22.5 39.5q43 60 138 60q125 0 169 -101q10 -21 15 -47zM299 125q7 18 10 47t4 107h-190q0 -52 1 -86.5t3 -48.5t6 -24q21 -45 80 -45q63 0 86 50z" />
    <glyph glyph-name="florin" unicode="&#x192;" horiz-adv-x="271" 
d="M8 0v79q12 -3 26 -3q31 0 44.5 15t13.5 48v242h-79v62h79v144q0 67 31.5 96.5t99.5 29.5q20 0 41 -3v-79q-18 2 -27 2q-31 0 -44 -14.5t-13 -48.5v-127h79v-62h-79v-258q0 -67 -31.5 -96.5t-99.5 -29.5q-21 0 -41 3z" />
    <glyph glyph-name="Aringacute" unicode="&#x1fa;" horiz-adv-x="404" 
d="M288 142h-171l-24 -142h-92l131 706h141l130 -706h-91zM274 223l-71 409h-2l-70 -409h143zM134.5 755q-25.5 24 -25.5 63t25.5 62.5t66.5 23.5q42 0 68 -24t26 -62q0 -39 -26 -63t-68 -24q-41 0 -66.5 24zM231.5 789q11.5 11 11.5 29t-11.5 29t-30.5 11q-18 0 -29 -11.5
t-11 -28.5q0 -18 11 -29t29 -11q19 0 30.5 11zM221 1055h95l-88 -109h-84z" />
    <glyph glyph-name="aringacute" unicode="&#x1fb;" horiz-adv-x="359" 
d="M322 416q3 -26 3 -86v-330h-87v39q-17 -23 -44 -34.5t-61 -11.5q-76 0 -99 51q-7 15 -9 33t-2 63q0 54 1.5 73t8.5 34q16 35 52.5 49.5t99.5 14.5h53v19q0 50 -1 65t-6 26q-7 14 -19.5 20t-32.5 6q-22 0 -35 -7t-19 -21q-3 -9 -4 -21.5t-1 -38.5h-86q0 47 2.5 66t9.5 36
q29 64 134 64q53 0 84.5 -15.5t46.5 -48.5q8 -19 11 -45zM229 106q6 13 7.5 33.5t1.5 85.5v14h-43q-34 0 -53 -6t-25 -22q-3 -8 -4 -21t-1 -38t1 -38.5t4 -20.5q11 -25 49 -25q46 0 63 38zM113.5 587q-25.5 24 -25.5 63t25.5 62.5t66.5 23.5q42 0 68 -24t26 -62
q0 -39 -26 -63t-68 -24q-41 0 -66.5 24zM210.5 621q11.5 11 11.5 29t-11.5 29t-30.5 11q-18 0 -29 -11.5t-11 -28.5q0 -18 11 -29t29 -11q19 0 30.5 11zM195 925h88l-75 -137h-78z" />
    <glyph glyph-name="AEacute" unicode="&#x1fc;" horiz-adv-x="501" 
d="M321 622l13 -205h144v-85h-138l16 -248h123v-84h-206l-8 129h-143l-29 -129h-92l171 706h309v-84h-160zM260 210l-25 416h-2l-93 -416h120zM310 859h95l-88 -109h-84z" />
    <glyph glyph-name="aeacute" unicode="&#x1fd;" horiz-adv-x="569" 
d="M446.5 99.5q3.5 8.5 5 25t2.5 50.5h89q-1 -45 -5 -72t-13 -45t-25 -32q-36 -33 -106 -33q-94 0 -129 66q-43 -66 -129 -66q-80 0 -102 51q-7 15 -9 33.5t-2 62.5q0 55 1.5 74.5t8.5 33.5q15 34 52 49t100 15h53v15q0 49 -1.5 66t-5.5 28q-7 14 -19.5 20t-32.5 6
q-22 0 -35 -7t-19 -21q-3 -8 -4 -21t-1 -39h-86q0 47 2.5 66.5t9.5 35.5q29 64 134 64q41 0 66.5 -8.5t41.5 -26.5q37 35 102 35q101 0 135 -76q8 -18 12 -39.5t5.5 -59t1.5 -110.5h-218q0 -74 2 -99t7 -38q8 -17 22 -25t36 -8q28 0 42 14q8 7 11.5 15.5zM335 415
q-5 -13 -6.5 -31t-2.5 -72h129q-1 54 -3 72.5t-7 30.5q-15 32 -53 32q-42 0 -57 -32zM238 240h-43q-35 0 -53 -5.5t-25 -21.5q-3 -8 -4 -22t-1 -39q0 -28 1.5 -39.5t4.5 -19.5q6 -14 18.5 -19.5t30.5 -5.5q46 0 61 34q4 9 6 19.5t3 36.5t1 67v15zM301 706h88l-75 -137h-78z
" />
    <glyph glyph-name="Oslashacute" unicode="&#x1fe;" horiz-adv-x="448" 
d="M393 615q9 -22 14 -49.5t7 -76.5t2 -136q0 -90 -2.5 -139t-7.5 -76.5t-15 -49.5q-21 -48 -63 -73.5t-104 -25.5q-97 0 -143 60l-29 -49h-52l56 92q-13 33 -18.5 90.5t-5.5 170.5q0 91 2 140t7 76t15 49q21 48 63 73.5t105 25.5q48 0 84 -15.5t60 -45.5l30 50h51z
M131 545.5q-3 -19.5 -4.5 -63t-1.5 -129.5q0 -81 2 -143l184 361l-3 8q-23 51 -84 51t-84 -51q-6 -14 -9 -33.5zM317 160.5q3 19.5 4 68.5t1 124q0 113 -2 145l-184 -361l4 -10q23 -51 84 -51t84 51q6 14 9 33.5zM243 859h95l-88 -109h-84z" />
    <glyph glyph-name="oslashacute" unicode="&#x1ff;" horiz-adv-x="366" 
d="M323 445q7 -17 11 -35.5t5.5 -52.5t1.5 -98t-1.5 -98t-5.5 -53t-11 -36q-17 -38 -52 -58.5t-88 -20.5q-67 0 -106 33l-16 -26h-45l35 57l-7 14q-8 17 -11.5 36t-5 52.5t-1.5 99.5q0 65 1.5 99t5 52.5t10.5 34.5q17 38 52.5 59t87.5 21q67 0 108 -35l16 27h45l-36 -57z
M119 389.5q-2 -13.5 -3 -46.5t-1 -84q0 -71 1 -93l125 247q-16 33 -58 33q-43 0 -58 -34q-4 -9 -6 -22.5zM247 128.5q2 13.5 3 46.5t1 84q0 70 -1 91l-124 -246q15 -32 57 -32q43 0 58 34q4 9 6 22.5zM198 706h88l-75 -137h-78z" />
    <glyph glyph-name="Scommaaccent" unicode="&#x218;" horiz-adv-x="385" 
d="M93.5 9q-38.5 20 -55.5 58q-7 15 -10 30t-4.5 42.5t-1.5 78.5h96q0 -60 1.5 -80t6.5 -32q17 -36 67 -36q52 0 67 34q5 10 6 22.5t1 50.5q0 35 -2 51t-8 30q-9 22 -32 35.5t-69 32.5q-45 22 -72 42.5t-40 48.5q-9 20 -12 45.5t-3 72.5q0 46 3 66.5t12 39.5
q17 37 53.5 56.5t90.5 19.5q110 0 144 -75q6 -14 9.5 -29t4.5 -44.5t1 -72.5h-92q0 59 -1 78t-6 30q-16 33 -61 33q-23 0 -38.5 -8.5t-22.5 -24.5q-3 -9 -4 -23t-1 -42q0 -34 1.5 -49t7.5 -27q6 -14 19.5 -24.5t34.5 -20.5t45 -20q48 -21 76.5 -42t41.5 -50q10 -23 13 -46.5
t3 -77.5q0 -51 -3 -72.5t-12 -41.5q-17 -38 -57 -58.5t-100 -20.5q-59 0 -97.5 20zM156 -42h87l-29 -130h-81z" />
    <glyph glyph-name="scommaaccent" unicode="&#x219;" horiz-adv-x="324" 
d="M80.5 7q-31.5 16 -46.5 49q-8 17 -10.5 39.5t-2.5 76.5h86q0 -43 1 -57t5 -22q6 -13 17.5 -19.5t31.5 -6.5q19 0 30.5 5.5t17.5 18.5q2 6 3 14t1 23q0 27 -1 37.5t-5 19.5q-7 16 -21.5 25.5t-48.5 24.5q-39 17 -63 34.5t-36 44.5q-7 14 -9 30t-2 48q0 28 2.5 42.5
t7.5 27.5q28 63 123 63q48 0 78.5 -15t44.5 -46q7 -15 9 -34.5t2 -67.5h-85q0 29 -1 43t-4 22q-11 25 -45 25t-43 -23q-2 -6 -3 -13t-1 -19q0 -16 1 -27t5 -18q7 -16 23.5 -27t49.5 -25q42 -19 65 -35.5t35 -42.5q7 -16 9 -33t2 -55q0 -32 -2 -48t-9 -30q-30 -65 -130 -65
q-50 0 -81.5 16zM122 -41h87l-29 -130h-81z" />
    <glyph glyph-name="uni021A" unicode="&#x21a;" horiz-adv-x="296" 
d="M102 622h-97v84h286v-84h-97v-622h-92v622zM106 -40h87l-29 -130h-81z" />
    <glyph glyph-name="uni021B" unicode="&#x21b;" horiz-adv-x="245" 
d="M113 7q-25 11 -37.5 38.5t-12.5 76.5v317h-55v78h55v113h87v-113h80v-78h-80v-298q0 -26 5.5 -40.5t17 -20t30.5 -5.5q16 0 31 3v-77q-30 -5 -54 -5q-42 0 -67 11zM112 -38h87l-29 -130h-81z" />
    <glyph glyph-name="dotlessj" unicode="&#x237;" horiz-adv-x="164" 
d="M-21 -170v79h19q24 0 33.5 10.5t9.5 38.5v559h87v-574q0 -61 -27 -88t-85 -27q-25 0 -37 2z" />
    <glyph glyph-name="schwa" unicode="&#x259;" horiz-adv-x="365" 
d="M333 409.5q4 -18.5 5.5 -52.5t1.5 -99t-1.5 -99.5t-5 -52.5t-11.5 -35q-17 -38 -52 -58.5t-87 -20.5q-51 0 -86.5 19.5t-52.5 57.5q-8 19 -12 39.5t-5 56.5t-1 110h226q0 45 -0.5 74.5t-2.5 41t-7 20.5q-15 36 -61 36q-32 0 -48 -15q-7 -7 -11 -16t-5.5 -26t-2.5 -48h-87
q1 44 4.5 70.5t12.5 44t25 32.5q39 35 110 35q54 0 90 -20t53 -59q7 -17 11 -35.5zM242 106q6 12 7.5 29t2.5 68h-138q1 -51 3 -69t7 -30q15 -34 58 -34q45 0 60 36z" />
    <glyph glyph-name="circumflex" unicode="&#x2c6;" horiz-adv-x="347" 
d="M124 706h100l73 -137h-78l-45 87l-46 -87h-78z" />
    <glyph glyph-name="caron" unicode="&#x2c7;" horiz-adv-x="347" 
d="M223 569h-101l-72 137h78l45 -87l46 87h78z" />
    <glyph glyph-name="uni02C9" unicode="&#x2c9;" horiz-adv-x="308" 
d="M50 663h208v-66h-208v66z" />
    <glyph glyph-name="breve" unicode="&#x2d8;" horiz-adv-x="336" 
d="M80 598q-29 33 -30 108h65q1 -47 13.5 -66t39.5 -19q19 0 30 8t16.5 26.5t7.5 50.5h64q-1 -75 -30 -108t-88 -33t-88 33z" />
    <glyph glyph-name="dotaccent" unicode="&#x2d9;" horiz-adv-x="205" 
d="M64.5 596q-14.5 14 -14.5 36q0 24 14.5 37.5t37.5 13.5t38 -14t15 -37q0 -22 -15 -36t-38 -14t-37.5 14z" />
    <glyph glyph-name="ring" unicode="&#x2da;" horiz-adv-x="286" 
d="M75.5 587q-25.5 24 -25.5 63t25.5 62.5t66.5 23.5q42 0 68 -24t26 -62q0 -39 -26 -63t-68 -24q-41 0 -66.5 24zM172.5 621q11.5 11 11.5 29t-11.5 29t-30.5 11q-18 0 -29 -11.5t-11 -28.5q0 -18 11 -29t29 -11q19 0 30.5 11z" />
    <glyph glyph-name="ogonek" unicode="&#x2db;" horiz-adv-x="243" 
d="M74.5 -160q-24.5 19 -24.5 54q0 31 18.5 56.5t57.5 53.5l61 -4q-34 -28 -49.5 -48t-15.5 -42q0 -16 9.5 -24t26.5 -8q16 0 35 7v-55q-24 -9 -52 -9q-42 0 -66.5 19z" />
    <glyph glyph-name="tilde" unicode="&#x2dc;" horiz-adv-x="355" 
d="M189 578.5q-16 11.5 -29 33.5q-3 4 -8.5 13.5t-10.5 13.5t-12 4q-9 0 -14 -6.5t-7 -22t-3 -44.5h-55q1 72 18 105.5t57 33.5q18 0 30.5 -7t19.5 -15.5t19 -25.5q3 -4 9 -12.5t11.5 -12t12.5 -3.5q9 0 13.5 7t6.5 21.5t3 44.5h55q-1 -72 -18 -105.5t-57 -33.5
q-25 0 -41 11.5z" />
    <glyph glyph-name="hungarumlaut" unicode="&#x2dd;" horiz-adv-x="360" 
d="M119 706h75l-81 -137h-63zM235 706h75l-82 -137h-63z" />
    <glyph glyph-name="gravecomb" unicode="&#x300;" 
d="M-128 569l-75 137h88l65 -137h-78z" />
    <glyph glyph-name="acutecomb" unicode="&#x301;" 
d="M-138 706h88l-75 -137h-78z" />
    <glyph glyph-name="circumflexcomb" unicode="&#x302;" 
d="M-223 706h100l73 -137h-78l-45 87l-46 -87h-78z" />
    <glyph glyph-name="tildecomb" unicode="&#x303;" 
d="M-166 578.5q-16 11.5 -29 33.5q-3 4 -8.5 13.5t-10.5 13.5t-12 4q-9 0 -14 -6.5t-7 -22t-3 -44.5h-55q1 72 18 105.5t57 33.5q18 0 30.5 -7t19.5 -15.5t19 -25.5q3 -4 9 -12.5t11.5 -12t12.5 -3.5q9 0 13.5 7t6.5 21.5t3 44.5h55q-1 -72 -18 -105.5t-57 -33.5
q-25 0 -41 11.5z" />
    <glyph glyph-name="macroncomb" unicode="&#x304;" 
d="M-258 663h208v-66h-208v66z" />
    <glyph glyph-name="brevecomb" unicode="&#x306;" 
d="M-256 598q-29 33 -30 108h65q1 -47 13.5 -66t39.5 -19q19 0 30 8t16.5 26.5t7.5 50.5h64q-1 -75 -30 -108t-88 -33t-88 33z" />
    <glyph glyph-name="dotaccentcomb" unicode="&#x307;" 
d="M-140.5 596q-14.5 14 -14.5 36q0 24 14.5 37.5t37.5 13.5t38 -14t15 -37q0 -22 -15 -36t-38 -14t-37.5 14z" />
    <glyph glyph-name="dieresiscomb" unicode="&#x308;" 
d="M-281 593.5q-14 13.5 -14 35.5t14.5 35.5t36.5 13.5t36.5 -13.5t14.5 -35.5t-14.5 -35.5t-36.5 -13.5q-23 0 -37 13.5zM-137 593.5q-14 13.5 -14 35.5t14 35.5t36 13.5t36.5 -13.5t14.5 -35.5t-14.5 -35.5t-36.5 -13.5t-36 13.5z" />
    <glyph glyph-name="ringcomb" unicode="&#x30a;" 
d="M-210.5 587q-25.5 24 -25.5 63t25.5 62.5t66.5 23.5q42 0 68 -24t26 -62q0 -39 -26 -63t-68 -24q-41 0 -66.5 24zM-113.5 621q11.5 11 11.5 29t-11.5 29t-30.5 11q-18 0 -29 -11.5t-11 -28.5q0 -18 11 -29t29 -11q19 0 30.5 11z" />
    <glyph glyph-name="hungarumlautcomb" unicode="&#x30b;" 
d="M-241 706h75l-81 -137h-63zM-125 706h75l-82 -137h-63z" />
    <glyph glyph-name="caroncomb" unicode="&#x30c;" 
d="M-124 569h-101l-72 137h78l45 -87l46 87h78z" />
    <glyph glyph-name="commaturnedabovecomb" unicode="&#x312;" 
d="M-73 573h-87l30 130h80z" />
    <glyph glyph-name="commaaccent" unicode="&#x326;" 
d="M-137 -40h87l-29 -130h-81z" />
    <glyph glyph-name="cedillacomb" unicode="&#x327;" 
d="M-70.5 -55q20.5 -18 20.5 -50q0 -38 -27.5 -56.5t-74.5 -18.5q-34 0 -64 10l10 48q25 -9 48 -9q45 0 45 28q0 14 -12 20.5t-38 6.5h-37l23 87h62l-13 -47q37 -1 57.5 -19z" />
    <glyph glyph-name="ogonekcomb" unicode="&#x328;" 
d="M-168.5 -160q-24.5 19 -24.5 54q0 31 18.5 56.5t57.5 53.5l61 -4q-34 -28 -49.5 -48t-15.5 -42q0 -16 9.5 -24t26.5 -8q16 0 35 7v-55q-24 -9 -52 -9q-42 0 -66.5 19z" />
    <glyph glyph-name="uni0335" unicode="&#x335;" 
d="M-273 357h223v-66h-223v66z" />
    <glyph glyph-name="uni0336" unicode="&#x336;" 
d="M-225 661h225v-61h-225v61z" />
    <glyph glyph-name="uni0337" unicode="&#x337;" 
d="M0 479v-75l-92 -68v14l-91 -66v75l91 66v-13z" />
    <glyph glyph-name="uni0338" unicode="&#x338;" 
d="M-302 120l1 -3l169 334l3 -6l43 72h46l-73 -115l-1 3l-170 -337l-2 6l-45 -74h-45z" />
    <glyph glyph-name="uni0394" unicode="&#x394;" horiz-adv-x="404" 
d="M403 0h-402l131 706h141zM298 83l-95 547h-2l-94 -547h191z" />
    <glyph glyph-name="uni03A9" unicode="&#x3a9;" horiz-adv-x="438" 
d="M308 80h89v-80h-155v199q43 7 61 46q5 11 7.5 25.5t3.5 50.5t1 92q0 62 -1 102t-3.5 54t-7.5 25q-11 24 -31.5 36.5t-52.5 12.5t-52.5 -12.5t-31.5 -36.5q-5 -11 -7.5 -25t-3.5 -54t-1 -102q0 -56 1 -92t3.5 -50.5t7.5 -25.5q18 -39 61 -46v-199h-155v80h89v56
q-56 23 -80 75q-8 17 -11.5 36t-5 56.5t-1.5 109.5q0 79 1.5 118.5t5 59t11.5 36.5q21 44 63 67t106 23t106.5 -22.5t62.5 -66.5q8 -17 11.5 -37t5 -59.5t1.5 -118.5q0 -72 -1.5 -109t-5 -56t-11.5 -36q-24 -53 -80 -76v-56z" />
    <glyph glyph-name="uni03BC" unicode="&#x3bc;" horiz-adv-x="368" 
d="M333 517v-517h-85v43q-14 -24 -36 -37t-50 -13q-27 0 -45 12q6 -50 6 -101v-74h-87v687h86v-370q0 -40 14 -58.5t44 -18.5q31 0 48 21t17 62v364h88z" />
    <glyph glyph-name="pi" unicode="&#x3c0;" horiz-adv-x="476" 
d="M322.5 22q-26.5 26 -26.5 90v327h-114v-439h-87v439h-62v78h412v-78h-62v-304q0 -34 11 -47t35 -13h15v-77q-14 -2 -38 -2q-57 0 -83.5 26z" />
    <glyph glyph-name="Wgrave" unicode="&#x1e80;" horiz-adv-x="598" 
d="M597 706l-119 -706h-101l-78 532l-79 -532h-100l-119 706h89l83 -555l78 555h96l78 -545l83 545h89zM273 750l-88 109h95l77 -109h-84z" />
    <glyph glyph-name="wgrave" unicode="&#x1e81;" horiz-adv-x="537" 
d="M532 517l-108 -517h-92l-63 371l-64 -371h-92l-108 517h88l64 -384l68 384h87l67 -383l64 383h89zM241 569l-75 137h88l65 -137h-78z" />
    <glyph glyph-name="Wacute" unicode="&#x1e82;" horiz-adv-x="598" 
d="M597 706l-119 -706h-101l-78 532l-79 -532h-100l-119 706h89l83 -555l78 555h96l78 -545l83 545h89zM319 859h95l-88 -109h-84z" />
    <glyph glyph-name="wacute" unicode="&#x1e83;" horiz-adv-x="537" 
d="M532 517l-108 -517h-92l-63 371l-64 -371h-92l-108 517h88l64 -384l68 384h87l67 -383l64 383h89zM283 706h88l-75 -137h-78z" />
    <glyph glyph-name="Wdieresis" unicode="&#x1e84;" horiz-adv-x="598" 
d="M597 706l-119 -706h-101l-78 532l-79 -532h-100l-119 706h89l83 -555l78 555h96l78 -545l83 545h89zM188 772q-14 13 -14 34q0 22 14 35.5t36 13.5q21 0 35 -13.5t14 -35.5q0 -21 -14 -34t-35 -13q-22 0 -36 13zM341 772q-14 13 -14 34q0 22 14 35.5t36 13.5
q21 0 35 -13.5t14 -35.5q0 -21 -14 -34t-35 -13q-22 0 -36 13z" />
    <glyph glyph-name="wdieresis" unicode="&#x1e85;" horiz-adv-x="537" 
d="M532 517l-108 -517h-92l-63 371l-64 -371h-92l-108 517h88l64 -384l68 384h87l67 -383l64 383h89zM159 593.5q-14 13.5 -14 35.5t14.5 35.5t36.5 13.5t36.5 -13.5t14.5 -35.5t-14.5 -35.5t-36.5 -13.5q-23 0 -37 13.5zM303 593.5q-14 13.5 -14 35.5t14 35.5t36 13.5
t36.5 -13.5t14.5 -35.5t-14.5 -35.5t-36.5 -13.5t-36 13.5z" />
    <glyph glyph-name="Germandbls" unicode="&#x1e9e;" horiz-adv-x="426" 
d="M390.5 331q2.5 -13 4 -39t1.5 -75q0 -51 -1.5 -78.5t-4 -41.5t-8.5 -26q-16 -36 -52 -54.5t-90 -18.5q-34 0 -59 4v85q12 -3 37 -3q60 0 77 36q4 11 5.5 27.5t1.5 67.5q0 53 -1.5 72.5t-5.5 29.5q-18 38 -72 38q-14 0 -19 -1v2l75 266h-147v-622h-92v706h350v-5l-79 -284
q51 -14 71 -60q6 -13 8.5 -26z" />
    <glyph glyph-name="Ygrave" unicode="&#x1ef2;" horiz-adv-x="374" 
d="M141 293l-140 413h94l92 -309l92 309h94l-140 -413v-293h-92v293zM161 750l-88 109h95l77 -109h-84z" />
    <glyph glyph-name="ygrave" unicode="&#x1ef3;" horiz-adv-x="346" 
d="M340 517l-129 -517l-47 -170h-87l48 176l-120 511h93l70 -395l81 395h91zM147 569l-75 137h88l65 -137h-78z" />
    <glyph glyph-name="uni2009" unicode="&#x2009;" horiz-adv-x="51" 
 />
    <glyph glyph-name="uni2011" unicode="&#x2011;" horiz-adv-x="259" 
d="M33 343h196v-83h-196v83z" />
    <glyph glyph-name="endash" unicode="&#x2013;" horiz-adv-x="328" 
d="M33 342h265v-81h-265v81z" />
    <glyph glyph-name="emdash" unicode="&#x2014;" horiz-adv-x="656" 
d="M33 342h592v-81h-592v81z" />
    <glyph glyph-name="quoteleft" unicode="&#x2018;" horiz-adv-x="177" 
d="M110 448h-87l62 258h68z" />
    <glyph glyph-name="quoteright" unicode="&#x2019;" horiz-adv-x="177" 
d="M66 706h87l-62 -258h-68z" />
    <glyph glyph-name="quotesinglbase" unicode="&#x201a;" horiz-adv-x="177" 
d="M66 146h87l-62 -258h-68z" />
    <glyph glyph-name="quotedblleft" unicode="&#x201c;" horiz-adv-x="309" 
d="M110 448h-87l62 258h68zM243 448h-87l62 258h68z" />
    <glyph glyph-name="quotedblright" unicode="&#x201d;" horiz-adv-x="309" 
d="M198 706h87l-62 -258h-68zM66 706h87l-62 -258h-68z" />
    <glyph glyph-name="quotedblbase" unicode="&#x201e;" horiz-adv-x="309" 
d="M198 146h87l-62 -258h-68zM66 146h87l-62 -258h-68z" />
    <glyph glyph-name="dagger" unicode="&#x2020;" horiz-adv-x="289" 
d="M274 465h-85v-465h-89v465h-85v85h85v156h89v-156h85v-85z" />
    <glyph glyph-name="daggerdbl" unicode="&#x2021;" horiz-adv-x="289" 
d="M189 474v-242h85v-84h-85v-148h-89v148h-85v84h85v242h-85v85h85v147h89v-147h85v-85h-85z" />
    <glyph glyph-name="bullet" unicode="&#x2022;" horiz-adv-x="353" 
d="M121 275q-24 13 -37.5 37t-13.5 56q0 49 29 77t77 28q47 0 76 -28t29 -77q0 -32 -13.5 -56t-37 -37t-54.5 -13t-55 13z" />
    <glyph glyph-name="ellipsis" unicode="&#x2026;" horiz-adv-x="557" 
d="M238 6q-16 15 -16 39q0 25 16 40t40 15q25 0 40.5 -15t15.5 -40t-15.5 -39.5t-40.5 -14.5q-24 0 -40 15zM406 6q-16 15 -16 39q0 25 16 40t40 15q25 0 40.5 -15t15.5 -40t-15.5 -39.5t-40.5 -14.5q-24 0 -40 15zM70 6q-16 15 -16 39q0 25 16 40t40 15q25 0 40.5 -15
t15.5 -40t-15.5 -39.5t-40.5 -14.5q-24 0 -40 15z" />
    <glyph glyph-name="perthousand" unicode="&#x2030;" horiz-adv-x="687" 
d="M61.5 422.5q-20.5 11.5 -30.5 34.5q-7 15 -9.5 34.5t-2.5 69.5t2.5 69.5t9.5 35.5q10 23 30.5 34.5t51.5 11.5q62 0 82 -46q7 -16 9.5 -35.5t2.5 -69.5t-2.5 -69.5t-9.5 -34.5q-20 -46 -82 -46q-31 0 -51.5 11.5zM359 706h61l-312 -706h-61zM142 484q3 7 4 24t1 53
t-1 53.5t-4 24.5q-4 8 -10.5 11.5t-18.5 3.5q-21 0 -29 -15q-2 -7 -3 -24.5t-1 -53.5t1 -53t3 -24q8 -16 29 -16q22 0 29 16zM271 41q-7 14 -9 33.5t-2 71.5q0 51 2 70t9 34q21 46 83 46t82 -46q7 -16 9.5 -35t2.5 -69t-2.5 -70t-9.5 -35q-20 -46 -82 -46t-83 46zM522.5 6.5
q-20.5 11.5 -30.5 34.5q-7 15 -9.5 35t-2.5 70t2.5 69t9.5 35q10 23 30.5 34.5t51.5 11.5q62 0 82 -46q7 -16 9.5 -35t2.5 -69t-2.5 -70t-9.5 -35q-20 -46 -82 -46q-31 0 -51.5 11.5zM383 69q3 6 3.5 23.5t0.5 53.5t-1 53t-3 24q-8 16 -29 16q-11 0 -18 -4t-11 -12
q-3 -6 -3.5 -23.5t-0.5 -53.5t0.5 -54t3.5 -24q4 -8 10.5 -11.5t18.5 -3.5q21 0 29 16zM603 69q3 6 4 23.5t1 53.5t-1 53t-4 24q-4 8 -11 12t-18 4q-21 0 -29 -16q-2 -7 -3 -24t-1 -53t1 -53.5t3 -24.5q8 -15 29 -15q23 0 29 16z" />
    <glyph glyph-name="guilsinglleft" unicode="&#x2039;" horiz-adv-x="202" 
d="M12 297l93 161h84l-93 -161l93 -160h-84z" />
    <glyph glyph-name="guilsinglright" unicode="&#x203a;" horiz-adv-x="202" 
d="M13 137l93 160l-93 161h84l93 -161l-93 -160h-84z" />
    <glyph glyph-name="fraction" unicode="&#x2044;" horiz-adv-x="132" 
d="M188 706h59l-302 -706h-60z" />
    <glyph glyph-name="zero.superior" unicode="&#x2070;" horiz-adv-x="284" 
d="M41 487q-8 19 -10.5 45.5t-2.5 99.5t2.5 99.5t10.5 45.5q27 55 101 55q76 0 101 -55q8 -19 10.5 -45.5t2.5 -99.5t-2.5 -99.5t-10.5 -45.5q-25 -55 -101 -55q-74 0 -101 55zM178 517q4 9 5 28.5t1 86.5t-1 86.5t-5 28.5q-9 20 -36 20t-36 -20q-4 -9 -5 -28.5t-1 -86.5
t1 -86.5t5 -28.5q9 -20 36 -20t36 20z" />
    <glyph glyph-name="four.superior" unicode="&#x2074;" horiz-adv-x="266" 
d="M154 525h-155v2l99 299h124v-241h37v-60h-37v-87h-68v87zM154 585v216l-68 -216h68z" />
    <glyph glyph-name="five.superior" unicode="&#x2075;" horiz-adv-x="249" 
d="M26 480q-5 11 -7 28t-2 55h66q0 -23 1 -35t4 -19q8 -17 34 -17t35 17q2 6 3 17.5t1 33.5q0 23 -1 35t-4 19q-7 13 -23.5 19t-43.5 6q-30 0 -62 -7l19 194h173l-7 -58h-107l-8 -79q22 4 39 4q33 0 55 -11.5t31 -31.5q6 -13 7.5 -28.5t1.5 -57.5q0 -40 -2 -55.5t-7 -27.5
q-10 -24 -36.5 -36.5t-62.5 -12.5q-74 0 -97 48z" />
    <glyph glyph-name="six.superior" unicode="&#x2076;" horiz-adv-x="276" 
d="M251 617q2 -14 2 -52t-2 -53.5t-7 -28.5q-11 -25 -37.5 -38t-64.5 -13q-39 0 -65.5 14t-38.5 41q-5 12 -7.5 25t-3.5 43t-1 76q0 45 1 75.5t4 44.5t9 27q24 54 102 54q28 0 48 -6.5t33 -19.5q12 -13 17 -33.5t7 -52.5h-65q-2 20 -4 29t-7 14q-9 10 -29 10q-30 0 -41 -24
q-4 -10 -5.5 -26.5t-1.5 -63.5q21 26 70 26q29 0 50 -10.5t30 -31.5q5 -12 7 -26zM180 526q1 11 1 34t-1 34.5t-4 17.5q-9 18 -34 18q-13 0 -23 -5.5t-15 -15.5q-2 -5 -2.5 -16.5t-0.5 -33.5t0.5 -33t3.5 -16q5 -9 14 -14t22 -5q27 0 35 19q3 5 4 16z" />
    <glyph glyph-name="seven.superior" unicode="&#x2077;" horiz-adv-x="221" 
d="M123 763h-108v63h199l-107 -388h-74z" />
    <glyph glyph-name="eight.superior" unicode="&#x2078;" horiz-adv-x="267" 
d="M242.5 595.5q1.5 -12.5 1.5 -45.5t-1.5 -46.5t-6.5 -23.5q-11 -23 -37.5 -35.5t-65.5 -12.5t-65.5 12.5t-36.5 35.5q-5 10 -6.5 23.5t-1.5 46.5t1.5 45.5t5.5 20.5q11 25 42 35q-30 12 -40 34q-4 7 -5 17t-1 34q0 21 1.5 31t5.5 20q10 21 36 33t64 12q39 0 65 -12t35 -33
q4 -10 5.5 -20t1.5 -31q0 -20 -1 -31.5t-4 -19.5q-12 -23 -41 -34q32 -10 43 -35q4 -8 5.5 -20.5zM96.5 748.5q-0.5 -7.5 -0.5 -19.5q0 -15 0.5 -23t2.5 -13q7 -16 34 -16q14 0 22.5 4t12.5 13q1 4 1.5 12t0.5 23q0 13 -0.5 20.5t-2.5 11.5q-4 8 -12 11.5t-22 3.5
q-27 0 -34 -16q-2 -4 -2.5 -11.5zM172.5 523.5q0.5 9.5 0.5 30.5t-0.5 30.5t-2.5 14.5q-9 19 -37 19q-27 0 -36 -18q-2 -5 -2.5 -15t-0.5 -31t0.5 -30.5t2.5 -13.5q9 -19 36 -19q28 0 37 19q2 4 2.5 13.5z" />
    <glyph glyph-name="nine.superior" unicode="&#x2079;" horiz-adv-x="276" 
d="M245.5 752q2.5 -13 3.5 -43t1 -76q0 -45 -1 -75.5t-4 -44.5t-9 -27q-24 -54 -102 -54q-28 0 -48 6.5t-33 19.5q-12 13 -17 33.5t-7 52.5h65q2 -20 4 -29t7 -14q9 -10 29 -10q30 0 41 24q4 10 5.5 26.5t1.5 63.5q-21 -26 -70 -26q-29 0 -50 10.5t-30 31.5q-5 12 -7 26
t-2 52t2 53.5t7 28.5q11 25 37.5 38t64.5 13q39 0 65.5 -14t38.5 -41q5 -12 7.5 -25zM174.5 671.5q0.5 11.5 0.5 33.5t-0.5 33t-3.5 16q-5 9 -14 14t-22 5q-27 0 -35 -19q-3 -5 -4 -16t-1 -34t1 -34.5t4 -17.5q9 -18 34 -18q13 0 23 5.5t15 15.5q2 5 2.5 16.5z" />
    <glyph glyph-name="uni207A" unicode="&#x207a;" horiz-adv-x="237" 
d="M218 606h-72v-68h-53v68h-73v54h73v70h53v-70h72v-54z" />
    <glyph glyph-name="uni207B" unicode="&#x207b;" horiz-adv-x="237" 
d="M20 660h199v-54h-199v54z" />
    <glyph glyph-name="uni207C" unicode="&#x207c;" horiz-adv-x="229" 
d="M20 700h191v-47h-191v47zM20 613h191v-47h-191v47z" />
    <glyph glyph-name="uni207D" unicode="&#x207d;" horiz-adv-x="163" 
d="M47 498q-14 59 -14 135t14 134.5t45 122.5h59q-27 -62 -40.5 -124t-13.5 -133q0 -72 13.5 -134t40.5 -124h-59q-31 64 -45 123z" />
    <glyph glyph-name="uni207E" unicode="&#x207e;" horiz-adv-x="163" 
d="M12 375q27 62 40.5 124t13.5 134q0 71 -13.5 133t-40.5 124h59q31 -64 45 -122.5t14 -134.5t-14 -135t-45 -123h-59z" />
    <glyph glyph-name="n.superior" unicode="&#x207f;" horiz-adv-x="259" 
d="M216 689.5q20 -23.5 20 -65.5v-277h-67v261q0 23 -8 35.5t-28 12.5t-31 -14t-11 -40v-255h-67v360h67v-24q12 14 28.5 22t36.5 8q40 0 60 -23.5z" />
    <glyph glyph-name="zero.inferior" unicode="&#x2080;" horiz-adv-x="284" 
d="M41 -71q-8 19 -10.5 45.5t-2.5 99.5t2.5 99.5t10.5 45.5q27 55 101 55q76 0 101 -55q8 -19 10.5 -45.5t2.5 -99.5t-2.5 -99.5t-10.5 -45.5q-25 -55 -101 -55q-74 0 -101 55zM178 -41q4 9 5 28.5t1 86.5t-1 86.5t-5 28.5q-9 20 -36 20t-36 -20q-4 -9 -5 -28.5t-1 -86.5
t1 -86.5t5 -28.5q9 -20 36 -20t36 20z" />
    <glyph glyph-name="one.inferior" unicode="&#x2081;" horiz-adv-x="178" 
d="M69 201h-56l9 67h118v-388h-71v321z" />
    <glyph glyph-name="two.inferior" unicode="&#x2082;" horiz-adv-x="239" 
d="M12 -117l109 184q21 34 27 50t6 42q0 16 -1 24t-3 13q-8 17 -32 17q-25 0 -33 -18q-3 -6 -3.5 -15t-0.5 -26h-66q0 34 2 47t7 26q21 47 93 47q76 0 96 -45q5 -11 7 -23t2 -36q0 -36 -6 -59t-25 -54l-25 -44q-26 -46 -40 -69h93v-64h-207v3z" />
    <glyph glyph-name="three.inferior" unicode="&#x2083;" horiz-adv-x="256" 
d="M230.5 39q1.5 -12 1.5 -45q0 -37 -1.5 -50.5t-6.5 -24.5q-10 -23 -36 -34t-64 -11q-37 0 -61 11.5t-34 35.5q-6 13 -8 29.5t-2 59.5h64q0 -25 1 -38t4 -20q4 -8 13 -13t22 -5q29 0 36 16q2 5 3 15t1 31t-1 31t-4 15q-4 9 -15.5 13t-33.5 4h-11v54h11q20 0 31 4.5t16 13.5
q2 5 3 12.5t1 22.5q0 14 -0.5 21t-2.5 12q-7 15 -32 15t-35 -18q-2 -6 -3 -14.5t-1 -26.5h-64q0 31 2 45t6 25q12 26 36 37.5t60 11.5q35 0 60 -11t35 -33q4 -11 6 -22.5t2 -39.5q0 -22 -1.5 -31.5t-4.5 -18.5q-11 -20 -38 -29q30 -7 40 -29q4 -9 5.5 -21z" />
    <glyph glyph-name="four.inferior" unicode="&#x2084;" horiz-adv-x="266" 
d="M154 -33h-155v2l99 299h124v-241h37v-60h-37v-87h-68v87zM154 27v216l-68 -216h68z" />
    <glyph glyph-name="five.inferior" unicode="&#x2085;" horiz-adv-x="249" 
d="M26 -78q-5 11 -7 28t-2 55h66q0 -23 1 -35t4 -19q8 -17 34 -17t35 17q2 6 3 17.5t1 33.5q0 23 -1 35t-4 19q-7 13 -23.5 19t-43.5 6q-30 0 -62 -7l19 194h173l-7 -58h-107l-8 -79q22 4 39 4q33 0 55 -11.5t31 -31.5q6 -13 7.5 -28.5t1.5 -57.5q0 -40 -2 -55.5t-7 -27.5
q-10 -24 -36.5 -36.5t-62.5 -12.5q-74 0 -97 48z" />
    <glyph glyph-name="six.inferior" unicode="&#x2086;" horiz-adv-x="276" 
d="M251 59q2 -14 2 -52t-2 -53.5t-7 -28.5q-11 -25 -37.5 -38t-64.5 -13q-39 0 -65.5 14t-38.5 41q-5 12 -7.5 25t-3.5 43t-1 76q0 45 1 75.5t4 44.5t9 27q24 54 102 54q28 0 48 -6.5t33 -19.5q12 -13 17 -33.5t7 -52.5h-65q-2 20 -4 29t-7 14q-9 10 -29 10q-30 0 -41 -24
q-4 -10 -5.5 -26.5t-1.5 -63.5q21 26 70 26q29 0 50 -10.5t30 -31.5q5 -12 7 -26zM180 -32q1 11 1 34t-1 34.5t-4 17.5q-9 18 -34 18q-13 0 -23 -5.5t-15 -15.5q-2 -5 -2.5 -16.5t-0.5 -33.5t0.5 -33t3.5 -16q5 -9 14 -14t22 -5q27 0 35 19q3 5 4 16z" />
    <glyph glyph-name="seven.inferior" unicode="&#x2087;" horiz-adv-x="221" 
d="M123 205h-108v63h199l-107 -388h-74z" />
    <glyph glyph-name="eight.inferior" unicode="&#x2088;" horiz-adv-x="267" 
d="M242.5 37.5q1.5 -12.5 1.5 -45.5t-1.5 -46.5t-6.5 -23.5q-11 -23 -37.5 -35.5t-65.5 -12.5t-65.5 12.5t-36.5 35.5q-5 10 -6.5 23.5t-1.5 46.5t1.5 45.5t5.5 20.5q11 25 42 35q-30 12 -40 34q-4 7 -5 17t-1 34q0 21 1.5 31t5.5 20q10 21 36 33t64 12q39 0 65 -12t35 -33
q4 -10 5.5 -20t1.5 -31q0 -20 -1 -31.5t-4 -19.5q-12 -23 -41 -34q32 -10 43 -35q4 -8 5.5 -20.5zM96.5 190.5q-0.5 -7.5 -0.5 -19.5q0 -15 0.5 -23t2.5 -13q7 -16 34 -16q14 0 22.5 4t12.5 13q1 4 1.5 12t0.5 23q0 13 -0.5 20.5t-2.5 11.5q-4 8 -12 11.5t-22 3.5
q-27 0 -34 -16q-2 -4 -2.5 -11.5zM172.5 -34.5q0.5 9.5 0.5 30.5t-0.5 30.5t-2.5 14.5q-9 19 -37 19q-27 0 -36 -18q-2 -5 -2.5 -15t-0.5 -31t0.5 -30.5t2.5 -13.5q9 -19 36 -19q28 0 37 19q2 4 2.5 13.5z" />
    <glyph glyph-name="nine.inferior" unicode="&#x2089;" horiz-adv-x="276" 
d="M245.5 194q2.5 -13 3.5 -43t1 -76q0 -45 -1 -75.5t-4 -44.5t-9 -27q-24 -54 -102 -54q-28 0 -48 6.5t-33 19.5q-12 13 -17 33.5t-7 52.5h65q2 -20 4 -29t7 -14q9 -10 29 -10q30 0 41 24q4 10 5.5 26.5t1.5 63.5q-21 -26 -70 -26q-29 0 -50 10.5t-30 31.5q-5 12 -7 26
t-2 52t2 53.5t7 28.5q11 25 37.5 38t64.5 13q39 0 65.5 -14t38.5 -41q5 -12 7.5 -25zM174.5 113.5q0.5 11.5 0.5 33.5t-0.5 33t-3.5 16q-5 9 -14 14t-22 5q-27 0 -35 -19q-3 -5 -4 -16t-1 -34t1 -34.5t4 -17.5q9 -18 34 -18q13 0 23 5.5t15 15.5q2 5 2.5 16.5z" />
    <glyph glyph-name="uni208A" unicode="&#x208a;" horiz-adv-x="239" 
d="M219 48h-72v-68h-53v68h-73v54h73v70h53v-70h72v-54z" />
    <glyph glyph-name="uni208B" unicode="&#x208b;" horiz-adv-x="237" 
d="M20 102h199v-54h-199v54z" />
    <glyph glyph-name="uni208C" unicode="&#x208c;" horiz-adv-x="229" 
d="M20 142h191v-47h-191v47zM20 55h191v-47h-191v47z" />
    <glyph glyph-name="uni208D" unicode="&#x208d;" horiz-adv-x="163" 
d="M47 -60q-14 59 -14 135t14 134.5t45 122.5h59q-27 -62 -40.5 -124t-13.5 -133q0 -72 13.5 -134t40.5 -124h-59q-31 64 -45 123z" />
    <glyph glyph-name="uni208E" unicode="&#x208e;" horiz-adv-x="163" 
d="M12 -183q27 62 40.5 124t13.5 134q0 71 -13.5 133t-40.5 124h59q31 -64 45 -122.5t14 -134.5t-14 -135t-45 -123h-59z" />
    <glyph glyph-name="uni2099" unicode="&#x2099;" horiz-adv-x="259" 
d="M216 159.5q20 -23.5 20 -65.5v-277h-67v261q0 23 -8 35.5t-28 12.5t-31 -14t-11 -40v-255h-67v360h67v-24q12 14 28.5 22t36.5 8q40 0 60 -23.5z" />
    <glyph glyph-name="Euro" unicode="&#x20ac;" horiz-adv-x="463" 
d="M434 227q0 -55 -5 -90.5t-17 -60t-33 -43.5q-22 -21 -54 -32.5t-72 -11.5q-124 0 -169 100q-12 27 -17.5 65t-6.5 124h-34v56h34v19v27h-34v56h35q1 80 6 117t17 65q22 48 64 73.5t104 25.5q77 0 126 -44q30 -27 42 -69.5t13 -120.5h-93q0 42 -3 66.5t-9 37.5t-16 23
q-24 21 -62 21q-60 0 -82 -50q-7 -16 -10 -44t-4 -101h148v-56h-148v-27v-19h148v-56h-148q1 -77 4 -106.5t10 -47.5q21 -49 82 -49q39 0 63 21q10 9 16 23t9 39t3 69h93z" />
    <glyph glyph-name="uni20B9" unicode="&#x20b9;" horiz-adv-x="379" 
d="M250 321q-28 -16 -71 -19l145 -302h-100l-173 372h81q30 0 47.5 8t25.5 26q4 10 5.5 22.5t2.5 45.5h-180v58h180q-1 33 -2.5 46.5t-5.5 23.5q-15 35 -67 35h-105v69h332v-58h-85q4 -5 10 -17q8 -16 10.5 -35.5t3.5 -63.5h62v-58h-62q-1 -49 -3.5 -70t-9.5 -36
q-13 -31 -41 -47z" />
    <glyph glyph-name="uni20BA" unicode="&#x20ba;" horiz-adv-x="399" 
d="M385 303q0 -75 -2 -115.5t-6.5 -62.5t-13.5 -42q-19 -42 -58 -62.5t-101 -20.5h-134v284l-44 -20v60l44 20v50l-44 -20v60l44 20v252h91v-215l123 58v-60l-123 -57v-50l123 57v-60l-123 -57v-238h39q34 0 55 10.5t31 31.5q5 11 7 26t3 53.5t1 97.5h88z" />
    <glyph glyph-name="uni20BC" unicode="&#x20bc;" horiz-adv-x="511" 
d="M463 522q4 -18 5.5 -49t1.5 -92v-381h-91v383q0 46 -1 76.5t-3 43t-7 22.5q-10 21 -26 30.5t-41 9.5v-565h-91v565q-25 0 -41.5 -10t-25.5 -30q-5 -10 -7 -22.5t-3 -43t-1 -76.5v-383h-92v381q0 61 1.5 92t5.5 49t12 36q21 44 57.5 64.5t93.5 20.5v63h91v-63
q57 0 93 -20.5t57 -64.5q8 -18 12 -36z" />
    <glyph glyph-name="uni2113" unicode="&#x2113;" horiz-adv-x="333" 
d="M149.5 120.5q9.5 -25.5 29 -37t51.5 -11.5q29 0 63 12v-76q-35 -13 -80 -13q-81 0 -120.5 44t-39.5 139q-14 -1 -43 -1v72q30 0 43 1v262q0 72 13 116t41 64.5t73 20.5q48 0 76.5 -21t41.5 -69t13 -131q0 -92 -17 -153t-54.5 -97t-99.5 -52q0 -44 9.5 -69.5zM140 267
q32 13 50 40t25.5 71.5t7.5 113.5q0 63 -5 95t-14 43t-25 11q-14 0 -22.5 -9t-12.5 -31t-4 -62v-272z" />
    <glyph glyph-name="uni2117" unicode="&#x2117;" horiz-adv-x="519" 
d="M134 19.5q-51 30.5 -76 87.5q-11 23 -16.5 52.5t-7.5 74t-2 119.5t2 119.5t7.5 74t16.5 52.5q25 57 76 87.5t125 30.5q73 0 124 -30t78 -86q15 -35 20.5 -88t5.5 -160q0 -75 -2.5 -120t-8 -73.5t-15.5 -52.5q-26 -57 -77 -87.5t-125 -30.5t-125 30.5zM424 127
q12 29 16 75t4 150t-4.5 152t-16.5 77q-45 97 -163 97q-61 0 -103 -25.5t-63 -73.5q-12 -27 -16 -74.5t-4 -151.5t4 -151t17 -75q46 -99 164 -99q119 0 165 99zM161 596h117q70 0 91 -46q6 -14 8 -30t2 -54t-2 -55t-8 -30q-10 -23 -32.5 -34t-58.5 -11h-49v-225h-68v485z
M263 393q17 0 26.5 4t13.5 15q3 6 4.5 16t1.5 38q0 27 -1.5 36.5t-4.5 17.5q-4 10 -14 14.5t-26 4.5h-34v-146h34z" />
    <glyph glyph-name="trademark" unicode="&#x2122;" horiz-adv-x="466" 
d="M50 654h-47v52h155v-52h-48v-258h-60v258zM177 706h77l56 -208l56 208h76v-310h-54v207l-60 -207h-36l-60 207v-207h-55v310z" />
    <glyph glyph-name="Omega" unicode="&#x2126;" horiz-adv-x="438" 
d="M308 80h89v-80h-155v199q43 7 61 46q5 11 7.5 25.5t3.5 50.5t1 92q0 62 -1 102t-3.5 54t-7.5 25q-11 24 -31.5 36.5t-52.5 12.5t-52.5 -12.5t-31.5 -36.5q-5 -11 -7.5 -25t-3.5 -54t-1 -102q0 -56 1 -92t3.5 -50.5t7.5 -25.5q18 -39 61 -46v-199h-155v80h89v56
q-56 23 -80 75q-8 17 -11.5 36t-5 56.5t-1.5 109.5q0 79 1.5 118.5t5 59t11.5 36.5q21 44 63 67t106 23t106.5 -22.5t62.5 -66.5q8 -17 11.5 -37t5 -59.5t1.5 -118.5q0 -72 -1.5 -109t-5 -56t-11.5 -36q-24 -53 -80 -76v-56z" />
    <glyph glyph-name="estimated" unicode="&#x212e;" horiz-adv-x="837" 
d="M232 32.5q-87 43.5 -139.5 121.5t-52.5 176q0 96 51 174t138 122.5t190 44.5q102 0 188.5 -45t138 -124.5t51.5 -177.5h-608q-6 0 -8 -2.5t-2 -8.5v-197q47 -51 110 -78.5t130 -27.5q73 0 139 32.5t113 88.5h57q-56 -68 -138 -105t-171 -37q-100 0 -187 43.5zM650 347
q5 0 7 2.5t2 8.5v184q-44 51 -108 79.5t-132 28.5q-70 0 -133 -28.5t-107 -78.5v-185q0 -6 2 -8.5t8 -2.5h461z" />
    <glyph glyph-name="partialdiff" unicode="&#x2202;" horiz-adv-x="412" 
d="M367 576q5 -27 7 -78t2 -147q0 -97 -2 -147t-6.5 -75.5t-14.5 -46.5q-42 -93 -155 -93q-55 0 -94 21t-57 60q-7 16 -10.5 31.5t-5 44.5t-1.5 86q0 49 1 81.5t4 47t9 28.5q15 34 47 51.5t77 17.5q40 0 70 -14t47 -41q0 68 -1.5 104t-4 52.5t-8.5 29.5q-10 22 -27.5 33.5
t-45.5 11.5q-33 0 -52 -19q-9 -11 -14 -28.5t-7 -51.5h-88q2 52 12 85.5t32 55.5q41 41 118 41q57 0 95 -23.5t58 -67.5q10 -23 15 -50zM274.5 143q1.5 19 1.5 78q0 39 -1 64t-2.5 35t-5.5 19q-8 19 -25.5 30t-43.5 11q-49 0 -66 -38q-5 -11 -6.5 -31.5t-1.5 -83.5
q0 -64 1.5 -84.5t6.5 -32.5q8 -18 25.5 -28t41.5 -10q26 0 43.5 10.5t25.5 30.5q5 11 6.5 30z" />
    <glyph glyph-name="Delta" unicode="&#x2206;" horiz-adv-x="404" 
d="M403 0h-402l131 706h141zM298 83l-95 547h-2l-94 -547h191z" />
    <glyph glyph-name="product" unicode="&#x220f;" horiz-adv-x="424" 
d="M40 706h344v-876h-94v788h-156v-788h-94v876z" />
    <glyph glyph-name="summation" unicode="&#x2211;" horiz-adv-x="317" 
d="M149 291l-129 415h284v-85h-160l101 -330l-108 -376h176v-85h-301z" />
    <glyph glyph-name="minus" unicode="&#x2212;" horiz-adv-x="376" 
d="M33 336h313v-69h-313v69z" />
    <glyph glyph-name="uni2215" unicode="&#x2215;" horiz-adv-x="376" 
d="M241 706h76l-181 -706h-76z" />
    <glyph glyph-name="uni2219" unicode="&#x2219;" horiz-adv-x="376" 
d="M144 243q-23 22 -23 58q0 37 23 59t59 22t58.5 -22t22.5 -59q0 -36 -22.5 -58t-58.5 -22t-59 22z" />
    <glyph glyph-name="radical" unicode="&#x221a;" horiz-adv-x="429" 
d="M428 706l-160 -879h-112l-88 406l-58 -16v84l125 30l77 -403l123 778h93z" />
    <glyph glyph-name="infinity" unicode="&#x221e;" horiz-adv-x="577" 
d="M545 389q3 -15 4.5 -44t1.5 -84q0 -54 -1.5 -83t-4.5 -44t-9 -29q-16 -35 -46 -53t-72 -18q-52 0 -82.5 28t-47.5 89q-17 -61 -48 -89t-82 -28q-42 0 -72 18t-46 53q-6 14 -9 29t-4 47t-1 80t1 80.5t4 47.5t9 29q16 34 46 52.5t72 18.5q52 0 82 -28t48 -90
q17 61 47.5 89.5t82.5 28.5q42 0 72 -18.5t46 -52.5q6 -14 9 -29zM201.5 126.5q13.5 13.5 23.5 45t20 89.5q-10 59 -20 90.5t-23.5 45t-34.5 13.5q-18 0 -30 -7t-19 -22q-4 -7 -5.5 -17t-2 -36t-0.5 -67q0 -66 1.5 -87t6.5 -31q14 -30 49 -30q21 0 34.5 13.5zM465.5 174
q1.5 21 1.5 87q0 67 -1.5 88t-6.5 32q-14 29 -49 29q-21 0 -35 -13.5t-24 -45t-20 -90.5q10 -58 20 -89.5t24 -45t35 -13.5q35 0 49 30q5 10 6.5 31z" />
    <glyph glyph-name="integral" unicode="&#x222b;" horiz-adv-x="268" 
d="M0 -170l14 79h19q22 0 32 11t12 38l36 637q3 60 30.5 86.5t84.5 26.5q27 0 40 -2l-14 -81l-13 1q-21 0 -30.5 -11.5t-11.5 -37.5l-38 -638q-3 -59 -30 -85.5t-84 -26.5q-31 0 -47 3z" />
    <glyph glyph-name="approxequal" unicode="&#x2248;" horiz-adv-x="376" 
d="M207.5 326.5q-16.5 8.5 -34.5 24.5q-12 10 -20.5 15t-18.5 5q-15 0 -21.5 -12t-8.5 -38h-59q2 57 21.5 85.5t61.5 28.5q26 0 42.5 -8t34.5 -23q14 -12 21 -16.5t18 -4.5q15 0 21.5 12t8.5 37h59q-2 -59 -21.5 -86.5t-61.5 -27.5q-26 0 -42.5 8.5zM207.5 175.5
q-16.5 8.5 -34.5 24.5q-12 10 -20.5 15t-18.5 5q-15 0 -21.5 -12.5t-8.5 -38.5h-59q2 59 21.5 87.5t61.5 28.5q26 0 42.5 -8.5t34.5 -24.5q13 -11 20.5 -15.5t18.5 -4.5q15 0 21.5 12t8.5 37h59q-2 -59 -21.5 -86.5t-61.5 -27.5q-26 0 -42.5 8.5z" />
    <glyph glyph-name="notequal" unicode="&#x2260;" horiz-adv-x="376" 
d="M240 345l-48 -87h154v-70h-188l-48 -88h-54l47 88h-70v70h104l48 87h-152v69h187l48 88h53l-48 -88h73v-69h-106z" />
    <glyph glyph-name="lessequal" unicode="&#x2264;" horiz-adv-x="376" 
d="M346 412l-269 -68l269 -66v-73l-313 88v102l313 90v-73zM33 177h313v-70h-313v70z" />
    <glyph glyph-name="greaterequal" unicode="&#x2265;" horiz-adv-x="376" 
d="M346 395v-102l-313 -88v73l269 66l-269 68v73zM33 177h313v-70h-313v70z" />
    <glyph glyph-name="lozenge" unicode="&#x25ca;" horiz-adv-x="360" 
d="M13 268l119 438h97l118 -438l-118 -438h-97zM261 268l-81 348l-81 -348l81 -349z" />
    <glyph glyph-name="ff" unicode="&#xfb00;" horiz-adv-x="487" 
d="M62 439h-54v78h54v67q0 69 32 99t101 30q21 0 39 -3v-78q-10 3 -25 3q-32 0 -45.5 -15.5t-13.5 -50.5v-52h80v-78h-80v-439h-88v439zM306 439h-54v78h54v67q0 69 32 99t101 30q21 0 39 -3v-78q-10 3 -25 3q-32 0 -45.5 -15.5t-13.5 -50.5v-52h80v-78h-80v-439h-88v439z
" />
    <glyph glyph-name="fi" unicode="&#xfb01;" horiz-adv-x="401" 
d="M62 439h-54v78h54v67q0 69 32 99t101 30q21 0 39 -3v-78q-10 3 -25 3q-32 0 -45.5 -15.5t-13.5 -50.5v-52h80v-78h-80v-439h-88v439zM284 597q-15 14 -15 37t15 36.5t39 13.5q23 0 37.5 -13.5t14.5 -36.5t-14.5 -37t-37.5 -14q-24 0 -39 14zM278 517h87v-517h-87v517z
" />
    <glyph glyph-name="fl" unicode="&#xfb02;" horiz-adv-x="401" 
d="M62 439h-54v78h54v67q0 69 32 99t101 30q21 0 39 -3v-78q-10 3 -25 3q-32 0 -45.5 -15.5t-13.5 -50.5v-52h80v-78h-80v-439h-88v439zM278 706h87v-706h-87v706z" />
    <glyph glyph-name="ffi" unicode="&#xfb03;" horiz-adv-x="645" 
d="M62 439h-54v78h54v67q0 69 32 99t101 30q21 0 39 -3v-78q-10 3 -25 3q-32 0 -45.5 -15.5t-13.5 -50.5v-52h80v-78h-80v-439h-88v439zM306 439h-54v78h54v67q0 69 32 99t101 30q21 0 39 -3v-78q-10 3 -25 3q-32 0 -45.5 -15.5t-13.5 -50.5v-52h80v-78h-80v-439h-88v439z
M529 597q-15 14 -15 37t15 36.5t39 13.5q23 0 37.5 -13.5t14.5 -36.5t-14.5 -37t-37.5 -14q-24 0 -39 14zM523 517h87v-517h-87v517z" />
    <glyph glyph-name="ffl" unicode="&#xfb04;" horiz-adv-x="645" 
d="M62 439h-54v78h54v67q0 69 32 99t101 30q21 0 39 -3v-78q-10 3 -25 3q-32 0 -45.5 -15.5t-13.5 -50.5v-52h80v-78h-80v-439h-88v439zM306 439h-54v78h54v67q0 69 32 99t101 30q21 0 39 -3v-78q-10 3 -25 3q-32 0 -45.5 -15.5t-13.5 -50.5v-52h80v-78h-80v-439h-88v439z
M523 706h87v-706h-87v706z" />
    <glyph glyph-name="uniFEFF" unicode="&#xfeff;" 
 />
    <glyph glyph-name="uni00A40301" horiz-adv-x="215" 
d="M5 0v87q8 -1 23 -1q33 0 46 16t13 54v550h91v-567q0 -73 -30.5 -107t-100.5 -34q-12 0 -42 2zM153 859h95l-88 -109h-84z" />
    <glyph glyph-name="M.ss01" horiz-adv-x="529" 
d="M40 706h118l107 -286l107 286h117v-706h-88v573l-108 -288h-56l-109 288v-573h-88v706z" />
    <glyph glyph-name="Q.ss02" horiz-adv-x="448" 
d="M321 11l57 -120l-80 -34l-58 132h-16q-107 0 -153 74q-15 23 -23 54t-12 86t-4 150q0 91 2 140t7 76t15 49q21 48 63 73.5t105 25.5q62 0 104 -25.5t63 -73.5q10 -22 15 -49.5t7.5 -76.5t2.5 -139t-2.5 -139t-7.5 -76.5t-15 -49.5q-24 -54 -70 -77zM317 160.5
q3 19.5 4 68.5t1 124t-1 124t-4 68.5t-9 33.5q-23 51 -84 51t-84 -51q-6 -14 -9 -33.5t-4.5 -63t-1.5 -129.5t1.5 -129.5t4.5 -63t9 -33.5q23 -51 84 -51t84 51q6 14 9 33.5z" />
    <glyph glyph-name="R.ss03" horiz-adv-x="388" 
d="M177 332h-45v-332h-92v706h171q56 0 89.5 -15.5t48.5 -49.5q8 -18 11 -41t3 -80q0 -56 -2.5 -79.5t-10.5 -39.5q-12 -26 -31.5 -41.5t-49.5 -22.5l116 -337h-96zM132 414h56q60 0 75 31q4 11 5.5 24.5t1.5 50.5q0 35 -1.5 48.5t-5.5 24.5q-7 16 -25.5 23t-49.5 7h-56
v-209z" />
    <glyph glyph-name="Racute.ss03" horiz-adv-x="394" 
d="M177 332h-45v-332h-92v706h171q56 0 89.5 -15.5t48.5 -49.5q8 -18 11 -41t3 -80q0 -56 -2.5 -79.5t-10.5 -39.5q-12 -26 -31.5 -41.5t-49.5 -22.5l116 -337h-96zM132 414h56q60 0 75 31q4 11 5.5 24.5t1.5 50.5q0 35 -1.5 48.5t-5.5 24.5q-7 16 -25.5 23t-49.5 7h-56
v-209zM217 859h95l-88 -109h-84z" />
    <glyph glyph-name="Rcaron.ss03" horiz-adv-x="394" 
d="M177 332h-45v-332h-92v706h171q56 0 89.5 -15.5t48.5 -49.5q8 -18 11 -41t3 -80q0 -56 -2.5 -79.5t-10.5 -39.5q-12 -26 -31.5 -41.5t-49.5 -22.5l116 -337h-96zM132 414h56q60 0 75 31q4 11 5.5 24.5t1.5 50.5q0 35 -1.5 48.5t-5.5 24.5q-7 16 -25.5 23t-49.5 7h-56
v-209zM251 749h-105l-77 109h84l45 -66l47 66h82z" />
    <glyph glyph-name="uni0156.ss03" horiz-adv-x="394" 
d="M177 332h-45v-332h-92v706h171q56 0 89.5 -15.5t48.5 -49.5q8 -18 11 -41t3 -80q0 -56 -2.5 -79.5t-10.5 -39.5q-12 -26 -31.5 -41.5t-49.5 -22.5l116 -337h-96zM132 414h56q60 0 75 31q4 11 5.5 24.5t1.5 50.5q0 35 -1.5 48.5t-5.5 24.5q-7 16 -25.5 23t-49.5 7h-56
v-209zM155 -40h87l-29 -130h-81z" />
    <glyph glyph-name="Oslash.ss04" horiz-adv-x="448" 
d="M391 618q10 -22 15 -49.5t7.5 -76.5t2.5 -139t-2.5 -139t-7.5 -76.5t-15 -49.5q-21 -48 -63 -73.5t-104 -25.5t-105 26l-42 -67l-68 41l56 85q-13 22 -20 53.5t-10 84.5t-3 141q0 91 2 140t7 76t15 49q21 48 63 73.5t105 25.5q60 0 104 -25l41 66l71 -39l-56 -87z
M317 160.5q3 19.5 4 68.5t1 124t-1 124t-4 68.5t-9 33.5q-23 51 -84 51t-84 -51q-6 -14 -9 -33.5t-4.5 -63t-1.5 -129.5t1.5 -129.5t4.5 -63t9 -33.5q23 -51 84 -51t84 51q6 14 9 33.5z" />
    <glyph glyph-name="i.loclTRK" horiz-adv-x="159" 
d="M36 517h87v-517h-87v517zM42 597q-15 14 -15 37t15 36.5t39 13.5q23 0 37.5 -13.5t14.5 -36.5t-14.5 -37t-37.5 -14q-24 0 -39 14z" />
    <glyph glyph-name="uni006A0301" horiz-adv-x="164" 
d="M-21 -170v79h19q24 0 33.5 10.5t9.5 38.5v559h87v-574q0 -61 -27 -88t-85 -27q-25 0 -37 2zM99 706h88l-71 -137h-78z" />
    <glyph glyph-name="oslash.ss04" horiz-adv-x="366" 
d="M323 445q7 -17 11 -35.5t5.5 -52.5t1.5 -98t-1.5 -98t-5.5 -53t-11 -36q-17 -38 -52 -58.5t-88 -20.5q-37 0 -68 11l-29 -51l-65 35l36 60q-5 7 -13 23q-8 17 -11.5 36t-5 52.5t-1.5 99.5q0 65 1.5 99t5 52.5t10.5 34.5q17 38 52.5 59t87.5 21q38 0 68 -11l29 50l65 -33
l-36 -61q10 -16 14 -25zM247 128.5q2 13.5 3 46.5t1 84t-1 84t-3 46.5t-6 22.5q-15 34 -58 34t-58 -34q-4 -9 -6 -22.5t-3 -46.5t-1 -84t1 -84t3 -46.5t6 -22.5q15 -34 58 -34t58 34q4 9 6 22.5z" />
    <glyph glyph-name="r.ss05" horiz-adv-x="236" 
d="M36 517h87v-29q17 36 52 36q24 0 39 -15t15 -41q0 -23 -15 -38.5t-38 -15.5q-13 0 -23.5 5t-17.5 14q-7 -4 -9.5 -11.5t-2.5 -27.5v-394h-87v517z" />
    <glyph glyph-name="racute.ss05" horiz-adv-x="236" 
d="M36 517h87v-29q17 36 52 36q24 0 39 -15t15 -41q0 -23 -15 -38.5t-38 -15.5q-13 0 -23.5 5t-17.5 14q-7 -4 -9.5 -11.5t-2.5 -27.5v-394h-87v517zM140 706h88l-71 -137h-78z" />
    <glyph glyph-name="rcaron.ss05" horiz-adv-x="236" 
d="M36 517h87v-29q17 36 52 36q24 0 39 -15t15 -41q0 -23 -15 -38.5t-38 -15.5q-13 0 -23.5 5t-17.5 14q-7 -4 -9.5 -11.5t-2.5 -27.5v-394h-87v517zM84 706l40 -86l36 86h72l-62 -137h-94l-63 137h71z" />
    <glyph glyph-name="uni0157.ss05" horiz-adv-x="236" 
d="M36 517h87v-29q17 36 52 36q24 0 39 -15t15 -41q0 -23 -15 -38.5t-38 -15.5q-13 0 -23.5 5t-17.5 14q-7 -4 -9.5 -11.5t-2.5 -27.5v-394h-87v517zM36 -40h87l-29 -130h-81z" />
    <glyph glyph-name="f_i" horiz-adv-x="401" 
d="M62 439h-54v78h54v67q0 69 32 99t101 30q21 0 39 -3v-78q-10 3 -25 3q-32 0 -45.5 -15.5t-13.5 -50.5v-52h80v-78h-80v-439h-88v439zM284 597q-15 14 -15 37t15 36.5t39 13.5q23 0 37.5 -13.5t14.5 -36.5t-14.5 -37t-37.5 -14q-24 0 -39 14zM278 517h87v-517h-87v517z
" />
    <glyph glyph-name="f_l" horiz-adv-x="401" 
d="M62 439h-54v78h54v67q0 69 32 99t101 30q21 0 39 -3v-78q-10 3 -25 3q-32 0 -45.5 -15.5t-13.5 -50.5v-52h80v-78h-80v-439h-88v439zM278 706h87v-706h-87v706z" />
    <glyph glyph-name="zero.tf" horiz-adv-x="389" 
d="M48 78q-10 23 -15.5 51t-7.5 78.5t-2 145.5t2 145.5t7.5 78.5t15.5 51q39 89 146 89q108 0 147 -89q10 -23 15 -51t7.5 -79.5t2.5 -144.5t-2.5 -144.5t-7.5 -79.5t-15 -51q-39 -89 -147 -89q-107 0 -146 89zM260 115q6 14 8.5 34.5t3.5 72.5t1 131t-1 131t-3.5 72.5
t-8.5 34.5q-18 41 -66 41q-47 0 -65 -41q-6 -14 -8.5 -34.5t-3.5 -72.5t-1 -131t1 -131t3.5 -72.5t8.5 -34.5q18 -41 65 -41q48 0 66 41z" />
    <glyph glyph-name="one.tf" horiz-adv-x="389" 
d="M172 621h-102l14 85h178v-706h-90v621z" />
    <glyph glyph-name="two.tf" horiz-adv-x="389" 
d="M30 3l171 336q25 51 35.5 75t15.5 48t5 58q0 39 -2 54t-6 25q-13 33 -60 33q-24 0 -39 -8.5t-23 -26.5q-5 -13 -7 -35t-2 -77h-87q0 69 4 100.5t15 55.5q16 38 52 57t89 19q107 0 143 -79q8 -19 11.5 -42t3.5 -68q0 -58 -12.5 -100.5t-44.5 -102.5q-21 -45 -46.5 -96
l-32.5 -65l-39 -81h176v-83h-320v3z" />
    <glyph glyph-name="three.tf" horiz-adv-x="389" 
d="M353.5 285.5q2.5 -21.5 2.5 -79.5q0 -43 -1 -72t-4 -42.5t-9 -26.5q-17 -38 -53.5 -57t-96.5 -19q-113 0 -146 76q-11 23 -14.5 54.5t-3.5 108.5h86q0 -60 2 -82.5t8 -36.5q17 -36 66 -36q52 0 67 35q5 10 6.5 28.5t1.5 72.5q0 48 -1.5 64t-7.5 25q-9 21 -31 29t-60 8
h-16v81h17q36 0 56.5 8.5t29.5 27.5q5 9 6 20.5t1 52.5t-1 55t-5 23q-15 33 -62 33q-25 0 -40 -9t-23 -27q-5 -11 -6.5 -30.5t-1.5 -73.5h-87q0 65 3 94t13 51q33 76 147 76q55 0 90 -19t50 -54q8 -17 10.5 -38.5t2.5 -77.5q0 -48 -2 -65.5t-9 -31.5q-9 -20 -25 -33t-42 -20
q28 -7 46 -20t27 -34q7 -17 9.5 -38.5z" />
    <glyph glyph-name="four.tf" horiz-adv-x="389" 
d="M381 168h-60v-168h-88v168h-227v2l162 536h153v-455h60v-83zM233 251v416h-1l-116 -416h117z" />
    <glyph glyph-name="five.tf" horiz-adv-x="389" 
d="M49 66q-10 21 -13.5 52.5t-3.5 102.5h87q0 -58 2 -79t7 -33q15 -36 64 -36q48 0 66 37q5 11 6 29t1 79q0 59 -2 81t-7 36q-12 24 -37.5 35.5t-66.5 11.5q-23 0 -51 -3.5t-53 -8.5l35 336h261l-14 -84h-168l-17 -166q30 5 53 5q53 0 89.5 -20t53.5 -58q7 -15 10 -30.5
t4.5 -45t1.5 -84.5q0 -47 -1 -79.5t-4.5 -48t-9.5 -29.5q-38 -77 -148 -77q-112 0 -145 77z" />
    <glyph glyph-name="six.tf" horiz-adv-x="389" 
d="M363 349.5q3 -14.5 4 -45.5t1 -78q0 -54 -1.5 -81.5t-4.5 -43t-10 -31.5q-18 -39 -57 -60t-94 -21q-113 0 -154 93q-10 21 -14.5 46t-6.5 75t-2 147t2 148t7 78t15 50q20 44 58 67.5t94 23.5q75 0 118 -41q22 -22 31.5 -59.5t11.5 -109.5h-86q-1 53 -6 75.5t-15 33.5
q-18 20 -53 20q-53 0 -74 -46q-6 -14 -9 -32t-4.5 -56t-1.5 -112q18 27 47.5 42t70.5 15q45 0 77 -18t47 -52q6 -13 9 -27.5zM275.5 140.5q1.5 19.5 1.5 81.5q0 59 -1.5 78.5t-6.5 30.5q-18 40 -68 40q-27 0 -44.5 -11.5t-25.5 -31.5q-4 -8 -6 -17.5t-2.5 -32t-0.5 -57.5
q0 -36 0.5 -59.5t2 -33t5.5 -16.5q8 -20 26 -31t44 -11q51 0 68 40q6 11 7.5 30.5z" />
    <glyph glyph-name="seven.tf" horiz-adv-x="389" 
d="M249 621h-221v85h338l-178 -706h-96z" />
    <glyph glyph-name="eight.tf" horiz-adv-x="389" 
d="M361 287.5q3 -25.5 3 -88.5q0 -64 -3 -89t-11 -43q-16 -37 -55.5 -57.5t-100.5 -20.5q-60 0 -99.5 20.5t-56.5 57.5q-8 18 -11 43t-3 89q0 63 3 88t11 43q21 44 73 57q-49 15 -68 55q-7 15 -9 35t-2 67q0 44 2.5 64t9.5 36q16 35 54.5 54t95.5 19q58 0 95.5 -18.5
t54.5 -54.5q8 -17 10.5 -37t2.5 -63q0 -47 -2 -67t-9 -35q-18 -40 -68 -55q52 -13 72 -56q8 -18 11 -43.5zM125 580.5q-1 -17.5 -1 -48.5q0 -33 1 -50.5t5 -26.5q17 -34 64 -34q49 0 64 34q5 9 6 23t1 54q0 38 -1.5 51.5t-5.5 23.5q-16 33 -64 33t-64 -33q-4 -9 -5 -26.5z
M270 134q1 16 1 71q0 56 -1 73t-6 27q-9 18 -26.5 28t-43.5 10t-43.5 -10t-26.5 -28q-4 -9 -5 -24.5t-1 -74.5q0 -55 1 -72t5 -27q18 -38 70 -38q53 0 70 38q5 11 6 27z" />
    <glyph glyph-name="nine.tf" horiz-adv-x="389" 
d="M356.5 578q4.5 -25 6.5 -75t2 -147t-2 -148t-7 -78t-15 -50q-20 -44 -58 -67.5t-94 -23.5q-75 0 -118 41q-22 22 -31.5 59.5t-11.5 109.5h86q1 -53 6 -75.5t15 -33.5q18 -20 53 -20q53 0 74 46q6 14 9 32t4.5 56t1.5 112q-18 -27 -47.5 -42t-70.5 -15q-45 0 -77 18
t-47 52q-6 13 -9 27.5t-4 45.5t-1 78q0 54 1.5 81.5t4.5 43t10 31.5q18 39 57 60t94 21q114 0 154 -93q10 -21 14.5 -46zM264 395.5q2 9.5 2.5 32t0.5 57.5q0 36 -0.5 59.5t-2 33t-5.5 16.5q-8 20 -26 31t-44 11q-51 0 -68 -40q-6 -11 -7.5 -30.5t-1.5 -81.5
q0 -59 1.5 -78.5t6.5 -30.5q18 -40 68 -40q27 0 44.5 11.5t25.5 31.5q4 8 6 17.5z" />
    <glyph glyph-name="zero.dnom" horiz-adv-x="284" 
d="M41 49q-8 19 -10.5 45.5t-2.5 99.5t2.5 99.5t10.5 45.5q27 55 101 55q76 0 101 -55q8 -19 10.5 -45.5t2.5 -99.5t-2.5 -99.5t-10.5 -45.5q-25 -55 -101 -55q-74 0 -101 55zM178 79q4 9 5 28.5t1 86.5t-1 86.5t-5 28.5q-9 20 -36 20t-36 -20q-4 -9 -5 -28.5t-1 -86.5
t1 -86.5t5 -28.5q9 -20 36 -20t36 20z" />
    <glyph glyph-name="one.dnom" horiz-adv-x="178" 
d="M69 321h-56l9 67h118v-388h-71v321z" />
    <glyph glyph-name="two.dnom" horiz-adv-x="239" 
d="M12 3l109 184q21 34 27 50t6 42q0 16 -1 24t-3 13q-8 17 -32 17q-25 0 -33 -18q-3 -6 -3.5 -15t-0.5 -26h-66q0 34 2 47t7 26q21 47 93 47q76 0 96 -45q5 -11 7 -23t2 -36q0 -36 -6 -59t-25 -54l-25 -44q-26 -46 -40 -69h93v-64h-207v3z" />
    <glyph glyph-name="three.dnom" horiz-adv-x="256" 
d="M230.5 159q1.5 -12 1.5 -45q0 -37 -1.5 -50.5t-6.5 -24.5q-10 -23 -36 -34t-64 -11q-37 0 -61 11.5t-34 35.5q-6 13 -8 29.5t-2 59.5h64q0 -25 1 -38t4 -20q4 -8 13 -13t22 -5q29 0 36 16q2 5 3 15t1 31t-1 31t-4 15q-4 9 -15.5 13t-33.5 4h-11v54h11q20 0 31 4.5
t16 13.5q2 5 3 12.5t1 22.5q0 14 -0.5 21t-2.5 12q-7 15 -32 15t-35 -18q-2 -6 -3 -14.5t-1 -26.5h-64q0 31 2 45t6 25q12 26 36 37.5t60 11.5q35 0 60 -11t35 -33q4 -11 6 -22.5t2 -39.5q0 -22 -1.5 -31.5t-4.5 -18.5q-11 -20 -38 -29q30 -7 40 -29q4 -9 5.5 -21z" />
    <glyph glyph-name="four.dnom" horiz-adv-x="266" 
d="M154 87h-155v2l99 299h124v-241h37v-60h-37v-87h-68v87zM154 147v216l-68 -216h68z" />
    <glyph glyph-name="five.dnom" horiz-adv-x="249" 
d="M26 42q-5 11 -7 28t-2 55h66q0 -23 1 -35t4 -19q8 -17 34 -17t35 17q2 6 3 17.5t1 33.5q0 23 -1 35t-4 19q-7 13 -23.5 19t-43.5 6q-30 0 -62 -7l19 194h173l-7 -58h-107l-8 -79q22 4 39 4q33 0 55 -11.5t31 -31.5q6 -13 7.5 -28.5t1.5 -57.5q0 -40 -2 -55.5t-7 -27.5
q-10 -24 -36.5 -36.5t-62.5 -12.5q-74 0 -97 48z" />
    <glyph glyph-name="six.dnom" horiz-adv-x="276" 
d="M251 179q2 -14 2 -52t-2 -53.5t-7 -28.5q-11 -25 -37.5 -38t-64.5 -13q-39 0 -65.5 14t-38.5 41q-5 12 -7.5 25t-3.5 43t-1 76q0 45 1 75.5t4 44.5t9 27q24 54 102 54q28 0 48 -6.5t33 -19.5q12 -13 17 -33.5t7 -52.5h-65q-2 20 -4 29t-7 14q-9 10 -29 10q-30 0 -41 -24
q-4 -10 -5.5 -26.5t-1.5 -63.5q21 26 70 26q29 0 50 -10.5t30 -31.5q5 -12 7 -26zM180 88q1 11 1 34t-1 34.5t-4 17.5q-9 18 -34 18q-13 0 -23 -5.5t-15 -15.5q-2 -5 -2.5 -16.5t-0.5 -33.5t0.5 -33t3.5 -16q5 -9 14 -14t22 -5q27 0 35 19q3 5 4 16z" />
    <glyph glyph-name="seven.dnom" horiz-adv-x="221" 
d="M123 325h-108v63h199l-107 -388h-74z" />
    <glyph glyph-name="eight.dnom" horiz-adv-x="267" 
d="M242.5 157.5q1.5 -12.5 1.5 -45.5t-1.5 -46.5t-6.5 -23.5q-11 -23 -37.5 -35.5t-65.5 -12.5t-65.5 12.5t-36.5 35.5q-5 10 -6.5 23.5t-1.5 46.5t1.5 45.5t5.5 20.5q11 25 42 35q-30 12 -40 34q-4 7 -5 17t-1 34q0 21 1.5 31t5.5 20q10 21 36 33t64 12q39 0 65 -12t35 -33
q4 -10 5.5 -20t1.5 -31q0 -20 -1 -31.5t-4 -19.5q-12 -23 -41 -34q32 -10 43 -35q4 -8 5.5 -20.5zM96.5 310.5q-0.5 -7.5 -0.5 -19.5q0 -15 0.5 -23t2.5 -13q7 -16 34 -16q14 0 22.5 4t12.5 13q1 4 1.5 12t0.5 23q0 13 -0.5 20.5t-2.5 11.5q-4 8 -12 11.5t-22 3.5
q-27 0 -34 -16q-2 -4 -2.5 -11.5zM172.5 85.5q0.5 9.5 0.5 30.5t-0.5 30.5t-2.5 14.5q-9 19 -37 19q-27 0 -36 -18q-2 -5 -2.5 -15t-0.5 -31t0.5 -30.5t2.5 -13.5q9 -19 36 -19q28 0 37 19q2 4 2.5 13.5z" />
    <glyph glyph-name="nine.dnom" horiz-adv-x="276" 
d="M245.5 314q2.5 -13 3.5 -43t1 -76q0 -45 -1 -75.5t-4 -44.5t-9 -27q-24 -54 -102 -54q-28 0 -48 6.5t-33 19.5q-12 13 -17 33.5t-7 52.5h65q2 -20 4 -29t7 -14q9 -10 29 -10q30 0 41 24q4 10 5.5 26.5t1.5 63.5q-21 -26 -70 -26q-29 0 -50 10.5t-30 31.5q-5 12 -7 26
t-2 52t2 53.5t7 28.5q11 25 37.5 38t64.5 13q39 0 65.5 -14t38.5 -41q5 -12 7.5 -25zM174.5 233.5q0.5 11.5 0.5 33.5t-0.5 33t-3.5 16q-5 9 -14 14t-22 5q-27 0 -35 -19q-3 -5 -4 -16t-1 -34t1 -34.5t4 -17.5q9 -18 34 -18q13 0 23 5.5t15 15.5q2 5 2.5 16.5z" />
    <glyph glyph-name="zero.numr" horiz-adv-x="284" 
d="M41 367q-8 19 -10.5 45.5t-2.5 99.5t2.5 99.5t10.5 45.5q27 55 101 55q76 0 101 -55q8 -19 10.5 -45.5t2.5 -99.5t-2.5 -99.5t-10.5 -45.5q-25 -55 -101 -55q-74 0 -101 55zM178 397q4 9 5 28.5t1 86.5t-1 86.5t-5 28.5q-9 20 -36 20t-36 -20q-4 -9 -5 -28.5t-1 -86.5
t1 -86.5t5 -28.5q9 -20 36 -20t36 20z" />
    <glyph glyph-name="one.numr" horiz-adv-x="178" 
d="M69 639h-56l9 67h118v-388h-71v321z" />
    <glyph glyph-name="two.numr" horiz-adv-x="239" 
d="M12 321l109 184q21 34 27 50t6 42q0 16 -1 24t-3 13q-8 17 -32 17q-25 0 -33 -18q-3 -6 -3.5 -15t-0.5 -26h-66q0 34 2 47t7 26q21 47 93 47q76 0 96 -45q5 -11 7 -23t2 -36q0 -36 -6 -59t-25 -54l-25 -44q-26 -46 -40 -69h93v-64h-207v3z" />
    <glyph glyph-name="three.numr" horiz-adv-x="256" 
d="M230.5 477q1.5 -12 1.5 -45q0 -37 -1.5 -50.5t-6.5 -24.5q-10 -23 -36 -34t-64 -11q-37 0 -61 11.5t-34 35.5q-6 13 -8 29.5t-2 59.5h64q0 -25 1 -38t4 -20q4 -8 13 -13t22 -5q29 0 36 16q2 5 3 15t1 31t-1 31t-4 15q-4 9 -15.5 13t-33.5 4h-11v54h11q20 0 31 4.5
t16 13.5q2 5 3 12.5t1 22.5q0 14 -0.5 21t-2.5 12q-7 15 -32 15t-35 -18q-2 -6 -3 -14.5t-1 -26.5h-64q0 31 2 45t6 25q12 26 36 37.5t60 11.5q35 0 60 -11t35 -33q4 -11 6 -22.5t2 -39.5q0 -22 -1.5 -31.5t-4.5 -18.5q-11 -20 -38 -29q30 -7 40 -29q4 -9 5.5 -21z" />
    <glyph glyph-name="four.numr" horiz-adv-x="266" 
d="M154 405h-155v2l99 299h124v-241h37v-60h-37v-87h-68v87zM154 465v216l-68 -216h68z" />
    <glyph glyph-name="five.numr" horiz-adv-x="249" 
d="M26 360q-5 11 -7 28t-2 55h66q0 -23 1 -35t4 -19q8 -17 34 -17t35 17q2 6 3 17.5t1 33.5q0 23 -1 35t-4 19q-7 13 -23.5 19t-43.5 6q-30 0 -62 -7l19 194h173l-7 -58h-107l-8 -79q22 4 39 4q33 0 55 -11.5t31 -31.5q6 -13 7.5 -28.5t1.5 -57.5q0 -40 -2 -55.5t-7 -27.5
q-10 -24 -36.5 -36.5t-62.5 -12.5q-74 0 -97 48z" />
    <glyph glyph-name="six.numr" horiz-adv-x="276" 
d="M251 497q2 -14 2 -52t-2 -53.5t-7 -28.5q-11 -25 -37.5 -38t-64.5 -13q-39 0 -65.5 14t-38.5 41q-5 12 -7.5 25t-3.5 43t-1 76q0 45 1 75.5t4 44.5t9 27q24 54 102 54q28 0 48 -6.5t33 -19.5q12 -13 17 -33.5t7 -52.5h-65q-2 20 -4 29t-7 14q-9 10 -29 10q-30 0 -41 -24
q-4 -10 -5.5 -26.5t-1.5 -63.5q21 26 70 26q29 0 50 -10.5t30 -31.5q5 -12 7 -26zM180 406q1 11 1 34t-1 34.5t-4 17.5q-9 18 -34 18q-13 0 -23 -5.5t-15 -15.5q-2 -5 -2.5 -16.5t-0.5 -33.5t0.5 -33t3.5 -16q5 -9 14 -14t22 -5q27 0 35 19q3 5 4 16z" />
    <glyph glyph-name="seven.numr" horiz-adv-x="221" 
d="M123 643h-108v63h199l-107 -388h-74z" />
    <glyph glyph-name="eight.numr" horiz-adv-x="267" 
d="M242.5 475.5q1.5 -12.5 1.5 -45.5t-1.5 -46.5t-6.5 -23.5q-11 -23 -37.5 -35.5t-65.5 -12.5t-65.5 12.5t-36.5 35.5q-5 10 -6.5 23.5t-1.5 46.5t1.5 45.5t5.5 20.5q11 25 42 35q-30 12 -40 34q-4 7 -5 17t-1 34q0 21 1.5 31t5.5 20q10 21 36 33t64 12q39 0 65 -12t35 -33
q4 -10 5.5 -20t1.5 -31q0 -20 -1 -31.5t-4 -19.5q-12 -23 -41 -34q32 -10 43 -35q4 -8 5.5 -20.5zM96.5 628.5q-0.5 -7.5 -0.5 -19.5q0 -15 0.5 -23t2.5 -13q7 -16 34 -16q14 0 22.5 4t12.5 13q1 4 1.5 12t0.5 23q0 13 -0.5 20.5t-2.5 11.5q-4 8 -12 11.5t-22 3.5
q-27 0 -34 -16q-2 -4 -2.5 -11.5zM172.5 403.5q0.5 9.5 0.5 30.5t-0.5 30.5t-2.5 14.5q-9 19 -37 19q-27 0 -36 -18q-2 -5 -2.5 -15t-0.5 -31t0.5 -30.5t2.5 -13.5q9 -19 36 -19q28 0 37 19q2 4 2.5 13.5z" />
    <glyph glyph-name="nine.numr" horiz-adv-x="276" 
d="M245.5 632q2.5 -13 3.5 -43t1 -76q0 -45 -1 -75.5t-4 -44.5t-9 -27q-24 -54 -102 -54q-28 0 -48 6.5t-33 19.5q-12 13 -17 33.5t-7 52.5h65q2 -20 4 -29t7 -14q9 -10 29 -10q30 0 41 24q4 10 5.5 26.5t1.5 63.5q-21 -26 -70 -26q-29 0 -50 10.5t-30 31.5q-5 12 -7 26
t-2 52t2 53.5t7 28.5q11 25 37.5 38t64.5 13q39 0 65.5 -14t38.5 -41q5 -12 7.5 -25zM174.5 551.5q0.5 11.5 0.5 33.5t-0.5 33t-3.5 16q-5 9 -14 14t-22 5q-27 0 -35 -19q-3 -5 -4 -16t-1 -34t1 -34.5t4 -17.5q9 -18 34 -18q13 0 23 5.5t15 15.5q2 5 2.5 16.5z" />
    <glyph glyph-name="colon.case" horiz-adv-x="221" 
d="M70 127q-16 15 -16 39q0 25 16 40t40 15q25 0 40.5 -15t15.5 -40t-15.5 -39.5t-40.5 -14.5q-24 0 -40 15zM70 501q-16 15 -16 39q0 25 16 40t40 15q25 0 40.5 -15t15.5 -40t-15.5 -39.5t-40.5 -14.5q-24 0 -40 15z" />
    <glyph glyph-name="semicolon.case" horiz-adv-x="228" 
d="M72 275h84l-58 -313h-67zM77 501q-16 15 -16 39q0 25 16 40t40 15q25 0 40.5 -15t15.5 -40t-15.5 -39.5t-40.5 -14.5q-24 0 -40 15z" />
    <glyph glyph-name="exclamdown.case" horiz-adv-x="219" 
d="M149.5 696.5q15.5 -14.5 15.5 -39.5t-15.5 -40t-40.5 -15t-40.5 15t-15.5 40t15.5 39.5t40.5 14.5t40.5 -14.5zM155 -4h-93l10 522h74z" />
    <glyph glyph-name="questiondown.case" horiz-adv-x="361" 
d="M227 701q16 -15 16 -39q0 -25 -16 -40t-40 -15q-25 0 -40.5 15t-15.5 40t15.5 39.5t40.5 14.5q24 0 40 -15zM156.5 301.5q-21.5 -65.5 -29 -98.5t-7.5 -62q0 -37 13.5 -55.5t47.5 -18.5q43 0 56 31q5 12 6 27t1 70h88q0 -65 -2 -88t-11 -43q-16 -37 -52 -55.5t-89 -18.5
q-75 0 -112.5 38.5t-37.5 109.5q0 30 7.5 63t34 115t68.5 207h95q-55 -156 -76.5 -221.5z" />
    <glyph glyph-name="periodcentered.case" horiz-adv-x="221" 
d="M70 333q-16 15 -16 39q0 25 16 40t40 15q25 0 40.5 -15t15.5 -40t-15.5 -39.5t-40.5 -14.5q-24 0 -40 15z" />
    <glyph glyph-name="periodcentered.loclCAT.case" horiz-adv-x="70" 
d="M-50 351q-16 15 -16 39q0 25 16 40t40 15q25 0 40.5 -15t15.5 -40t-15.5 -39.5t-40.5 -14.5q-24 0 -40 15z" />
    <glyph glyph-name="slash.case" horiz-adv-x="323" 
d="M223 756h85l-198 -806h-85z" />
    <glyph glyph-name="periodcentered.loclCAT" horiz-adv-x="133" 
d="M26 330q-16 15 -16 39q0 25 16 40t40 15q25 0 40.5 -15t15.5 -40t-15.5 -39.5t-40.5 -14.5q-24 0 -40 15z" />
    <glyph glyph-name="parenleft.case" horiz-adv-x="250" 
d="M78 108q-23 109 -23 245q0 137 23 245.5t73 218.5h80q-47 -109 -71 -222t-24 -242t24 -242t71 -222h-81q-49 110 -72 219z" />
    <glyph glyph-name="parenright.case" horiz-adv-x="250" 
d="M20 -111q47 109 70.5 221.5t23.5 242.5t-23.5 242.5t-70.5 221.5h79q50 -110 73.5 -218.5t23.5 -245.5q0 -136 -23 -244.5t-73 -219.5h-80z" />
    <glyph glyph-name="braceleft.case" horiz-adv-x="252" 
d="M152.5 382.5q-13.5 -23.5 -49.5 -29.5q36 -6 49.5 -29.5t13.5 -72.5v-227q0 -36 13 -51.5t47 -15.5h11v-68h-30q-59 0 -87 29.5t-28 90.5v232q0 28 -5.5 42.5t-19 21t-40.5 6.5v84q27 0 41 6.5t19 21.5t5 43v230q0 61 28 91t87 30h30v-68h-11q-34 0 -47 -15.5t-13 -51.5
v-226q0 -50 -13.5 -73.5z" />
    <glyph glyph-name="braceright.case" horiz-adv-x="252" 
d="M166 422.5q5 -14.5 18.5 -21t41.5 -6.5v-84q-27 0 -41 -6.5t-19 -21t-5 -42.5v-232q0 -60 -28 -90t-87 -30h-31v68h11q34 0 47 15.5t13 51.5v227q0 49 13.5 72.5t49.5 29.5q-36 6 -49.5 29.5t-13.5 73.5v226q0 36 -13 51.5t-47 15.5h-11v68h31q59 0 87 -30t28 -91v-230
q0 -29 5 -43.5z" />
    <glyph glyph-name="bracketleft.case" horiz-adv-x="237" 
d="M68 817h153v-72h-74v-783h74v-73h-153v928z" />
    <glyph glyph-name="bracketright.case" horiz-adv-x="237" 
d="M15 -111v73h75v783h-75v72h153v-928h-153z" />
    <glyph glyph-name="hyphen.case" horiz-adv-x="265" 
d="M33 414h196v-83h-196v83z" />
    <glyph glyph-name="uni00AD.case" horiz-adv-x="259" 
d="M33 414h196v-83h-196v83z" />
    <glyph glyph-name="endash.case" horiz-adv-x="328" 
d="M33 413h265v-81h-265v81z" />
    <glyph glyph-name="emdash.case" horiz-adv-x="656" 
d="M33 413h592v-81h-592v81z" />
    <glyph glyph-name="guillemotleft.case" horiz-adv-x="341" 
d="M12 368l93 161h84l-93 -161l93 -160h-84zM151 368l93 161h84l-93 -161l93 -160h-84z" />
    <glyph glyph-name="guillemotright.case" horiz-adv-x="341" 
d="M13 207l93 161l-93 161h84l93 -161l-93 -161h-84zM152 207l94 161l-94 161h84l94 -161l-94 -161h-84z" />
    <glyph glyph-name="guilsinglleft.case" horiz-adv-x="202" 
d="M12 368l93 161h84l-93 -161l93 -160h-84z" />
    <glyph glyph-name="guilsinglright.case" horiz-adv-x="202" 
d="M13 207l93 161l-93 161h84l93 -161l-93 -161h-84z" />
    <glyph glyph-name="cent.ss06" horiz-adv-x="358" 
d="M233.5 197q3.5 10 5.5 30t2 58h91q-1 -51 -4.5 -81t-12 -49t-24.5 -34q-29 -24 -75 -32v-89h-68v90q-38 6 -64.5 25.5t-40.5 50.5q-7 17 -10.5 35.5t-5 52.5t-1.5 100q0 65 1.5 99t5 53t10.5 35q29 64 105 76v89h68v-88q47 -8 75 -33q16 -15 25 -33.5t12.5 -46.5t4.5 -73
h-92q0 33 -2 51t-6 27.5t-11 16.5q-16 14 -39 14q-40 0 -58 -35q-4 -9 -5.5 -21.5t-2.5 -46t-1 -85.5q0 -51 1 -84t3 -45.5t6 -22.5q15 -34 57 -34q25 0 39 13q8 7 11.5 17z" />
    <glyph glyph-name="dollar.ss06" horiz-adv-x="390" 
d="M362 261q3 -23 3 -79q0 -52 -2.5 -73.5t-11.5 -40.5q-15 -32 -46.5 -52t-76.5 -25v-85h-67v85q-90 10 -120 76q-7 15 -10 30t-4.5 41.5t-1.5 79.5h96q0 -63 1.5 -82t6.5 -30q16 -36 67 -36q25 0 42 8.5t24 25.5q5 10 6.5 23.5t1.5 49.5q0 35 -2 51t-8 30q-10 22 -33 36
t-68 32q-45 21 -72 42t-40 49q-9 20 -12.5 46t-3.5 72q0 45 3 65.5t12 40.5q14 32 43 51t71 23v85h67v-85q80 -12 107 -73q6 -14 9.5 -29t4.5 -44.5t1 -72.5h-91q0 57 -1.5 76.5t-6.5 31.5q-15 33 -61 33q-23 0 -38.5 -8.5t-21.5 -24.5q-4 -9 -4.5 -23t-0.5 -42q0 -36 1 -50
t7 -26q7 -14 20.5 -24.5t34.5 -20.5t45 -20q47 -21 75.5 -42t41.5 -50q10 -22 13 -45z" />
    <glyph glyph-name="paragraph.ss07" horiz-adv-x="464" 
d="M192 301h-32q-53 0 -85 15.5t-47 48.5q-8 19 -11 45.5t-3 93.5t3 93t11 44q15 34 48 49.5t88 15.5h295v-76h-43v-800h-77v800h-71v-800h-76v471zM192 378v253h-27q-26 0 -41 -7t-22 -23q-5 -10 -6.5 -27.5t-1.5 -69.5q0 -50 2 -68t7 -29q7 -16 21.5 -22.5t39.5 -6.5h28z
" />
    <glyph glyph-name="caroncomb.alt" 
d="M-62 706h68l-24 -148h-60z" />
    <glyph glyph-name="uni0335.Eth" 
d="M-219 413h219v-81h-219v81z" />
    <glyph glyph-name="uni0335.Tbar" 
d="M-296 373h246v-76h-246v76z" />
    <glyph glyph-name="caron.alt" horiz-adv-x="184" 
d="M66 706h68l-24 -148h-60z" />
    <glyph glyph-name="uni0308.case" 
d="M-288 772q-14 13 -14 34q0 22 14 35.5t36 13.5q21 0 35 -13.5t14 -35.5q0 -21 -14 -34t-35 -13q-22 0 -36 13zM-135 772q-14 13 -14 34q0 22 14 35.5t36 13.5q21 0 35 -13.5t14 -35.5q0 -21 -14 -34t-35 -13q-22 0 -36 13z" />
    <glyph glyph-name="uni0307.case" 
d="M-136.5 772.5q-14.5 13.5 -14.5 36.5q0 22 14.5 35t36.5 13t36 -13t14 -35q0 -23 -14 -36.5t-36 -13.5t-36.5 13.5z" />
    <glyph glyph-name="gravecomb.case" 
d="M-134 750l-88 109h95l77 -109h-84z" />
    <glyph glyph-name="acutecomb.case" 
d="M-145 859h95l-88 -109h-84z" />
    <glyph glyph-name="uni030B.case" 
d="M-249 859h78l-80 -109h-66zM-130 859h80l-80 -109h-67z" />
    <glyph glyph-name="uni0302.case" 
d="M-232 859h105l77 -109h-84l-45 66l-47 -66h-82z" />
    <glyph glyph-name="uni030C.case" 
d="M-126 749h-105l-77 109h84l45 -66l47 66h82z" />
    <glyph glyph-name="uni0306.case" 
d="M-252 772.5q-29 27.5 -30 86.5h64q1 -32 14 -46t38 -14q26 0 38 14t14 46h64q-1 -59 -30.5 -86.5t-85.5 -27.5q-57 0 -86 27.5z" />
    <glyph glyph-name="uni030A.case" 
d="M-210.5 755q-25.5 24 -25.5 63t25.5 62.5t66.5 23.5q42 0 68 -24t26 -62q0 -39 -26 -63t-68 -24q-41 0 -66.5 24zM-113.5 789q11.5 11 11.5 29t-11.5 29t-30.5 11q-18 0 -29 -11.5t-11 -28.5q0 -18 11 -29t29 -11q19 0 30.5 11z" />
    <glyph glyph-name="tildecomb.case" 
d="M-170.5 754q-17.5 9 -33.5 25q-2 2 -9 8.5t-13.5 9.5t-13.5 3q-14 0 -19.5 -13t-7.5 -40h-55q1 58 20 86.5t61 28.5q24 0 40 -9t33 -26q14 -12 20.5 -16t15.5 -4q14 0 19 12.5t6 40.5h57q-2 -58 -20.5 -86.5t-59.5 -28.5q-23 0 -40.5 9z" />
    <glyph glyph-name="uni0304.case" 
d="M-282 837h232v-63h-232v63z" />
    <glyph glyph-name="uni0337.case" 
d="M0 511v-89l-134 -93v14l-85 -58v87l85 59v-15z" />
    <glyph glyph-name="uni0338.case" 
d="M-398 150l5 -1l230 451l6 -6l67 112h50l-96 -157l-5 3l-230 -450l-6 1l-60 -103h-52z" />
    <glyph glyph-name="uni0308.narrow.case" 
d="M-250.5 770.5q-13.5 13.5 -13.5 34.5q0 22 13 35.5t34 13.5t34 -13.5t13 -35.5q0 -21 -13.5 -34.5t-33.5 -13.5t-33.5 13.5zM-131 770.5q-13 13.5 -13 34.5q0 22 13 35t34 13q20 0 33.5 -13t13.5 -35q0 -21 -13.5 -34.5t-33.5 -13.5q-21 0 -34 13.5z" />
    <glyph glyph-name="uni0302.narrow.case" 
d="M-208 859h99l59 -109h-74l-34 64l-35 -64h-75z" />
    <glyph glyph-name="uni0306.narrow.case" 
d="M-225.5 772q-24.5 27 -24.5 87h61q1 -34 9.5 -47t30.5 -13q20 0 28.5 13t9.5 47h61q0 -60 -24 -87t-75 -27q-52 0 -76.5 27z" />
    <glyph glyph-name="tildecomb.narrow.case" 
d="M-152 755.5q-14 8.5 -26 24.5q-9 11 -14.5 15.5t-12.5 4.5q-11 0 -14.5 -11.5t-4.5 -38.5h-50q1 57 16.5 84t50.5 27q22 0 35.5 -8t26.5 -24q9 -11 14.5 -16t11.5 -5q10 0 13.5 11t4.5 41h51q-1 -59 -16.5 -86t-49.5 -27q-22 0 -36 8.5z" />
    <glyph glyph-name="uni0304.narrow.case" 
d="M-231 836h181v-63h-181v63z" />
    <glyph glyph-name="uni0335.dh" 
d="M-253 356h253v-62h-253v62z" />
    <glyph glyph-name="uni0307.i" 
d="M-141 597q-15 14 -15 37t15 36.5t39 13.5q23 0 37.5 -13.5t14.5 -36.5t-14.5 -37t-37.5 -14q-24 0 -39 14z" />
    <glyph glyph-name="uni0308.narrow" 
d="M-243 593.5q-13 13.5 -13 35.5t13 35.5t33 13.5q21 0 34 -13.5t13 -35.5t-13 -35.5t-34 -13.5q-20 0 -33 13.5zM-130 593.5q-13 13.5 -13 35.5t13 35.5t34 13.5q20 0 33 -13.5t13 -35.5t-13 -35.5t-33 -13.5q-21 0 -34 13.5z" />
    <glyph glyph-name="gravecomb.narrow" 
d="M-128 569l-71 137h88l61 -137h-78z" />
    <glyph glyph-name="acutecomb.narrow" 
d="M-138 706h88l-71 -137h-78z" />
    <glyph glyph-name="uni0302.narrow" 
d="M-206 706h94l62 -137h-72l-36 86l-40 -86h-71z" />
    <glyph glyph-name="uni030C.narrow" 
d="M-202 706l40 -86l36 86h72l-62 -137h-94l-63 137h71z" />
    <glyph glyph-name="uni0306.narrow" 
d="M-226.5 598q-24.5 33 -24.5 108h61q0 -34 4 -52t12.5 -25t23.5 -7t23.5 7t12 25t3.5 52h61q0 -75 -24 -108t-76 -33t-76.5 33z" />
    <glyph glyph-name="tildecomb.narrow" 
d="M-145 574.5q-12 7.5 -17.5 17t-13.5 26.5q-4 13 -8.5 20t-9.5 7q-6 0 -9 -7.5t-4 -25.5t-1 -42h-53q0 50 5 79.5t19.5 44.5t40.5 15q18 0 30 -7.5t17.5 -17t13.5 -26.5q4 -13 8.5 -20t9.5 -7q6 0 9 7.5t4 25.5t1 42h53q0 -50 -5 -79.5t-19.5 -44.5t-40.5 -15
q-18 0 -30 7.5z" />
    <glyph glyph-name="uni0304.narrow" 
d="M-225 663h175v-66h-175v66z" />
    <glyph glyph-name="uni0328.narrow" 
d="M-156.5 -161.5q-22.5 17.5 -22.5 50.5t14.5 59t44.5 56l62 -4q-26 -31 -37.5 -52t-11.5 -44q0 -26 29 -26q12 0 28 7v-55q-21 -9 -45 -9q-39 0 -61.5 17.5z" />
    <glyph glyph-name="uni0338.ss04" 
d="M-130 488l42 76l66 -33l-73 -122zM-346 -12l70 118l36 -81l-41 -72z" />
    <glyph glyph-name="uni0338.case.ss04" 
d="M-131 671l54 87l70 -39l-86 -134zM-438 -11l91 139l39 -84l-61 -96z" />
    </font>
</defs>
</svg>
