<?xml version="1.0" standalone="no"?>
<!DOCTYPE svg PUBLIC "-//W3C//DTD SVG 1.1//EN" "http://www.w3.org/Graphics/SVG/1.1/DTD/svg11.dtd" >
<svg xmlns="http://www.w3.org/2000/svg" xmlns:xlink="http://www.w3.org/1999/xlink" version="1.1">
<metadata>
Created by FontForge 20170731 at Mon Apr  9 23:07:39 2018
 By Aleksey,,,
Copyright (c) 2018 Monotype Imaging Inc. All rights reserved.
</metadata>
<defs>
<font id="NeuePlak-CondBold" horiz-adv-x="0" >
  <font-face 
    font-family="Neue Plak Condensed Bold"
    font-weight="400"
    font-stretch="condensed"
    units-per-em="1000"
    panose-1="2 11 8 6 3 2 2 2 2 4"
    ascent="799"
    descent="-201"
    x-height="520"
    cap-height="706"
    bbox="-506 -185 796 1065"
    underline-thickness="50"
    underline-position="-200"
    unicode-range="U+000D-FEFF"
  />
<missing-glyph horiz-adv-x="429" 
d="M30 706h368v-706h-368v706zM282 105v496h-136v-496h136z" />
    <glyph glyph-name=".notdef" horiz-adv-x="429" 
d="M30 706h368v-706h-368v706zM282 105v496h-136v-496h136z" />
    <glyph glyph-name=".null" 
 />
    <glyph glyph-name="nonmarkingreturn" horiz-adv-x="333" 
 />
    <glyph glyph-name="NULL" 
 />
    <glyph glyph-name="NULL" 
 />
    <glyph glyph-name="CR" unicode="&#xd;" horiz-adv-x="127" 
 />
    <glyph glyph-name="space" unicode=" " horiz-adv-x="127" 
 />
    <glyph glyph-name="exclam" unicode="!" horiz-adv-x="233" 
d="M58 706h117l-13 -513h-91zM68.5 7.5q-18.5 17.5 -18.5 46.5q0 30 18.5 48t48.5 18t48 -18t18 -48q0 -29 -18.5 -46.5t-47.5 -17.5q-30 0 -48.5 17.5z" />
    <glyph glyph-name="quotedbl" unicode="&#x22;" horiz-adv-x="351" 
d="M48 706h107l-13 -260h-81zM196 706h107l-13 -260h-81z" />
    <glyph glyph-name="numbersign" unicode="#" horiz-adv-x="485" 
d="M386 426l-17 -147h76l-13 -98h-74l-22 -193h-94l22 193h-83l-22 -193h-94l22 193h-75l12 98h74l17 147h-75l12 99h75l22 193h94l-22 -193h82l22 193h95l-22 -193h75l-12 -99h-75zM292 426h-83l-17 -147h83z" />
    <glyph glyph-name="dollar" unicode="$" horiz-adv-x="405" 
d="M382.5 263q3.5 -25 3.5 -76q0 -49 -3 -71.5t-12 -43.5q-17 -38 -55 -59t-93 -24v-65h-43v65q-111 6 -146 82q-6 15 -9.5 29t-4.5 43.5t-1 72.5h120q0 -57 1 -74t5 -27q12 -23 38 -29v223q-9 3 -27 11q-49 23 -75.5 43t-39.5 48q-9 22 -12.5 47.5t-3.5 70.5q0 44 3 65.5
t13 41.5q16 36 51.5 57t87.5 24v65h43v-65q52 -3 86.5 -23t51.5 -56q6 -14 9 -28t4 -42.5t1 -70.5h-113q0 54 -1 70.5t-5 25.5q-10 21 -36 28v-204l28 -12q51 -23 79.5 -44.5t41.5 -50.5q10 -22 13.5 -47zM161 449q9 -8 23 -16v189q-30 -4 -42 -29q-3 -7 -3.5 -19t-0.5 -37
q0 -30 2 -44t7 -25t14 -19zM268 135.5q1 14.5 1 44.5q0 31 -2 46.5t-7 27.5q-9 21 -41 38v-207q34 4 45 28q3 8 4 22.5z" />
    <glyph glyph-name="percent" unicode="%" horiz-adv-x="477" 
d="M28 458q-7 16 -9.5 35.5t-2.5 67.5q0 49 2.5 68.5t9.5 34.5q21 48 88 48t88 -48q7 -15 9.5 -34.5t2.5 -68.5q0 -48 -2.5 -67.5t-9.5 -35.5q-21 -47 -88 -47t-88 47zM363 706h68l-317 -706h-68zM140 489q2 6 3 21.5t1 50.5q0 34 -1 50.5t-3 22.5q-6 13 -24 13
q-17 0 -24 -13q-2 -6 -3 -22.5t-1 -50.5q0 -35 1 -51t3 -22q7 -12 24 -12q18 0 24 13zM273 42q-7 15 -9 34.5t-2 69.5t2 69t9 34q23 47 89 47q32 0 54.5 -12t32.5 -35q7 -16 9.5 -35.5t2.5 -67.5t-2.5 -68t-9.5 -36q-10 -23 -32.5 -35t-54.5 -12q-66 0 -89 47zM377 63.5
q6 3.5 8 9.5q3 5 3.5 21.5t0.5 51.5q0 34 -1 50t-3 22q-6 13 -23 13t-24 -13q-3 -5 -3.5 -21.5t-0.5 -50.5q0 -35 1 -51t3 -22q5 -13 24 -13q9 0 15 3.5z" />
    <glyph glyph-name="ampersand" unicode="&#x26;" horiz-adv-x="463" 
d="M446 0q-72 0 -120 36q-52 -45 -134 -45q-86 0 -128.5 44t-42.5 122q0 66 30 119t84 107q-29 64 -42.5 111t-13.5 86q0 63 38 100.5t114 37.5q67 0 107 -32t40 -98q0 -39 -17.5 -75.5t-42 -66.5t-66.5 -75l73 -166q14 45 25 114l86 -16q-15 -111 -48 -182q26 -14 58 -16
v-105zM195 622.5q-12 -14.5 -12 -42.5q0 -21 7 -48.5t23 -68.5q29 33 45 63t16 63q0 23 -11 35.5t-32 12.5q-24 0 -36 -14.5zM156 108.5q20 -22.5 55 -22.5q30 0 55 20q-6 10 -17 32l-69 148q-44 -61 -44 -115q0 -40 20 -62.5z" />
    <glyph glyph-name="quotesingle" unicode="'" horiz-adv-x="203" 
d="M48 706h107l-13 -260h-81z" />
    <glyph glyph-name="parenleft" unicode="(" horiz-adv-x="253" 
d="M70 49.5q-23 108.5 -23 246.5q0 137 23 245.5t73 220.5h95q-45 -111 -68 -224.5t-23 -241.5t23 -242t68 -224h-95q-50 111 -73 219.5z" />
    <glyph glyph-name="parenright" unicode=")" horiz-adv-x="253" 
d="M15 -170q45 110 68 224t23 242t-23 241.5t-68 224.5h95q50 -112 73 -220.5t23 -245.5q0 -138 -23 -246.5t-73 -219.5h-95z" />
    <glyph glyph-name="asterisk" unicode="*" horiz-adv-x="331" 
d="M57 497l67 67l-94 14l26 78l84 -43l-15 93h81l-15 -93l84 43l25 -78l-94 -14l67 -67l-66 -48l-42 85l-42 -85z" />
    <glyph glyph-name="plus" unicode="+" horiz-adv-x="388" 
d="M358 261h-120v-122h-87v122h-120v85h120v123h87v-123h120v-85z" />
    <glyph glyph-name="comma" unicode="," horiz-adv-x="211" 
d="M68 157h103l-63 -317h-82z" />
    <glyph glyph-name="hyphen" unicode="-" horiz-adv-x="264" 
d="M31 354h203v-100h-203v100z" />
    <glyph glyph-name="period" unicode="." horiz-adv-x="235" 
d="M69.5 7.5q-18.5 17.5 -18.5 46.5q0 30 18.5 48t48.5 18q29 0 47 -18t18 -48q0 -29 -18 -46.5t-47 -17.5q-30 0 -48.5 17.5z" />
    <glyph glyph-name="slash" unicode="/" horiz-adv-x="344" 
d="M217 718h106l-196 -768h-105z" />
    <glyph glyph-name="zero" unicode="0" horiz-adv-x="430" 
d="M53 83q-10 23 -15 51t-7 77.5t-2 141.5t2 141.5t7 77.5t15 51q43 95 162 95t161 -95q10 -23 15.5 -51t7.5 -77.5t2 -141.5t-2 -141.5t-7.5 -77.5t-15.5 -51q-42 -95 -161 -95t-162 95zM250.5 102.5q13.5 8.5 21.5 25.5q5 11 7 29t2.5 68.5t0.5 127.5t-0.5 127.5
t-2.5 68.5t-7 29q-8 17 -21.5 25.5t-35.5 8.5q-43 0 -57 -34q-5 -11 -7 -29t-3 -68.5t-1 -127.5t1 -127t3 -68.5t7 -29.5q14 -34 57 -34q22 0 35.5 8.5z" />
    <glyph glyph-name="one" unicode="1" horiz-adv-x="242" 
d="M86 598h-76l19 108h171v-706h-114v598z" />
    <glyph glyph-name="two" unicode="2" horiz-adv-x="376" 
d="M15 3l174 347q23 48 32.5 70.5t14 44.5t4.5 52q0 35 -1.5 47t-4.5 21q-6 14 -18.5 21t-30.5 7q-20 0 -32.5 -7.5t-19.5 -22.5q-4 -10 -5.5 -30.5t-1.5 -70.5h-110q0 68 3.5 99.5t14.5 56.5q18 40 57 60t96 20q58 0 97 -21.5t58 -62.5q8 -19 11 -42t3 -64q0 -54 -11.5 -98
t-39.5 -98q-45 -97 -112 -227h165v-105h-343v3z" />
    <glyph glyph-name="three" unicode="3" horiz-adv-x="394" 
d="M365 286.5q2 -20.5 2 -76.5q0 -43 -1 -71.5t-4 -42t-9 -27.5q-18 -40 -57 -60.5t-103 -20.5q-123 0 -157 80q-11 24 -14.5 56.5t-3.5 106.5h109q-1 -54 1 -76t7 -33q6 -15 20 -23t35 -8q43 0 56 30q3 9 4.5 26.5t1.5 65.5q0 42 -1.5 56.5t-6.5 24.5q-9 18 -28 25.5
t-52 7.5h-17v94h18q31 0 49.5 8t26.5 25q4 8 5 19.5t1 46.5q0 31 -1 47t-4 24q-12 28 -52 28q-39 0 -53 -30q-3 -9 -4.5 -28.5t-1.5 -63.5h-108q0 60 3 90t12 51q19 42 60 61t98 19q60 0 97.5 -20.5t53.5 -57.5q9 -19 11.5 -40t2.5 -76q0 -44 -2.5 -62t-8.5 -32
q-17 -39 -65 -53q52 -13 70 -54q8 -16 10 -36.5z" />
    <glyph glyph-name="four" unicode="4" horiz-adv-x="431" 
d="M422 155h-59v-155h-114v155h-253v2l158 549h209v-446h59v-105zM249 260v397h-1l-107 -397h108z" />
    <glyph glyph-name="five" unicode="5" horiz-adv-x="384" 
d="M35 69q-10 23 -13.5 55.5t-3.5 101.5h109q0 -54 1.5 -74t6.5 -31q14 -31 53 -31q40 0 55 31q4 10 5 27t1 75q0 55 -2 76t-7 34q-11 23 -36.5 33t-66.5 10q-23 0 -50.5 -2.5t-51.5 -6.5l37 339h281l-18 -106h-166l-15 -139q30 5 54 5q52 0 88 -19.5t53 -57.5
q9 -21 12.5 -51.5t3.5 -107.5q0 -55 -1.5 -84t-4.5 -45.5t-10 -30.5q-37 -82 -157 -82q-119 0 -157 81z" />
    <glyph glyph-name="six" unicode="6" horiz-adv-x="422" 
d="M392 357.5q3 -14.5 4.5 -43t1.5 -80.5q0 -55 -1.5 -82.5t-5 -43t-10.5 -32.5q-19 -43 -60.5 -65.5t-102.5 -22.5q-122 0 -166 98q-10 22 -15 48.5t-7 75.5t-2 140q0 89 2 138.5t7.5 78.5t15.5 53q22 49 63 73.5t102 24.5q84 0 128 -44q24 -24 33.5 -63.5t11.5 -106.5
h-109q-2 47 -5.5 68t-12.5 30q-16 17 -46 17q-24 0 -39.5 -10t-24.5 -30q-8 -18 -10.5 -52.5t-2.5 -126.5q18 27 48 41.5t70 14.5q45 0 77 -18t47 -52q6 -14 9 -28.5zM281.5 152q1.5 18 1.5 74q0 58 -1.5 76t-5.5 29q-8 17 -22.5 26t-35.5 9q-23 0 -38.5 -10t-23.5 -27
q-4 -11 -6 -30t-2 -73q0 -52 2 -70.5t7 -30.5q16 -36 60 -36t59 35q4 10 5.5 28z" />
    <glyph glyph-name="seven" unicode="7" horiz-adv-x="353" 
d="M202 598h-185v108h332l-174 -706h-122z" />
    <glyph glyph-name="eight" unicode="8" horiz-adv-x="415" 
d="M385.5 290q2.5 -26 2.5 -88q0 -63 -2.5 -88t-10.5 -43q-18 -40 -60.5 -61.5t-106.5 -21.5q-65 0 -107.5 21.5t-60.5 61.5q-8 18 -10.5 43t-2.5 88q0 64 2.5 89t10.5 42q20 44 73 57q-50 15 -68 56q-7 14 -9 33.5t-2 64.5q0 42 2.5 61.5t9.5 35.5q17 38 58.5 57.5
t103.5 19.5q61 0 102.5 -19.5t58.5 -57.5q7 -16 9.5 -35.5t2.5 -61.5q0 -45 -2 -64.5t-8 -33.5q-9 -20 -27 -34t-42 -21q28 -7 45.5 -21t27.5 -36q8 -18 10.5 -44zM149.5 573.5q-0.5 -15.5 -0.5 -45.5q0 -31 0.5 -47t4.5 -24q13 -28 54 -28q40 0 53 28q3 9 4.5 22.5
t1.5 48.5t-1.5 47.5t-5.5 21.5q-12 28 -52 28t-54 -28q-4 -8 -4.5 -23.5zM270 142.5q1 15.5 1 68.5q0 54 -1 70t-5 24q-7 15 -21.5 23.5t-35.5 8.5q-44 0 -58 -32q-4 -8 -5 -24t-1 -69t1 -69t5 -24q15 -32 57 -32q44 0 58 32q4 8 5 23.5z" />
    <glyph glyph-name="nine" unicode="9" horiz-adv-x="421" 
d="M384 572.5q5 -26.5 7 -75.5t2 -140t-2 -140t-7 -77.5t-16 -52.5q-22 -49 -63 -73.5t-102 -24.5q-82 0 -128 44q-24 24 -33.5 63t-11.5 107h109q1 -46 5.5 -67.5t12.5 -30.5q16 -17 47 -17q46 0 63 40q8 18 10.5 52.5t2.5 126.5q-18 -27 -48 -41.5t-69 -14.5q-46 0 -78 18
t-47 52q-6 14 -9 28.5t-4.5 43t-1.5 80.5q0 55 1.5 82.5t5 43t10.5 32.5q19 43 60.5 65.5t102.5 22.5q62 0 103 -24.5t63 -73.5q10 -22 15 -48.5zM271 408q2 19 2 73q0 51 -2 70t-6 31q-17 36 -61 36t-59 -35q-4 -10 -5.5 -28.5t-1.5 -74.5q0 -57 1.5 -75t5.5 -29
q8 -17 22.5 -26t35.5 -9q23 0 38.5 10t23.5 27q4 11 6 30z" />
    <glyph glyph-name="colon" unicode=":" horiz-adv-x="235" 
d="M69.5 7.5q-18.5 17.5 -18.5 46.5q0 30 18.5 48t48.5 18q29 0 47 -18t18 -48q0 -29 -18 -46.5t-47 -17.5q-30 0 -48.5 17.5zM69.5 371.5q-18.5 17.5 -18.5 46.5q0 30 18.5 48t48.5 18q29 0 47 -18t18 -48q0 -29 -18 -46.5t-47 -17.5q-30 0 -48.5 17.5z" />
    <glyph glyph-name="semicolon" unicode=";" horiz-adv-x="239" 
d="M68 157h103l-63 -317h-82zM73.5 371.5q-18.5 17.5 -18.5 46.5q0 30 18.5 48t48.5 18q29 0 47 -18t18 -48q0 -29 -18 -46.5t-47 -17.5q-30 0 -48.5 17.5z" />
    <glyph glyph-name="less" unicode="&#x3c;" horiz-adv-x="388" 
d="M361 381l-242 -77l242 -77v-88l-327 107v116l327 107v-88z" />
    <glyph glyph-name="equal" unicode="=" horiz-adv-x="388" 
d="M31 428h327v-86h-327v86zM31 266h327v-86h-327v86z" />
    <glyph glyph-name="greater" unicode="&#x3e;" horiz-adv-x="388" 
d="M358 362v-116l-327 -107v88l242 77l-242 77v88z" />
    <glyph glyph-name="question" unicode="?" horiz-adv-x="381" 
d="M196 393q27 79 34.5 110.5t7.5 59.5q0 31 -10.5 45.5t-38.5 14.5q-18 0 -29 -6t-17 -20q-4 -9 -4.5 -28t-0.5 -57h-111q0 62 2 84.5t11 42.5q18 39 57 59t95 20q79 0 120.5 -39.5t41.5 -111.5q0 -27 -6.5 -56.5t-29.5 -100t-60 -177.5l-14 -40h-119q44 121 71 200z
M134.5 7.5q-18.5 17.5 -18.5 46.5q0 30 18.5 48t47.5 18q30 0 48 -18t18 -48q0 -29 -18.5 -46.5t-47.5 -17.5t-47.5 17.5z" />
    <glyph glyph-name="at" unicode="@" horiz-adv-x="540" 
d="M508.5 477.5q5.5 -53.5 5.5 -154.5q0 -83 -4 -125.5t-16 -68.5q-18 -39 -50 -56.5t-89 -17.5h-42v41q-15 -21 -38 -32.5t-51 -11.5q-30 0 -50.5 11.5t-30.5 32.5q-6 14 -8 31.5t-2 58.5q0 47 1.5 64.5t8.5 31.5q12 28 41.5 41.5t88.5 13.5h37v12q0 44 -0.5 64.5
t-4.5 28.5q-7 16 -35 16q-25 0 -34 -17q-3 -6 -3.5 -20.5t-0.5 -39.5h-90q0 34 2.5 56t9.5 37q25 56 119 56q47 0 74.5 -13t39.5 -38q8 -18 10.5 -44.5t2.5 -80.5v-243q19 4 31 14.5t20 27.5t10.5 54t2.5 114q0 98 -4.5 147.5t-18.5 80.5q-20 44 -62 67.5t-106 23.5
q-66 0 -107.5 -24.5t-62.5 -72.5q-15 -34 -21 -87t-6 -150q0 -106 5.5 -166.5t21.5 -95.5q43 -97 187 -97q25 0 73 4v-46q-40 -5 -74 -5q-90 0 -147 31t-86 93q-17 38 -23.5 103t-6.5 177q0 102 7.5 160.5t25.5 98.5q53 121 215 121q161 0 212 -115q17 -38 22.5 -91.5z
M311 275h-28q-22 0 -34 -4.5t-18 -15.5q-3 -7 -3.5 -17.5t-0.5 -30.5q0 -23 0.5 -36.5t3.5 -19.5q4 -9 12 -12.5t21 -3.5q15 0 25 5.5t15 16.5q5 10 6 27.5t1 79.5v11z" />
    <glyph glyph-name="A" unicode="A" horiz-adv-x="430" 
d="M293 127h-156l-20 -127h-117l125 706h180l124 -706h-116zM277 227l-61 385h-2l-61 -385h124z" />
    <glyph glyph-name="B" unicode="B" horiz-adv-x="405" 
d="M378.5 281.5q2.5 -20.5 2.5 -77.5q0 -67 -2.5 -91.5t-9.5 -41.5q-16 -36 -52 -53.5t-91 -17.5h-191v706h190q104 0 133 -66q8 -16 10.5 -36.5t2.5 -73.5q0 -47 -2 -64.5t-9 -32.5q-9 -20 -28 -33.5t-51 -20.5q36 -8 57 -23.5t31 -37.5q7 -16 9.5 -36.5zM151 421h35
q47 0 60 30q3 8 4.5 21t1.5 49q0 34 -1 45t-5 19q-6 15 -20.5 21.5t-38.5 6.5h-36v-192zM258.5 148q1.5 16 1.5 63q0 46 -1.5 60.5t-4.5 23.5q-13 31 -68 31h-35v-233h36q26 0 43 8t24 23q3 8 4.5 24z" />
    <glyph glyph-name="C" unicode="C" horiz-adv-x="445" 
d="M50 94q-10 22 -15 48.5t-7 74.5t-2 136t2 136t7 74.5t15 48.5q48 105 179 105q82 0 134 -46q32 -29 44.5 -72.5t13.5 -120.5h-120q0 39 -2.5 61.5t-7 34t-13.5 19.5q-10 9 -22.5 13.5t-29.5 4.5q-49 0 -68 -42q-5 -12 -7.5 -29.5t-3.5 -65t-1 -121.5t1 -121.5t3.5 -65
t7.5 -29.5q18 -42 69 -42q32 0 52 18q9 8 13.5 19t7 34t2.5 63h120q-1 -77 -14 -121.5t-44 -72.5q-23 -23 -57 -34.5t-77 -11.5q-133 0 -180 105z" />
    <glyph glyph-name="D" unicode="D" horiz-adv-x="440" 
d="M35 706h173q69 0 115 -26t68 -76q10 -21 14.5 -44.5t6.5 -70t2 -136.5t-2 -136.5t-6.5 -70t-14.5 -44.5q-22 -50 -68 -76t-115 -26h-173v706zM196 103q34 0 54.5 11.5t31.5 34.5q5 12 7.5 27.5t3.5 60t1 114.5q0 72 -1 117t-3.5 61t-7.5 28q-11 23 -31.5 34.5t-54.5 11.5
h-45v-500h45z" />
    <glyph glyph-name="E" unicode="E" horiz-adv-x="327" 
d="M35 706h272v-105h-156v-176h153v-104h-153v-216h156v-105h-272v706z" />
    <glyph glyph-name="F" unicode="F" horiz-adv-x="297" 
d="M35 706h245v-105h-129v-176h127v-105h-127v-320h-116v706z" />
    <glyph glyph-name="G" unicode="G" horiz-adv-x="449" 
d="M423 365v-48q0 -76 -2 -118t-7 -66t-15 -45q-23 -50 -65 -74.5t-105 -24.5q-131 0 -179 106q-10 22 -15 48t-7 73.5t-2 136.5t2 136.5t7 73.5t15 48q48 106 180 106q83 0 133 -44q31 -29 43 -71t13 -118h-116q-1 52 -5.5 75.5t-17.5 35.5q-19 17 -52 17q-25 0 -43 -11
t-27 -32q-5 -12 -7.5 -29t-3.5 -65t-1 -122q0 -75 1 -122t3.5 -64.5t7.5 -29.5q18 -43 73 -43q50 0 68 39q4 8 5.5 18.5t2 39.5t0.5 74h-76v100h192z" />
    <glyph glyph-name="H" unicode="H" horiz-adv-x="438" 
d="M35 706h116v-281h136v281h116v-706h-116v320h-136v-320h-116v706z" />
    <glyph glyph-name="I" unicode="I" horiz-adv-x="186" 
d="M35 706h116v-706h-116v706z" />
    <glyph glyph-name="J" unicode="J" horiz-adv-x="226" 
d="M5 0v109q14 -2 22 -2q29 0 40.5 14.5t11.5 49.5v535h116v-556q0 -79 -34 -115.5t-110 -36.5q-14 0 -46 2z" />
    <glyph glyph-name="K" unicode="K" horiz-adv-x="420" 
d="M291 0l-140 333v-333h-116v706h116v-279l120 279h126l-142 -323l165 -383h-129z" />
    <glyph glyph-name="L" unicode="L" horiz-adv-x="266" 
d="M35 706h116v-600h110v-106h-226v706z" />
    <glyph glyph-name="M" unicode="M" horiz-adv-x="576" 
d="M35 706h147l106 -459l108 459h145v-706h-111v475l-107 -475h-70l-108 475v-475h-110v706z" />
    <glyph glyph-name="N" unicode="N" horiz-adv-x="465" 
d="M35 706h115l168 -442v442h112v-706h-113l-170 454v-454h-112v706z" />
    <glyph glyph-name="O" unicode="O" horiz-adv-x="458" 
d="M126.5 10.5q-42.5 22.5 -65.5 66.5q-14 23 -21 52.5t-10.5 81t-3.5 142.5q0 87 2.5 135t7.5 75t15 50q23 51 67.5 78t110.5 27t110.5 -27t67.5 -78q10 -23 15 -50t7.5 -75t2.5 -135t-2.5 -135t-7.5 -75t-15 -50q-23 -51 -67.5 -78t-110.5 -27q-60 0 -102.5 22.5zM300 140
q5 12 7.5 29t3.5 64t1 120t-1 120t-3.5 64t-7.5 29q-19 44 -71 44t-71 -44q-5 -12 -7.5 -29t-3.5 -64t-1 -120t1 -120t3.5 -64t7.5 -29q19 -44 71 -44t71 44z" />
    <glyph glyph-name="P" unicode="P" horiz-adv-x="390" 
d="M35 706h190q55 0 89 -16t50 -51q9 -18 11.5 -42.5t2.5 -85.5q0 -59 -2.5 -83t-11.5 -42q-16 -35 -50 -51.5t-89 -16.5h-74v-318h-116v706zM193 415q24 0 39 6.5t22 20.5q4 8 5 20.5t1 50.5q0 39 -1 51t-5 20q-7 14 -22 20.5t-39 6.5h-42v-196h42z" />
    <glyph glyph-name="Q" unicode="Q" horiz-adv-x="458" 
d="M336 13l56 -116l-99 -43l-59 134h-5q-60 0 -102.5 22.5t-65.5 66.5q-14 23 -21 52.5t-10.5 81t-3.5 142.5q0 87 2.5 135t7.5 75t15 50q23 51 67.5 78t110.5 27t110.5 -27t67.5 -78q10 -23 15 -50t7.5 -75t2.5 -135t-2.5 -135t-7.5 -75t-15 -50q-25 -54 -71 -80zM229 96
q52 0 71 44q5 12 7.5 29t3.5 64t1 120t-1 120t-3.5 64t-7.5 29q-19 44 -71 44t-71 -44q-5 -12 -7.5 -29t-3.5 -64t-1 -120t1 -120t3.5 -64t7.5 -29q19 -44 71 -44z" />
    <glyph glyph-name="R" unicode="R" horiz-adv-x="410" 
d="M362 334.5q13 -24.5 13 -64.5v-270h-116v265q0 29 -13 41t-43 12h-52v-318h-116v706h192q57 0 91 -15.5t50 -50.5q8 -18 10.5 -41.5t2.5 -76.5q0 -52 -2 -71t-9 -33q-14 -32 -53 -48q32 -11 45 -35.5zM236 422.5q14 6.5 21 20.5q4 8 5 20.5t1 52.5q0 35 -1 46t-5 19
q-7 15 -22 21t-39 6h-45v-192h48q23 0 37 6.5z" />
    <glyph glyph-name="S" unicode="S" horiz-adv-x="398" 
d="M92 9.5q-41 21.5 -59 61.5q-7 14 -10 28.5t-4.5 40.5t-1.5 76h123q0 -56 1 -72.5t5 -25.5q14 -30 54 -30q20 0 34 7t20 21q3 8 4 22t1 42q0 31 -2 45.5t-7 26.5q-8 19 -27 31t-42 22t-30 13q-44 21 -71 42.5t-40 50.5q-10 20 -13 45.5t-3 73.5q0 44 3 65.5t12 41.5
q18 39 58 60t99 21q119 0 155 -80q6 -15 9.5 -28.5t4.5 -42.5t1 -71h-117q0 54 -1 71t-5 26q-12 27 -49 27q-19 0 -31.5 -7t-17.5 -20q-2 -8 -3 -20t-1 -37q0 -30 1.5 -43t6.5 -25q6 -13 18.5 -22.5t33.5 -19t44 -18.5q50 -23 78.5 -44t41.5 -51q10 -22 13 -46t3 -80
q0 -51 -2.5 -72.5t-12.5 -42.5q-19 -41 -62 -62.5t-106 -21.5q-65 0 -106 21.5z" />
    <glyph glyph-name="T" unicode="T" horiz-adv-x="308" 
d="M96 601h-91v105h298v-105h-91v-601h-116v601z" />
    <glyph glyph-name="U" unicode="U" horiz-adv-x="425" 
d="M74 31q-43 43 -43 134v541h116v-537q0 -38 15.5 -56.5t49.5 -18.5q35 0 50.5 18.5t15.5 56.5v537h116v-541q0 -90 -43 -133.5t-139 -43.5q-95 0 -138 43z" />
    <glyph glyph-name="V" unicode="V" horiz-adv-x="413" 
d="M413 706l-147 -706h-118l-148 706h117l90 -522l90 522h116z" />
    <glyph glyph-name="W" unicode="W" horiz-adv-x="624" 
d="M624 706l-119 -706h-122l-71 479l-71 -479h-121l-120 706h113l72 -500l69 500h117l68 -496l72 496h113z" />
    <glyph glyph-name="X" unicode="X" horiz-adv-x="440" 
d="M142 373l-127 333h123l82 -250l83 250h123l-127 -334l140 -372h-123l-96 286l-96 -286h-124z" />
    <glyph glyph-name="Y" unicode="Y" horiz-adv-x="397" 
d="M140 290l-140 416h119l80 -285l80 285h117l-139 -416v-290h-117v290z" />
    <glyph glyph-name="Z" unicode="Z" horiz-adv-x="352" 
d="M182 601h-165v105h318l-174 -601h179v-105h-333z" />
    <glyph glyph-name="bracketleft" unicode="[" horiz-adv-x="238" 
d="M59 762h165v-89h-68v-754h68v-89h-165v932z" />
    <glyph glyph-name="backslash" unicode="\" horiz-adv-x="344" 
d="M217 -50l-195 768h105l196 -768h-106z" />
    <glyph glyph-name="bracketright" unicode="]" horiz-adv-x="238" 
d="M14 -170v89h68v754h-68v89h165v-932h-165z" />
    <glyph glyph-name="asciicircum" unicode="^" horiz-adv-x="335" 
d="M216 409l-48 209l-49 -209h-106l83 297h143l83 -297h-106z" />
    <glyph glyph-name="underscore" unicode="_" horiz-adv-x="268" 
d="M0 -60h268v-98h-268v98z" />
    <glyph glyph-name="grave" unicode="`" horiz-adv-x="273" 
d="M128 568l-78 138h108l65 -138h-95z" />
    <glyph glyph-name="a" unicode="a" horiz-adv-x="372" 
d="M341 415q3 -26 3 -83v-332h-110v43q-37 -51 -106 -51q-37 0 -62.5 13t-36.5 39q-7 16 -9.5 35t-2.5 64q0 51 2 71t9 35q16 36 54 51t104 15h48v15q0 49 -1 62.5t-5 22.5q-5 11 -15.5 16.5t-27.5 5.5q-35 0 -44 -22q-3 -7 -3.5 -19t-0.5 -35h-109q0 42 2.5 61t10.5 37
q15 34 51.5 51.5t93.5 17.5q58 0 92.5 -16.5t50.5 -51.5q9 -19 12 -45zM226 112q5 10 6.5 29.5t1.5 82.5v12h-36q-27 0 -42.5 -5t-21.5 -18q-3 -6 -3.5 -18.5t-0.5 -35.5q0 -25 1 -37.5t3 -18.5q10 -21 41 -21q38 0 51 30z" />
    <glyph glyph-name="b" unicode="b" horiz-adv-x="387" 
d="M359 426.5q4 -19.5 5.5 -57t1.5 -109.5t-1.5 -109.5t-5 -56.5t-11.5 -36q-14 -31 -41 -48.5t-66 -17.5q-67 0 -103 51v-43h-108v706h110v-226q36 48 101 48q39 0 66 -17t41 -49q7 -16 11 -35.5zM250 154.5q2 27.5 2 105.5t-2 105.5t-6 38.5q-12 29 -47 29
q-28 0 -42.5 -20t-14.5 -58v-190q0 -38 14.5 -58t42.5 -20q35 0 47 29q4 11 6 38.5z" />
    <glyph glyph-name="c" unicode="c" horiz-adv-x="372" 
d="M95.5 13q-37.5 21 -56.5 62q-8 17 -11.5 36t-5 52t-1.5 97t1.5 97t5 52t11.5 35q38 84 150 84q37 0 67 -9.5t51 -28.5q17 -16 26.5 -35t13 -47t4.5 -74h-114q0 32 -2 49t-5 25t-9 14q-13 11 -32 11q-32 0 -46 -28q-3 -8 -4.5 -19t-2 -43.5t-0.5 -82.5t0.5 -82t2 -43.5
t4.5 -19.5q14 -27 46 -27q21 0 31 10q7 6 10 14.5t4.5 28t1.5 56.5h115q-1 -52 -4.5 -82t-12.5 -50t-27 -36q-21 -18 -51 -27.5t-67 -9.5q-56 0 -93.5 21z" />
    <glyph glyph-name="d" unicode="d" horiz-adv-x="387" 
d="M357 706v-706h-108v42q-36 -50 -103 -50q-39 0 -66 17.5t-41 48.5q-8 17 -11.5 36t-5 56.5t-1.5 109.5t1.5 109.5t5.5 57t11 35.5q14 32 41 49t66 17q65 0 101 -47v225h110zM248 355q0 38 -15 58t-43 20q-33 0 -47 -29q-4 -11 -6 -38.5t-2 -105.5t2 -105.5t6 -38.5
q14 -29 47 -29q28 0 43 20t15 58v190z" />
    <glyph glyph-name="e" unicode="e" horiz-adv-x="377" 
d="M238.5 109.5q3.5 7.5 5 24t1.5 41.5h110q-1 -42 -5 -68.5t-13 -43.5t-26 -33q-41 -38 -119 -38q-57 0 -96 21.5t-57 62.5q-8 17 -11.5 35.5t-5 52t-1.5 97.5t1.5 97t5 51t11.5 35q18 41 55.5 62.5t93.5 21.5t94 -21t56 -62q8 -19 12 -39.5t5 -57t1 -111.5h-225
q0 -70 1.5 -91.5t6.5 -32.5q14 -29 51 -29q26 0 39 12q6 6 9.5 13.5zM139 408q-4 -11 -5.5 -26.5t-2.5 -64.5h114q-1 52 -2 67t-5 24q-14 29 -49 29q-36 0 -50 -29z" />
    <glyph glyph-name="f" unicode="f" horiz-adv-x="254" 
d="M58 421h-50v99h50v59q0 72 34.5 103.5t108.5 31.5q24 0 45 -3v-95q-8 2 -26 2q-29 0 -41 -13.5t-12 -44.5v-40h74v-99h-74v-421h-109v421z" />
    <glyph glyph-name="g" unicode="g" horiz-adv-x="387" 
d="M357 520v-499q0 -53 -3.5 -79t-12.5 -46q-18 -39 -55 -57.5t-96 -18.5q-82 0 -124 36q-20 19 -29 44.5t-11 63.5h111q0 -18 3 -28t11 -17q15 -13 41 -13q38 0 50 28q3 8 4 23.5t1 46.5v38q-36 -48 -102 -48q-76 0 -106 64q-8 17 -11.5 36.5t-5 56.5t-1.5 109
q0 73 1.5 110.5t5 56.5t11.5 36q14 31 40.5 48t65.5 17q67 0 104 -52v44h108zM233 108q15 20 15 57v191q0 37 -15 57t-43 20q-35 0 -47 -29q-5 -10 -6.5 -37t-1.5 -106q0 -81 1.5 -107.5t6.5 -37.5q12 -28 47 -28q28 0 43 20z" />
    <glyph glyph-name="h" unicode="h" horiz-adv-x="378" 
d="M322 496q28 -32 28 -95v-401h-110v371q0 33 -11.5 47t-35.5 14q-25 0 -39 -16.5t-14 -49.5v-366h-110v706h110v-228q36 50 101 50q53 0 81 -32z" />
    <glyph glyph-name="i" unicode="i" horiz-adv-x="170" 
d="M41 592.5q-18 16.5 -18 43.5t17.5 43.5t45.5 16.5q27 0 44.5 -16.5t17.5 -43.5t-17.5 -43.5t-44.5 -16.5t-45 16.5zM30 520h110v-520h-110v520z" />
    <glyph glyph-name="j" unicode="j" horiz-adv-x="175" 
d="M45 592.5q-18 16.5 -18 43.5t17.5 43.5t45.5 16.5q27 0 44.5 -16.5t17.5 -43.5t-17.5 -43.5t-44.5 -16.5t-45 16.5zM-23 -170v98q9 -1 20 -1q21 0 29.5 10t8.5 34v549h110v-569q0 -65 -30 -94t-94 -29q-30 0 -44 2z" />
    <glyph glyph-name="k" unicode="k" horiz-adv-x="366" 
d="M242 0l-102 242v-242h-110v706h110v-381l89 195h127l-114 -236l128 -284h-128z" />
    <glyph glyph-name="l" unicode="l" horiz-adv-x="170" 
d="M30 706h110v-706h-110v706z" />
    <glyph glyph-name="m" unicode="m" horiz-adv-x="581" 
d="M553 400v-400h-110v369q0 34 -11 48.5t-35 14.5t-37.5 -17.5t-13.5 -51.5v-363h-109v370q0 33 -11.5 47.5t-35.5 14.5t-37 -17.5t-13 -51.5v-363h-110v520h110v-42q33 50 101 50q75 0 97 -60q18 31 44.5 45.5t62.5 14.5q108 0 108 -128z" />
    <glyph glyph-name="n" unicode="n" horiz-adv-x="378" 
d="M322.5 496q27.5 -32 27.5 -95v-401h-110v371q0 33 -11.5 47t-35.5 14q-25 0 -39 -16.5t-14 -49.5v-366h-110v520h110v-42q36 50 101 50q54 0 81.5 -32z" />
    <glyph glyph-name="o" unicode="o" horiz-adv-x="380" 
d="M95 13.5q-38 21.5 -56 62.5q-8 17 -11.5 35.5t-5 51.5t-1.5 97t1.5 97t5 51.5t11.5 35.5q18 41 56 62.5t95 21.5t95 -21.5t56 -62.5q7 -17 11 -36t5.5 -52.5t1.5 -95.5t-1.5 -95.5t-5.5 -52.5t-11 -36q-18 -41 -56 -62.5t-95 -21.5t-95 21.5zM219.5 94q11.5 7 17.5 21
q4 8 5.5 20t2 44t0.5 81t-0.5 81t-2 44t-5.5 20q-6 14 -17.5 21t-29.5 7q-36 0 -47 -28q-4 -8 -5.5 -20t-2.5 -44t-1 -81t1 -81t2.5 -44t5.5 -20q11 -28 47 -28q18 0 29.5 7z" />
    <glyph glyph-name="p" unicode="p" horiz-adv-x="387" 
d="M359 426.5q4 -19.5 5.5 -57t1.5 -109.5t-1.5 -109.5t-5 -56.5t-11.5 -36q-14 -31 -41 -48.5t-66 -17.5q-65 0 -101 48v-210h-110v690h108v-43q36 51 103 51q39 0 66 -17t41 -49q7 -16 11 -35.5zM250 155.5q2 27.5 2 104.5q0 78 -2 105.5t-6 38.5q-12 29 -47 29
q-28 0 -42.5 -20t-14.5 -58v-190q0 -37 14.5 -57t42.5 -20q35 0 47 28q4 12 6 39.5z" />
    <glyph glyph-name="q" unicode="q" horiz-adv-x="387" 
d="M357 520v-690h-110v210q-36 -48 -101 -48q-39 0 -66 17.5t-41 48.5q-8 17 -11.5 36t-5 56.5t-1.5 109.5t1.5 109.5t5.5 57t11 35.5q14 32 41 49t66 17q67 0 103 -51v43h108zM233 108q15 20 15 57v190q0 38 -15 58t-43 20q-33 0 -47 -29q-4 -11 -6 -38.5t-2 -105.5
q0 -77 2 -104.5t6 -39.5q14 -28 47 -28q28 0 43 20z" />
    <glyph glyph-name="r" unicode="r" horiz-adv-x="252" 
d="M243 520v-104q-12 2 -21 2q-40 0 -61 -28.5t-21 -79.5v-310h-110v520h107v-50q13 25 34.5 38.5t49.5 13.5q8 0 22 -2z" />
    <glyph glyph-name="s" unicode="s" horiz-adv-x="339" 
d="M80 7.5q-34 16.5 -50 52.5q-8 18 -10.5 40t-2.5 72h108q0 -33 1 -48.5t4 -22.5q6 -11 15 -16.5t25 -5.5q28 0 37 20q2 5 3 12t1 21q0 23 -1 32.5t-5 17.5q-7 14 -21.5 23t-45.5 23q-40 18 -65.5 36.5t-37.5 45.5q-6 15 -8.5 32t-2.5 48q0 26 2.5 42t7.5 28
q15 33 49.5 50.5t85.5 17.5q104 0 134 -65q7 -16 9 -35t2 -63h-106q0 25 -1 37.5t-4 19.5q-9 20 -35 20t-34 -18q-2 -5 -2.5 -11t-0.5 -16q0 -13 1 -23t4 -16q6 -14 22.5 -25t48.5 -25q44 -20 68 -37t36 -44q7 -15 9.5 -33.5t2.5 -53.5q0 -30 -2.5 -47t-9.5 -33
q-32 -69 -142 -69q-55 0 -89 16.5z" />
    <glyph glyph-name="t" unicode="t" horiz-adv-x="254" 
d="M111.5 6.5q-27.5 11.5 -40.5 40.5t-13 80v294h-51v99h51v112h110v-112h72v-99h-72v-271q0 -23 5 -35t15 -17t27 -5q19 0 29 2v-94q-31 -6 -60 -6q-45 0 -72.5 11.5z" />
    <glyph glyph-name="u" unicode="u" horiz-adv-x="378" 
d="M348 520v-520h-110v42q-36 -50 -101 -50q-54 0 -81.5 31.5t-27.5 94.5v402h110v-372q0 -32 11.5 -46.5t35.5 -14.5q25 0 39 17t14 50v366h110z" />
    <glyph glyph-name="v" unicode="v" horiz-adv-x="366" 
d="M2 520h116l65 -386l65 386h116l-118 -520h-126z" />
    <glyph glyph-name="w" unicode="w" horiz-adv-x="565" 
d="M564 520l-112 -520h-112l-57 340l-57 -340h-113l-111 520h110l56 -347l62 347h105l62 -346l56 346h111z" />
    <glyph glyph-name="x" unicode="x" horiz-adv-x="378" 
d="M118 269l-111 251h122l60 -168l60 168h121l-109 -251l117 -269h-121l-68 186l-68 -186h-121z" />
    <glyph glyph-name="y" unicode="y" horiz-adv-x="362" 
d="M360 520l-129 -520l-47 -170h-108l47 174l-121 516h116l60 -370l69 370h113z" />
    <glyph glyph-name="z" unicode="z" horiz-adv-x="313" 
d="M153 99h152v-99h-307l162 421h-146v99h297z" />
    <glyph glyph-name="braceleft" unicode="{" horiz-adv-x="261" 
d="M166.5 326.5q-14.5 -24.5 -50.5 -30.5q36 -7 50.5 -31.5t14.5 -72.5v-213q0 -24 5 -38t17 -20.5t35 -6.5h8v-84h-32q-65 0 -95 32t-30 98v219q0 26 -5.5 40t-18.5 20t-38 6v102q25 0 38.5 6t18.5 20t5 40v218q0 66 30 98.5t95 32.5h32v-84h-8q-23 0 -35 -6.5t-17 -20.5
t-5 -38v-213q0 -49 -14.5 -73.5z" />
    <glyph glyph-name="bar" unicode="|" horiz-adv-x="232" 
d="M63 756h106v-926h-106v926z" />
    <glyph glyph-name="braceright" unicode="}" horiz-adv-x="261" 
d="M177 373q5 -14 18.5 -20t38.5 -6v-102q-25 0 -38.5 -6t-18.5 -20t-5 -40v-219q0 -66 -30 -98t-95 -32h-33v84h8q33 0 45.5 14.5t12.5 50.5v213q0 48 14 72.5t50 31.5q-36 6 -50 30.5t-14 73.5v213q0 36 -12.5 50.5t-45.5 14.5h-8v84h33q65 0 95 -32.5t30 -98.5v-218
q0 -26 5 -40z" />
    <glyph glyph-name="asciitilde" unicode="~" horiz-adv-x="388" 
d="M225.5 219.5q-14.5 7.5 -24 17t-23.5 26.5q-14 15 -21.5 21t-16.5 6q-13 0 -18 -17.5t-7 -58.5h-76q2 64 10.5 103t28.5 58t55 19q18 0 32 -7.5t26 -19.5t21 -23q14 -16 21 -22t16 -6q14 0 19 17.5t7 59.5h76q-2 -64 -10.5 -103t-28.5 -58.5t-54 -19.5q-18 0 -32.5 7.5z
" />
    <glyph glyph-name="uni00A0" unicode="&#xa0;" horiz-adv-x="127" 
 />
    <glyph glyph-name="exclamdown" unicode="&#xa1;" horiz-adv-x="233" 
d="M68.5 416.5q-18.5 17.5 -18.5 47.5t18.5 48t48.5 18t48 -18t18 -48t-18 -47.5t-48 -17.5t-48.5 17.5zM71 333h92l12 -503h-118z" />
    <glyph glyph-name="cent" unicode="&#xa2;" horiz-adv-x="372" 
d="M236 206.5q3 8.5 4.5 27.5t1.5 56h109q-1 -51 -4.5 -81t-12.5 -50t-27 -36q-36 -31 -98 -36v-87h-43v87q-46 4 -78.5 25t-48.5 57q-8 17 -11.5 35.5t-5 52t-1.5 97.5t1.5 97t5 51.5t11.5 35.5q16 36 48.5 57.5t78.5 25.5v85h43v-85q63 -5 98 -37q17 -16 26.5 -35.5
t13 -47.5t4.5 -73h-109q0 32 -2 49t-5 25t-9 14q-8 8 -20 11v-347q12 3 20 11q7 7 10 15.5zM169 181v346q-20 -6 -30 -27q-4 -8 -5.5 -19.5t-2 -43.5t-0.5 -83t0.5 -83t2 -43.5t5.5 -20.5q10 -20 30 -26z" />
    <glyph glyph-name="sterling" unicode="&#xa3;" horiz-adv-x="433" 
d="M410 232q0 -66 -4 -95t-16 -55q-18 -42 -55.5 -62t-96.5 -20h-217v99h44v227h-44v63h44v70q0 57 2 88.5t6 50t12 37.5q19 43 57 63t98 20q112 0 149 -81q11 -26 15 -55.5t4 -98.5h-112q0 59 -2 78.5t-7 32.5q-12 27 -47 27q-37 0 -49 -27q-4 -8 -6 -19.5t-2.5 -40
t-0.5 -72.5v-73h127v-63h-127v-227h45q26 0 40.5 7.5t22.5 24.5q5 11 6.5 30t1.5 71h112z" />
    <glyph glyph-name="currency" unicode="&#xa4;" horiz-adv-x="367" 
d="M299 182l51 -111h-80l-33 73q-24 -6 -53 -6q-30 0 -53 6l-34 -73h-79l51 110q-12 15 -21 33q-9 21 -12 47.5t-3 91.5q0 66 3 92t12 47q9 20 22 34l-52 110h79l34 -74q24 6 53 6q31 0 53 -6l34 74h79l-52 -110q13 -14 22 -34q9 -21 12.5 -47t3.5 -92t-3.5 -92t-12.5 -46
t-21 -33zM184 225q41 0 54 32q4 11 6 29t2 67t-2 67.5t-6 28.5q-7 16 -20.5 24.5t-33.5 8.5t-33.5 -8.5t-20.5 -24.5q-4 -10 -5.5 -28t-1.5 -68t1.5 -67.5t5.5 -28.5q15 -32 54 -32z" />
    <glyph glyph-name="yen" unicode="&#xa5;" horiz-adv-x="395" 
d="M262 344h106v-58h-110v-38h110v-59h-110v-189h-119v189h-111v59h111v38h-111v58h107l-136 362h120l80 -254l81 254h117z" />
    <glyph glyph-name="brokenbar" unicode="&#xa6;" horiz-adv-x="232" 
d="M63 756h106v-313h-106v313zM63 143h106v-313h-106v313z" />
    <glyph glyph-name="section" unicode="&#xa7;" horiz-adv-x="356" 
d="M322 57q7 -16 10 -34t3 -49q0 -32 -3 -49t-10 -33q-33 -71 -145 -71q-111 0 -143 69q-8 18 -10.5 39.5t-2.5 73.5h113q0 -34 1 -50t3 -23q11 -21 40 -21t39 20q2 6 3 15t1 25q0 19 -1.5 29t-5.5 19q-7 15 -23.5 26.5t-47.5 27.5q-45 22 -70 41t-38 49q-8 16 -11 39t-3 72
q0 42 2.5 61.5t9.5 33.5q20 45 73 61q-51 31 -68 69q-7 15 -10 33t-3 44q0 27 2.5 43t8.5 29q16 35 53 53.5t90 18.5t89 -17t52 -51q7 -16 9 -35.5t2 -63.5h-110q0 26 -1 38.5t-4 18.5q-9 21 -38 21t-38 -20q-2 -5 -3 -12.5t-1 -18.5q0 -12 1 -21t5 -17q7 -16 23.5 -27.5
t49.5 -28.5q44 -23 69.5 -42t37.5 -47q8 -16 10.5 -39t2.5 -75q0 -44 -2.5 -64t-9.5 -36q-19 -41 -65 -58q47 -27 64 -66zM150 361.5q-12 -6.5 -17 -18.5q-2 -6 -3 -20.5t-1 -45.5q0 -33 1 -48t3 -21q11 -24 46 -24q33 0 44 23q2 6 3 21t1 48q0 32 -1 46.5t-3 20.5
q-11 25 -45 25q-16 0 -28 -6.5z" />
    <glyph glyph-name="dieresis" unicode="&#xa8;" horiz-adv-x="370" 
d="M66.5 589.5q-16.5 15.5 -16.5 40.5q0 26 16.5 41.5t42.5 15.5q25 0 42 -15.5t17 -41.5q0 -25 -16.5 -40.5t-42.5 -15.5t-42.5 15.5zM219.5 589.5q-16.5 15.5 -16.5 40.5q0 26 16.5 41.5t42.5 15.5q25 0 41.5 -15.5t16.5 -41.5q0 -25 -16.5 -40.5t-41.5 -15.5
q-26 0 -42.5 15.5z" />
    <glyph glyph-name="copyright" unicode="&#xa9;" horiz-adv-x="525" 
d="M131.5 20q-52.5 32 -78.5 90q-16 35 -21.5 89.5t-5.5 153.5t5.5 153.5t21.5 89.5q26 58 79.5 90t129.5 32q77 0 129.5 -31t79.5 -89q17 -36 22.5 -90.5t5.5 -154.5q0 -104 -5.5 -155.5t-21.5 -87.5q-27 -59 -79.5 -90.5t-130.5 -31.5t-130.5 32zM429 134q12 28 16 74
t4 144q0 94 -4.5 144.5t-17.5 79.5q-21 47 -62.5 72t-101.5 25q-61 0 -103.5 -26t-63.5 -74q-13 -28 -17 -76.5t-4 -142.5q0 -97 4.5 -145t17.5 -76q22 -49 62.5 -74.5t102.5 -25.5q121 0 167 101zM188 121.5q-32 18.5 -48 54.5q-7 15 -10.5 31.5t-5 49t-1.5 96.5t1.5 97
t5 49t10.5 31q16 36 47.5 54.5t76.5 18.5q56 0 93 -32q23 -21 31.5 -50.5t8.5 -85.5h-89q-1 37 -3 53t-8 23q-12 15 -35 15q-31 0 -41 -26q-5 -10 -6.5 -40t-1.5 -106q0 -77 1.5 -105t6.5 -39q10 -25 42 -25q12 0 20.5 3.5t14.5 11.5t8 25t2 52h90q0 -59 -8.5 -90.5
t-30.5 -51.5q-38 -32 -95 -32q-44 0 -76 18.5z" />
    <glyph glyph-name="ordfeminine" unicode="&#xaa;" horiz-adv-x="265" 
d="M243.5 634.5q2.5 -17.5 2.5 -56.5v-232h-83v28q-13 -16 -32 -25t-42 -9q-52 0 -69 36q-5 11 -6.5 23.5t-1.5 45.5q0 35 2 49t7 26q10 25 36.5 35.5t75.5 10.5h30v10q0 29 -0.5 41.5t-2.5 18.5q-4 7 -10.5 10t-17.5 3t-17.5 -3t-9.5 -10q-2 -5 -3 -12.5t-1 -24.5h-81
q0 30 2 43t7 25q21 48 104 48q41 0 66 -11.5t36 -36.5q6 -15 8.5 -32.5zM159 426q3 7 3.5 23.5t0.5 53.5v8h-22q-17 0 -27.5 -3.5t-14.5 -11.5q-2 -5 -2.5 -13.5t-0.5 -25.5q0 -16 0.5 -23.5t2.5 -11.5q6 -15 27 -15q24 0 33 19z" />
    <glyph glyph-name="guillemotleft" unicode="&#xab;" horiz-adv-x="367" 
d="M10 300l91 161h102l-91 -161l91 -162h-102zM163 300l91 161h102l-91 -161l91 -162h-102z" />
    <glyph glyph-name="logicalnot" unicode="&#xac;" horiz-adv-x="388" 
d="M271 319h-240v84h327v-264h-87v180z" />
    <glyph glyph-name="uni00AD" unicode="&#xad;" horiz-adv-x="264" 
d="M31 354h203v-100h-203v100z" />
    <glyph glyph-name="registered" unicode="&#xae;" horiz-adv-x="348" 
d="M322 614q3 -13 4 -39t1 -63t-1 -63t-4 -39t-10 -28q-33 -72 -138 -72q-51 0 -86 18t-51 54q-7 15 -10 28.5t-4.5 36t-1.5 65.5t1.5 65.5t4.5 36t10 28.5q32 72 137 72q106 0 138 -72q7 -15 10 -28zM284 435q2 21 2 77t-2 77t-9 37q-13 27 -37 38.5t-64 11.5t-64 -11.5
t-36 -38.5q-7 -17 -9.5 -38t-2.5 -76t2.5 -76t9.5 -37q12 -27 36 -39t64 -12t64 12t37 39q7 15 9 36zM244.5 522.5q-5.5 -13.5 -21.5 -17.5q14 -4 19.5 -14t5.5 -27v-74h-53v70q0 12 -4.5 17t-16.5 5h-19v-92h-52v245h81q27 0 41 -7t19.5 -22t5.5 -42q0 -28 -5.5 -41.5z
M193 535.5q4 6.5 4 25.5t-4.5 24.5t-19.5 5.5h-18v-62h20q14 0 18 6.5z" />
    <glyph glyph-name="macron" unicode="&#xaf;" horiz-adv-x="320" 
d="M50 669h220v-78h-220v78z" />
    <glyph glyph-name="degree" unicode="&#xb0;" horiz-adv-x="275" 
d="M74.5 500q-27.5 15 -42.5 41.5t-15 59.5q0 34 15 60.5t42.5 41.5t63.5 15q35 0 62.5 -15t42.5 -41.5t15 -60.5q0 -33 -15 -59.5t-42.5 -41.5t-62.5 -15q-36 0 -63.5 15zM169 568q12 12 12 33t-12 34t-31 13q-20 0 -32.5 -12.5t-12.5 -34.5q0 -21 12.5 -33t32.5 -12
q19 0 31 12z" />
    <glyph glyph-name="plusminus" unicode="&#xb1;" horiz-adv-x="388" 
d="M358 397v-86h-121v-96h-86v96h-120v86h120v95h87v-95h120zM31 186h327v-85h-327v85z" />
    <glyph glyph-name="twosuperior" unicode="&#xb2;" horiz-adv-x="250" 
d="M8 441l114 190q18 29 24 44t6 39q0 15 -0.5 22.5t-2.5 10.5q-6 14 -26 14q-11 0 -17.5 -3.5t-10.5 -11.5q-2 -4 -2.5 -12.5t-0.5 -23.5h-80q0 33 2 47t7 26q23 50 102 50q81 0 104 -49q5 -11 7 -23.5t2 -32.5q0 -35 -6.5 -57.5t-23.5 -52.5q-37 -64 -62 -104h89v-76h-225
v3z" />
    <glyph glyph-name="threesuperior" unicode="&#xb3;" horiz-adv-x="261" 
d="M240.5 595q1.5 -12 1.5 -41q0 -35 -2 -48.5t-7 -25.5q-11 -25 -39 -37t-68 -12t-65 11.5t-36 37.5q-6 14 -8 31t-2 59h77q0 -23 1 -35.5t3 -17.5q7 -15 29 -15q21 0 29 13q2 4 2.5 13.5t0.5 28.5q0 18 -1 26.5t-3 14.5q-4 8 -14 11.5t-29 3.5h-10v62h11q17 0 26.5 4
t13.5 12q2 4 3 11t1 19t-0.5 18.5t-2.5 10.5q-6 12 -26 12t-28 -14q-2 -4 -2.5 -12.5t-0.5 -24.5h-77q0 31 1.5 44.5t6.5 25.5q13 28 38.5 40t63.5 12t64.5 -11.5t38.5 -36.5q4 -10 5.5 -21.5t1.5 -39.5q0 -22 -1 -31t-5 -16q-9 -21 -38 -30q16 -4 26 -11t15 -19
q4 -10 5.5 -22z" />
    <glyph glyph-name="acute" unicode="&#xb4;" horiz-adv-x="273" 
d="M115 706h108l-78 -138h-95z" />
    <glyph glyph-name="mu" unicode="&#xb5;" horiz-adv-x="380" 
d="M350 520v-520h-107v47q-29 -55 -83 -55q-16 0 -27 4q7 -60 7 -105v-62h-110v691h110v-369q0 -34 11 -48.5t36 -14.5q26 0 39.5 17t13.5 51v364h110z" />
    <glyph glyph-name="paragraph" unicode="&#xb6;" horiz-adv-x="489" 
d="M194 289h-34q-54 0 -86.5 16.5t-48.5 51.5q-8 19 -10.5 44.5t-2.5 96.5q0 70 2.5 96t10.5 45q16 34 49.5 50.5t88.5 16.5h321v-95h-42v-781h-95v781h-59v-781h-94v459z" />
    <glyph glyph-name="periodcentered" unicode="&#xb7;" horiz-adv-x="235" 
d="M69.5 256.5q-18.5 17.5 -18.5 46.5q0 30 18.5 48t48.5 18q29 0 47 -18t18 -48q0 -29 -18 -46.5t-47 -17.5q-30 0 -48.5 17.5z" />
    <glyph glyph-name="cedilla" unicode="&#xb8;" horiz-adv-x="283" 
d="M212.5 -49q20.5 -19 20.5 -52q0 -41 -30 -60.5t-81 -19.5q-40 0 -72 11l12 55q27 -10 51 -10q44 0 44 26q0 14 -12 20t-38 6h-38l21 88h75l-11 -44q38 -1 58.5 -20z" />
    <glyph glyph-name="onesuperior" unicode="&#xb9;" horiz-adv-x="182" 
d="M62 748h-54l12 78h129v-388h-87v310z" />
    <glyph glyph-name="ordmasculine" unicode="&#xba;" horiz-adv-x="269" 
d="M67.5 354.5q-26.5 14.5 -39.5 43.5q-8 18 -10.5 42t-2.5 88q0 63 2.5 87t10.5 42q13 28 40 43t66 15q40 0 67 -15t40 -43q8 -18 10.5 -42t2.5 -87q0 -64 -2.5 -88t-10.5 -42q-26 -58 -107 -58q-40 0 -66.5 14.5zM152.5 416q7.5 4 11.5 13q3 7 4 29t1 70q0 47 -1 69t-4 28
q-4 10 -11.5 14t-18.5 4t-18 -4t-11 -14q-3 -6 -4 -28t-1 -69q0 -48 1 -70t4 -29q4 -9 11 -13t18 -4t18.5 4z" />
    <glyph glyph-name="guillemotright" unicode="&#xbb;" horiz-adv-x="367" 
d="M11 138l91 162l-91 161h102l91 -161l-91 -162h-102zM164 138l91 162l-91 161h102l91 -161l-91 -162h-102z" />
    <glyph glyph-name="onequarter" unicode="&#xbc;" horiz-adv-x="574" 
d="M62 628h-54l12 78h129v-388h-87v310zM370 706h64l-303 -706h-65zM448 78h-161v2l94 308h148v-236h37v-74h-37v-78h-81v78zM448 152v205l-58 -205h58z" />
    <glyph glyph-name="onehalf" unicode="&#xbd;" horiz-adv-x="561" 
d="M62 628h-54l12 78h129v-388h-87v310zM370 706h64l-303 -706h-65zM319 3l114 190q18 29 24 44t6 39q0 15 -0.5 22.5t-2.5 10.5q-6 14 -26 14q-11 0 -17.5 -3.5t-10.5 -11.5q-2 -4 -2.5 -12.5t-0.5 -23.5h-80q0 33 2 47t7 26q23 50 102 50q81 0 104 -49q5 -11 7 -23.5
t2 -32.5q0 -35 -6.5 -57.5t-23.5 -52.5q-37 -64 -62 -104h89v-76h-225v3z" />
    <glyph glyph-name="threequarters" unicode="&#xbe;" horiz-adv-x="655" 
d="M240.5 475q1.5 -12 1.5 -41q0 -35 -2 -48.5t-7 -25.5q-11 -25 -39 -37t-68 -12t-65 11.5t-36 37.5q-6 14 -8 31t-2 59h77q0 -23 1 -35.5t3 -17.5q7 -15 29 -15q21 0 29 13q2 4 2.5 13.5t0.5 28.5q0 18 -1 26.5t-3 14.5q-4 8 -14 11.5t-29 3.5h-10v62h11q17 0 26.5 4
t13.5 12q2 4 3 11t1 19t-0.5 18.5t-2.5 10.5q-6 12 -26 12t-28 -14q-2 -4 -2.5 -12.5t-0.5 -24.5h-77q0 31 1.5 44.5t6.5 25.5q13 28 38.5 40t63.5 12t64.5 -11.5t38.5 -36.5q4 -10 5.5 -21.5t1.5 -39.5q0 -22 -1 -31t-5 -16q-9 -21 -38 -30q16 -4 26 -11t15 -19
q4 -10 5.5 -22zM451 706h64l-303 -706h-65zM529 78h-161v2l94 308h148v-236h37v-74h-37v-78h-81v78zM529 152v205l-58 -205h58z" />
    <glyph glyph-name="questiondown" unicode="&#xbf;" horiz-adv-x="380" 
d="M149.5 418.5q-18.5 17.5 -18.5 47.5t18.5 47.5t48.5 17.5t48 -17.5t18 -47.5t-18 -47.5t-48 -17.5t-48.5 17.5zM68.5 -140.5q-41.5 38.5 -41.5 108.5q0 26 6.5 54t29 95.5t58.5 168.5q2 6 14 40h119l-10 -27q-40 -105 -64.5 -174t-31.5 -97.5t-7 -53.5q0 -30 11 -44.5
t39 -14.5q17 0 28 6.5t17 19.5q4 10 5 24.5t1 60.5h111q0 -59 -2.5 -82t-10.5 -43q-18 -39 -57 -59.5t-96 -20.5q-77 0 -118.5 38.5z" />
    <glyph glyph-name="Agrave" unicode="&#xc0;" horiz-adv-x="430" 
d="M293 127h-156l-20 -127h-117l125 706h180l124 -706h-116zM277 227l-61 385h-2l-61 -385h124zM178 747l-88 113h114l75 -113h-101z" />
    <glyph glyph-name="Aacute" unicode="&#xc1;" horiz-adv-x="430" 
d="M293 127h-156l-20 -127h-117l125 706h180l124 -706h-116zM277 227l-61 385h-2l-61 -385h124zM226 860h114l-88 -113h-101z" />
    <glyph glyph-name="Acircumflex" unicode="&#xc2;" horiz-adv-x="430" 
d="M293 127h-156l-20 -127h-117l125 706h180l124 -706h-116zM277 227l-61 385h-2l-61 -385h124zM151 860h127l75 -113h-98l-40 62l-42 -62h-96z" />
    <glyph glyph-name="Atilde" unicode="&#xc3;" horiz-adv-x="430" 
d="M293 127h-156l-20 -127h-117l125 706h180l124 -706h-116zM277 227l-61 385h-2l-61 -385h124zM235.5 750q-15.5 7 -32.5 20q-3 2 -11 8t-14.5 8.5t-12.5 2.5q-12 0 -18 -11t-8 -33h-65q1 59 21 88t62 29q22 0 36.5 -7t33.5 -22q13 -9 20 -12.5t16 -3.5q12 0 17.5 10
t7.5 33h67q-1 -59 -20.5 -88t-62.5 -29q-21 0 -36.5 7z" />
    <glyph glyph-name="Adieresis" unicode="&#xc4;" horiz-adv-x="430" 
d="M293 127h-156l-20 -127h-117l125 706h180l124 -706h-116zM277 227l-61 385h-2l-61 -385h124zM94 766.5q-16 15.5 -16 40.5t16 40t41 15t41 -15t16 -40t-16 -40.5t-41 -15.5t-41 15.5zM253 766.5q-16 15.5 -16 40.5t16.5 40t41.5 15t41 -15t16 -40q0 -24 -16.5 -40
t-40.5 -16q-26 0 -42 15.5z" />
    <glyph glyph-name="Aring" unicode="&#xc5;" horiz-adv-x="430" 
d="M293 127h-156l-20 -127h-117l125 706h180l124 -706h-116zM277 227l-61 385h-2l-61 -385h124zM163 739.5q-23 11.5 -35.5 32.5t-12.5 49q0 42 27.5 67t72.5 25q30 0 53 -11.5t35.5 -32.5t12.5 -48q0 -28 -12.5 -49t-35.5 -32.5t-53 -11.5q-29 0 -52 11.5zM243.5 793.5
q10.5 10.5 10.5 27.5t-10.5 27.5t-28.5 10.5q-17 0 -27.5 -10.5t-10.5 -27.5t10.5 -27.5t27.5 -10.5q18 0 28.5 10.5z" />
    <glyph glyph-name="AE" unicode="&#xc6;" horiz-adv-x="519" 
d="M351 601l11 -176h135v-104h-128l13 -216h117v-105h-222l-7 118h-128l-24 -118h-118l160 706h340v-105h-149zM264 218l-22 387h-2l-78 -387h102z" />
    <glyph glyph-name="Ccedilla" unicode="&#xc7;" horiz-adv-x="445" 
d="M422 229q-1 -77 -14 -121.5t-44 -72.5q-38 -36 -103 -44l-5 -22q38 -1 58.5 -19.5t20.5 -51.5q0 -42 -30 -61.5t-81 -19.5q-37 0 -72 12l12 54q29 -9 52 -9q43 0 43 26q0 14 -12 20t-38 6h-38l17 66q-98 15 -138 102q-10 22 -15 48.5t-7 74.5t-2 136t2 136t7 74.5
t15 48.5q48 105 179 105q82 0 134 -46q32 -29 44.5 -72.5t13.5 -120.5h-120q0 39 -2.5 61.5t-7 34t-13.5 19.5q-10 9 -22.5 13.5t-29.5 4.5q-49 0 -68 -42q-5 -12 -7.5 -29.5t-3.5 -65t-1 -121.5t1 -121.5t3.5 -65t7.5 -29.5q18 -42 69 -42q32 0 52 18q9 8 13.5 19t7 34
t2.5 63h120z" />
    <glyph glyph-name="Egrave" unicode="&#xc8;" horiz-adv-x="327" 
d="M35 706h272v-105h-156v-176h153v-104h-153v-216h156v-105h-272v706zM135 747l-88 113h114l75 -113h-101z" />
    <glyph glyph-name="Eacute" unicode="&#xc9;" horiz-adv-x="327" 
d="M35 706h272v-105h-156v-176h153v-104h-153v-216h156v-105h-272v706zM183 860h114l-88 -113h-101z" />
    <glyph glyph-name="Ecircumflex" unicode="&#xca;" horiz-adv-x="327" 
d="M35 706h272v-105h-156v-176h153v-104h-153v-216h156v-105h-272v706zM108 860h127l75 -113h-98l-40 62l-42 -62h-96z" />
    <glyph glyph-name="Edieresis" unicode="&#xcb;" horiz-adv-x="327" 
d="M35 706h272v-105h-156v-176h153v-104h-153v-216h156v-105h-272v706zM51 766.5q-16 15.5 -16 40.5t16 40t41 15t41 -15t16 -40t-16 -40.5t-41 -15.5t-41 15.5zM210 766.5q-16 15.5 -16 40.5t16.5 40t41.5 15t41 -15t16 -40q0 -24 -16.5 -40t-40.5 -16q-26 0 -42 15.5z" />
    <glyph glyph-name="Igrave" unicode="&#xcc;" horiz-adv-x="186" 
d="M35 706h116v-706h-116v706zM56 747l-88 113h114l75 -113h-101z" />
    <glyph glyph-name="Iacute" unicode="&#xcd;" horiz-adv-x="186" 
d="M35 706h116v-706h-116v706zM104 860h114l-88 -113h-101z" />
    <glyph glyph-name="Icircumflex" unicode="&#xce;" horiz-adv-x="186" 
d="M35 706h116v-706h-116v706zM32 860h122l61 -113h-91l-31 60l-31 -60h-92z" />
    <glyph glyph-name="Idieresis" unicode="&#xcf;" horiz-adv-x="186" 
d="M35 706h116v-706h-116v706zM-9.5 765.5q-15.5 15.5 -15.5 40.5t15 40t39 15t38.5 -15t14.5 -40t-15 -40.5t-38 -15.5t-38.5 15.5zM120.5 765.5q-15.5 15.5 -15.5 39.5q0 25 15 40.5t39 15.5t39 -15.5t15 -40.5q0 -24 -15.5 -39.5t-38.5 -15.5t-38.5 15.5z" />
    <glyph glyph-name="Eth" unicode="&#xd0;" horiz-adv-x="445" 
d="M410.5 559.5q4.5 -23.5 6.5 -70t2 -136.5t-2 -136.5t-6.5 -70t-14.5 -44.5q-22 -50 -68 -76t-115 -26h-173v324h-40v95h40v287h173q69 0 115 -26t68 -76q10 -21 14.5 -44.5zM294.5 176.5q2.5 15.5 3.5 60t1 114.5q0 72 -1 117t-3.5 61t-7.5 28q-11 23 -31.5 34.5
t-54.5 11.5h-45v-184h76v-95h-76v-221h45q34 0 54.5 11.5t31.5 34.5q5 12 7.5 27.5z" />
    <glyph glyph-name="Ntilde" unicode="&#xd1;" horiz-adv-x="465" 
d="M35 706h115l168 -442v442h112v-706h-113l-170 454v-454h-112v706zM252.5 750q-15.5 7 -32.5 20q-3 2 -11 8t-14.5 8.5t-12.5 2.5q-12 0 -18 -11t-8 -33h-65q1 59 21 88t62 29q22 0 36.5 -7t33.5 -22q13 -9 20 -12.5t16 -3.5q12 0 17.5 10t7.5 33h67q-1 -59 -20.5 -88
t-62.5 -29q-21 0 -36.5 7z" />
    <glyph glyph-name="Ograve" unicode="&#xd2;" horiz-adv-x="458" 
d="M126.5 10.5q-42.5 22.5 -65.5 66.5q-14 23 -21 52.5t-10.5 81t-3.5 142.5q0 87 2.5 135t7.5 75t15 50q23 51 67.5 78t110.5 27t110.5 -27t67.5 -78q10 -23 15 -50t7.5 -75t2.5 -135t-2.5 -135t-7.5 -75t-15 -50q-23 -51 -67.5 -78t-110.5 -27q-60 0 -102.5 22.5zM300 140
q5 12 7.5 29t3.5 64t1 120t-1 120t-3.5 64t-7.5 29q-19 44 -71 44t-71 -44q-5 -12 -7.5 -29t-3.5 -64t-1 -120t1 -120t3.5 -64t7.5 -29q19 -44 71 -44t71 44zM192 747l-88 113h114l75 -113h-101z" />
    <glyph glyph-name="Oacute" unicode="&#xd3;" horiz-adv-x="458" 
d="M126.5 10.5q-42.5 22.5 -65.5 66.5q-14 23 -21 52.5t-10.5 81t-3.5 142.5q0 87 2.5 135t7.5 75t15 50q23 51 67.5 78t110.5 27t110.5 -27t67.5 -78q10 -23 15 -50t7.5 -75t2.5 -135t-2.5 -135t-7.5 -75t-15 -50q-23 -51 -67.5 -78t-110.5 -27q-60 0 -102.5 22.5zM300 140
q5 12 7.5 29t3.5 64t1 120t-1 120t-3.5 64t-7.5 29q-19 44 -71 44t-71 -44q-5 -12 -7.5 -29t-3.5 -64t-1 -120t1 -120t3.5 -64t7.5 -29q19 -44 71 -44t71 44zM240 860h114l-88 -113h-101z" />
    <glyph glyph-name="Ocircumflex" unicode="&#xd4;" horiz-adv-x="458" 
d="M126.5 10.5q-42.5 22.5 -65.5 66.5q-14 23 -21 52.5t-10.5 81t-3.5 142.5q0 87 2.5 135t7.5 75t15 50q23 51 67.5 78t110.5 27t110.5 -27t67.5 -78q10 -23 15 -50t7.5 -75t2.5 -135t-2.5 -135t-7.5 -75t-15 -50q-23 -51 -67.5 -78t-110.5 -27q-60 0 -102.5 22.5zM300 140
q5 12 7.5 29t3.5 64t1 120t-1 120t-3.5 64t-7.5 29q-19 44 -71 44t-71 -44q-5 -12 -7.5 -29t-3.5 -64t-1 -120t1 -120t3.5 -64t7.5 -29q19 -44 71 -44t71 44zM165 860h127l75 -113h-98l-40 62l-42 -62h-96z" />
    <glyph glyph-name="Otilde" unicode="&#xd5;" horiz-adv-x="458" 
d="M126.5 10.5q-42.5 22.5 -65.5 66.5q-14 23 -21 52.5t-10.5 81t-3.5 142.5q0 87 2.5 135t7.5 75t15 50q23 51 67.5 78t110.5 27t110.5 -27t67.5 -78q10 -23 15 -50t7.5 -75t2.5 -135t-2.5 -135t-7.5 -75t-15 -50q-23 -51 -67.5 -78t-110.5 -27q-60 0 -102.5 22.5zM300 140
q5 12 7.5 29t3.5 64t1 120t-1 120t-3.5 64t-7.5 29q-19 44 -71 44t-71 -44q-5 -12 -7.5 -29t-3.5 -64t-1 -120t1 -120t3.5 -64t7.5 -29q19 -44 71 -44t71 44zM249.5 750q-15.5 7 -32.5 20q-3 2 -11 8t-14.5 8.5t-12.5 2.5q-12 0 -18 -11t-8 -33h-65q1 59 21 88t62 29
q22 0 36.5 -7t33.5 -22q13 -9 20 -12.5t16 -3.5q12 0 17.5 10t7.5 33h67q-1 -59 -20.5 -88t-62.5 -29q-21 0 -36.5 7z" />
    <glyph glyph-name="Odieresis" unicode="&#xd6;" horiz-adv-x="458" 
d="M126.5 10.5q-42.5 22.5 -65.5 66.5q-14 23 -21 52.5t-10.5 81t-3.5 142.5q0 87 2.5 135t7.5 75t15 50q23 51 67.5 78t110.5 27t110.5 -27t67.5 -78q10 -23 15 -50t7.5 -75t2.5 -135t-2.5 -135t-7.5 -75t-15 -50q-23 -51 -67.5 -78t-110.5 -27q-60 0 -102.5 22.5zM300 140
q5 12 7.5 29t3.5 64t1 120t-1 120t-3.5 64t-7.5 29q-19 44 -71 44t-71 -44q-5 -12 -7.5 -29t-3.5 -64t-1 -120t1 -120t3.5 -64t7.5 -29q19 -44 71 -44t71 44zM108 766.5q-16 15.5 -16 40.5t16 40t41 15t41 -15t16 -40t-16 -40.5t-41 -15.5t-41 15.5zM267 766.5
q-16 15.5 -16 40.5t16.5 40t41.5 15t41 -15t16 -40q0 -24 -16.5 -40t-40.5 -16q-26 0 -42 15.5z" />
    <glyph glyph-name="multiply" unicode="&#xd7;" horiz-adv-x="388" 
d="M253 304l97 -97l-59 -60l-97 97l-96 -96l-60 59l97 97l-97 97l60 59l96 -97l97 97l59 -59z" />
    <glyph glyph-name="Oslash" unicode="&#xd8;" horiz-adv-x="458" 
d="M407 613q10 -23 15 -50t7.5 -75t2.5 -135t-2.5 -135t-7.5 -75t-15 -50q-23 -51 -67.5 -78t-110.5 -27q-104 0 -153 66l-33 -54h-49l58 93q-15 32 -20.5 87t-5.5 173q0 87 2.5 135t7.5 75t15 50q23 51 67.5 78t110.5 27q99 0 152 -62l31 50h48l-56 -87zM150.5 537
q-2.5 -17 -3.5 -64t-1 -120q0 -85 1 -112l160 302q-3 15 -7 23q-19 44 -71 44t-71 -44q-5 -12 -7.5 -29zM307.5 169q2.5 17 3.5 64t1 120q0 94 -1 123l-161 -305q3 -20 8 -31q19 -44 71 -44t71 44q5 12 7.5 29z" />
    <glyph glyph-name="Ugrave" unicode="&#xd9;" horiz-adv-x="425" 
d="M74 31q-43 43 -43 134v541h116v-537q0 -38 15.5 -56.5t49.5 -18.5q35 0 50.5 18.5t15.5 56.5v537h116v-541q0 -90 -43 -133.5t-139 -43.5q-95 0 -138 43zM175 747l-88 113h114l75 -113h-101z" />
    <glyph glyph-name="Uacute" unicode="&#xda;" horiz-adv-x="425" 
d="M74 31q-43 43 -43 134v541h116v-537q0 -38 15.5 -56.5t49.5 -18.5q35 0 50.5 18.5t15.5 56.5v537h116v-541q0 -90 -43 -133.5t-139 -43.5q-95 0 -138 43zM224 860h114l-88 -113h-101z" />
    <glyph glyph-name="Ucircumflex" unicode="&#xdb;" horiz-adv-x="425" 
d="M74 31q-43 43 -43 134v541h116v-537q0 -38 15.5 -56.5t49.5 -18.5q35 0 50.5 18.5t15.5 56.5v537h116v-541q0 -90 -43 -133.5t-139 -43.5q-95 0 -138 43zM149 860h127l75 -113h-98l-40 62l-42 -62h-96z" />
    <glyph glyph-name="Udieresis" unicode="&#xdc;" horiz-adv-x="425" 
d="M74 31q-43 43 -43 134v541h116v-537q0 -38 15.5 -56.5t49.5 -18.5q35 0 50.5 18.5t15.5 56.5v537h116v-541q0 -90 -43 -133.5t-139 -43.5q-95 0 -138 43zM92 766.5q-16 15.5 -16 40.5t16 40t41 15t41 -15t16 -40t-16 -40.5t-41 -15.5t-41 15.5zM251 766.5
q-16 15.5 -16 40.5t16.5 40t41.5 15t41 -15t16 -40q0 -24 -16.5 -40t-40.5 -16q-26 0 -42 15.5z" />
    <glyph glyph-name="Yacute" unicode="&#xdd;" horiz-adv-x="397" 
d="M140 290l-140 416h119l80 -285l80 285h117l-139 -416v-290h-117v290zM211 860h114l-88 -113h-101z" />
    <glyph glyph-name="Thorn" unicode="&#xde;" horiz-adv-x="390" 
d="M35 706h116v-113h64q59 0 95.5 -17.5t52.5 -54.5q9 -21 12.5 -51t3.5 -107q0 -53 -1.5 -82t-5 -45t-9.5 -31q-16 -37 -52.5 -54.5t-95.5 -17.5h-64v-133h-116v706zM187 232q52 0 66 29q4 11 5.5 29.5t1.5 72.5t-1.5 72.5t-5.5 29.5q-14 29 -66 29h-36v-262h36z" />
    <glyph glyph-name="germandbls" unicode="&#xdf;" horiz-adv-x="390" 
d="M366.5 305.5q2.5 -25.5 2.5 -91.5q0 -67 -3 -93t-11 -46q-34 -75 -150 -75h-36v94q5 -1 16 -1q49 0 64 34q4 9 5.5 27t1.5 70t-1.5 69.5t-5.5 26.5q-15 34 -66 34h-13v89h12q26 0 39.5 7.5t19.5 21.5q4 7 4.5 21.5t0.5 43.5q0 34 -1 46t-5 20q-10 25 -46 25
q-33 0 -47 -27q-4 -10 -5.5 -26.5t-1.5 -52.5v-522h-110v518q0 50 3.5 75.5t13.5 47.5q18 39 54 58t93 19q112 0 147 -75q8 -18 10.5 -37t2.5 -59q0 -39 -2.5 -61.5t-9.5 -38.5q-14 -30 -46 -42q41 -16 59 -54q9 -20 11.5 -45.5z" />
    <glyph glyph-name="agrave" unicode="&#xe0;" horiz-adv-x="372" 
d="M341 415q3 -26 3 -83v-332h-110v43q-37 -51 -106 -51q-37 0 -62.5 13t-36.5 39q-7 16 -9.5 35t-2.5 64q0 51 2 71t9 35q16 36 54 51t104 15h48v15q0 49 -1 62.5t-5 22.5q-5 11 -15.5 16.5t-27.5 5.5q-35 0 -44 -22q-3 -7 -3.5 -19t-0.5 -35h-109q0 42 2.5 61t10.5 37
q15 34 51.5 51.5t93.5 17.5q58 0 92.5 -16.5t50.5 -51.5q9 -19 12 -45zM226 112q5 10 6.5 29.5t1.5 82.5v12h-36q-27 0 -42.5 -5t-21.5 -18q-3 -6 -3.5 -18.5t-0.5 -35.5q0 -25 1 -37.5t3 -18.5q10 -21 41 -21q38 0 51 30zM153 568l-78 138h108l65 -138h-95z" />
    <glyph glyph-name="aacute" unicode="&#xe1;" horiz-adv-x="372" 
d="M341 415q3 -26 3 -83v-332h-110v43q-37 -51 -106 -51q-37 0 -62.5 13t-36.5 39q-7 16 -9.5 35t-2.5 64q0 51 2 71t9 35q16 36 54 51t104 15h48v15q0 49 -1 62.5t-5 22.5q-5 11 -15.5 16.5t-27.5 5.5q-35 0 -44 -22q-3 -7 -3.5 -19t-0.5 -35h-109q0 42 2.5 61t10.5 37
q15 34 51.5 51.5t93.5 17.5q58 0 92.5 -16.5t50.5 -51.5q9 -19 12 -45zM226 112q5 10 6.5 29.5t1.5 82.5v12h-36q-27 0 -42.5 -5t-21.5 -18q-3 -6 -3.5 -18.5t-0.5 -35.5q0 -25 1 -37.5t3 -18.5q10 -21 41 -21q38 0 51 30zM194 706h108l-78 -138h-95z" />
    <glyph glyph-name="acircumflex" unicode="&#xe2;" horiz-adv-x="372" 
d="M341 415q3 -26 3 -83v-332h-110v43q-37 -51 -106 -51q-37 0 -62.5 13t-36.5 39q-7 16 -9.5 35t-2.5 64q0 51 2 71t9 35q16 36 54 51t104 15h48v15q0 49 -1 62.5t-5 22.5q-5 11 -15.5 16.5t-27.5 5.5q-35 0 -44 -22q-3 -7 -3.5 -19t-0.5 -35h-109q0 42 2.5 61t10.5 37
q15 34 51.5 51.5t93.5 17.5q58 0 92.5 -16.5t50.5 -51.5q9 -19 12 -45zM226 112q5 10 6.5 29.5t1.5 82.5v12h-36q-27 0 -42.5 -5t-21.5 -18q-3 -6 -3.5 -18.5t-0.5 -35.5q0 -25 1 -37.5t3 -18.5q10 -21 41 -21q38 0 51 30zM129 706h121l73 -138h-94l-40 79l-41 -79h-94z" />
    <glyph glyph-name="atilde" unicode="&#xe3;" horiz-adv-x="372" 
d="M341 415q3 -26 3 -83v-332h-110v43q-37 -51 -106 -51q-37 0 -62.5 13t-36.5 39q-7 16 -9.5 35t-2.5 64q0 51 2 71t9 35q16 36 54 51t104 15h48v15q0 49 -1 62.5t-5 22.5q-5 11 -15.5 16.5t-27.5 5.5q-35 0 -44 -22q-3 -7 -3.5 -19t-0.5 -35h-109q0 42 2.5 61t10.5 37
q15 34 51.5 51.5t93.5 17.5q58 0 92.5 -16.5t50.5 -51.5q9 -19 12 -45zM226 112q5 10 6.5 29.5t1.5 82.5v12h-36q-27 0 -42.5 -5t-21.5 -18q-3 -6 -3.5 -18.5t-0.5 -35.5q0 -25 1 -37.5t3 -18.5q10 -21 41 -21q38 0 51 30zM206.5 575.5q-15.5 9.5 -29.5 26.5
q-12 15 -19 20.5t-16 5.5q-13 0 -18 -13t-7 -47h-64q1 73 18.5 106.5t59.5 33.5q16 0 28 -5.5t21.5 -14.5t17.5 -18l9.5 -9.5t14 -11t13.5 -3.5q13 0 17.5 13t5.5 47h65q-1 -73 -18.5 -106.5t-59.5 -33.5q-23 0 -38.5 9.5z" />
    <glyph glyph-name="adieresis" unicode="&#xe4;" horiz-adv-x="372" 
d="M341 415q3 -26 3 -83v-332h-110v43q-37 -51 -106 -51q-37 0 -62.5 13t-36.5 39q-7 16 -9.5 35t-2.5 64q0 51 2 71t9 35q16 36 54 51t104 15h48v15q0 49 -1 62.5t-5 22.5q-5 11 -15.5 16.5t-27.5 5.5q-35 0 -44 -22q-3 -7 -3.5 -19t-0.5 -35h-109q0 42 2.5 61t10.5 37
q15 34 51.5 51.5t93.5 17.5q58 0 92.5 -16.5t50.5 -51.5q9 -19 12 -45zM226 112q5 10 6.5 29.5t1.5 82.5v12h-36q-27 0 -42.5 -5t-21.5 -18q-3 -6 -3.5 -18.5t-0.5 -35.5q0 -25 1 -37.5t3 -18.5q10 -21 41 -21q38 0 51 30zM69.5 589.5q-16.5 15.5 -16.5 40.5q0 26 16.5 41.5
t42.5 15.5q25 0 42 -15.5t17 -41.5q0 -25 -16.5 -40.5t-42.5 -15.5t-42.5 15.5zM222.5 589.5q-16.5 15.5 -16.5 40.5q0 26 16.5 41.5t42.5 15.5q25 0 41.5 -15.5t16.5 -41.5q0 -25 -16.5 -40.5t-41.5 -15.5q-26 0 -42.5 15.5z" />
    <glyph glyph-name="aring" unicode="&#xe5;" horiz-adv-x="372" 
d="M341 415q3 -26 3 -83v-332h-110v43q-37 -51 -106 -51q-37 0 -62.5 13t-36.5 39q-7 16 -9.5 35t-2.5 64q0 51 2 71t9 35q16 36 54 51t104 15h48v15q0 49 -1 62.5t-5 22.5q-5 11 -15.5 16.5t-27.5 5.5q-35 0 -44 -22q-3 -7 -3.5 -19t-0.5 -35h-109q0 42 2.5 61t10.5 37
q15 34 51.5 51.5t93.5 17.5q58 0 92.5 -16.5t50.5 -51.5q9 -19 12 -45zM226 112q5 10 6.5 29.5t1.5 82.5v12h-36q-27 0 -42.5 -5t-21.5 -18q-3 -6 -3.5 -18.5t-0.5 -35.5q0 -25 1 -37.5t3 -18.5q10 -21 41 -21q38 0 51 30zM136 571.5q-23 11.5 -35.5 32.5t-12.5 49
q0 42 27.5 67t72.5 25q30 0 53 -11.5t35.5 -32.5t12.5 -48q0 -28 -12.5 -49t-35.5 -32.5t-53 -11.5q-29 0 -52 11.5zM216.5 625.5q10.5 10.5 10.5 27.5t-10.5 27.5t-28.5 10.5q-17 0 -27.5 -10.5t-10.5 -27.5t10.5 -27.5t27.5 -10.5q18 0 28.5 10.5z" />
    <glyph glyph-name="ae" unicode="&#xe6;" horiz-adv-x="581" 
d="M441.5 107.5q3.5 7.5 4.5 24.5t1 43h112q-1 -42 -5 -69t-13 -44.5t-25 -32.5q-40 -37 -116 -37q-49 0 -81.5 16t-52.5 48q-43 -64 -130 -64q-83 0 -107 53q-7 16 -9.5 35.5t-2.5 63.5q0 51 2 71t9 35q15 35 53.5 50.5t104.5 15.5h48v12q0 47 -1.5 63t-4.5 24
q-5 11 -15.5 16.5t-27.5 5.5q-35 0 -44 -22q-3 -6 -3.5 -18t-0.5 -36h-109q0 43 2.5 62t10.5 36q15 34 51.5 51.5t93.5 17.5q40 0 66.5 -7t42.5 -23q38 30 101 30q108 0 146 -82q8 -18 12 -39t5 -57.5t1 -112.5h-216q0 -71 1 -93t6 -33q7 -14 18.5 -20.5t29.5 -6.5
q22 0 33 11q6 5 9.5 12.5zM352 410q-5 -9 -6 -25t-2 -69h104q-1 52 -2 68.5t-5 25.5q-13 27 -44 27q-34 0 -45 -27zM234 237h-36q-28 0 -43 -5t-21 -18q-3 -6 -3.5 -19t-0.5 -36q0 -25 1 -37.5t4 -18.5q5 -11 15 -16t26 -5q38 0 50 28q5 11 6.5 30t1.5 84v13z" />
    <glyph glyph-name="ccedilla" unicode="&#xe7;" horiz-adv-x="372" 
d="M230 112.5q3 8.5 4.5 28t1.5 56.5h115q-1 -52 -4.5 -82t-12.5 -50t-27 -36q-32 -27 -84 -35l-6 -24q37 -1 58 -20t21 -52q0 -41 -30 -60.5t-82 -19.5q-35 0 -71 11l12 55q23 -9 51 -9q21 0 32 6t11 20q0 13 -11.5 19t-38.5 6h-38l17 69q-79 14 -109 80q-8 17 -11.5 36
t-5 52t-1.5 97t1.5 97t5 52t11.5 35q38 84 150 84q37 0 67 -9.5t51 -28.5q17 -16 26.5 -35t13 -47t4.5 -74h-114q0 32 -2 49t-5 25t-9 14q-13 11 -32 11q-32 0 -46 -28q-3 -8 -4.5 -19t-2 -43.5t-0.5 -82.5t0.5 -82t2 -43.5t4.5 -19.5q14 -27 46 -27q21 0 31 10q7 6 10 14.5
z" />
    <glyph glyph-name="egrave" unicode="&#xe8;" horiz-adv-x="377" 
d="M238.5 109.5q3.5 7.5 5 24t1.5 41.5h110q-1 -42 -5 -68.5t-13 -43.5t-26 -33q-41 -38 -119 -38q-57 0 -96 21.5t-57 62.5q-8 17 -11.5 35.5t-5 52t-1.5 97.5t1.5 97t5 51t11.5 35q18 41 55.5 62.5t93.5 21.5t94 -21t56 -62q8 -19 12 -39.5t5 -57t1 -111.5h-225
q0 -70 1.5 -91.5t6.5 -32.5q14 -29 51 -29q26 0 39 12q6 6 9.5 13.5zM139 408q-4 -11 -5.5 -26.5t-2.5 -64.5h114q-1 52 -2 67t-5 24q-14 29 -49 29q-36 0 -50 -29zM154 568l-78 138h108l65 -138h-95z" />
    <glyph glyph-name="eacute" unicode="&#xe9;" horiz-adv-x="377" 
d="M238.5 109.5q3.5 7.5 5 24t1.5 41.5h110q-1 -42 -5 -68.5t-13 -43.5t-26 -33q-41 -38 -119 -38q-57 0 -96 21.5t-57 62.5q-8 17 -11.5 35.5t-5 52t-1.5 97.5t1.5 97t5 51t11.5 35q18 41 55.5 62.5t93.5 21.5t94 -21t56 -62q8 -19 12 -39.5t5 -57t1 -111.5h-225
q0 -70 1.5 -91.5t6.5 -32.5q14 -29 51 -29q26 0 39 12q6 6 9.5 13.5zM139 408q-4 -11 -5.5 -26.5t-2.5 -64.5h114q-1 52 -2 67t-5 24q-14 29 -49 29q-36 0 -50 -29zM195 706h108l-78 -138h-95z" />
    <glyph glyph-name="ecircumflex" unicode="&#xea;" horiz-adv-x="377" 
d="M238.5 109.5q3.5 7.5 5 24t1.5 41.5h110q-1 -42 -5 -68.5t-13 -43.5t-26 -33q-41 -38 -119 -38q-57 0 -96 21.5t-57 62.5q-8 17 -11.5 35.5t-5 52t-1.5 97.5t1.5 97t5 51t11.5 35q18 41 55.5 62.5t93.5 21.5t94 -21t56 -62q8 -19 12 -39.5t5 -57t1 -111.5h-225
q0 -70 1.5 -91.5t6.5 -32.5q14 -29 51 -29q26 0 39 12q6 6 9.5 13.5zM139 408q-4 -11 -5.5 -26.5t-2.5 -64.5h114q-1 52 -2 67t-5 24q-14 29 -49 29q-36 0 -50 -29zM130 706h121l73 -138h-94l-40 79l-41 -79h-94z" />
    <glyph glyph-name="edieresis" unicode="&#xeb;" horiz-adv-x="377" 
d="M238.5 109.5q3.5 7.5 5 24t1.5 41.5h110q-1 -42 -5 -68.5t-13 -43.5t-26 -33q-41 -38 -119 -38q-57 0 -96 21.5t-57 62.5q-8 17 -11.5 35.5t-5 52t-1.5 97.5t1.5 97t5 51t11.5 35q18 41 55.5 62.5t93.5 21.5t94 -21t56 -62q8 -19 12 -39.5t5 -57t1 -111.5h-225
q0 -70 1.5 -91.5t6.5 -32.5q14 -29 51 -29q26 0 39 12q6 6 9.5 13.5zM139 408q-4 -11 -5.5 -26.5t-2.5 -64.5h114q-1 52 -2 67t-5 24q-14 29 -49 29q-36 0 -50 -29zM70.5 589.5q-16.5 15.5 -16.5 40.5q0 26 16.5 41.5t42.5 15.5q25 0 42 -15.5t17 -41.5q0 -25 -16.5 -40.5
t-42.5 -15.5t-42.5 15.5zM223.5 589.5q-16.5 15.5 -16.5 40.5q0 26 16.5 41.5t42.5 15.5q25 0 41.5 -15.5t16.5 -41.5q0 -25 -16.5 -40.5t-41.5 -15.5q-26 0 -42.5 15.5z" />
    <glyph glyph-name="igrave" unicode="&#xec;" horiz-adv-x="170" 
d="M30 520h110v-520h-110v520zM51 568l-70 138h106l56 -138h-92z" />
    <glyph glyph-name="iacute" unicode="&#xed;" horiz-adv-x="170" 
d="M30 520h110v-520h-110v520zM84 706h106l-70 -138h-92z" />
    <glyph glyph-name="icircumflex" unicode="&#xee;" horiz-adv-x="170" 
d="M30 520h110v-520h-110v520zM31 706h109l55 -138h-78l-31 79l-34 -79h-77z" />
    <glyph glyph-name="idieresis" unicode="&#xef;" horiz-adv-x="170" 
d="M30 520h110v-520h-110v520zM-8.5 590q-13.5 15 -13.5 40q0 26 13.5 41t36.5 15t36.5 -15t13.5 -41t-13.5 -40.5t-36.5 -14.5t-36.5 15zM107.5 590q-13.5 15 -13.5 40q0 26 13.5 41t36.5 15t36.5 -15t13.5 -41t-13.5 -40.5t-36.5 -14.5t-36.5 15z" />
    <glyph glyph-name="eth" unicode="&#xf0;" horiz-adv-x="381" 
d="M345 479.5q10 -34.5 13 -80t3 -138.5q0 -66 -1.5 -100t-5 -52t-11.5 -35q-18 -41 -56 -61.5t-99 -20.5q-57 0 -95 20.5t-56 60.5q-7 16 -10 34t-4.5 50t-1.5 94q0 68 1.5 102.5t4.5 52.5t10 33q14 31 40.5 48.5t66.5 17.5q58 0 94 -36q-10 29 -23 57q-9 20 -24 46
l-138 -48v75l100 35q-17 26 -50 70v2h120q10 -13 17 -22.5t11 -14.5l88 31v-76l-48 -17q14 -24 21 -41q23 -52 33 -86.5zM244.5 133.5q1.5 11.5 2 42.5t0.5 79q0 68 -1.5 91t-6.5 35q-8 16 -19.5 24t-29.5 8q-33 0 -46 -29q-5 -12 -6.5 -34.5t-1.5 -95.5q0 -79 1.5 -103
t5.5 -35q7 -15 19 -22.5t30 -7.5q35 0 47 29q4 7 5.5 18.5z" />
    <glyph glyph-name="ntilde" unicode="&#xf1;" horiz-adv-x="378" 
d="M322.5 496q27.5 -32 27.5 -95v-401h-110v371q0 33 -11.5 47t-35.5 14q-25 0 -39 -16.5t-14 -49.5v-366h-110v520h110v-42q36 50 101 50q54 0 81.5 -32zM210.5 575.5q-15.5 9.5 -29.5 26.5q-12 15 -19 20.5t-16 5.5q-13 0 -18 -13t-7 -47h-64q1 73 18.5 106.5t59.5 33.5
q16 0 28 -5.5t21.5 -14.5t17.5 -18l9.5 -9.5t14 -11t13.5 -3.5q13 0 17.5 13t5.5 47h65q-1 -73 -18.5 -106.5t-59.5 -33.5q-23 0 -38.5 9.5z" />
    <glyph glyph-name="ograve" unicode="&#xf2;" horiz-adv-x="380" 
d="M95 13.5q-38 21.5 -56 62.5q-8 17 -11.5 35.5t-5 51.5t-1.5 97t1.5 97t5 51.5t11.5 35.5q18 41 56 62.5t95 21.5t95 -21.5t56 -62.5q7 -17 11 -36t5.5 -52.5t1.5 -95.5t-1.5 -95.5t-5.5 -52.5t-11 -36q-18 -41 -56 -62.5t-95 -21.5t-95 21.5zM219.5 94q11.5 7 17.5 21
q4 8 5.5 20t2 44t0.5 81t-0.5 81t-2 44t-5.5 20q-6 14 -17.5 21t-29.5 7q-36 0 -47 -28q-4 -8 -5.5 -20t-2.5 -44t-1 -81t1 -81t2.5 -44t5.5 -20q11 -28 47 -28q18 0 29.5 7zM155 568l-78 138h108l65 -138h-95z" />
    <glyph glyph-name="oacute" unicode="&#xf3;" horiz-adv-x="380" 
d="M95 13.5q-38 21.5 -56 62.5q-8 17 -11.5 35.5t-5 51.5t-1.5 97t1.5 97t5 51.5t11.5 35.5q18 41 56 62.5t95 21.5t95 -21.5t56 -62.5q7 -17 11 -36t5.5 -52.5t1.5 -95.5t-1.5 -95.5t-5.5 -52.5t-11 -36q-18 -41 -56 -62.5t-95 -21.5t-95 21.5zM219.5 94q11.5 7 17.5 21
q4 8 5.5 20t2 44t0.5 81t-0.5 81t-2 44t-5.5 20q-6 14 -17.5 21t-29.5 7q-36 0 -47 -28q-4 -8 -5.5 -20t-2.5 -44t-1 -81t1 -81t2.5 -44t5.5 -20q11 -28 47 -28q18 0 29.5 7zM196 706h108l-78 -138h-95z" />
    <glyph glyph-name="ocircumflex" unicode="&#xf4;" horiz-adv-x="380" 
d="M95 13.5q-38 21.5 -56 62.5q-8 17 -11.5 35.5t-5 51.5t-1.5 97t1.5 97t5 51.5t11.5 35.5q18 41 56 62.5t95 21.5t95 -21.5t56 -62.5q7 -17 11 -36t5.5 -52.5t1.5 -95.5t-1.5 -95.5t-5.5 -52.5t-11 -36q-18 -41 -56 -62.5t-95 -21.5t-95 21.5zM219.5 94q11.5 7 17.5 21
q4 8 5.5 20t2 44t0.5 81t-0.5 81t-2 44t-5.5 20q-6 14 -17.5 21t-29.5 7q-36 0 -47 -28q-4 -8 -5.5 -20t-2.5 -44t-1 -81t1 -81t2.5 -44t5.5 -20q11 -28 47 -28q18 0 29.5 7zM131 706h121l73 -138h-94l-40 79l-41 -79h-94z" />
    <glyph glyph-name="otilde" unicode="&#xf5;" horiz-adv-x="380" 
d="M95 13.5q-38 21.5 -56 62.5q-8 17 -11.5 35.5t-5 51.5t-1.5 97t1.5 97t5 51.5t11.5 35.5q18 41 56 62.5t95 21.5t95 -21.5t56 -62.5q7 -17 11 -36t5.5 -52.5t1.5 -95.5t-1.5 -95.5t-5.5 -52.5t-11 -36q-18 -41 -56 -62.5t-95 -21.5t-95 21.5zM219.5 94q11.5 7 17.5 21
q4 8 5.5 20t2 44t0.5 81t-0.5 81t-2 44t-5.5 20q-6 14 -17.5 21t-29.5 7q-36 0 -47 -28q-4 -8 -5.5 -20t-2.5 -44t-1 -81t1 -81t2.5 -44t5.5 -20q11 -28 47 -28q18 0 29.5 7zM208.5 575.5q-15.5 9.5 -29.5 26.5q-12 15 -19 20.5t-16 5.5q-13 0 -18 -13t-7 -47h-64
q1 73 18.5 106.5t59.5 33.5q16 0 28 -5.5t21.5 -14.5t17.5 -18l9.5 -9.5t14 -11t13.5 -3.5q13 0 17.5 13t5.5 47h65q-1 -73 -18.5 -106.5t-59.5 -33.5q-23 0 -38.5 9.5z" />
    <glyph glyph-name="odieresis" unicode="&#xf6;" horiz-adv-x="380" 
d="M95 13.5q-38 21.5 -56 62.5q-8 17 -11.5 35.5t-5 51.5t-1.5 97t1.5 97t5 51.5t11.5 35.5q18 41 56 62.5t95 21.5t95 -21.5t56 -62.5q7 -17 11 -36t5.5 -52.5t1.5 -95.5t-1.5 -95.5t-5.5 -52.5t-11 -36q-18 -41 -56 -62.5t-95 -21.5t-95 21.5zM219.5 94q11.5 7 17.5 21
q4 8 5.5 20t2 44t0.5 81t-0.5 81t-2 44t-5.5 20q-6 14 -17.5 21t-29.5 7q-36 0 -47 -28q-4 -8 -5.5 -20t-2.5 -44t-1 -81t1 -81t2.5 -44t5.5 -20q11 -28 47 -28q18 0 29.5 7zM71.5 589.5q-16.5 15.5 -16.5 40.5q0 26 16.5 41.5t42.5 15.5q25 0 42 -15.5t17 -41.5
q0 -25 -16.5 -40.5t-42.5 -15.5t-42.5 15.5zM224.5 589.5q-16.5 15.5 -16.5 40.5q0 26 16.5 41.5t42.5 15.5q25 0 41.5 -15.5t16.5 -41.5q0 -25 -16.5 -40.5t-41.5 -15.5q-26 0 -42.5 15.5z" />
    <glyph glyph-name="divide" unicode="&#xf7;" horiz-adv-x="388" 
d="M155.5 410q-15.5 15 -15.5 39q0 25 15 39.5t40 14.5q23 0 38 -15t15 -39t-15 -39t-38 -15q-24 0 -39.5 15zM31 347h327v-86h-327v86zM155.5 119q-15.5 15 -15.5 39q0 25 15 39.5t40 14.5q23 0 38 -14.5t15 -39.5q0 -24 -15 -39t-38 -15q-24 0 -39.5 15z" />
    <glyph glyph-name="oslash" unicode="&#xf8;" horiz-adv-x="380" 
d="M341 444q7 -17 11 -36t5.5 -52.5t1.5 -95.5t-1.5 -95.5t-5.5 -52.5t-11 -36q-18 -41 -56 -62.5t-95 -21.5q-73 0 -115 36l-18 -28h-43l36 56q-2 3 -5 8t-6 12q-8 17 -11.5 35.5t-5 51.5t-1.5 97t1.5 97t5 51.5t11.5 35.5q18 41 56 62.5t95 21.5q71 0 114 -35l17 27h43
l-35 -54zM137.5 385q-1.5 -12 -2.5 -44t-1 -81v-69l107 202q-2 9 -4 12q-6 14 -17.5 21t-29.5 7q-36 0 -47 -28q-4 -8 -5.5 -20zM242.5 135q1.5 12 2 44t0.5 81v71l-107 -201q1 -7 5 -15q11 -28 47 -28q18 0 29.5 7t17.5 21q4 8 5.5 20z" />
    <glyph glyph-name="ugrave" unicode="&#xf9;" horiz-adv-x="378" 
d="M348 520v-520h-110v42q-36 -50 -101 -50q-54 0 -81.5 31.5t-27.5 94.5v402h110v-372q0 -32 11.5 -46.5t35.5 -14.5q25 0 39 17t14 50v366h110zM149 568l-78 138h108l65 -138h-95z" />
    <glyph glyph-name="uacute" unicode="&#xfa;" horiz-adv-x="378" 
d="M348 520v-520h-110v42q-36 -50 -101 -50q-54 0 -81.5 31.5t-27.5 94.5v402h110v-372q0 -32 11.5 -46.5t35.5 -14.5q25 0 39 17t14 50v366h110zM190 706h108l-78 -138h-95z" />
    <glyph glyph-name="ucircumflex" unicode="&#xfb;" horiz-adv-x="378" 
d="M348 520v-520h-110v42q-36 -50 -101 -50q-54 0 -81.5 31.5t-27.5 94.5v402h110v-372q0 -32 11.5 -46.5t35.5 -14.5q25 0 39 17t14 50v366h110zM125 706h121l73 -138h-94l-40 79l-41 -79h-94z" />
    <glyph glyph-name="udieresis" unicode="&#xfc;" horiz-adv-x="378" 
d="M348 520v-520h-110v42q-36 -50 -101 -50q-54 0 -81.5 31.5t-27.5 94.5v402h110v-372q0 -32 11.5 -46.5t35.5 -14.5q25 0 39 17t14 50v366h110zM65.5 589.5q-16.5 15.5 -16.5 40.5q0 26 16.5 41.5t42.5 15.5q25 0 42 -15.5t17 -41.5q0 -25 -16.5 -40.5t-42.5 -15.5
t-42.5 15.5zM218.5 589.5q-16.5 15.5 -16.5 40.5q0 26 16.5 41.5t42.5 15.5q25 0 41.5 -15.5t16.5 -41.5q0 -25 -16.5 -40.5t-41.5 -15.5q-26 0 -42.5 15.5z" />
    <glyph glyph-name="yacute" unicode="&#xfd;" horiz-adv-x="362" 
d="M360 520l-129 -520l-47 -170h-108l47 174l-121 516h116l60 -370l69 370h113zM188 706h108l-78 -138h-95z" />
    <glyph glyph-name="thorn" unicode="&#xfe;" horiz-adv-x="387" 
d="M359 426.5q4 -19.5 5.5 -57t1.5 -109.5t-1.5 -109.5t-5 -56.5t-11.5 -36q-14 -31 -41 -48.5t-66 -17.5q-65 0 -101 48v-210h-110v876h110v-226q36 48 101 48q39 0 66 -17t41 -49q7 -16 11 -35.5zM250 155.5q2 27.5 2 104.5q0 78 -2 105.5t-6 38.5q-12 29 -47 29
q-28 0 -42.5 -20t-14.5 -58v-190q0 -38 14.5 -57.5t42.5 -19.5q35 0 47 28q4 12 6 39.5z" />
    <glyph glyph-name="ydieresis" unicode="&#xff;" horiz-adv-x="362" 
d="M360 520l-129 -520l-47 -170h-108l47 174l-121 516h116l60 -370l69 370h113zM63.5 589.5q-16.5 15.5 -16.5 40.5q0 26 16.5 41.5t42.5 15.5q25 0 42 -15.5t17 -41.5q0 -25 -16.5 -40.5t-42.5 -15.5t-42.5 15.5zM216.5 589.5q-16.5 15.5 -16.5 40.5q0 26 16.5 41.5
t42.5 15.5q25 0 41.5 -15.5t16.5 -41.5q0 -25 -16.5 -40.5t-41.5 -15.5q-26 0 -42.5 15.5z" />
    <glyph glyph-name="Amacron" unicode="&#x100;" horiz-adv-x="430" 
d="M293 127h-156l-20 -127h-117l125 706h180l124 -706h-116zM277 227l-61 385h-2l-61 -385h124zM95 842h239v-74h-239v74z" />
    <glyph glyph-name="amacron" unicode="&#x101;" horiz-adv-x="372" 
d="M341 415q3 -26 3 -83v-332h-110v43q-37 -51 -106 -51q-37 0 -62.5 13t-36.5 39q-7 16 -9.5 35t-2.5 64q0 51 2 71t9 35q16 36 54 51t104 15h48v15q0 49 -1 62.5t-5 22.5q-5 11 -15.5 16.5t-27.5 5.5q-35 0 -44 -22q-3 -7 -3.5 -19t-0.5 -35h-109q0 42 2.5 61t10.5 37
q15 34 51.5 51.5t93.5 17.5q58 0 92.5 -16.5t50.5 -51.5q9 -19 12 -45zM226 112q5 10 6.5 29.5t1.5 82.5v12h-36q-27 0 -42.5 -5t-21.5 -18q-3 -6 -3.5 -18.5t-0.5 -35.5q0 -25 1 -37.5t3 -18.5q10 -21 41 -21q38 0 51 30zM78 669h220v-78h-220v78z" />
    <glyph glyph-name="Abreve" unicode="&#x102;" horiz-adv-x="430" 
d="M293 127h-156l-20 -127h-117l125 706h180l124 -706h-116zM277 227l-61 385h-2l-61 -385h124zM89 860h78q1 -29 13 -41.5t35 -12.5q25 0 36 12.5t14 41.5h76q-3 -118 -126 -118t-126 118z" />
    <glyph glyph-name="abreve" unicode="&#x103;" horiz-adv-x="372" 
d="M341 415q3 -26 3 -83v-332h-110v43q-37 -51 -106 -51q-37 0 -62.5 13t-36.5 39q-7 16 -9.5 35t-2.5 64q0 51 2 71t9 35q16 36 54 51t104 15h48v15q0 49 -1 62.5t-5 22.5q-5 11 -15.5 16.5t-27.5 5.5q-35 0 -44 -22q-3 -7 -3.5 -19t-0.5 -35h-109q0 42 2.5 61t10.5 37
q15 34 51.5 51.5t93.5 17.5q58 0 92.5 -16.5t50.5 -51.5q9 -19 12 -45zM226 112q5 10 6.5 29.5t1.5 82.5v12h-36q-27 0 -42.5 -5t-21.5 -18q-3 -6 -3.5 -18.5t-0.5 -35.5q0 -25 1 -37.5t3 -18.5q10 -21 41 -21q38 0 51 30zM93 597q-32 34 -33 109h79q1 -42 12.5 -59
t37.5 -17t37.5 17t12.5 59h78q-1 -75 -32.5 -109t-95.5 -34t-96 34z" />
    <glyph glyph-name="Aogonek" unicode="&#x104;" horiz-adv-x="430" 
d="M433 -104v-66q-24 -10 -56 -10q-45 0 -72 20t-27 57q0 31 18 55t55 48h-38l-20 127h-156l-20 -127h-117l125 706h180l124 -706q-33 -26 -48 -44t-15 -38q0 -15 8.5 -22t24.5 -7q19 0 34 7zM277 227l-61 385h-2l-61 -385h124z" />
    <glyph glyph-name="aogonek" unicode="&#x105;" horiz-adv-x="372" 
d="M347 -104v-66q-24 -10 -56 -10q-45 0 -72 20t-27 57q0 31 18 55t55 48h-31v43q-37 -51 -106 -51q-37 0 -62.5 13t-36.5 39q-7 16 -9.5 35t-2.5 64q0 51 2 71t9 35q16 36 54 51t104 15h48v15q0 49 -1 62.5t-5 22.5q-5 11 -15.5 16.5t-27.5 5.5q-35 0 -44 -22
q-3 -7 -3.5 -19t-0.5 -35h-109q0 42 2.5 61t10.5 37q15 34 51.5 51.5t93.5 17.5q58 0 92.5 -16.5t50.5 -51.5q9 -19 12 -45t3 -83v-332q-33 -26 -48.5 -44t-15.5 -38q0 -15 8.5 -22t24.5 -7q19 0 34 7zM226 112q5 10 6.5 29.5t1.5 82.5v12h-36q-27 0 -42.5 -5t-21.5 -18
q-3 -6 -3.5 -18.5t-0.5 -35.5q0 -25 1 -37.5t3 -18.5q10 -21 41 -21q38 0 51 30z" />
    <glyph glyph-name="Cacute" unicode="&#x106;" horiz-adv-x="445" 
d="M50 94q-10 22 -15 48.5t-7 74.5t-2 136t2 136t7 74.5t15 48.5q48 105 179 105q82 0 134 -46q32 -29 44.5 -72.5t13.5 -120.5h-120q0 39 -2.5 61.5t-7 34t-13.5 19.5q-10 9 -22.5 13.5t-29.5 4.5q-49 0 -68 -42q-5 -12 -7.5 -29.5t-3.5 -65t-1 -121.5t1 -121.5t3.5 -65
t7.5 -29.5q18 -42 69 -42q32 0 52 18q9 8 13.5 19t7 34t2.5 63h120q-1 -77 -14 -121.5t-44 -72.5q-23 -23 -57 -34.5t-77 -11.5q-133 0 -180 105zM241 860h114l-88 -113h-101z" />
    <glyph glyph-name="cacute" unicode="&#x107;" horiz-adv-x="372" 
d="M95.5 13q-37.5 21 -56.5 62q-8 17 -11.5 36t-5 52t-1.5 97t1.5 97t5 52t11.5 35q38 84 150 84q37 0 67 -9.5t51 -28.5q17 -16 26.5 -35t13 -47t4.5 -74h-114q0 32 -2 49t-5 25t-9 14q-13 11 -32 11q-32 0 -46 -28q-3 -8 -4.5 -19t-2 -43.5t-0.5 -82.5t0.5 -82t2 -43.5
t4.5 -19.5q14 -27 46 -27q21 0 31 10q7 6 10 14.5t4.5 28t1.5 56.5h115q-1 -52 -4.5 -82t-12.5 -50t-27 -36q-21 -18 -51 -27.5t-67 -9.5q-56 0 -93.5 21zM194 706h108l-78 -138h-95z" />
    <glyph glyph-name="Ccircumflex" unicode="&#x108;" horiz-adv-x="445" 
d="M50 94q-10 22 -15 48.5t-7 74.5t-2 136t2 136t7 74.5t15 48.5q48 105 179 105q82 0 134 -46q32 -29 44.5 -72.5t13.5 -120.5h-120q0 39 -2.5 61.5t-7 34t-13.5 19.5q-10 9 -22.5 13.5t-29.5 4.5q-49 0 -68 -42q-5 -12 -7.5 -29.5t-3.5 -65t-1 -121.5t1 -121.5t3.5 -65
t7.5 -29.5q18 -42 69 -42q32 0 52 18q9 8 13.5 19t7 34t2.5 63h120q-1 -77 -14 -121.5t-44 -72.5q-23 -23 -57 -34.5t-77 -11.5q-133 0 -180 105zM166 860h127l75 -113h-98l-40 62l-42 -62h-96z" />
    <glyph glyph-name="ccircumflex" unicode="&#x109;" horiz-adv-x="372" 
d="M95.5 13q-37.5 21 -56.5 62q-8 17 -11.5 36t-5 52t-1.5 97t1.5 97t5 52t11.5 35q38 84 150 84q37 0 67 -9.5t51 -28.5q17 -16 26.5 -35t13 -47t4.5 -74h-114q0 32 -2 49t-5 25t-9 14q-13 11 -32 11q-32 0 -46 -28q-3 -8 -4.5 -19t-2 -43.5t-0.5 -82.5t0.5 -82t2 -43.5
t4.5 -19.5q14 -27 46 -27q21 0 31 10q7 6 10 14.5t4.5 28t1.5 56.5h115q-1 -52 -4.5 -82t-12.5 -50t-27 -36q-21 -18 -51 -27.5t-67 -9.5q-56 0 -93.5 21zM130 706h121l73 -138h-94l-40 79l-41 -79h-94z" />
    <glyph glyph-name="Cdotaccent" unicode="&#x10a;" horiz-adv-x="445" 
d="M50 94q-10 22 -15 48.5t-7 74.5t-2 136t2 136t7 74.5t15 48.5q48 105 179 105q82 0 134 -46q32 -29 44.5 -72.5t13.5 -120.5h-120q0 39 -2.5 61.5t-7 34t-13.5 19.5q-10 9 -22.5 13.5t-29.5 4.5q-49 0 -68 -42q-5 -12 -7.5 -29.5t-3.5 -65t-1 -121.5t1 -121.5t3.5 -65
t7.5 -29.5q18 -42 69 -42q32 0 52 18q9 8 13.5 19t7 34t2.5 63h120q-1 -77 -14 -121.5t-44 -72.5q-23 -23 -57 -34.5t-77 -11.5q-133 0 -180 105zM187 767q-17 16 -17 43q0 26 17 41.5t43 15.5t42.5 -15.5t16.5 -41.5q0 -27 -16.5 -43t-42.5 -16t-43 16z" />
    <glyph glyph-name="cdotaccent" unicode="&#x10b;" horiz-adv-x="372" 
d="M95.5 13q-37.5 21 -56.5 62q-8 17 -11.5 36t-5 52t-1.5 97t1.5 97t5 52t11.5 35q38 84 150 84q37 0 67 -9.5t51 -28.5q17 -16 26.5 -35t13 -47t4.5 -74h-114q0 32 -2 49t-5 25t-9 14q-13 11 -32 11q-32 0 -46 -28q-3 -8 -4.5 -19t-2 -43.5t-0.5 -82.5t0.5 -82t2 -43.5
t4.5 -19.5q14 -27 46 -27q21 0 31 10q7 6 10 14.5t4.5 28t1.5 56.5h115q-1 -52 -4.5 -82t-12.5 -50t-27 -36q-21 -18 -51 -27.5t-67 -9.5q-56 0 -93.5 21zM144.5 592.5q-17.5 16.5 -17.5 42.5q0 27 17.5 43t44.5 16q26 0 43.5 -16.5t17.5 -42.5t-17.5 -42.5t-43.5 -16.5
q-27 0 -44.5 16.5z" />
    <glyph glyph-name="Ccaron" unicode="&#x10c;" horiz-adv-x="445" 
d="M50 94q-10 22 -15 48.5t-7 74.5t-2 136t2 136t7 74.5t15 48.5q48 105 179 105q82 0 134 -46q32 -29 44.5 -72.5t13.5 -120.5h-120q0 39 -2.5 61.5t-7 34t-13.5 19.5q-10 9 -22.5 13.5t-29.5 4.5q-49 0 -68 -42q-5 -12 -7.5 -29.5t-3.5 -65t-1 -121.5t1 -121.5t3.5 -65
t7.5 -29.5q18 -42 69 -42q32 0 52 18q9 8 13.5 19t7 34t2.5 63h120q-1 -77 -14 -121.5t-44 -72.5q-23 -23 -57 -34.5t-77 -11.5q-133 0 -180 105zM293 747h-127l-75 112h98l40 -62l42 62h96z" />
    <glyph glyph-name="ccaron" unicode="&#x10d;" horiz-adv-x="372" 
d="M95.5 13q-37.5 21 -56.5 62q-8 17 -11.5 36t-5 52t-1.5 97t1.5 97t5 52t11.5 35q38 84 150 84q37 0 67 -9.5t51 -28.5q17 -16 26.5 -35t13 -47t4.5 -74h-114q0 32 -2 49t-5 25t-9 14q-13 11 -32 11q-32 0 -46 -28q-3 -8 -4.5 -19t-2 -43.5t-0.5 -82.5t0.5 -82t2 -43.5
t4.5 -19.5q14 -27 46 -27q21 0 31 10q7 6 10 14.5t4.5 28t1.5 56.5h115q-1 -52 -4.5 -82t-12.5 -50t-27 -36q-21 -18 -51 -27.5t-67 -9.5q-56 0 -93.5 21zM249 568h-120l-74 138h94l40 -79l42 79h93z" />
    <glyph glyph-name="Dcaron" unicode="&#x10e;" horiz-adv-x="440" 
d="M35 706h173q69 0 115 -26t68 -76q10 -21 14.5 -44.5t6.5 -70t2 -136.5t-2 -136.5t-6.5 -70t-14.5 -44.5q-22 -50 -68 -76t-115 -26h-173v706zM196 103q34 0 54.5 11.5t31.5 34.5q5 12 7.5 27.5t3.5 60t1 114.5q0 72 -1 117t-3.5 61t-7.5 28q-11 23 -31.5 34.5t-54.5 11.5
h-45v-500h45zM270 747h-127l-75 112h98l40 -62l42 62h96z" />
    <glyph glyph-name="dcaron" unicode="&#x10f;" horiz-adv-x="470" 
d="M357 706v-706h-108v42q-36 -50 -103 -50q-39 0 -66 17.5t-41 48.5q-8 17 -11.5 36t-5 56.5t-1.5 109.5t1.5 109.5t5.5 57t11 35.5q14 32 41 49t66 17q65 0 101 -47v225h110zM248 355q0 38 -15 58t-43 20q-33 0 -47 -29q-4 -11 -6 -38.5t-2 -105.5t2 -105.5t6 -38.5
q14 -29 47 -29q28 0 43 20t15 58v190zM393 706h82l-26 -151h-72z" />
    <glyph glyph-name="Dcroat" unicode="&#x110;" horiz-adv-x="445" 
d="M410.5 559.5q4.5 -23.5 6.5 -70t2 -136.5t-2 -136.5t-6.5 -70t-14.5 -44.5q-22 -50 -68 -76t-115 -26h-173v324h-40v95h40v287h173q69 0 115 -26t68 -76q10 -21 14.5 -44.5zM294.5 176.5q2.5 15.5 3.5 60t1 114.5q0 72 -1 117t-3.5 61t-7.5 28q-11 23 -31.5 34.5
t-54.5 11.5h-45v-184h76v-95h-76v-221h45q34 0 54.5 11.5t31.5 34.5q5 12 7.5 27.5z" />
    <glyph glyph-name="dcroat" unicode="&#x111;" horiz-adv-x="387" 
d="M388 577h-31v-577h-108v42q-36 -50 -103 -50q-39 0 -66 17.5t-41 48.5q-8 17 -11.5 36t-5 56.5t-1.5 109.5t1.5 109.5t5.5 57t11 35.5q14 32 41 49t66 17q65 0 101 -47v96h-130v72h130v57h110v-57h31v-72zM248 355q0 38 -15 58t-43 20q-33 0 -47 -29q-4 -11 -6 -38.5
t-2 -105.5t2 -105.5t6 -38.5q14 -29 47 -29q28 0 43 20t15 58v190z" />
    <glyph glyph-name="Emacron" unicode="&#x112;" horiz-adv-x="327" 
d="M35 706h272v-105h-156v-176h153v-104h-153v-216h156v-105h-272v706zM52 842h239v-74h-239v74z" />
    <glyph glyph-name="emacron" unicode="&#x113;" horiz-adv-x="377" 
d="M238.5 109.5q3.5 7.5 5 24t1.5 41.5h110q-1 -42 -5 -68.5t-13 -43.5t-26 -33q-41 -38 -119 -38q-57 0 -96 21.5t-57 62.5q-8 17 -11.5 35.5t-5 52t-1.5 97.5t1.5 97t5 51t11.5 35q18 41 55.5 62.5t93.5 21.5t94 -21t56 -62q8 -19 12 -39.5t5 -57t1 -111.5h-225
q0 -70 1.5 -91.5t6.5 -32.5q14 -29 51 -29q26 0 39 12q6 6 9.5 13.5zM139 408q-4 -11 -5.5 -26.5t-2.5 -64.5h114q-1 52 -2 67t-5 24q-14 29 -49 29q-36 0 -50 -29zM79 669h220v-78h-220v78z" />
    <glyph glyph-name="Ebreve" unicode="&#x114;" horiz-adv-x="327" 
d="M35 706h272v-105h-156v-176h153v-104h-153v-216h156v-105h-272v706zM46 860h78q1 -29 13 -41.5t35 -12.5q25 0 36 12.5t14 41.5h76q-3 -118 -126 -118t-126 118z" />
    <glyph glyph-name="ebreve" unicode="&#x115;" horiz-adv-x="377" 
d="M238.5 109.5q3.5 7.5 5 24t1.5 41.5h110q-1 -42 -5 -68.5t-13 -43.5t-26 -33q-41 -38 -119 -38q-57 0 -96 21.5t-57 62.5q-8 17 -11.5 35.5t-5 52t-1.5 97.5t1.5 97t5 51t11.5 35q18 41 55.5 62.5t93.5 21.5t94 -21t56 -62q8 -19 12 -39.5t5 -57t1 -111.5h-225
q0 -70 1.5 -91.5t6.5 -32.5q14 -29 51 -29q26 0 39 12q6 6 9.5 13.5zM139 408q-4 -11 -5.5 -26.5t-2.5 -64.5h114q-1 52 -2 67t-5 24q-14 29 -49 29q-36 0 -50 -29zM94 597q-32 34 -33 109h79q1 -42 12.5 -59t37.5 -17t37.5 17t12.5 59h78q-1 -75 -32.5 -109t-95.5 -34
t-96 34z" />
    <glyph glyph-name="Edotaccent" unicode="&#x116;" horiz-adv-x="327" 
d="M35 706h272v-105h-156v-176h153v-104h-153v-216h156v-105h-272v706zM129 767q-17 16 -17 43q0 26 17 41.5t43 15.5t42.5 -15.5t16.5 -41.5q0 -27 -16.5 -43t-42.5 -16t-43 16z" />
    <glyph glyph-name="edotaccent" unicode="&#x117;" horiz-adv-x="377" 
d="M238.5 109.5q3.5 7.5 5 24t1.5 41.5h110q-1 -42 -5 -68.5t-13 -43.5t-26 -33q-41 -38 -119 -38q-57 0 -96 21.5t-57 62.5q-8 17 -11.5 35.5t-5 52t-1.5 97.5t1.5 97t5 51t11.5 35q18 41 55.5 62.5t93.5 21.5t94 -21t56 -62q8 -19 12 -39.5t5 -57t1 -111.5h-225
q0 -70 1.5 -91.5t6.5 -32.5q14 -29 51 -29q26 0 39 12q6 6 9.5 13.5zM139 408q-4 -11 -5.5 -26.5t-2.5 -64.5h114q-1 52 -2 67t-5 24q-14 29 -49 29q-36 0 -50 -29zM145.5 592.5q-17.5 16.5 -17.5 42.5q0 27 17.5 43t44.5 16q26 0 43.5 -16.5t17.5 -42.5t-17.5 -42.5
t-43.5 -16.5q-27 0 -44.5 16.5z" />
    <glyph glyph-name="Eogonek" unicode="&#x118;" horiz-adv-x="327" 
d="M311 -104v-66q-24 -10 -56 -10q-45 0 -72 20t-27 57q0 31 18 55t55 48h-194v706h272v-105h-156v-176h153v-104h-153v-216h156v-105q-33 -26 -48 -44t-15 -38q0 -15 8.5 -22t24.5 -7q19 0 34 7z" />
    <glyph glyph-name="eogonek" unicode="&#x119;" horiz-adv-x="378" 
d="M239 109.5q3 7.5 4.5 24t1.5 41.5h111q-1 -45 -6 -72t-17.5 -48t-36.5 -43q-33 -32 -47 -50t-14 -38q0 -17 9 -26t25 -9q19 0 33 7v-66q-24 -10 -56 -10q-45 0 -71.5 21.5t-26.5 61.5q0 27 12 48t36 41h-4q-57 0 -96 21.5t-57 62.5q-7 17 -11 36t-5.5 52.5t-1.5 96.5
t1.5 96t5 51.5t11.5 35.5q37 84 150 84q56 0 93.5 -21t56.5 -62q8 -19 12 -39.5t5 -57t1 -111.5h-225q0 -70 1.5 -91.5t6.5 -32.5q12 -29 51 -29q26 0 39 12q6 6 9 13.5zM140 408q-5 -10 -6 -25t-2 -66h114q-1 50 -2.5 65.5t-5.5 25.5q-14 29 -48 29q-38 0 -50 -29z" />
    <glyph glyph-name="Ecaron" unicode="&#x11a;" horiz-adv-x="327" 
d="M35 706h272v-105h-156v-176h153v-104h-153v-216h156v-105h-272v706zM236 747h-127l-75 112h98l40 -62l42 62h96z" />
    <glyph glyph-name="ecaron" unicode="&#x11b;" horiz-adv-x="377" 
d="M238.5 109.5q3.5 7.5 5 24t1.5 41.5h110q-1 -42 -5 -68.5t-13 -43.5t-26 -33q-41 -38 -119 -38q-57 0 -96 21.5t-57 62.5q-8 17 -11.5 35.5t-5 52t-1.5 97.5t1.5 97t5 51t11.5 35q18 41 55.5 62.5t93.5 21.5t94 -21t56 -62q8 -19 12 -39.5t5 -57t1 -111.5h-225
q0 -70 1.5 -91.5t6.5 -32.5q14 -29 51 -29q26 0 39 12q6 6 9.5 13.5zM139 408q-4 -11 -5.5 -26.5t-2.5 -64.5h114q-1 52 -2 67t-5 24q-14 29 -49 29q-36 0 -50 -29zM249 568h-120l-74 138h94l40 -79l42 79h93z" />
    <glyph glyph-name="Gcircumflex" unicode="&#x11c;" horiz-adv-x="449" 
d="M423 365v-48q0 -76 -2 -118t-7 -66t-15 -45q-23 -50 -65 -74.5t-105 -24.5q-131 0 -179 106q-10 22 -15 48t-7 73.5t-2 136.5t2 136.5t7 73.5t15 48q48 106 180 106q83 0 133 -44q31 -29 43 -71t13 -118h-116q-1 52 -5.5 75.5t-17.5 35.5q-19 17 -52 17q-25 0 -43 -11
t-27 -32q-5 -12 -7.5 -29t-3.5 -65t-1 -122q0 -75 1 -122t3.5 -64.5t7.5 -29.5q18 -43 73 -43q50 0 68 39q4 8 5.5 18.5t2 39.5t0.5 74h-76v100h192zM165 860h127l75 -113h-98l-40 62l-42 -62h-96z" />
    <glyph glyph-name="gcircumflex" unicode="&#x11d;" horiz-adv-x="387" 
d="M357 520v-499q0 -53 -3.5 -79t-12.5 -46q-18 -39 -55 -57.5t-96 -18.5q-82 0 -124 36q-20 19 -29 44.5t-11 63.5h111q0 -18 3 -28t11 -17q15 -13 41 -13q38 0 50 28q3 8 4 23.5t1 46.5v38q-36 -48 -102 -48q-76 0 -106 64q-8 17 -11.5 36.5t-5 56.5t-1.5 109
q0 73 1.5 110.5t5 56.5t11.5 36q14 31 40.5 48t65.5 17q67 0 104 -52v44h108zM233 108q15 20 15 57v191q0 37 -15 57t-43 20q-35 0 -47 -29q-5 -10 -6.5 -37t-1.5 -106q0 -81 1.5 -107.5t6.5 -37.5q12 -28 47 -28q28 0 43 20zM133 706h121l73 -138h-94l-40 79l-41 -79h-94z
" />
    <glyph glyph-name="Gbreve" unicode="&#x11e;" horiz-adv-x="449" 
d="M423 365v-48q0 -76 -2 -118t-7 -66t-15 -45q-23 -50 -65 -74.5t-105 -24.5q-131 0 -179 106q-10 22 -15 48t-7 73.5t-2 136.5t2 136.5t7 73.5t15 48q48 106 180 106q83 0 133 -44q31 -29 43 -71t13 -118h-116q-1 52 -5.5 75.5t-17.5 35.5q-19 17 -52 17q-25 0 -43 -11
t-27 -32q-5 -12 -7.5 -29t-3.5 -65t-1 -122q0 -75 1 -122t3.5 -64.5t7.5 -29.5q18 -43 73 -43q50 0 68 39q4 8 5.5 18.5t2 39.5t0.5 74h-76v100h192zM103 860h78q1 -29 13 -41.5t35 -12.5q25 0 36 12.5t14 41.5h76q-3 -118 -126 -118t-126 118z" />
    <glyph glyph-name="gbreve" unicode="&#x11f;" horiz-adv-x="387" 
d="M357 520v-499q0 -53 -3.5 -79t-12.5 -46q-18 -39 -55 -57.5t-96 -18.5q-82 0 -124 36q-20 19 -29 44.5t-11 63.5h111q0 -18 3 -28t11 -17q15 -13 41 -13q38 0 50 28q3 8 4 23.5t1 46.5v38q-36 -48 -102 -48q-76 0 -106 64q-8 17 -11.5 36.5t-5 56.5t-1.5 109
q0 73 1.5 110.5t5 56.5t11.5 36q14 31 40.5 48t65.5 17q67 0 104 -52v44h108zM233 108q15 20 15 57v191q0 37 -15 57t-43 20q-35 0 -47 -29q-5 -10 -6.5 -37t-1.5 -106q0 -81 1.5 -107.5t6.5 -37.5q12 -28 47 -28q28 0 43 20zM97 597q-32 34 -33 109h79q1 -42 12.5 -59
t37.5 -17t37.5 17t12.5 59h78q-1 -75 -32.5 -109t-95.5 -34t-96 34z" />
    <glyph glyph-name="Gdotaccent" unicode="&#x120;" horiz-adv-x="449" 
d="M423 365v-48q0 -76 -2 -118t-7 -66t-15 -45q-23 -50 -65 -74.5t-105 -24.5q-131 0 -179 106q-10 22 -15 48t-7 73.5t-2 136.5t2 136.5t7 73.5t15 48q48 106 180 106q83 0 133 -44q31 -29 43 -71t13 -118h-116q-1 52 -5.5 75.5t-17.5 35.5q-19 17 -52 17q-25 0 -43 -11
t-27 -32q-5 -12 -7.5 -29t-3.5 -65t-1 -122q0 -75 1 -122t3.5 -64.5t7.5 -29.5q18 -43 73 -43q50 0 68 39q4 8 5.5 18.5t2 39.5t0.5 74h-76v100h192zM186 767q-17 16 -17 43q0 26 17 41.5t43 15.5t42.5 -15.5t16.5 -41.5q0 -27 -16.5 -43t-42.5 -16t-43 16z" />
    <glyph glyph-name="gdotaccent" unicode="&#x121;" horiz-adv-x="387" 
d="M357 520v-499q0 -53 -3.5 -79t-12.5 -46q-18 -39 -55 -57.5t-96 -18.5q-82 0 -124 36q-20 19 -29 44.5t-11 63.5h111q0 -18 3 -28t11 -17q15 -13 41 -13q38 0 50 28q3 8 4 23.5t1 46.5v38q-36 -48 -102 -48q-76 0 -106 64q-8 17 -11.5 36.5t-5 56.5t-1.5 109
q0 73 1.5 110.5t5 56.5t11.5 36q14 31 40.5 48t65.5 17q67 0 104 -52v44h108zM233 108q15 20 15 57v191q0 37 -15 57t-43 20q-35 0 -47 -29q-5 -10 -6.5 -37t-1.5 -106q0 -81 1.5 -107.5t6.5 -37.5q12 -28 47 -28q28 0 43 20zM147.5 592.5q-17.5 16.5 -17.5 42.5
q0 27 17.5 43t44.5 16q26 0 43.5 -16.5t17.5 -42.5t-17.5 -42.5t-43.5 -16.5q-27 0 -44.5 16.5z" />
    <glyph glyph-name="Gcommaaccent" unicode="&#x122;" horiz-adv-x="449" 
d="M423 365v-48q0 -76 -2 -118t-7 -66t-15 -45q-23 -50 -65 -74.5t-105 -24.5q-131 0 -179 106q-10 22 -15 48t-7 73.5t-2 136.5t2 136.5t7 73.5t15 48q48 106 180 106q83 0 133 -44q31 -29 43 -71t13 -118h-116q-1 52 -5.5 75.5t-17.5 35.5q-19 17 -52 17q-25 0 -43 -11
t-27 -32q-5 -12 -7.5 -29t-3.5 -65t-1 -122q0 -75 1 -122t3.5 -64.5t7.5 -29.5q18 -43 73 -43q50 0 68 39q4 8 5.5 18.5t2 39.5t0.5 74h-76v100h192zM173 -41h110l-32 -129h-102z" />
    <glyph glyph-name="gcommaaccent" unicode="&#x123;" horiz-adv-x="387" 
d="M357 520v-499q0 -53 -3.5 -79t-12.5 -46q-18 -39 -55 -57.5t-96 -18.5q-82 0 -124 36q-20 19 -29 44.5t-11 63.5h111q0 -18 3 -28t11 -17q15 -13 41 -13q38 0 50 28q3 8 4 23.5t1 46.5v38q-36 -48 -102 -48q-76 0 -106 64q-8 17 -11.5 36.5t-5 56.5t-1.5 109
q0 73 1.5 110.5t5 56.5t11.5 36q14 31 40.5 48t65.5 17q67 0 104 -52v44h108zM233 108q15 20 15 57v191q0 37 -15 57t-43 20q-35 0 -47 -29q-5 -10 -6.5 -37t-1.5 -106q0 -81 1.5 -107.5t6.5 -37.5q12 -28 47 -28q28 0 43 20zM227 574h-110l33 129h101z" />
    <glyph glyph-name="Hcircumflex" unicode="&#x124;" horiz-adv-x="438" 
d="M35 706h116v-281h136v281h116v-706h-116v320h-136v-320h-116v706zM155 860h127l75 -113h-98l-40 62l-42 -62h-96z" />
    <glyph glyph-name="hcircumflex" unicode="&#x125;" horiz-adv-x="378" 
d="M322 496q28 -32 28 -95v-401h-110v371q0 33 -11.5 47t-35.5 14q-25 0 -39 -16.5t-14 -49.5v-366h-110v706h110v-228q36 50 101 50q53 0 81 -32zM127 860h127l75 -113h-98l-40 62l-42 -62h-96z" />
    <glyph glyph-name="Hbar" unicode="&#x126;" horiz-adv-x="438" 
d="M403 706v-706h-116v320h-136v-320h-116v706h116v-106h136v106h116zM287 425v103h-136v-103h136z" />
    <glyph glyph-name="hbar" unicode="&#x127;" horiz-adv-x="378" 
d="M322 496q28 -32 28 -95v-401h-110v371q0 33 -11.5 47t-35.5 14q-25 0 -39 -16.5t-14 -49.5v-366h-110v577h-29v72h29v57h110v-57h132v-72h-132v-99q36 50 101 50q53 0 81 -32z" />
    <glyph glyph-name="Itilde" unicode="&#x128;" horiz-adv-x="186" 
d="M35 706h116v-706h-116v706zM109.5 751.5q-12.5 6.5 -25.5 19.5q-11 10 -17 14t-13 4q-10 0 -14 -9.5t-6 -32.5h-58q1 58 18 86t53 28q20 0 32.5 -7t25.5 -20q7 -7 14 -12t14 -5q10 0 14 9t6 34h58q-1 -60 -17.5 -87.5t-52.5 -27.5q-19 0 -31.5 6.5z" />
    <glyph glyph-name="itilde" unicode="&#x129;" horiz-adv-x="170" 
d="M30 520h110v-520h-110v520zM98.5 572.5q-10.5 6.5 -16.5 15t-12 21.5q-6 12 -10 17t-9 5q-9 0 -11.5 -13.5t-2.5 -49.5h-59q0 50 5.5 80t19.5 45t40 15q24 0 36 -11t21 -31q5 -12 9.5 -17.5t9.5 -5.5q8 0 10.5 13t3.5 50h59q-1 -51 -6.5 -80.5t-19.5 -44.5t-40 -15
q-17 0 -27.5 6.5z" />
    <glyph glyph-name="Imacron" unicode="&#x12a;" horiz-adv-x="186" 
d="M35 706h116v-706h-116v706zM-3 842h192v-75h-192v75z" />
    <glyph glyph-name="imacron" unicode="&#x12b;" horiz-adv-x="170" 
d="M30 520h110v-520h-110v520zM-7 669h185v-78h-185v78z" />
    <glyph glyph-name="Ibreve" unicode="&#x12c;" horiz-adv-x="186" 
d="M35 706h116v-706h-116v706zM10 770.5q-27 28.5 -27 89.5h73q2 -30 10 -42.5t27 -12.5t26.5 12.5t8.5 42.5h74q0 -61 -27 -89.5t-82 -28.5q-56 0 -83 28.5z" />
    <glyph glyph-name="ibreve" unicode="&#x12d;" horiz-adv-x="170" 
d="M30 520h110v-520h-110v520zM7 596.5q-25 33.5 -25 109.5h70q0 -30 3.5 -46.5t10.5 -23t20 -6.5t20 6.5t10 23t3 46.5h70q0 -76 -24.5 -109.5t-78.5 -33.5t-79 33.5z" />
    <glyph glyph-name="Iogonek" unicode="&#x12e;" horiz-adv-x="186" 
d="M156 -105v-65q-21 -10 -49 -10q-42 0 -66.5 19t-24.5 54q0 32 14.5 56.5t42.5 50.5h-38v706h116v-706q-25 -26 -36.5 -45.5t-11.5 -41.5q0 -24 26 -24q15 0 27 6z" />
    <glyph glyph-name="iogonek" unicode="&#x12f;" horiz-adv-x="170" 
d="M41 592.5q-18 16.5 -18 43.5t17.5 43.5t45.5 16.5q27 0 44.5 -16.5t17.5 -43.5t-17.5 -43.5t-44.5 -16.5t-45 16.5zM118 -111q14 0 27 6v-65q-21 -10 -50 -10q-41 0 -65.5 19t-24.5 54q0 32 14.5 56.5t42.5 50.5h-32v520h110v-520q-25 -26 -36.5 -45.5t-11.5 -41.5
q0 -24 26 -24z" />
    <glyph glyph-name="Idotaccent" unicode="&#x130;" horiz-adv-x="186" 
d="M35 706h116v-706h-116v706zM50 767q-17 16 -17 43q0 26 17 41.5t43 15.5t42.5 -15.5t16.5 -41.5q0 -27 -16.5 -43t-42.5 -16t-43 16z" />
    <glyph glyph-name="dotlessi" unicode="&#x131;" horiz-adv-x="170" 
d="M30 520h110v-520h-110v520z" />
    <glyph glyph-name="IJ" unicode="&#x132;" horiz-adv-x="412" 
d="M35 706h116v-706h-116v706zM191 0v109q14 -2 22 -2q29 0 40.5 14.5t11.5 49.5v535h116v-556q0 -79 -34 -115.5t-110 -36.5q-14 0 -46 2z" />
    <glyph glyph-name="ij" unicode="&#x133;" horiz-adv-x="345" 
d="M41 592.5q-18 16.5 -18 43.5t17.5 43.5t45.5 16.5q27 0 44.5 -16.5t17.5 -43.5t-17.5 -43.5t-44.5 -16.5t-45 16.5zM30 520h110v-520h-110v520zM215 592.5q-18 16.5 -18 43.5t17.5 43.5t45.5 16.5q27 0 44.5 -16.5t17.5 -43.5t-17.5 -43.5t-44.5 -16.5t-45 16.5z
M147 -170v98q9 -1 20 -1q21 0 29.5 10t8.5 34v549h110v-569q0 -65 -30 -94t-94 -29q-30 0 -44 2z" />
    <glyph glyph-name="Jcircumflex" unicode="&#x134;" horiz-adv-x="226" 
d="M5 0v109q14 -2 22 -2q29 0 40.5 14.5t11.5 49.5v535h116v-556q0 -79 -34 -115.5t-110 -36.5q-14 0 -46 2zM77 860h122l61 -113h-91l-31 60l-31 -60h-92z" />
    <glyph glyph-name="jcircumflex" unicode="&#x135;" horiz-adv-x="175" 
d="M-23 -170v98q9 -1 20 -1q21 0 29.5 10t8.5 34v549h110v-569q0 -65 -30 -94t-94 -29q-30 0 -44 2zM34 706h109l55 -138h-78l-31 79l-34 -79h-77z" />
    <glyph glyph-name="Kcommaaccent" unicode="&#x136;" horiz-adv-x="420" 
d="M291 0l-140 333v-333h-116v706h116v-279l120 279h126l-142 -323l165 -383h-129zM160 -41h110l-32 -129h-102z" />
    <glyph glyph-name="kcommaaccent" unicode="&#x137;" horiz-adv-x="366" 
d="M242 0l-102 242v-242h-110v706h110v-381l89 195h127l-114 -236l128 -284h-128zM133 -41h110l-32 -129h-102z" />
    <glyph glyph-name="kgreenlandic" unicode="&#x138;" horiz-adv-x="366" 
d="M242 0l-102 242v-242h-110v520h110v-195l89 195h127l-114 -236l128 -284h-128z" />
    <glyph glyph-name="Lacute" unicode="&#x139;" horiz-adv-x="266" 
d="M35 706h116v-600h110v-106h-226v706zM109 860h114l-88 -113h-101z" />
    <glyph glyph-name="lacute" unicode="&#x13a;" horiz-adv-x="170" 
d="M30 706h110v-706h-110v706zM97 860h114l-88 -113h-101z" />
    <glyph glyph-name="Lcommaaccent" unicode="&#x13b;" horiz-adv-x="266" 
d="M35 706h116v-600h110v-106h-226v706zM92 -41h110l-32 -129h-102z" />
    <glyph glyph-name="lcommaaccent" unicode="&#x13c;" horiz-adv-x="170" 
d="M30 706h110v-706h-110v706zM30 -41h110l-32 -129h-102z" />
    <glyph glyph-name="Lcaron" unicode="&#x13d;" horiz-adv-x="288" 
d="M35 706h116v-600h110v-106h-226v706zM194 706h82l-26 -151h-72z" />
    <glyph glyph-name="lcaron" unicode="&#x13e;" horiz-adv-x="253" 
d="M30 706h110v-706h-110v706zM176 706h82l-26 -151h-72z" />
    <glyph glyph-name="Ldot" unicode="&#x13f;" horiz-adv-x="348" 
d="M35 706h116v-600h110v-106h-226v706zM217.5 347.5q-18.5 17.5 -18.5 46.5q0 30 18.5 48t48.5 18q29 0 47 -18t18 -48q0 -29 -18 -46.5t-47 -17.5q-30 0 -48.5 17.5z" />
    <glyph glyph-name="ldot" unicode="&#x140;" horiz-adv-x="320" 
d="M30 706h110v-706h-110v706zM197.5 322.5q-18.5 17.5 -18.5 46.5q0 30 18.5 48t48.5 18q29 0 47 -18t18 -48q0 -29 -18 -46.5t-47 -17.5q-30 0 -48.5 17.5z" />
    <glyph glyph-name="Lslash" unicode="&#x141;" horiz-adv-x="272" 
d="M266 106v-106h-226v302l-40 -27v104l40 27v300h116v-238l81 56v-105l-81 -56v-257h110z" />
    <glyph glyph-name="lslash" unicode="&#x142;" horiz-adv-x="198" 
d="M198 397l-48 -36v-361h-110v300l-41 -29v90l41 30v315h110v-253l48 35v-91z" />
    <glyph glyph-name="Nacute" unicode="&#x143;" horiz-adv-x="465" 
d="M35 706h115l168 -442v442h112v-706h-113l-170 454v-454h-112v706zM243 860h114l-88 -113h-101z" />
    <glyph glyph-name="nacute" unicode="&#x144;" horiz-adv-x="378" 
d="M322.5 496q27.5 -32 27.5 -95v-401h-110v371q0 33 -11.5 47t-35.5 14q-25 0 -39 -16.5t-14 -49.5v-366h-110v520h110v-42q36 50 101 50q54 0 81.5 -32zM198 706h108l-78 -138h-95z" />
    <glyph glyph-name="Ncommaaccent" unicode="&#x145;" horiz-adv-x="465" 
d="M35 706h115l168 -442v442h112v-706h-113l-170 454v-454h-112v706zM182 -41h110l-32 -129h-102z" />
    <glyph glyph-name="ncommaaccent" unicode="&#x146;" horiz-adv-x="378" 
d="M322.5 496q27.5 -32 27.5 -95v-401h-110v371q0 33 -11.5 47t-35.5 14q-25 0 -39 -16.5t-14 -49.5v-366h-110v520h110v-42q36 50 101 50q54 0 81.5 -32zM138 -41h110l-32 -129h-102z" />
    <glyph glyph-name="Ncaron" unicode="&#x147;" horiz-adv-x="465" 
d="M35 706h115l168 -442v442h112v-706h-113l-170 454v-454h-112v706zM296 747h-127l-75 112h98l40 -62l42 62h96z" />
    <glyph glyph-name="ncaron" unicode="&#x148;" horiz-adv-x="378" 
d="M322.5 496q27.5 -32 27.5 -95v-401h-110v371q0 33 -11.5 47t-35.5 14q-25 0 -39 -16.5t-14 -49.5v-366h-110v520h110v-42q36 50 101 50q54 0 81.5 -32zM252 568h-120l-74 138h94l40 -79l42 79h93z" />
    <glyph glyph-name="napostrophe" unicode="&#x149;" horiz-adv-x="518" 
d="M62 706h109l-68 -260h-84zM462.5 496q27.5 -32 27.5 -95v-401h-110v371q0 33 -11.5 47t-35.5 14q-25 0 -39 -16.5t-14 -49.5v-366h-110v520h110v-42q36 50 101 50q54 0 81.5 -32z" />
    <glyph glyph-name="Eng" unicode="&#x14a;" horiz-adv-x="465" 
d="M430 706v-758q0 -64 -29.5 -92t-93.5 -28q-31 0 -47 2v95q8 -1 20 -1q20 0 29.5 11.5t9.5 36.5v47l-172 440v-459h-112v706h115l168 -432v432h112z" />
    <glyph glyph-name="eng" unicode="&#x14b;" horiz-adv-x="378" 
d="M322.5 496q27.5 -32 27.5 -95v-450q0 -65 -30 -94t-94 -29q-29 0 -44 2v98q9 -1 20 -1q21 0 29.5 10t8.5 34v400q0 33 -11 47t-36 14t-39 -16.5t-14 -49.5v-366h-110v520h110v-42q36 50 101 50q54 0 81.5 -32z" />
    <glyph glyph-name="Omacron" unicode="&#x14c;" horiz-adv-x="458" 
d="M126.5 10.5q-42.5 22.5 -65.5 66.5q-14 23 -21 52.5t-10.5 81t-3.5 142.5q0 87 2.5 135t7.5 75t15 50q23 51 67.5 78t110.5 27t110.5 -27t67.5 -78q10 -23 15 -50t7.5 -75t2.5 -135t-2.5 -135t-7.5 -75t-15 -50q-23 -51 -67.5 -78t-110.5 -27q-60 0 -102.5 22.5zM300 140
q5 12 7.5 29t3.5 64t1 120t-1 120t-3.5 64t-7.5 29q-19 44 -71 44t-71 -44q-5 -12 -7.5 -29t-3.5 -64t-1 -120t1 -120t3.5 -64t7.5 -29q19 -44 71 -44t71 44zM109 842h239v-74h-239v74z" />
    <glyph glyph-name="omacron" unicode="&#x14d;" horiz-adv-x="380" 
d="M95 13.5q-38 21.5 -56 62.5q-8 17 -11.5 35.5t-5 51.5t-1.5 97t1.5 97t5 51.5t11.5 35.5q18 41 56 62.5t95 21.5t95 -21.5t56 -62.5q7 -17 11 -36t5.5 -52.5t1.5 -95.5t-1.5 -95.5t-5.5 -52.5t-11 -36q-18 -41 -56 -62.5t-95 -21.5t-95 21.5zM219.5 94q11.5 7 17.5 21
q4 8 5.5 20t2 44t0.5 81t-0.5 81t-2 44t-5.5 20q-6 14 -17.5 21t-29.5 7q-36 0 -47 -28q-4 -8 -5.5 -20t-2.5 -44t-1 -81t1 -81t2.5 -44t5.5 -20q11 -28 47 -28q18 0 29.5 7zM80 669h220v-78h-220v78z" />
    <glyph glyph-name="Obreve" unicode="&#x14e;" horiz-adv-x="458" 
d="M126.5 10.5q-42.5 22.5 -65.5 66.5q-14 23 -21 52.5t-10.5 81t-3.5 142.5q0 87 2.5 135t7.5 75t15 50q23 51 67.5 78t110.5 27t110.5 -27t67.5 -78q10 -23 15 -50t7.5 -75t2.5 -135t-2.5 -135t-7.5 -75t-15 -50q-23 -51 -67.5 -78t-110.5 -27q-60 0 -102.5 22.5zM300 140
q5 12 7.5 29t3.5 64t1 120t-1 120t-3.5 64t-7.5 29q-19 44 -71 44t-71 -44q-5 -12 -7.5 -29t-3.5 -64t-1 -120t1 -120t3.5 -64t7.5 -29q19 -44 71 -44t71 44zM103 860h78q1 -29 13 -41.5t35 -12.5q25 0 36 12.5t14 41.5h76q-3 -118 -126 -118t-126 118z" />
    <glyph glyph-name="obreve" unicode="&#x14f;" horiz-adv-x="380" 
d="M95 13.5q-38 21.5 -56 62.5q-8 17 -11.5 35.5t-5 51.5t-1.5 97t1.5 97t5 51.5t11.5 35.5q18 41 56 62.5t95 21.5t95 -21.5t56 -62.5q7 -17 11 -36t5.5 -52.5t1.5 -95.5t-1.5 -95.5t-5.5 -52.5t-11 -36q-18 -41 -56 -62.5t-95 -21.5t-95 21.5zM219.5 94q11.5 7 17.5 21
q4 8 5.5 20t2 44t0.5 81t-0.5 81t-2 44t-5.5 20q-6 14 -17.5 21t-29.5 7q-36 0 -47 -28q-4 -8 -5.5 -20t-2.5 -44t-1 -81t1 -81t2.5 -44t5.5 -20q11 -28 47 -28q18 0 29.5 7zM95 597q-32 34 -33 109h79q1 -42 12.5 -59t37.5 -17t37.5 17t12.5 59h78q-1 -75 -32.5 -109
t-95.5 -34t-96 34z" />
    <glyph glyph-name="Ohungarumlaut" unicode="&#x150;" horiz-adv-x="458" 
d="M126.5 10.5q-42.5 22.5 -65.5 66.5q-14 23 -21 52.5t-10.5 81t-3.5 142.5q0 87 2.5 135t7.5 75t15 50q23 51 67.5 78t110.5 27t110.5 -27t67.5 -78q10 -23 15 -50t7.5 -75t2.5 -135t-2.5 -135t-7.5 -75t-15 -50q-23 -51 -67.5 -78t-110.5 -27q-60 0 -102.5 22.5zM300 140
q5 12 7.5 29t3.5 64t1 120t-1 120t-3.5 64t-7.5 29q-19 44 -71 44t-71 -44q-5 -12 -7.5 -29t-3.5 -64t-1 -120t1 -120t3.5 -64t7.5 -29q19 -44 71 -44t71 44zM186 860h94l-81 -113h-78zM317 860h95l-81 -113h-79z" />
    <glyph glyph-name="ohungarumlaut" unicode="&#x151;" horiz-adv-x="380" 
d="M95 13.5q-38 21.5 -56 62.5q-8 17 -11.5 35.5t-5 51.5t-1.5 97t1.5 97t5 51.5t11.5 35.5q18 41 56 62.5t95 21.5t95 -21.5t56 -62.5q7 -17 11 -36t5.5 -52.5t1.5 -95.5t-1.5 -95.5t-5.5 -52.5t-11 -36q-18 -41 -56 -62.5t-95 -21.5t-95 21.5zM219.5 94q11.5 7 17.5 21
q4 8 5.5 20t2 44t0.5 81t-0.5 81t-2 44t-5.5 20q-6 14 -17.5 21t-29.5 7q-36 0 -47 -28q-4 -8 -5.5 -20t-2.5 -44t-1 -81t1 -81t2.5 -44t5.5 -20q11 -28 47 -28q18 0 29.5 7zM148 706h92l-82 -138h-75zM275 706h91l-81 -138h-75z" />
    <glyph glyph-name="OE" unicode="&#x152;" horiz-adv-x="598" 
d="M423 601v-176h153v-104h-153v-216h156v-105h-272v10q-36 -17 -82 -17q-63 0 -107 25.5t-67 73.5q-10 22 -15 48.5t-7.5 75t-2.5 137.5t2.5 137.5t7.5 75t15 48.5q23 48 67 73.5t107 25.5q45 0 78 -15v8h276v-105h-156zM296 139q5 12 7.5 29.5t3.5 64.5t1 120t-1 120.5
t-3.5 64.5t-7.5 29q-19 43 -69 43t-69 -43q-5 -12 -7.5 -29t-3.5 -64.5t-1 -120.5t1 -120.5t3.5 -64.5t7.5 -29q19 -43 69 -43t69 43z" />
    <glyph glyph-name="oe" unicode="&#x153;" horiz-adv-x="586" 
d="M448 112.5q2 6.5 3 22.5t1 40h112q-1 -41 -4.5 -66t-11.5 -42t-22 -31q-20 -22 -51 -33t-70 -11q-72 0 -111 36q-39 -36 -108 -36q-55 0 -92 21.5t-55 62.5q-8 17 -11.5 35.5t-5 51.5t-1.5 97t1.5 97t5 51.5t11.5 35.5q37 84 147 84q68 0 108 -35q38 35 106 35
q109 0 147 -82q8 -18 12 -39.5t5 -58.5t1 -111h-216q0 -70 1 -92t6 -33q14 -28 48 -28q26 0 37 17q5 5 7 11.5zM357 411q-5 -10 -6 -25.5t-2 -68.5h104q-1 52 -2 68.5t-5 25.5q-13 27 -44 27q-34 0 -45 -27zM234.5 133.5q1.5 12.5 2 44.5t0.5 82t-0.5 82.5t-2 44.5t-5.5 20
q-12 26 -43 26q-32 0 -43 -27q-4 -7 -5.5 -19.5t-2 -45t-0.5 -81.5t0.5 -81.5t2 -44.5t5.5 -20q11 -27 43 -27q31 0 43 26q4 8 5.5 20.5z" />
    <glyph glyph-name="Racute" unicode="&#x154;" horiz-adv-x="405" 
d="M362 334.5q13 -24.5 13 -64.5v-270h-116v265q0 29 -13 41t-43 12h-52v-318h-116v706h192q57 0 91 -15.5t50 -50.5q8 -18 10.5 -41.5t2.5 -76.5q0 -52 -2 -71t-9 -33q-14 -32 -53 -48q32 -11 45 -35.5zM236 422.5q14 6.5 21 20.5q4 8 5 20.5t1 52.5q0 35 -1 46t-5 19
q-7 15 -22 21t-39 6h-45v-192h48q23 0 37 6.5zM209 860h114l-88 -113h-101z" />
    <glyph glyph-name="racute" unicode="&#x155;" horiz-adv-x="252" 
d="M243 520v-104q-12 2 -21 2q-40 0 -61 -28.5t-21 -79.5v-310h-110v520h107v-50q13 25 34.5 38.5t49.5 13.5q8 0 22 -2zM143 706h108l-78 -138h-95z" />
    <glyph glyph-name="Rcommaaccent" unicode="&#x156;" horiz-adv-x="405" 
d="M362 334.5q13 -24.5 13 -64.5v-270h-116v265q0 29 -13 41t-43 12h-52v-318h-116v706h192q57 0 91 -15.5t50 -50.5q8 -18 10.5 -41.5t2.5 -76.5q0 -52 -2 -71t-9 -33q-14 -32 -53 -48q32 -11 45 -35.5zM236 422.5q14 6.5 21 20.5q4 8 5 20.5t1 52.5q0 35 -1 46t-5 19
q-7 15 -22 21t-39 6h-45v-192h48q23 0 37 6.5zM160 -41h110l-32 -129h-102z" />
    <glyph glyph-name="rcommaaccent" unicode="&#x157;" horiz-adv-x="252" 
d="M243 520v-104q-12 2 -21 2q-40 0 -61 -28.5t-21 -79.5v-310h-110v520h107v-50q13 25 34.5 38.5t49.5 13.5q8 0 22 -2zM31 -41h110l-32 -129h-102z" />
    <glyph glyph-name="Rcaron" unicode="&#x158;" horiz-adv-x="405" 
d="M362 334.5q13 -24.5 13 -64.5v-270h-116v265q0 29 -13 41t-43 12h-52v-318h-116v706h192q57 0 91 -15.5t50 -50.5q8 -18 10.5 -41.5t2.5 -76.5q0 -52 -2 -71t-9 -33q-14 -32 -53 -48q32 -11 45 -35.5zM236 422.5q14 6.5 21 20.5q4 8 5 20.5t1 52.5q0 35 -1 46t-5 19
q-7 15 -22 21t-39 6h-45v-192h48q23 0 37 6.5zM261 747h-127l-75 112h98l40 -62l42 62h96z" />
    <glyph glyph-name="rcaron" unicode="&#x159;" horiz-adv-x="252" 
d="M243 520v-104q-12 2 -21 2q-40 0 -61 -28.5t-21 -79.5v-310h-110v520h107v-50q13 25 34.5 38.5t49.5 13.5q8 0 22 -2zM197 568h-120l-74 138h94l40 -79l42 79h93z" />
    <glyph glyph-name="Sacute" unicode="&#x15a;" horiz-adv-x="398" 
d="M92 9.5q-41 21.5 -59 61.5q-7 14 -10 28.5t-4.5 40.5t-1.5 76h123q0 -56 1 -72.5t5 -25.5q14 -30 54 -30q20 0 34 7t20 21q3 8 4 22t1 42q0 31 -2 45.5t-7 26.5q-8 19 -27 31t-42 22t-30 13q-44 21 -71 42.5t-40 50.5q-10 20 -13 45.5t-3 73.5q0 44 3 65.5t12 41.5
q18 39 58 60t99 21q119 0 155 -80q6 -15 9.5 -28.5t4.5 -42.5t1 -71h-117q0 54 -1 71t-5 26q-12 27 -49 27q-19 0 -31.5 -7t-17.5 -20q-2 -8 -3 -20t-1 -37q0 -30 1.5 -43t6.5 -25q6 -13 18.5 -22.5t33.5 -19t44 -18.5q50 -23 78.5 -44t41.5 -51q10 -22 13 -46t3 -80
q0 -51 -2.5 -72.5t-12.5 -42.5q-19 -41 -62 -62.5t-106 -21.5q-65 0 -106 21.5zM195 860h114l-88 -113h-101z" />
    <glyph glyph-name="sacute" unicode="&#x15b;" horiz-adv-x="339" 
d="M80 7.5q-34 16.5 -50 52.5q-8 18 -10.5 40t-2.5 72h108q0 -33 1 -48.5t4 -22.5q6 -11 15 -16.5t25 -5.5q28 0 37 20q2 5 3 12t1 21q0 23 -1 32.5t-5 17.5q-7 14 -21.5 23t-45.5 23q-40 18 -65.5 36.5t-37.5 45.5q-6 15 -8.5 32t-2.5 48q0 26 2.5 42t7.5 28
q15 33 49.5 50.5t85.5 17.5q104 0 134 -65q7 -16 9 -35t2 -63h-106q0 25 -1 37.5t-4 19.5q-9 20 -35 20t-34 -18q-2 -5 -2.5 -11t-0.5 -16q0 -13 1 -23t4 -16q6 -14 22.5 -25t48.5 -25q44 -20 68 -37t36 -44q7 -15 9.5 -33.5t2.5 -53.5q0 -30 -2.5 -47t-9.5 -33
q-32 -69 -142 -69q-55 0 -89 16.5zM177 706h108l-78 -138h-95z" />
    <glyph glyph-name="Scircumflex" unicode="&#x15c;" horiz-adv-x="398" 
d="M92 9.5q-41 21.5 -59 61.5q-7 14 -10 28.5t-4.5 40.5t-1.5 76h123q0 -56 1 -72.5t5 -25.5q14 -30 54 -30q20 0 34 7t20 21q3 8 4 22t1 42q0 31 -2 45.5t-7 26.5q-8 19 -27 31t-42 22t-30 13q-44 21 -71 42.5t-40 50.5q-10 20 -13 45.5t-3 73.5q0 44 3 65.5t12 41.5
q18 39 58 60t99 21q119 0 155 -80q6 -15 9.5 -28.5t4.5 -42.5t1 -71h-117q0 54 -1 71t-5 26q-12 27 -49 27q-19 0 -31.5 -7t-17.5 -20q-2 -8 -3 -20t-1 -37q0 -30 1.5 -43t6.5 -25q6 -13 18.5 -22.5t33.5 -19t44 -18.5q50 -23 78.5 -44t41.5 -51q10 -22 13 -46t3 -80
q0 -51 -2.5 -72.5t-12.5 -42.5q-19 -41 -62 -62.5t-106 -21.5q-65 0 -106 21.5zM136 860h127l75 -113h-98l-40 62l-42 -62h-96z" />
    <glyph glyph-name="scircumflex" unicode="&#x15d;" horiz-adv-x="339" 
d="M80 7.5q-34 16.5 -50 52.5q-8 18 -10.5 40t-2.5 72h108q0 -33 1 -48.5t4 -22.5q6 -11 15 -16.5t25 -5.5q28 0 37 20q2 5 3 12t1 21q0 23 -1 32.5t-5 17.5q-7 14 -21.5 23t-45.5 23q-40 18 -65.5 36.5t-37.5 45.5q-6 15 -8.5 32t-2.5 48q0 26 2.5 42t7.5 28
q15 33 49.5 50.5t85.5 17.5q104 0 134 -65q7 -16 9 -35t2 -63h-106q0 25 -1 37.5t-4 19.5q-9 20 -35 20t-34 -18q-2 -5 -2.5 -11t-0.5 -16q0 -13 1 -23t4 -16q6 -14 22.5 -25t48.5 -25q44 -20 68 -37t36 -44q7 -15 9.5 -33.5t2.5 -53.5q0 -30 -2.5 -47t-9.5 -33
q-32 -69 -142 -69q-55 0 -89 16.5zM112 706h121l73 -138h-94l-40 79l-41 -79h-94z" />
    <glyph glyph-name="Scedilla" unicode="&#x15e;" horiz-adv-x="398" 
d="M378 267q3 -24 3 -80q0 -51 -2.5 -72.5t-12.5 -42.5q-17 -35 -51 -56t-83 -26l-5 -21q37 -1 58 -20t21 -51q0 -42 -30 -61.5t-81 -19.5q-37 0 -72 12l12 54q27 -9 51 -9q44 0 44 26q0 14 -12 20t-38 6h-38l15 64q-47 7 -78 27.5t-46 53.5q-7 14 -10 28.5t-4.5 40.5
t-1.5 76h123q0 -56 1 -72.5t5 -25.5q14 -30 54 -30q20 0 34 7t20 21q3 8 4 22t1 42q0 31 -2 45.5t-7 26.5q-8 19 -27 31t-42 22t-30 13q-44 21 -71 42.5t-40 50.5q-10 20 -13 45.5t-3 73.5q0 44 3 65.5t12 41.5q18 39 58 60t99 21q119 0 155 -80q6 -15 9.5 -28.5t4.5 -42.5
t1 -71h-117q0 54 -1 71t-5 26q-12 27 -49 27q-19 0 -31.5 -7t-17.5 -20q-2 -8 -3 -20t-1 -37q0 -30 1.5 -43t6.5 -25q6 -13 18.5 -22.5t33.5 -19t44 -18.5q50 -23 78.5 -44t41.5 -51q10 -22 13 -46z" />
    <glyph glyph-name="scedilla" unicode="&#x15f;" horiz-adv-x="339" 
d="M320.5 193.5q2.5 -18.5 2.5 -53.5q0 -30 -2.5 -47t-9.5 -33q-26 -56 -105 -67l-6 -23q37 -1 58 -20t21 -52q0 -41 -30 -60.5t-82 -19.5q-35 0 -71 11l12 55q23 -9 51 -9q21 0 32 6t11 20q0 13 -11.5 19t-38.5 6h-37l16 67q-38 5 -63 21.5t-38 45.5q-8 18 -10.5 40
t-2.5 72h108q0 -33 1 -48.5t4 -22.5q6 -11 15 -16.5t25 -5.5q28 0 37 20q2 5 3 12t1 21q0 23 -1 32.5t-5 17.5q-7 14 -21.5 23t-45.5 23q-40 18 -65.5 36.5t-37.5 45.5q-6 15 -8.5 32t-2.5 48q0 26 2.5 42t7.5 28q15 33 49.5 50.5t85.5 17.5q104 0 134 -65q7 -16 9 -35
t2 -63h-106q0 25 -1 37.5t-4 19.5q-9 20 -35 20t-34 -18q-2 -5 -2.5 -11t-0.5 -16q0 -13 1 -23t4 -16q6 -14 22.5 -25t48.5 -25q44 -20 68 -37t36 -44q7 -15 9.5 -33.5z" />
    <glyph glyph-name="Scaron" unicode="&#x160;" horiz-adv-x="398" 
d="M92 9.5q-41 21.5 -59 61.5q-7 14 -10 28.5t-4.5 40.5t-1.5 76h123q0 -56 1 -72.5t5 -25.5q14 -30 54 -30q20 0 34 7t20 21q3 8 4 22t1 42q0 31 -2 45.5t-7 26.5q-8 19 -27 31t-42 22t-30 13q-44 21 -71 42.5t-40 50.5q-10 20 -13 45.5t-3 73.5q0 44 3 65.5t12 41.5
q18 39 58 60t99 21q119 0 155 -80q6 -15 9.5 -28.5t4.5 -42.5t1 -71h-117q0 54 -1 71t-5 26q-12 27 -49 27q-19 0 -31.5 -7t-17.5 -20q-2 -8 -3 -20t-1 -37q0 -30 1.5 -43t6.5 -25q6 -13 18.5 -22.5t33.5 -19t44 -18.5q50 -23 78.5 -44t41.5 -51q10 -22 13 -46t3 -80
q0 -51 -2.5 -72.5t-12.5 -42.5q-19 -41 -62 -62.5t-106 -21.5q-65 0 -106 21.5zM262 747h-127l-75 112h98l40 -62l42 62h96z" />
    <glyph glyph-name="scaron" unicode="&#x161;" horiz-adv-x="339" 
d="M80 7.5q-34 16.5 -50 52.5q-8 18 -10.5 40t-2.5 72h108q0 -33 1 -48.5t4 -22.5q6 -11 15 -16.5t25 -5.5q28 0 37 20q2 5 3 12t1 21q0 23 -1 32.5t-5 17.5q-7 14 -21.5 23t-45.5 23q-40 18 -65.5 36.5t-37.5 45.5q-6 15 -8.5 32t-2.5 48q0 26 2.5 42t7.5 28
q15 33 49.5 50.5t85.5 17.5q104 0 134 -65q7 -16 9 -35t2 -63h-106q0 25 -1 37.5t-4 19.5q-9 20 -35 20t-34 -18q-2 -5 -2.5 -11t-0.5 -16q0 -13 1 -23t4 -16q6 -14 22.5 -25t48.5 -25q44 -20 68 -37t36 -44q7 -15 9.5 -33.5t2.5 -53.5q0 -30 -2.5 -47t-9.5 -33
q-32 -69 -142 -69q-55 0 -89 16.5zM231 568h-120l-74 138h94l40 -79l42 79h93z" />
    <glyph glyph-name="uni0162" unicode="&#x162;" horiz-adv-x="308" 
d="M190 0l-7 -29q38 -1 58.5 -20t20.5 -52q0 -41 -30 -60.5t-81 -19.5q-40 0 -72 11l13 55q25 -10 51 -10q43 0 43 26q0 14 -12 20t-38 6h-38l18 73h-20v601h-91v105h298v-105h-91v-601h-22z" />
    <glyph glyph-name="uni0163" unicode="&#x163;" horiz-adv-x="254" 
d="M245 -47q21 -19 21 -52q0 -41 -30 -60.5t-82 -19.5q-39 0 -71 11l12 55q25 -10 51 -10q43 0 43 26q0 14 -11.5 20t-38.5 6h-38l19 74q-32 11 -47 40.5t-15 83.5v294h-51v99h51v112h110v-112h72v-99h-72v-271q0 -23 5 -35t15 -17t27 -5q19 0 29 2v-94q-27 -5 -52 -6
l-5 -22q37 -1 58 -20z" />
    <glyph glyph-name="Tcaron" unicode="&#x164;" horiz-adv-x="308" 
d="M96 601h-91v105h298v-105h-91v-601h-116v601zM218 747h-127l-75 112h98l40 -62l42 62h96z" />
    <glyph glyph-name="tcaron" unicode="&#x165;" horiz-adv-x="296" 
d="M111.5 6.5q-27.5 11.5 -40.5 40.5t-13 80v294h-51v99h51v112h110v-112h72v-99h-72v-271q0 -23 5 -35t15 -17t27 -5q19 0 29 2v-94q-31 -6 -60 -6q-45 0 -72.5 11.5zM207 706h82l-26 -151h-72z" />
    <glyph glyph-name="Tbar" unicode="&#x166;" horiz-adv-x="308" 
d="M212 601v-161h71v-91h-71v-349h-116v349h-72v91h72v161h-91v105h298v-105h-91z" />
    <glyph glyph-name="tbar" unicode="&#x167;" horiz-adv-x="254" 
d="M244 95v-94q-31 -6 -60 -6q-45 0 -72.5 11.5t-40.5 40.5t-13 80v111h-51v78h51v105h-51v99h51v112h110v-112h72v-99h-72v-105h72v-78h-72v-88q0 -23 5 -35t15 -17t27 -5q19 0 29 2z" />
    <glyph glyph-name="Utilde" unicode="&#x168;" horiz-adv-x="425" 
d="M74 31q-43 43 -43 134v541h116v-537q0 -38 15.5 -56.5t49.5 -18.5q35 0 50.5 18.5t15.5 56.5v537h116v-541q0 -90 -43 -133.5t-139 -43.5q-95 0 -138 43zM232.5 750q-15.5 7 -32.5 20q-3 2 -11 8t-14.5 8.5t-12.5 2.5q-12 0 -18 -11t-8 -33h-65q1 59 21 88t62 29
q22 0 36.5 -7t33.5 -22q13 -9 20 -12.5t16 -3.5q12 0 17.5 10t7.5 33h67q-1 -59 -20.5 -88t-62.5 -29q-21 0 -36.5 7z" />
    <glyph glyph-name="utilde" unicode="&#x169;" horiz-adv-x="378" 
d="M348 520v-520h-110v42q-36 -50 -101 -50q-54 0 -81.5 31.5t-27.5 94.5v402h110v-372q0 -32 11.5 -46.5t35.5 -14.5q25 0 39 17t14 50v366h110zM202.5 575.5q-15.5 9.5 -29.5 26.5q-12 15 -19 20.5t-16 5.5q-13 0 -18 -13t-7 -47h-64q1 73 18.5 106.5t59.5 33.5
q16 0 28 -5.5t21.5 -14.5t17.5 -18l9.5 -9.5t14 -11t13.5 -3.5q13 0 17.5 13t5.5 47h65q-1 -73 -18.5 -106.5t-59.5 -33.5q-23 0 -38.5 9.5z" />
    <glyph glyph-name="Umacron" unicode="&#x16a;" horiz-adv-x="425" 
d="M74 31q-43 43 -43 134v541h116v-537q0 -38 15.5 -56.5t49.5 -18.5q35 0 50.5 18.5t15.5 56.5v537h116v-541q0 -90 -43 -133.5t-139 -43.5q-95 0 -138 43zM93 842h239v-74h-239v74z" />
    <glyph glyph-name="umacron" unicode="&#x16b;" horiz-adv-x="378" 
d="M348 520v-520h-110v42q-36 -50 -101 -50q-54 0 -81.5 31.5t-27.5 94.5v402h110v-372q0 -32 11.5 -46.5t35.5 -14.5q25 0 39 17t14 50v366h110zM74 669h220v-78h-220v78z" />
    <glyph glyph-name="Ubreve" unicode="&#x16c;" horiz-adv-x="425" 
d="M74 31q-43 43 -43 134v541h116v-537q0 -38 15.5 -56.5t49.5 -18.5q35 0 50.5 18.5t15.5 56.5v537h116v-541q0 -90 -43 -133.5t-139 -43.5q-95 0 -138 43zM87 860h78q1 -29 13 -41.5t35 -12.5q25 0 36 12.5t14 41.5h76q-3 -118 -126 -118t-126 118z" />
    <glyph glyph-name="ubreve" unicode="&#x16d;" horiz-adv-x="378" 
d="M348 520v-520h-110v42q-36 -50 -101 -50q-54 0 -81.5 31.5t-27.5 94.5v402h110v-372q0 -32 11.5 -46.5t35.5 -14.5q25 0 39 17t14 50v366h110zM89 597q-32 34 -33 109h79q1 -42 12.5 -59t37.5 -17t37.5 17t12.5 59h78q-1 -75 -32.5 -109t-95.5 -34t-96 34z" />
    <glyph glyph-name="Uring" unicode="&#x16e;" horiz-adv-x="425" 
d="M74 31q-43 43 -43 134v541h116v-537q0 -38 15.5 -56.5t49.5 -18.5q35 0 50.5 18.5t15.5 56.5v537h116v-541q0 -90 -43 -133.5t-139 -43.5q-95 0 -138 43zM160 739.5q-23 11.5 -35.5 32.5t-12.5 49q0 42 27.5 67t72.5 25q30 0 53 -11.5t35.5 -32.5t12.5 -48
q0 -28 -12.5 -49t-35.5 -32.5t-53 -11.5q-29 0 -52 11.5zM240.5 793.5q10.5 10.5 10.5 27.5t-10.5 27.5t-28.5 10.5q-17 0 -27.5 -10.5t-10.5 -27.5t10.5 -27.5t27.5 -10.5q18 0 28.5 10.5z" />
    <glyph glyph-name="uring" unicode="&#x16f;" horiz-adv-x="378" 
d="M348 520v-520h-110v42q-36 -50 -101 -50q-54 0 -81.5 31.5t-27.5 94.5v402h110v-372q0 -32 11.5 -46.5t35.5 -14.5q25 0 39 17t14 50v366h110zM132 571.5q-23 11.5 -35.5 32.5t-12.5 49q0 42 27.5 67t72.5 25q30 0 53 -11.5t35.5 -32.5t12.5 -48q0 -28 -12.5 -49
t-35.5 -32.5t-53 -11.5q-29 0 -52 11.5zM212.5 625.5q10.5 10.5 10.5 27.5t-10.5 27.5t-28.5 10.5q-17 0 -27.5 -10.5t-10.5 -27.5t10.5 -27.5t27.5 -10.5q18 0 28.5 10.5z" />
    <glyph glyph-name="Uhungarumlaut" unicode="&#x170;" horiz-adv-x="425" 
d="M74 31q-43 43 -43 134v541h116v-537q0 -38 15.5 -56.5t49.5 -18.5q35 0 50.5 18.5t15.5 56.5v537h116v-541q0 -90 -43 -133.5t-139 -43.5q-95 0 -138 43zM169 860h94l-81 -113h-78zM300 860h95l-81 -113h-79z" />
    <glyph glyph-name="uhungarumlaut" unicode="&#x171;" horiz-adv-x="378" 
d="M348 520v-520h-110v42q-36 -50 -101 -50q-54 0 -81.5 31.5t-27.5 94.5v402h110v-372q0 -32 11.5 -46.5t35.5 -14.5q25 0 39 17t14 50v366h110zM142 706h92l-82 -138h-75zM269 706h91l-81 -138h-75z" />
    <glyph glyph-name="Uogonek" unicode="&#x172;" horiz-adv-x="423" 
d="M393 706v-541q0 -57 -16 -92.5t-49 -62.5q-34 -28 -49 -46.5t-15 -39.5q0 -18 9 -26.5t25 -8.5q19 0 33 7v-66q-24 -10 -56 -10q-45 0 -71.5 21.5t-26.5 61.5q0 25 11 45.5t32 39.5h-9q-95 0 -138 43t-43 134v541h116v-537q0 -38 15.5 -56.5t49.5 -18.5q35 0 50.5 18.5
t15.5 56.5v537h116z" />
    <glyph glyph-name="uogonek" unicode="&#x173;" horiz-adv-x="378" 
d="M351 -104v-66q-24 -10 -56 -10q-45 0 -71.5 20t-26.5 57q0 31 18 55t54 48h-31v42q-36 -50 -101 -50q-54 0 -81.5 31.5t-27.5 94.5v402h110v-372q0 -32 11.5 -46.5t35.5 -14.5q25 0 39 17t14 50v366h110v-520q-33 -26 -48.5 -44t-15.5 -38q0 -14 9 -21.5t24 -7.5
q20 0 34 7z" />
    <glyph glyph-name="Wcircumflex" unicode="&#x174;" horiz-adv-x="624" 
d="M624 706l-119 -706h-122l-71 479l-71 -479h-121l-120 706h113l72 -500l69 500h117l68 -496l72 496h113zM249 860h127l75 -113h-98l-40 62l-42 -62h-96z" />
    <glyph glyph-name="wcircumflex" unicode="&#x175;" horiz-adv-x="565" 
d="M564 520l-112 -520h-112l-57 340l-57 -340h-113l-111 520h110l56 -347l62 347h105l62 -346l56 346h111zM223 706h121l73 -138h-94l-40 79l-41 -79h-94z" />
    <glyph glyph-name="Ycircumflex" unicode="&#x176;" horiz-adv-x="397" 
d="M140 290l-140 416h119l80 -285l80 285h117l-139 -416v-290h-117v290zM136 860h127l75 -113h-98l-40 62l-42 -62h-96z" />
    <glyph glyph-name="ycircumflex" unicode="&#x177;" horiz-adv-x="362" 
d="M360 520l-129 -520l-47 -170h-108l47 174l-121 516h116l60 -370l69 370h113zM123 706h121l73 -138h-94l-40 79l-41 -79h-94z" />
    <glyph glyph-name="Ydieresis" unicode="&#x178;" horiz-adv-x="397" 
d="M140 290l-140 416h119l80 -285l80 285h117l-139 -416v-290h-117v290zM79 766.5q-16 15.5 -16 40.5t16 40t41 15t41 -15t16 -40t-16 -40.5t-41 -15.5t-41 15.5zM238 766.5q-16 15.5 -16 40.5t16.5 40t41.5 15t41 -15t16 -40q0 -24 -16.5 -40t-40.5 -16q-26 0 -42 15.5z
" />
    <glyph glyph-name="Zacute" unicode="&#x179;" horiz-adv-x="352" 
d="M182 601h-165v105h318l-174 -601h179v-105h-333zM185 860h114l-88 -113h-101z" />
    <glyph glyph-name="zacute" unicode="&#x17a;" horiz-adv-x="313" 
d="M153 99h152v-99h-307l162 421h-146v99h297zM165 706h108l-78 -138h-95z" />
    <glyph glyph-name="Zdotaccent" unicode="&#x17b;" horiz-adv-x="352" 
d="M182 601h-165v105h318l-174 -601h179v-105h-333zM131 767q-17 16 -17 43q0 26 17 41.5t43 15.5t42.5 -15.5t16.5 -41.5q0 -27 -16.5 -43t-42.5 -16t-43 16z" />
    <glyph glyph-name="zdotaccent" unicode="&#x17c;" horiz-adv-x="313" 
d="M153 99h152v-99h-307l162 421h-146v99h297zM115.5 592.5q-17.5 16.5 -17.5 42.5q0 27 17.5 43t44.5 16q26 0 43.5 -16.5t17.5 -42.5t-17.5 -42.5t-43.5 -16.5q-27 0 -44.5 16.5z" />
    <glyph glyph-name="Zcaron" unicode="&#x17d;" horiz-adv-x="352" 
d="M182 601h-165v105h318l-174 -601h179v-105h-333zM238 747h-127l-75 112h98l40 -62l42 62h96z" />
    <glyph glyph-name="zcaron" unicode="&#x17e;" horiz-adv-x="313" 
d="M153 99h152v-99h-307l162 421h-146v99h297zM220 568h-120l-74 138h94l40 -79l42 79h93z" />
    <glyph glyph-name="Schwa" unicode="&#x18f;" horiz-adv-x="449" 
d="M414 563q5 -26 7 -74.5t2 -135.5t-2 -135.5t-7 -74.5t-15 -48q-23 -52 -68 -79t-111 -27q-63 0 -105 24.5t-65 74.5q-9 21 -14.5 45t-7.5 63.5t-2 108.5v63h277q0 68 -1 112.5t-3.5 61t-7.5 27.5q-18 43 -70 43q-38 0 -55 -21q-7 -8 -11 -18.5t-6.5 -34t-3.5 -67.5h-116
q1 55 6 90t15 58t27 42q47 56 142 56q66 0 111.5 -27t68.5 -79q10 -22 15 -48zM291 137q6 15 8.5 39.5t3.5 90.5h-162q0 -72 2 -96.5t7 -37.5q18 -39 68 -39q54 0 73 43z" />
    <glyph glyph-name="florin" unicode="&#x192;" horiz-adv-x="282" 
d="M7 0v96q14 -3 26 -3q28 0 40.5 13.5t12.5 42.5v230h-73v66h73v137q0 71 34.5 101.5t108.5 30.5q23 0 46 -3v-96q-9 2 -27 2q-28 0 -40 -13t-12 -44v-115h74v-66h-74v-250q0 -70 -34.5 -101t-108.5 -31q-23 0 -46 3z" />
    <glyph glyph-name="Aringacute" unicode="&#x1fa;" horiz-adv-x="430" 
d="M293 127h-156l-20 -127h-117l125 706h180l124 -706h-116zM277 227l-61 385h-2l-61 -385h124zM163 739.5q-23 11.5 -35.5 32.5t-12.5 49q0 42 27.5 67t72.5 25q30 0 53 -11.5t35.5 -32.5t12.5 -48q0 -28 -12.5 -49t-35.5 -32.5t-53 -11.5q-29 0 -52 11.5zM243.5 793.5
q10.5 10.5 10.5 27.5t-10.5 27.5t-28.5 10.5q-17 0 -27.5 -10.5t-10.5 -27.5t10.5 -27.5t27.5 -10.5q18 0 28.5 10.5zM226 1065h114l-88 -113h-101z" />
    <glyph glyph-name="aringacute" unicode="&#x1fb;" horiz-adv-x="372" 
d="M341 415q3 -26 3 -83v-332h-110v43q-37 -51 -106 -51q-37 0 -62.5 13t-36.5 39q-7 16 -9.5 35t-2.5 64q0 51 2 71t9 35q16 36 54 51t104 15h48v15q0 49 -1 62.5t-5 22.5q-5 11 -15.5 16.5t-27.5 5.5q-35 0 -44 -22q-3 -7 -3.5 -19t-0.5 -35h-109q0 42 2.5 61t10.5 37
q15 34 51.5 51.5t93.5 17.5q58 0 92.5 -16.5t50.5 -51.5q9 -19 12 -45zM226 112q5 10 6.5 29.5t1.5 82.5v12h-36q-27 0 -42.5 -5t-21.5 -18q-3 -6 -3.5 -18.5t-0.5 -35.5q0 -25 1 -37.5t3 -18.5q10 -21 41 -21q38 0 51 30zM136 571.5q-23 11.5 -35.5 32.5t-12.5 49
q0 42 27.5 67t72.5 25q30 0 53 -11.5t35.5 -32.5t12.5 -48q0 -28 -12.5 -49t-35.5 -32.5t-53 -11.5q-29 0 -52 11.5zM216.5 625.5q10.5 10.5 10.5 27.5t-10.5 27.5t-28.5 10.5q-17 0 -27.5 -10.5t-10.5 -27.5t10.5 -27.5t27.5 -10.5q18 0 28.5 10.5zM194 931h108l-78 -138
h-95z" />
    <glyph glyph-name="AEacute" unicode="&#x1fc;" horiz-adv-x="519" 
d="M351 601l11 -176h135v-104h-128l13 -216h117v-105h-222l-7 118h-128l-24 -118h-118l160 706h340v-105h-149zM264 218l-22 387h-2l-78 -387h102zM310 860h114l-88 -113h-101z" />
    <glyph glyph-name="aeacute" unicode="&#x1fd;" horiz-adv-x="581" 
d="M441.5 107.5q3.5 7.5 4.5 24.5t1 43h112q-1 -42 -5 -69t-13 -44.5t-25 -32.5q-40 -37 -116 -37q-49 0 -81.5 16t-52.5 48q-43 -64 -130 -64q-83 0 -107 53q-7 16 -9.5 35.5t-2.5 63.5q0 51 2 71t9 35q15 35 53.5 50.5t104.5 15.5h48v12q0 47 -1.5 63t-4.5 24
q-5 11 -15.5 16.5t-27.5 5.5q-35 0 -44 -22q-3 -6 -3.5 -18t-0.5 -36h-109q0 43 2.5 62t10.5 36q15 34 51.5 51.5t93.5 17.5q40 0 66.5 -7t42.5 -23q38 30 101 30q108 0 146 -82q8 -18 12 -39t5 -57.5t1 -112.5h-216q0 -71 1 -93t6 -33q7 -14 18.5 -20.5t29.5 -6.5
q22 0 33 11q6 5 9.5 12.5zM352 410q-5 -9 -6 -25t-2 -69h104q-1 52 -2 68.5t-5 25.5q-13 27 -44 27q-34 0 -45 -27zM234 237h-36q-28 0 -43 -5t-21 -18q-3 -6 -3.5 -19t-0.5 -36q0 -25 1 -37.5t4 -18.5q5 -11 15 -16t26 -5q38 0 50 28q5 11 6.5 30t1.5 84v13zM299 706h108
l-78 -138h-95z" />
    <glyph glyph-name="Oslashacute" unicode="&#x1fe;" horiz-adv-x="458" 
d="M407 613q10 -23 15 -50t7.5 -75t2.5 -135t-2.5 -135t-7.5 -75t-15 -50q-23 -51 -67.5 -78t-110.5 -27q-104 0 -153 66l-33 -54h-49l58 93q-15 32 -20.5 87t-5.5 173q0 87 2.5 135t7.5 75t15 50q23 51 67.5 78t110.5 27q99 0 152 -62l31 50h48l-56 -87zM150.5 537
q-2.5 -17 -3.5 -64t-1 -120q0 -85 1 -112l160 302q-3 15 -7 23q-19 44 -71 44t-71 -44q-5 -12 -7.5 -29zM307.5 169q2.5 17 3.5 64t1 120q0 94 -1 123l-161 -305q3 -20 8 -31q19 -44 71 -44t71 44q5 12 7.5 29zM240 860h114l-88 -113h-101z" />
    <glyph glyph-name="oslashacute" unicode="&#x1ff;" horiz-adv-x="380" 
d="M341 444q7 -17 11 -36t5.5 -52.5t1.5 -95.5t-1.5 -95.5t-5.5 -52.5t-11 -36q-18 -41 -56 -62.5t-95 -21.5q-73 0 -115 36l-18 -28h-43l36 56q-2 3 -5 8t-6 12q-8 17 -11.5 35.5t-5 51.5t-1.5 97t1.5 97t5 51.5t11.5 35.5q18 41 56 62.5t95 21.5q71 0 114 -35l17 27h43
l-35 -54zM137.5 385q-1.5 -12 -2.5 -44t-1 -81v-69l107 202q-2 9 -4 12q-6 14 -17.5 21t-29.5 7q-36 0 -47 -28q-4 -8 -5.5 -20zM242.5 135q1.5 12 2 44t0.5 81v71l-107 -201q1 -7 5 -15q11 -28 47 -28q18 0 29.5 7t17.5 21q4 8 5.5 20zM196 706h108l-78 -138h-95z" />
    <glyph glyph-name="Scommaaccent" unicode="&#x218;" horiz-adv-x="398" 
d="M92 9.5q-41 21.5 -59 61.5q-7 14 -10 28.5t-4.5 40.5t-1.5 76h123q0 -56 1 -72.5t5 -25.5q14 -30 54 -30q20 0 34 7t20 21q3 8 4 22t1 42q0 31 -2 45.5t-7 26.5q-8 19 -27 31t-42 22t-30 13q-44 21 -71 42.5t-40 50.5q-10 20 -13 45.5t-3 73.5q0 44 3 65.5t12 41.5
q18 39 58 60t99 21q119 0 155 -80q6 -15 9.5 -28.5t4.5 -42.5t1 -71h-117q0 54 -1 71t-5 26q-12 27 -49 27q-19 0 -31.5 -7t-17.5 -20q-2 -8 -3 -20t-1 -37q0 -30 1.5 -43t6.5 -25q6 -13 18.5 -22.5t33.5 -19t44 -18.5q50 -23 78.5 -44t41.5 -51q10 -22 13 -46t3 -80
q0 -51 -2.5 -72.5t-12.5 -42.5q-19 -41 -62 -62.5t-106 -21.5q-65 0 -106 21.5zM149 -42h110l-32 -129h-102z" />
    <glyph glyph-name="scommaaccent" unicode="&#x219;" horiz-adv-x="339" 
d="M80 7.5q-34 16.5 -50 52.5q-8 18 -10.5 40t-2.5 72h108q0 -33 1 -48.5t4 -22.5q6 -11 15 -16.5t25 -5.5q28 0 37 20q2 5 3 12t1 21q0 23 -1 32.5t-5 17.5q-7 14 -21.5 23t-45.5 23q-40 18 -65.5 36.5t-37.5 45.5q-6 15 -8.5 32t-2.5 48q0 26 2.5 42t7.5 28
q15 33 49.5 50.5t85.5 17.5q104 0 134 -65q7 -16 9 -35t2 -63h-106q0 25 -1 37.5t-4 19.5q-9 20 -35 20t-34 -18q-2 -5 -2.5 -11t-0.5 -16q0 -13 1 -23t4 -16q6 -14 22.5 -25t48.5 -25q44 -20 68 -37t36 -44q7 -15 9.5 -33.5t2.5 -53.5q0 -30 -2.5 -47t-9.5 -33
q-32 -69 -142 -69q-55 0 -89 16.5zM117 -42h110l-32 -129h-102z" />
    <glyph glyph-name="uni021A" unicode="&#x21a;" horiz-adv-x="308" 
d="M96 601h-91v105h298v-105h-91v-601h-116v601zM101 -41h110l-32 -129h-102z" />
    <glyph glyph-name="uni021B" unicode="&#x21b;" horiz-adv-x="254" 
d="M111.5 6.5q-27.5 11.5 -40.5 40.5t-13 80v294h-51v99h51v112h110v-112h72v-99h-72v-271q0 -23 5 -35t15 -17t27 -5q19 0 29 2v-94q-31 -6 -60 -6q-45 0 -72.5 11.5zM104 -39h110l-32 -129h-102z" />
    <glyph glyph-name="dotlessj" unicode="&#x237;" horiz-adv-x="175" 
d="M-23 -170v98q9 -1 20 -1q21 0 29.5 10t8.5 34v549h110v-569q0 -65 -30 -94t-94 -29q-30 0 -44 2z" />
    <glyph glyph-name="schwa" unicode="&#x259;" horiz-adv-x="377" 
d="M349.5 408q3.5 -19 5 -52t1.5 -97t-1.5 -97t-5 -51.5t-10.5 -34.5q-18 -41 -56 -63t-94 -22q-55 0 -93 21.5t-57 61.5q-8 19 -12 40t-5 57t-1 111h225q0 71 -1.5 92.5t-6.5 31.5q-7 15 -19 22t-32 7q-25 0 -39 -12q-8 -8 -11 -22.5t-4 -55.5h-111q1 42 5 68t13 44t26 33
q22 19 52 28.5t67 9.5q58 0 96.5 -21.5t57.5 -62.5q7 -17 10.5 -36zM219 90q12 7 19 22q5 10 6 25t2 66h-114q1 -50 2.5 -66t5.5 -26q12 -28 48 -28q19 0 31 7z" />
    <glyph glyph-name="circumflex" unicode="&#x2c6;" horiz-adv-x="369" 
d="M125 706h121l73 -138h-94l-40 79l-41 -79h-94z" />
    <glyph glyph-name="caron" unicode="&#x2c7;" horiz-adv-x="369" 
d="M244 568h-120l-74 138h94l40 -79l42 79h93z" />
    <glyph glyph-name="uni02C9" unicode="&#x2c9;" horiz-adv-x="320" 
d="M50 669h220v-78h-220v78z" />
    <glyph glyph-name="breve" unicode="&#x2d8;" horiz-adv-x="357" 
d="M83 597q-32 34 -33 109h79q1 -42 12.5 -59t37.5 -17t37.5 17t12.5 59h78q-1 -75 -32.5 -109t-95.5 -34t-96 34z" />
    <glyph glyph-name="dotaccent" unicode="&#x2d9;" horiz-adv-x="223" 
d="M67.5 592.5q-17.5 16.5 -17.5 42.5q0 27 17.5 43t44.5 16q26 0 43.5 -16.5t17.5 -42.5t-17.5 -42.5t-43.5 -16.5q-27 0 -44.5 16.5z" />
    <glyph glyph-name="ring" unicode="&#x2da;" horiz-adv-x="301" 
d="M98 571.5q-23 11.5 -35.5 32.5t-12.5 49q0 42 27.5 67t72.5 25q30 0 53 -11.5t35.5 -32.5t12.5 -48q0 -28 -12.5 -49t-35.5 -32.5t-53 -11.5q-29 0 -52 11.5zM178.5 625.5q10.5 10.5 10.5 27.5t-10.5 27.5t-28.5 10.5q-17 0 -27.5 -10.5t-10.5 -27.5t10.5 -27.5
t27.5 -10.5q18 0 28.5 10.5z" />
    <glyph glyph-name="ogonek" unicode="&#x2db;" horiz-adv-x="255" 
d="M76.5 -160q-26.5 20 -26.5 57q0 32 19 56.5t58 49.5l74 -3q-33 -25 -48 -43.5t-15 -38.5q0 -15 8.5 -22t24.5 -7q19 0 34 7v-66q-24 -10 -57 -10q-45 0 -71.5 20z" />
    <glyph glyph-name="tilde" unicode="&#x2dc;" horiz-adv-x="370" 
d="M203.5 575.5q-15.5 9.5 -29.5 26.5q-12 15 -19 20.5t-16 5.5q-13 0 -18 -13t-7 -47h-64q1 73 18.5 106.5t59.5 33.5q16 0 28 -5.5t21.5 -14.5t17.5 -18l9.5 -9.5t14 -11t13.5 -3.5q13 0 17.5 13t5.5 47h65q-1 -73 -18.5 -106.5t-59.5 -33.5q-23 0 -38.5 9.5z" />
    <glyph glyph-name="hungarumlaut" unicode="&#x2dd;" horiz-adv-x="383" 
d="M115 706h92l-82 -138h-75zM242 706h91l-81 -138h-75z" />
    <glyph glyph-name="gravecomb" unicode="&#x300;" 
d="M-145 568l-78 138h108l65 -138h-95z" />
    <glyph glyph-name="acutecomb" unicode="&#x301;" 
d="M-158 706h108l-78 -138h-95z" />
    <glyph glyph-name="circumflexcomb" unicode="&#x302;" 
d="M-244 706h121l73 -138h-94l-40 79l-41 -79h-94z" />
    <glyph glyph-name="tildecomb" unicode="&#x303;" 
d="M-166.5 575.5q-15.5 9.5 -29.5 26.5q-12 15 -19 20.5t-16 5.5q-13 0 -18 -13t-7 -47h-64q1 73 18.5 106.5t59.5 33.5q16 0 28 -5.5t21.5 -14.5t17.5 -18l9.5 -9.5t14 -11t13.5 -3.5q13 0 17.5 13t5.5 47h65q-1 -73 -18.5 -106.5t-59.5 -33.5q-23 0 -38.5 9.5z" />
    <glyph glyph-name="macroncomb" unicode="&#x304;" 
d="M-270 669h220v-78h-220v78z" />
    <glyph glyph-name="brevecomb" unicode="&#x306;" 
d="M-274 597q-32 34 -33 109h79q1 -42 12.5 -59t37.5 -17t37.5 17t12.5 59h78q-1 -75 -32.5 -109t-95.5 -34t-96 34z" />
    <glyph glyph-name="dotaccentcomb" unicode="&#x307;" 
d="M-155.5 592.5q-17.5 16.5 -17.5 42.5q0 27 17.5 43t44.5 16q26 0 43.5 -16.5t17.5 -42.5t-17.5 -42.5t-43.5 -16.5q-27 0 -44.5 16.5z" />
    <glyph glyph-name="dieresiscomb" unicode="&#x308;" 
d="M-303.5 589.5q-16.5 15.5 -16.5 40.5q0 26 16.5 41.5t42.5 15.5q25 0 42 -15.5t17 -41.5q0 -25 -16.5 -40.5t-42.5 -15.5t-42.5 15.5zM-150.5 589.5q-16.5 15.5 -16.5 40.5q0 26 16.5 41.5t42.5 15.5q25 0 41.5 -15.5t16.5 -41.5q0 -25 -16.5 -40.5t-41.5 -15.5
q-26 0 -42.5 15.5z" />
    <glyph glyph-name="ringcomb" unicode="&#x30a;" 
d="M-203 571.5q-23 11.5 -35.5 32.5t-12.5 49q0 42 27.5 67t72.5 25q30 0 53 -11.5t35.5 -32.5t12.5 -48q0 -28 -12.5 -49t-35.5 -32.5t-53 -11.5q-29 0 -52 11.5zM-122.5 625.5q10.5 10.5 10.5 27.5t-10.5 27.5t-28.5 10.5q-17 0 -27.5 -10.5t-10.5 -27.5t10.5 -27.5
t27.5 -10.5q18 0 28.5 10.5z" />
    <glyph glyph-name="hungarumlautcomb" unicode="&#x30b;" 
d="M-268 706h92l-82 -138h-75zM-141 706h91l-81 -138h-75z" />
    <glyph glyph-name="caroncomb" unicode="&#x30c;" 
d="M-125 568h-120l-74 138h94l40 -79l42 79h93z" />
    <glyph glyph-name="commaturnedabovecomb" unicode="&#x312;" 
d="M-74 574h-110l33 129h101z" />
    <glyph glyph-name="commaaccent" unicode="&#x326;" 
d="M-160 -41h110l-32 -129h-102z" />
    <glyph glyph-name="cedillacomb" unicode="&#x327;" 
d="M-70.5 -49q20.5 -19 20.5 -52q0 -41 -30 -60.5t-81 -19.5q-40 0 -72 11l12 55q27 -10 51 -10q44 0 44 26q0 14 -12 20t-38 6h-38l21 88h75l-11 -44q38 -1 58.5 -20z" />
    <glyph glyph-name="ogonekcomb" unicode="&#x328;" 
d="M-178.5 -160q-26.5 20 -26.5 57q0 32 19 56.5t58 49.5l74 -3q-33 -25 -48 -43.5t-15 -38.5q0 -15 8.5 -22t24.5 -7q19 0 34 7v-66q-24 -10 -57 -10q-45 0 -71.5 20z" />
    <glyph glyph-name="uni0335" unicode="&#x335;" 
d="M-283 367h233v-78h-233v78z" />
    <glyph glyph-name="uni0336" unicode="&#x336;" 
d="M-220 666h220v-72h-220v72z" />
    <glyph glyph-name="uni0337" unicode="&#x337;" 
d="M0 488v-91l-100 -74v18l-99 -70v90l99 72v-17z" />
    <glyph glyph-name="uni0338" unicode="&#x338;" 
d="M-306 133l3 -5l164 311l2 -3l53 84h44l-82 -125l-2 3l-166 -312l-2 3l-55 -89h-43z" />
    <glyph glyph-name="uni0394" unicode="&#x394;" horiz-adv-x="430" 
d="M429 0h-429l125 706h180zM297 101l-81 510h-2l-81 -510h164z" />
    <glyph glyph-name="uni03A9" unicode="&#x3a9;" horiz-adv-x="449" 
d="M326 98h88v-98h-168v223q34 5 51 39q4 10 5.5 22.5t2.5 46t1 84.5q0 60 -1 98t-2.5 51t-5.5 22q-19 41 -72 41q-28 0 -46 -10.5t-27 -30.5q-4 -9 -5.5 -22t-2.5 -51t-1 -98q0 -51 1 -84.5t3 -46t6 -22.5q15 -33 50 -39v-223h-168v98h88v47q-55 22 -79 75
q-8 17 -11.5 35.5t-5 54t-1.5 105.5q0 78 1.5 116.5t5.5 57.5t12 37q20 45 66 68.5t114 23.5q67 0 113 -23.5t66 -68.5q8 -18 12 -37t5.5 -57.5t1.5 -116.5q0 -70 -1.5 -105.5t-5 -54t-11.5 -35.5q-25 -52 -79 -75v-47z" />
    <glyph glyph-name="uni03BC" unicode="&#x3bc;" horiz-adv-x="380" 
d="M350 520v-520h-107v47q-29 -55 -83 -55q-16 0 -27 4q7 -60 7 -105v-62h-110v691h110v-369q0 -34 11 -48.5t36 -14.5q26 0 39.5 17t13.5 51v364h110z" />
    <glyph glyph-name="pi" unicode="&#x3c0;" horiz-adv-x="489" 
d="M344.5 6.5q-26.5 11.5 -39.5 39t-13 74.5v301h-94v-421h-110v421h-57v99h428v-99h-57v-275q0 -31 9.5 -42t31.5 -11h16v-94q-23 -4 -46 -4q-42 0 -68.5 11.5z" />
    <glyph glyph-name="Wgrave" unicode="&#x1e80;" horiz-adv-x="624" 
d="M624 706l-119 -706h-122l-71 479l-71 -479h-121l-120 706h113l72 -500l69 500h117l68 -496l72 496h113zM276 747l-88 113h114l75 -113h-101z" />
    <glyph glyph-name="wgrave" unicode="&#x1e81;" horiz-adv-x="565" 
d="M564 520l-112 -520h-112l-57 340l-57 -340h-113l-111 520h110l56 -347l62 347h105l62 -346l56 346h111zM247 568l-78 138h108l65 -138h-95z" />
    <glyph glyph-name="Wacute" unicode="&#x1e82;" horiz-adv-x="624" 
d="M624 706l-119 -706h-122l-71 479l-71 -479h-121l-120 706h113l72 -500l69 500h117l68 -496l72 496h113zM324 860h114l-88 -113h-101z" />
    <glyph glyph-name="wacute" unicode="&#x1e83;" horiz-adv-x="565" 
d="M564 520l-112 -520h-112l-57 340l-57 -340h-113l-111 520h110l56 -347l62 347h105l62 -346l56 346h111zM288 706h108l-78 -138h-95z" />
    <glyph glyph-name="Wdieresis" unicode="&#x1e84;" horiz-adv-x="624" 
d="M624 706l-119 -706h-122l-71 479l-71 -479h-121l-120 706h113l72 -500l69 500h117l68 -496l72 496h113zM192 766.5q-16 15.5 -16 40.5t16 40t41 15t41 -15t16 -40t-16 -40.5t-41 -15.5t-41 15.5zM351 766.5q-16 15.5 -16 40.5t16.5 40t41.5 15t41 -15t16 -40
q0 -24 -16.5 -40t-40.5 -16q-26 0 -42 15.5z" />
    <glyph glyph-name="wdieresis" unicode="&#x1e85;" horiz-adv-x="565" 
d="M564 520l-112 -520h-112l-57 340l-57 -340h-113l-111 520h110l56 -347l62 347h105l62 -346l56 346h111zM163.5 589.5q-16.5 15.5 -16.5 40.5q0 26 16.5 41.5t42.5 15.5q25 0 42 -15.5t17 -41.5q0 -25 -16.5 -40.5t-42.5 -15.5t-42.5 15.5zM316.5 589.5
q-16.5 15.5 -16.5 40.5q0 26 16.5 41.5t42.5 15.5q25 0 41.5 -15.5t16.5 -41.5q0 -25 -16.5 -40.5t-41.5 -15.5q-26 0 -42.5 15.5z" />
    <glyph glyph-name="Germandbls" unicode="&#x1e9e;" horiz-adv-x="438" 
d="M410.5 314.5q2.5 -24.5 2.5 -93.5q0 -45 -1 -75.5t-4 -45t-9 -26.5q-34 -76 -148 -76q-34 0 -59 4v100q10 -2 31 -2q51 0 65 32q4 8 5 22.5t1 64.5q0 52 -1 69t-5 25q-14 32 -61 32q-11 0 -16 -1v2l64 255h-124v-601h-116v706h372v-4l-71 -287q45 -17 64 -58
q8 -18 10.5 -42.5z" />
    <glyph glyph-name="Ygrave" unicode="&#x1ef2;" horiz-adv-x="397" 
d="M140 290l-140 416h119l80 -285l80 285h117l-139 -416v-290h-117v290zM163 747l-88 113h114l75 -113h-101z" />
    <glyph glyph-name="ygrave" unicode="&#x1ef3;" horiz-adv-x="362" 
d="M360 520l-129 -520l-47 -170h-108l47 174l-121 516h116l60 -370l69 370h113zM147 568l-78 138h108l65 -138h-95z" />
    <glyph glyph-name="uni2009" unicode="&#x2009;" horiz-adv-x="51" 
 />
    <glyph glyph-name="uni2011" unicode="&#x2011;" horiz-adv-x="264" 
d="M31 354h203v-100h-203v100z" />
    <glyph glyph-name="endash" unicode="&#x2013;" horiz-adv-x="328" 
d="M31 354h268v-98h-268v98z" />
    <glyph glyph-name="emdash" unicode="&#x2014;" horiz-adv-x="656" 
d="M31 354h595v-98h-595v98z" />
    <glyph glyph-name="quoteleft" unicode="&#x2018;" horiz-adv-x="190" 
d="M128 446h-109l69 260h83z" />
    <glyph glyph-name="quoteright" unicode="&#x2019;" horiz-adv-x="190" 
d="M62 706h109l-68 -260h-84z" />
    <glyph glyph-name="quotesinglbase" unicode="&#x201a;" horiz-adv-x="190" 
d="M62 146h109l-68 -260h-84z" />
    <glyph glyph-name="quotedblleft" unicode="&#x201c;" horiz-adv-x="337" 
d="M128 446h-109l69 260h83zM275 446h-109l69 260h83z" />
    <glyph glyph-name="quotedblright" unicode="&#x201d;" horiz-adv-x="337" 
d="M209 706h109l-68 -260h-84zM62 706h109l-68 -260h-84z" />
    <glyph glyph-name="quotedblbase" unicode="&#x201e;" horiz-adv-x="337" 
d="M209 146h109l-68 -260h-84zM62 146h109l-68 -260h-84z" />
    <glyph glyph-name="dagger" unicode="&#x2020;" horiz-adv-x="297" 
d="M284 449h-79v-449h-112v449h-80v106h80v151h112v-151h79v-106z" />
    <glyph glyph-name="daggerdbl" unicode="&#x2021;" horiz-adv-x="297" 
d="M205 460v-214h79v-107h-79v-139h-112v139h-80v107h80v214h-80v107h80v139h112v-139h79v-107h-79z" />
    <glyph glyph-name="bullet" unicode="&#x2022;" horiz-adv-x="367" 
d="M123 264.5q-27 14.5 -42 41t-15 61.5q0 36 15 62t41.5 40t61.5 14q34 0 60 -14t40.5 -40t14.5 -62q0 -35 -14.5 -61.5t-40.5 -41t-60 -14.5t-61 14.5z" />
    <glyph glyph-name="ellipsis" unicode="&#x2026;" horiz-adv-x="610" 
d="M256.5 7.5q-18.5 17.5 -18.5 46.5q0 30 18.5 48t48.5 18q29 0 47 -18t18 -48q0 -29 -18 -46.5t-47 -17.5q-30 0 -48.5 17.5zM444.5 7.5q-18.5 17.5 -18.5 46.5q0 30 18.5 48t48.5 18q29 0 47 -18t18 -48q0 -29 -18 -46.5t-47 -17.5q-30 0 -48.5 17.5zM69.5 7.5
q-18.5 17.5 -18.5 46.5q0 30 18.5 48t48.5 18q29 0 47 -18t18 -48q0 -29 -18 -46.5t-47 -17.5q-30 0 -48.5 17.5z" />
    <glyph glyph-name="perthousand" unicode="&#x2030;" horiz-adv-x="705" 
d="M28 458q-7 16 -9.5 35.5t-2.5 67.5q0 49 2.5 68.5t9.5 34.5q21 48 88 48t88 -48q7 -15 9.5 -34.5t2.5 -68.5q0 -48 -2.5 -67.5t-9.5 -35.5q-21 -47 -88 -47t-88 47zM363 706h68l-317 -706h-68zM140 489q2 6 3 21.5t1 50.5q0 34 -1 50.5t-3 22.5q-6 13 -24 13
q-17 0 -24 -13q-2 -6 -3 -22.5t-1 -50.5q0 -35 1 -51t3 -22q7 -12 24 -12q18 0 24 13zM273 42q-7 15 -9 34.5t-2 69.5t2 69t9 34q23 47 89 47q32 0 54.5 -12t32.5 -35q7 -16 9.5 -35.5t2.5 -67.5t-2.5 -68t-9.5 -36q-10 -23 -32.5 -35t-54.5 -12q-66 0 -89 47zM501 42
q-7 15 -9 34.5t-2 69.5t2 69t9 34q23 47 89 47q32 0 54.5 -12t32.5 -35q7 -16 9.5 -35.5t2.5 -67.5t-2.5 -68t-9.5 -36q-10 -23 -32.5 -35t-54.5 -12q-66 0 -89 47zM377 63.5q6 3.5 8 9.5q3 5 3.5 21.5t0.5 51.5q0 34 -1 50t-3 22q-6 13 -23 13t-24 -13q-3 -5 -3.5 -21.5
t-0.5 -50.5q0 -35 1 -51t3 -22q5 -13 24 -13q9 0 15 3.5zM605 63.5q6 3.5 8 9.5q3 5 3.5 21.5t0.5 51.5q0 34 -1 50t-3 22q-6 13 -23 13t-24 -13q-3 -5 -3.5 -21.5t-0.5 -50.5q0 -35 1 -51t3 -22q5 -13 24 -13q9 0 15 3.5z" />
    <glyph glyph-name="guilsinglleft" unicode="&#x2039;" horiz-adv-x="214" 
d="M10 300l91 161h102l-91 -161l91 -162h-102z" />
    <glyph glyph-name="guilsinglright" unicode="&#x203a;" horiz-adv-x="214" 
d="M11 138l91 162l-91 161h102l91 -161l-91 -162h-102z" />
    <glyph glyph-name="fraction" unicode="&#x2044;" horiz-adv-x="136" 
d="M188 706h64l-303 -706h-65z" />
    <glyph glyph-name="zero.superior" unicode="&#x2070;" horiz-adv-x="289" 
d="M36 490q-8 18 -10.5 44.5t-2.5 97.5t2.5 97.5t10.5 44.5q27 59 108 59q83 0 109 -59q8 -18 10.5 -44.5t2.5 -97.5t-2.5 -97.5t-10.5 -44.5q-26 -59 -109 -59q-81 0 -108 59zM174 523q3 8 4 31.5t1 77.5t-1 77.5t-4 31.5q-8 16 -30 16t-28 -16q-4 -8 -5 -25.5t-1 -83.5
t1 -83.5t5 -25.5q6 -16 28 -16t30 16z" />
    <glyph glyph-name="four.superior" unicode="&#x2074;" horiz-adv-x="284" 
d="M158 516h-161v2l94 308h148v-236h37v-74h-37v-78h-81v78zM158 590v205l-58 -205h58z" />
    <glyph glyph-name="five.superior" unicode="&#x2075;" horiz-adv-x="259" 
d="M62.5 443.5q-27.5 12.5 -39.5 39.5q-5 11 -7 28.5t-2 54.5h80q0 -21 0.5 -32t3.5 -17q6 -15 28 -15q11 0 18.5 4t10.5 10q2 5 2.5 15t0.5 31t-1 32.5t-4 18.5q-7 12 -23 17t-44 5q-31 0 -63 -5l21 196h188l-8 -69h-108l-7 -65q22 4 39 4q33 0 55 -11.5t32 -32.5
q5 -12 7 -28t2 -57q0 -39 -2 -55.5t-7 -27.5q-12 -27 -39.5 -40t-67.5 -13q-38 0 -65.5 12.5z" />
    <glyph glyph-name="six.superior" unicode="&#x2076;" horiz-adv-x="283" 
d="M261.5 621.5q1.5 -13.5 1.5 -53.5q0 -41 -2 -55.5t-8 -26.5q-12 -27 -40 -41t-69 -14q-42 0 -70 14.5t-41 43.5q-5 11 -8 24t-4 43t-1 75q0 44 1 73t4 43t9 28q27 58 111 58q28 0 49 -7t36 -21q13 -13 18 -33t8 -54h-79q-1 19 -2.5 26.5t-5.5 12.5q-8 9 -24 9
q-13 0 -21.5 -5.5t-13.5 -15.5q-3 -8 -4.5 -23.5t-1.5 -58.5q11 12 28.5 18.5t40.5 6.5q29 0 50.5 -11t31.5 -32q5 -10 6.5 -23.5zM175.5 530q0.5 10 0.5 32q0 23 -1 34t-3 15q-7 16 -29 16q-11 0 -18.5 -4.5t-10.5 -12.5q-3 -5 -4 -14t-1 -34q0 -21 1 -31t3 -15
q4 -8 11.5 -12.5t18.5 -4.5q23 0 30 16q2 5 2.5 15z" />
    <glyph glyph-name="seven.superior" unicode="&#x2077;" horiz-adv-x="232" 
d="M117 750h-104v76h216l-109 -388h-91z" />
    <glyph glyph-name="eight.superior" unicode="&#x2078;" horiz-adv-x="274" 
d="M253.5 596q1.5 -12 1.5 -44t-1.5 -45.5t-6.5 -23.5q-11 -25 -39.5 -38.5t-70.5 -13.5t-70.5 13.5t-39.5 38.5q-5 9 -6.5 22t-1.5 47q0 32 1.5 44.5t5.5 21.5q12 25 44 35q-32 12 -42 34q-4 7 -5 17t-1 33q0 19 1.5 28.5t5.5 18.5q11 23 39 36t69 13t69 -13t39 -36
q4 -10 5.5 -19t1.5 -28q0 -20 -1.5 -30.5t-4.5 -19.5q-11 -23 -42 -34q30 -9 44 -35q4 -10 5.5 -22zM106.5 746q-0.5 -7 -0.5 -19q0 -14 0.5 -21.5t2.5 -11.5q3 -7 10 -10t18 -3q21 0 28 14q1 3 1.5 10.5t0.5 21.5v19t-2 11q-6 13 -28 13t-28 -14q-2 -3 -2.5 -10z
M168.5 527.5q0.5 9.5 0.5 29.5t-0.5 29.5t-1.5 13.5q-8 16 -30 16t-30 -16q-1 -4 -1.5 -13.5t-0.5 -29.5t0.5 -29.5t1.5 -13.5q8 -16 30 -16t30 16q1 4 1.5 13.5z" />
    <glyph glyph-name="nine.superior" unicode="&#x2079;" horiz-adv-x="283" 
d="M258 751q3 -13 4 -43t1 -75q0 -44 -1 -73t-4 -43t-9 -28q-27 -58 -110 -58q-29 0 -50 7t-35 21q-13 13 -18.5 34t-7.5 53h78q1 -19 2.5 -26.5t5.5 -12.5q7 -9 25 -9q12 0 20.5 5.5t13.5 15.5q3 8 4.5 23.5t1.5 57.5q-24 -24 -69 -24q-29 0 -50.5 11t-31.5 32
q-5 11 -6.5 25t-1.5 52q0 39 2 54t8 28q12 27 40 41t69 14q42 0 70 -14.5t41 -43.5q5 -11 8 -24zM173 669q1 9 1 33q0 21 -1 31t-3 15q-4 8 -11.5 12.5t-18.5 4.5q-22 0 -29 -16q-2 -5 -3 -15t-1 -32q0 -23 1 -34t3 -15q7 -16 29 -16q11 0 18.5 4.5t11.5 12.5q2 6 3 15z" />
    <glyph glyph-name="uni207A" unicode="&#x207a;" horiz-adv-x="246" 
d="M227 600h-72v-67h-64v67h-73v65h73v69h64v-69h72v-65z" />
    <glyph glyph-name="uni207B" unicode="&#x207b;" horiz-adv-x="246" 
d="M19 665h209v-65h-209v65z" />
    <glyph glyph-name="uni207C" unicode="&#x207c;" horiz-adv-x="236" 
d="M19 706h199v-55h-199v55zM19 615h199v-56h-199v56z" />
    <glyph glyph-name="uni207D" unicode="&#x207d;" horiz-adv-x="165" 
d="M42 497.5q-14 58.5 -14 134.5q0 77 14 135.5t45 123.5h70q-26 -62 -39 -124.5t-13 -134.5q0 -71 13 -134t39 -125h-70q-31 66 -45 124.5z" />
    <glyph glyph-name="uni207E" unicode="&#x207e;" horiz-adv-x="165" 
d="M8 373q26 63 39 126t13 133q0 72 -13 134t-39 125h69q32 -65 46 -123t14 -136q0 -76 -14 -135t-46 -124h-69z" />
    <glyph glyph-name="n.superior" unicode="&#x207f;" horiz-adv-x="266" 
d="M228 690q20 -23 20 -64v-280h-83v259q0 19 -6.5 28.5t-22.5 9.5q-17 0 -25.5 -11t-8.5 -32v-254h-82v361h82v-26q26 32 67 32q39 0 59 -23z" />
    <glyph glyph-name="zero.inferior" unicode="&#x2080;" horiz-adv-x="289" 
d="M36 -68q-8 18 -10.5 44.5t-2.5 97.5t2.5 97.5t10.5 44.5q27 59 108 59q83 0 109 -59q8 -18 10.5 -44.5t2.5 -97.5t-2.5 -97.5t-10.5 -44.5q-26 -59 -109 -59q-81 0 -108 59zM174 -35q3 8 4 31.5t1 77.5t-1 77.5t-4 31.5q-8 16 -30 16t-28 -16q-4 -8 -5 -25.5t-1 -83.5
t1 -83.5t5 -25.5q6 -16 28 -16t30 16z" />
    <glyph glyph-name="one.inferior" unicode="&#x2081;" horiz-adv-x="182" 
d="M62 190h-54l12 78h129v-388h-87v310z" />
    <glyph glyph-name="two.inferior" unicode="&#x2082;" horiz-adv-x="250" 
d="M8 -117l114 190q18 29 24 44t6 39q0 15 -0.5 22.5t-2.5 10.5q-6 14 -26 14q-11 0 -17.5 -3.5t-10.5 -11.5q-2 -4 -2.5 -12.5t-0.5 -23.5h-80q0 33 2 47t7 26q23 50 102 50q81 0 104 -49q5 -11 7 -23.5t2 -32.5q0 -35 -6.5 -57.5t-23.5 -52.5q-37 -64 -62 -104h89v-76
h-225v3z" />
    <glyph glyph-name="three.inferior" unicode="&#x2083;" horiz-adv-x="261" 
d="M240.5 37q1.5 -12 1.5 -41q0 -35 -2 -48.5t-7 -25.5q-11 -25 -39 -37t-68 -12t-65 11.5t-36 37.5q-6 14 -8 31t-2 59h77q0 -23 1 -35.5t3 -17.5q7 -15 29 -15q21 0 29 13q2 4 2.5 13.5t0.5 28.5q0 18 -1 26.5t-3 14.5q-4 8 -14 11.5t-29 3.5h-10v62h11q17 0 26.5 4
t13.5 12q2 4 3 11t1 19t-0.5 18.5t-2.5 10.5q-6 12 -26 12t-28 -14q-2 -4 -2.5 -12.5t-0.5 -24.5h-77q0 31 1.5 44.5t6.5 25.5q13 28 38.5 40t63.5 12t64.5 -11.5t38.5 -36.5q4 -10 5.5 -21.5t1.5 -39.5q0 -22 -1 -31t-5 -16q-9 -21 -38 -30q16 -4 26 -11t15 -19
q4 -10 5.5 -22z" />
    <glyph glyph-name="four.inferior" unicode="&#x2084;" horiz-adv-x="284" 
d="M158 -42h-161v2l94 308h148v-236h37v-74h-37v-78h-81v78zM158 32v205l-58 -205h58z" />
    <glyph glyph-name="five.inferior" unicode="&#x2085;" horiz-adv-x="259" 
d="M62.5 -114.5q-27.5 12.5 -39.5 39.5q-5 11 -7 28.5t-2 54.5h80q0 -21 0.5 -32t3.5 -17q6 -15 28 -15q11 0 18.5 4t10.5 10q2 5 2.5 15t0.5 31t-1 32.5t-4 18.5q-7 12 -23 17t-44 5q-31 0 -63 -5l21 196h188l-8 -69h-108l-7 -65q22 4 39 4q33 0 55 -11.5t32 -32.5
q5 -12 7 -28t2 -57q0 -39 -2 -55.5t-7 -27.5q-12 -27 -39.5 -40t-67.5 -13q-38 0 -65.5 12.5z" />
    <glyph glyph-name="six.inferior" unicode="&#x2086;" horiz-adv-x="283" 
d="M261.5 63.5q1.5 -13.5 1.5 -53.5q0 -41 -2 -55.5t-8 -26.5q-12 -27 -40 -41t-69 -14q-42 0 -70 14.5t-41 43.5q-5 11 -8 24t-4 43t-1 75q0 44 1 73t4 43t9 28q27 58 111 58q28 0 49 -7t36 -21q13 -13 18 -33t8 -54h-79q-1 19 -2.5 26.5t-5.5 12.5q-8 9 -24 9
q-13 0 -21.5 -5.5t-13.5 -15.5q-3 -8 -4.5 -23.5t-1.5 -58.5q11 12 28.5 18.5t40.5 6.5q29 0 50.5 -11t31.5 -32q5 -10 6.5 -23.5zM175.5 -28q0.5 10 0.5 32q0 23 -1 34t-3 15q-7 16 -29 16q-11 0 -18.5 -4.5t-10.5 -12.5q-3 -5 -4 -14t-1 -34q0 -21 1 -31t3 -15
q4 -8 11.5 -12.5t18.5 -4.5q23 0 30 16q2 5 2.5 15z" />
    <glyph glyph-name="seven.inferior" unicode="&#x2087;" horiz-adv-x="232" 
d="M117 192h-104v76h216l-109 -388h-91z" />
    <glyph glyph-name="eight.inferior" unicode="&#x2088;" horiz-adv-x="274" 
d="M253.5 38q1.5 -12 1.5 -44t-1.5 -45.5t-6.5 -23.5q-11 -25 -39.5 -38.5t-70.5 -13.5t-70.5 13.5t-39.5 38.5q-5 9 -6.5 22t-1.5 47q0 32 1.5 44.5t5.5 21.5q12 25 44 35q-32 12 -42 34q-4 7 -5 17t-1 33q0 19 1.5 28.5t5.5 18.5q11 23 39 36t69 13t69 -13t39 -36
q4 -10 5.5 -19t1.5 -28q0 -20 -1.5 -30.5t-4.5 -19.5q-11 -23 -42 -34q30 -9 44 -35q4 -10 5.5 -22zM106.5 188q-0.5 -7 -0.5 -19q0 -14 0.5 -21.5t2.5 -11.5q3 -7 10 -10t18 -3q21 0 28 14q1 3 1.5 10.5t0.5 21.5v19t-2 11q-6 13 -28 13t-28 -14q-2 -3 -2.5 -10z
M168.5 -30.5q0.5 9.5 0.5 29.5t-0.5 29.5t-1.5 13.5q-8 16 -30 16t-30 -16q-1 -4 -1.5 -13.5t-0.5 -29.5t0.5 -29.5t1.5 -13.5q8 -16 30 -16t30 16q1 4 1.5 13.5z" />
    <glyph glyph-name="nine.inferior" unicode="&#x2089;" horiz-adv-x="283" 
d="M258 193q3 -13 4 -43t1 -75q0 -44 -1 -73t-4 -43t-9 -28q-27 -58 -110 -58q-29 0 -50 7t-35 21q-13 13 -18.5 34t-7.5 53h78q1 -19 2.5 -26.5t5.5 -12.5q7 -9 25 -9q12 0 20.5 5.5t13.5 15.5q3 8 4.5 23.5t1.5 57.5q-24 -24 -69 -24q-29 0 -50.5 11t-31.5 32
q-5 11 -6.5 25t-1.5 52q0 39 2 54t8 28q12 27 40 41t69 14q42 0 70 -14.5t41 -43.5q5 -11 8 -24zM173 111q1 9 1 33q0 21 -1 31t-3 15q-4 8 -11.5 12.5t-18.5 4.5q-22 0 -29 -16q-2 -5 -3 -15t-1 -32q0 -23 1 -34t3 -15q7 -16 29 -16q11 0 18.5 4.5t11.5 12.5q2 6 3 15z" />
    <glyph glyph-name="uni208A" unicode="&#x208a;" horiz-adv-x="247" 
d="M228 42h-72v-67h-64v67h-73v65h73v69h64v-69h72v-65z" />
    <glyph glyph-name="uni208B" unicode="&#x208b;" horiz-adv-x="246" 
d="M19 107h209v-65h-209v65z" />
    <glyph glyph-name="uni208C" unicode="&#x208c;" horiz-adv-x="236" 
d="M19 148h199v-55h-199v55zM19 57h199v-56h-199v56z" />
    <glyph glyph-name="uni208D" unicode="&#x208d;" horiz-adv-x="165" 
d="M42 -60.5q-14 58.5 -14 134.5q0 77 14 135.5t45 123.5h70q-26 -62 -39 -124.5t-13 -134.5q0 -71 13 -134t39 -125h-70q-31 66 -45 124.5z" />
    <glyph glyph-name="uni208E" unicode="&#x208e;" horiz-adv-x="165" 
d="M8 -185q26 63 39 126t13 133q0 72 -13 134t-39 125h69q32 -65 46 -123t14 -136q0 -76 -14 -135t-46 -124h-69z" />
    <glyph glyph-name="uni2099" unicode="&#x2099;" horiz-adv-x="266" 
d="M228 161q20 -23 20 -64v-280h-83v259q0 19 -6.5 28.5t-22.5 9.5q-17 0 -25.5 -11t-8.5 -32v-254h-82v361h82v-26q26 32 67 32q39 0 59 -23z" />
    <glyph glyph-name="Euro" unicode="&#x20ac;" horiz-adv-x="474" 
d="M450 229q0 -77 -13 -121.5t-44 -72.5q-49 -46 -135 -46q-66 0 -111 26.5t-68 78.5q-12 27 -17.5 64.5t-6.5 119.5h-34v58h34v17v25h-34v58h35q1 78 6 114t17 62q46 105 179 105q82 0 133 -46q32 -29 44.5 -72t13.5 -121h-119q0 40 -2.5 62t-7 33.5t-13.5 19.5
q-21 18 -52 18q-50 0 -69 -42q-6 -15 -8 -39.5t-3 -93.5h138v-58h-138v-25v-17h138v-58h-138q1 -74 3 -100t8 -41q10 -21 27 -31.5t42 -10.5q32 0 53 18q8 8 12.5 19t7.5 34t3 63h119z" />
    <glyph glyph-name="uni20B9" unicode="&#x20b9;" horiz-adv-x="382" 
d="M371 643h-84q5 -6 10 -18q7 -17 10 -37t4 -62h60v-63h-60q-1 -49 -3.5 -70t-10.5 -37q-24 -57 -97 -66l131 -290h-125l-161 371h81q25 0 40 7t22 23q4 8 5.5 19.5t2.5 42.5h-168v63h168q-1 29 -2.5 40.5t-5.5 20.5q-7 16 -20.5 23t-36.5 7h-103v89h343v-63z" />
    <glyph glyph-name="uni20BA" unicode="&#x20ba;" horiz-adv-x="414" 
d="M402 306q0 -74 -2 -114t-6.5 -62t-13.5 -42q-20 -44 -60.5 -66t-104.5 -22h-151v284l-43 -20v66l43 20v44l-43 -20v66l43 20v246h115v-200l122 56v-66l-122 -55v-45l122 56v-66l-122 -55v-226h30q29 0 46.5 9t25.5 27q4 9 6 22.5t2.5 50t0.5 92.5h112z" />
    <glyph glyph-name="uni20BC" unicode="&#x20bc;" horiz-adv-x="554" 
d="M513 512q4 -18 5.5 -49.5t1.5 -89.5v-373h-117v375q0 43 -0.5 71.5t-2.5 40t-6 20.5q-8 18 -22.5 27t-36.5 9v-543h-116v543q-22 0 -36.5 -9t-22.5 -27q-6 -13 -7.5 -36.5t-1.5 -95.5v-375h-116v373q0 60 1.5 90.5t5.5 49t12 36.5q22 46 62.5 68t102.5 22v67h116v-67
q63 0 103 -22t62 -68q9 -19 13 -37z" />
    <glyph glyph-name="uni2113" unicode="&#x2113;" horiz-adv-x="359" 
d="M169.5 132q9.5 -22 29 -32t50.5 -10q29 0 67 12v-94q-38 -14 -90 -14q-87 0 -131 45t-45 139q-13 -1 -40 -1v86q28 0 40 1v243q0 74 14.5 119.5t46 66.5t82.5 21q54 0 85.5 -21.5t46 -69.5t14.5 -129q0 -90 -18 -150.5t-57.5 -97.5t-104.5 -54q1 -38 10.5 -60zM159 286
q27 14 42.5 39.5t21.5 66t6 102.5q0 58 -4 86.5t-12 38t-21 9.5q-12 0 -19 -7.5t-10.5 -26t-3.5 -52.5v-256z" />
    <glyph glyph-name="uni2117" unicode="&#x2117;" horiz-adv-x="525" 
d="M131.5 20q-52.5 32 -78.5 90q-16 35 -21.5 89.5t-5.5 153.5t5.5 153.5t21.5 89.5q26 58 79.5 90t129.5 32q77 0 129.5 -31t79.5 -89q17 -36 22.5 -90.5t5.5 -154.5q0 -104 -5.5 -155.5t-21.5 -87.5q-27 -59 -79.5 -90.5t-130.5 -31.5t-130.5 32zM429 134q12 28 16 74
t4 144q0 94 -4.5 144.5t-17.5 79.5q-21 47 -62.5 72t-101.5 25q-61 0 -103.5 -26t-63.5 -74q-13 -28 -17 -76.5t-4 -142.5q0 -97 4.5 -145t17.5 -76q22 -49 62.5 -74.5t102.5 -25.5q121 0 167 101zM154 596h133q37 0 60 -12t34 -36q6 -14 8 -30.5t2 -56.5q0 -41 -2 -58
t-8 -31q-21 -47 -94 -47h-47v-214h-86v485zM266 395q14 0 21.5 3.5t11.5 12.5q2 5 3 16t1 34q0 22 -1 33t-3 17q-4 8 -12 11.5t-21 3.5h-26v-131h26z" />
    <glyph glyph-name="trademark" unicode="&#x2122;" horiz-adv-x="484" 
d="M47 642h-44v64h162v-64h-45v-246h-73v246zM182 706h92l49 -194l50 194h91v-310h-68v191l-52 -191h-42l-52 191v-191h-68v310z" />
    <glyph glyph-name="Omega" unicode="&#x2126;" horiz-adv-x="449" 
d="M326 98h88v-98h-168v223q34 5 51 39q4 10 5.5 22.5t2.5 46t1 84.5q0 60 -1 98t-2.5 51t-5.5 22q-19 41 -72 41q-28 0 -46 -10.5t-27 -30.5q-4 -9 -5.5 -22t-2.5 -51t-1 -98q0 -51 1 -84.5t3 -46t6 -22.5q15 -33 50 -39v-223h-168v98h88v47q-55 22 -79 75
q-8 17 -11.5 35.5t-5 54t-1.5 105.5q0 78 1.5 116.5t5.5 57.5t12 37q20 45 66 68.5t114 23.5q67 0 113 -23.5t66 -68.5q8 -18 12 -37t5.5 -57.5t1.5 -116.5q0 -70 -1.5 -105.5t-5 -54t-11.5 -35.5q-25 -52 -79 -75v-47z" />
    <glyph glyph-name="estimated" unicode="&#x212e;" horiz-adv-x="835" 
d="M231 32.5q-87 43.5 -139.5 121.5t-52.5 176q0 96 51 174t138 122.5t190 44.5q102 0 188.5 -45t138 -124.5t51.5 -177.5h-608q-6 0 -8 -2.5t-2 -8.5v-197q47 -51 110 -78.5t130 -27.5q73 0 139 32.5t113 88.5h57q-56 -68 -138 -105t-171 -37q-100 0 -187 43.5zM649 347
q5 0 7 2.5t2 8.5v184q-44 51 -108 79.5t-132 28.5q-70 0 -133 -28.5t-107 -78.5v-185q0 -6 2 -8.5t8 -2.5h461z" />
    <glyph glyph-name="partialdiff" unicode="&#x2202;" horiz-adv-x="422" 
d="M385 574q5 -28 7 -77.5t2 -140.5q0 -96 -2.5 -146.5t-7.5 -76t-15 -47.5q-44 -98 -167 -98q-60 0 -101 22t-60 65q-7 16 -10.5 32t-5 44.5t-1.5 85.5q0 48 1 80.5t4 47.5t9 28q16 34 47.5 51.5t76.5 17.5q39 0 68.5 -14t46.5 -40q0 88 -2.5 121.5t-9.5 50.5
q-8 19 -22.5 28t-37.5 9q-28 0 -43 -15q-8 -9 -11.5 -25.5t-5.5 -44.5h-111q3 48 12 83t31 58q45 45 130 45q121 0 163 -93q10 -23 15 -51zM268.5 154.5q1.5 18.5 1.5 73.5q0 56 -2 76t-6 31q-7 16 -22 25.5t-36 9.5q-41 0 -55 -33q-4 -10 -5.5 -28.5t-1.5 -78.5
q0 -59 1.5 -77.5t5.5 -28.5q14 -34 56 -34q43 0 58 36q4 10 5.5 28.5z" />
    <glyph glyph-name="Delta" unicode="&#x2206;" horiz-adv-x="430" 
d="M429 0h-429l125 706h180zM297 101l-81 510h-2l-81 -510h164z" />
    <glyph glyph-name="product" unicode="&#x220f;" horiz-adv-x="439" 
d="M35 706h370v-876h-118v769h-134v-769h-118v876z" />
    <glyph glyph-name="summation" unicode="&#x2211;" horiz-adv-x="331" 
d="M143 293l-125 413h302v-105h-149l91 -308l-99 -358h166v-105h-319z" />
    <glyph glyph-name="minus" unicode="&#x2212;" horiz-adv-x="388" 
d="M31 347h327v-86h-327v86z" />
    <glyph glyph-name="uni2215" unicode="&#x2215;" horiz-adv-x="388" 
d="M241 706h94l-189 -706h-93z" />
    <glyph glyph-name="uni2219" unicode="&#x2219;" horiz-adv-x="388" 
d="M143 245q-24 23 -24 62t24 62t63 23t62.5 -23t23.5 -62t-23.5 -62t-62.5 -23t-63 23z" />
    <glyph glyph-name="radical" unicode="&#x221a;" horiz-adv-x="456" 
d="M456 706l-162 -878h-139l-87 412l-58 -16v104l143 32l72 -405l113 751h118z" />
    <glyph glyph-name="infinity" unicode="&#x221e;" horiz-adv-x="585" 
d="M558.5 387.5q3.5 -14.5 4.5 -46.5t1 -79t-1 -79t-4.5 -46.5t-9.5 -29.5q-17 -37 -49 -56t-78 -19q-50 0 -81 24.5t-49 76.5q-17 -52 -48 -76.5t-81 -24.5q-46 0 -78 19t-49 56q-6 15 -9.5 29.5t-4.5 46.5t-1 79t1 79t4.5 46.5t9.5 29.5q17 36 49.5 55.5t77.5 19.5
q50 0 81 -24.5t49 -77.5q17 53 48 77.5t81 24.5q45 0 77.5 -19.5t49.5 -55.5q6 -15 9.5 -29.5zM201 140.5q11 11.5 19.5 40t17.5 81.5q-9 53 -17.5 81t-19.5 39.5t-28 11.5q-28 0 -39 -23q-4 -10 -5.5 -28.5t-1.5 -80.5t1.5 -80.5t5.5 -27.5q12 -25 39 -25q17 0 28 11.5z
M457 180q1 18 1 82t-1 82t-5 27q-11 23 -40 23q-17 0 -28.5 -11.5t-20 -39.5t-17.5 -81q9 -53 17.5 -81.5t20 -40t28.5 -11.5q28 0 40 25q4 8 5 26z" />
    <glyph glyph-name="integral" unicode="&#x222b;" horiz-adv-x="285" 
d="M0 -170l18 97q7 -1 18 -1q20 0 28.5 10.5t10.5 34.5l36 615q3 64 34 93.5t95 29.5q23 0 45 -3l-17 -99q-5 1 -13 1q-18 0 -26 -10.5t-10 -33.5l-37 -616q-4 -64 -34.5 -93t-93.5 -29q-30 0 -54 4z" />
    <glyph glyph-name="approxequal" unicode="&#x2248;" horiz-adv-x="388" 
d="M215.5 326.5q-16.5 7.5 -36.5 22.5q-13 10 -20.5 14t-16.5 4q-14 0 -19.5 -11t-7.5 -35h-72q2 64 22.5 95t65.5 31q26 0 42.5 -7.5t36.5 -22.5q13 -10 20.5 -14t16.5 -4q14 0 19.5 10.5t7.5 34.5h72q-2 -65 -22.5 -95t-65.5 -30q-26 0 -42.5 7.5zM215 169q-17 8 -36 23
q-14 10 -21 13.5t-16 3.5q-14 0 -19.5 -11t-7.5 -35h-72q2 64 22.5 95t65.5 31q26 0 43.5 -8t35.5 -22q13 -10 20.5 -14t16.5 -4q14 0 19.5 11t7.5 35h72q-2 -66 -22.5 -96t-65.5 -30q-26 0 -43 8z" />
    <glyph glyph-name="notequal" unicode="&#x2260;" horiz-adv-x="388" 
d="M244 342l-41 -76h155v-86h-195l-47 -88h-58l46 88h-73v86h113l42 76h-155v86h197l47 88h58l-47 -88h72v-86h-114z" />
    <glyph glyph-name="lessequal" unicode="&#x2264;" horiz-adv-x="388" 
d="M359 406l-268 -55l268 -53v-88l-328 80v122l328 81v-87zM31 187h328v-86h-328v86z" />
    <glyph glyph-name="greaterequal" unicode="&#x2265;" horiz-adv-x="388" 
d="M358 412v-122l-327 -80v88l268 53l-268 55v87zM31 187h327v-86h-327v86z" />
    <glyph glyph-name="lozenge" unicode="&#x25ca;" horiz-adv-x="384" 
d="M11 268l120 438h123l119 -438l-119 -438h-123zM265 268l-73 326l-72 -326l72 -327z" />
    <glyph glyph-name="ff" unicode="&#xfb00;" horiz-adv-x="510" 
d="M58 421h-50v99h50v59q0 72 34.5 103.5t108.5 31.5q24 0 45 -3v-95q-8 2 -26 2q-29 0 -41 -13.5t-12 -44.5v-40h74v-99h-74v-421h-109v421zM314 421h-50v99h50v59q0 72 34.5 103.5t108.5 31.5q24 0 45 -3v-95q-8 2 -26 2q-29 0 -41 -13.5t-12 -44.5v-40h74v-99h-74v-421
h-109v421z" />
    <glyph glyph-name="fi" unicode="&#xfb01;" horiz-adv-x="424" 
d="M58 421h-50v99h50v59q0 72 34.5 103.5t108.5 31.5q24 0 45 -3v-95q-8 2 -26 2q-29 0 -41 -13.5t-12 -44.5v-40h74v-99h-74v-421h-109v421zM295 592.5q-18 16.5 -18 43.5t17.5 43.5t45.5 16.5q27 0 44.5 -16.5t17.5 -43.5t-17.5 -43.5t-44.5 -16.5t-45 16.5zM284 520h110
v-520h-110v520z" />
    <glyph glyph-name="fl" unicode="&#xfb02;" horiz-adv-x="424" 
d="M58 421h-50v99h50v59q0 72 34.5 103.5t108.5 31.5q24 0 45 -3v-95q-8 2 -26 2q-29 0 -41 -13.5t-12 -44.5v-40h74v-99h-74v-421h-109v421zM284 706h110v-706h-110v706z" />
    <glyph glyph-name="ffi" unicode="&#xfb03;" horiz-adv-x="680" 
d="M58 421h-50v99h50v59q0 72 34.5 103.5t108.5 31.5q24 0 45 -3v-95q-8 2 -26 2q-29 0 -41 -13.5t-12 -44.5v-40h74v-99h-74v-421h-109v421zM314 421h-50v99h50v59q0 72 34.5 103.5t108.5 31.5q24 0 45 -3v-95q-8 2 -26 2q-29 0 -41 -13.5t-12 -44.5v-40h74v-99h-74v-421
h-109v421zM551 592.5q-18 16.5 -18 43.5t17.5 43.5t45.5 16.5q27 0 44.5 -16.5t17.5 -43.5t-17.5 -43.5t-44.5 -16.5t-45 16.5zM540 520h110v-520h-110v520z" />
    <glyph glyph-name="ffl" unicode="&#xfb04;" horiz-adv-x="680" 
d="M58 421h-50v99h50v59q0 72 34.5 103.5t108.5 31.5q24 0 45 -3v-95q-8 2 -26 2q-29 0 -41 -13.5t-12 -44.5v-40h74v-99h-74v-421h-109v421zM314 421h-50v99h50v59q0 72 34.5 103.5t108.5 31.5q24 0 45 -3v-95q-8 2 -26 2q-29 0 -41 -13.5t-12 -44.5v-40h74v-99h-74v-421
h-109v421zM540 706h110v-706h-110v706z" />
    <glyph glyph-name="uniFEFF" unicode="&#xfeff;" 
 />
    <glyph glyph-name="uni00A40301" horiz-adv-x="226" 
d="M5 0v109q14 -2 22 -2q29 0 40.5 14.5t11.5 49.5v535h116v-556q0 -79 -34 -115.5t-110 -36.5q-14 0 -46 2zM150 860h114l-88 -113h-101z" />
    <glyph glyph-name="M.ss01" horiz-adv-x="551" 
d="M35 706h142l99 -260l99 260h142v-706h-112v532l-96 -256h-67l-96 256v-532h-111v706z" />
    <glyph glyph-name="Q.ss02" horiz-adv-x="458" 
d="M336 13l56 -116l-99 -43l-59 134h-5q-60 0 -102.5 22.5t-65.5 66.5q-14 23 -21 52.5t-10.5 81t-3.5 142.5q0 87 2.5 135t7.5 75t15 50q23 51 67.5 78t110.5 27t110.5 -27t67.5 -78q10 -23 15 -50t7.5 -75t2.5 -135t-2.5 -135t-7.5 -75t-15 -50q-25 -54 -71 -80zM229 96
q52 0 71 44q5 12 7.5 29t3.5 64t1 120t-1 120t-3.5 64t-7.5 29q-19 44 -71 44t-71 -44q-5 -12 -7.5 -29t-3.5 -64t-1 -120t1 -120t3.5 -64t7.5 -29q19 -44 71 -44z" />
    <glyph glyph-name="R.ss03" horiz-adv-x="405" 
d="M181 321h-30v-321h-116v706h191q57 0 91.5 -16.5t50.5 -50.5q8 -18 10.5 -42.5t2.5 -81.5q0 -58 -2.5 -82.5t-10.5 -41.5q-11 -24 -28.5 -39.5t-43.5 -22.5l109 -329h-122zM151 415h44q49 0 61 26q4 9 5.5 22t1.5 50q0 35 -1.5 47.5t-5.5 21.5q-6 14 -21 20t-40 6h-44
v-193z" />
    <glyph glyph-name="Racute.ss03" horiz-adv-x="410" 
d="M181 321h-30v-321h-116v706h191q57 0 91.5 -16.5t50.5 -50.5q8 -18 10.5 -42.5t2.5 -81.5q0 -58 -2.5 -82.5t-10.5 -41.5q-11 -24 -28.5 -39.5t-43.5 -22.5l109 -329h-122zM151 415h44q49 0 61 26q4 9 5.5 22t1.5 50q0 35 -1.5 47.5t-5.5 21.5q-6 14 -21 20t-40 6h-44
v-193zM217 860h114l-88 -113h-101z" />
    <glyph glyph-name="Rcaron.ss03" horiz-adv-x="410" 
d="M181 321h-30v-321h-116v706h191q57 0 91.5 -16.5t50.5 -50.5q8 -18 10.5 -42.5t2.5 -81.5q0 -58 -2.5 -82.5t-10.5 -41.5q-11 -24 -28.5 -39.5t-43.5 -22.5l109 -329h-122zM151 415h44q49 0 61 26q4 9 5.5 22t1.5 50q0 35 -1.5 47.5t-5.5 21.5q-6 14 -21 20t-40 6h-44
v-193zM270 747h-127l-75 112h98l40 -62l42 62h96z" />
    <glyph glyph-name="uni0156.ss03" horiz-adv-x="410" 
d="M181 321h-30v-321h-116v706h191q57 0 91.5 -16.5t50.5 -50.5q8 -18 10.5 -42.5t2.5 -81.5q0 -58 -2.5 -82.5t-10.5 -41.5q-11 -24 -28.5 -39.5t-43.5 -22.5l109 -329h-122zM151 415h44q49 0 61 26q4 9 5.5 22t1.5 50q0 35 -1.5 47.5t-5.5 21.5q-6 14 -21 20t-40 6h-44
v-193zM150 -41h110l-32 -129h-102z" />
    <glyph glyph-name="Oslash.ss04" horiz-adv-x="458" 
d="M407 613q10 -23 15 -50t7.5 -75t2.5 -135t-2.5 -135t-7.5 -75t-15 -50q-23 -51 -67.5 -78t-110.5 -27q-56 0 -96 20l-45 -70l-82 49l57 87l-2 3q-14 23 -21 52.5t-10.5 81t-3.5 142.5q0 87 2.5 135t7.5 75t15 50q23 51 67.5 78t110.5 27q56 0 98 -20l44 70l83 -48
l-56 -88zM307.5 169q2.5 17 3.5 64t1 120t-1 120t-3.5 64t-7.5 29q-19 44 -71 44t-71 -44q-5 -12 -7.5 -29t-3.5 -64t-1 -120t1 -120t3.5 -64t7.5 -29q19 -44 71 -44t71 44q5 12 7.5 29z" />
    <glyph glyph-name="i.loclTRK" horiz-adv-x="170" 
d="M30 520h110v-520h-110v520zM41 592.5q-18 16.5 -18 43.5t17.5 43.5t45.5 16.5q27 0 44.5 -16.5t17.5 -43.5t-17.5 -43.5t-44.5 -16.5t-45 16.5z" />
    <glyph glyph-name="uni006A0301" horiz-adv-x="175" 
d="M-23 -170v98q9 -1 20 -1q21 0 29.5 10t8.5 34v549h110v-569q0 -65 -30 -94t-94 -29q-30 0 -44 2zM88 706h106l-70 -138h-92z" />
    <glyph glyph-name="oslash.ss04" horiz-adv-x="380" 
d="M341 444q7 -17 11 -36t5.5 -52.5t1.5 -95.5t-1.5 -95.5t-5.5 -52.5t-11 -36q-18 -41 -56 -62.5t-95 -21.5q-31 0 -60 8l-31 -56l-81 40l37 65q-11 15 -16 27q-8 17 -11.5 35.5t-5 51.5t-1.5 97t1.5 97t5 51.5t11.5 35.5q18 41 56 62.5t95 21.5q31 0 60 -8l31 56l81 -39
l-37 -65q8 -12 16 -28zM242.5 135q1.5 12 2 44t0.5 81t-0.5 81t-2 44t-5.5 20q-6 14 -17.5 21t-29.5 7q-36 0 -47 -28q-4 -8 -5.5 -20t-2.5 -44t-1 -81t1 -81t2.5 -44t5.5 -20q11 -28 47 -28q18 0 29.5 7t17.5 21q4 8 5.5 20z" />
    <glyph glyph-name="r.ss05" horiz-adv-x="271" 
d="M30 520h110v-35q10 22 25.5 32t36.5 10q28 0 45.5 -17.5t17.5 -47.5q0 -28 -18 -46t-46 -18q-14 0 -27 6t-20 16q-8 -5 -11 -14t-3 -31v-375h-110v520z" />
    <glyph glyph-name="racute.ss05" horiz-adv-x="271" 
d="M30 520h110v-35q10 22 25.5 32t36.5 10q28 0 45.5 -17.5t17.5 -47.5q0 -28 -18 -46t-46 -18q-14 0 -27 6t-20 16q-8 -5 -11 -14t-3 -31v-375h-110v520zM138 706h106l-70 -138h-92z" />
    <glyph glyph-name="rcaron.ss05" horiz-adv-x="271" 
d="M30 520h110v-35q10 22 25.5 32t36.5 10q28 0 45.5 -17.5t17.5 -47.5q0 -28 -18 -46t-46 -18q-14 0 -27 6t-20 16q-8 -5 -11 -14t-3 -31v-375h-110v520zM105 706l34 -79l31 79h78l-55 -138h-109l-56 138h77z" />
    <glyph glyph-name="uni0157.ss05" horiz-adv-x="271" 
d="M30 520h110v-35q10 22 25.5 32t36.5 10q28 0 45.5 -17.5t17.5 -47.5q0 -28 -18 -46t-46 -18q-14 0 -27 6t-20 16q-8 -5 -11 -14t-3 -31v-375h-110v520zM30 -41h110l-32 -129h-102z" />
    <glyph glyph-name="f_i" horiz-adv-x="424" 
d="M58 421h-50v99h50v59q0 72 34.5 103.5t108.5 31.5q24 0 45 -3v-95q-8 2 -26 2q-29 0 -41 -13.5t-12 -44.5v-40h74v-99h-74v-421h-109v421zM295 592.5q-18 16.5 -18 43.5t17.5 43.5t45.5 16.5q27 0 44.5 -16.5t17.5 -43.5t-17.5 -43.5t-44.5 -16.5t-45 16.5zM284 520h110
v-520h-110v520z" />
    <glyph glyph-name="f_l" horiz-adv-x="424" 
d="M58 421h-50v99h50v59q0 72 34.5 103.5t108.5 31.5q24 0 45 -3v-95q-8 2 -26 2q-29 0 -41 -13.5t-12 -44.5v-40h74v-99h-74v-421h-109v421zM284 706h110v-706h-110v706z" />
    <glyph glyph-name="zero.tf" horiz-adv-x="405" 
d="M45 83q-11 23 -16 50t-7 76.5t-2 143.5t2 143.5t7 76.5t16 50q40 95 157 95q59 0 98 -23.5t60 -71.5q10 -23 15 -50t7.5 -77.5t2.5 -142.5t-2.5 -142.5t-7.5 -77.5t-15 -50q-21 -48 -60 -71.5t-98 -23.5q-117 0 -157 95zM258 128q4 11 6 29.5t2.5 68.5t0.5 127t-0.5 127
t-2.5 68.5t-6 29.5q-15 34 -56 34q-39 0 -54 -34q-5 -11 -7 -29.5t-3 -68.5t-1 -127t1 -127t3 -68.5t7 -29.5q15 -34 54 -34q41 0 56 34z" />
    <glyph glyph-name="one.tf" horiz-adv-x="405" 
d="M166 598h-97l18 108h194v-706h-115v598z" />
    <glyph glyph-name="two.tf" horiz-adv-x="405" 
d="M26 3l174 347q23 48 32.5 70.5t14 44.5t4.5 52q0 35 -1.5 47t-4.5 21q-6 14 -18.5 21t-30.5 7q-20 0 -32.5 -7.5t-19.5 -22.5q-4 -10 -5.5 -30.5t-1.5 -70.5h-110q0 68 3.5 99.5t14.5 56.5q18 40 57 60t96 20q58 0 97 -21.5t58 -62.5q8 -19 11 -42t3 -64q0 -54 -11.5 -98
t-39.5 -98q-45 -97 -112 -227h165v-105h-343v3z" />
    <glyph glyph-name="three.tf" horiz-adv-x="405" 
d="M372.5 285.5q2.5 -20.5 2.5 -75.5q0 -43 -1 -71.5t-4 -42t-9 -27.5q-19 -40 -58 -60.5t-103 -20.5q-123 0 -157 80q-11 24 -14.5 56.5t-3.5 106.5h110q-1 -54 1 -76t7 -33q6 -15 20 -23t35 -8q43 0 55 30q4 8 5 24.5t1 68.5q0 44 -1 57.5t-6 22.5q-9 18 -28 25.5t-52 7.5
h-17v94h18q31 0 49.5 8t26.5 25q4 9 5 20.5t1 45.5q0 31 -1 47t-4 24q-12 28 -52 28t-52 -31q-4 -9 -5.5 -27.5t-1.5 -63.5h-109q0 63 3 91.5t13 49.5q19 42 59.5 61t97.5 19q60 0 98 -20.5t54 -57.5q9 -19 11.5 -40t2.5 -76q0 -44 -2.5 -62t-8.5 -32q-17 -39 -65 -53
q52 -13 70 -54q7 -17 9.5 -37.5z" />
    <glyph glyph-name="four.tf" horiz-adv-x="405" 
d="M398 155h-56v-155h-109v155h-229v2l144 549h194v-446h56v-105zM233 260v397h-1l-97 -397h98z" />
    <glyph glyph-name="five.tf" horiz-adv-x="405" 
d="M46 69q-10 23 -13.5 55.5t-3.5 101.5h109q0 -54 1.5 -74t6.5 -31q14 -31 53 -31q40 0 55 31q4 10 5 27t1 75q0 55 -2 76t-7 34q-11 23 -36.5 33t-66.5 10q-23 0 -50.5 -2.5t-51.5 -6.5l37 339h281l-18 -106h-166l-15 -139q30 5 54 5q52 0 88 -19.5t53 -57.5
q9 -21 12.5 -51.5t3.5 -107.5q0 -55 -1.5 -84t-4.5 -45.5t-10 -30.5q-37 -82 -157 -82q-119 0 -157 81z" />
    <glyph glyph-name="six.tf" horiz-adv-x="407" 
d="M383 358q3 -15 4 -46.5t1 -77.5q0 -55 -1.5 -83t-5 -44t-10.5 -32q-19 -43 -60 -65t-100 -22q-120 0 -164 98q-10 22 -15 48.5t-7 75.5t-2 140t2 140t7 78t16 53q43 97 163 97q82 0 126 -44q23 -24 33 -63.5t12 -106.5h-108q-1 46 -5.5 67.5t-12.5 31.5q-16 16 -45 16
q-24 0 -39 -10t-24 -30q-8 -18 -10.5 -52t-2.5 -127q17 27 47 41.5t69 14.5q45 0 76 -17.5t47 -52.5q6 -13 9 -28zM273 150q1 17 1 76q0 58 -1.5 76.5t-5.5 28.5q-7 17 -21.5 26t-35.5 9q-22 0 -37 -10t-23 -27q-5 -10 -6.5 -28.5t-1.5 -74.5q0 -54 1.5 -72t7.5 -30
q7 -17 22 -26t36 -9q44 0 58 34q5 10 6 27z" />
    <glyph glyph-name="seven.tf" horiz-adv-x="405" 
d="M239 598h-212v108h360l-177 -706h-123z" />
    <glyph glyph-name="eight.tf" horiz-adv-x="405" 
d="M380.5 290q2.5 -26 2.5 -88q0 -63 -2.5 -88t-10.5 -43q-18 -40 -60.5 -61.5t-106.5 -21.5q-65 0 -107.5 21.5t-60.5 61.5q-8 18 -10.5 43t-2.5 88q0 64 2.5 89t10.5 42q20 44 73 57q-50 15 -68 56q-7 14 -9 33.5t-2 64.5q0 42 2.5 61.5t9.5 35.5q17 38 58.5 57.5
t103.5 19.5q61 0 102.5 -19.5t58.5 -57.5q7 -16 9.5 -35.5t2.5 -61.5q0 -45 -2 -64.5t-8 -33.5q-9 -20 -27 -34t-42 -21q28 -7 45.5 -21t27.5 -36q8 -18 10.5 -44zM144.5 573.5q-0.5 -15.5 -0.5 -45.5q0 -31 0.5 -47t4.5 -24q13 -28 54 -28q40 0 53 28q3 9 4.5 22.5
t1.5 48.5t-1.5 47.5t-5.5 21.5q-12 28 -52 28t-54 -28q-4 -8 -4.5 -23.5zM265 142.5q1 15.5 1 68.5q0 54 -1 70t-5 24q-7 15 -21.5 23.5t-35.5 8.5q-44 0 -58 -32q-4 -8 -5 -24t-1 -69t1 -69t5 -24q15 -32 57 -32q44 0 58 32q4 8 5 23.5z" />
    <glyph glyph-name="nine.tf" horiz-adv-x="405" 
d="M373 571.5q5 -26.5 7 -75.5t2 -140q0 -90 -2 -139.5t-7.5 -78.5t-15.5 -53q-22 -48 -62 -72.5t-101 -24.5q-82 0 -126 44q-23 23 -33 62.5t-12 107.5h108q2 -47 5.5 -68t12.5 -31q16 -16 45 -16q45 0 63 40q8 18 10.5 52t2.5 127q-17 -27 -47 -41.5t-69 -14.5
q-45 0 -76.5 18t-46.5 52q-6 13 -9 28t-4 46.5t-1 77.5q0 55 1.5 83t5 44t10.5 32q19 43 60 65t100 22q120 0 164 -98q10 -22 15 -48.5zM261 407q2 19 2 73q0 52 -2 70.5t-7 31.5q-15 35 -59 35q-43 0 -57 -34q-5 -10 -6 -27t-1 -76q0 -60 1 -78t5 -27q16 -35 58 -35
q22 0 37 10t23 27q4 11 6 30z" />
    <glyph glyph-name="zero.dnom" horiz-adv-x="289" 
d="M36 52q-8 18 -10.5 44.5t-2.5 97.5t2.5 97.5t10.5 44.5q27 59 108 59q83 0 109 -59q8 -18 10.5 -44.5t2.5 -97.5t-2.5 -97.5t-10.5 -44.5q-26 -59 -109 -59q-81 0 -108 59zM174 85q3 8 4 31.5t1 77.5t-1 77.5t-4 31.5q-8 16 -30 16t-28 -16q-4 -8 -5 -25.5t-1 -83.5
t1 -83.5t5 -25.5q6 -16 28 -16t30 16z" />
    <glyph glyph-name="one.dnom" horiz-adv-x="182" 
d="M62 310h-54l12 78h129v-388h-87v310z" />
    <glyph glyph-name="two.dnom" horiz-adv-x="250" 
d="M8 3l114 190q18 29 24 44t6 39q0 15 -0.5 22.5t-2.5 10.5q-6 14 -26 14q-11 0 -17.5 -3.5t-10.5 -11.5q-2 -4 -2.5 -12.5t-0.5 -23.5h-80q0 33 2 47t7 26q23 50 102 50q81 0 104 -49q5 -11 7 -23.5t2 -32.5q0 -35 -6.5 -57.5t-23.5 -52.5q-37 -64 -62 -104h89v-76h-225v3
z" />
    <glyph glyph-name="three.dnom" horiz-adv-x="261" 
d="M240.5 157q1.5 -12 1.5 -41q0 -35 -2 -48.5t-7 -25.5q-11 -25 -39 -37t-68 -12t-65 11.5t-36 37.5q-6 14 -8 31t-2 59h77q0 -23 1 -35.5t3 -17.5q7 -15 29 -15q21 0 29 13q2 4 2.5 13.5t0.5 28.5q0 18 -1 26.5t-3 14.5q-4 8 -14 11.5t-29 3.5h-10v62h11q17 0 26.5 4
t13.5 12q2 4 3 11t1 19t-0.5 18.5t-2.5 10.5q-6 12 -26 12t-28 -14q-2 -4 -2.5 -12.5t-0.5 -24.5h-77q0 31 1.5 44.5t6.5 25.5q13 28 38.5 40t63.5 12t64.5 -11.5t38.5 -36.5q4 -10 5.5 -21.5t1.5 -39.5q0 -22 -1 -31t-5 -16q-9 -21 -38 -30q16 -4 26 -11t15 -19
q4 -10 5.5 -22z" />
    <glyph glyph-name="four.dnom" horiz-adv-x="284" 
d="M158 78h-161v2l94 308h148v-236h37v-74h-37v-78h-81v78zM158 152v205l-58 -205h58z" />
    <glyph glyph-name="five.dnom" horiz-adv-x="259" 
d="M62.5 5.5q-27.5 12.5 -39.5 39.5q-5 11 -7 28.5t-2 54.5h80q0 -21 0.5 -32t3.5 -17q6 -15 28 -15q11 0 18.5 4t10.5 10q2 5 2.5 15t0.5 31t-1 32.5t-4 18.5q-7 12 -23 17t-44 5q-31 0 -63 -5l21 196h188l-8 -69h-108l-7 -65q22 4 39 4q33 0 55 -11.5t32 -32.5
q5 -12 7 -28t2 -57q0 -39 -2 -55.5t-7 -27.5q-12 -27 -39.5 -40t-67.5 -13q-38 0 -65.5 12.5z" />
    <glyph glyph-name="six.dnom" horiz-adv-x="282" 
d="M261.5 183.5q1.5 -13.5 1.5 -53.5q0 -41 -2 -55.5t-8 -26.5q-12 -27 -40 -41t-69 -14q-42 0 -70 14.5t-41 43.5q-5 11 -8 24t-4 43t-1 75q0 44 1 73t4 43t9 28q27 58 111 58q28 0 49 -7t36 -21q13 -13 18 -33t8 -54h-79q-1 19 -2.5 26.5t-5.5 12.5q-8 9 -24 9
q-13 0 -21.5 -5.5t-13.5 -15.5q-3 -8 -4.5 -23.5t-1.5 -58.5q11 12 28.5 18.5t40.5 6.5q29 0 50.5 -11t31.5 -32q5 -10 6.5 -23.5zM175.5 92q0.5 10 0.5 32q0 23 -1 34t-3 15q-7 16 -29 16q-11 0 -18.5 -4.5t-10.5 -12.5q-3 -5 -4 -14t-1 -34q0 -21 1 -31t3 -15
q4 -8 11.5 -12.5t18.5 -4.5q23 0 30 16q2 5 2.5 15z" />
    <glyph glyph-name="seven.dnom" horiz-adv-x="232" 
d="M117 312h-104v76h216l-109 -388h-91z" />
    <glyph glyph-name="eight.dnom" horiz-adv-x="274" 
d="M253.5 158q1.5 -12 1.5 -44t-1.5 -45.5t-6.5 -23.5q-11 -25 -39.5 -38.5t-70.5 -13.5t-70.5 13.5t-39.5 38.5q-5 9 -6.5 22t-1.5 47q0 32 1.5 44.5t5.5 21.5q12 25 44 35q-32 12 -42 34q-4 7 -5 17t-1 33q0 19 1.5 28.5t5.5 18.5q11 23 39 36t69 13t69 -13t39 -36
q4 -10 5.5 -19t1.5 -28q0 -20 -1.5 -30.5t-4.5 -19.5q-11 -23 -42 -34q30 -9 44 -35q4 -10 5.5 -22zM106.5 308q-0.5 -7 -0.5 -19q0 -14 0.5 -21.5t2.5 -11.5q3 -7 10 -10t18 -3q21 0 28 14q1 3 1.5 10.5t0.5 21.5v19t-2 11q-6 13 -28 13t-28 -14q-2 -3 -2.5 -10z
M168.5 89.5q0.5 9.5 0.5 29.5t-0.5 29.5t-1.5 13.5q-8 16 -30 16t-30 -16q-1 -4 -1.5 -13.5t-0.5 -29.5t0.5 -29.5t1.5 -13.5q8 -16 30 -16t30 16q1 4 1.5 13.5z" />
    <glyph glyph-name="nine.dnom" horiz-adv-x="283" 
d="M258 313q3 -13 4 -43t1 -75q0 -44 -1 -73t-4 -43t-9 -28q-27 -58 -110 -58q-29 0 -50 7t-35 21q-13 13 -18.5 34t-7.5 53h78q1 -19 2.5 -26.5t5.5 -12.5q7 -9 25 -9q12 0 20.5 5.5t13.5 15.5q3 8 4.5 23.5t1.5 57.5q-24 -24 -69 -24q-29 0 -50.5 11t-31.5 32
q-5 11 -6.5 25t-1.5 52q0 39 2 54t8 28q12 27 40 41t69 14q42 0 70 -14.5t41 -43.5q5 -11 8 -24zM173 231q1 9 1 33q0 21 -1 31t-3 15q-4 8 -11.5 12.5t-18.5 4.5q-22 0 -29 -16q-2 -5 -3 -15t-1 -32q0 -23 1 -34t3 -15q7 -16 29 -16q11 0 18.5 4.5t11.5 12.5q2 6 3 15z" />
    <glyph glyph-name="zero.numr" horiz-adv-x="289" 
d="M36 370q-8 18 -10.5 44.5t-2.5 97.5t2.5 97.5t10.5 44.5q27 59 108 59q83 0 109 -59q8 -18 10.5 -44.5t2.5 -97.5t-2.5 -97.5t-10.5 -44.5q-26 -59 -109 -59q-81 0 -108 59zM174 403q3 8 4 31.5t1 77.5t-1 77.5t-4 31.5q-8 16 -30 16t-28 -16q-4 -8 -5 -25.5t-1 -83.5
t1 -83.5t5 -25.5q6 -16 28 -16t30 16z" />
    <glyph glyph-name="one.numr" horiz-adv-x="182" 
d="M62 628h-54l12 78h129v-388h-87v310z" />
    <glyph glyph-name="two.numr" horiz-adv-x="250" 
d="M8 321l114 190q18 29 24 44t6 39q0 15 -0.5 22.5t-2.5 10.5q-6 14 -26 14q-11 0 -17.5 -3.5t-10.5 -11.5q-2 -4 -2.5 -12.5t-0.5 -23.5h-80q0 33 2 47t7 26q23 50 102 50q81 0 104 -49q5 -11 7 -23.5t2 -32.5q0 -35 -6.5 -57.5t-23.5 -52.5q-37 -64 -62 -104h89v-76h-225
v3z" />
    <glyph glyph-name="three.numr" horiz-adv-x="261" 
d="M240.5 475q1.5 -12 1.5 -41q0 -35 -2 -48.5t-7 -25.5q-11 -25 -39 -37t-68 -12t-65 11.5t-36 37.5q-6 14 -8 31t-2 59h77q0 -23 1 -35.5t3 -17.5q7 -15 29 -15q21 0 29 13q2 4 2.5 13.5t0.5 28.5q0 18 -1 26.5t-3 14.5q-4 8 -14 11.5t-29 3.5h-10v62h11q17 0 26.5 4
t13.5 12q2 4 3 11t1 19t-0.5 18.5t-2.5 10.5q-6 12 -26 12t-28 -14q-2 -4 -2.5 -12.5t-0.5 -24.5h-77q0 31 1.5 44.5t6.5 25.5q13 28 38.5 40t63.5 12t64.5 -11.5t38.5 -36.5q4 -10 5.5 -21.5t1.5 -39.5q0 -22 -1 -31t-5 -16q-9 -21 -38 -30q16 -4 26 -11t15 -19
q4 -10 5.5 -22z" />
    <glyph glyph-name="four.numr" horiz-adv-x="284" 
d="M158 396h-161v2l94 308h148v-236h37v-74h-37v-78h-81v78zM158 470v205l-58 -205h58z" />
    <glyph glyph-name="five.numr" horiz-adv-x="259" 
d="M62.5 323.5q-27.5 12.5 -39.5 39.5q-5 11 -7 28.5t-2 54.5h80q0 -21 0.5 -32t3.5 -17q6 -15 28 -15q11 0 18.5 4t10.5 10q2 5 2.5 15t0.5 31t-1 32.5t-4 18.5q-7 12 -23 17t-44 5q-31 0 -63 -5l21 196h188l-8 -69h-108l-7 -65q22 4 39 4q33 0 55 -11.5t32 -32.5
q5 -12 7 -28t2 -57q0 -39 -2 -55.5t-7 -27.5q-12 -27 -39.5 -40t-67.5 -13q-38 0 -65.5 12.5z" />
    <glyph glyph-name="six.numr" horiz-adv-x="283" 
d="M261.5 501.5q1.5 -13.5 1.5 -53.5q0 -41 -2 -55.5t-8 -26.5q-12 -27 -40 -41t-69 -14q-42 0 -70 14.5t-41 43.5q-5 11 -8 24t-4 43t-1 75q0 44 1 73t4 43t9 28q27 58 111 58q28 0 49 -7t36 -21q13 -13 18 -33t8 -54h-79q-1 19 -2.5 26.5t-5.5 12.5q-8 9 -24 9
q-13 0 -21.5 -5.5t-13.5 -15.5q-3 -8 -4.5 -23.5t-1.5 -58.5q11 12 28.5 18.5t40.5 6.5q29 0 50.5 -11t31.5 -32q5 -10 6.5 -23.5zM175.5 410q0.5 10 0.5 32q0 23 -1 34t-3 15q-7 16 -29 16q-11 0 -18.5 -4.5t-10.5 -12.5q-3 -5 -4 -14t-1 -34q0 -21 1 -31t3 -15
q4 -8 11.5 -12.5t18.5 -4.5q23 0 30 16q2 5 2.5 15z" />
    <glyph glyph-name="seven.numr" horiz-adv-x="232" 
d="M117 630h-104v76h216l-109 -388h-91z" />
    <glyph glyph-name="eight.numr" horiz-adv-x="274" 
d="M253.5 476q1.5 -12 1.5 -44t-1.5 -45.5t-6.5 -23.5q-11 -25 -39.5 -38.5t-70.5 -13.5t-70.5 13.5t-39.5 38.5q-5 9 -6.5 22t-1.5 47q0 32 1.5 44.5t5.5 21.5q12 25 44 35q-32 12 -42 34q-4 7 -5 17t-1 33q0 19 1.5 28.5t5.5 18.5q11 23 39 36t69 13t69 -13t39 -36
q4 -10 5.5 -19t1.5 -28q0 -20 -1.5 -30.5t-4.5 -19.5q-11 -23 -42 -34q30 -9 44 -35q4 -10 5.5 -22zM106.5 626q-0.5 -7 -0.5 -19q0 -14 0.5 -21.5t2.5 -11.5q3 -7 10 -10t18 -3q21 0 28 14q1 3 1.5 10.5t0.5 21.5v19t-2 11q-6 13 -28 13t-28 -14q-2 -3 -2.5 -10z
M168.5 407.5q0.5 9.5 0.5 29.5t-0.5 29.5t-1.5 13.5q-8 16 -30 16t-30 -16q-1 -4 -1.5 -13.5t-0.5 -29.5t0.5 -29.5t1.5 -13.5q8 -16 30 -16t30 16q1 4 1.5 13.5z" />
    <glyph glyph-name="nine.numr" horiz-adv-x="283" 
d="M258 631q3 -13 4 -43t1 -75q0 -44 -1 -73t-4 -43t-9 -28q-27 -58 -110 -58q-29 0 -50 7t-35 21q-13 13 -18.5 34t-7.5 53h78q1 -19 2.5 -26.5t5.5 -12.5q7 -9 25 -9q12 0 20.5 5.5t13.5 15.5q3 8 4.5 23.5t1.5 57.5q-24 -24 -69 -24q-29 0 -50.5 11t-31.5 32
q-5 11 -6.5 25t-1.5 52q0 39 2 54t8 28q12 27 40 41t69 14q42 0 70 -14.5t41 -43.5q5 -11 8 -24zM173 549q1 9 1 33q0 21 -1 31t-3 15q-4 8 -11.5 12.5t-18.5 4.5q-22 0 -29 -16q-2 -5 -3 -15t-1 -32q0 -23 1 -34t3 -15q7 -16 29 -16q11 0 18.5 4.5t11.5 12.5q2 6 3 15z" />
    <glyph glyph-name="colon.case" horiz-adv-x="235" 
d="M69.5 123.5q-18.5 17.5 -18.5 46.5q0 30 18.5 48t48.5 18q29 0 47 -18t18 -48q0 -29 -18 -46.5t-47 -17.5q-30 0 -48.5 17.5zM69.5 487.5q-18.5 17.5 -18.5 46.5q0 30 18.5 48t48.5 18q29 0 47 -18t18 -48q0 -29 -18 -46.5t-47 -17.5q-30 0 -48.5 17.5z" />
    <glyph glyph-name="semicolon.case" horiz-adv-x="239" 
d="M68 273h103l-63 -317h-82zM73.5 487.5q-18.5 17.5 -18.5 46.5q0 30 18.5 48t48.5 18q29 0 47 -18t18 -48q0 -29 -18 -46.5t-47 -17.5q-30 0 -48.5 17.5z" />
    <glyph glyph-name="exclamdown.case" horiz-adv-x="233" 
d="M164.5 694.5q18.5 -17.5 18.5 -46.5q0 -30 -18.5 -48t-48.5 -18t-48 18t-18 48q0 29 18.5 46.5t47.5 17.5q30 0 48.5 -17.5zM175 -4h-118l13 513h92z" />
    <glyph glyph-name="questiondown.case" horiz-adv-x="381" 
d="M246.5 699.5q18.5 -17.5 18.5 -46.5q0 -30 -18.5 -48t-48.5 -18q-29 0 -47 18t-18 48q0 29 18 46.5t47 17.5q30 0 48.5 -17.5zM185 314q-27 -79 -34.5 -110.5t-7.5 -59.5q0 -31 10.5 -45.5t38.5 -14.5q35 0 45 26q4 9 5 22.5t1 62.5h111q0 -60 -2.5 -83t-11.5 -44
q-17 -39 -56 -59t-96 -20q-78 0 -119.5 39.5t-41.5 111.5q0 27 6.5 56.5t29.5 100t60 177.5l14 40h119q-44 -121 -71 -200z" />
    <glyph glyph-name="periodcentered.case" horiz-adv-x="235" 
d="M69.5 324.5q-18.5 17.5 -18.5 46.5q0 30 18.5 48t48.5 18q29 0 47 -18t18 -48q0 -29 -18 -46.5t-47 -17.5q-30 0 -48.5 17.5z" />
    <glyph glyph-name="periodcentered.loclCAT.case" horiz-adv-x="82" 
d="M-48.5 347.5q-18.5 17.5 -18.5 46.5q0 30 18.5 48t48.5 18q29 0 47 -18t18 -48q0 -29 -18 -46.5t-47 -17.5q-30 0 -48.5 17.5z" />
    <glyph glyph-name="slash.case" horiz-adv-x="344" 
d="M227 756h105l-205 -806h-105z" />
    <glyph glyph-name="periodcentered.loclCAT" horiz-adv-x="150" 
d="M27.5 322.5q-18.5 17.5 -18.5 46.5q0 30 18.5 48t48.5 18q29 0 47 -18t18 -48q0 -29 -18 -46.5t-47 -17.5q-30 0 -48.5 17.5z" />
    <glyph glyph-name="parenleft.case" horiz-adv-x="253" 
d="M70 105q-23 109 -23 248t23 248t73 221h95q-45 -111 -68 -225t-23 -244t23 -244t68 -225h-95q-50 112 -73 221z" />
    <glyph glyph-name="parenright.case" horiz-adv-x="253" 
d="M14 -116q46 111 69 225t23 244t-23 244t-69 225h95q50 -112 73.5 -221t23.5 -248q0 -138 -23 -247t-73 -222h-96z" />
    <glyph glyph-name="braceleft.case" horiz-adv-x="261" 
d="M166.5 383q-14.5 -24 -52.5 -30q38 -6 52.5 -30t14.5 -74v-214q0 -24 5 -38t17 -20.5t35 -6.5h8v-84h-32q-65 0 -95 32t-30 98v220q0 26 -5.5 40t-18.5 20t-38 6v102q25 0 38.5 6t18.5 20t5 40v219q0 67 30 99.5t95 32.5h32v-84h-8q-33 0 -45 -15t-12 -51v-214
q0 -50 -14.5 -74z" />
    <glyph glyph-name="braceright.case" horiz-adv-x="261" 
d="M177 430q5 -14 18.5 -20t38.5 -6v-102q-25 0 -38.5 -6t-18.5 -20t-5 -40v-220q0 -66 -30 -98t-95 -32h-33v84h8q33 0 45.5 14.5t12.5 50.5v214q0 50 14.5 74t52.5 30q-38 6 -52.5 30t-14.5 74v214q0 36 -12.5 51t-45.5 15h-8v84h33q65 0 95 -32.5t30 -99.5v-219
q0 -26 5 -40z" />
    <glyph glyph-name="bracketleft.case" horiz-adv-x="238" 
d="M59 822h165v-89h-68v-759h68v-90h-165v938z" />
    <glyph glyph-name="bracketright.case" horiz-adv-x="238" 
d="M14 -116v90h68v759h-68v89h165v-938h-165z" />
    <glyph glyph-name="hyphen.case" horiz-adv-x="268" 
d="M31 421h203v-100h-203v100z" />
    <glyph glyph-name="uni00AD.case" horiz-adv-x="264" 
d="M31 421h203v-100h-203v100z" />
    <glyph glyph-name="endash.case" horiz-adv-x="328" 
d="M31 421h268v-98h-268v98z" />
    <glyph glyph-name="emdash.case" horiz-adv-x="656" 
d="M31 421h595v-98h-595v98z" />
    <glyph glyph-name="guillemotleft.case" horiz-adv-x="367" 
d="M10 367l91 161h102l-91 -161l91 -162h-102zM163 367l91 161h102l-91 -161l91 -162h-102z" />
    <glyph glyph-name="guillemotright.case" horiz-adv-x="367" 
d="M11 205l91 162l-91 162h102l91 -162l-91 -162h-102zM164 205l91 162l-91 162h102l91 -162l-91 -162h-102z" />
    <glyph glyph-name="guilsinglleft.case" horiz-adv-x="214" 
d="M10 367l91 161h102l-91 -161l91 -162h-102z" />
    <glyph glyph-name="guilsinglright.case" horiz-adv-x="214" 
d="M11 205l91 162l-91 162h102l91 -162l-91 -162h-102z" />
    <glyph glyph-name="cent.ss06" horiz-adv-x="372" 
d="M230 205.5q3 8.5 4.5 28t1.5 56.5h115q-1 -52 -4.5 -82t-12.5 -49.5t-27 -35.5q-28 -26 -77 -35v-88h-82v88q-78 13 -109 81q-8 17 -11.5 35.5t-5 51.5t-1.5 97t1.5 97.5t5 52t11.5 35.5q31 66 109 81v87h82v-87q47 -9 77 -36q17 -16 26.5 -35t13 -47t4.5 -73h-114
q0 32 -2 48.5t-5 24.5t-9 14q-13 11 -32 11q-32 0 -46 -28q-3 -8 -4.5 -19t-2 -43t-0.5 -83q0 -50 0.5 -81.5t2 -43t4.5 -19.5q14 -28 46 -28q21 0 31 11q7 5 10 13.5z" />
    <glyph glyph-name="dollar.ss06" horiz-adv-x="402" 
d="M380 267q3 -24 3 -80q0 -51 -2.5 -72.5t-12.5 -42.5q-16 -34 -48 -54.5t-78 -26.5v-86h-83v86q-47 6 -78 26.5t-46 53.5q-7 14 -10 28.5t-4.5 40.5t-1.5 76h123q0 -56 1 -72.5t5 -25.5q14 -30 54 -30q20 0 34 7t20 21q3 8 4 22t1 42q0 31 -2 45.5t-7 26.5
q-8 19 -26.5 30.5t-41.5 21.5t-31 14q-44 21 -71.5 42.5t-40.5 50.5q-9 21 -12 46t-3 73q0 44 3 65.5t12 41.5q31 66 117 78v86h83v-86q83 -12 112 -77q6 -15 9.5 -28.5t4.5 -42.5t1 -71h-117q0 54 -1 71t-5 26q-12 27 -49 27q-19 0 -31.5 -7t-17.5 -20q-3 -7 -3.5 -19.5
t-0.5 -37.5q0 -30 1.5 -43t6.5 -25q6 -13 18.5 -22.5t33.5 -19t44 -18.5q50 -23 78.5 -44t41.5 -51q10 -22 13 -46z" />
    <glyph glyph-name="paragraph.ss07" horiz-adv-x="490" 
d="M195 289h-32q-56 0 -89 16.5t-48 50.5q-9 19 -11.5 45.5t-2.5 96.5q0 69 2.5 95t11.5 45q16 35 50 51.5t91 16.5h318v-94h-42v-782h-95v782h-59v-782h-94v459zM195 383v230h-24q-22 0 -34 -5.5t-19 -19.5q-4 -10 -5.5 -26t-1.5 -64q0 -49 1.5 -65t5.5 -26q6 -13 18 -18.5
t34 -5.5h25z" />
    <glyph glyph-name="caroncomb.alt" 
d="M-77 706h82l-26 -151h-72z" />
    <glyph glyph-name="uni0335.Eth" 
d="M-232 419h232v-95h-232v95z" />
    <glyph glyph-name="uni0335.Tbar" 
d="M-309 388h259v-91h-259v91z" />
    <glyph glyph-name="caron.alt" horiz-adv-x="198" 
d="M66 706h82l-26 -151h-72z" />
    <glyph glyph-name="uni0308.case" 
d="M-307 766.5q-16 15.5 -16 40.5t16 40t41 15t41 -15t16 -40t-16 -40.5t-41 -15.5t-41 15.5zM-148 766.5q-16 15.5 -16 40.5t16.5 40t41.5 15t41 -15t16 -40q0 -24 -16.5 -40t-40.5 -16q-26 0 -42 15.5z" />
    <glyph glyph-name="uni0307.case" 
d="M-152 767q-17 16 -17 43q0 26 17 41.5t43 15.5t42.5 -15.5t16.5 -41.5q0 -27 -16.5 -43t-42.5 -16t-43 16z" />
    <glyph glyph-name="gravecomb.case" 
d="M-151 747l-88 113h114l75 -113h-101z" />
    <glyph glyph-name="acutecomb.case" 
d="M-164 860h114l-88 -113h-101z" />
    <glyph glyph-name="uni030B.case" 
d="M-276 860h94l-81 -113h-78zM-145 860h95l-81 -113h-79z" />
    <glyph glyph-name="uni0302.case" 
d="M-252 860h127l75 -113h-98l-40 62l-42 -62h-96z" />
    <glyph glyph-name="uni030C.case" 
d="M-124 747h-127l-75 112h98l40 -62l42 62h96z" />
    <glyph glyph-name="uni0306.case" 
d="M-302 860h78q1 -29 13 -41.5t35 -12.5q25 0 36 12.5t14 41.5h76q-3 -118 -126 -118t-126 118z" />
    <glyph glyph-name="uni030A.case" 
d="M-203 739.5q-23 11.5 -35.5 32.5t-12.5 49q0 42 27.5 67t72.5 25q30 0 53 -11.5t35.5 -32.5t12.5 -48q0 -28 -12.5 -49t-35.5 -32.5t-53 -11.5q-29 0 -52 11.5zM-122.5 793.5q10.5 10.5 10.5 27.5t-10.5 27.5t-28.5 10.5q-17 0 -27.5 -10.5t-10.5 -27.5t10.5 -27.5
t27.5 -10.5q18 0 28.5 10.5z" />
    <glyph glyph-name="tildecomb.case" 
d="M-169.5 750q-15.5 7 -32.5 20q-3 2 -11 8t-14.5 8.5t-12.5 2.5q-12 0 -18 -11t-8 -33h-65q1 59 21 88t62 29q22 0 36.5 -7t33.5 -22q13 -9 20 -12.5t16 -3.5q12 0 17.5 10t7.5 33h67q-1 -59 -20.5 -88t-62.5 -29q-21 0 -36.5 7z" />
    <glyph glyph-name="uni0304.case" 
d="M-289 842h239v-74h-239v74z" />
    <glyph glyph-name="uni0337.case" 
d="M0 522v-105l-143 -98v18l-95 -63v103l95 65v-19z" />
    <glyph glyph-name="uni0338.case" 
d="M-408 156l7 -6l233 442l5 -7l75 121h48l-104 -163l-5 8l-234 -443l-6 4l-68 -112h-49z" />
    <glyph glyph-name="uni0308.narrow.case" 
d="M-272.5 765.5q-15.5 15.5 -15.5 40.5t15 40t39 15t38.5 -15t14.5 -40t-15 -40.5t-38 -15.5t-38.5 15.5zM-142.5 765.5q-15.5 15.5 -15.5 39.5q0 25 15 40.5t39 15.5t39 -15.5t15 -40.5q0 -24 -15.5 -39.5t-38.5 -15.5t-38.5 15.5z" />
    <glyph glyph-name="uni0302.narrow.case" 
d="M-233 860h122l61 -113h-91l-31 60l-31 -60h-92z" />
    <glyph glyph-name="uni0306.narrow.case" 
d="M-242 770.5q-27 28.5 -27 89.5h73q2 -30 10 -42.5t27 -12.5t26.5 12.5t8.5 42.5h74q0 -61 -27 -89.5t-82 -28.5q-56 0 -83 28.5z" />
    <glyph glyph-name="tildecomb.narrow.case" 
d="M-151.5 751.5q-12.5 6.5 -25.5 19.5q-11 10 -17 14t-13 4q-10 0 -14 -9.5t-6 -32.5h-58q1 58 18 86t53 28q20 0 32.5 -7t25.5 -20q7 -7 14 -12t14 -5q10 0 14 9t6 34h58q-1 -60 -17.5 -87.5t-52.5 -27.5q-19 0 -31.5 6.5z" />
    <glyph glyph-name="uni0304.narrow.case" 
d="M-242 842h192v-75h-192v75z" />
    <glyph glyph-name="uni0335.dh" 
d="M-271 366h271v-73h-271v73z" />
    <glyph glyph-name="uni0307.i" 
d="M-157 592.5q-18 16.5 -18 43.5t17.5 43.5t45.5 16.5q27 0 44.5 -16.5t17.5 -43.5t-17.5 -43.5t-44.5 -16.5t-45 16.5z" />
    <glyph glyph-name="uni0308.narrow" 
d="M-252.5 590q-13.5 15 -13.5 40q0 26 13.5 41t36.5 15t36.5 -15t13.5 -41t-13.5 -40.5t-36.5 -14.5t-36.5 15zM-136.5 590q-13.5 15 -13.5 40q0 26 13.5 41t36.5 15t36.5 -15t13.5 -41t-13.5 -40.5t-36.5 -14.5t-36.5 15z" />
    <glyph glyph-name="gravecomb.narrow" 
d="M-142 568l-70 138h106l56 -138h-92z" />
    <glyph glyph-name="acutecomb.narrow" 
d="M-156 706h106l-70 -138h-92z" />
    <glyph glyph-name="uni0302.narrow" 
d="M-214 706h109l55 -138h-78l-31 79l-34 -79h-77z" />
    <glyph glyph-name="uni030C.narrow" 
d="M-197 706l34 -79l31 79h78l-55 -138h-109l-56 138h77z" />
    <glyph glyph-name="uni0306.narrow" 
d="M-232 596.5q-25 33.5 -25 109.5h70q0 -30 3.5 -46.5t10.5 -23t20 -6.5t20 6.5t10 23t3 46.5h70q0 -76 -24.5 -109.5t-78.5 -33.5t-79 33.5z" />
    <glyph glyph-name="tildecomb.narrow" 
d="M-143.5 572.5q-10.5 6.5 -16.5 15t-12 21.5q-6 12 -10 17t-9 5q-9 0 -11.5 -13.5t-2.5 -49.5h-59q0 50 5.5 80t19.5 45t40 15q24 0 36 -11t21 -31q5 -12 9.5 -17.5t9.5 -5.5q8 0 10.5 13t3.5 50h59q-1 -51 -6.5 -80.5t-19.5 -44.5t-40 -15q-17 0 -27.5 6.5z" />
    <glyph glyph-name="uni0304.narrow" 
d="M-235 669h185v-78h-185v78z" />
    <glyph glyph-name="uni0328.narrow" 
d="M-165.5 -161q-24.5 19 -24.5 54q0 33 15 58t45 52l75 -3q-25 -26 -36.5 -45.5t-11.5 -41.5q0 -24 26 -24q13 0 27 6v-65q-21 -10 -50 -10q-41 0 -65.5 19z" />
    <glyph glyph-name="uni0338.ss04" 
d="M-146 493l46 83l82 -39l-83 -143zM-363 -16l81 141l45 -100l-45 -81z" />
    <glyph glyph-name="uni0338.case.ss04" 
d="M-145 673l59 94l83 -47l-97 -152zM-451 -13l103 158l52 -93l-74 -114z" />
    </font>
</defs>
</svg>
