<?xml version="1.0" standalone="no"?>
<!DOCTYPE svg PUBLIC "-//W3C//DTD SVG 1.1//EN" "http://www.w3.org/Graphics/SVG/1.1/DTD/svg11.dtd" >
<svg xmlns="http://www.w3.org/2000/svg" xmlns:xlink="http://www.w3.org/1999/xlink" version="1.1">
<metadata>
Created by FontForge 20170731 at Mon Apr  9 23:06:37 2018
 By Aleksey,,,
Copyright (c) 2018 Monotype Imaging Inc. All rights reserved.
</metadata>
<defs>
<font id="NeuePlakText-BoldItalic" horiz-adv-x="0" >
  <font-face 
    font-family="Neue Plak Text Bold Italic"
    font-weight="400"
    font-style="italic"
    font-stretch="normal"
    units-per-em="1000"
    panose-1="2 11 8 4 3 2 2 9 2 4"
    ascent="773"
    descent="-227"
    x-height="496"
    cap-height="706"
    bbox="-836 -249 1083 1183"
    underline-thickness="50"
    underline-position="-200"
    slope="-11"
    unicode-range="U+000D-FEFF"
  />
<missing-glyph horiz-adv-x="699" 
d="M158 706h565l-141 -706h-565zM456 127l91 452h-263l-90 -452h262z" />
    <glyph glyph-name=".notdef" horiz-adv-x="699" 
d="M158 706h565l-141 -706h-565zM456 127l91 452h-263l-90 -452h262z" />
    <glyph glyph-name=".null" 
 />
    <glyph glyph-name="nonmarkingreturn" horiz-adv-x="333" 
 />
    <glyph glyph-name="NULL" 
 />
    <glyph glyph-name="NULL" 
 />
    <glyph glyph-name="CR" unicode="&#xd;" horiz-adv-x="184" 
 />
    <glyph glyph-name="space" unicode=" " horiz-adv-x="184" 
 />
    <glyph glyph-name="exclam" unicode="!" horiz-adv-x="313" 
d="M171 706h153l-118 -488h-112zM75 -6q-20 11 -31.5 31t-11.5 45t11.5 45t31.5 31t46 11t46 -11t31 -31t11 -45t-11 -45t-31 -31t-46 -11t-46 11z" />
    <glyph glyph-name="quotedbl" unicode="&#x22;" horiz-adv-x="520" 
d="M179 706h138l-74 -282h-102zM386 706h138l-74 -282h-102z" />
    <glyph glyph-name="numbersign" unicode="#" horiz-adv-x="707" 
d="M605 425l-51 -144h105l-43 -117h-104l-65 -181h-129l64 181h-137l-65 -181h-129l64 181h-106l43 117h105l51 144h-103l43 117h102l64 181h130l-65 -181h138l64 181h131l-65 -181h108l-43 -117h-107zM475 425h-137l-52 -144h138z" />
    <glyph glyph-name="dollar" unicode="$" horiz-adv-x="626" 
d="M462 496q3 17 3 31q0 67 -57 82l-37 -186l39 -15q58 -22 96 -47.5t58 -61.5t20 -87q0 -70 -37.5 -121t-103.5 -78.5t-149 -29.5l-15 -75h-63l16 78q-103 11 -152.5 65.5t-49.5 140.5q0 18 1 28h161q-2 -9 -2 -26q0 -79 69 -94l41 204l-37 15q-77 31 -116.5 74.5
t-39.5 111.5q0 64 35 112.5t95.5 76t134.5 29.5l15 75h62l-15 -78q91 -11 136.5 -62t45.5 -131q0 -11 -2 -31h-152zM273 481q15 -19 47 -36l34 169q-44 -4 -70 -27t-26 -60q0 -27 15 -46zM406 241.5q-17 19.5 -56 39.5l-37 -184q51 3 80.5 28.5t29.5 66.5q0 30 -17 49.5z
" />
    <glyph glyph-name="percent" unicode="%" horiz-adv-x="772" 
d="M129.5 429q-31.5 36 -31.5 99q0 53 19.5 95.5t57 66.5t90.5 24q65 0 95.5 -35.5t30.5 -98.5q0 -53 -19 -95.5t-56.5 -67t-89.5 -24.5q-65 0 -96.5 36zM656 706h110l-608 -706h-110zM284.5 501.5q16.5 30.5 16.5 73.5q0 30 -10.5 45.5t-33.5 15.5q-34 0 -51 -30.5
t-17 -73.5q0 -30 10.5 -45.5t33.5 -15.5q35 0 51.5 30.5zM454 28.5q-32 36.5 -32 99.5q0 53 19.5 95.5t57 66.5t90.5 24q65 0 95.5 -36t30.5 -98q0 -54 -19 -96.5t-56.5 -67t-89.5 -24.5q-64 0 -96 36.5zM608.5 101q16.5 30 16.5 73q0 31 -10.5 46.5t-33.5 15.5
q-34 0 -51 -30.5t-17 -73.5q0 -30 10.5 -45.5t33.5 -15.5q35 0 51.5 30z" />
    <glyph glyph-name="ampersand" unicode="&#x26;" horiz-adv-x="667" 
d="M533 141q33 -22 76 -27l-25 -114q-85 0 -149 44q-42 -29 -88.5 -43t-101.5 -14q-72 0 -121.5 22.5t-74 62t-24.5 90.5q0 54 27 97.5t70 77t102 65.5q-16 45 -24 80t-8 64q0 57 28 96.5t78 60t116 20.5q86 0 135 -33.5t49 -98.5q0 -50 -29.5 -90.5t-73.5 -70.5t-113 -66
l61 -122q4 -10 11 -20q37 51 84 130l98 -52q-57 -102 -103 -159zM338 460q65 34 98.5 63t33.5 64q0 23 -16.5 36.5t-47.5 13.5q-41 0 -64 -24.5t-23 -67.5q0 -35 19 -85zM196 116q24 -21 67 -21q49 0 95 30l-18 32l-72 144q-46 -30 -71 -60t-25 -67t24 -58z" />
    <glyph glyph-name="quotesingle" unicode="'" horiz-adv-x="313" 
d="M179 706h138l-74 -282h-102z" />
    <glyph glyph-name="parenleft" unicode="(" horiz-adv-x="416" 
d="M122.5 -26.5q-13.5 82.5 -13.5 171.5q0 184 62 348t182 322h136q-261 -321 -261 -682q0 -86 13 -168.5t37 -165.5h-116q-26 92 -39.5 174.5z" />
    <glyph glyph-name="parenright" unicode=")" horiz-adv-x="417" 
d="M317.5 640.5q13.5 -82.5 13.5 -171.5q0 -183 -62 -347.5t-182 -322.5h-135q260 322 260 682q0 87 -13 169.5t-37 164.5h116q26 -92 39.5 -174.5z" />
    <glyph glyph-name="asterisk" unicode="*" horiz-adv-x="378" 
d="M103 479l96 65l-109 41l46 82l93 -72l5 117l92 -19l-40 -109l113 31l11 -94l-118 4l64 -97l-85 -39l-31 113l-74 -92z" />
    <glyph glyph-name="plus" unicode="+" horiz-adv-x="589" 
d="M530 237h-183l-37 -186h-113l37 186h-182l22 109h182l38 187h113l-38 -187h183z" />
    <glyph glyph-name="comma" unicode="," horiz-adv-x="321" 
d="M92 160h137l-158 -334h-106z" />
    <glyph glyph-name="hyphen" unicode="-" horiz-adv-x="404" 
d="M76 350h292l-23 -117h-293z" />
    <glyph glyph-name="period" unicode="." horiz-adv-x="313" 
d="M75 -6q-20 11 -31.5 31t-11.5 45t11.5 45t31.5 31t46 11t46 -11t31 -31t11 -45t-11 -45t-31 -31t-46 -11t-46 11z" />
    <glyph glyph-name="slash" unicode="/" horiz-adv-x="498" 
d="M416 723h148l-446 -773h-148z" />
    <glyph glyph-name="zero" unicode="0" horiz-adv-x="600" 
d="M94.5 50q-54.5 67 -54.5 183q0 70 15 148q20 100 61.5 177t107 121t152.5 44q116 0 171 -67t55 -183q0 -70 -15 -148q-20 -100 -61.5 -176.5t-107 -121t-153.5 -44.5q-116 0 -170.5 67zM375.5 172.5q40.5 63.5 61.5 165.5q15 73 15 136q0 60 -19 91.5t-64 31.5
q-62 0 -102.5 -64t-60.5 -165q-16 -78 -16 -136q0 -60 19 -91.5t64 -31.5q62 0 102.5 63.5z" />
    <glyph glyph-name="one" unicode="1" horiz-adv-x="600" 
d="M324 575h-153l53 131h269l-141 -706h-143z" />
    <glyph glyph-name="two" unicode="2" horiz-adv-x="600" 
d="M-23 3l353 330q41 39 65.5 65.5t39.5 56t15 60.5q0 40 -22 62.5t-69 22.5q-60 0 -91 -38.5t-42 -101.5h-140q22 122 93.5 192.5t193.5 70.5q114 0 170.5 -52.5t56.5 -143.5q0 -64 -28.5 -115.5t-84.5 -102.5q-91 -83 -208 -183h253l-25 -126h-531z" />
    <glyph glyph-name="three" unicode="3" horiz-adv-x="600" 
d="M559.5 429.5q-40.5 -45.5 -113.5 -63.5q54 -18 79 -56t25 -95q0 -71 -36 -123.5t-99.5 -80.5t-144.5 -28q-124 0 -179 51.5t-55 150.5q0 36 7 71h136q-5 -30 -5 -50q0 -50 24 -77t80 -27q39 0 67.5 15.5t43.5 42.5t15 62q0 51 -32 75t-95 24h-12l20 98h22q74 0 111 29.5
t37 81.5q0 40 -22.5 62t-68.5 22q-55 0 -86 -32t-41 -85h-138q22 109 93 167.5t185 58.5q75 0 125 -22.5t74 -62.5t24 -93q0 -70 -40.5 -115.5z" />
    <glyph glyph-name="four" unicode="4" horiz-adv-x="600" 
d="M568 154h-88l-31 -154h-143l31 154h-357l1 4l348 548h261l-86 -431h88zM361 275l76 381h-1l-238 -381h163z" />
    <glyph glyph-name="five" unicode="5" horiz-adv-x="600" 
d="M308 582l-46 -124q34 7 73 7q111 0 165 -57t54 -156q0 -79 -37 -140t-102.5 -95t-150.5 -34q-234 0 -234 201q0 29 6 62h139q-4 -21 -4 -45q0 -48 23.5 -74t76.5 -26q42 0 72 18t46 49.5t16 70.5q0 67 -43.5 99t-131.5 32q-35 0 -72.5 -4t-68.5 -11l128 351h407l-51 -124
h-265z" />
    <glyph glyph-name="six" unicode="6" horiz-adv-x="600" 
d="M479 437q45 -27 68.5 -73.5t23.5 -104.5q0 -77 -37 -140t-102 -99.5t-146 -36.5q-128 0 -185.5 71t-57.5 193q0 128 41.5 237t122 174t191.5 65q68 0 117.5 -24t76 -70.5t26.5 -111.5h-137q0 46 -24 70.5t-68 24.5q-49 0 -88 -30t-64 -80t-37 -113q32 35 75.5 55t95.5 20
q63 0 108 -27zM361 120.5q31 21.5 47.5 57.5t16.5 77q0 49 -24 77.5t-72 28.5q-41 0 -72 -21.5t-48 -56t-17 -74.5q0 -50 24.5 -80t72.5 -30q41 0 72 21.5z" />
    <glyph glyph-name="seven" unicode="7" horiz-adv-x="600" 
d="M427 575h-314l26 131h535l-434 -706h-175z" />
    <glyph glyph-name="eight" unicode="8" horiz-adv-x="600" 
d="M594 466q-20 -37 -55.5 -60.5t-80.5 -30.5q54 -19 80.5 -61t26.5 -100q0 -72 -38 -124t-104 -79.5t-148 -27.5q-87 0 -145.5 24.5t-87 69t-28.5 105.5q0 52 23 95.5t64 71.5t94 36q-46 18 -70 57t-24 91q0 59 35.5 102t96 65.5t132.5 22.5q80 0 135.5 -21t84.5 -60.5
t29 -94.5q0 -44 -20 -81zM408.5 438.5q28.5 14.5 44.5 39.5t16 56q0 43 -26.5 67.5t-79.5 24.5q-37 0 -64.5 -14t-42 -39t-14.5 -57q0 -44 26 -68t76 -24q36 0 64.5 14.5zM350 108.5q31 15.5 48.5 43.5t17.5 63q0 47 -28.5 76t-84.5 29q-41 0 -72.5 -17t-48.5 -46t-17 -64
q0 -47 29 -73.5t86 -26.5q39 0 70 15.5z" />
    <glyph glyph-name="nine" unicode="9" horiz-adv-x="600" 
d="M541.5 652q57.5 -71 57.5 -193q0 -128 -41.5 -237t-122.5 -174t-192 -65q-68 0 -117.5 24.5t-76 70.5t-26.5 111h138q0 -46 24 -70.5t68 -24.5q49 0 88 30t64 80t37 113q-32 -35 -75.5 -55t-95.5 -20q-63 0 -108 27t-68.5 73.5t-23.5 104.5q0 77 37 140t102 99.5
t146 36.5q128 0 185.5 -71zM385 366.5q31 21.5 48 56t17 74.5q0 50 -24.5 80t-72.5 30q-41 0 -72 -21.5t-47.5 -57t-16.5 -77.5q0 -49 24 -77.5t72 -28.5q41 0 72 21.5z" />
    <glyph glyph-name="colon" unicode=":" horiz-adv-x="314" 
d="M76 -6q-20 11 -31.5 31t-11.5 45t11.5 45t31.5 31t46 11t46 -11t31 -31t11 -45t-11 -45t-31 -31t-46 -11t-46 11zM143 334q-20 11 -31.5 31t-11.5 45t11.5 45t31.5 31t46 11t46 -11t31 -31t11 -45t-11 -45t-31 -31t-46 -11t-46 11z" />
    <glyph glyph-name="semicolon" unicode=";" horiz-adv-x="352" 
d="M92 160h137l-158 -334h-106zM181 334q-20 11 -31.5 31t-11.5 45t11.5 45t31.5 31t46 11t46 -11t31 -31t11 -45t-11 -45t-31 -31t-46 -11t-46 11z" />
    <glyph glyph-name="less" unicode="&#x3c;" horiz-adv-x="589" 
d="M563 392l-395 -101l354 -101l-22 -112l-451 137l21 104l10 48l505 137z" />
    <glyph glyph-name="equal" unicode="=" horiz-adv-x="589" 
d="M95 446h478l-22 -109h-478zM55 246h478l-22 -109h-478z" />
    <glyph glyph-name="greater" unicode="&#x3e;" horiz-adv-x="589" 
d="M537 263h-1l-10 -48l-505 -137l23 112l394 101l-354 101l22 112l452 -136z" />
    <glyph glyph-name="question" unicode="?" horiz-adv-x="525" 
d="M294 364q47 55 74.5 101.5t27.5 81.5q0 31 -18 49t-57 18q-46 0 -66 -25t-29 -72h-137q37 206 242 206q102 0 157.5 -46t55.5 -130q0 -44 -23 -90.5t-65 -99t-121 -139.5h-172q84 91 131 146zM168.5 -6q-20.5 11 -31.5 31t-11 45t11 45t31.5 31t46.5 11q25 0 45 -11
t31.5 -31t11.5 -45t-11.5 -45t-31.5 -31t-45 -11q-26 0 -46.5 11z" />
    <glyph glyph-name="at" unicode="@" horiz-adv-x="845" 
d="M669.5 648q74.5 -39 111.5 -108t37 -161t-35 -164t-101.5 -113t-158.5 -41h-60l11 53q-26 -27 -62 -42t-79 -15q-63 0 -94.5 32t-31.5 86q0 80 57.5 115t161.5 35h83q5 25 5 41q0 30 -13.5 43.5t-48.5 13.5t-51.5 -16t-22.5 -46h-123q11 72 64 110t142 38q92 0 130.5 -35
t38.5 -106q0 -28 -8 -68l-33 -165q50 12 86 47.5t55 86t19 107.5q0 76 -29.5 132.5t-88.5 87.5t-146 31q-114 0 -196.5 -52.5t-125 -144t-42.5 -206.5q0 -129 70.5 -201.5t218.5 -72.5q34 0 65 3l-13 -64q-30 -2 -52 -2q-124 0 -204 43t-117 118.5t-37 176.5q0 131 53 236
t151.5 165.5t229.5 60.5q109 0 183.5 -39zM446.5 157q18.5 11 30 35t19.5 67h-65q-46 0 -70.5 -14.5t-24.5 -49.5q0 -25 14.5 -37t47.5 -12q30 0 48.5 11z" />
    <glyph glyph-name="A" unicode="A" horiz-adv-x="680" 
d="M462 148h-275l-74 -148h-157l365 706h221l83 -706h-148zM450 261l-34 337h-2l-170 -337h206z" />
    <glyph glyph-name="B" unicode="B" horiz-adv-x="623" 
d="M553 310q25 -39 25 -95q0 -67 -33 -115.5t-93 -74t-139 -25.5h-282l141 706h247q97 0 145.5 -44t48.5 -117q0 -64 -37 -110t-102 -64q54 -22 79 -61zM421 446q34 27 34 74q0 83 -106 83h-51l-37 -184h65q61 0 95 27zM384 133.5q38 29.5 38 84.5q0 48 -30 71.5t-90 23.5
h-62l-42 -209h78q70 0 108 29.5z" />
    <glyph glyph-name="C" unicode="C" horiz-adv-x="715" 
d="M130.5 61.5q-68.5 78.5 -68.5 213.5q0 123 47 225.5t134 162.5t202 60q82 0 142.5 -30.5t92.5 -86.5t32 -131q0 -14 -3 -34h-148l1 17q0 66 -34.5 103t-97.5 37q-69 0 -118 -45t-74 -118t-25 -156q0 -79 35 -124.5t105 -45.5q128 0 164 140h159q-16 -81 -62.5 -141
t-115 -92.5t-151.5 -32.5q-148 0 -216.5 78.5z" />
    <glyph glyph-name="D" unicode="D" horiz-adv-x="713" 
d="M172 706h205q165 0 240 -76.5t75 -211.5q0 -121 -47.5 -216t-135.5 -148.5t-207 -53.5h-271zM284 120q83 0 140.5 37t86 101.5t28.5 147.5q0 87 -38.5 133.5t-129.5 46.5h-76l-94 -466h83z" />
    <glyph glyph-name="E" unicode="E" horiz-adv-x="563" 
d="M172 706h429l-23 -120h-283l-34 -167h279l-23 -120h-280l-36 -179h283l-24 -120h-429z" />
    <glyph glyph-name="F" unicode="F" horiz-adv-x="533" 
d="M172 706h410l-24 -120h-263l-34 -167h261l-23 -120h-262l-60 -299h-146z" />
    <glyph glyph-name="G" unicode="G" horiz-adv-x="720" 
d="M315 553q-51 -45 -76.5 -117.5t-25.5 -155.5q0 -81 34 -126.5t108 -45.5q77 0 121 44t60 119h-154l21 110h299l-16 -81q-18 -90 -59.5 -161t-112.5 -113.5t-172 -42.5q-92 0 -154.5 35.5t-94 101.5t-31.5 157q0 122 46 224t133 162t205 60q85 0 145.5 -31t91 -89
t28.5 -139h-146q0 67 -33 100.5t-94 33.5q-72 0 -123 -45z" />
    <glyph glyph-name="H" unicode="H" horiz-adv-x="721" 
d="M172 706h146l-57 -287h268l57 287h146l-141 -706h-146l59 296h-268l-59 -296h-146z" />
    <glyph glyph-name="I" unicode="I" horiz-adv-x="307" 
d="M172 706h146l-141 -706h-146z" />
    <glyph glyph-name="J" unicode="J" horiz-adv-x="376" 
d="M-33 3l26 131q15 -4 40 -4q41 0 66.5 11.5t41 37.5t24.5 71l92 456h146l-98 -494q-23 -110 -87 -162.5t-182 -52.5q-40 0 -69 6z" />
    <glyph glyph-name="K" unicode="K" horiz-adv-x="666" 
d="M375 367l234 -367h-167l-200 325l-65 -325h-146l141 706h146l-55 -274l264 274h181z" />
    <glyph glyph-name="L" unicode="L" horiz-adv-x="479" 
d="M172 706h146l-115 -578h236l-25 -128h-383z" />
    <glyph glyph-name="M" unicode="M" horiz-adv-x="888" 
d="M172 706h163l99 -471l286 471h179l-141 -706h-138l95 473l-287 -473h-66l-98 474l-95 -474h-138z" />
    <glyph glyph-name="N" unicode="N" horiz-adv-x="742" 
d="M172 706h146l195 -492l98 492h142l-141 -706h-147l-194 492l-98 -492h-142z" />
    <glyph glyph-name="O" unicode="O" horiz-adv-x="745" 
d="M132 60.5q-70 77.5 -70 210.5q0 123 45 226.5t129.5 164.5t198.5 61q101 0 165.5 -37t94.5 -101.5t30 -149.5q0 -124 -44.5 -227t-129.5 -164t-200 -61q-149 0 -219 77.5zM474 155q49 47 74.5 121t25.5 154q0 79 -33 123.5t-110 44.5q-70 0 -119.5 -46.5t-74.5 -120.5
t-25 -154q0 -77 35 -123t109 -46q69 0 118 47z" />
    <glyph glyph-name="P" unicode="P" horiz-adv-x="602" 
d="M172 706h220q124 0 180.5 -47t56.5 -137q0 -72 -31 -125t-88.5 -82t-135.5 -29h-139l-58 -286h-146zM351 397q62 0 94.5 28.5t32.5 81.5q0 45 -28 66.5t-87 21.5h-67l-39 -198h94z" />
    <glyph glyph-name="Q" unicode="Q" horiz-adv-x="745" 
d="M700 262q-25 -82 -73 -144.5t-116 -97.5l57 -121l-116 -49l-56 136q-21 -3 -45 -3q-149 0 -219 77.5t-70 210.5q0 123 45 226.5t129.5 164.5t198.5 61q101 0 165.5 -37t94.5 -101.5t30 -149.5q0 -91 -25 -173zM520.5 213.5q26.5 46.5 40 102.5t13.5 114q0 79 -33 123.5
t-110 44.5q-70 0 -119.5 -46.5t-74.5 -120.5t-25 -154q0 -75 32.5 -120t101.5 -49l-27 65l101 43l36 -76q38 27 64.5 73.5z" />
    <glyph glyph-name="R" unicode="R" horiz-adv-x="648" 
d="M614 407.5q-24 -47.5 -69 -77.5t-106 -39l150 -291h-155l-145 287h-55l-57 -287h-146l141 706h234q121 0 176.5 -50t55.5 -140q0 -61 -24 -108.5zM256 393h100q64 0 98 29.5t34 83.5q0 47 -27 68t-84 21h-81z" />
    <glyph glyph-name="S" unicode="S" horiz-adv-x="614" 
d="M88.5 39q-61.5 56 -61.5 153q0 18 1 28h160q-2 -18 -2 -26q0 -48 27 -73t82 -25q56 0 87.5 25t31.5 67q0 27 -14.5 46.5t-37.5 33t-67 33.5l-38 18q-51 24 -83 48.5t-49 57.5t-17 79q0 67 34 116.5t95 76t141 26.5q75 0 127.5 -24.5t78.5 -68.5t26 -103q0 -21 -2 -31
h-151q3 17 3 32q0 40 -24.5 63t-71.5 23q-32 0 -56 -11.5t-36.5 -31t-12.5 -45.5t13.5 -43.5t36 -30t68.5 -32.5l27 -12q60 -27 95 -50.5t55 -58.5t20 -87q0 -72 -37 -123.5t-103.5 -78.5t-154.5 -27q-129 0 -190.5 56z" />
    <glyph glyph-name="T" unicode="T" horiz-adv-x="548" 
d="M269 586h-185l23 120h516l-23 -120h-185l-117 -586h-147z" />
    <glyph glyph-name="U" unicode="U" horiz-adv-x="677" 
d="M60 184q0 39 10 92l86 430h146l-90 -450q-5 -25 -5 -54q0 -47 25 -70t81 -23q69 0 104 33.5t49 103.5l92 460h146l-98 -492q-23 -116 -96 -173.5t-202 -57.5q-248 0 -248 201z" />
    <glyph glyph-name="V" unicode="V" horiz-adv-x="665" 
d="M750 706l-394 -706h-146l-113 706h152l68 -527l278 527h155z" />
    <glyph glyph-name="W" unicode="W" horiz-adv-x="930" 
d="M1015 706l-328 -706h-154l-19 504l-216 -504h-151l-50 706h139l29 -497l209 497h154l20 -496l218 496h149z" />
    <glyph glyph-name="X" unicode="X" horiz-adv-x="691" 
d="M281 383l-162 323h156l104 -216l180 216h185l-292 -335l182 -371h-156l-126 257l-206 -257h-189z" />
    <glyph glyph-name="Y" unicode="Y" horiz-adv-x="599" 
d="M238 303l-141 403h146l92 -260l180 260h169l-300 -403l-61 -303h-146z" />
    <glyph glyph-name="Z" unicode="Z" horiz-adv-x="602" 
d="M391 583h-285l25 123h519l-417 -583h313l-24 -123h-549z" />
    <glyph glyph-name="bracketleft" unicode="[" horiz-adv-x="390" 
d="M250 815h227l-21 -106h-109l-161 -804h109l-21 -106h-227z" />
    <glyph glyph-name="backslash" unicode="\" horiz-adv-x="499" 
d="M280 -50l-155 773h130l155 -773h-130z" />
    <glyph glyph-name="bracketright" unicode="]" horiz-adv-x="390" 
d="M164 -201h-227l21 106h109l161 804h-109l21 106h227z" />
    <glyph glyph-name="asciicircum" unicode="^" horiz-adv-x="516" 
d="M375 375l-38 223l-128 -223h-146l197 331h178l65 -331h-128z" />
    <glyph glyph-name="underscore" unicode="_" horiz-adv-x="389" 
d="M-64 -68h389l-24 -118h-388z" />
    <glyph glyph-name="grave" unicode="`" horiz-adv-x="325" 
d="M224 571l-79 156h130l65 -156h-116z" />
    <glyph glyph-name="a" unicode="a" horiz-adv-x="571" 
d="M471 465q49 -44 49 -130q0 -17 -3 -38t-8 -46l-50 -251h-140l11 54q-61 -67 -162 -67q-76 0 -114 37t-38 101q0 95 70.5 135t191.5 40h101q5 23 5 41q0 36 -17 53t-58 17q-43 0 -65.5 -19t-28.5 -54h-142q15 82 76.5 126.5t161.5 44.5q111 0 160 -44zM320 120.5
q29 29.5 43 95.5h-81q-55 0 -85.5 -15t-30.5 -54q0 -28 17 -42t53 -14q55 0 84 29.5z" />
    <glyph glyph-name="b" unicode="b" horiz-adv-x="598" 
d="M521 452q42 -57 42 -160q0 -80 -31.5 -150t-89 -112t-131.5 -42q-112 0 -144 87l-15 -75h-135l141 706h138l-51 -256q30 30 65.5 44.5t78.5 14.5q90 0 132 -57zM357 128.5q30 24.5 45 65t15 88.5q0 111 -87 111q-47 0 -78 -29.5t-42 -84.5q-7 -31 -10 -51t-3 -31
q0 -45 22 -69t65 -24t73 24.5z" />
    <glyph glyph-name="c" unicode="c" horiz-adv-x="560" 
d="M130 16q-48 28 -71 76.5t-23 113.5q0 84 35.5 153.5t100 109.5t147.5 40q65 0 112.5 -21.5t73.5 -62.5t26 -99q0 -11 -1 -17h-146v7q0 37 -19.5 57t-54.5 20q-41 0 -70 -26.5t-44 -69t-15 -89.5q0 -104 83 -104q37 0 62.5 23.5t32.5 60.5h152q-14 -64 -50 -109t-89.5 -68
t-119.5 -23q-74 0 -122 28z" />
    <glyph glyph-name="d" unicode="d" horiz-adv-x="598" 
d="M623 706l-141 -706h-135l10 50q-59 -63 -148 -63t-131 58.5t-42 157.5q0 80 31 150t88.5 112.5t131.5 42.5q108 0 142 -81l56 279h138zM347 132.5q31 29.5 42 84.5q6 31 9 51t3 31q0 46 -21.5 69.5t-64.5 23.5q-44 0 -74 -24.5t-45 -65t-15 -88.5q0 -111 87 -111
q48 0 79 29.5z" />
    <glyph glyph-name="e" unicode="e" horiz-adv-x="572" 
d="M176 215v-11q0 -53 22.5 -82t72.5 -29q71 0 99 60h145q-17 -52 -53.5 -89t-88 -56.5t-110.5 -19.5q-114 0 -170.5 58.5t-56.5 158.5q0 85 35 154.5t99 109.5t149 40q66 0 114.5 -24.5t75.5 -73t27 -117.5q0 -36 -8 -79h-352zM235.5 378q-30.5 -29 -45.5 -77h210v2
q0 104 -89 104q-45 0 -75.5 -29z" />
    <glyph glyph-name="f" unicode="f" horiz-adv-x="348" 
d="M108 386h-63l22 110h62l15 74q16 78 63 114.5t131 36.5q49 0 85 -9l-22 -110q-18 6 -44 6q-34 0 -54.5 -18t-27.5 -52l-8 -42h110l-22 -110h-110l-77 -386h-138z" />
    <glyph glyph-name="g" unicode="g" horiz-adv-x="597" 
d="M579 496l-100 -503q-41 -207 -265 -207q-105 0 -163.5 40.5t-53.5 117.5h143q1 -26 22 -40t57 -14q55 0 83.5 32t38.5 83l8 43q-56 -55 -141 -55q-60 0 -98.5 27t-56.5 71.5t-18 99.5q0 88 31 160.5t88 114.5t132 42q55 0 91 -21.5t53 -66.5l15 76h134zM268 109
q47 0 78 28.5t42 80.5q6 32 9 50.5t3 30.5q0 45 -22 69t-65 24t-73 -24t-45 -63t-15 -85q0 -111 88 -111z" />
    <glyph glyph-name="h" unicode="h" horiz-adv-x="583" 
d="M497 469q38 -40 38 -118q0 -28 -6 -61l-59 -290h-137l54 271q5 28 5 46q0 39 -18 57.5t-54 18.5q-42 0 -69 -24.5t-37 -73.5l-59 -295h-138l141 706h138l-53 -263q58 66 143 66q73 0 111 -40z" />
    <glyph glyph-name="i" unicode="i" horiz-adv-x="271" 
d="M177 586q-18 10 -28 27t-10 38t10 38.5t28 27.5t40 10t39.5 -10t28 -27.5t10.5 -38.5t-10.5 -38t-28 -27t-39.5 -10t-40 10zM116 496h138l-99 -496h-138z" />
    <glyph glyph-name="j" unicode="j" horiz-adv-x="271" 
d="M177 586q-18 10 -28 27t-10 38t10 38.5t28 27.5t40 10t39.5 -10t28 -27.5t10.5 -38.5t-10.5 -38t-28 -27t-39.5 -10t-40 10zM-107 -199l24 118q11 -2 28 -2q29 0 45.5 14.5t22.5 45.5l103 519h138l-111 -554q-16 -77 -58.5 -111.5t-121.5 -34.5q-33 0 -70 5z" />
    <glyph glyph-name="k" unicode="k" horiz-adv-x="535" 
d="M329 258l169 -258h-165l-135 215l-43 -215h-138l141 706h138l-76 -382l159 172h186z" />
    <glyph glyph-name="l" unicode="l" horiz-adv-x="271" 
d="M158 706h138l-141 -706h-138z" />
    <glyph glyph-name="m" unicode="m" horiz-adv-x="878" 
d="M794.5 471q36.5 -38 36.5 -110q0 -34 -8 -71l-58 -290h-137l53 271q6 26 6 47q0 38 -17 56.5t-50 18.5q-40 0 -65.5 -24.5t-35.5 -73.5l-59 -295h-138l54 271q6 26 6 46q0 39 -16.5 57.5t-50.5 18.5q-40 0 -65.5 -24.5t-35.5 -73.5l-59 -295h-138l99 496h138l-11 -56
q57 69 140 69q56 0 90.5 -24.5t47.5 -72.5q31 49 71.5 73t92.5 24q73 0 109.5 -38z" />
    <glyph glyph-name="n" unicode="n" horiz-adv-x="583" 
d="M498 470q37 -39 37 -111q0 -34 -6 -69l-59 -290h-137l54 270q5 27 5 49q0 38 -18.5 56t-54.5 18q-41 0 -68 -24.5t-37 -73.5l-59 -295h-138l99 496h138l-10 -52q28 33 64 49t81 16q72 0 109 -39z" />
    <glyph glyph-name="o" unicode="o" horiz-adv-x="578" 
d="M132 16q-49 29 -72 78.5t-23 111.5q0 87 34.5 156t99.5 108t153 39q74 0 123 -29t72 -78t23 -110q0 -88 -34.5 -157t-99.5 -108.5t-154 -39.5q-73 0 -122 29zM340.5 130q29.5 26 44 68.5t14.5 90.5q0 104 -89 104q-42 0 -72 -26t-44.5 -68t-14.5 -88q0 -51 21 -79t67 -28
q44 0 73.5 26z" />
    <glyph glyph-name="p" unicode="p" horiz-adv-x="598" 
d="M520.5 450q42.5 -59 42.5 -158q0 -80 -31.5 -150t-89 -112t-131.5 -42q-54 0 -89.5 20t-52.5 62l-54 -270h-138l139 696h135l-10 -50q59 63 148 63t131.5 -59zM357 128.5q30 24.5 45 65t15 88.5q0 111 -87 111q-47 0 -78 -29.5t-42 -84.5q-7 -31 -10 -51t-3 -31
q0 -45 22 -69t65 -24t73 24.5z" />
    <glyph glyph-name="q" unicode="q" horiz-adv-x="598" 
d="M581 496l-139 -696h-138l49 245q-59 -58 -144 -58q-89 0 -131 59t-42 158q0 80 31 150t88.5 112t131.5 42q56 0 92 -21.5t53 -66.5l15 76h134zM347 132.5q31 29.5 42 84.5q6 31 9 51t3 31q0 46 -21.5 69.5t-64.5 23.5q-44 0 -74 -24.5t-45 -65t-15 -88.5q0 -111 87 -111
q48 0 79 29.5z" />
    <glyph glyph-name="r" unicode="r" horiz-adv-x="390" 
d="M425 497l-25 -122q-9 2 -21 3.5t-24 1.5q-61 0 -100 -38.5t-54 -111.5l-46 -230h-138l99 496h132l-13 -63q55 70 141 70q23 0 49 -6z" />
    <glyph glyph-name="s" unicode="s" horiz-adv-x="490" 
d="M62.5 22.5q-49.5 38.5 -49.5 106.5q0 16 3 34h136q-3 -13 -3 -26q0 -56 67 -56q35 0 53.5 15t18.5 38q0 19 -11 32t-29.5 22.5t-49.5 21.5q-61 23 -92.5 55t-31.5 86q0 49 26.5 85t72.5 54.5t105 18.5q90 0 136 -34t46 -96q0 -8 -2 -28h-131q2 12 2 22q0 23 -14 35.5
t-43 12.5q-30 0 -46.5 -13.5t-16.5 -34.5q0 -23 22 -38.5t73 -35.5q44 -17 72.5 -35.5t43.5 -45.5t15 -65q0 -53 -29 -91.5t-79.5 -58t-114.5 -19.5q-100 0 -149.5 38.5z" />
    <glyph glyph-name="t" unicode="t" horiz-adv-x="368" 
d="M95 19.5q-35 28.5 -35 92.5q0 27 8 69l41 205h-67l22 110h67l23 117h138l-23 -117h118l-21 -110h-119l-40 -197q-3 -18 -3 -31q0 -28 14 -41t43 -13q18 0 48 7l-23 -112q-43 -8 -81 -8q-75 0 -110 28.5z" />
    <glyph glyph-name="u" unicode="u" horiz-adv-x="583" 
d="M566 496l-100 -496h-137l11 53q-30 -34 -66 -50t-80 -16q-72 0 -109 39t-37 111q0 35 6 69l58 290h138l-54 -270q-5 -27 -5 -49q0 -38 18.5 -56t54.5 -18q41 0 68 24.5t37 73.5l59 295h138z" />
    <glyph glyph-name="v" unicode="v" horiz-adv-x="541" 
d="M62 496h142l40 -336l176 336h158l-277 -496h-160z" />
    <glyph glyph-name="w" unicode="w" horiz-adv-x="808" 
d="M845 496l-270 -496h-135l-28 310l-146 -310h-133l-71 496h141l26 -316l158 316h116l32 -316l154 316h156z" />
    <glyph glyph-name="x" unicode="x" horiz-adv-x="566" 
d="M206 260l-140 236h150l82 -146l126 146h171l-237 -249l151 -247h-152l-85 154l-133 -154h-175z" />
    <glyph glyph-name="y" unicode="y" horiz-adv-x="546" 
d="M582 496l-413 -696h-148l120 201l-79 495h139l44 -339l182 339h155z" />
    <glyph glyph-name="z" unicode="z" horiz-adv-x="474" 
d="M208 111h221l-23 -111h-447l315 386h-214l21 110h432z" />
    <glyph glyph-name="braceleft" unicode="{" horiz-adv-x="389" 
d="M477 815l-20 -100h-14q-37 0 -59.5 -10t-34 -29.5t-18.5 -52.5l-42 -211q-10 -53 -36.5 -77.5t-76.5 -29.5q36 -7 52.5 -29.5t16.5 -64.5q0 -21 -6 -50l-35 -170q-3 -20 -3 -36q0 -29 17.5 -42.5t61.5 -13.5h13l-20 -100h-42q-73 0 -109 35.5t-36 97.5q0 24 6 51l35 178
q4 20 4 39q0 29 -18 41t-62 12l24 115q37 0 59 8.5t34 28.5t19 55l42 209q13 66 59 106t118 40h71z" />
    <glyph glyph-name="bar" unicode="|" horiz-adv-x="433" 
d="M246 756h144l-191 -957h-144z" />
    <glyph glyph-name="braceright" unicode="}" horiz-adv-x="390" 
d="M300.5 373q18.5 -12 61.5 -12l-23 -115q-37 0 -59 -8.5t-34.5 -28t-19.5 -55.5l-42 -209q-13 -66 -58.5 -106t-118.5 -40h-70l20 100h13q37 0 59.5 10t34.5 29.5t18 52.5l42 212q10 52 37 76.5t77 29.5q-36 7 -53 29.5t-17 64.5q0 22 6 50l35 170q4 17 4 36
q0 29 -18 42.5t-61 13.5h-14l20 100h43q73 0 108.5 -35.5t35.5 -97.5q0 -28 -5 -51l-35 -178q-5 -25 -5 -39q0 -29 18.5 -41z" />
    <glyph glyph-name="asciitilde" unicode="~" horiz-adv-x="589" 
d="M346 193.5q-17 6.5 -30 16t-30 24.5q-18 19 -31.5 27.5t-29.5 8.5q-23 0 -38 -21t-25 -60h-105q25 102 66.5 154.5t104.5 52.5q20 0 37 -7t29.5 -16.5t29.5 -24.5q20 -20 32 -28.5t28 -8.5q23 0 38.5 21t26.5 61h104q-25 -102 -66.5 -154t-102.5 -52q-21 0 -38 6.5z" />
    <glyph glyph-name="uni00A0" unicode="&#xa0;" horiz-adv-x="184" 
 />
    <glyph glyph-name="exclamdown" unicode="&#xa1;" horiz-adv-x="313" 
d="M240 512q20 -11 31 -31t11 -45t-11 -45t-31 -31t-46 -11t-46 11t-31.5 31t-11.5 45t11.5 45t31.5 31t46 11t46 -11zM143 -200h-153l118 488h112z" />
    <glyph glyph-name="cent" unicode="&#xa2;" horiz-adv-x="558" 
d="M413 416v6q0 31 -13 50.5t-37 27.5l-60 -292q33 5 55.5 29t28.5 57h143q-14 -62 -48.5 -106.5t-85 -68t-113.5 -25.5l-19 -94h-61l19 98q-84 14 -124.5 71t-40.5 143q0 82 34 150t95 109t140 45l18 90h61l-18 -93q78 -11 122 -57.5t44 -122.5q0 -11 -1 -17h-139zM247 212
l59 289q-35 -8 -60.5 -36t-38.5 -67.5t-13 -82.5q0 -83 53 -103z" />
    <glyph glyph-name="sterling" unicode="&#xa3;" horiz-adv-x="644" 
d="M510 464q3 20 3 39q0 52 -20.5 79t-67.5 27q-55 0 -82.5 -33t-40.5 -97l-17 -85h170l-14 -73h-171l-42 -213h74q77 0 116 38t54 112h135q-18 -90 -50 -145.5t-89 -84t-147 -28.5h-335l22 108h74l42 213h-73l14 73h73l21 104q15 74 46 123t86.5 75.5t138.5 26.5
q119 0 170.5 -49.5t51.5 -146.5q0 -25 -5 -63h-137z" />
    <glyph glyph-name="currency" unicode="&#xa4;" horiz-adv-x="580" 
d="M521.5 267.5q-23.5 -50.5 -66.5 -85.5l60 -102h-104l-34 57q-42 -15 -93 -15q-66 0 -114 28l-68 -70h-104l117 120q-18 26 -27.5 58t-9.5 69q0 60 23.5 111.5t66.5 86.5l-61 100h104l34 -56q42 15 93 15q65 0 114 -27l67 68h104l-117 -118q19 -26 29 -59.5t10 -70.5
q0 -59 -23.5 -109.5zM216.5 256q27.5 -30 80.5 -30q41 0 72 19.5t47.5 52.5t16.5 71q0 52 -27.5 82t-79.5 30q-41 0 -72 -19.5t-48 -52t-17 -71.5q0 -52 27.5 -82z" />
    <glyph glyph-name="yen" unicode="&#xa5;" horiz-adv-x="603" 
d="M404 345h159l-14 -67h-166l-14 -72h166l-13 -67h-166l-28 -139h-149l28 139h-170l14 67h169l14 72h-169l13 67h162l-141 361h144l89 -249l186 249h169z" />
    <glyph glyph-name="brokenbar" unicode="&#xa6;" horiz-adv-x="433" 
d="M246 756h144l-65 -328h-144zM121 128h144l-66 -329h-144z" />
    <glyph glyph-name="section" unicode="&#xa7;" horiz-adv-x="517" 
d="M396 553q1 6 1 17q0 58 -67 58q-38 0 -60 -19t-22 -51q0 -24 13 -40.5t28.5 -25.5t55.5 -30q47 -23 76 -45.5t44.5 -52t15.5 -71.5q0 -73 -39.5 -120.5t-108.5 -65.5q40 -26 61.5 -58.5t21.5 -80.5q0 -57 -30 -98t-82.5 -62.5t-119.5 -21.5q-103 0 -152 38t-49 112
q0 18 1 28h137q-1 -7 -1 -21q0 -30 16 -45.5t52 -15.5q44 0 65.5 21.5t21.5 57.5q0 25 -12 41.5t-31.5 28t-54.5 27.5q-46 22 -75 43t-45.5 51.5t-16.5 73.5q0 71 45.5 117t121.5 59q-45 30 -69 63t-24 83q0 54 28.5 93.5t78.5 60.5t111 21q97 0 147 -37.5t50 -107.5
q0 -16 -1 -25h-132zM305 187q23 11 35 30.5t12 44.5q0 34 -21.5 51.5t-61.5 17.5q-47 0 -74 -23t-27 -60q0 -33 22 -52.5t62 -19.5q30 0 53 11z" />
    <glyph glyph-name="dieresis" unicode="&#xa8;" horiz-adv-x="455" 
d="M152 593.5q-21 20.5 -21 51.5t21 51.5t53 20.5q21 0 38 -9.5t27 -26t10 -36.5t-10 -36.5t-27 -26t-38 -9.5q-32 0 -53 20.5zM356 593.5q-21 20.5 -21 51.5t21 51.5t53 20.5q21 0 38 -9.5t27 -26t10 -36.5t-10 -36.5t-27 -26t-38 -9.5q-32 0 -53 20.5z" />
    <glyph glyph-name="copyright" unicode="&#xa9;" horiz-adv-x="809" 
d="M213.5 26q-73.5 43 -110.5 117t-37 168q0 112 51 206.5t141 150t202 55.5q104 0 177.5 -41.5t111 -114t37.5 -164.5q0 -115 -51 -211t-141 -152.5t-202 -56.5q-105 0 -178.5 43zM564 91q75 49 116 132t41 181q0 76 -30 134.5t-88.5 91.5t-142.5 33q-96 0 -171.5 -47.5
t-117 -128.5t-41.5 -177q0 -77 30 -138t89 -95.5t144 -34.5q96 0 171 49zM299 134q-44 25 -68 72.5t-24 114.5q0 75 30.5 138.5t86.5 101t130 37.5q59 0 102.5 -21t66.5 -60t23 -92l-1 -19h-122q2 26 -7 46t-27 31t-43 11q-40 0 -67 -26t-39.5 -66.5t-12.5 -83.5
q0 -49 20 -75.5t59 -26.5q36 0 61.5 22t34.5 57h123q-11 -56 -42.5 -98.5t-78.5 -65t-101 -22.5q-60 0 -104 25z" />
    <glyph glyph-name="ordfeminine" unicode="&#xaa;" horiz-adv-x="408" 
d="M392.5 686.5q36.5 -30.5 36.5 -90.5q0 -24 -6 -54l-37 -182h-107l9 41q-47 -50 -113 -50q-53 0 -80 26t-27 72q0 65 48.5 94t131.5 29h71q4 16 4 28q0 22 -11.5 32t-38.5 10q-45 0 -54 -46h-111q11 59 52.5 90t114.5 31q81 0 117.5 -30.5zM281 449.5q19 19.5 27 62.5h-54
q-33 0 -51 -10t-18 -34q0 -18 11 -28t33 -10q33 0 52 19.5z" />
    <glyph glyph-name="guillemotleft" unicode="&#xab;" horiz-adv-x="570" 
d="M30 291l174 160h150l-184 -169l110 -159h-135zM272 291l174 160h150l-184 -169l110 -159h-135z" />
    <glyph glyph-name="logicalnot" unicode="&#xac;" horiz-adv-x="589" 
d="M438 328h-367l22 108h478l-78 -385h-111z" />
    <glyph glyph-name="uni00AD" unicode="&#xad;" horiz-adv-x="404" 
d="M76 350h292l-23 -117h-293z" />
    <glyph glyph-name="registered" unicode="&#xae;" horiz-adv-x="489" 
d="M419 696.5q43 -23.5 64 -65.5t21 -98q0 -65 -27.5 -117t-78 -82t-116.5 -30q-63 0 -106 24t-64 66.5t-21 98.5q0 64 27.5 115.5t78 81.5t116.5 30q63 0 106 -23.5zM375.5 373q38.5 24 58 66t19.5 95q0 66 -34.5 103.5t-105.5 37.5q-54 0 -93 -23.5t-59 -64.5t-20 -93
q0 -67 35 -106t106 -39q55 0 93.5 24zM388 611q22 -16 22 -49q0 -25 -12 -41.5t-35 -22.5q22 -14 22 -44q0 -11 -2 -21l-7 -36h-66l8 37q2 12 2 18q0 13 -7.5 19t-25.5 6h-25l-16 -80h-66l47 230h93q46 0 68 -16zM307 526q18 0 27.5 7.5t9.5 20.5q0 12 -8.5 18.5t-24.5 6.5
h-28l-11 -53h35z" />
    <glyph glyph-name="macron" unicode="&#xaf;" horiz-adv-x="399" 
d="M138 688h299l-18 -89h-299z" />
    <glyph glyph-name="degree" unicode="&#xb0;" horiz-adv-x="359" 
d="M162.5 447q-35.5 19 -55.5 52.5t-20 75.5q0 43 20 76.5t55.5 52.5t81.5 19t82.5 -19t56.5 -52.5t20 -76.5q0 -42 -20 -75.5t-56.5 -52.5t-82.5 -19t-81.5 19zM288.5 532q16.5 16 16.5 43q0 28 -16.5 45t-43.5 17t-43.5 -17t-16.5 -45q0 -27 16.5 -43t43.5 -16t43.5 16z
" />
    <glyph glyph-name="plusminus" unicode="&#xb1;" horiz-adv-x="589" 
d="M568 420l-23 -109h-182l-27 -135h-113l27 135h-182l22 109h182l26 132h113l-26 -132h183zM34 140h478l-22 -109h-478z" />
    <glyph glyph-name="twosuperior" unicode="&#xb2;" horiz-adv-x="379" 
d="M56 443l214 186q36 32 50 49t14 36q0 18 -12.5 28t-34.5 10q-51 0 -63 -58h-106q12 66 56 104.5t117 38.5q74 0 111.5 -29t37.5 -83q0 -34 -15 -60.5t-46 -51.5l-98 -79h127l-19 -96h-334z" />
    <glyph glyph-name="threesuperior" unicode="&#xb3;" horiz-adv-x="375" 
d="M393.5 606q13.5 -19 13.5 -49q0 -41 -22 -70.5t-61.5 -44.5t-90.5 -15q-76 0 -112.5 31.5t-36.5 89.5q0 16 3 35l98 -1q-3 -10 -3 -20q0 -51 54 -51q30 0 46.5 14.5t16.5 38.5q0 22 -13.5 30.5t-40.5 8.5h-16l13 68h18q31 0 47.5 11.5t16.5 33.5q0 17 -11.5 27t-34.5 10
q-28 0 -43 -15t-19 -39h-100q13 66 58.5 102t118.5 36q67 0 103.5 -28.5t36.5 -76.5q0 -35 -21.5 -60t-59.5 -37q28 -10 41.5 -29z" />
    <glyph glyph-name="acute" unicode="&#xb4;" horiz-adv-x="326" 
d="M229 727h143l-129 -156h-128z" />
    <glyph glyph-name="mu" unicode="&#xb5;" horiz-adv-x="586" 
d="M569 496l-99 -496h-133l11 53q-28 -32 -63.5 -49t-76.5 -17t-64 16q-5 -69 -17 -127l-15 -78h-135l139 698h135l-58 -287q-4 -21 -4 -43q0 -34 16.5 -49.5t52.5 -15.5q48 0 77.5 27t41.5 82l57 286h135z" />
    <glyph glyph-name="paragraph" unicode="&#xb6;" horiz-adv-x="715" 
d="M306 277h-27q-109 0 -157.5 50.5t-48.5 142.5q0 74 28.5 127t83 81t130.5 28h475l-22 -113h-67l-159 -794h-122l158 794h-88l-158 -794h-122z" />
    <glyph glyph-name="periodcentered" unicode="&#xb7;" horiz-adv-x="313" 
d="M120 221q-20 11 -31.5 31t-11.5 45t11.5 45t31.5 31t46 11t46 -11t31 -31t11 -45t-11 -45t-31 -31t-46 -11t-46 11z" />
    <glyph glyph-name="cedilla" unicode="&#xb8;" horiz-adv-x="338" 
d="M187.5 -67.5q22.5 -23.5 22.5 -59.5q0 -52 -41.5 -77.5t-110.5 -25.5q-29 0 -55 5t-45 15l27 66q31 -15 71 -15q28 0 43.5 9t15.5 26q0 16 -15.5 24t-50.5 8h-44l44 97h95l-21 -45q42 -4 64.5 -27.5z" />
    <glyph glyph-name="onesuperior" unicode="&#xb9;" horiz-adv-x="283" 
d="M191 728h-71l37 98h166l-78 -388h-112z" />
    <glyph glyph-name="ordmasculine" unicode="&#xba;" horiz-adv-x="411" 
d="M123 394.5q-40 43.5 -40 115.5q0 58 25 105.5t69.5 74.5t102.5 27q82 0 122 -43t40 -115q0 -58 -25 -105.5t-70.5 -75t-102.5 -27.5q-81 0 -121 43.5zM308 477q20 34 20 83q0 32 -12 49t-40 17q-26 0 -44 -16.5t-26.5 -43t-8.5 -57.5q0 -32 12 -49t40 -17q39 0 59 34z
" />
    <glyph glyph-name="guillemotright" unicode="&#xbb;" horiz-adv-x="570" 
d="M313 282l-174 -159h-150l184 168l-110 160h136zM555 282l-174 -159h-150l184 168l-110 160h136z" />
    <glyph glyph-name="onequarter" unicode="&#xbc;" horiz-adv-x="873" 
d="M167 608h-71l37 98h166l-78 -388h-112zM638 706h99l-549 -706h-100zM661 75h-235v2l208 311h194l-45 -223h58l-17 -90h-59l-15 -75h-105zM678 165l38 188l-119 -188h81z" />
    <glyph glyph-name="onehalf" unicode="&#xbd;" horiz-adv-x="862" 
d="M167 608h-71l37 98h166l-78 -388h-112zM638 706h99l-549 -706h-100zM451 5l214 186q36 32 50 49t14 36q0 18 -12.5 28t-34.5 10q-51 0 -63 -58h-106q12 66 56 104.5t117 38.5q74 0 111.5 -29t37.5 -83q0 -34 -15 -60.5t-46 -51.5l-98 -79h127l-19 -96h-334z" />
    <glyph glyph-name="threequarters" unicode="&#xbe;" horiz-adv-x="956" 
d="M369.5 486q13.5 -19 13.5 -49q0 -41 -22 -70.5t-61.5 -44.5t-90.5 -15q-76 0 -112.5 31.5t-36.5 89.5q0 16 3 35l98 -1q-3 -10 -3 -20q0 -51 54 -51q30 0 46.5 14.5t16.5 38.5q0 22 -13.5 30.5t-40.5 8.5h-16l13 68h18q31 0 47.5 11.5t16.5 33.5q0 17 -11.5 27t-34.5 10
q-28 0 -43 -15t-19 -39h-100q13 66 58.5 102t118.5 36q67 0 103.5 -28.5t36.5 -76.5q0 -35 -21.5 -60t-59.5 -37q28 -10 41.5 -29zM721 706h99l-549 -706h-100zM744 75h-235v2l208 311h194l-45 -223h58l-17 -90h-59l-15 -75h-105zM761 165l38 188l-119 -188h81z" />
    <glyph glyph-name="questiondown" unicode="&#xbf;" horiz-adv-x="525" 
d="M360 516q20 -11 31 -31t11 -45t-11 -45t-31 -31t-46 -11t-46 11t-31.5 31t-11.5 45t11.5 45t31.5 31t46 11t46 -11zM234 146q-47 -55 -74.5 -101.5t-27.5 -81.5q0 -31 18.5 -49t57.5 -18q45 0 65 25t29 72h137q-18 -100 -76.5 -153t-165.5 -53q-102 0 -157.5 46
t-55.5 130q0 44 23 90.5t65.5 99t121.5 139.5h171q-84 -91 -131 -146z" />
    <glyph glyph-name="Agrave" unicode="&#xc0;" horiz-adv-x="680" 
d="M462 148h-275l-74 -148h-157l365 706h221l83 -706h-148zM450 261l-34 337h-2l-170 -337h206zM413 774l-95 137h134l82 -137h-121z" />
    <glyph glyph-name="Aacute" unicode="&#xc1;" horiz-adv-x="680" 
d="M462 148h-275l-74 -148h-157l365 706h221l83 -706h-148zM450 261l-34 337h-2l-170 -337h206zM474 911h152l-132 -137h-139z" />
    <glyph glyph-name="Acircumflex" unicode="&#xc2;" horiz-adv-x="680" 
d="M462 148h-275l-74 -148h-157l365 706h221l83 -706h-148zM450 261l-34 337h-2l-170 -337h206zM393 911h159l79 -137h-120l-45 75l-76 -75h-132z" />
    <glyph glyph-name="Atilde" unicode="&#xc3;" horiz-adv-x="680" 
d="M462 148h-275l-74 -148h-157l365 706h221l83 -706h-148zM450 261l-34 337h-2l-170 -337h206zM450 799q-23 15 -35 21t-26 6q-38 0 -54 -55h-79q17 70 50 106t85 36q26 0 44.5 -8t37.5 -24q15 -12 26.5 -18t26.5 -6q21 0 33.5 13.5t23.5 41.5h78q-34 -142 -131 -142
q-41 0 -80 29z" />
    <glyph glyph-name="Adieresis" unicode="&#xc4;" horiz-adv-x="680" 
d="M462 148h-275l-74 -148h-157l365 706h221l83 -706h-148zM450 261l-34 337h-2l-170 -337h206zM312.5 786q-16.5 9 -26 25t-9.5 35q0 31 20.5 51t52.5 20q20 0 36.5 -9t26 -25.5t9.5 -36.5q0 -19 -9.5 -35t-26 -25t-36.5 -9q-21 0 -37.5 9zM530.5 786q-16.5 9 -26 25
t-9.5 35q0 31 20.5 51t51.5 20q20 0 37 -9t26.5 -25.5t9.5 -36.5q0 -19 -9.5 -35t-26.5 -25t-37 -9t-36.5 9z" />
    <glyph glyph-name="Aring" unicode="&#xc5;" horiz-adv-x="680" 
d="M462 148h-275l-74 -148h-157l365 706h221l83 -706h-148zM450 261l-34 337h-2l-170 -337h206zM382 755q-29 15 -45 42t-16 62q0 36 16 63t45 41.5t68 14.5t69 -15t46 -42t16 -62t-16.5 -62t-46 -42t-68.5 -15t-68 15zM489 822.5q14 13.5 14 36.5t-14.5 37t-38.5 14
q-23 0 -37 -14t-14 -37t14 -36.5t37 -13.5q25 0 39 13.5z" />
    <glyph glyph-name="AE" unicode="&#xc6;" horiz-adv-x="830" 
d="M580 586l-13 -168h240l-23 -119h-227l-14 -179h208l-24 -120h-343l14 150h-198l-81 -150h-163l396 706h516l-24 -120h-264zM408 262l31 329h-2l-177 -329h148z" />
    <glyph glyph-name="Ccedilla" unicode="&#xc7;" horiz-adv-x="715" 
d="M561 441l1 17q0 66 -34.5 103t-97.5 37q-69 0 -118 -45t-74 -118t-25 -156q0 -79 35 -124.5t105 -45.5q128 0 164 140h159q-15 -75 -56 -132.5t-102 -91.5t-135 -40l-12 -25q42 -4 64.5 -27.5t22.5 -59.5q0 -52 -41.5 -77.5t-110.5 -25.5q-60 0 -100 20l27 66
q32 -15 71 -15q27 0 43 9t16 26q0 16 -15.5 24t-50.5 8h-44l36 79q-118 15 -172.5 91t-54.5 197q0 123 47 225.5t134 162.5t202 60q82 0 142.5 -30.5t92.5 -86.5t32 -131q0 -14 -3 -34h-148z" />
    <glyph glyph-name="Egrave" unicode="&#xc8;" horiz-adv-x="563" 
d="M172 706h429l-23 -120h-283l-34 -167h279l-23 -120h-280l-36 -179h283l-24 -120h-429zM361 774l-95 137h134l82 -137h-121z" />
    <glyph glyph-name="Eacute" unicode="&#xc9;" horiz-adv-x="563" 
d="M172 706h429l-23 -120h-283l-34 -167h279l-23 -120h-280l-36 -179h283l-24 -120h-429zM422 911h152l-132 -137h-139z" />
    <glyph glyph-name="Ecircumflex" unicode="&#xca;" horiz-adv-x="563" 
d="M172 706h429l-23 -120h-283l-34 -167h279l-23 -120h-280l-36 -179h283l-24 -120h-429zM341 911h159l79 -137h-120l-45 75l-76 -75h-132z" />
    <glyph glyph-name="Edieresis" unicode="&#xcb;" horiz-adv-x="563" 
d="M172 706h429l-23 -120h-283l-34 -167h279l-23 -120h-280l-36 -179h283l-24 -120h-429zM260.5 786q-16.5 9 -26 25t-9.5 35q0 31 20.5 51t52.5 20q20 0 36.5 -9t26 -25.5t9.5 -36.5q0 -19 -9.5 -35t-26 -25t-36.5 -9q-21 0 -37.5 9zM478.5 786q-16.5 9 -26 25t-9.5 35
q0 31 20.5 51t51.5 20q20 0 37 -9t26.5 -25.5t9.5 -36.5q0 -19 -9.5 -35t-26.5 -25t-37 -9t-36.5 9z" />
    <glyph glyph-name="Igrave" unicode="&#xcc;" horiz-adv-x="307" 
d="M172 706h146l-141 -706h-146zM227 774l-95 137h134l82 -137h-121z" />
    <glyph glyph-name="Iacute" unicode="&#xcd;" horiz-adv-x="307" 
d="M172 706h146l-141 -706h-146zM288 911h152l-132 -137h-139z" />
    <glyph glyph-name="Icircumflex" unicode="&#xce;" horiz-adv-x="307" 
d="M172 706h146l-141 -706h-146zM208 911h154l57 -137h-112l-29 75l-60 -75h-121z" />
    <glyph glyph-name="Idieresis" unicode="&#xcf;" horiz-adv-x="307" 
d="M172 706h146l-141 -706h-146zM139 795.5q-19 19.5 -19 48.5q0 30 19 49.5t48 19.5q30 0 49.5 -19.5t19.5 -49.5q0 -29 -19.5 -48.5t-49.5 -19.5q-29 0 -48 19.5zM306 795q-19 19 -19 48q0 30 19 50t48 20t48.5 -20t19.5 -50q0 -29 -19.5 -48t-48.5 -19t-48 19z" />
    <glyph glyph-name="Eth" unicode="&#xd0;" horiz-adv-x="713" 
d="M617 629.5q75 -76.5 75 -211.5q0 -121 -47.5 -216t-135.5 -148.5t-207 -53.5h-271l62 311h-56l19 94h56l60 301h205q165 0 240 -76.5zM424.5 157q57.5 37 86 101.5t28.5 147.5q0 87 -38.5 133.5t-129.5 46.5h-76l-37 -181h151l-18 -94h-151l-39 -191h83q83 0 140.5 37z
" />
    <glyph glyph-name="Ntilde" unicode="&#xd1;" horiz-adv-x="742" 
d="M172 706h146l195 -492l98 492h142l-141 -706h-147l-194 492l-98 -492h-142zM473 799q-23 15 -35 21t-26 6q-38 0 -54 -55h-79q17 70 50 106t85 36q26 0 44.5 -8t37.5 -24q15 -12 26.5 -18t26.5 -6q21 0 33.5 13.5t23.5 41.5h78q-34 -142 -131 -142q-41 0 -80 29z" />
    <glyph glyph-name="Ograve" unicode="&#xd2;" horiz-adv-x="745" 
d="M132 60.5q-70 77.5 -70 210.5q0 123 45 226.5t129.5 164.5t198.5 61q101 0 165.5 -37t94.5 -101.5t30 -149.5q0 -124 -44.5 -227t-129.5 -164t-200 -61q-149 0 -219 77.5zM474 155q49 47 74.5 121t25.5 154q0 79 -33 123.5t-110 44.5q-70 0 -119.5 -46.5t-74.5 -120.5
t-25 -154q0 -77 35 -123t109 -46q69 0 118 47zM445 774l-95 137h134l82 -137h-121z" />
    <glyph glyph-name="Oacute" unicode="&#xd3;" horiz-adv-x="745" 
d="M132 60.5q-70 77.5 -70 210.5q0 123 45 226.5t129.5 164.5t198.5 61q101 0 165.5 -37t94.5 -101.5t30 -149.5q0 -124 -44.5 -227t-129.5 -164t-200 -61q-149 0 -219 77.5zM474 155q49 47 74.5 121t25.5 154q0 79 -33 123.5t-110 44.5q-70 0 -119.5 -46.5t-74.5 -120.5
t-25 -154q0 -77 35 -123t109 -46q69 0 118 47zM505 911h152l-132 -137h-139z" />
    <glyph glyph-name="Ocircumflex" unicode="&#xd4;" horiz-adv-x="745" 
d="M132 60.5q-70 77.5 -70 210.5q0 123 45 226.5t129.5 164.5t198.5 61q101 0 165.5 -37t94.5 -101.5t30 -149.5q0 -124 -44.5 -227t-129.5 -164t-200 -61q-149 0 -219 77.5zM474 155q49 47 74.5 121t25.5 154q0 79 -33 123.5t-110 44.5q-70 0 -119.5 -46.5t-74.5 -120.5
t-25 -154q0 -77 35 -123t109 -46q69 0 118 47zM424 911h159l79 -137h-120l-45 75l-76 -75h-132z" />
    <glyph glyph-name="Otilde" unicode="&#xd5;" horiz-adv-x="745" 
d="M132 60.5q-70 77.5 -70 210.5q0 123 45 226.5t129.5 164.5t198.5 61q101 0 165.5 -37t94.5 -101.5t30 -149.5q0 -124 -44.5 -227t-129.5 -164t-200 -61q-149 0 -219 77.5zM474 155q49 47 74.5 121t25.5 154q0 79 -33 123.5t-110 44.5q-70 0 -119.5 -46.5t-74.5 -120.5
t-25 -154q0 -77 35 -123t109 -46q69 0 118 47zM481 799q-23 15 -35 21t-26 6q-38 0 -54 -55h-79q17 70 50 106t85 36q26 0 44.5 -8t37.5 -24q15 -12 26.5 -18t26.5 -6q21 0 33.5 13.5t23.5 41.5h78q-34 -142 -131 -142q-41 0 -80 29z" />
    <glyph glyph-name="Odieresis" unicode="&#xd6;" horiz-adv-x="745" 
d="M132 60.5q-70 77.5 -70 210.5q0 123 45 226.5t129.5 164.5t198.5 61q101 0 165.5 -37t94.5 -101.5t30 -149.5q0 -124 -44.5 -227t-129.5 -164t-200 -61q-149 0 -219 77.5zM474 155q49 47 74.5 121t25.5 154q0 79 -33 123.5t-110 44.5q-70 0 -119.5 -46.5t-74.5 -120.5
t-25 -154q0 -77 35 -123t109 -46q69 0 118 47zM343.5 786q-16.5 9 -26 25t-9.5 35q0 31 20.5 51t52.5 20q20 0 36.5 -9t26 -25.5t9.5 -36.5q0 -19 -9.5 -35t-26 -25t-36.5 -9q-21 0 -37.5 9zM561.5 786q-16.5 9 -26 25t-9.5 35q0 31 20.5 51t51.5 20q20 0 37 -9t26.5 -25.5
t9.5 -36.5q0 -19 -9.5 -35t-26.5 -25t-37 -9t-36.5 9z" />
    <glyph glyph-name="multiply" unicode="&#xd7;" horiz-adv-x="589" 
d="M380 285l113 -143l-84 -70l-113 143l-180 -150l-69 84l181 151l-114 143l84 70l114 -143l178 149l69 -85z" />
    <glyph glyph-name="Oslash" unicode="&#xd8;" horiz-adv-x="745" 
d="M696 582q29 -61 29 -147q0 -124 -44.5 -227t-129.5 -164t-200 -61q-152 0 -225 84l-74 -67h-104l141 126q-27 60 -27 145q0 123 45 226.5t129.5 164.5t198.5 61q151 0 224 -84l73 67h103zM311.5 551.5q-49.5 -46.5 -74.5 -120.5t-25 -154q0 -23 3 -44l333 310
q-36 55 -117 55q-70 0 -119.5 -46.5zM474 155q49 47 74.5 121t25.5 154q0 24 -3 45l-332 -309q35 -58 117 -58q69 0 118 47z" />
    <glyph glyph-name="Ugrave" unicode="&#xd9;" horiz-adv-x="677" 
d="M60 184q0 39 10 92l86 430h146l-90 -450q-5 -25 -5 -54q0 -47 25 -70t81 -23q69 0 104 33.5t49 103.5l92 460h146l-98 -492q-23 -116 -96 -173.5t-202 -57.5q-248 0 -248 201zM409 774l-95 137h134l82 -137h-121z" />
    <glyph glyph-name="Uacute" unicode="&#xda;" horiz-adv-x="677" 
d="M60 184q0 39 10 92l86 430h146l-90 -450q-5 -25 -5 -54q0 -47 25 -70t81 -23q69 0 104 33.5t49 103.5l92 460h146l-98 -492q-23 -116 -96 -173.5t-202 -57.5q-248 0 -248 201zM470 911h152l-132 -137h-139z" />
    <glyph glyph-name="Ucircumflex" unicode="&#xdb;" horiz-adv-x="677" 
d="M60 184q0 39 10 92l86 430h146l-90 -450q-5 -25 -5 -54q0 -47 25 -70t81 -23q69 0 104 33.5t49 103.5l92 460h146l-98 -492q-23 -116 -96 -173.5t-202 -57.5q-248 0 -248 201zM389 911h159l79 -137h-120l-45 75l-76 -75h-132z" />
    <glyph glyph-name="Udieresis" unicode="&#xdc;" horiz-adv-x="677" 
d="M60 184q0 39 10 92l86 430h146l-90 -450q-5 -25 -5 -54q0 -47 25 -70t81 -23q69 0 104 33.5t49 103.5l92 460h146l-98 -492q-23 -116 -96 -173.5t-202 -57.5q-248 0 -248 201zM308.5 786q-16.5 9 -26 25t-9.5 35q0 31 20.5 51t52.5 20q20 0 36.5 -9t26 -25.5t9.5 -36.5
q0 -19 -9.5 -35t-26 -25t-36.5 -9q-21 0 -37.5 9zM526.5 786q-16.5 9 -26 25t-9.5 35q0 31 20.5 51t51.5 20q20 0 37 -9t26.5 -25.5t9.5 -36.5q0 -19 -9.5 -35t-26.5 -25t-37 -9t-36.5 9z" />
    <glyph glyph-name="Yacute" unicode="&#xdd;" horiz-adv-x="599" 
d="M238 303l-141 403h146l92 -260l180 260h169l-300 -403l-61 -303h-146zM418 911h152l-132 -137h-139z" />
    <glyph glyph-name="Thorn" unicode="&#xde;" horiz-adv-x="603" 
d="M172 706h146l-21 -107h60q128 0 186.5 -53.5t58.5 -155.5q0 -82 -33.5 -143t-95.5 -94t-146 -33h-126l-24 -120h-146zM306 235q71 0 108 36.5t37 102.5q0 57 -29.5 83t-94.5 26h-53l-49 -248h81z" />
    <glyph glyph-name="germandbls" unicode="&#xdf;" horiz-adv-x="600" 
d="M533.5 331q21.5 -41 21.5 -96q0 -74 -36 -127t-102.5 -81t-156.5 -28q-28 0 -56 2l21 108h34q74 0 113.5 34t39.5 95q0 48 -29 74.5t-91 26.5h-17l20 103h32q58 0 90.5 26.5t32.5 74.5q0 37 -19.5 58t-60.5 21q-54 0 -79.5 -33.5t-36.5 -93.5l-99 -495h-138l102 510
q20 100 82.5 156.5t178.5 56.5q106 0 157 -46.5t51 -125.5q0 -59 -32.5 -100t-90.5 -58q47 -21 68.5 -62z" />
    <glyph glyph-name="agrave" unicode="&#xe0;" horiz-adv-x="571" 
d="M471 465q49 -44 49 -130q0 -17 -3 -38t-8 -46l-50 -251h-140l11 54q-61 -67 -162 -67q-76 0 -114 37t-38 101q0 95 70.5 135t191.5 40h101q5 23 5 41q0 36 -17 53t-58 17q-43 0 -65.5 -19t-28.5 -54h-142q15 82 76.5 126.5t161.5 44.5q111 0 160 -44zM320 120.5
q29 29.5 43 95.5h-81q-55 0 -85.5 -15t-30.5 -54q0 -28 17 -42t53 -14q55 0 84 29.5zM315 571l-79 156h130l65 -156h-116z" />
    <glyph glyph-name="aacute" unicode="&#xe1;" horiz-adv-x="571" 
d="M471 465q49 -44 49 -130q0 -17 -3 -38t-8 -46l-50 -251h-140l11 54q-61 -67 -162 -67q-76 0 -114 37t-38 101q0 95 70.5 135t191.5 40h101q5 23 5 41q0 36 -17 53t-58 17q-43 0 -65.5 -19t-28.5 -54h-142q15 82 76.5 126.5t161.5 44.5q111 0 160 -44zM320 120.5
q29 29.5 43 95.5h-81q-55 0 -85.5 -15t-30.5 -54q0 -28 17 -42t53 -14q55 0 84 29.5zM377 727h143l-129 -156h-128z" />
    <glyph glyph-name="acircumflex" unicode="&#xe2;" horiz-adv-x="571" 
d="M471 465q49 -44 49 -130q0 -17 -3 -38t-8 -46l-50 -251h-140l11 54q-61 -67 -162 -67q-76 0 -114 37t-38 101q0 95 70.5 135t191.5 40h101q5 23 5 41q0 36 -17 53t-58 17q-43 0 -65.5 -19t-28.5 -54h-142q15 82 76.5 126.5t161.5 44.5q111 0 160 -44zM320 120.5
q29 29.5 43 95.5h-81q-55 0 -85.5 -15t-30.5 -54q0 -28 17 -42t53 -14q55 0 84 29.5zM298 728h158l68 -158h-118l-40 95l-77 -95h-124z" />
    <glyph glyph-name="atilde" unicode="&#xe3;" horiz-adv-x="571" 
d="M471 465q49 -44 49 -130q0 -17 -3 -38t-8 -46l-50 -251h-140l11 54q-61 -67 -162 -67q-76 0 -114 37t-38 101q0 95 70.5 135t191.5 40h101q5 23 5 41q0 36 -17 53t-58 17q-43 0 -65.5 -19t-28.5 -54h-142q15 82 76.5 126.5t161.5 44.5q111 0 160 -44zM320 120.5
q29 29.5 43 95.5h-81q-55 0 -85.5 -15t-30.5 -54q0 -28 17 -42t53 -14q55 0 84 29.5zM350 602q-19 18 -29.5 25.5t-23.5 7.5q-17 0 -28 -15.5t-19 -48.5h-84q17 81 49 120t81 39q23 0 41 -9t35 -26q20 -18 30.5 -25t23.5 -7q18 0 28.5 15.5t19.5 49.5h83
q-17 -82 -48.5 -120.5t-82.5 -38.5q-46 0 -76 33z" />
    <glyph glyph-name="adieresis" unicode="&#xe4;" horiz-adv-x="571" 
d="M471 465q49 -44 49 -130q0 -17 -3 -38t-8 -46l-50 -251h-140l11 54q-61 -67 -162 -67q-76 0 -114 37t-38 101q0 95 70.5 135t191.5 40h101q5 23 5 41q0 36 -17 53t-58 17q-43 0 -65.5 -19t-28.5 -54h-142q15 82 76.5 126.5t161.5 44.5q111 0 160 -44zM320 120.5
q29 29.5 43 95.5h-81q-55 0 -85.5 -15t-30.5 -54q0 -28 17 -42t53 -14q55 0 84 29.5zM207 593.5q-21 20.5 -21 51.5t21 51.5t53 20.5q21 0 38 -9.5t27 -26t10 -36.5t-10 -36.5t-27 -26t-38 -9.5q-32 0 -53 20.5zM411 593.5q-21 20.5 -21 51.5t21 51.5t53 20.5q21 0 38 -9.5
t27 -26t10 -36.5t-10 -36.5t-27 -26t-38 -9.5q-32 0 -53 20.5z" />
    <glyph glyph-name="aring" unicode="&#xe5;" horiz-adv-x="571" 
d="M471 465q49 -44 49 -130q0 -17 -3 -38t-8 -46l-50 -251h-140l11 54q-61 -67 -162 -67q-76 0 -114 37t-38 101q0 95 70.5 135t191.5 40h101q5 23 5 41q0 36 -17 53t-58 17q-43 0 -65.5 -19t-28.5 -54h-142q15 82 76.5 126.5t161.5 44.5q111 0 160 -44zM320 120.5
q29 29.5 43 95.5h-81q-55 0 -85.5 -15t-30.5 -54q0 -28 17 -42t53 -14q55 0 84 29.5zM289 566q-29 15 -45 42t-16 62q0 36 16 63t45 41.5t68 14.5t69 -15t46 -42t16 -62t-16.5 -62t-46 -42t-68.5 -15t-68 15zM396 633.5q14 13.5 14 36.5t-14.5 37t-38.5 14q-23 0 -37 -14
t-14 -37t14 -36.5t37 -13.5q25 0 39 13.5z" />
    <glyph glyph-name="ae" unicode="&#xe6;" horiz-adv-x="876" 
d="M501 216v-9q0 -56 19.5 -85t64.5 -29q65 0 88 60h145q-16 -53 -51 -90t-84 -56t-107 -19q-67 0 -112.5 25t-69.5 72q-34 -47 -86.5 -72.5t-122.5 -25.5q-85 0 -127 37t-42 104q0 93 71 132.5t191 39.5h101q5 23 5 41q0 36 -17 53t-58 17q-43 0 -65.5 -19t-28.5 -54h-142
q15 83 76.5 127t163.5 44q114 0 162 -54q32 26 72.5 40t86.5 14q62 0 108 -24.5t71.5 -73t25.5 -117.5q0 -42 -7 -78h-331zM555 377.5q-28 -29.5 -42 -77.5h191v3q0 50 -19.5 77t-59.5 27q-42 0 -70 -29.5zM320.5 121.5q29.5 30.5 42.5 95.5h-81q-55 0 -85.5 -15t-30.5 -53
q0 -58 72 -58q53 0 82.5 30.5z" />
    <glyph glyph-name="ccedilla" unicode="&#xe7;" horiz-adv-x="560" 
d="M384 309v7q0 37 -19.5 57t-54.5 20q-41 0 -70 -26.5t-44 -69t-15 -89.5q0 -104 83 -104q37 0 62.5 23.5t32.5 60.5h152q-19 -85 -75 -135.5t-140 -61.5l-14 -31q41 -4 64 -27.5t23 -59.5q0 -52 -42 -77.5t-110 -25.5q-60 0 -100 20l26 66q33 -15 72 -15q27 0 43 9t16 26
q0 16 -16 24t-50 8h-44l38 84q-84 13 -125 70t-41 144q0 84 35.5 153.5t100 109.5t147.5 40q65 0 112.5 -21.5t73.5 -62.5t26 -99q0 -11 -1 -17h-146z" />
    <glyph glyph-name="egrave" unicode="&#xe8;" horiz-adv-x="572" 
d="M176 215v-11q0 -53 22.5 -82t72.5 -29q71 0 99 60h145q-17 -52 -53.5 -89t-88 -56.5t-110.5 -19.5q-114 0 -170.5 58.5t-56.5 158.5q0 85 35 154.5t99 109.5t149 40q66 0 114.5 -24.5t75.5 -73t27 -117.5q0 -36 -8 -79h-352zM235.5 378q-30.5 -29 -45.5 -77h210v2
q0 104 -89 104q-45 0 -75.5 -29zM309 571l-79 156h130l65 -156h-116z" />
    <glyph glyph-name="eacute" unicode="&#xe9;" horiz-adv-x="572" 
d="M176 215v-11q0 -53 22.5 -82t72.5 -29q71 0 99 60h145q-17 -52 -53.5 -89t-88 -56.5t-110.5 -19.5q-114 0 -170.5 58.5t-56.5 158.5q0 85 35 154.5t99 109.5t149 40q66 0 114.5 -24.5t75.5 -73t27 -117.5q0 -36 -8 -79h-352zM235.5 378q-30.5 -29 -45.5 -77h210v2
q0 104 -89 104q-45 0 -75.5 -29zM371 727h143l-129 -156h-128z" />
    <glyph glyph-name="ecircumflex" unicode="&#xea;" horiz-adv-x="572" 
d="M176 215v-11q0 -53 22.5 -82t72.5 -29q71 0 99 60h145q-17 -52 -53.5 -89t-88 -56.5t-110.5 -19.5q-114 0 -170.5 58.5t-56.5 158.5q0 85 35 154.5t99 109.5t149 40q66 0 114.5 -24.5t75.5 -73t27 -117.5q0 -36 -8 -79h-352zM235.5 378q-30.5 -29 -45.5 -77h210v2
q0 104 -89 104q-45 0 -75.5 -29zM292 728h158l68 -158h-118l-40 95l-77 -95h-124z" />
    <glyph glyph-name="edieresis" unicode="&#xeb;" horiz-adv-x="572" 
d="M176 215v-11q0 -53 22.5 -82t72.5 -29q71 0 99 60h145q-17 -52 -53.5 -89t-88 -56.5t-110.5 -19.5q-114 0 -170.5 58.5t-56.5 158.5q0 85 35 154.5t99 109.5t149 40q66 0 114.5 -24.5t75.5 -73t27 -117.5q0 -36 -8 -79h-352zM235.5 378q-30.5 -29 -45.5 -77h210v2
q0 104 -89 104q-45 0 -75.5 -29zM201 593.5q-21 20.5 -21 51.5t21 51.5t53 20.5q21 0 38 -9.5t27 -26t10 -36.5t-10 -36.5t-27 -26t-38 -9.5q-32 0 -53 20.5zM405 593.5q-21 20.5 -21 51.5t21 51.5t53 20.5q21 0 38 -9.5t27 -26t10 -36.5t-10 -36.5t-27 -26t-38 -9.5
q-32 0 -53 20.5z" />
    <glyph glyph-name="igrave" unicode="&#xec;" horiz-adv-x="271" 
d="M116 496h138l-99 -496h-138zM168 571l-68 156h127l50 -156h-109z" />
    <glyph glyph-name="iacute" unicode="&#xed;" horiz-adv-x="271" 
d="M116 496h138l-99 -496h-138zM218 727h144l-113 -156h-126z" />
    <glyph glyph-name="icircumflex" unicode="&#xee;" horiz-adv-x="271" 
d="M116 496h138l-99 -496h-138zM164 728h134l45 -158h-98l-24 92l-63 -92h-104z" />
    <glyph glyph-name="idieresis" unicode="&#xef;" horiz-adv-x="271" 
d="M116 496h138l-99 -496h-138zM93 595q-16 17 -16 46q0 33 18 52.5t48 19.5q27 0 43 -17.5t16 -46.5q0 -32 -18 -51.5t-48 -19.5q-27 0 -43 17zM242 595q-16 17 -16 46q0 33 18 52.5t48 19.5q27 0 43 -17.5t16 -46.5q0 -32 -18 -51.5t-48 -19.5q-27 0 -43 17z" />
    <glyph glyph-name="eth" unicode="&#xf0;" horiz-adv-x="583" 
d="M567 617l-84 -26q33 -71 49.5 -139t16.5 -139q0 -100 -32.5 -173t-97.5 -112.5t-159 -39.5q-116 0 -171.5 55t-55.5 155q0 72 32 134.5t89 100t128 37.5q84 0 128 -50q-17 68 -51 133l-220 -67l18 86l164 51q-24 41 -51 81v2h152l25 -44l137 42zM338 123.5
q30 22.5 45 59.5t15 81q0 49 -20 75.5t-67 26.5q-42 0 -72 -22.5t-45 -59.5t-15 -81q0 -48 20 -75t67 -27q42 0 72 22.5z" />
    <glyph glyph-name="ntilde" unicode="&#xf1;" horiz-adv-x="583" 
d="M498 470q37 -39 37 -111q0 -34 -6 -69l-59 -290h-137l54 270q5 27 5 49q0 38 -18.5 56t-54.5 18q-41 0 -68 -24.5t-37 -73.5l-59 -295h-138l99 496h138l-10 -52q28 33 64 49t81 16q72 0 109 -39zM373 602q-19 18 -29.5 25.5t-23.5 7.5q-17 0 -28 -15.5t-19 -48.5h-84
q17 81 49 120t81 39q23 0 41 -9t35 -26q20 -18 30.5 -25t23.5 -7q18 0 28.5 15.5t19.5 49.5h83q-17 -82 -48.5 -120.5t-82.5 -38.5q-46 0 -76 33z" />
    <glyph glyph-name="ograve" unicode="&#xf2;" horiz-adv-x="578" 
d="M132 16q-49 29 -72 78.5t-23 111.5q0 87 34.5 156t99.5 108t153 39q74 0 123 -29t72 -78t23 -110q0 -88 -34.5 -157t-99.5 -108.5t-154 -39.5q-73 0 -122 29zM340.5 130q29.5 26 44 68.5t14.5 90.5q0 104 -89 104q-42 0 -72 -26t-44.5 -68t-14.5 -88q0 -51 21 -79t67 -28
q44 0 73.5 26zM322 571l-79 156h130l65 -156h-116z" />
    <glyph glyph-name="oacute" unicode="&#xf3;" horiz-adv-x="578" 
d="M132 16q-49 29 -72 78.5t-23 111.5q0 87 34.5 156t99.5 108t153 39q74 0 123 -29t72 -78t23 -110q0 -88 -34.5 -157t-99.5 -108.5t-154 -39.5q-73 0 -122 29zM340.5 130q29.5 26 44 68.5t14.5 90.5q0 104 -89 104q-42 0 -72 -26t-44.5 -68t-14.5 -88q0 -51 21 -79t67 -28
q44 0 73.5 26zM384 727h143l-129 -156h-128z" />
    <glyph glyph-name="ocircumflex" unicode="&#xf4;" horiz-adv-x="578" 
d="M132 16q-49 29 -72 78.5t-23 111.5q0 87 34.5 156t99.5 108t153 39q74 0 123 -29t72 -78t23 -110q0 -88 -34.5 -157t-99.5 -108.5t-154 -39.5q-73 0 -122 29zM340.5 130q29.5 26 44 68.5t14.5 90.5q0 104 -89 104q-42 0 -72 -26t-44.5 -68t-14.5 -88q0 -51 21 -79t67 -28
q44 0 73.5 26zM305 728h158l68 -158h-118l-40 95l-77 -95h-124z" />
    <glyph glyph-name="otilde" unicode="&#xf5;" horiz-adv-x="578" 
d="M132 16q-49 29 -72 78.5t-23 111.5q0 87 34.5 156t99.5 108t153 39q74 0 123 -29t72 -78t23 -110q0 -88 -34.5 -157t-99.5 -108.5t-154 -39.5q-73 0 -122 29zM340.5 130q29.5 26 44 68.5t14.5 90.5q0 104 -89 104q-42 0 -72 -26t-44.5 -68t-14.5 -88q0 -51 21 -79t67 -28
q44 0 73.5 26zM357 602q-19 18 -29.5 25.5t-23.5 7.5q-17 0 -28 -15.5t-19 -48.5h-84q17 81 49 120t81 39q23 0 41 -9t35 -26q20 -18 30.5 -25t23.5 -7q18 0 28.5 15.5t19.5 49.5h83q-17 -82 -48.5 -120.5t-82.5 -38.5q-46 0 -76 33z" />
    <glyph glyph-name="odieresis" unicode="&#xf6;" horiz-adv-x="578" 
d="M132 16q-49 29 -72 78.5t-23 111.5q0 87 34.5 156t99.5 108t153 39q74 0 123 -29t72 -78t23 -110q0 -88 -34.5 -157t-99.5 -108.5t-154 -39.5q-73 0 -122 29zM340.5 130q29.5 26 44 68.5t14.5 90.5q0 104 -89 104q-42 0 -72 -26t-44.5 -68t-14.5 -88q0 -51 21 -79t67 -28
q44 0 73.5 26zM213 593.5q-21 20.5 -21 51.5t21 51.5t53 20.5q21 0 38 -9.5t27 -26t10 -36.5t-10 -36.5t-27 -26t-38 -9.5q-32 0 -53 20.5zM417 593.5q-21 20.5 -21 51.5t21 51.5t53 20.5q21 0 38 -9.5t27 -26t10 -36.5t-10 -36.5t-27 -26t-38 -9.5q-32 0 -53 20.5z" />
    <glyph glyph-name="divide" unicode="&#xf7;" horiz-adv-x="589" 
d="M293 437.5q-19 18.5 -19 48.5t19 48t50 18q28 0 47 -18.5t19 -47.5q0 -30 -19 -48.5t-47 -18.5q-31 0 -50 18.5zM75 346h478l-22 -109h-478zM215.5 49.5q-18.5 18.5 -18.5 47.5q0 31 18.5 48.5t49.5 17.5q29 0 47.5 -18t18.5 -48q0 -29 -18.5 -47.5t-47.5 -18.5
q-31 0 -49.5 18.5z" />
    <glyph glyph-name="oslash" unicode="&#xf8;" horiz-adv-x="578" 
d="M510 418q32 -52 32 -126q0 -88 -34.5 -157t-99.5 -108.5t-154 -39.5q-93 0 -149 48l-37 -35h-88l88 80q-31 53 -31 126q0 87 34.5 156t99.5 108t153 39q92 0 148 -46l36 33h88zM238 367q-30 -26 -44.5 -68t-14.5 -88q0 -10 2 -28l194 186q-22 24 -65 24q-42 0 -72 -26z
M340.5 130q29.5 26 44 68.5t14.5 90.5q0 11 -2 27l-195 -187q23 -25 65 -25q44 0 73.5 26z" />
    <glyph glyph-name="ugrave" unicode="&#xf9;" horiz-adv-x="583" 
d="M566 496l-100 -496h-137l11 53q-30 -34 -66 -50t-80 -16q-72 0 -109 39t-37 111q0 35 6 69l58 290h138l-54 -270q-5 -27 -5 -49q0 -38 18.5 -56t54.5 -18q41 0 68 24.5t37 73.5l59 295h138zM314 571l-79 156h130l65 -156h-116z" />
    <glyph glyph-name="uacute" unicode="&#xfa;" horiz-adv-x="583" 
d="M566 496l-100 -496h-137l11 53q-30 -34 -66 -50t-80 -16q-72 0 -109 39t-37 111q0 35 6 69l58 290h138l-54 -270q-5 -27 -5 -49q0 -38 18.5 -56t54.5 -18q41 0 68 24.5t37 73.5l59 295h138zM377 727h143l-129 -156h-128z" />
    <glyph glyph-name="ucircumflex" unicode="&#xfb;" horiz-adv-x="583" 
d="M566 496l-100 -496h-137l11 53q-30 -34 -66 -50t-80 -16q-72 0 -109 39t-37 111q0 35 6 69l58 290h138l-54 -270q-5 -27 -5 -49q0 -38 18.5 -56t54.5 -18q41 0 68 24.5t37 73.5l59 295h138zM297 728h158l68 -158h-118l-40 95l-77 -95h-124z" />
    <glyph glyph-name="udieresis" unicode="&#xfc;" horiz-adv-x="583" 
d="M566 496l-100 -496h-137l11 53q-30 -34 -66 -50t-80 -16q-72 0 -109 39t-37 111q0 35 6 69l58 290h138l-54 -270q-5 -27 -5 -49q0 -38 18.5 -56t54.5 -18q41 0 68 24.5t37 73.5l59 295h138zM206 593.5q-21 20.5 -21 51.5t21 51.5t53 20.5q21 0 38 -9.5t27 -26t10 -36.5
t-10 -36.5t-27 -26t-38 -9.5q-32 0 -53 20.5zM410 593.5q-21 20.5 -21 51.5t21 51.5t53 20.5q21 0 38 -9.5t27 -26t10 -36.5t-10 -36.5t-27 -26t-38 -9.5q-32 0 -53 20.5z" />
    <glyph glyph-name="yacute" unicode="&#xfd;" horiz-adv-x="546" 
d="M582 496l-413 -696h-148l120 201l-79 495h139l44 -339l182 339h155zM355 727h143l-129 -156h-128z" />
    <glyph glyph-name="thorn" unicode="&#xfe;" horiz-adv-x="598" 
d="M520.5 450q42.5 -59 42.5 -158q0 -80 -31.5 -150t-89 -112t-131.5 -42q-54 0 -89.5 20t-52.5 62l-54 -270h-138l181 906h138l-51 -256q30 30 65.5 44.5t78.5 14.5q89 0 131.5 -59zM357 128.5q30 24.5 45 65t15 88.5q0 111 -87 111q-47 0 -78 -29.5t-42 -84.5
q-7 -31 -10 -51t-3 -31q0 -45 22 -69t65 -24t73 24.5z" />
    <glyph glyph-name="ydieresis" unicode="&#xff;" horiz-adv-x="546" 
d="M582 496l-413 -696h-148l120 201l-79 495h139l44 -339l182 339h155zM184 593.5q-21 20.5 -21 51.5t21 51.5t53 20.5q21 0 38 -9.5t27 -26t10 -36.5t-10 -36.5t-27 -26t-38 -9.5q-32 0 -53 20.5zM388 593.5q-21 20.5 -21 51.5t21 51.5t53 20.5q21 0 38 -9.5t27 -26
t10 -36.5t-10 -36.5t-27 -26t-38 -9.5q-32 0 -53 20.5z" />
    <glyph glyph-name="Amacron" unicode="&#x100;" horiz-adv-x="680" 
d="M462 148h-275l-74 -148h-157l365 706h221l83 -706h-148zM450 261l-34 337h-2l-170 -337h206zM313 888h308l-17 -90h-309z" />
    <glyph glyph-name="amacron" unicode="&#x101;" horiz-adv-x="571" 
d="M471 465q49 -44 49 -130q0 -17 -3 -38t-8 -46l-50 -251h-140l11 54q-61 -67 -162 -67q-76 0 -114 37t-38 101q0 95 70.5 135t191.5 40h101q5 23 5 41q0 36 -17 53t-58 17q-43 0 -65.5 -19t-28.5 -54h-142q15 82 76.5 126.5t161.5 44.5q111 0 160 -44zM320 120.5
q29 29.5 43 95.5h-81q-55 0 -85.5 -15t-30.5 -54q0 -28 17 -42t53 -14q55 0 84 29.5zM221 688h299l-18 -89h-299z" />
    <glyph glyph-name="Abreve" unicode="&#x102;" horiz-adv-x="680" 
d="M462 148h-275l-74 -148h-157l365 706h221l83 -706h-148zM450 261l-34 337h-2l-170 -337h206zM337 796q-36 29 -36 86q0 9 2 29h89v-12q0 -29 15 -42t45 -13q35 0 56 15.5t35 51.5h98q-18 -71 -68 -107.5t-129 -36.5q-71 0 -107 29z" />
    <glyph glyph-name="abreve" unicode="&#x103;" horiz-adv-x="571" 
d="M471 465q49 -44 49 -130q0 -17 -3 -38t-8 -46l-50 -251h-140l11 54q-61 -67 -162 -67q-76 0 -114 37t-38 101q0 95 70.5 135t191.5 40h101q5 23 5 41q0 36 -17 53t-58 17q-43 0 -65.5 -19t-28.5 -54h-142q15 82 76.5 126.5t161.5 44.5q111 0 160 -44zM320 120.5
q29 29.5 43 95.5h-81q-55 0 -85.5 -15t-30.5 -54q0 -28 17 -42t53 -14q55 0 84 29.5zM203 702q0 16 1 26h97q-2 -9 -2 -25q0 -31 14.5 -46t44.5 -15q36 0 57.5 20t35.5 66h101q-38 -164 -197 -164q-152 0 -152 138z" />
    <glyph glyph-name="Aogonek" unicode="&#x104;" horiz-adv-x="680" 
d="M539 -123q11 -8 28 -8q22 0 36 5l-16 -79q-28 -8 -65 -8q-50 0 -79 21.5t-29 62.5q0 42 29 72.5t79 56.5h-45l-15 148h-275l-74 -148h-157l365 706h221l83 -706q-30 -19 -49.5 -33t-33.5 -31.5t-14 -35.5q0 -15 11 -23zM450 261l-34 337h-2l-170 -337h206z" />
    <glyph glyph-name="aogonek" unicode="&#x105;" horiz-adv-x="572" 
d="M471 465q49 -44 49 -130q0 -17 -3 -38t-8 -46l-50 -251q-45 -28 -70.5 -51t-25.5 -49q0 -15 10.5 -23t27.5 -8q22 0 37 5l-16 -79q-28 -8 -66 -8q-50 0 -79 21.5t-29 62.5t29 72t79 57h-37l11 54q-61 -67 -162 -67q-76 0 -114 37t-38 101q0 95 70.5 135t191.5 40h101
q5 23 5 41q0 36 -17 53t-58 17q-43 0 -65.5 -19t-28.5 -54h-142q15 82 76.5 126.5t161.5 44.5q111 0 160 -44zM320 120.5q29 29.5 43 95.5h-81q-55 0 -85.5 -15t-30.5 -54q0 -28 17 -42t53 -14q55 0 84 29.5z" />
    <glyph glyph-name="Cacute" unicode="&#x106;" horiz-adv-x="715" 
d="M130.5 61.5q-68.5 78.5 -68.5 213.5q0 123 47 225.5t134 162.5t202 60q82 0 142.5 -30.5t92.5 -86.5t32 -131q0 -14 -3 -34h-148l1 17q0 66 -34.5 103t-97.5 37q-69 0 -118 -45t-74 -118t-25 -156q0 -79 35 -124.5t105 -45.5q128 0 164 140h159q-16 -81 -62.5 -141
t-115 -92.5t-151.5 -32.5q-148 0 -216.5 78.5zM507 911h152l-132 -137h-139z" />
    <glyph glyph-name="cacute" unicode="&#x107;" horiz-adv-x="560" 
d="M130 16q-48 28 -71 76.5t-23 113.5q0 84 35.5 153.5t100 109.5t147.5 40q65 0 112.5 -21.5t73.5 -62.5t26 -99q0 -11 -1 -17h-146v7q0 37 -19.5 57t-54.5 20q-41 0 -70 -26.5t-44 -69t-15 -89.5q0 -104 83 -104q37 0 62.5 23.5t32.5 60.5h152q-14 -64 -50 -109t-89.5 -68
t-119.5 -23q-74 0 -122 28zM376 727h143l-129 -156h-128z" />
    <glyph glyph-name="Ccircumflex" unicode="&#x108;" horiz-adv-x="715" 
d="M130.5 61.5q-68.5 78.5 -68.5 213.5q0 123 47 225.5t134 162.5t202 60q82 0 142.5 -30.5t92.5 -86.5t32 -131q0 -14 -3 -34h-148l1 17q0 66 -34.5 103t-97.5 37q-69 0 -118 -45t-74 -118t-25 -156q0 -79 35 -124.5t105 -45.5q128 0 164 140h159q-16 -81 -62.5 -141
t-115 -92.5t-151.5 -32.5q-148 0 -216.5 78.5zM426 911h159l79 -137h-120l-45 75l-76 -75h-132z" />
    <glyph glyph-name="ccircumflex" unicode="&#x109;" horiz-adv-x="560" 
d="M130 16q-48 28 -71 76.5t-23 113.5q0 84 35.5 153.5t100 109.5t147.5 40q65 0 112.5 -21.5t73.5 -62.5t26 -99q0 -11 -1 -17h-146v7q0 37 -19.5 57t-54.5 20q-41 0 -70 -26.5t-44 -69t-15 -89.5q0 -104 83 -104q37 0 62.5 23.5t32.5 60.5h152q-14 -64 -50 -109t-89.5 -68
t-119.5 -23q-74 0 -122 28zM297 728h158l68 -158h-118l-40 95l-77 -95h-124z" />
    <glyph glyph-name="Cdotaccent" unicode="&#x10a;" horiz-adv-x="715" 
d="M130.5 61.5q-68.5 78.5 -68.5 213.5q0 123 47 225.5t134 162.5t202 60q82 0 142.5 -30.5t92.5 -86.5t32 -131q0 -14 -3 -34h-148l1 17q0 66 -34.5 103t-97.5 37q-69 0 -118 -45t-74 -118t-25 -156q0 -79 35 -124.5t105 -45.5q128 0 164 140h159q-16 -81 -62.5 -141
t-115 -92.5t-151.5 -32.5q-148 0 -216.5 78.5zM438.5 797.5q-21.5 20.5 -21.5 52.5t21.5 52.5t54.5 20.5t54.5 -20.5t21.5 -52.5t-21.5 -52.5t-54.5 -20.5t-54.5 20.5z" />
    <glyph glyph-name="cdotaccent" unicode="&#x10b;" horiz-adv-x="560" 
d="M130 16q-48 28 -71 76.5t-23 113.5q0 84 35.5 153.5t100 109.5t147.5 40q65 0 112.5 -21.5t73.5 -62.5t26 -99q0 -11 -1 -17h-146v7q0 37 -19.5 57t-54.5 20q-41 0 -70 -26.5t-44 -69t-15 -89.5q0 -104 83 -104q37 0 62.5 23.5t32.5 60.5h152q-14 -64 -50 -109t-89.5 -68
t-119.5 -23q-74 0 -122 28zM321 586.5q-18 9.5 -28 26.5t-10 38q0 33 22 54.5t56 21.5q22 0 39.5 -10t28 -27t10.5 -39q0 -21 -10.5 -38t-28 -26.5t-39.5 -9.5t-40 9.5z" />
    <glyph glyph-name="Ccaron" unicode="&#x10c;" horiz-adv-x="715" 
d="M130.5 61.5q-68.5 78.5 -68.5 213.5q0 123 47 225.5t134 162.5t202 60q82 0 142.5 -30.5t92.5 -86.5t32 -131q0 -14 -3 -34h-148l1 17q0 66 -34.5 103t-97.5 37q-69 0 -118 -45t-74 -118t-25 -156q0 -79 35 -124.5t105 -45.5q128 0 164 140h159q-16 -81 -62.5 -141
t-115 -92.5t-151.5 -32.5q-148 0 -216.5 78.5zM556 774h-158l-79 137h120l45 -75l76 75h132z" />
    <glyph glyph-name="ccaron" unicode="&#x10d;" horiz-adv-x="560" 
d="M130 16q-48 28 -71 76.5t-23 113.5q0 84 35.5 153.5t100 109.5t147.5 40q65 0 112.5 -21.5t73.5 -62.5t26 -99q0 -11 -1 -17h-146v7q0 37 -19.5 57t-54.5 20q-41 0 -70 -26.5t-44 -69t-15 -89.5q0 -104 83 -104q37 0 62.5 23.5t32.5 60.5h152q-14 -64 -50 -109t-89.5 -68
t-119.5 -23q-74 0 -122 28zM426 570h-157l-69 157h118l41 -94l76 94h124z" />
    <glyph glyph-name="Dcaron" unicode="&#x10e;" horiz-adv-x="713" 
d="M172 706h205q165 0 240 -76.5t75 -211.5q0 -121 -47.5 -216t-135.5 -148.5t-207 -53.5h-271zM284 120q83 0 140.5 37t86 101.5t28.5 147.5q0 87 -38.5 133.5t-129.5 46.5h-76l-94 -466h83zM531 774h-158l-79 137h120l45 -75l76 75h132z" />
    <glyph glyph-name="dcaron" unicode="&#x10f;" horiz-adv-x="700" 
d="M623 706l-141 -706h-135l10 50q-59 -63 -148 -63t-131 58.5t-42 157.5q0 80 31 150t88.5 112.5t131.5 42.5q108 0 142 -81l56 279h138zM347 132.5q31 29.5 42 84.5q6 31 9 51t3 31q0 46 -21.5 69.5t-64.5 23.5q-44 0 -74 -24.5t-45 -65t-15 -88.5q0 -111 87 -111
q48 0 79 29.5zM695 706h117l-73 -171h-102z" />
    <glyph glyph-name="Dcroat" unicode="&#x110;" horiz-adv-x="713" 
d="M617 629.5q75 -76.5 75 -211.5q0 -121 -47.5 -216t-135.5 -148.5t-207 -53.5h-271l62 311h-56l19 94h56l60 301h205q165 0 240 -76.5zM424.5 157q57.5 37 86 101.5t28.5 147.5q0 87 -38.5 133.5t-129.5 46.5h-76l-37 -181h151l-18 -94h-151l-39 -191h83q83 0 140.5 37z
" />
    <glyph glyph-name="dcroat" unicode="&#x111;" horiz-adv-x="598" 
d="M645 565h-50l-113 -565h-135l10 50q-59 -63 -148 -63t-131 58.5t-42 157.5q0 80 31 150t88.5 112.5t131.5 42.5q108 0 142 -81l28 138h-163l16 82h163l12 59h138l-12 -59h51zM347 132.5q31 29.5 42 84.5q6 31 9 51t3 31q0 46 -21.5 69.5t-64.5 23.5q-44 0 -74 -24.5
t-45 -65t-15 -88.5q0 -111 87 -111q48 0 79 29.5z" />
    <glyph glyph-name="Emacron" unicode="&#x112;" horiz-adv-x="563" 
d="M172 706h429l-23 -120h-283l-34 -167h279l-23 -120h-280l-36 -179h283l-24 -120h-429zM261 888h308l-17 -90h-309z" />
    <glyph glyph-name="emacron" unicode="&#x113;" horiz-adv-x="572" 
d="M176 215v-11q0 -53 22.5 -82t72.5 -29q71 0 99 60h145q-17 -52 -53.5 -89t-88 -56.5t-110.5 -19.5q-114 0 -170.5 58.5t-56.5 158.5q0 85 35 154.5t99 109.5t149 40q66 0 114.5 -24.5t75.5 -73t27 -117.5q0 -36 -8 -79h-352zM235.5 378q-30.5 -29 -45.5 -77h210v2
q0 104 -89 104q-45 0 -75.5 -29zM215 688h299l-18 -89h-299z" />
    <glyph glyph-name="Ebreve" unicode="&#x114;" horiz-adv-x="563" 
d="M172 706h429l-23 -120h-283l-34 -167h279l-23 -120h-280l-36 -179h283l-24 -120h-429zM285 796q-36 29 -36 86q0 9 2 29h89v-12q0 -29 15 -42t45 -13q35 0 56 15.5t35 51.5h98q-18 -71 -68 -107.5t-129 -36.5q-71 0 -107 29z" />
    <glyph glyph-name="ebreve" unicode="&#x115;" horiz-adv-x="572" 
d="M176 215v-11q0 -53 22.5 -82t72.5 -29q71 0 99 60h145q-17 -52 -53.5 -89t-88 -56.5t-110.5 -19.5q-114 0 -170.5 58.5t-56.5 158.5q0 85 35 154.5t99 109.5t149 40q66 0 114.5 -24.5t75.5 -73t27 -117.5q0 -36 -8 -79h-352zM235.5 378q-30.5 -29 -45.5 -77h210v2
q0 104 -89 104q-45 0 -75.5 -29zM197 702q0 16 1 26h97q-2 -9 -2 -25q0 -31 14.5 -46t44.5 -15q36 0 57.5 20t35.5 66h101q-38 -164 -197 -164q-152 0 -152 138z" />
    <glyph glyph-name="Edotaccent" unicode="&#x116;" horiz-adv-x="563" 
d="M172 706h429l-23 -120h-283l-34 -167h279l-23 -120h-280l-36 -179h283l-24 -120h-429zM353.5 797.5q-21.5 20.5 -21.5 52.5t21.5 52.5t54.5 20.5t54.5 -20.5t21.5 -52.5t-21.5 -52.5t-54.5 -20.5t-54.5 20.5z" />
    <glyph glyph-name="edotaccent" unicode="&#x117;" horiz-adv-x="572" 
d="M176 215v-11q0 -53 22.5 -82t72.5 -29q71 0 99 60h145q-17 -52 -53.5 -89t-88 -56.5t-110.5 -19.5q-114 0 -170.5 58.5t-56.5 158.5q0 85 35 154.5t99 109.5t149 40q66 0 114.5 -24.5t75.5 -73t27 -117.5q0 -36 -8 -79h-352zM235.5 378q-30.5 -29 -45.5 -77h210v2
q0 104 -89 104q-45 0 -75.5 -29zM316 586.5q-18 9.5 -28 26.5t-10 38q0 33 22 54.5t56 21.5q22 0 39.5 -10t28 -27t10.5 -39q0 -21 -10.5 -38t-28 -26.5t-39.5 -9.5t-40 9.5z" />
    <glyph glyph-name="Eogonek" unicode="&#x118;" horiz-adv-x="563" 
d="M295 586l-34 -167h279l-23 -120h-280l-36 -179h283l-24 -120q-45 -28 -70.5 -51t-25.5 -49q0 -15 10.5 -23t27.5 -8q22 0 37 5l-16 -79q-29 -8 -66 -8q-50 0 -79 21.5t-29 62.5t29 72t79 57h-326l141 706h429l-23 -120h-283z" />
    <glyph glyph-name="eogonek" unicode="&#x119;" horiz-adv-x="572" 
d="M176 215v-11q0 -111 95 -111q36 0 60.5 15.5t37.5 44.5h146q-16 -48 -47.5 -85.5t-74.5 -63.5q-42 -26 -69 -52t-27 -52q0 -15 10.5 -23t27.5 -8q22 0 37 5l-17 -79q-28 -8 -65 -8q-50 0 -79 21.5t-29 62.5q0 67 86 117h-5q-76 0 -127 27t-75.5 75.5t-24.5 114.5
q0 85 35 154.5t99 109.5t149 40q65 0 114 -24.5t76 -73t27 -117.5q0 -36 -8 -79h-352zM235.5 378q-30.5 -29 -45.5 -77h210v2q0 51 -22 77.5t-67 26.5t-75.5 -29z" />
    <glyph glyph-name="Ecaron" unicode="&#x11a;" horiz-adv-x="563" 
d="M172 706h429l-23 -120h-283l-34 -167h279l-23 -120h-280l-36 -179h283l-24 -120h-429zM471 774h-158l-79 137h120l45 -75l76 75h132z" />
    <glyph glyph-name="ecaron" unicode="&#x11b;" horiz-adv-x="572" 
d="M176 215v-11q0 -53 22.5 -82t72.5 -29q71 0 99 60h145q-17 -52 -53.5 -89t-88 -56.5t-110.5 -19.5q-114 0 -170.5 58.5t-56.5 158.5q0 85 35 154.5t99 109.5t149 40q66 0 114.5 -24.5t75.5 -73t27 -117.5q0 -36 -8 -79h-352zM235.5 378q-30.5 -29 -45.5 -77h210v2
q0 104 -89 104q-45 0 -75.5 -29zM421 570h-157l-69 157h118l41 -94l76 94h124z" />
    <glyph glyph-name="Gcircumflex" unicode="&#x11c;" horiz-adv-x="720" 
d="M315 553q-51 -45 -76.5 -117.5t-25.5 -155.5q0 -81 34 -126.5t108 -45.5q77 0 121 44t60 119h-154l21 110h299l-16 -81q-18 -90 -59.5 -161t-112.5 -113.5t-172 -42.5q-92 0 -154.5 35.5t-94 101.5t-31.5 157q0 122 46 224t133 162t205 60q85 0 145.5 -31t91 -89
t28.5 -139h-146q0 67 -33 100.5t-94 33.5q-72 0 -123 -45zM417 911h159l79 -137h-120l-45 75l-76 -75h-132z" />
    <glyph glyph-name="gcircumflex" unicode="&#x11d;" horiz-adv-x="597" 
d="M579 496l-100 -503q-41 -207 -265 -207q-105 0 -163.5 40.5t-53.5 117.5h143q1 -26 22 -40t57 -14q55 0 83.5 32t38.5 83l8 43q-56 -55 -141 -55q-60 0 -98.5 27t-56.5 71.5t-18 99.5q0 88 31 160.5t88 114.5t132 42q55 0 91 -21.5t53 -66.5l15 76h134zM268 109
q47 0 78 28.5t42 80.5q6 32 9 50.5t3 30.5q0 45 -22 69t-65 24t-73 -24t-45 -63t-15 -85q0 -111 88 -111zM302 728h158l68 -158h-118l-40 95l-77 -95h-124z" />
    <glyph glyph-name="Gbreve" unicode="&#x11e;" horiz-adv-x="720" 
d="M315 553q-51 -45 -76.5 -117.5t-25.5 -155.5q0 -81 34 -126.5t108 -45.5q77 0 121 44t60 119h-154l21 110h299l-16 -81q-18 -90 -59.5 -161t-112.5 -113.5t-172 -42.5q-92 0 -154.5 35.5t-94 101.5t-31.5 157q0 122 46 224t133 162t205 60q85 0 145.5 -31t91 -89
t28.5 -139h-146q0 67 -33 100.5t-94 33.5q-72 0 -123 -45zM361 796q-36 29 -36 86q0 9 2 29h89v-12q0 -29 15 -42t45 -13q35 0 56 15.5t35 51.5h98q-18 -71 -68 -107.5t-129 -36.5q-71 0 -107 29z" />
    <glyph glyph-name="gbreve" unicode="&#x11f;" horiz-adv-x="597" 
d="M579 496l-100 -503q-41 -207 -265 -207q-105 0 -163.5 40.5t-53.5 117.5h143q1 -26 22 -40t57 -14q55 0 83.5 32t38.5 83l8 43q-56 -55 -141 -55q-60 0 -98.5 27t-56.5 71.5t-18 99.5q0 88 31 160.5t88 114.5t132 42q55 0 91 -21.5t53 -66.5l15 76h134zM268 109
q47 0 78 28.5t42 80.5q6 32 9 50.5t3 30.5q0 45 -22 69t-65 24t-73 -24t-45 -63t-15 -85q0 -111 88 -111zM207 702q0 16 1 26h97q-2 -9 -2 -25q0 -31 14.5 -46t44.5 -15q36 0 57.5 20t35.5 66h101q-38 -164 -197 -164q-152 0 -152 138z" />
    <glyph glyph-name="Gdotaccent" unicode="&#x120;" horiz-adv-x="720" 
d="M315 553q-51 -45 -76.5 -117.5t-25.5 -155.5q0 -81 34 -126.5t108 -45.5q77 0 121 44t60 119h-154l21 110h299l-16 -81q-18 -90 -59.5 -161t-112.5 -113.5t-172 -42.5q-92 0 -154.5 35.5t-94 101.5t-31.5 157q0 122 46 224t133 162t205 60q85 0 145.5 -31t91 -89
t28.5 -139h-146q0 67 -33 100.5t-94 33.5q-72 0 -123 -45zM429.5 797.5q-21.5 20.5 -21.5 52.5t21.5 52.5t54.5 20.5t54.5 -20.5t21.5 -52.5t-21.5 -52.5t-54.5 -20.5t-54.5 20.5z" />
    <glyph glyph-name="gdotaccent" unicode="&#x121;" horiz-adv-x="597" 
d="M579 496l-100 -503q-41 -207 -265 -207q-105 0 -163.5 40.5t-53.5 117.5h143q1 -26 22 -40t57 -14q55 0 83.5 32t38.5 83l8 43q-56 -55 -141 -55q-60 0 -98.5 27t-56.5 71.5t-18 99.5q0 88 31 160.5t88 114.5t132 42q55 0 91 -21.5t53 -66.5l15 76h134zM268 109
q47 0 78 28.5t42 80.5q6 32 9 50.5t3 30.5q0 45 -22 69t-65 24t-73 -24t-45 -63t-15 -85q0 -111 88 -111zM326 586.5q-18 9.5 -28 26.5t-10 38q0 33 22 54.5t56 21.5q22 0 39.5 -10t28 -27t10.5 -39q0 -21 -10.5 -38t-28 -26.5t-39.5 -9.5t-40 9.5z" />
    <glyph glyph-name="Gcommaaccent" unicode="&#x122;" horiz-adv-x="720" 
d="M315 553q-51 -45 -76.5 -117.5t-25.5 -155.5q0 -81 34 -126.5t108 -45.5q77 0 121 44t60 119h-154l21 110h299l-16 -81q-18 -90 -59.5 -161t-112.5 -113.5t-172 -42.5q-92 0 -154.5 35.5t-94 101.5t-31.5 157q0 122 46 224t133 162t205 60q85 0 145.5 -31t91 -89
t28.5 -139h-146q0 67 -33 100.5t-94 33.5q-72 0 -123 -45zM244 -52h141l-82 -148h-126z" />
    <glyph glyph-name="gcommaaccent" unicode="&#x123;" horiz-adv-x="597" 
d="M579 496l-100 -503q-41 -207 -265 -207q-105 0 -163.5 40.5t-53.5 117.5h143q1 -26 22 -40t57 -14q55 0 83.5 32t38.5 83l8 43q-56 -55 -141 -55q-60 0 -98.5 27t-56.5 71.5t-18 99.5q0 88 31 160.5t88 114.5t132 42q55 0 91 -21.5t53 -66.5l15 76h134zM268 109
q47 0 78 28.5t42 80.5q6 32 9 50.5t3 30.5q0 45 -22 69t-65 24t-73 -24t-45 -63t-15 -85q0 -111 88 -111zM396 571h-141l81 147h126z" />
    <glyph glyph-name="Hcircumflex" unicode="&#x124;" horiz-adv-x="721" 
d="M172 706h146l-57 -287h268l57 287h146l-141 -706h-146l59 296h-268l-59 -296h-146zM413 911h159l79 -137h-120l-45 75l-76 -75h-132z" />
    <glyph glyph-name="hcircumflex" unicode="&#x125;" horiz-adv-x="583" 
d="M497 469q38 -40 38 -118q0 -28 -6 -61l-59 -290h-137l54 271q5 28 5 46q0 39 -18 57.5t-54 18.5q-42 0 -69 -24.5t-37 -73.5l-59 -295h-138l141 706h138l-53 -263q58 66 143 66q73 0 111 -40zM347 911h159l79 -137h-120l-45 75l-76 -75h-132z" />
    <glyph glyph-name="Hbar" unicode="&#x126;" horiz-adv-x="721" 
d="M732 706l-141 -706h-146l59 296h-268l-59 -296h-146l141 706h146l-20 -101h268l20 101h146zM529 419l20 101h-268l-20 -101h268z" />
    <glyph glyph-name="hbar" unicode="&#x127;" horiz-adv-x="583" 
d="M497 469q38 -40 38 -118q0 -28 -6 -61l-59 -290h-137l54 271q5 28 5 46q0 39 -18 57.5t-54 18.5q-42 0 -69 -24.5t-37 -73.5l-59 -295h-138l113 565h-44l16 82h44l12 59h138l-12 -59h170l-17 -82h-169l-25 -122q58 66 143 66q73 0 111 -40z" />
    <glyph glyph-name="Itilde" unicode="&#x128;" horiz-adv-x="307" 
d="M172 706h146l-141 -706h-146zM288.5 778q-13.5 7 -26.5 21q-13 15 -21.5 21.5t-20.5 6.5q-15 0 -24 -12.5t-17 -41.5h-73q16 71 44.5 105t72.5 34q23 0 37 -8t25 -23q12 -14 18.5 -19t16.5 -5q16 0 25.5 12.5t18.5 41.5h76q-17 -74 -44 -107t-72 -33q-22 0 -35.5 7z" />
    <glyph glyph-name="itilde" unicode="&#x129;" horiz-adv-x="271" 
d="M116 496h138l-99 -496h-138zM220 579.5q-14 10.5 -23 29.5q-8 15 -13 21.5t-14 6.5q-13 0 -22 -16t-15 -50h-77q13 56 27.5 90.5t35 51.5t51.5 17q26 0 39.5 -10.5t23.5 -30.5q6 -13 12 -20t14 -7q14 0 23 16t15 50h78q-13 -56 -27.5 -90.5t-35.5 -51.5t-52 -17
q-26 0 -40 10.5z" />
    <glyph glyph-name="Imacron" unicode="&#x12a;" horiz-adv-x="307" 
d="M172 706h146l-141 -706h-146zM152 887h257l-18 -90h-257z" />
    <glyph glyph-name="imacron" unicode="&#x12b;" horiz-adv-x="271" 
d="M116 496h138l-99 -496h-138zM101 688h244l-18 -89h-244z" />
    <glyph glyph-name="Ibreve" unicode="&#x12c;" horiz-adv-x="307" 
d="M172 706h146l-141 -706h-146zM169 794q-33 27 -33 80q0 11 4 37h92q-2 -16 -2 -22q0 -24 9.5 -34t32.5 -10q26 0 40.5 15t23.5 51h97q-14 -71 -56 -107.5t-111 -36.5q-64 0 -97 27z" />
    <glyph glyph-name="ibreve" unicode="&#x12d;" horiz-adv-x="271" 
d="M116 496h138l-99 -496h-138zM117.5 591.5q-29.5 28.5 -29.5 84.5q0 20 5 52h87q-5 -30 -5 -43q0 -23 8.5 -33t26.5 -10q28 0 45 19.5t26 66.5h90q-17 -82 -58 -123.5t-109 -41.5q-57 0 -86.5 28.5z" />
    <glyph glyph-name="Iogonek" unicode="&#x12e;" horiz-adv-x="307" 
d="M122.5 -56q-21.5 -27 -21.5 -51t28 -24q13 0 28 5l-16 -80q-25 -7 -57 -7q-46 0 -72.5 19t-26.5 56q0 38 26 73.5t68 64.5h-48l141 706h146l-141 -706q-33 -29 -54.5 -56z" />
    <glyph glyph-name="iogonek" unicode="&#x12f;" horiz-adv-x="271" 
d="M256.5 717q17.5 -10 28 -27.5t10.5 -38.5t-10.5 -38t-28 -27t-39.5 -10t-40 10t-28 27t-10 38t10 38.5t28 27.5t40 10t39.5 -10zM116 496h138l-99 -496q-34 -29 -55.5 -56t-21.5 -51q0 -12 7.5 -18t20.5 -6q14 0 29 5l-16 -80q-25 -7 -58 -7q-46 0 -72 19t-26 56
q0 38 26 73.5t68 64.5h-40z" />
    <glyph glyph-name="Idotaccent" unicode="&#x130;" horiz-adv-x="307" 
d="M172 706h146l-141 -706h-146zM219.5 797.5q-21.5 20.5 -21.5 52.5t21.5 52.5t54.5 20.5t54.5 -20.5t21.5 -52.5t-21.5 -52.5t-54.5 -20.5t-54.5 20.5z" />
    <glyph glyph-name="dotlessi" unicode="&#x131;" horiz-adv-x="271" 
d="M116 496h138l-99 -496h-138z" />
    <glyph glyph-name="IJ" unicode="&#x132;" horiz-adv-x="683" 
d="M172 706h146l-141 -706h-146zM274 3l26 131q15 -4 40 -4q41 0 66.5 11.5t41 37.5t24.5 71l92 456h146l-98 -494q-23 -110 -87 -162.5t-182 -52.5q-40 0 -69 6z" />
    <glyph glyph-name="ij" unicode="&#x133;" horiz-adv-x="542" 
d="M177 586q-18 10 -28 27t-10 38t10 38.5t28 27.5t40 10t39.5 -10t28 -27.5t10.5 -38.5t-10.5 -38t-28 -27t-39.5 -10t-40 10zM116 496h138l-99 -496h-138zM448 586q-18 10 -28 27t-10 38t10 38.5t28 27.5t40 10t39.5 -10t28 -27.5t10.5 -38.5t-10.5 -38t-28 -27t-39.5 -10
t-40 10zM164 -199l24 118q11 -2 28 -2q29 0 45.5 14.5t22.5 45.5l103 519h138l-111 -554q-16 -77 -58.5 -111.5t-121.5 -34.5q-33 0 -70 5z" />
    <glyph glyph-name="Jcircumflex" unicode="&#x134;" horiz-adv-x="376" 
d="M-33 3l26 131q15 -4 40 -4q41 0 66.5 11.5t41 37.5t24.5 71l92 456h146l-98 -494q-23 -110 -87 -162.5t-182 -52.5q-40 0 -69 6zM292 911h154l57 -137h-112l-29 75l-60 -75h-121z" />
    <glyph glyph-name="jcircumflex" unicode="&#x135;" horiz-adv-x="271" 
d="M-107 -199l24 118q11 -2 28 -2q29 0 45.5 14.5t22.5 45.5l103 519h138l-111 -554q-16 -77 -58.5 -111.5t-121.5 -34.5q-33 0 -70 5zM164 728h134l45 -158h-98l-24 92l-63 -92h-104z" />
    <glyph glyph-name="Kcommaaccent" unicode="&#x136;" horiz-adv-x="666" 
d="M375 367l234 -367h-167l-200 325l-65 -325h-146l141 706h146l-55 -274l264 274h181zM230 -52h141l-82 -148h-126z" />
    <glyph glyph-name="kcommaaccent" unicode="&#x137;" horiz-adv-x="535" 
d="M329 258l169 -258h-165l-135 215l-43 -215h-138l141 706h138l-76 -382l159 172h186zM167 -52h141l-82 -148h-126z" />
    <glyph glyph-name="kgreenlandic" unicode="&#x138;" horiz-adv-x="535" 
d="M327 255l171 -255h-165l-135 215l-43 -215h-138l99 496h138l-35 -175l168 175h186z" />
    <glyph glyph-name="Lacute" unicode="&#x139;" horiz-adv-x="479" 
d="M172 706h146l-115 -578h236l-25 -128h-383zM301 911h152l-132 -137h-139z" />
    <glyph glyph-name="lacute" unicode="&#x13a;" horiz-adv-x="271" 
d="M158 706h138l-141 -706h-138zM270 911h152l-132 -137h-139z" />
    <glyph glyph-name="Lcommaaccent" unicode="&#x13b;" horiz-adv-x="479" 
d="M172 706h146l-115 -578h236l-25 -128h-383zM164 -52h141l-82 -148h-126z" />
    <glyph glyph-name="lcommaaccent" unicode="&#x13c;" horiz-adv-x="271" 
d="M158 706h138l-141 -706h-138zM6 -52h141l-82 -148h-126z" />
    <glyph glyph-name="Lcaron" unicode="&#x13d;" horiz-adv-x="479" 
d="M172 706h146l-115 -578h236l-25 -128h-383zM407 706h117l-73 -171h-102z" />
    <glyph glyph-name="lcaron" unicode="&#x13e;" horiz-adv-x="363" 
d="M158 706h138l-141 -706h-138zM360 706h117l-73 -171h-102z" />
    <glyph glyph-name="Ldot" unicode="&#x13f;" horiz-adv-x="561" 
d="M172 706h146l-115 -578h236l-25 -128h-383zM420 333q-20 11 -31.5 31t-11.5 45t11.5 45t31.5 31t46 11t46 -11t31 -31t11 -45t-11 -45t-31 -31t-46 -11t-46 11z" />
    <glyph glyph-name="ldot" unicode="&#x140;" horiz-adv-x="448" 
d="M158 706h138l-141 -706h-138zM331 259q-20 11 -31.5 31t-11.5 45t11.5 45t31.5 31t46 11t46 -11t31 -31t11 -45t-11 -45t-31 -31t-46 -11t-46 11z" />
    <glyph glyph-name="Lslash" unicode="&#x141;" horiz-adv-x="479" 
d="M439 128l-25 -128h-383l57 283l-65 -38l22 111l65 38l62 312h146l-48 -239l149 88l-23 -112l-148 -87l-45 -228h236z" />
    <glyph glyph-name="lslash" unicode="&#x142;" horiz-adv-x="287" 
d="M313 407l-79 -50l-71 -357h-138l58 288l-77 -44l22 115l78 46l60 301h138l-46 -231l77 47z" />
    <glyph glyph-name="Nacute" unicode="&#x143;" horiz-adv-x="742" 
d="M172 706h146l195 -492l98 492h142l-141 -706h-147l-194 492l-98 -492h-142zM497 911h152l-132 -137h-139z" />
    <glyph glyph-name="nacute" unicode="&#x144;" horiz-adv-x="583" 
d="M498 470q37 -39 37 -111q0 -34 -6 -69l-59 -290h-137l54 270q5 27 5 49q0 38 -18.5 56t-54.5 18q-41 0 -68 -24.5t-37 -73.5l-59 -295h-138l99 496h138l-10 -52q28 33 64 49t81 16q72 0 109 -39zM400 727h143l-129 -156h-128z" />
    <glyph glyph-name="Ncommaaccent" unicode="&#x145;" horiz-adv-x="742" 
d="M172 706h146l195 -492l98 492h142l-141 -706h-147l-194 492l-98 -492h-142zM259 -52h141l-82 -148h-126z" />
    <glyph glyph-name="ncommaaccent" unicode="&#x146;" horiz-adv-x="583" 
d="M498 470q37 -39 37 -111q0 -34 -6 -69l-59 -290h-137l54 270q5 27 5 49q0 38 -18.5 56t-54.5 18q-41 0 -68 -24.5t-37 -73.5l-59 -295h-138l99 496h138l-10 -52q28 33 64 49t81 16q72 0 109 -39zM168 -52h141l-82 -148h-126z" />
    <glyph glyph-name="Ncaron" unicode="&#x147;" horiz-adv-x="742" 
d="M172 706h146l195 -492l98 492h142l-141 -706h-147l-194 492l-98 -492h-142zM546 774h-158l-79 137h120l45 -75l76 75h132z" />
    <glyph glyph-name="ncaron" unicode="&#x148;" horiz-adv-x="583" 
d="M498 470q37 -39 37 -111q0 -34 -6 -69l-59 -290h-137l54 270q5 27 5 49q0 38 -18.5 56t-54.5 18q-41 0 -68 -24.5t-37 -73.5l-59 -295h-138l99 496h138l-10 -52q28 33 64 49t81 16q72 0 109 -39zM449 570h-157l-69 157h118l41 -94l76 94h124z" />
    <glyph glyph-name="napostrophe" unicode="&#x149;" horiz-adv-x="757" 
d="M192 706h149l-156 -282h-112zM672 470q37 -39 37 -111q0 -34 -6 -69l-59 -290h-137l54 270q5 27 5 49q0 38 -18.5 56t-54.5 18q-41 0 -68 -24.5t-37 -73.5l-59 -295h-138l99 496h138l-10 -52q28 33 64 49t81 16q72 0 109 -39z" />
    <glyph glyph-name="Eng" unicode="&#x14a;" horiz-adv-x="742" 
d="M753 706l-151 -754q-16 -82 -60 -119t-126 -37q-32 0 -69 5l22 113q11 -2 28 -2q29 0 45.5 14.5t22.5 45.5l7 35l-201 485l-98 -492h-142l141 706h146l198 -478l95 478h142z" />
    <glyph glyph-name="eng" unicode="&#x14b;" horiz-adv-x="583" 
d="M497.5 469q37.5 -40 37.5 -118q0 -28 -6 -61l-70 -348q-16 -77 -59 -111.5t-122 -34.5q-32 0 -69 5l24 118q11 -2 31 -2q28 0 42.5 13t20.5 42l60 299q5 28 5 46q0 39 -18 57.5t-55 18.5q-41 0 -68 -24.5t-37 -73.5l-59 -295h-138l99 496h138l-11 -53q58 66 143 66
q74 0 111.5 -40z" />
    <glyph glyph-name="Omacron" unicode="&#x14c;" horiz-adv-x="745" 
d="M132 60.5q-70 77.5 -70 210.5q0 123 45 226.5t129.5 164.5t198.5 61q101 0 165.5 -37t94.5 -101.5t30 -149.5q0 -124 -44.5 -227t-129.5 -164t-200 -61q-149 0 -219 77.5zM474 155q49 47 74.5 121t25.5 154q0 79 -33 123.5t-110 44.5q-70 0 -119.5 -46.5t-74.5 -120.5
t-25 -154q0 -77 35 -123t109 -46q69 0 118 47zM345 888h308l-17 -90h-309z" />
    <glyph glyph-name="omacron" unicode="&#x14d;" horiz-adv-x="578" 
d="M132 16q-49 29 -72 78.5t-23 111.5q0 87 34.5 156t99.5 108t153 39q74 0 123 -29t72 -78t23 -110q0 -88 -34.5 -157t-99.5 -108.5t-154 -39.5q-73 0 -122 29zM340.5 130q29.5 26 44 68.5t14.5 90.5q0 104 -89 104q-42 0 -72 -26t-44.5 -68t-14.5 -88q0 -51 21 -79t67 -28
q44 0 73.5 26zM227 688h299l-18 -89h-299z" />
    <glyph glyph-name="Obreve" unicode="&#x14e;" horiz-adv-x="745" 
d="M132 60.5q-70 77.5 -70 210.5q0 123 45 226.5t129.5 164.5t198.5 61q101 0 165.5 -37t94.5 -101.5t30 -149.5q0 -124 -44.5 -227t-129.5 -164t-200 -61q-149 0 -219 77.5zM474 155q49 47 74.5 121t25.5 154q0 79 -33 123.5t-110 44.5q-70 0 -119.5 -46.5t-74.5 -120.5
t-25 -154q0 -77 35 -123t109 -46q69 0 118 47zM368 796q-36 29 -36 86q0 9 2 29h89v-12q0 -29 15 -42t45 -13q35 0 56 15.5t35 51.5h98q-18 -71 -68 -107.5t-129 -36.5q-71 0 -107 29z" />
    <glyph glyph-name="obreve" unicode="&#x14f;" horiz-adv-x="578" 
d="M132 16q-49 29 -72 78.5t-23 111.5q0 87 34.5 156t99.5 108t153 39q74 0 123 -29t72 -78t23 -110q0 -88 -34.5 -157t-99.5 -108.5t-154 -39.5q-73 0 -122 29zM340.5 130q29.5 26 44 68.5t14.5 90.5q0 104 -89 104q-42 0 -72 -26t-44.5 -68t-14.5 -88q0 -51 21 -79t67 -28
q44 0 73.5 26zM210 702q0 16 1 26h97q-2 -9 -2 -25q0 -31 14.5 -46t44.5 -15q36 0 57.5 20t35.5 66h101q-38 -164 -197 -164q-152 0 -152 138z" />
    <glyph glyph-name="Ohungarumlaut" unicode="&#x150;" horiz-adv-x="745" 
d="M132 60.5q-70 77.5 -70 210.5q0 123 45 226.5t129.5 164.5t198.5 61q101 0 165.5 -37t94.5 -101.5t30 -149.5q0 -124 -44.5 -227t-129.5 -164t-200 -61q-149 0 -219 77.5zM474 155q49 47 74.5 121t25.5 154q0 79 -33 123.5t-110 44.5q-70 0 -119.5 -46.5t-74.5 -120.5
t-25 -154q0 -77 35 -123t109 -46q69 0 118 47zM445 911h127l-138 -137h-106zM616 911h127l-138 -137h-106z" />
    <glyph glyph-name="ohungarumlaut" unicode="&#x151;" horiz-adv-x="578" 
d="M132 16q-49 29 -72 78.5t-23 111.5q0 87 34.5 156t99.5 108t153 39q74 0 123 -29t72 -78t23 -110q0 -88 -34.5 -157t-99.5 -108.5t-154 -39.5q-73 0 -122 29zM340.5 130q29.5 26 44 68.5t14.5 90.5q0 104 -89 104q-42 0 -72 -26t-44.5 -68t-14.5 -88q0 -51 21 -79t67 -28
q44 0 73.5 26zM327 728h126l-143 -157h-102zM497 728h126l-143 -157h-102z" />
    <glyph glyph-name="OE" unicode="&#x152;" horiz-adv-x="1013" 
d="M745 586l-34 -168h279l-23 -119h-280l-35 -179h282l-24 -120h-405l8 39q-81 -56 -181 -56q-93 0 -153 38.5t-87.5 106t-27.5 156.5q0 124 43 224t124 157.5t190 57.5q143 0 211 -89l14 72h405l-23 -120h-283zM456.5 150.5q47.5 42.5 72 112.5t24.5 151q0 85 -30.5 134.5
t-104.5 49.5q-64 0 -109.5 -45.5t-68.5 -119t-23 -156.5q0 -169 127 -169q65 0 112.5 42.5z" />
    <glyph glyph-name="oe" unicode="&#x153;" horiz-adv-x="879" 
d="M503 215v-5q0 -58 19.5 -87.5t65.5 -29.5q64 0 89 60h144q-16 -52 -51 -89t-84 -56.5t-107 -19.5q-109 0 -162 69q-34 -34 -79.5 -52t-100.5 -18q-68 0 -113 28t-66.5 75.5t-21.5 108.5q0 90 33 160t94.5 110t144.5 40q105 0 155 -69q34 33 78 51t96 18q62 0 108 -24.5
t71.5 -73t25.5 -117.5q0 -41 -6 -79h-333zM556 378.5q-28 -28.5 -42 -77.5h193v3q0 103 -80 103q-43 0 -71 -28.5zM322.5 131.5q27.5 27.5 40.5 70.5t13 89q0 48 -17 75t-56 27q-41 0 -69 -27t-41.5 -69t-13.5 -87q0 -51 18.5 -78.5t56.5 -27.5q41 0 68.5 27.5z" />
    <glyph glyph-name="Racute" unicode="&#x154;" horiz-adv-x="648" 
d="M614 407.5q-24 -47.5 -69 -77.5t-106 -39l150 -291h-155l-145 287h-55l-57 -287h-146l141 706h234q121 0 176.5 -50t55.5 -140q0 -61 -24 -108.5zM256 393h100q64 0 98 29.5t34 83.5q0 47 -27 68t-84 21h-81zM453 911h152l-132 -137h-139z" />
    <glyph glyph-name="racute" unicode="&#x155;" horiz-adv-x="390" 
d="M425 497l-25 -122q-9 2 -21 3.5t-24 1.5q-61 0 -100 -38.5t-54 -111.5l-46 -230h-138l99 496h132l-13 -63q55 70 141 70q23 0 49 -6zM311 727h143l-129 -156h-128z" />
    <glyph glyph-name="Rcommaaccent" unicode="&#x156;" horiz-adv-x="648" 
d="M614 407.5q-24 -47.5 -69 -77.5t-106 -39l150 -291h-155l-145 287h-55l-57 -287h-146l141 706h234q121 0 176.5 -50t55.5 -140q0 -61 -24 -108.5zM256 393h100q64 0 98 29.5t34 83.5q0 47 -27 68t-84 21h-81zM234 -52h141l-82 -148h-126z" />
    <glyph glyph-name="rcommaaccent" unicode="&#x157;" horiz-adv-x="390" 
d="M425 497l-25 -122q-9 2 -21 3.5t-24 1.5q-61 0 -100 -38.5t-54 -111.5l-46 -230h-138l99 496h132l-13 -63q55 70 141 70q23 0 49 -6zM6 -52h141l-82 -148h-126z" />
    <glyph glyph-name="Rcaron" unicode="&#x158;" horiz-adv-x="648" 
d="M614 407.5q-24 -47.5 -69 -77.5t-106 -39l150 -291h-155l-145 287h-55l-57 -287h-146l141 706h234q121 0 176.5 -50t55.5 -140q0 -61 -24 -108.5zM256 393h100q64 0 98 29.5t34 83.5q0 47 -27 68t-84 21h-81zM501 774h-158l-79 137h120l45 -75l76 75h132z" />
    <glyph glyph-name="rcaron" unicode="&#x159;" horiz-adv-x="390" 
d="M425 497l-25 -122q-9 2 -21 3.5t-24 1.5q-61 0 -100 -38.5t-54 -111.5l-46 -230h-138l99 496h132l-13 -63q55 70 141 70q23 0 49 -6zM361 570h-157l-69 157h118l41 -94l76 94h124z" />
    <glyph glyph-name="Sacute" unicode="&#x15a;" horiz-adv-x="614" 
d="M88.5 39q-61.5 56 -61.5 153q0 18 1 28h160q-2 -18 -2 -26q0 -48 27 -73t82 -25q56 0 87.5 25t31.5 67q0 27 -14.5 46.5t-37.5 33t-67 33.5l-38 18q-51 24 -83 48.5t-49 57.5t-17 79q0 67 34 116.5t95 76t141 26.5q75 0 127.5 -24.5t78.5 -68.5t26 -103q0 -21 -2 -31
h-151q3 17 3 32q0 40 -24.5 63t-71.5 23q-32 0 -56 -11.5t-36.5 -31t-12.5 -45.5t13.5 -43.5t36 -30t68.5 -32.5l27 -12q60 -27 95 -50.5t55 -58.5t20 -87q0 -72 -37 -123.5t-103.5 -78.5t-154.5 -27q-129 0 -190.5 56zM427 911h152l-132 -137h-139z" />
    <glyph glyph-name="sacute" unicode="&#x15b;" horiz-adv-x="490" 
d="M62.5 22.5q-49.5 38.5 -49.5 106.5q0 16 3 34h136q-3 -13 -3 -26q0 -56 67 -56q35 0 53.5 15t18.5 38q0 19 -11 32t-29.5 22.5t-49.5 21.5q-61 23 -92.5 55t-31.5 86q0 49 26.5 85t72.5 54.5t105 18.5q90 0 136 -34t46 -96q0 -8 -2 -28h-131q2 12 2 22q0 23 -14 35.5
t-43 12.5q-30 0 -46.5 -13.5t-16.5 -34.5q0 -23 22 -38.5t73 -35.5q44 -17 72.5 -35.5t43.5 -45.5t15 -65q0 -53 -29 -91.5t-79.5 -58t-114.5 -19.5q-100 0 -149.5 38.5zM331 727h143l-129 -156h-128z" />
    <glyph glyph-name="Scircumflex" unicode="&#x15c;" horiz-adv-x="614" 
d="M88.5 39q-61.5 56 -61.5 153q0 18 1 28h160q-2 -18 -2 -26q0 -48 27 -73t82 -25q56 0 87.5 25t31.5 67q0 27 -14.5 46.5t-37.5 33t-67 33.5l-38 18q-51 24 -83 48.5t-49 57.5t-17 79q0 67 34 116.5t95 76t141 26.5q75 0 127.5 -24.5t78.5 -68.5t26 -103q0 -21 -2 -31
h-151q3 17 3 32q0 40 -24.5 63t-71.5 23q-32 0 -56 -11.5t-36.5 -31t-12.5 -45.5t13.5 -43.5t36 -30t68.5 -32.5l27 -12q60 -27 95 -50.5t55 -58.5t20 -87q0 -72 -37 -123.5t-103.5 -78.5t-154.5 -27q-129 0 -190.5 56zM346 911h159l79 -137h-120l-45 75l-76 -75h-132z" />
    <glyph glyph-name="scircumflex" unicode="&#x15d;" horiz-adv-x="490" 
d="M62.5 22.5q-49.5 38.5 -49.5 106.5q0 16 3 34h136q-3 -13 -3 -26q0 -56 67 -56q35 0 53.5 15t18.5 38q0 19 -11 32t-29.5 22.5t-49.5 21.5q-61 23 -92.5 55t-31.5 86q0 49 26.5 85t72.5 54.5t105 18.5q90 0 136 -34t46 -96q0 -8 -2 -28h-131q2 12 2 22q0 23 -14 35.5
t-43 12.5q-30 0 -46.5 -13.5t-16.5 -34.5q0 -23 22 -38.5t73 -35.5q44 -17 72.5 -35.5t43.5 -45.5t15 -65q0 -53 -29 -91.5t-79.5 -58t-114.5 -19.5q-100 0 -149.5 38.5zM252 728h158l68 -158h-118l-40 95l-77 -95h-124z" />
    <glyph glyph-name="Scedilla" unicode="&#x15e;" horiz-adv-x="614" 
d="M457 496q3 17 3 32q0 40 -24.5 63t-71.5 23q-32 0 -56 -11.5t-36.5 -31t-12.5 -45.5t13.5 -43.5t36 -30t68.5 -32.5l27 -12q60 -27 95 -50.5t55 -58.5t20 -87q0 -63 -29 -111t-82.5 -77t-125.5 -38l-12 -26q41 -4 63.5 -27.5t22.5 -59.5q0 -52 -41.5 -77.5t-110.5 -25.5
q-29 0 -55 5t-45 15l27 66q32 -15 71 -15q28 0 43.5 9t15.5 26q0 16 -15.5 24t-50.5 8h-43l34 76q-109 9 -161.5 63.5t-52.5 144.5q0 18 1 28h160q-2 -18 -2 -26q0 -48 27 -73t82 -25q56 0 87.5 25t31.5 67q0 27 -14.5 46.5t-37.5 33t-67 33.5l-38 18q-51 24 -83 48.5
t-49 57.5t-17 79q0 67 34 116.5t95 76t141 26.5q75 0 127.5 -24.5t78.5 -68.5t26 -103q0 -21 -2 -31h-151z" />
    <glyph glyph-name="scedilla" unicode="&#x15f;" horiz-adv-x="490" 
d="M327 351q2 12 2 22q0 23 -14 35.5t-43 12.5q-30 0 -46.5 -13.5t-16.5 -34.5q0 -23 22 -38.5t73 -35.5q44 -17 72.5 -35.5t43.5 -45.5t15 -65q0 -48 -23.5 -84t-65.5 -56.5t-96 -26.5l-12 -26q41 -4 64 -27.5t23 -59.5q0 -52 -42 -77.5t-110 -25.5q-60 0 -100 20l26 66
q33 -15 72 -15q27 0 43 9t16 26q0 16 -16 24t-50 8h-44l36 80q-72 9 -107.5 46t-35.5 95q0 16 3 34h136q-3 -13 -3 -26q0 -56 67 -56q35 0 53.5 15t18.5 38q0 19 -11 32t-29.5 22.5t-49.5 21.5q-61 23 -92.5 55t-31.5 86q0 49 26.5 85t72.5 54.5t105 18.5q90 0 136 -34
t46 -96q0 -8 -2 -28h-131z" />
    <glyph glyph-name="Scaron" unicode="&#x160;" horiz-adv-x="614" 
d="M88.5 39q-61.5 56 -61.5 153q0 18 1 28h160q-2 -18 -2 -26q0 -48 27 -73t82 -25q56 0 87.5 25t31.5 67q0 27 -14.5 46.5t-37.5 33t-67 33.5l-38 18q-51 24 -83 48.5t-49 57.5t-17 79q0 67 34 116.5t95 76t141 26.5q75 0 127.5 -24.5t78.5 -68.5t26 -103q0 -21 -2 -31
h-151q3 17 3 32q0 40 -24.5 63t-71.5 23q-32 0 -56 -11.5t-36.5 -31t-12.5 -45.5t13.5 -43.5t36 -30t68.5 -32.5l27 -12q60 -27 95 -50.5t55 -58.5t20 -87q0 -72 -37 -123.5t-103.5 -78.5t-154.5 -27q-129 0 -190.5 56zM476 774h-158l-79 137h120l45 -75l76 75h132z" />
    <glyph glyph-name="scaron" unicode="&#x161;" horiz-adv-x="490" 
d="M62.5 22.5q-49.5 38.5 -49.5 106.5q0 16 3 34h136q-3 -13 -3 -26q0 -56 67 -56q35 0 53.5 15t18.5 38q0 19 -11 32t-29.5 22.5t-49.5 21.5q-61 23 -92.5 55t-31.5 86q0 49 26.5 85t72.5 54.5t105 18.5q90 0 136 -34t46 -96q0 -8 -2 -28h-131q2 12 2 22q0 23 -14 35.5
t-43 12.5q-30 0 -46.5 -13.5t-16.5 -34.5q0 -23 22 -38.5t73 -35.5q44 -17 72.5 -35.5t43.5 -45.5t15 -65q0 -53 -29 -91.5t-79.5 -58t-114.5 -19.5q-100 0 -149.5 38.5zM380 570h-157l-69 157h118l41 -94l76 94h124z" />
    <glyph glyph-name="uni0162" unicode="&#x162;" horiz-adv-x="548" 
d="M623 706l-23 -120h-185l-117 -586h-17l-19 -40q42 -4 64.5 -27.5t22.5 -59.5q0 -52 -41.5 -77.5t-110.5 -25.5q-29 0 -55 5t-45 15l27 66q32 -15 71 -15q28 0 43.5 9t15.5 26q0 16 -15.5 24t-50.5 8h-44l42 92h-35l118 586h-185l23 120h516z" />
    <glyph glyph-name="uni0163" unicode="&#x163;" horiz-adv-x="368" 
d="M207 189q-3 -18 -3 -31q0 -28 14 -41t43 -13q18 0 48 7l-23 -112q-40 -7 -72 -8l-14 -31q41 -4 63.5 -27.5t22.5 -59.5q0 -52 -41.5 -77.5t-110.5 -25.5q-29 0 -55 5t-45 15l27 66q31 -15 71 -15q28 0 43.5 9t15.5 26q0 16 -15.5 24t-50.5 8h-43l42 95q-33 13 -48.5 39.5
t-15.5 69.5q0 27 8 69l41 205h-67l22 110h67l23 117h138l-23 -117h118l-21 -110h-119z" />
    <glyph glyph-name="Tcaron" unicode="&#x164;" horiz-adv-x="548" 
d="M269 586h-185l23 120h516l-23 -120h-185l-117 -586h-147zM457 774h-158l-79 137h120l45 -75l76 75h132z" />
    <glyph glyph-name="tcaron" unicode="&#x165;" horiz-adv-x="411" 
d="M95 19.5q-35 28.5 -35 92.5q0 27 8 69l41 205h-67l22 110h67l23 117h138l-23 -117h118l-21 -110h-119l-40 -197q-3 -18 -3 -31q0 -28 14 -41t43 -13q18 0 48 7l-23 -112q-43 -8 -81 -8q-75 0 -110 28.5zM367 707h117l-73 -171h-102z" />
    <glyph glyph-name="Tbar" unicode="&#x166;" horiz-adv-x="548" 
d="M415 586l-31 -157h115l-19 -91h-115l-67 -338h-147l68 338h-116l18 91h116l32 157h-185l23 120h516l-23 -120h-185z" />
    <glyph glyph-name="tbar" unicode="&#x167;" horiz-adv-x="368" 
d="M247 386l-16 -81h119l-17 -87h-120l-6 -29q-3 -18 -3 -31q0 -28 14 -41t43 -13q18 0 48 7l-23 -112q-43 -8 -81 -8q-75 0 -110 28.5t-35 92.5q0 27 8 69l7 37h-67l18 87h67l16 81h-67l22 110h67l23 117h138l-23 -117h118l-21 -110h-119z" />
    <glyph glyph-name="Utilde" unicode="&#x168;" horiz-adv-x="677" 
d="M60 184q0 39 10 92l86 430h146l-90 -450q-5 -25 -5 -54q0 -47 25 -70t81 -23q69 0 104 33.5t49 103.5l92 460h146l-98 -492q-23 -116 -96 -173.5t-202 -57.5q-248 0 -248 201zM446 799q-23 15 -35 21t-26 6q-38 0 -54 -55h-79q17 70 50 106t85 36q26 0 44.5 -8t37.5 -24
q15 -12 26.5 -18t26.5 -6q21 0 33.5 13.5t23.5 41.5h78q-34 -142 -131 -142q-41 0 -80 29z" />
    <glyph glyph-name="utilde" unicode="&#x169;" horiz-adv-x="583" 
d="M566 496l-100 -496h-137l11 53q-30 -34 -66 -50t-80 -16q-72 0 -109 39t-37 111q0 35 6 69l58 290h138l-54 -270q-5 -27 -5 -49q0 -38 18.5 -56t54.5 -18q41 0 68 24.5t37 73.5l59 295h138zM349 602q-19 18 -29.5 25.5t-23.5 7.5q-17 0 -28 -15.5t-19 -48.5h-84
q17 81 49 120t81 39q23 0 41 -9t35 -26q20 -18 30.5 -25t23.5 -7q18 0 28.5 15.5t19.5 49.5h83q-17 -82 -48.5 -120.5t-82.5 -38.5q-46 0 -76 33z" />
    <glyph glyph-name="Umacron" unicode="&#x16a;" horiz-adv-x="677" 
d="M60 184q0 39 10 92l86 430h146l-90 -450q-5 -25 -5 -54q0 -47 25 -70t81 -23q69 0 104 33.5t49 103.5l92 460h146l-98 -492q-23 -116 -96 -173.5t-202 -57.5q-248 0 -248 201zM309 888h308l-17 -90h-309z" />
    <glyph glyph-name="umacron" unicode="&#x16b;" horiz-adv-x="583" 
d="M566 496l-100 -496h-137l11 53q-30 -34 -66 -50t-80 -16q-72 0 -109 39t-37 111q0 35 6 69l58 290h138l-54 -270q-5 -27 -5 -49q0 -38 18.5 -56t54.5 -18q41 0 68 24.5t37 73.5l59 295h138zM220 688h299l-18 -89h-299z" />
    <glyph glyph-name="Ubreve" unicode="&#x16c;" horiz-adv-x="677" 
d="M60 184q0 39 10 92l86 430h146l-90 -450q-5 -25 -5 -54q0 -47 25 -70t81 -23q69 0 104 33.5t49 103.5l92 460h146l-98 -492q-23 -116 -96 -173.5t-202 -57.5q-248 0 -248 201zM333 796q-36 29 -36 86q0 9 2 29h89v-12q0 -29 15 -42t45 -13q35 0 56 15.5t35 51.5h98
q-18 -71 -68 -107.5t-129 -36.5q-71 0 -107 29z" />
    <glyph glyph-name="ubreve" unicode="&#x16d;" horiz-adv-x="583" 
d="M566 496l-100 -496h-137l11 53q-30 -34 -66 -50t-80 -16q-72 0 -109 39t-37 111q0 35 6 69l58 290h138l-54 -270q-5 -27 -5 -49q0 -38 18.5 -56t54.5 -18q41 0 68 24.5t37 73.5l59 295h138zM202 702q0 16 1 26h97q-2 -9 -2 -25q0 -31 14.5 -46t44.5 -15q36 0 57.5 20
t35.5 66h101q-38 -164 -197 -164q-152 0 -152 138z" />
    <glyph glyph-name="Uring" unicode="&#x16e;" horiz-adv-x="677" 
d="M60 184q0 39 10 92l86 430h146l-90 -450q-5 -25 -5 -54q0 -47 25 -70t81 -23q69 0 104 33.5t49 103.5l92 460h146l-98 -492q-23 -116 -96 -173.5t-202 -57.5q-248 0 -248 201zM378 755q-29 15 -45 42t-16 62q0 36 16 63t45 41.5t68 14.5t69 -15t46 -42t16 -62t-16.5 -62
t-46 -42t-68.5 -15t-68 15zM485 822.5q14 13.5 14 36.5t-14.5 37t-38.5 14q-23 0 -37 -14t-14 -37t14 -36.5t37 -13.5q25 0 39 13.5z" />
    <glyph glyph-name="uring" unicode="&#x16f;" horiz-adv-x="583" 
d="M566 496l-100 -496h-137l11 53q-30 -34 -66 -50t-80 -16q-72 0 -109 39t-37 111q0 35 6 69l58 290h138l-54 -270q-5 -27 -5 -49q0 -38 18.5 -56t54.5 -18q41 0 68 24.5t37 73.5l59 295h138zM288 566q-29 15 -45 42t-16 62q0 36 16 63t45 41.5t68 14.5t69 -15t46 -42
t16 -62t-16.5 -62t-46 -42t-68.5 -15t-68 15zM395 633.5q14 13.5 14 36.5t-14.5 37t-38.5 14q-23 0 -37 -14t-14 -37t14 -36.5t37 -13.5q25 0 39 13.5z" />
    <glyph glyph-name="Uhungarumlaut" unicode="&#x170;" horiz-adv-x="677" 
d="M60 184q0 39 10 92l86 430h146l-90 -450q-5 -25 -5 -54q0 -47 25 -70t81 -23q69 0 104 33.5t49 103.5l92 460h146l-98 -492q-23 -116 -96 -173.5t-202 -57.5q-248 0 -248 201zM410 911h127l-138 -137h-106zM581 911h127l-138 -137h-106z" />
    <glyph glyph-name="uhungarumlaut" unicode="&#x171;" horiz-adv-x="583" 
d="M566 496l-100 -496h-137l11 53q-30 -34 -66 -50t-80 -16q-72 0 -109 39t-37 111q0 35 6 69l58 290h138l-54 -270q-5 -27 -5 -49q0 -38 18.5 -56t54.5 -18q41 0 68 24.5t37 73.5l59 295h138zM320 728h126l-143 -157h-102zM490 728h126l-143 -157h-102z" />
    <glyph glyph-name="Uogonek" unicode="&#x172;" horiz-adv-x="677" 
d="M704 706l-98 -492q-15 -75 -49.5 -125t-97.5 -87q-44 -28 -70 -52t-26 -50q0 -15 10.5 -23t27.5 -8q23 0 37 5l-16 -79q-28 -8 -65 -8q-50 0 -79.5 21.5t-29.5 62.5q0 35 21 62.5t58 49.5h-19q-248 0 -248 201q0 39 10 92l86 430h146l-90 -450q-5 -25 -5 -54
q0 -47 25 -70t81 -23q69 0 104 33.5t49 103.5l92 460h146z" />
    <glyph glyph-name="uogonek" unicode="&#x173;" horiz-adv-x="583" 
d="M417 -33q-19 -14 -33 -31.5t-14 -35.5q0 -15 10.5 -23t27.5 -8q23 0 37 5l-16 -79q-28 -8 -65 -8q-50 0 -79.5 21.5t-29.5 62.5q0 42 29 72.5t80 56.5h-35l11 53q-30 -34 -66 -50t-80 -16q-72 0 -109 39t-37 111q0 35 6 69l58 290h138l-54 -270q-5 -27 -5 -49
q0 -38 18.5 -56t54.5 -18q41 0 68 24.5t37 73.5l59 295h138l-100 -496q-30 -19 -49 -33z" />
    <glyph glyph-name="Wcircumflex" unicode="&#x174;" horiz-adv-x="930" 
d="M1015 706l-328 -706h-154l-19 504l-216 -504h-151l-50 706h139l29 -497l209 497h154l20 -496l218 496h149zM518 911h159l79 -137h-120l-45 75l-76 -75h-132z" />
    <glyph glyph-name="wcircumflex" unicode="&#x175;" horiz-adv-x="808" 
d="M845 496l-270 -496h-135l-28 310l-146 -310h-133l-71 496h141l26 -316l158 316h116l32 -316l154 316h156zM403 728h158l68 -158h-118l-40 95l-77 -95h-124z" />
    <glyph glyph-name="Ycircumflex" unicode="&#x176;" horiz-adv-x="599" 
d="M238 303l-141 403h146l92 -260l180 260h169l-300 -403l-61 -303h-146zM337 911h159l79 -137h-120l-45 75l-76 -75h-132z" />
    <glyph glyph-name="ycircumflex" unicode="&#x177;" horiz-adv-x="546" 
d="M582 496l-413 -696h-148l120 201l-79 495h139l44 -339l182 339h155zM275 728h158l68 -158h-118l-40 95l-77 -95h-124z" />
    <glyph glyph-name="Ydieresis" unicode="&#x178;" horiz-adv-x="599" 
d="M238 303l-141 403h146l92 -260l180 260h169l-300 -403l-61 -303h-146zM256.5 786q-16.5 9 -26 25t-9.5 35q0 31 20.5 51t52.5 20q20 0 36.5 -9t26 -25.5t9.5 -36.5q0 -19 -9.5 -35t-26 -25t-36.5 -9q-21 0 -37.5 9zM474.5 786q-16.5 9 -26 25t-9.5 35q0 31 20.5 51
t51.5 20q20 0 37 -9t26.5 -25.5t9.5 -36.5q0 -19 -9.5 -35t-26.5 -25t-37 -9t-36.5 9z" />
    <glyph glyph-name="Zacute" unicode="&#x179;" horiz-adv-x="602" 
d="M391 583h-285l25 123h519l-417 -583h313l-24 -123h-549zM411 911h152l-132 -137h-139z" />
    <glyph glyph-name="zacute" unicode="&#x17a;" horiz-adv-x="474" 
d="M208 111h221l-23 -111h-447l315 386h-214l21 110h432zM321 727h143l-129 -156h-128z" />
    <glyph glyph-name="Zdotaccent" unicode="&#x17b;" horiz-adv-x="602" 
d="M391 583h-285l25 123h519l-417 -583h313l-24 -123h-549zM342.5 797.5q-21.5 20.5 -21.5 52.5t21.5 52.5t54.5 20.5t54.5 -20.5t21.5 -52.5t-21.5 -52.5t-54.5 -20.5t-54.5 20.5z" />
    <glyph glyph-name="zdotaccent" unicode="&#x17c;" horiz-adv-x="474" 
d="M208 111h221l-23 -111h-447l315 386h-214l21 110h432zM265 586.5q-18 9.5 -28 26.5t-10 38q0 33 22 54.5t56 21.5q22 0 39.5 -10t28 -27t10.5 -39q0 -21 -10.5 -38t-28 -26.5t-39.5 -9.5t-40 9.5z" />
    <glyph glyph-name="Zcaron" unicode="&#x17d;" horiz-adv-x="602" 
d="M391 583h-285l25 123h519l-417 -583h313l-24 -123h-549zM459 774h-158l-79 137h120l45 -75l76 75h132z" />
    <glyph glyph-name="zcaron" unicode="&#x17e;" horiz-adv-x="474" 
d="M208 111h221l-23 -111h-447l315 386h-214l21 110h432zM370 570h-157l-69 157h118l41 -94l76 94h124z" />
    <glyph glyph-name="Schwa" unicode="&#x18f;" horiz-adv-x="716" 
d="M572.5 685.5q62.5 -37.5 92.5 -104.5t30 -156q0 -123 -46 -224t-129.5 -159.5t-191.5 -58.5q-80 0 -140 33.5t-93 98t-33 156.5q0 55 10 115h472q1 13 1 40q0 80 -33.5 124.5t-105.5 44.5q-58 0 -97.5 -29t-60.5 -84h-155q23 77 70 131t112 82t141 28q94 0 156.5 -37.5z
M451 150.5q47 44.5 71 120.5h-316v-7q0 -74 33 -116t99 -42t113 44.5z" />
    <glyph glyph-name="florin" unicode="&#x192;" horiz-adv-x="397" 
d="M4.5 -5.5q-20.5 2.5 -36.5 7.5l22 107q16 -6 39 -6q73 0 88 74l38 190h-109l15 72h109l26 131q16 79 63.5 115t136.5 36q44 0 77 -9l-22 -107q-8 3 -19.5 4.5t-22.5 1.5q-37 0 -57 -19.5t-28 -58.5l-20 -94h114l-15 -72h-113l-44 -224q-16 -78 -64.5 -114.5t-136.5 -36.5
q-20 0 -40.5 2.5z" />
    <glyph glyph-name="Aringacute" unicode="&#x1fa;" horiz-adv-x="680" 
d="M462 148h-275l-74 -148h-157l365 706h221l83 -706h-148zM450 261l-34 337h-2l-170 -337h206zM382 755q-29 15 -45 42t-16 62q0 36 16 63t45 41.5t68 14.5t69 -15t46 -42t16 -62t-16.5 -62t-46 -42t-68.5 -15t-68 15zM489 822.5q14 13.5 14 36.5t-14.5 37t-38.5 14
q-23 0 -37 -14t-14 -37t14 -36.5t37 -13.5q25 0 39 13.5zM528 1183h152l-132 -137h-139z" />
    <glyph glyph-name="aringacute" unicode="&#x1fb;" horiz-adv-x="571" 
d="M471 465q49 -44 49 -130q0 -17 -3 -38t-8 -46l-50 -251h-140l11 54q-61 -67 -162 -67q-76 0 -114 37t-38 101q0 95 70.5 135t191.5 40h101q5 23 5 41q0 36 -17 53t-58 17q-43 0 -65.5 -19t-28.5 -54h-142q15 82 76.5 126.5t161.5 44.5q111 0 160 -44zM320 120.5
q29 29.5 43 95.5h-81q-55 0 -85.5 -15t-30.5 -54q0 -28 17 -42t53 -14q55 0 84 29.5zM289 566q-29 15 -45 42t-16 62q0 36 16 63t45 41.5t68 14.5t69 -15t46 -42t16 -62t-16.5 -62t-46 -42t-68.5 -15t-68 15zM396 633.5q14 13.5 14 36.5t-14.5 37t-38.5 14q-23 0 -37 -14
t-14 -37t14 -36.5t37 -13.5q25 0 39 13.5zM436 1020h143l-129 -156h-128z" />
    <glyph glyph-name="AEacute" unicode="&#x1fc;" horiz-adv-x="830" 
d="M580 586l-13 -168h240l-23 -119h-227l-14 -179h208l-24 -120h-343l14 150h-198l-81 -150h-163l396 706h516l-24 -120h-264zM408 262l31 329h-2l-177 -329h148zM597 911h152l-132 -137h-139z" />
    <glyph glyph-name="aeacute" unicode="&#x1fd;" horiz-adv-x="876" 
d="M501 216v-9q0 -56 19.5 -85t64.5 -29q65 0 88 60h145q-16 -53 -51 -90t-84 -56t-107 -19q-67 0 -112.5 25t-69.5 72q-34 -47 -86.5 -72.5t-122.5 -25.5q-85 0 -127 37t-42 104q0 93 71 132.5t191 39.5h101q5 23 5 41q0 36 -17 53t-58 17q-43 0 -65.5 -19t-28.5 -54h-142
q15 83 76.5 127t163.5 44q114 0 162 -54q32 26 72.5 40t86.5 14q62 0 108 -24.5t71.5 -73t25.5 -117.5q0 -42 -7 -78h-331zM555 377.5q-28 -29.5 -42 -77.5h191v3q0 50 -19.5 77t-59.5 27q-42 0 -70 -29.5zM320.5 121.5q29.5 30.5 42.5 95.5h-81q-55 0 -85.5 -15t-30.5 -53
q0 -58 72 -58q53 0 82.5 30.5zM544 727h143l-129 -156h-128z" />
    <glyph glyph-name="Oslashacute" unicode="&#x1fe;" horiz-adv-x="745" 
d="M696 582q29 -61 29 -147q0 -124 -44.5 -227t-129.5 -164t-200 -61q-152 0 -225 84l-74 -67h-104l141 126q-27 60 -27 145q0 123 45 226.5t129.5 164.5t198.5 61q151 0 224 -84l73 67h103zM311.5 551.5q-49.5 -46.5 -74.5 -120.5t-25 -154q0 -23 3 -44l333 310
q-36 55 -117 55q-70 0 -119.5 -46.5zM474 155q49 47 74.5 121t25.5 154q0 24 -3 45l-332 -309q35 -58 117 -58q69 0 118 47zM505 911h152l-132 -137h-139z" />
    <glyph glyph-name="oslashacute" unicode="&#x1ff;" horiz-adv-x="578" 
d="M510 418q32 -52 32 -126q0 -88 -34.5 -157t-99.5 -108.5t-154 -39.5q-93 0 -149 48l-37 -35h-88l88 80q-31 53 -31 126q0 87 34.5 156t99.5 108t153 39q92 0 148 -46l36 33h88zM238 367q-30 -26 -44.5 -68t-14.5 -88q0 -10 2 -28l194 186q-22 24 -65 24q-42 0 -72 -26z
M340.5 130q29.5 26 44 68.5t14.5 90.5q0 11 -2 27l-195 -187q23 -25 65 -25q44 0 73.5 26zM384 727h143l-129 -156h-128z" />
    <glyph glyph-name="Scommaaccent" unicode="&#x218;" horiz-adv-x="614" 
d="M88.5 39q-61.5 56 -61.5 153q0 18 1 28h160q-2 -18 -2 -26q0 -48 27 -73t82 -25q56 0 87.5 25t31.5 67q0 27 -14.5 46.5t-37.5 33t-67 33.5l-38 18q-51 24 -83 48.5t-49 57.5t-17 79q0 67 34 116.5t95 76t141 26.5q75 0 127.5 -24.5t78.5 -68.5t26 -103q0 -21 -2 -31
h-151q3 17 3 32q0 40 -24.5 63t-71.5 23q-32 0 -56 -11.5t-36.5 -31t-12.5 -45.5t13.5 -43.5t36 -30t68.5 -32.5l27 -12q60 -27 95 -50.5t55 -58.5t20 -87q0 -72 -37 -123.5t-103.5 -78.5t-154.5 -27q-129 0 -190.5 56zM213 -52h141l-82 -148h-126z" />
    <glyph glyph-name="scommaaccent" unicode="&#x219;" horiz-adv-x="490" 
d="M62.5 22.5q-49.5 38.5 -49.5 106.5q0 16 3 34h136q-3 -13 -3 -26q0 -56 67 -56q35 0 53.5 15t18.5 38q0 19 -11 32t-29.5 22.5t-49.5 21.5q-61 23 -92.5 55t-31.5 86q0 49 26.5 85t72.5 54.5t105 18.5q90 0 136 -34t46 -96q0 -8 -2 -28h-131q2 12 2 22q0 23 -14 35.5
t-43 12.5q-30 0 -46.5 -13.5t-16.5 -34.5q0 -23 22 -38.5t73 -35.5q44 -17 72.5 -35.5t43.5 -45.5t15 -65q0 -53 -29 -91.5t-79.5 -58t-114.5 -19.5q-100 0 -149.5 38.5zM126 -52h141l-82 -148h-126z" />
    <glyph glyph-name="uni021A" unicode="&#x21a;" horiz-adv-x="548" 
d="M269 586h-185l23 120h516l-23 -120h-185l-117 -586h-147zM151 -52h141l-82 -148h-126z" />
    <glyph glyph-name="uni021B" unicode="&#x21b;" horiz-adv-x="368" 
d="M95 19.5q-35 28.5 -35 92.5q0 27 8 69l41 205h-67l22 110h67l23 117h138l-23 -117h118l-21 -110h-119l-40 -197q-3 -18 -3 -31q0 -28 14 -41t43 -13q18 0 48 7l-23 -112q-43 -8 -81 -8q-75 0 -110 28.5zM88 -52h141l-82 -148h-126z" />
    <glyph glyph-name="dotlessj" unicode="&#x237;" horiz-adv-x="271" 
d="M-107 -199l24 118q11 -2 28 -2q29 0 45.5 14.5t22.5 45.5l103 519h138l-111 -554q-16 -77 -58.5 -111.5t-121.5 -34.5q-33 0 -70 5z" />
    <glyph glyph-name="schwa" unicode="&#x259;" horiz-adv-x="572" 
d="M479.5 450q56.5 -58 56.5 -158q0 -86 -35 -155.5t-99 -109.5t-149 -40q-66 0 -114.5 24.5t-75.5 73t-27 117.5q0 36 8 79h352v11q0 53 -22.5 82t-72.5 29q-71 0 -99 -60h-145q17 52 53.5 89t88 56.5t110.5 19.5q114 0 170.5 -58zM337.5 118q30.5 29 44.5 78h-210v-3
q0 -51 22 -77.5t67 -26.5q46 0 76.5 29z" />
    <glyph glyph-name="circumflex" unicode="&#x2c6;" horiz-adv-x="459" 
d="M247 728h158l68 -158h-118l-40 95l-77 -95h-124z" />
    <glyph glyph-name="caron" unicode="&#x2c7;" horiz-adv-x="459" 
d="M372 570h-157l-69 157h118l41 -94l76 94h124z" />
    <glyph glyph-name="uni02C9" unicode="&#x2c9;" horiz-adv-x="399" 
d="M138 688h299l-18 -89h-299z" />
    <glyph glyph-name="breve" unicode="&#x2d8;" horiz-adv-x="448" 
d="M145 702q0 16 1 26h97q-2 -9 -2 -25q0 -31 14.5 -46t44.5 -15q36 0 57.5 20t35.5 66h101q-38 -164 -197 -164q-152 0 -152 138z" />
    <glyph glyph-name="dotaccent" unicode="&#x2d9;" horiz-adv-x="259" 
d="M170 586.5q-18 9.5 -28 26.5t-10 38q0 33 22 54.5t56 21.5q22 0 39.5 -10t28 -27t10.5 -39q0 -21 -10.5 -38t-28 -26.5t-39.5 -9.5t-40 9.5z" />
    <glyph glyph-name="ring" unicode="&#x2da;" horiz-adv-x="365" 
d="M198 566q-29 15 -45 42t-16 62q0 36 16 63t45 41.5t68 14.5t69 -15t46 -42t16 -62t-16.5 -62t-46 -42t-68.5 -15t-68 15zM305 633.5q14 13.5 14 36.5t-14.5 37t-38.5 14q-23 0 -37 -14t-14 -37t14 -36.5t37 -13.5q25 0 39 13.5z" />
    <glyph glyph-name="ogonek" unicode="&#x2db;" horiz-adv-x="291" 
d="M6 -191.5q-29 21.5 -29 62.5q0 43 31.5 75t84.5 58l95 -4q-45 -28 -70.5 -51t-25.5 -49q0 -15 10.5 -23t27.5 -8q22 0 37 5l-16 -79q-29 -8 -66 -8q-50 0 -79 21.5z" />
    <glyph glyph-name="tilde" unicode="&#x2dc;" horiz-adv-x="459" 
d="M298 602q-19 18 -29.5 25.5t-23.5 7.5q-17 0 -28 -15.5t-19 -48.5h-84q17 81 49 120t81 39q23 0 41 -9t35 -26q20 -18 30.5 -25t23.5 -7q18 0 28.5 15.5t19.5 49.5h83q-17 -82 -48.5 -120.5t-82.5 -38.5q-46 0 -76 33z" />
    <glyph glyph-name="hungarumlaut" unicode="&#x2dd;" horiz-adv-x="483" 
d="M234 728h126l-143 -157h-102zM404 728h126l-143 -157h-102z" />
    <glyph glyph-name="gravecomb" unicode="&#x300;" 
d="M-101 571l-79 156h130l65 -156h-116z" />
    <glyph glyph-name="acutecomb" unicode="&#x301;" 
d="M-97 727h143l-129 -156h-128z" />
    <glyph glyph-name="circumflexcomb" unicode="&#x302;" 
d="M-212 728h158l68 -158h-118l-40 95l-77 -95h-124z" />
    <glyph glyph-name="tildecomb" unicode="&#x303;" 
d="M-161 602q-19 18 -29.5 25.5t-23.5 7.5q-17 0 -28 -15.5t-19 -48.5h-84q17 81 49 120t81 39q23 0 41 -9t35 -26q20 -18 30.5 -25t23.5 -7q18 0 28.5 15.5t19.5 49.5h83q-17 -82 -48.5 -120.5t-82.5 -38.5q-46 0 -76 33z" />
    <glyph glyph-name="macroncomb" unicode="&#x304;" 
d="M-261 688h299l-18 -89h-299z" />
    <glyph glyph-name="brevecomb" unicode="&#x306;" 
d="M-303 702q0 16 1 26h97q-2 -9 -2 -25q0 -31 14.5 -46t44.5 -15q36 0 57.5 20t35.5 66h101q-38 -164 -197 -164q-152 0 -152 138z" />
    <glyph glyph-name="dotaccentcomb" unicode="&#x307;" 
d="M-89 586.5q-18 9.5 -28 26.5t-10 38q0 33 22 54.5t56 21.5q22 0 39.5 -10t28 -27t10.5 -39q0 -21 -10.5 -38t-28 -26.5t-39.5 -9.5t-40 9.5z" />
    <glyph glyph-name="dieresiscomb" unicode="&#x308;" 
d="M-303 593.5q-21 20.5 -21 51.5t21 51.5t53 20.5q21 0 38 -9.5t27 -26t10 -36.5t-10 -36.5t-27 -26t-38 -9.5q-32 0 -53 20.5zM-99 593.5q-21 20.5 -21 51.5t21 51.5t53 20.5q21 0 38 -9.5t27 -26t10 -36.5t-10 -36.5t-27 -26t-38 -9.5q-32 0 -53 20.5z" />
    <glyph glyph-name="ringcomb" unicode="&#x30a;" 
d="M-167 566q-29 15 -45 42t-16 62q0 36 16 63t45 41.5t68 14.5t69 -15t46 -42t16 -62t-16.5 -62t-46 -42t-68.5 -15t-68 15zM-60 633.5q14 13.5 14 36.5t-14.5 37t-38.5 14q-23 0 -37 -14t-14 -37t14 -36.5t37 -13.5q25 0 39 13.5z" />
    <glyph glyph-name="hungarumlautcomb" unicode="&#x30b;" 
d="M-249 728h126l-143 -157h-102zM-79 728h126l-143 -157h-102z" />
    <glyph glyph-name="caroncomb" unicode="&#x30c;" 
d="M-87 570h-157l-69 157h118l41 -94l76 94h124z" />
    <glyph glyph-name="commaturnedabovecomb" unicode="&#x312;" 
d="M-22 571h-141l81 147h126z" />
    <glyph glyph-name="commaaccent" unicode="&#x326;" 
d="M-251 -52h141l-82 -148h-126z" />
    <glyph glyph-name="cedillacomb" unicode="&#x327;" 
d="M-150.5 -67.5q22.5 -23.5 22.5 -59.5q0 -52 -41.5 -77.5t-110.5 -25.5q-29 0 -55 5t-45 15l27 66q31 -15 71 -15q28 0 43.5 9t15.5 26q0 16 -15.5 24t-50.5 8h-44l44 97h95l-21 -45q42 -4 64.5 -27.5z" />
    <glyph glyph-name="ogonekcomb" unicode="&#x328;" 
d="M-285 -191.5q-29 21.5 -29 62.5q0 43 31.5 75t84.5 58l95 -4q-45 -28 -70.5 -51t-25.5 -49q0 -15 10.5 -23t27.5 -8q22 0 37 5l-16 -79q-29 -8 -66 -8q-50 0 -79 21.5z" />
    <glyph glyph-name="uni0335" unicode="&#x335;" 
d="M-349 377h324l-17 -87h-325z" />
    <glyph glyph-name="uni0336" unicode="&#x336;" 
d="M-265 672h349l-17 -86h-348z" />
    <glyph glyph-name="uni0337" unicode="&#x337;" 
d="M-90 434l145 88l-23 -115l-146 -92zM-252 359l145 86l-23 -118l-145 -83z" />
    <glyph glyph-name="uni0338" unicode="&#x338;" 
d="M-452 140v-2l289 278l1 3l83 77h89l-155 -140l1 3l-290 -278v-3l-84 -78h-89z" />
    <glyph glyph-name="delta" unicode="&#x394;" horiz-adv-x="680" 
d="M625 0h-669l365 706h221zM470 114l-50 483h-2l-244 -483h296z" />
    <glyph glyph-name="delta" unicode="&#x3b4;" horiz-adv-x="680" 
d="M625 0h-669l365 706h221zM470 114l-50 483h-2l-244 -483h296z" />
    <glyph glyph-name="omega" unicode="&#x3a9;" horiz-adv-x="719" 
d="M36 109h143l13 67q-110 61 -110 219q0 98 43 172.5t121 115t181 40.5q145 0 215 -66.5t70 -186.5q0 -73 -26 -135t-75 -107t-115 -67l-11 -52h144l-22 -109h-256l50 251q51 7 88 39t57 79.5t20 99.5q0 68 -35 105.5t-110 37.5q-60 0 -103.5 -28.5t-66 -78t-22.5 -111.5
q0 -58 21.5 -94t70.5 -49l-50 -251h-257z" />
    <glyph glyph-name="omega" unicode="&#x3c9;" horiz-adv-x="719" 
d="M36 109h143l13 67q-110 61 -110 219q0 98 43 172.5t121 115t181 40.5q145 0 215 -66.5t70 -186.5q0 -73 -26 -135t-75 -107t-115 -67l-11 -52h144l-22 -109h-256l50 251q51 7 88 39t57 79.5t20 99.5q0 68 -35 105.5t-110 37.5q-60 0 -103.5 -28.5t-66 -78t-22.5 -111.5
q0 -58 21.5 -94t70.5 -49l-50 -251h-257z" />
    <glyph glyph-name="uni03BC" unicode="&#x3bc;" horiz-adv-x="586" 
d="M569 496l-99 -496h-133l11 53q-28 -32 -63.5 -49t-76.5 -17t-64 16q-5 -69 -17 -127l-15 -78h-135l139 698h135l-58 -287q-4 -21 -4 -43q0 -34 16.5 -49.5t52.5 -15.5q48 0 77.5 27t41.5 82l57 286h135z" />
    <glyph glyph-name="pi" unicode="&#x3c0;" horiz-adv-x="699" 
d="M432 19.5q-35 28.5 -35 92.5q0 30 9 69l41 205h-137l-77 -386h-138l77 386h-90l22 110h587l-22 -110h-85l-39 -197q-4 -16 -4 -31q0 -28 14 -41t43 -13q10 0 15 1l-23 -110q-23 -4 -48 -4q-75 0 -110 28.5z" />
    <glyph glyph-name="Wgrave" unicode="&#x1e80;" horiz-adv-x="930" 
d="M1015 706l-328 -706h-154l-19 504l-216 -504h-151l-50 706h139l29 -497l209 497h154l20 -496l218 496h149zM538 774l-95 137h134l82 -137h-121z" />
    <glyph glyph-name="wgrave" unicode="&#x1e81;" horiz-adv-x="808" 
d="M845 496l-270 -496h-135l-28 310l-146 -310h-133l-71 496h141l26 -316l158 316h116l32 -316l154 316h156zM420 571l-79 156h130l65 -156h-116z" />
    <glyph glyph-name="Wacute" unicode="&#x1e82;" horiz-adv-x="930" 
d="M1015 706l-328 -706h-154l-19 504l-216 -504h-151l-50 706h139l29 -497l209 497h154l20 -496l218 496h149zM599 911h152l-132 -137h-139z" />
    <glyph glyph-name="wacute" unicode="&#x1e83;" horiz-adv-x="808" 
d="M845 496l-270 -496h-135l-28 310l-146 -310h-133l-71 496h141l26 -316l158 316h116l32 -316l154 316h156zM483 727h143l-129 -156h-128z" />
    <glyph glyph-name="Wdieresis" unicode="&#x1e84;" horiz-adv-x="930" 
d="M1015 706l-328 -706h-154l-19 504l-216 -504h-151l-50 706h139l29 -497l209 497h154l20 -496l218 496h149zM437.5 786q-16.5 9 -26 25t-9.5 35q0 31 20.5 51t52.5 20q20 0 36.5 -9t26 -25.5t9.5 -36.5q0 -19 -9.5 -35t-26 -25t-36.5 -9q-21 0 -37.5 9zM655.5 786
q-16.5 9 -26 25t-9.5 35q0 31 20.5 51t51.5 20q20 0 37 -9t26.5 -25.5t9.5 -36.5q0 -19 -9.5 -35t-26.5 -25t-37 -9t-36.5 9z" />
    <glyph glyph-name="wdieresis" unicode="&#x1e85;" horiz-adv-x="808" 
d="M845 496l-270 -496h-135l-28 310l-146 -310h-133l-71 496h141l26 -316l158 316h116l32 -316l154 316h156zM312 593.5q-21 20.5 -21 51.5t21 51.5t53 20.5q21 0 38 -9.5t27 -26t10 -36.5t-10 -36.5t-27 -26t-38 -9.5q-32 0 -53 20.5zM516 593.5q-21 20.5 -21 51.5t21 51.5
t53 20.5q21 0 38 -9.5t27 -26t10 -36.5t-10 -36.5t-27 -26t-38 -9.5q-32 0 -53 20.5z" />
    <glyph glyph-name="Germandbls" unicode="&#x1e9e;" horiz-adv-x="676" 
d="M712 701l-184 -296q55 -21 82 -63.5t27 -99.5q0 -74 -37.5 -129.5t-104.5 -86t-154 -30.5q-50 0 -95 8l24 121q30 -5 64 -5q76 0 115 32.5t39 89.5q0 45 -31.5 70t-92.5 25q-15 0 -22 -1v3l152 244h-200l-117 -583h-146l141 706h541z" />
    <glyph glyph-name="Ygrave" unicode="&#x1ef2;" horiz-adv-x="599" 
d="M238 303l-141 403h146l92 -260l180 260h169l-300 -403l-61 -303h-146zM357 774l-95 137h134l82 -137h-121z" />
    <glyph glyph-name="ygrave" unicode="&#x1ef3;" horiz-adv-x="546" 
d="M582 496l-413 -696h-148l120 201l-79 495h139l44 -339l182 339h155zM292 571l-79 156h130l65 -156h-116z" />
    <glyph glyph-name="uni2009" unicode="&#x2009;" horiz-adv-x="74" 
 />
    <glyph glyph-name="uni2011" unicode="&#x2011;" horiz-adv-x="600" 
d="M76 350h292l-23 -117h-293z" />
    <glyph glyph-name="endash" unicode="&#x2013;" horiz-adv-x="499" 
d="M76 352h389l-24 -118h-388z" />
    <glyph glyph-name="emdash" unicode="&#x2014;" horiz-adv-x="968" 
d="M76 352h857l-23 -118h-857z" />
    <glyph glyph-name="quoteleft" unicode="&#x2018;" horiz-adv-x="287" 
d="M222 424h-149l156 282h112z" />
    <glyph glyph-name="quoteright" unicode="&#x2019;" horiz-adv-x="287" 
d="M192 706h149l-156 -282h-112z" />
    <glyph glyph-name="quotesinglbase" unicode="&#x201a;" horiz-adv-x="287" 
d="M80 146h149l-156 -282h-112z" />
    <glyph glyph-name="quotedblleft" unicode="&#x201c;" horiz-adv-x="501" 
d="M222 424h-149l156 282h112zM436 424h-149l155 282h112z" />
    <glyph glyph-name="quotedblright" unicode="&#x201d;" horiz-adv-x="501" 
d="M406 706h149l-156 -282h-112zM192 706h149l-156 -282h-112z" />
    <glyph glyph-name="quotedblbase" unicode="&#x201e;" horiz-adv-x="501" 
d="M294 146h149l-156 -282h-112zM80 146h149l-156 -282h-112z" />
    <glyph glyph-name="dagger" unicode="&#x2020;" horiz-adv-x="431" 
d="M436 427h-114l-85 -427h-142l85 427h-113l25 124h113l31 155h142l-31 -155h114z" />
    <glyph glyph-name="daggerdbl" unicode="&#x2021;" horiz-adv-x="431" 
d="M325 439l-35 -172h114l-25 -124h-113l-29 -143h-142l29 143h-114l25 124h113l35 172h-114l25 124h113l29 143h142l-29 -143h114l-25 -124h-113z" />
    <glyph glyph-name="bullet" unicode="&#x2022;" horiz-adv-x="455" 
d="M179.5 240.5q-31.5 17.5 -49 49t-17.5 72.5q0 42 17 72.5t48.5 47t73.5 16.5q40 0 71 -16.5t48 -47t17 -72.5q0 -41 -17.5 -72.5t-48 -49t-70.5 -17.5q-41 0 -72.5 17.5z" />
    <glyph glyph-name="ellipsis" unicode="&#x2026;" horiz-adv-x="854" 
d="M345 -6q-20 11 -31.5 31t-11.5 45t11.5 45t31.5 31t46 11t46 -11t31 -31t11 -45t-11 -45t-31 -31t-46 -11t-46 11zM616 -6q-20 11 -31.5 31t-11.5 45t11.5 45t31.5 31t46 11t46 -11t31 -31t11 -45t-11 -45t-31 -31t-46 -11t-46 11zM75 -6q-20 11 -31.5 31t-11.5 45
t11.5 45t31.5 31t46 11t46 -11t31 -31t11 -45t-11 -45t-31 -31t-46 -11t-46 11z" />
    <glyph glyph-name="perthousand" unicode="&#x2030;" horiz-adv-x="1139" 
d="M129.5 429q-31.5 36 -31.5 99q0 53 19.5 95.5t57 66.5t90.5 24q65 0 95.5 -35.5t30.5 -98.5q0 -53 -19 -95.5t-56.5 -67t-89.5 -24.5q-65 0 -96.5 36zM656 706h110l-608 -706h-110zM284.5 501.5q16.5 30.5 16.5 73.5q0 30 -10.5 45.5t-33.5 15.5q-34 0 -51 -30.5
t-17 -73.5q0 -30 10.5 -45.5t33.5 -15.5q35 0 51.5 30.5zM454 28.5q-32 36.5 -32 99.5q0 53 19.5 95.5t57 66.5t90.5 24q65 0 95.5 -36t30.5 -98q0 -54 -19 -96.5t-56.5 -67t-89.5 -24.5q-64 0 -96 36.5zM821.5 28.5q-31.5 36.5 -31.5 99.5q0 53 19.5 95.5t57 66.5t89.5 24
q65 0 96 -36t31 -98q0 -54 -19 -96.5t-56.5 -67t-90.5 -24.5q-64 0 -95.5 36.5zM608.5 101q16.5 30 16.5 73q0 31 -10.5 46.5t-33.5 15.5q-34 0 -51 -30.5t-17 -73.5q0 -30 10.5 -45.5t33.5 -15.5q35 0 51.5 30zM976 101q16 30 16 73q0 31 -10 46.5t-33 15.5
q-35 0 -52 -30.5t-17 -73.5q0 -30 10.5 -45.5t34.5 -15.5q35 0 51 30z" />
    <glyph glyph-name="guilsinglleft" unicode="&#x2039;" horiz-adv-x="328" 
d="M30 291l174 160h150l-184 -169l110 -159h-135z" />
    <glyph glyph-name="guilsinglright" unicode="&#x203a;" horiz-adv-x="328" 
d="M313 282l-174 -159h-150l184 168l-110 160h136z" />
    <glyph glyph-name="fraction" unicode="&#x2044;" horiz-adv-x="218" 
d="M355 706h99l-549 -706h-100z" />
    <glyph glyph-name="zero.superior" unicode="&#x2070;" horiz-adv-x="438" 
d="M156 471q-38 43 -38 118q0 31 7 69q17 82 65 130t128 48q81 0 119 -43t38 -118q0 -30 -7 -69q-15 -82 -64 -130t-130 -48q-80 0 -118 43zM329.5 548q18.5 26 26.5 69q6 30 6 58q0 34 -11 50.5t-37 16.5q-58 0 -78 -95q-6 -30 -6 -58q0 -34 11 -50.5t38 -16.5
q32 0 50.5 26z" />
    <glyph glyph-name="four.superior" unicode="&#x2074;" horiz-adv-x="415" 
d="M292 513h-235v2l208 311h194l-45 -223h58l-17 -90h-59l-15 -75h-105zM309 603l38 188l-119 -188h81z" />
    <glyph glyph-name="five.superior" unicode="&#x2075;" horiz-adv-x="389" 
d="M129 459.5q-38 31.5 -38 89.5q0 11 2 25l104 -1l-1 -14q0 -48 54 -48q29 0 45 15.5t16 39.5q0 63 -110 63q-19 0 -40.5 -2t-39.5 -5l77 204h257l-30 -80h-156l-20 -54q15 3 35 3q70 0 104.5 -33t34.5 -89q0 -45 -22.5 -77.5t-62.5 -50t-93 -17.5q-78 0 -116 31.5z" />
    <glyph glyph-name="six.superior" unicode="&#x2076;" horiz-adv-x="427" 
d="M424 660.5q33 -31.5 33 -83.5q0 -44 -24 -78t-65 -52.5t-92 -18.5q-166 0 -166 157q0 72 26 129t75.5 89.5t117.5 32.5q71 0 108.5 -33t39.5 -87h-102q-3 20 -16 30.5t-39 10.5q-37 0 -61 -27t-33 -71q20 16 46.5 24.5t56.5 8.5q62 0 95 -31.5zM324.5 526
q17.5 18 17.5 44q0 22 -13 34t-41 12q-30 0 -48 -17.5t-18 -43.5q0 -22 14 -34.5t40 -12.5q31 0 48.5 18z" />
    <glyph glyph-name="seven.superior" unicode="&#x2077;" horiz-adv-x="366" 
d="M275 730h-155l20 96h328l-249 -388h-131z" />
    <glyph glyph-name="eight.superior" unicode="&#x2078;" horiz-adv-x="393" 
d="M431.5 675q-23.5 -26 -62.5 -33q56 -22 56 -86q0 -41 -22.5 -70t-62 -43.5t-88.5 -14.5q-78 0 -120.5 30t-42.5 87q0 43 26 71t73 34q-27 11 -40.5 31.5t-13.5 47.5q0 32 21.5 56.5t58 37.5t82.5 13q49 0 84.5 -12t55 -35t19.5 -54q0 -34 -23.5 -60zM253 755
q-14 -13 -14 -37q0 -38 51 -38q26 0 41.5 13.5t15.5 35.5q0 20 -13 29.5t-40 9.5t-41 -13zM301.5 520q17.5 15 17.5 41q0 20 -14.5 31t-42.5 11t-45 -14t-17 -40q0 -21 14 -32.5t41 -11.5q29 0 46.5 15z" />
    <glyph glyph-name="nine.superior" unicode="&#x2079;" horiz-adv-x="427" 
d="M493 679q0 -72 -26 -129t-75.5 -89.5t-117.5 -32.5q-71 0 -108.5 33t-39.5 87h102q3 -20 16 -30.5t39 -10.5q37 0 61 27t33 71q-20 -16 -46.5 -24.5t-56.5 -8.5q-62 0 -95 31.5t-33 83.5q0 44 24 78t65 52.5t92 18.5q166 0 166 -157zM363 666q18 18 18 43q0 22 -14 34.5
t-40 12.5q-30 0 -48 -17.5t-18 -44.5q0 -22 13 -34t41 -12q30 0 48 18z" />
    <glyph glyph-name="uni207A" unicode="&#x207a;" horiz-adv-x="358" 
d="M393 595h-106l-20 -99h-78l20 99h-106l16 78h106l20 99h77l-20 -99h107z" />
    <glyph glyph-name="uni207B" unicode="&#x207b;" horiz-adv-x="358" 
d="M119 673h290l-16 -78h-290z" />
    <glyph glyph-name="uni207C" unicode="&#x207c;" horiz-adv-x="356" 
d="M129 722h288l-14 -67h-287zM107 613h288l-15 -68h-287z" />
    <glyph glyph-name="uni207D" unicode="&#x207d;" horiz-adv-x="264" 
d="M147 458.5q-9 46.5 -9 98.5q0 98 34.5 181.5t101.5 166.5h97q-74 -86 -112.5 -173.5t-38.5 -185.5q0 -49 8.5 -94.5t24.5 -92.5h-79q-18 53 -27 99.5z" />
    <glyph glyph-name="uni207E" unicode="&#x207e;" horiz-adv-x="264" 
d="M271.5 807q9.5 -47 9.5 -99q0 -98 -34.5 -181.5t-102.5 -167.5h-96q73 86 111.5 174t38.5 186q0 95 -33 186h79q18 -51 27.5 -98z" />
    <glyph glyph-name="n.superior" unicode="&#x207f;" horiz-adv-x="396" 
d="M402.5 723.5q23.5 -25.5 23.5 -72.5q0 -17 -4 -38l-35 -175h-103l33 161q2 16 2 22q0 21 -9.5 30t-30.5 9t-34 -11.5t-18 -37.5l-35 -173h-104l61 302h99l-6 -31q38 40 92 40q45 0 68.5 -25.5z" />
    <glyph glyph-name="zero.inferior" unicode="&#x2080;" horiz-adv-x="438" 
d="M44 -87q-38 43 -38 118q0 31 7 69q17 82 65 130t128 48q81 0 119 -43t38 -118q0 -30 -7 -69q-15 -82 -64 -130t-130 -48q-80 0 -118 43zM217.5 -10q18.5 26 26.5 69q6 30 6 58q0 34 -11 50.5t-37 16.5q-58 0 -78 -95q-6 -30 -6 -58q0 -34 11 -50.5t38 -16.5q32 0 50.5 26
z" />
    <glyph glyph-name="one.inferior" unicode="&#x2081;" horiz-adv-x="283" 
d="M79 170h-71l37 98h166l-78 -388h-112z" />
    <glyph glyph-name="two.inferior" unicode="&#x2082;" horiz-adv-x="379" 
d="M-56 -115l214 186q36 32 50 49t14 36q0 18 -12.5 28t-34.5 10q-51 0 -63 -58h-106q12 66 56 104.5t117 38.5q74 0 111.5 -29t37.5 -83q0 -34 -15 -60.5t-46 -51.5l-98 -79h127l-19 -96h-334z" />
    <glyph glyph-name="three.inferior" unicode="&#x2083;" horiz-adv-x="375" 
d="M281.5 48q13.5 -19 13.5 -49q0 -41 -22 -70.5t-61.5 -44.5t-90.5 -15q-76 0 -112.5 31.5t-36.5 89.5q0 16 3 35l98 -1q-3 -10 -3 -20q0 -51 54 -51q30 0 46.5 14.5t16.5 38.5q0 22 -13.5 30.5t-40.5 8.5h-16l13 68h18q31 0 47.5 11.5t16.5 33.5q0 17 -11.5 27t-34.5 10
q-28 0 -43 -15t-19 -39h-100q13 66 58.5 102t118.5 36q67 0 103.5 -28.5t36.5 -76.5q0 -35 -21.5 -60t-59.5 -37q28 -10 41.5 -29z" />
    <glyph glyph-name="four.inferior" unicode="&#x2084;" horiz-adv-x="415" 
d="M180 -45h-235v2l208 311h194l-45 -223h58l-17 -90h-59l-15 -75h-105zM197 45l38 188l-119 -188h81z" />
    <glyph glyph-name="five.inferior" unicode="&#x2085;" horiz-adv-x="389" 
d="M17 -98.5q-38 31.5 -38 89.5q0 11 2 25l104 -1l-1 -14q0 -48 54 -48q29 0 45 15.5t16 39.5q0 63 -110 63q-19 0 -40.5 -2t-39.5 -5l77 204h257l-30 -80h-156l-20 -54q15 3 35 3q70 0 104.5 -33t34.5 -89q0 -45 -22.5 -77.5t-62.5 -50t-93 -17.5q-78 0 -116 31.5z" />
    <glyph glyph-name="six.inferior" unicode="&#x2086;" horiz-adv-x="427" 
d="M312 102.5q33 -31.5 33 -83.5q0 -44 -24 -78t-65 -52.5t-92 -18.5q-166 0 -166 157q0 72 26 129t75.5 89.5t117.5 32.5q71 0 108.5 -33t39.5 -87h-102q-3 20 -16 30.5t-39 10.5q-37 0 -61 -27t-33 -71q20 16 46.5 24.5t56.5 8.5q62 0 95 -31.5zM212.5 -32
q17.5 18 17.5 44q0 22 -13 34t-41 12q-30 0 -48 -17.5t-18 -43.5q0 -22 14 -34.5t40 -12.5q31 0 48.5 18z" />
    <glyph glyph-name="seven.inferior" unicode="&#x2087;" horiz-adv-x="366" 
d="M163 172h-155l20 96h328l-249 -388h-131z" />
    <glyph glyph-name="eight.inferior" unicode="&#x2088;" horiz-adv-x="393" 
d="M319.5 117q-23.5 -26 -62.5 -33q56 -22 56 -86q0 -41 -22.5 -70t-62 -43.5t-88.5 -14.5q-78 0 -120.5 30t-42.5 87q0 43 26 71t73 34q-27 11 -40.5 31.5t-13.5 47.5q0 32 21.5 56.5t58 37.5t82.5 13q49 0 84.5 -12t55 -35t19.5 -54q0 -34 -23.5 -60zM141 197
q-14 -13 -14 -37q0 -38 51 -38q26 0 41.5 13.5t15.5 35.5q0 20 -13 29.5t-40 9.5t-41 -13zM189.5 -38q17.5 15 17.5 41q0 20 -14.5 31t-42.5 11t-45 -14t-17 -40q0 -21 14 -32.5t41 -11.5q29 0 46.5 15z" />
    <glyph glyph-name="nine.inferior" unicode="&#x2089;" horiz-adv-x="427" 
d="M381 121q0 -72 -26 -129t-75.5 -89.5t-117.5 -32.5q-71 0 -108.5 33t-39.5 87h102q3 -20 16 -30.5t39 -10.5q37 0 61 27t33 71q-20 -16 -46.5 -24.5t-56.5 -8.5q-62 0 -95 31.5t-33 83.5q0 44 24 78t65 52.5t92 18.5q166 0 166 -157zM251 108q18 18 18 43q0 22 -14 34.5
t-40 12.5q-30 0 -48 -17.5t-18 -44.5q0 -22 13 -34t41 -12q30 0 48 18z" />
    <glyph glyph-name="uni208A" unicode="&#x208a;" horiz-adv-x="357" 
d="M281 37h-106l-20 -99h-78l20 99h-106l16 78h106l20 99h77l-20 -99h107z" />
    <glyph glyph-name="uni208B" unicode="&#x208b;" horiz-adv-x="357" 
d="M7 115h290l-16 -78h-290z" />
    <glyph glyph-name="uni208C" unicode="&#x208c;" horiz-adv-x="355" 
d="M17 164h288l-14 -67h-287zM-5 55h288l-15 -68h-287z" />
    <glyph glyph-name="uni208D" unicode="&#x208d;" horiz-adv-x="264" 
d="M35 -99.5q-9 46.5 -9 98.5q0 98 34.5 181.5t101.5 166.5h97q-74 -86 -112.5 -173.5t-38.5 -185.5q0 -49 8.5 -94.5t24.5 -92.5h-79q-18 53 -27 99.5z" />
    <glyph glyph-name="uni208E" unicode="&#x208e;" horiz-adv-x="264" 
d="M159.5 249q9.5 -47 9.5 -99q0 -98 -34.5 -181.5t-102.5 -167.5h-96q73 86 111.5 174t38.5 186q0 95 -33 186h79q18 -51 27.5 -98z" />
    <glyph glyph-name="uni2099" unicode="&#x2099;" horiz-adv-x="396" 
d="M283.5 130.5q23.5 -25.5 23.5 -72.5q0 -17 -4 -38l-35 -175h-103l33 161q2 16 2 22q0 21 -9.5 30t-30.5 9t-34 -11.5t-18 -37.5l-35 -173h-104l61 302h99l-6 -31q38 40 92 40q45 0 68.5 -25.5z" />
    <glyph glyph-name="Euro" unicode="&#x20ac;" horiz-adv-x="751" 
d="M597 441l1 17q0 66 -34.5 103t-97.5 37t-109.5 -37.5t-73.5 -102.5h216l-13 -67h-225q-7 -31 -10 -70h221l-14 -67h-208q5 -68 40 -106.5t99 -38.5q128 0 164 140h158q-16 -81 -62 -141t-115 -92.5t-152 -32.5q-141 0 -209.5 72.5t-74.5 198.5h-61l13 67h50q3 39 10 70
h-45l13 67h50q27 79 77.5 138.5t120.5 93t154 33.5q82 0 142.5 -30.5t93 -86.5t32.5 -131q0 -14 -3 -34h-148z" />
    <glyph glyph-name="uni20B9" unicode="&#x20b9;" horiz-adv-x="673" 
d="M540 634q42 -42 47 -121h121l-15 -72h-109q-14 -84 -77.5 -131.5t-168.5 -47.5l189 -262h-159l-244 350h183q56 0 89.5 23.5t45.5 67.5h-339l15 72h329q-4 42 -27.5 64t-72.5 22h-212l21 107h590l-15 -72h-191z" />
    <glyph glyph-name="uni20BA" unicode="&#x20ba;" horiz-adv-x="609" 
d="M599 306q-21 -104 -58 -170t-104.5 -101t-173.5 -35h-205l49 244l-79 -33l16 81l79 34l17 85l-78 -33l16 81l78 33l43 214h144l-31 -157l191 81l-16 -81l-192 -81l-16 -84l191 80l-16 -82l-192 -80l-36 -180h37q90 0 135.5 47.5t64.5 136.5h136z" />
    <glyph glyph-name="uni20BC" unicode="&#x20bc;" horiz-adv-x="830" 
d="M722.5 547q49.5 -55 49.5 -143q0 -41 -9 -85l-63 -319h-138l68 346q5 23 5 43q0 44 -22.5 74.5t-68.5 34.5l-100 -498h-147l100 499q-62 -1 -98.5 -37t-49.5 -103l-70 -359h-146l73 377q22 112 100 174.5t213 62.5h1l18 92h147l-19 -94q107 -10 156.5 -65z" />
    <glyph glyph-name="uni2113" unicode="&#x2113;" horiz-adv-x="484" 
d="M466.5 675.5q38.5 -38.5 38.5 -121.5q0 -40 -11 -95q-22 -113 -94.5 -178t-198.5 -89v-2q0 -47 23.5 -66.5t76.5 -19.5q45 0 93 15l-23 -114q-48 -13 -105 -13q-207 0 -207 180v5q-17 -1 -53 -1l20 99q33 0 48 1l44 216q16 79 44.5 128t73 71.5t108.5 22.5
q84 0 122.5 -38.5zM367 553q0 36 -9 50t-29 14q-25 0 -41 -21t-26 -74l-44 -223q58 20 92 59.5t47 104.5q10 54 10 90z" />
    <glyph glyph-name="uni2117" unicode="&#x2117;" horiz-adv-x="809" 
d="M213.5 26q-73.5 43 -110.5 117t-37 168q0 112 51 206.5t141 150t202 55.5q104 0 177.5 -41.5t111 -114t37.5 -164.5q0 -115 -51 -211t-141 -152.5t-202 -56.5q-105 0 -178.5 43zM564 91q75 49 116 132t41 181q0 76 -30 134.5t-88.5 91.5t-142.5 33q-96 0 -171.5 -47.5
t-117 -128.5t-41.5 -177q0 -77 30 -138t89 -95.5t144 -34.5q96 0 171 49zM324 588h173q65 0 100.5 -32.5t35.5 -98.5q0 -48 -19.5 -84.5t-56.5 -56.5t-88 -20h-88l-36 -175h-115zM449 382q34 0 50.5 19t16.5 50q0 28 -15 39t-39 11h-40l-25 -119h52z" />
    <glyph glyph-name="trademark" unicode="&#x2122;" horiz-adv-x="682" 
d="M152 631h-66l15 75h221l-15 -75h-65l-47 -235h-90zM355 706h101l42 -187l116 187h111l-62 -310h-85l37 186l-117 -186h-40l-43 186l-37 -186h-85z" />
    <glyph glyph-name="Omega" unicode="&#x2126;" horiz-adv-x="719" 
d="M36 109h143l13 67q-110 61 -110 219q0 98 43 172.5t121 115t181 40.5q145 0 215 -66.5t70 -186.5q0 -73 -26 -135t-75 -107t-115 -67l-11 -52h144l-22 -109h-256l50 251q51 7 88 39t57 79.5t20 99.5q0 68 -35 105.5t-110 37.5q-60 0 -103.5 -28.5t-66 -78t-22.5 -111.5
q0 -58 21.5 -94t70.5 -49l-50 -251h-257z" />
    <glyph glyph-name="estimated" unicode="&#x212e;" horiz-adv-x="856" 
d="M246 32.5q-87 43.5 -139.5 121.5t-52.5 176q0 96 51 174t138 122.5t190 44.5q102 0 188.5 -45t138 -124.5t51.5 -177.5h-608q-6 0 -8 -2.5t-2 -8.5v-197q47 -51 110 -78.5t130 -27.5q73 0 139 32.5t113 88.5h57q-56 -68 -138 -105t-171 -37q-100 0 -187 43.5zM664 347
q5 0 7 2.5t2 8.5v184q-44 51 -108 79.5t-132 28.5q-70 0 -133 -28.5t-107 -78.5v-185q0 -6 2 -8.5t8 -2.5h461z" />
    <glyph glyph-name="partialdiff" unicode="&#x2202;" horiz-adv-x="626" 
d="M566.5 649.5q58.5 -73.5 58.5 -202.5q0 -126 -43 -232t-124 -169t-189 -63q-83 0 -138 27.5t-82 76t-27 112.5q0 76 32 136t90.5 94.5t134.5 34.5t124 -30t67 -83q11 52 11 97q0 163 -115 163q-47 0 -78.5 -26t-47.5 -68h-141q20 63 59 109.5t94.5 71.5t123.5 25
q132 0 190.5 -73.5zM354.5 118.5q32.5 19.5 50.5 53t18 72.5q0 54 -27.5 85t-81.5 31q-43 0 -75 -20.5t-49 -55t-17 -75.5q0 -51 26 -80.5t80 -29.5q43 0 75.5 19.5z" />
    <glyph glyph-name="Delta" unicode="&#x2206;" horiz-adv-x="680" 
d="M625 0h-669l365 706h221zM470 114l-50 483h-2l-244 -483h296z" />
    <glyph glyph-name="product" unicode="&#x220f;" horiz-adv-x="728" 
d="M172 706h567l-181 -907h-147l157 785h-274l-157 -785h-146z" />
    <glyph glyph-name="summation" unicode="&#x2211;" horiz-adv-x="596" 
d="M266 270l-137 436h471l-24 -121h-254l100 -333l-223 -331h261l-24 -121h-495z" />
    <glyph glyph-name="minus" unicode="&#x2212;" horiz-adv-x="589" 
d="M75 346h478l-22 -109h-478z" />
    <glyph glyph-name="uni2215" unicode="&#x2215;" horiz-adv-x="589" 
d="M503 706h134l-424 -706h-134z" />
    <glyph glyph-name="uni2219" unicode="&#x2219;" horiz-adv-x="589" 
d="M273 293q-20 11 -31.5 31t-11.5 45t11.5 45t31.5 31t46 11t46 -11t31 -31t11 -45t-11 -45t-31 -31t-46 -11t-46 11z" />
    <glyph glyph-name="radical" unicode="&#x221a;" horiz-adv-x="714" 
d="M799 706l-471 -909h-154l-74 430l-100 -29l28 138l198 51l53 -406l359 725h161z" />
    <glyph glyph-name="infinity" unicode="&#x221e;" horiz-adv-x="830" 
d="M720 438q37 -24 55 -66t18 -96q0 -65 -28 -120.5t-78.5 -88.5t-114.5 -33q-63 0 -102.5 30t-66.5 83q-46 -53 -93.5 -83t-106.5 -30q-56 0 -93.5 24t-55 66t-17.5 96q0 64 28.5 119.5t79 89t114.5 33.5q63 0 103 -30t68 -83q44 53 91.5 83t105.5 30q56 0 93 -24z
M290.5 180q29.5 25 63.5 73q-18 43 -39 65.5t-55 22.5q-29 0 -50.5 -16t-32.5 -41t-11 -53q0 -35 15.5 -55.5t45.5 -20.5q34 0 63.5 25zM621.5 171q20.5 16 31.5 41.5t11 52.5q0 35 -15 55.5t-46 20.5q-33 0 -62 -25t-62 -73q19 -43 40 -65.5t55 -22.5q27 0 47.5 16z" />
    <glyph glyph-name="integral" unicode="&#x222b;" horiz-adv-x="387" 
d="M-90 -199l45 116q10 -1 24 -1q31 0 50 14.5t27 45.5l162 585q21 77 66.5 113.5t122.5 36.5q40 0 71 -7l-47 -119q-8 2 -17 2q-51 0 -67 -59l-163 -585q-21 -78 -66 -114t-123 -36q-48 0 -85 8z" />
    <glyph glyph-name="approxequal" unicode="&#x2248;" horiz-adv-x="589" 
d="M366 315q-17 5 -31.5 13t-26.5 16q-19 12 -32.5 18t-29.5 6q-22 0 -35.5 -14t-22.5 -41h-96q19 76 55.5 116t93.5 40q29 0 49 -8.5t47 -24.5q19 -13 31.5 -19t29.5 -6q22 0 35.5 14t21.5 41h97q-21 -78 -56.5 -117t-92.5 -39q-20 0 -37 5zM327 118q-17 5 -31.5 13
t-26.5 16q-20 13 -33 19t-29 6q-22 0 -35.5 -14.5t-22.5 -41.5h-96q19 76 55.5 116t93.5 40q29 0 50 -8.5t46 -24.5q19 -13 31.5 -19t28.5 -6q23 0 36.5 14t20.5 41h98q-21 -78 -56.5 -117t-92.5 -39q-20 0 -37 5z" />
    <glyph glyph-name="notequal" unicode="&#x2260;" horiz-adv-x="589" 
d="M393 337l-79 -91h219l-22 -109h-279l-90 -105h-84l89 105h-114l22 109h174l79 91h-235l22 108h295l90 106h85l-90 -106h98l-22 -108h-158z" />
    <glyph glyph-name="lessequal" unicode="&#x2264;" horiz-adv-x="589" 
d="M572 439l-420 -79l388 -80l-23 -112l-456 107l14 70l19 98l500 109zM34 141h478l-22 -110h-478z" />
    <glyph glyph-name="greaterequal" unicode="&#x2265;" horiz-adv-x="589" 
d="M558 374l-19 -99l-499 -107l22 112l419 79l-387 80l22 113l456 -109zM34 141h478l-22 -110h-478z" />
    <glyph glyph-name="lozenge" unicode="&#x25ca;" horiz-adv-x="557" 
d="M538 253l-269 -454h-159l-88 454l269 453h159zM402 277l-51 291l-191 -339l48 -293z" />
    <glyph glyph-name="ff" unicode="&#xfb00;" horiz-adv-x="703" 
d="M108 386h-63l22 110h62l15 74q16 78 63 114.5t131 36.5q49 0 85 -9l-22 -110q-18 6 -44 6q-34 0 -54.5 -18t-27.5 -52l-8 -42h110l-22 -110h-110l-77 -386h-138zM464 386h-63l22 110h62l15 74q16 78 63 114.5t131 36.5q49 0 85 -9l-22 -110q-18 6 -44 6q-34 0 -54.5 -18
t-27.5 -52l-8 -42h110l-22 -110h-110l-77 -386h-138z" />
    <glyph glyph-name="fi" unicode="&#xfb01;" horiz-adv-x="619" 
d="M108 386h-63l22 110h62l15 74q16 78 63 114.5t131 36.5q49 0 85 -9l-22 -110q-18 6 -44 6q-34 0 -54.5 -18t-27.5 -52l-8 -42h110l-22 -110h-110l-77 -386h-138zM525 586q-18 10 -28 27t-10 38t10 38.5t28 27.5t40 10t39.5 -10t28 -27.5t10.5 -38.5t-10.5 -38t-28 -27
t-39.5 -10t-40 10zM464 496h138l-99 -496h-138z" />
    <glyph glyph-name="fl" unicode="&#xfb02;" horiz-adv-x="619" 
d="M108 386h-63l22 110h62l15 74q16 78 63 114.5t131 36.5q49 0 85 -9l-22 -110q-18 6 -44 6q-34 0 -54.5 -18t-27.5 -52l-8 -42h110l-22 -110h-110l-77 -386h-138zM506 706h138l-141 -706h-138z" />
    <glyph glyph-name="ffi" unicode="&#xfb03;" horiz-adv-x="974" 
d="M108 386h-63l22 110h62l15 74q16 78 63 114.5t131 36.5q49 0 85 -9l-22 -110q-18 6 -44 6q-34 0 -54.5 -18t-27.5 -52l-8 -42h110l-22 -110h-110l-77 -386h-138zM464 386h-63l22 110h62l15 74q16 78 63 114.5t131 36.5q49 0 85 -9l-22 -110q-18 6 -44 6q-34 0 -54.5 -18
t-27.5 -52l-8 -42h110l-22 -110h-110l-77 -386h-138zM880 586q-18 10 -28 27t-10 38t10 38.5t28 27.5t40 10t39.5 -10t28 -27.5t10.5 -38.5t-10.5 -38t-28 -27t-39.5 -10t-40 10zM819 496h138l-99 -496h-138z" />
    <glyph glyph-name="ffl" unicode="&#xfb04;" horiz-adv-x="974" 
d="M108 386h-63l22 110h62l15 74q16 78 63 114.5t131 36.5q49 0 85 -9l-22 -110q-18 6 -44 6q-34 0 -54.5 -18t-27.5 -52l-8 -42h110l-22 -110h-110l-77 -386h-138zM464 386h-63l22 110h62l15 74q16 78 63 114.5t131 36.5q49 0 85 -9l-22 -110q-18 6 -44 6q-34 0 -54.5 -18
t-27.5 -52l-8 -42h110l-22 -110h-110l-77 -386h-138zM861 706h138l-141 -706h-138z" />
    <glyph glyph-name="uniFEFF" unicode="&#xfeff;" 
 />
    <glyph glyph-name="uni00A40301" horiz-adv-x="376" 
d="M-33 3l26 131q15 -4 40 -4q41 0 66.5 11.5t41 37.5t24.5 71l92 456h146l-98 -494q-23 -110 -87 -162.5t-182 -52.5q-40 0 -69 6zM372 911h152l-132 -137h-139z" />
    <glyph glyph-name="M.ss01" horiz-adv-x="844" 
d="M172 706h169l108 -275l214 275h192l-141 -706h-142l106 531l-224 -286h-63l-112 286l-106 -531h-142z" />
    <glyph glyph-name="Q.ss02" horiz-adv-x="745" 
d="M698 254.5q-27 -84.5 -79 -147.5t-125 -95l42 -126l-134 -45l-42 142h-9q-149 0 -219 77.5t-70 210.5q0 123 45 226.5t129.5 164.5t198.5 61q101 0 165.5 -37t94.5 -101.5t30 -149.5q0 -96 -27 -180.5zM474 155q49 47 74.5 121t25.5 154q0 79 -33 123.5t-110 44.5
q-70 0 -119.5 -46.5t-74.5 -120.5t-25 -154q0 -77 35 -123t109 -46q69 0 118 47z" />
    <glyph glyph-name="Oslash.ss04" horiz-adv-x="745" 
d="M695 585q30 -63 30 -150q0 -124 -44.5 -227t-129.5 -164t-200 -61q-114 0 -184 47l-108 -112l-89 85l120 119q-28 63 -28 149q0 123 45 226.5t129.5 164.5t198.5 61q113 0 182 -47l108 111l89 -85zM474 155q49 47 74.5 121t25.5 154q0 79 -33 123.5t-110 44.5
q-70 0 -119.5 -46.5t-74.5 -120.5t-25 -154q0 -77 35 -123t109 -46q69 0 118 47z" />
    <glyph glyph-name="i.loclTRK" horiz-adv-x="271" 
d="M116 496h138l-99 -496h-138zM177 586.5q-18 9.5 -28 26.5t-10 38q0 33 22 54.5t56 21.5q22 0 39.5 -10t28 -27t10.5 -39q0 -21 -10.5 -38t-28 -26.5t-39.5 -9.5t-40 9.5z" />
    <glyph glyph-name="uni006A0301" horiz-adv-x="271" 
d="M-107 -199l24 118q11 -2 28 -2q29 0 45.5 14.5t22.5 45.5l103 519h138l-111 -554q-16 -77 -58.5 -111.5t-121.5 -34.5q-33 0 -70 5zM218 727h144l-113 -156h-126z" />
    <glyph glyph-name="oslash.ss04" horiz-adv-x="578" 
d="M513 413q29 -51 29 -121q0 -88 -34.5 -157t-99.5 -108.5t-154 -39.5q-60 0 -107 21l-68 -82l-88 74l75 84q-29 51 -29 122q0 87 34.5 156t99.5 108t153 39q61 0 106 -20l68 80l89 -73zM340.5 130q29.5 26 44 68.5t14.5 90.5q0 104 -89 104q-42 0 -72 -26t-44.5 -68
t-14.5 -88q0 -51 21 -79t67 -28q44 0 73.5 26z" />
    <glyph glyph-name="f_i" horiz-adv-x="619" 
d="M108 386h-63l22 110h62l15 74q16 78 63 114.5t131 36.5q49 0 85 -9l-22 -110q-18 6 -44 6q-34 0 -54.5 -18t-27.5 -52l-8 -42h110l-22 -110h-110l-77 -386h-138zM525 586q-18 10 -28 27t-10 38t10 38.5t28 27.5t40 10t39.5 -10t28 -27.5t10.5 -38.5t-10.5 -38t-28 -27
t-39.5 -10t-40 10zM464 496h138l-99 -496h-138z" />
    <glyph glyph-name="f_l" horiz-adv-x="619" 
d="M108 386h-63l22 110h62l15 74q16 78 63 114.5t131 36.5q49 0 85 -9l-22 -110q-18 6 -44 6q-34 0 -54.5 -18t-27.5 -52l-8 -42h110l-22 -110h-110l-77 -386h-138zM506 706h138l-141 -706h-138z" />
    <glyph glyph-name="a.sc" horiz-adv-x="604" 
d="M396 111h-230l-56 -111h-154l307 588h214l71 -588h-140zM384 221l-28 260h-2l-132 -260h162z" />
    <glyph glyph-name="aacute.sc" horiz-adv-x="604" 
d="M396 111h-230l-56 -111h-154l307 588h214l71 -588h-140zM384 221l-28 260h-2l-132 -260h162zM414 819h143l-129 -156h-128z" />
    <glyph glyph-name="abreve.sc" horiz-adv-x="604" 
d="M396 111h-230l-56 -111h-154l307 588h214l71 -588h-140zM384 221l-28 260h-2l-132 -260h162zM240 794q0 16 1 26h97q-2 -9 -2 -25q0 -31 14.5 -46t44.5 -15q36 0 57.5 20t35.5 66h101q-38 -164 -197 -164q-152 0 -152 138z" />
    <glyph glyph-name="acircumflex.sc" horiz-adv-x="604" 
d="M396 111h-230l-56 -111h-154l307 588h214l71 -588h-140zM384 221l-28 260h-2l-132 -260h162zM335 820h158l68 -158h-118l-40 95l-77 -95h-124z" />
    <glyph glyph-name="adieresis.sc" horiz-adv-x="604" 
d="M396 111h-230l-56 -111h-154l307 588h214l71 -588h-140zM384 221l-28 260h-2l-132 -260h162zM244 685.5q-21 20.5 -21 51.5t21 51.5t53 20.5q21 0 38 -9.5t27 -26t10 -36.5t-10 -36.5t-27 -26t-38 -9.5q-32 0 -53 20.5zM448 685.5q-21 20.5 -21 51.5t21 51.5t53 20.5
q21 0 38 -9.5t27 -26t10 -36.5t-10 -36.5t-27 -26t-38 -9.5q-32 0 -53 20.5z" />
    <glyph glyph-name="agrave.sc" horiz-adv-x="604" 
d="M396 111h-230l-56 -111h-154l307 588h214l71 -588h-140zM384 221l-28 260h-2l-132 -260h162zM352 663l-79 156h130l65 -156h-116z" />
    <glyph glyph-name="amacron.sc" horiz-adv-x="604" 
d="M396 111h-230l-56 -111h-154l307 588h214l71 -588h-140zM384 221l-28 260h-2l-132 -260h162zM258 780h299l-18 -89h-299z" />
    <glyph glyph-name="aogonek.sc" horiz-adv-x="604" 
d="M462.5 -123q10.5 -8 27.5 -8q22 0 37 5l-16 -79q-29 -8 -66 -8q-50 0 -79 21.5t-29 62.5t29 72t79 57h-37l-12 111h-230l-56 -111h-154l307 588h214l71 -588q-45 -28 -70.5 -51t-25.5 -49q0 -15 10.5 -23zM384 221l-28 260h-2l-132 -260h162z" />
    <glyph glyph-name="aring.sc" horiz-adv-x="604" 
d="M396 111h-230l-56 -111h-154l307 588h214l71 -588h-140zM384 221l-28 260h-2l-132 -260h162zM326 658q-29 15 -45 42t-16 62q0 36 16 63t45 41.5t68 14.5t69 -15t46 -42t16 -62t-16.5 -62t-46 -42t-68.5 -15t-68 15zM433 725.5q14 13.5 14 36.5t-14.5 37t-38.5 14
q-23 0 -37 -14t-14 -37t14 -36.5t37 -13.5q25 0 39 13.5z" />
    <glyph glyph-name="aringacute.sc" horiz-adv-x="604" 
d="M396 111h-230l-56 -111h-154l307 588h214l71 -588h-140zM384 221l-28 260h-2l-132 -260h162zM326 658q-29 15 -45 42t-16 62q0 36 16 63t45 41.5t68 14.5t69 -15t46 -42t16 -62t-16.5 -62t-46 -42t-68.5 -15t-68 15zM433 725.5q14 13.5 14 36.5t-14.5 37t-38.5 14
q-23 0 -37 -14t-14 -37t14 -36.5t37 -13.5q25 0 39 13.5zM473 1111h143l-129 -156h-128z" />
    <glyph glyph-name="atilde.sc" horiz-adv-x="604" 
d="M396 111h-230l-56 -111h-154l307 588h214l71 -588h-140zM384 221l-28 260h-2l-132 -260h162zM387 694q-19 18 -29.5 25.5t-23.5 7.5q-17 0 -28 -15.5t-19 -48.5h-84q17 81 49 120t81 39q23 0 41 -9t35 -26q20 -18 30.5 -25t23.5 -7q18 0 28.5 15.5t19.5 49.5h83
q-17 -82 -48.5 -120.5t-82.5 -38.5q-46 0 -76 33z" />
    <glyph glyph-name="ae.sc" horiz-adv-x="736" 
d="M508 470l-9 -113h202l-24 -118h-187l-10 -122h176l-23 -117h-306l10 113h-164l-61 -113h-156l332 588h462l-23 -118h-219zM347 222l22 252h-2l-136 -252h116z" />
    <glyph glyph-name="aeacute.sc" horiz-adv-x="736" 
d="M508 470l-9 -113h202l-24 -118h-187l-10 -122h176l-23 -117h-306l10 113h-164l-61 -113h-156l332 588h462l-23 -118h-219zM347 222l22 252h-2l-136 -252h116zM518 819h143l-129 -156h-128z" />
    <glyph glyph-name="b.sc" horiz-adv-x="569" 
d="M496.5 260q21.5 -29 21.5 -76q0 -61 -30 -102t-83 -61.5t-122 -20.5h-252l117 588h228q87 0 131 -35.5t44 -99.5q0 -59 -34 -96t-93 -52q51 -16 72.5 -45zM376 374q25 20 25 53q0 32 -21.5 48t-61.5 16h-48l-27 -137h59q49 0 74 20zM339 118.5q31 20.5 31 63.5
q0 38 -24 56t-73 18h-50l-31 -158h59q57 0 88 20.5z" />
    <glyph glyph-name="c.sc" horiz-adv-x="647" 
d="M167 18.5q-58 33.5 -85.5 92.5t-27.5 138q0 99 39.5 179.5t113.5 127t173 46.5q74 0 128.5 -27t84 -76t29.5 -114q0 -7 -2 -27h-148q1 10 1 24q0 43 -27 70.5t-76 27.5q-57 0 -95 -32.5t-56 -85.5t-18 -114q0 -66 28.5 -103t89.5 -37q52 1 85 27t45 73h150
q-14 -68 -51.5 -118t-97.5 -77.5t-139 -27.5q-86 0 -144 33.5z" />
    <glyph glyph-name="cacute.sc" horiz-adv-x="647" 
d="M167 18.5q-58 33.5 -85.5 92.5t-27.5 138q0 99 39.5 179.5t113.5 127t173 46.5q74 0 128.5 -27t84 -76t29.5 -114q0 -7 -2 -27h-148q1 10 1 24q0 43 -27 70.5t-76 27.5q-57 0 -95 -32.5t-56 -85.5t-18 -114q0 -66 28.5 -103t89.5 -37q52 1 85 27t45 73h150
q-14 -68 -51.5 -118t-97.5 -77.5t-139 -27.5q-86 0 -144 33.5zM434 819h143l-129 -156h-128z" />
    <glyph glyph-name="ccaron.sc" horiz-adv-x="647" 
d="M167 18.5q-58 33.5 -85.5 92.5t-27.5 138q0 99 39.5 179.5t113.5 127t173 46.5q74 0 128.5 -27t84 -76t29.5 -114q0 -7 -2 -27h-148q1 10 1 24q0 43 -27 70.5t-76 27.5q-57 0 -95 -32.5t-56 -85.5t-18 -114q0 -66 28.5 -103t89.5 -37q52 1 85 27t45 73h150
q-14 -68 -51.5 -118t-97.5 -77.5t-139 -27.5q-86 0 -144 33.5zM483 662h-157l-69 157h118l41 -94l76 94h124z" />
    <glyph glyph-name="ccedilla.sc" horiz-adv-x="647" 
d="M472 358q1 10 1 24q0 43 -27 70.5t-76 27.5q-57 0 -95 -32.5t-56 -85.5t-18 -114q0 -66 28.5 -103t89.5 -37q52 1 85 27t45 73h150q-19 -94 -81.5 -152t-162.5 -69l-13 -27q42 -4 64.5 -27.5t22.5 -59.5q0 -52 -41.5 -77.5t-110.5 -25.5q-29 0 -55 5t-45 15l27 66
q32 -15 71 -15q28 0 43.5 9t15.5 26q0 16 -15.5 24t-50.5 8h-44l36 80q-103 15 -154.5 84t-51.5 177q0 99 39.5 179.5t113.5 127t173 46.5q74 0 128.5 -27t84 -76t29.5 -114q0 -7 -2 -27h-148z" />
    <glyph glyph-name="ccircumflex.sc" horiz-adv-x="647" 
d="M167 18.5q-58 33.5 -85.5 92.5t-27.5 138q0 99 39.5 179.5t113.5 127t173 46.5q74 0 128.5 -27t84 -76t29.5 -114q0 -7 -2 -27h-148q1 10 1 24q0 43 -27 70.5t-76 27.5q-57 0 -95 -32.5t-56 -85.5t-18 -114q0 -66 28.5 -103t89.5 -37q52 1 85 27t45 73h150
q-14 -68 -51.5 -118t-97.5 -77.5t-139 -27.5q-86 0 -144 33.5zM355 820h158l68 -158h-118l-40 95l-77 -95h-124z" />
    <glyph glyph-name="cdotaccent.sc" horiz-adv-x="647" 
d="M167 18.5q-58 33.5 -85.5 92.5t-27.5 138q0 99 39.5 179.5t113.5 127t173 46.5q74 0 128.5 -27t84 -76t29.5 -114q0 -7 -2 -27h-148q1 10 1 24q0 43 -27 70.5t-76 27.5q-57 0 -95 -32.5t-56 -85.5t-18 -114q0 -66 28.5 -103t89.5 -37q52 1 85 27t45 73h150
q-14 -68 -51.5 -118t-97.5 -77.5t-139 -27.5q-86 0 -144 33.5zM379 678.5q-18 9.5 -28 26.5t-10 38q0 33 22 54.5t56 21.5q22 0 39.5 -10t28 -27t10.5 -39q0 -21 -10.5 -38t-28 -26.5t-39.5 -9.5t-40 9.5z" />
    <glyph glyph-name="d.sc" horiz-adv-x="644" 
d="M148 588h190q135 0 203.5 -65t68.5 -186q0 -94 -40.5 -170.5t-117 -121.5t-178.5 -45h-243zM265 117q97 0 145 57.5t48 156.5q0 69 -35 104t-102 35h-55l-70 -353h69z" />
    <glyph glyph-name="eth.sc" horiz-adv-x="644" 
d="M541.5 523q68.5 -65 68.5 -186q0 -94 -40.5 -170.5t-117 -121.5t-178.5 -45h-243l51 258h-52l18 88h52l48 242h190q135 0 203.5 -65zM410 174.5q48 57.5 48 156.5q0 69 -35 104t-102 35h-55l-25 -124h131l-17 -88h-131l-28 -141h69q97 0 145 57.5z" />
    <glyph glyph-name="dcaron.sc" horiz-adv-x="644" 
d="M148 588h190q135 0 203.5 -65t68.5 -186q0 -94 -40.5 -170.5t-117 -121.5t-178.5 -45h-243zM265 117q97 0 145 57.5t48 156.5q0 69 -35 104t-102 35h-55l-70 -353h69zM471 662h-157l-69 157h118l41 -94l76 94h124z" />
    <glyph glyph-name="dcroat.sc" horiz-adv-x="644" 
d="M541.5 523q68.5 -65 68.5 -186q0 -94 -40.5 -170.5t-117 -121.5t-178.5 -45h-243l51 258h-52l18 88h52l48 242h190q135 0 203.5 -65zM410 174.5q48 57.5 48 156.5q0 69 -35 104t-102 35h-55l-25 -124h131l-17 -88h-131l-28 -141h69q97 0 145 57.5z" />
    <glyph glyph-name="e.sc" horiz-adv-x="512" 
d="M148 588h378l-24 -118h-236l-23 -114h234l-24 -117h-233l-24 -122h236l-24 -117h-377z" />
    <glyph glyph-name="eacute.sc" horiz-adv-x="512" 
d="M148 588h378l-24 -118h-236l-23 -114h234l-24 -117h-233l-24 -122h236l-24 -117h-377zM376 819h143l-129 -156h-128z" />
    <glyph glyph-name="ebreve.sc" horiz-adv-x="512" 
d="M148 588h378l-24 -118h-236l-23 -114h234l-24 -117h-233l-24 -122h236l-24 -117h-377zM202 794q0 16 1 26h97q-2 -9 -2 -25q0 -31 14.5 -46t44.5 -15q36 0 57.5 20t35.5 66h101q-38 -164 -197 -164q-152 0 -152 138z" />
    <glyph glyph-name="ecaron.sc" horiz-adv-x="512" 
d="M148 588h378l-24 -118h-236l-23 -114h234l-24 -117h-233l-24 -122h236l-24 -117h-377zM425 662h-157l-69 157h118l41 -94l76 94h124z" />
    <glyph glyph-name="ecircumflex.sc" horiz-adv-x="512" 
d="M148 588h378l-24 -118h-236l-23 -114h234l-24 -117h-233l-24 -122h236l-24 -117h-377zM297 820h158l68 -158h-118l-40 95l-77 -95h-124z" />
    <glyph glyph-name="edieresis.sc" horiz-adv-x="512" 
d="M148 588h378l-24 -118h-236l-23 -114h234l-24 -117h-233l-24 -122h236l-24 -117h-377zM206 685.5q-21 20.5 -21 51.5t21 51.5t53 20.5q21 0 38 -9.5t27 -26t10 -36.5t-10 -36.5t-27 -26t-38 -9.5q-32 0 -53 20.5zM410 685.5q-21 20.5 -21 51.5t21 51.5t53 20.5
q21 0 38 -9.5t27 -26t10 -36.5t-10 -36.5t-27 -26t-38 -9.5q-32 0 -53 20.5z" />
    <glyph glyph-name="edotaccent.sc" horiz-adv-x="512" 
d="M148 588h378l-24 -118h-236l-23 -114h234l-24 -117h-233l-24 -122h236l-24 -117h-377zM321 678.5q-18 9.5 -28 26.5t-10 38q0 33 22 54.5t56 21.5q22 0 39.5 -10t28 -27t10.5 -39q0 -21 -10.5 -38t-28 -26.5t-39.5 -9.5t-40 9.5z" />
    <glyph glyph-name="egrave.sc" horiz-adv-x="512" 
d="M148 588h378l-24 -118h-236l-23 -114h234l-24 -117h-233l-24 -122h236l-24 -117h-377zM314 663l-79 156h130l65 -156h-116z" />
    <glyph glyph-name="emacron.sc" horiz-adv-x="512" 
d="M148 588h378l-24 -118h-236l-23 -114h234l-24 -117h-233l-24 -122h236l-24 -117h-377zM219 780h299l-18 -89h-299z" />
    <glyph glyph-name="eogonek.sc" horiz-adv-x="512" 
d="M266 470l-23 -114h234l-24 -117h-233l-24 -122h236l-24 -117q-30 -19 -49 -33t-33 -31.5t-14 -35.5q0 -15 10.5 -23t27.5 -8q23 0 37 5l-16 -79q-28 -8 -65 -8q-50 0 -79.5 21.5t-29.5 62.5q0 42 29 72.5t80 56.5h-275l117 588h378l-24 -118h-236z" />
    <glyph glyph-name="uni0259.sc" horiz-adv-x="622" 
d="M483 570.5q53 -31.5 79 -88.5t26 -132q0 -101 -39 -184.5t-109.5 -132t-161.5 -48.5q-68 0 -119.5 27.5t-79.5 81.5t-28 131q0 49 9 101h381q1 8 1 24q0 61 -25 95t-78 34q-40 0 -68.5 -20.5t-44.5 -59.5h-150q20 65 60 110.5t95 69t119 23.5q80 0 133 -31.5z
M368.5 134.5q33.5 30.5 52.5 82.5h-231q1 -54 25.5 -83.5t72.5 -29.5q47 0 80.5 30.5z" />
    <glyph glyph-name="f.sc" horiz-adv-x="481" 
d="M148 588h359l-24 -118h-217l-23 -114h215l-23 -117h-215l-48 -239h-141z" />
    <glyph glyph-name="g.sc" horiz-adv-x="638" 
d="M344 322h265l-10 -48q-27 -140 -96.5 -214.5t-197.5 -74.5q-84 0 -141 32t-85 89t-28 131q0 102 40 185.5t115 131.5t176 48q75 0 127.5 -27t79.5 -76t27 -115h-138q0 105 -106 105q-57 0 -96.5 -34t-58.5 -91t-19 -127q0 -68 26.5 -104.5t92.5 -36.5q58 0 90.5 31.5
t45.5 91.5h-130z" />
    <glyph glyph-name="gbreve.sc" horiz-adv-x="638" 
d="M344 322h265l-10 -48q-27 -140 -96.5 -214.5t-197.5 -74.5q-84 0 -141 32t-85 89t-28 131q0 102 40 185.5t115 131.5t176 48q75 0 127.5 -27t79.5 -76t27 -115h-138q0 105 -106 105q-57 0 -96.5 -34t-58.5 -91t-19 -127q0 -68 26.5 -104.5t92.5 -36.5q58 0 90.5 31.5
t45.5 91.5h-130zM269 794q0 16 1 26h97q-2 -9 -2 -25q0 -31 14.5 -46t44.5 -15q36 0 57.5 20t35.5 66h101q-38 -164 -197 -164q-152 0 -152 138z" />
    <glyph glyph-name="gcircumflex.sc" horiz-adv-x="638" 
d="M344 322h265l-10 -48q-27 -140 -96.5 -214.5t-197.5 -74.5q-84 0 -141 32t-85 89t-28 131q0 102 40 185.5t115 131.5t176 48q75 0 127.5 -27t79.5 -76t27 -115h-138q0 105 -106 105q-57 0 -96.5 -34t-58.5 -91t-19 -127q0 -68 26.5 -104.5t92.5 -36.5q58 0 90.5 31.5
t45.5 91.5h-130zM364 820h158l68 -158h-118l-40 95l-77 -95h-124z" />
    <glyph glyph-name="uni0123.sc" horiz-adv-x="638" 
d="M344 322h265l-10 -48q-27 -140 -96.5 -214.5t-197.5 -74.5q-84 0 -141 32t-85 89t-28 131q0 102 40 185.5t115 131.5t176 48q75 0 127.5 -27t79.5 -76t27 -115h-138q0 105 -106 105q-57 0 -96.5 -34t-58.5 -91t-19 -127q0 -68 26.5 -104.5t92.5 -36.5q58 0 90.5 31.5
t45.5 91.5h-130zM213 -52h141l-82 -148h-126z" />
    <glyph glyph-name="gdotaccent.sc" horiz-adv-x="638" 
d="M344 322h265l-10 -48q-27 -140 -96.5 -214.5t-197.5 -74.5q-84 0 -141 32t-85 89t-28 131q0 102 40 185.5t115 131.5t176 48q75 0 127.5 -27t79.5 -76t27 -115h-138q0 105 -106 105q-57 0 -96.5 -34t-58.5 -91t-19 -127q0 -68 26.5 -104.5t92.5 -36.5q58 0 90.5 31.5
t45.5 91.5h-130zM388 678.5q-18 9.5 -28 26.5t-10 38q0 33 22 54.5t56 21.5q22 0 39.5 -10t28 -27t10.5 -39q0 -21 -10.5 -38t-28 -26.5t-39.5 -9.5t-40 9.5z" />
    <glyph glyph-name="h.sc" horiz-adv-x="659" 
d="M148 588h142l-47 -231h216l46 231h142l-118 -588h-141l46 236h-215l-47 -236h-141z" />
    <glyph glyph-name="hbar.sc" horiz-adv-x="659" 
d="M647 588l-118 -588h-141l46 236h-215l-47 -236h-141l117 588h142l-15 -75h215l15 75h142zM459 357l14 70h-216l-14 -70h216z" />
    <glyph glyph-name="hcircumflex.sc" horiz-adv-x="659" 
d="M148 588h142l-47 -231h216l46 231h142l-118 -588h-141l46 236h-215l-47 -236h-141zM363 820h158l68 -158h-118l-40 95l-77 -95h-124z" />
    <glyph glyph-name="i.sc" horiz-adv-x="302" 
d="M148 588h142l-118 -588h-141z" />
    <glyph glyph-name="dotlessi.sc" horiz-adv-x="302" 
d="M148 588h142l-118 -588h-141z" />
    <glyph glyph-name="iacute.sc" horiz-adv-x="302" 
d="M148 588h142l-118 -588h-141zM252 819h144l-113 -156h-126z" />
    <glyph glyph-name="ibreve.sc" horiz-adv-x="302" 
d="M148 588h142l-118 -588h-141zM150.5 683.5q-29.5 28.5 -29.5 84.5q0 20 5 52h87q-5 -30 -5 -43q0 -23 8.5 -33t26.5 -10q28 0 45 19.5t26 66.5h90q-17 -82 -58 -123.5t-109 -41.5q-57 0 -86.5 28.5z" />
    <glyph glyph-name="icircumflex.sc" horiz-adv-x="302" 
d="M148 588h142l-118 -588h-141zM198 820h134l45 -158h-98l-24 92l-63 -92h-104z" />
    <glyph glyph-name="idieresis.sc" horiz-adv-x="302" 
d="M148 588h142l-118 -588h-141zM127 687q-16 17 -16 46q0 33 18 52.5t48 19.5q27 0 43 -17.5t16 -46.5q0 -32 -18 -51.5t-48 -19.5q-27 0 -43 17zM276 687q-16 17 -16 46q0 33 18 52.5t48 19.5q27 0 43 -17.5t16 -46.5q0 -32 -18 -51.5t-48 -19.5q-27 0 -43 17z" />
    <glyph glyph-name="i.sc.loclTRK" horiz-adv-x="302" 
d="M148 588h142l-118 -588h-141zM210 678.5q-18 9.5 -28 26.5t-10 38q0 33 22 54.5t56 21.5q22 0 39.5 -10t28 -27t10.5 -39q0 -21 -10.5 -38t-28 -26.5t-39.5 -9.5t-40 9.5z" />
    <glyph glyph-name="igrave.sc" horiz-adv-x="302" 
d="M148 588h142l-118 -588h-141zM201 663l-68 156h127l50 -156h-109z" />
    <glyph glyph-name="ij.sc" horiz-adv-x="646" 
d="M148 588h142l-118 -588h-141zM269 2l25 128q16 -2 29 -2q35 0 56.5 9t34.5 29.5t21 57.5l73 364h141l-79 -397q-20 -99 -77 -146.5t-163 -47.5q-35 0 -61 5z" />
    <glyph glyph-name="imacron.sc" horiz-adv-x="302" 
d="M148 588h142l-118 -588h-141zM135 780h244l-18 -89h-244z" />
    <glyph glyph-name="iogonek.sc" horiz-adv-x="302" 
d="M117.5 -56q-21.5 -27 -21.5 -51t28 -24q13 0 28 5l-16 -80q-25 -7 -57 -7q-46 0 -72.5 19t-26.5 56q0 38 26 73.5t68 64.5h-43l117 588h142l-118 -588q-33 -29 -54.5 -56z" />
    <glyph glyph-name="itilde.sc" horiz-adv-x="302" 
d="M148 588h142l-118 -588h-141zM253 671.5q-14 10.5 -23 29.5q-8 15 -13 21.5t-14 6.5q-13 0 -22 -16t-15 -50h-77q13 56 27.5 90.5t35 51.5t51.5 17q26 0 39.5 -10.5t23.5 -30.5q6 -13 12 -20t14 -7q14 0 23 16t15 50h78q-13 -56 -27.5 -90.5t-35.5 -51.5t-52 -17
q-26 0 -40 10.5z" />
    <glyph glyph-name="j.sc" horiz-adv-x="344" 
d="M-33 2l25 128q16 -2 29 -2q35 0 56.5 9t34.5 29.5t21 57.5l73 364h141l-79 -397q-20 -99 -77 -146.5t-163 -47.5q-35 0 -61 5z" />
    <glyph glyph-name="uni006A0301.sc" horiz-adv-x="344" 
d="M-33 2l25 128q16 -2 29 -2q35 0 56.5 9t34.5 29.5t21 57.5l73 364h141l-79 -397q-20 -99 -77 -146.5t-163 -47.5q-35 0 -61 5zM307 819h144l-113 -156h-126z" />
    <glyph glyph-name="jcircumflex.sc" horiz-adv-x="344" 
d="M-33 2l25 128q16 -2 29 -2q35 0 56.5 9t34.5 29.5t21 57.5l73 364h141l-79 -397q-20 -99 -77 -146.5t-163 -47.5q-35 0 -61 5zM252 820h134l45 -158h-98l-24 92l-63 -92h-104z" />
    <glyph glyph-name="k.sc" horiz-adv-x="600" 
d="M362 308l182 -308h-166l-150 277l-56 -277h-141l117 588h142l-45 -226l222 226h166z" />
    <glyph glyph-name="uni0137.sc" horiz-adv-x="600" 
d="M362 308l182 -308h-166l-150 277l-56 -277h-141l117 588h142l-45 -226l222 226h166zM202 -52h141l-82 -148h-126z" />
    <glyph glyph-name="kgreenlandic.sc" horiz-adv-x="600" 
d="M362 308l182 -308h-166l-150 277l-56 -277h-141l117 588h142l-45 -226l222 226h166z" />
    <glyph glyph-name="l.sc" horiz-adv-x="432" 
d="M148 588h142l-93 -462h194l-25 -126h-335z" />
    <glyph glyph-name="lacute.sc" horiz-adv-x="432" 
d="M148 588h142l-93 -462h194l-25 -126h-335zM291 819h143l-129 -156h-128z" />
    <glyph glyph-name="lcaron.sc" horiz-adv-x="432" 
d="M148 588h142l-93 -462h194l-25 -126h-335zM353 588h117l-73 -171h-102z" />
    <glyph glyph-name="uni013C.sc" horiz-adv-x="432" 
d="M148 588h142l-93 -462h194l-25 -126h-335zM125 -52h141l-82 -148h-126z" />
    <glyph glyph-name="ldot.sc" horiz-adv-x="500" 
d="M148 588h142l-93 -462h194l-25 -126h-335zM372 287q-20 11 -31.5 31t-11.5 45t11.5 45t31.5 31t46 11t46 -11t31 -31t11 -45t-11 -45t-31 -31t-46 -11t-46 11z" />
    <glyph glyph-name="lslash.sc" horiz-adv-x="432" 
d="M197 126h194l-25 -126h-335l44 223l-68 -40l22 111l69 40l50 254h142l-37 -184l150 89l-23 -112l-149 -88z" />
    <glyph glyph-name="m.sc" horiz-adv-x="804" 
d="M148 588h155l86 -356l228 356h174l-117 -588h-134l72 359l-228 -359h-64l-84 359l-72 -359h-133z" />
    <glyph glyph-name="n.sc" horiz-adv-x="676" 
d="M148 588h140l163 -376l75 376h137l-117 -588h-141l-162 377l-75 -377h-137z" />
    <glyph glyph-name="nacute.sc" horiz-adv-x="676" 
d="M148 588h140l163 -376l75 376h137l-117 -588h-141l-162 377l-75 -377h-137zM445 819h143l-129 -156h-128z" />
    <glyph glyph-name="napostrophe.sc" horiz-adv-x="877" 
d="M192 706h149l-156 -282h-112zM367 588h140l163 -376l75 376h137l-117 -588h-141l-162 377l-75 -377h-137z" />
    <glyph glyph-name="ncaron.sc" horiz-adv-x="676" 
d="M148 588h140l163 -376l75 376h137l-117 -588h-141l-162 377l-75 -377h-137zM494 662h-157l-69 157h118l41 -94l76 94h124z" />
    <glyph glyph-name="uni0146.sc" horiz-adv-x="676" 
d="M148 588h140l163 -376l75 376h137l-117 -588h-141l-162 377l-75 -377h-137zM213 -52h141l-82 -148h-126z" />
    <glyph glyph-name="eng.sc" horiz-adv-x="676" 
d="M663 588l-125 -628q-14 -68 -52.5 -99t-110.5 -31q-41 0 -70 4l23 111q14 -2 21 -2q49 0 58 46l3 14l-167 374l-75 -377h-137l117 588h140l165 -367l73 367h137z" />
    <glyph glyph-name="ntilde.sc" horiz-adv-x="676" 
d="M148 588h140l163 -376l75 376h137l-117 -588h-141l-162 377l-75 -377h-137zM418 694q-19 18 -29.5 25.5t-23.5 7.5q-17 0 -28 -15.5t-19 -48.5h-84q17 81 49 120t81 39q23 0 41 -9t35 -26q20 -18 30.5 -25t23.5 -7q18 0 28.5 15.5t19.5 49.5h83q-17 -82 -48.5 -120.5
t-82.5 -38.5q-46 0 -76 33z" />
    <glyph glyph-name="o.sc" horiz-adv-x="665" 
d="M165.5 18.5q-56.5 33.5 -84 93t-27.5 139.5q0 97 39 177t112 127t171 47q85 0 141.5 -33.5t84 -93t27.5 -138.5q0 -98 -39 -178t-112 -127t-171 -47q-85 0 -141.5 33.5zM408.5 142.5q37.5 34.5 55.5 87.5t18 109q0 67 -28 104t-88 37q-55 0 -92.5 -34t-55 -87.5
t-17.5 -110.5q0 -66 27.5 -103t87.5 -37q55 0 92.5 34.5z" />
    <glyph glyph-name="oacute.sc" horiz-adv-x="665" 
d="M165.5 18.5q-56.5 33.5 -84 93t-27.5 139.5q0 97 39 177t112 127t171 47q85 0 141.5 -33.5t84 -93t27.5 -138.5q0 -98 -39 -178t-112 -127t-171 -47q-85 0 -141.5 33.5zM408.5 142.5q37.5 34.5 55.5 87.5t18 109q0 67 -28 104t-88 37q-55 0 -92.5 -34t-55 -87.5
t-17.5 -110.5q0 -66 27.5 -103t87.5 -37q55 0 92.5 34.5zM439 819h143l-129 -156h-128z" />
    <glyph glyph-name="obreve.sc" horiz-adv-x="665" 
d="M165.5 18.5q-56.5 33.5 -84 93t-27.5 139.5q0 97 39 177t112 127t171 47q85 0 141.5 -33.5t84 -93t27.5 -138.5q0 -98 -39 -178t-112 -127t-171 -47q-85 0 -141.5 33.5zM408.5 142.5q37.5 34.5 55.5 87.5t18 109q0 67 -28 104t-88 37q-55 0 -92.5 -34t-55 -87.5
t-17.5 -110.5q0 -66 27.5 -103t87.5 -37q55 0 92.5 34.5zM265 794q0 16 1 26h97q-2 -9 -2 -25q0 -31 14.5 -46t44.5 -15q36 0 57.5 20t35.5 66h101q-38 -164 -197 -164q-152 0 -152 138z" />
    <glyph glyph-name="ocircumflex.sc" horiz-adv-x="665" 
d="M165.5 18.5q-56.5 33.5 -84 93t-27.5 139.5q0 97 39 177t112 127t171 47q85 0 141.5 -33.5t84 -93t27.5 -138.5q0 -98 -39 -178t-112 -127t-171 -47q-85 0 -141.5 33.5zM408.5 142.5q37.5 34.5 55.5 87.5t18 109q0 67 -28 104t-88 37q-55 0 -92.5 -34t-55 -87.5
t-17.5 -110.5q0 -66 27.5 -103t87.5 -37q55 0 92.5 34.5zM359 820h158l68 -158h-118l-40 95l-77 -95h-124z" />
    <glyph glyph-name="odieresis.sc" horiz-adv-x="665" 
d="M165.5 18.5q-56.5 33.5 -84 93t-27.5 139.5q0 97 39 177t112 127t171 47q85 0 141.5 -33.5t84 -93t27.5 -138.5q0 -98 -39 -178t-112 -127t-171 -47q-85 0 -141.5 33.5zM408.5 142.5q37.5 34.5 55.5 87.5t18 109q0 67 -28 104t-88 37q-55 0 -92.5 -34t-55 -87.5
t-17.5 -110.5q0 -66 27.5 -103t87.5 -37q55 0 92.5 34.5zM268 685.5q-21 20.5 -21 51.5t21 51.5t53 20.5q21 0 38 -9.5t27 -26t10 -36.5t-10 -36.5t-27 -26t-38 -9.5q-32 0 -53 20.5zM472 685.5q-21 20.5 -21 51.5t21 51.5t53 20.5q21 0 38 -9.5t27 -26t10 -36.5t-10 -36.5
t-27 -26t-38 -9.5q-32 0 -53 20.5z" />
    <glyph glyph-name="ograve.sc" horiz-adv-x="665" 
d="M165.5 18.5q-56.5 33.5 -84 93t-27.5 139.5q0 97 39 177t112 127t171 47q85 0 141.5 -33.5t84 -93t27.5 -138.5q0 -98 -39 -178t-112 -127t-171 -47q-85 0 -141.5 33.5zM408.5 142.5q37.5 34.5 55.5 87.5t18 109q0 67 -28 104t-88 37q-55 0 -92.5 -34t-55 -87.5
t-17.5 -110.5q0 -66 27.5 -103t87.5 -37q55 0 92.5 34.5zM376 663l-79 156h130l65 -156h-116z" />
    <glyph glyph-name="ohungarumlaut.sc" horiz-adv-x="665" 
d="M165.5 18.5q-56.5 33.5 -84 93t-27.5 139.5q0 97 39 177t112 127t171 47q85 0 141.5 -33.5t84 -93t27.5 -138.5q0 -98 -39 -178t-112 -127t-171 -47q-85 0 -141.5 33.5zM408.5 142.5q37.5 34.5 55.5 87.5t18 109q0 67 -28 104t-88 37q-55 0 -92.5 -34t-55 -87.5
t-17.5 -110.5q0 -66 27.5 -103t87.5 -37q55 0 92.5 34.5zM382 820h126l-143 -157h-102zM552 820h126l-143 -157h-102z" />
    <glyph glyph-name="omacron.sc" horiz-adv-x="665" 
d="M165.5 18.5q-56.5 33.5 -84 93t-27.5 139.5q0 97 39 177t112 127t171 47q85 0 141.5 -33.5t84 -93t27.5 -138.5q0 -98 -39 -178t-112 -127t-171 -47q-85 0 -141.5 33.5zM408.5 142.5q37.5 34.5 55.5 87.5t18 109q0 67 -28 104t-88 37q-55 0 -92.5 -34t-55 -87.5
t-17.5 -110.5q0 -66 27.5 -103t87.5 -37q55 0 92.5 34.5zM282 780h299l-18 -89h-299z" />
    <glyph glyph-name="oslash.sc" horiz-adv-x="665" 
d="M596 487q33 -63 33 -150q0 -98 -39 -178t-112 -127t-171 -47q-113 0 -178 60l-49 -45h-101l109 99q-34 62 -34 152q0 97 39 177t112 127t171 47q114 0 178 -61l51 47h101zM273.5 446q-37.5 -34 -55 -87.5t-17.5 -110.5q0 -23 3 -43l249 239q-28 36 -87 36
q-55 0 -92.5 -34zM408.5 142.5q37.5 34.5 55.5 87.5t18 109q0 24 -3 43l-249 -238q28 -36 86 -36q55 0 92.5 34.5z" />
    <glyph glyph-name="oslashacute.sc" horiz-adv-x="665" 
d="M596 487q33 -63 33 -150q0 -98 -39 -178t-112 -127t-171 -47q-113 0 -178 60l-49 -45h-101l109 99q-34 62 -34 152q0 97 39 177t112 127t171 47q114 0 178 -61l51 47h101zM273.5 446q-37.5 -34 -55 -87.5t-17.5 -110.5q0 -23 3 -43l249 239q-28 36 -87 36
q-55 0 -92.5 -34zM408.5 142.5q37.5 34.5 55.5 87.5t18 109q0 24 -3 43l-249 -238q28 -36 86 -36q55 0 92.5 34.5zM439 819h143l-129 -156h-128z" />
    <glyph glyph-name="otilde.sc" horiz-adv-x="665" 
d="M165.5 18.5q-56.5 33.5 -84 93t-27.5 139.5q0 97 39 177t112 127t171 47q85 0 141.5 -33.5t84 -93t27.5 -138.5q0 -98 -39 -178t-112 -127t-171 -47q-85 0 -141.5 33.5zM408.5 142.5q37.5 34.5 55.5 87.5t18 109q0 67 -28 104t-88 37q-55 0 -92.5 -34t-55 -87.5
t-17.5 -110.5q0 -66 27.5 -103t87.5 -37q55 0 92.5 34.5zM412 694q-19 18 -29.5 25.5t-23.5 7.5q-17 0 -28 -15.5t-19 -48.5h-84q17 81 49 120t81 39q23 0 41 -9t35 -26q20 -18 30.5 -25t23.5 -7q18 0 28.5 15.5t19.5 49.5h83q-17 -82 -48.5 -120.5t-82.5 -38.5
q-46 0 -76 33z" />
    <glyph glyph-name="oe.sc" horiz-adv-x="889" 
d="M643 470l-23 -113h234l-23 -118h-234l-25 -122h237l-24 -117h-352l6 31q-65 -40 -148 -40q-80 0 -133 33t-78.5 91.5t-25.5 136.5q0 95 38 173.5t109 124.5t167 46q56 0 98.5 -20t70.5 -56l13 68h353l-24 -118h-236zM397 142.5q38 34.5 56 87.5t18 109q0 66 -25.5 103.5
t-80.5 37.5t-92 -34t-54.5 -87.5t-17.5 -110.5q0 -66 25 -103t78 -37q55 0 93 34.5z" />
    <glyph glyph-name="p.sc" horiz-adv-x="545" 
d="M148 588h209q103 0 150 -42t47 -121q0 -60 -25 -105t-71 -69.5t-108 -24.5h-133l-45 -226h-141zM311 334q48 0 73 20.5t25 59.5q0 34 -21.5 50t-67.5 16h-52l-29 -146h72z" />
    <glyph glyph-name="thorn.sc" horiz-adv-x="545" 
d="M148 588h142l-17 -84h58q202 0 202 -179q0 -69 -27.5 -121t-78.5 -80.5t-122 -28.5h-114l-19 -95h-141zM275 208q55 0 84 29t29 79q0 38 -22.5 56.5t-74.5 18.5h-41l-36 -183h61z" />
    <glyph glyph-name="q.sc" horiz-adv-x="665" 
d="M609 206.5q-20 -61.5 -57.5 -109t-90.5 -75.5l47 -101l-107 -49l-48 116q-22 -3 -46 -3q-85 0 -141.5 33.5t-84 93t-27.5 139.5q0 97 39 177t112 127t171 47q85 0 141.5 -33.5t84 -93t27.5 -138.5q0 -69 -20 -130.5zM462.5 225q19.5 55 19.5 114q0 67 -28 104t-88 37
q-55 0 -92.5 -34t-55 -87.5t-17.5 -110.5q0 -63 24.5 -99.5t77.5 -40.5l-22 55l92 44l32 -68q38 31 57.5 86z" />
    <glyph glyph-name="r.sc" horiz-adv-x="583" 
d="M516 297q-43 -50 -120 -64l127 -233h-146l-124 228h-35l-46 -228h-141l117 588h216q102 0 148.5 -43t46.5 -120q0 -78 -43 -128zM238 329h71q52 0 78.5 22.5t26.5 64.5q0 35 -20.5 49.5t-65.5 14.5h-60z" />
    <glyph glyph-name="racute.sc" horiz-adv-x="583" 
d="M516 297q-43 -50 -120 -64l127 -233h-146l-124 228h-35l-46 -228h-141l117 588h216q102 0 148.5 -43t46.5 -120q0 -78 -43 -128zM238 329h71q52 0 78.5 22.5t26.5 64.5q0 35 -20.5 49.5t-65.5 14.5h-60zM403 819h143l-129 -156h-128z" />
    <glyph glyph-name="rcaron.sc" horiz-adv-x="583" 
d="M516 297q-43 -50 -120 -64l127 -233h-146l-124 228h-35l-46 -228h-141l117 588h216q102 0 148.5 -43t46.5 -120q0 -78 -43 -128zM238 329h71q52 0 78.5 22.5t26.5 64.5q0 35 -20.5 49.5t-65.5 14.5h-60zM453 662h-157l-69 157h118l41 -94l76 94h124z" />
    <glyph glyph-name="uni0157.sc" horiz-adv-x="583" 
d="M516 297q-43 -50 -120 -64l127 -233h-146l-124 228h-35l-46 -228h-141l117 588h216q102 0 148.5 -43t46.5 -120q0 -78 -43 -128zM238 329h71q52 0 78.5 22.5t26.5 64.5q0 35 -20.5 49.5t-65.5 14.5h-60zM199 -52h141l-82 -148h-126z" />
    <glyph glyph-name="s.sc" horiz-adv-x="547" 
d="M74 28.5q-57 43.5 -57 118.5q0 16 3 32h156q-2 -14 -2 -19q0 -32 20.5 -49t62.5 -17q39 0 62.5 16.5t23.5 45.5q0 22 -13 37t-38.5 28t-80.5 37q-63 26 -97 64t-34 95q0 56 31.5 98t86 64.5t121.5 22.5q101 0 154 -40.5t53 -111.5q0 -16 -3 -34h-147q2 16 2 21
q0 27 -18.5 43t-56.5 16q-34 0 -55.5 -15t-21.5 -42q0 -19 12.5 -32t35 -23.5t70.5 -28.5q53 -20 86.5 -42.5t52 -54.5t18.5 -78q0 -61 -33.5 -105t-91.5 -67t-132 -23q-113 0 -170 43.5z" />
    <glyph glyph-name="sacute.sc" horiz-adv-x="547" 
d="M74 28.5q-57 43.5 -57 118.5q0 16 3 32h156q-2 -14 -2 -19q0 -32 20.5 -49t62.5 -17q39 0 62.5 16.5t23.5 45.5q0 22 -13 37t-38.5 28t-80.5 37q-63 26 -97 64t-34 95q0 56 31.5 98t86 64.5t121.5 22.5q101 0 154 -40.5t53 -111.5q0 -16 -3 -34h-147q2 16 2 21
q0 27 -18.5 43t-56.5 16q-34 0 -55.5 -15t-21.5 -42q0 -19 12.5 -32t35 -23.5t70.5 -28.5q53 -20 86.5 -42.5t52 -54.5t18.5 -78q0 -61 -33.5 -105t-91.5 -67t-132 -23q-113 0 -170 43.5zM367 819h143l-129 -156h-128z" />
    <glyph glyph-name="scaron.sc" horiz-adv-x="547" 
d="M74 28.5q-57 43.5 -57 118.5q0 16 3 32h156q-2 -14 -2 -19q0 -32 20.5 -49t62.5 -17q39 0 62.5 16.5t23.5 45.5q0 22 -13 37t-38.5 28t-80.5 37q-63 26 -97 64t-34 95q0 56 31.5 98t86 64.5t121.5 22.5q101 0 154 -40.5t53 -111.5q0 -16 -3 -34h-147q2 16 2 21
q0 27 -18.5 43t-56.5 16q-34 0 -55.5 -15t-21.5 -42q0 -19 12.5 -32t35 -23.5t70.5 -28.5q53 -20 86.5 -42.5t52 -54.5t18.5 -78q0 -61 -33.5 -105t-91.5 -67t-132 -23q-113 0 -170 43.5zM416 662h-157l-69 157h118l41 -94l76 94h124z" />
    <glyph glyph-name="scedilla.sc" horiz-adv-x="547" 
d="M376 416q2 16 2 21q0 27 -18.5 43t-56.5 16q-34 0 -55.5 -15t-21.5 -42q0 -19 12.5 -32t35 -23.5t70.5 -28.5q53 -20 86.5 -42.5t52 -54.5t18.5 -78q0 -53 -25 -93t-70 -65t-104 -33l-14 -29q42 -4 64.5 -27.5t22.5 -59.5q0 -52 -41.5 -77.5t-110.5 -25.5q-60 0 -100 20
l27 66q32 -15 71 -15q27 0 43 9t16 26q0 16 -15.5 24t-50.5 8h-44l36 78q-94 8 -141.5 50t-47.5 111q0 16 3 32h156q-2 -14 -2 -19q0 -32 20.5 -49t62.5 -17q39 0 62.5 16.5t23.5 45.5q0 22 -13 37t-38.5 28t-80.5 37q-63 26 -97 64t-34 95q0 56 31.5 98t86 64.5t121.5 22.5
q101 0 154 -40.5t53 -111.5q0 -16 -3 -34h-147z" />
    <glyph glyph-name="scircumflex.sc" horiz-adv-x="547" 
d="M74 28.5q-57 43.5 -57 118.5q0 16 3 32h156q-2 -14 -2 -19q0 -32 20.5 -49t62.5 -17q39 0 62.5 16.5t23.5 45.5q0 22 -13 37t-38.5 28t-80.5 37q-63 26 -97 64t-34 95q0 56 31.5 98t86 64.5t121.5 22.5q101 0 154 -40.5t53 -111.5q0 -16 -3 -34h-147q2 16 2 21
q0 27 -18.5 43t-56.5 16q-34 0 -55.5 -15t-21.5 -42q0 -19 12.5 -32t35 -23.5t70.5 -28.5q53 -20 86.5 -42.5t52 -54.5t18.5 -78q0 -61 -33.5 -105t-91.5 -67t-132 -23q-113 0 -170 43.5zM288 820h158l68 -158h-118l-40 95l-77 -95h-124z" />
    <glyph glyph-name="uni0219.sc" horiz-adv-x="547" 
d="M74 28.5q-57 43.5 -57 118.5q0 16 3 32h156q-2 -14 -2 -19q0 -32 20.5 -49t62.5 -17q39 0 62.5 16.5t23.5 45.5q0 22 -13 37t-38.5 28t-80.5 37q-63 26 -97 64t-34 95q0 56 31.5 98t86 64.5t121.5 22.5q101 0 154 -40.5t53 -111.5q0 -16 -3 -34h-147q2 16 2 21
q0 27 -18.5 43t-56.5 16q-34 0 -55.5 -15t-21.5 -42q0 -19 12.5 -32t35 -23.5t70.5 -28.5q53 -20 86.5 -42.5t52 -54.5t18.5 -78q0 -61 -33.5 -105t-91.5 -67t-132 -23q-113 0 -170 43.5zM176 -52h141l-82 -148h-126z" />
    <glyph glyph-name="germandbls.sc" horiz-adv-x="610" 
d="M617 583l-138 -244q43 -17 63.5 -53.5t20.5 -84.5q0 -61 -30.5 -107.5t-84.5 -72t-123 -25.5q-57 0 -99 9l24 117q23 -4 58 -4q55 0 83.5 22.5t28.5 62.5q0 72 -89 72q-14 0 -30 -2v3l109 191h-145l-93 -467h-141l117 588h470z" />
    <glyph glyph-name="t.sc" horiz-adv-x="478" 
d="M213 470h-153l24 118h446l-23 -118h-152l-94 -470h-142z" />
    <glyph glyph-name="tbar.sc" horiz-adv-x="478" 
d="M355 470l-22 -112h90l-17 -88h-91l-54 -270h-142l54 270h-92l18 88h92l22 112h-153l24 118h446l-23 -118h-152z" />
    <glyph glyph-name="tcaron.sc" horiz-adv-x="481" 
d="M213 470h-153l24 118h446l-23 -118h-152l-94 -470h-142zM402 662h-157l-69 157h118l41 -94l76 94h124z" />
    <glyph glyph-name="uni0163.sc" horiz-adv-x="478" 
d="M530 588l-23 -118h-152l-94 -470h-20l-19 -40q42 -4 64.5 -27.5t22.5 -59.5q0 -52 -41.5 -77.5t-110.5 -25.5q-60 0 -100 20l27 66q32 -15 71 -15q27 0 43 9t16 26q0 16 -15.5 24t-50.5 8h-44l42 92h-27l94 470h-153l24 118h446z" />
    <glyph glyph-name="uni021B.sc" horiz-adv-x="478" 
d="M213 470h-153l24 118h446l-23 -118h-152l-94 -470h-142zM110 -52h141l-82 -148h-126z" />
    <glyph glyph-name="u.sc" horiz-adv-x="616" 
d="M110.5 31.5q-55.5 46.5 -55.5 140.5q0 30 8 70l69 346h143l-72 -358q-6 -27 -6 -47q0 -38 20.5 -56t68.5 -18q53 0 79.5 24t36.5 75l76 380h141l-80 -400q-21 -102 -83.5 -152.5t-172.5 -50.5q-117 0 -172.5 46.5z" />
    <glyph glyph-name="uacute.sc" horiz-adv-x="616" 
d="M110.5 31.5q-55.5 46.5 -55.5 140.5q0 30 8 70l69 346h143l-72 -358q-6 -27 -6 -47q0 -38 20.5 -56t68.5 -18q53 0 79.5 24t36.5 75l76 380h141l-80 -400q-21 -102 -83.5 -152.5t-172.5 -50.5q-117 0 -172.5 46.5zM418 819h143l-129 -156h-128z" />
    <glyph glyph-name="ubreve.sc" horiz-adv-x="616" 
d="M110.5 31.5q-55.5 46.5 -55.5 140.5q0 30 8 70l69 346h143l-72 -358q-6 -27 -6 -47q0 -38 20.5 -56t68.5 -18q53 0 79.5 24t36.5 75l76 380h141l-80 -400q-21 -102 -83.5 -152.5t-172.5 -50.5q-117 0 -172.5 46.5zM244 794q0 16 1 26h97q-2 -9 -2 -25q0 -31 14.5 -46
t44.5 -15q36 0 57.5 20t35.5 66h101q-38 -164 -197 -164q-152 0 -152 138z" />
    <glyph glyph-name="ucircumflex.sc" horiz-adv-x="616" 
d="M110.5 31.5q-55.5 46.5 -55.5 140.5q0 30 8 70l69 346h143l-72 -358q-6 -27 -6 -47q0 -38 20.5 -56t68.5 -18q53 0 79.5 24t36.5 75l76 380h141l-80 -400q-21 -102 -83.5 -152.5t-172.5 -50.5q-117 0 -172.5 46.5zM339 820h158l68 -158h-118l-40 95l-77 -95h-124z" />
    <glyph glyph-name="udieresis.sc" horiz-adv-x="616" 
d="M110.5 31.5q-55.5 46.5 -55.5 140.5q0 30 8 70l69 346h143l-72 -358q-6 -27 -6 -47q0 -38 20.5 -56t68.5 -18q53 0 79.5 24t36.5 75l76 380h141l-80 -400q-21 -102 -83.5 -152.5t-172.5 -50.5q-117 0 -172.5 46.5zM248 685.5q-21 20.5 -21 51.5t21 51.5t53 20.5
q21 0 38 -9.5t27 -26t10 -36.5t-10 -36.5t-27 -26t-38 -9.5q-32 0 -53 20.5zM452 685.5q-21 20.5 -21 51.5t21 51.5t53 20.5q21 0 38 -9.5t27 -26t10 -36.5t-10 -36.5t-27 -26t-38 -9.5q-32 0 -53 20.5z" />
    <glyph glyph-name="ugrave.sc" horiz-adv-x="616" 
d="M110.5 31.5q-55.5 46.5 -55.5 140.5q0 30 8 70l69 346h143l-72 -358q-6 -27 -6 -47q0 -38 20.5 -56t68.5 -18q53 0 79.5 24t36.5 75l76 380h141l-80 -400q-21 -102 -83.5 -152.5t-172.5 -50.5q-117 0 -172.5 46.5zM356 663l-79 156h130l65 -156h-116z" />
    <glyph glyph-name="uhungarumlaut.sc" horiz-adv-x="616" 
d="M110.5 31.5q-55.5 46.5 -55.5 140.5q0 30 8 70l69 346h143l-72 -358q-6 -27 -6 -47q0 -38 20.5 -56t68.5 -18q53 0 79.5 24t36.5 75l76 380h141l-80 -400q-21 -102 -83.5 -152.5t-172.5 -50.5q-117 0 -172.5 46.5zM361 820h126l-143 -157h-102zM531 820h126l-143 -157
h-102z" />
    <glyph glyph-name="umacron.sc" horiz-adv-x="616" 
d="M110.5 31.5q-55.5 46.5 -55.5 140.5q0 30 8 70l69 346h143l-72 -358q-6 -27 -6 -47q0 -38 20.5 -56t68.5 -18q53 0 79.5 24t36.5 75l76 380h141l-80 -400q-21 -102 -83.5 -152.5t-172.5 -50.5q-117 0 -172.5 46.5zM262 780h299l-18 -89h-299z" />
    <glyph glyph-name="uogonek.sc" horiz-adv-x="616" 
d="M619 588l-80 -400q-14 -68 -44.5 -111t-85.5 -77q-45 -28 -70.5 -51t-25.5 -49q0 -15 10.5 -23t27.5 -8q22 0 37 5l-16 -79q-29 -8 -66 -8q-50 0 -79 21.5t-29 62.5q0 36 21.5 63.5t59.5 50.5q-114 1 -169 47.5t-55 139.5q0 30 8 70l69 346h143l-72 -358q-6 -27 -6 -47
q0 -38 20.5 -56t68.5 -18q53 0 79.5 24t36.5 75l76 380h141z" />
    <glyph glyph-name="uring.sc" horiz-adv-x="616" 
d="M110.5 31.5q-55.5 46.5 -55.5 140.5q0 30 8 70l69 346h143l-72 -358q-6 -27 -6 -47q0 -38 20.5 -56t68.5 -18q53 0 79.5 24t36.5 75l76 380h141l-80 -400q-21 -102 -83.5 -152.5t-172.5 -50.5q-117 0 -172.5 46.5zM330 658q-29 15 -45 42t-16 62q0 36 16 63t45 41.5
t68 14.5t69 -15t46 -42t16 -62t-16.5 -62t-46 -42t-68.5 -15t-68 15zM437 725.5q14 13.5 14 36.5t-14.5 37t-38.5 14q-23 0 -37 -14t-14 -37t14 -36.5t37 -13.5q25 0 39 13.5z" />
    <glyph glyph-name="utilde.sc" horiz-adv-x="616" 
d="M110.5 31.5q-55.5 46.5 -55.5 140.5q0 30 8 70l69 346h143l-72 -358q-6 -27 -6 -47q0 -38 20.5 -56t68.5 -18q53 0 79.5 24t36.5 75l76 380h141l-80 -400q-21 -102 -83.5 -152.5t-172.5 -50.5q-117 0 -172.5 46.5zM391 694q-19 18 -29.5 25.5t-23.5 7.5q-17 0 -28 -15.5
t-19 -48.5h-84q17 81 49 120t81 39q23 0 41 -9t35 -26q20 -18 30.5 -25t23.5 -7q18 0 28.5 15.5t19.5 49.5h83q-17 -82 -48.5 -120.5t-82.5 -38.5q-46 0 -76 33z" />
    <glyph glyph-name="v.sc" horiz-adv-x="588" 
d="M650 588l-335 -588h-141l-100 588h140l57 -415l223 415h156z" />
    <glyph glyph-name="w.sc" horiz-adv-x="814" 
d="M876 588l-278 -588h-147l-16 390l-171 -390h-145l-45 588h133l21 -381l168 381h148l14 -378l173 378h145z" />
    <glyph glyph-name="wacute.sc" horiz-adv-x="814" 
d="M876 588l-278 -588h-147l-16 390l-171 -390h-145l-45 588h133l21 -381l168 381h148l14 -378l173 378h145zM511 819h143l-129 -156h-128z" />
    <glyph glyph-name="wcircumflex.sc" horiz-adv-x="814" 
d="M876 588l-278 -588h-147l-16 390l-171 -390h-145l-45 588h133l21 -381l168 381h148l14 -378l173 378h145zM432 820h158l68 -158h-118l-40 95l-77 -95h-124z" />
    <glyph glyph-name="wdieresis.sc" horiz-adv-x="814" 
d="M876 588l-278 -588h-147l-16 390l-171 -390h-145l-45 588h133l21 -381l168 381h148l14 -378l173 378h145zM340 685.5q-21 20.5 -21 51.5t21 51.5t53 20.5q21 0 38 -9.5t27 -26t10 -36.5t-10 -36.5t-27 -26t-38 -9.5q-32 0 -53 20.5zM544 685.5q-21 20.5 -21 51.5t21 51.5
t53 20.5q21 0 38 -9.5t27 -26t10 -36.5t-10 -36.5t-27 -26t-38 -9.5q-32 0 -53 20.5z" />
    <glyph glyph-name="wgrave.sc" horiz-adv-x="814" 
d="M876 588l-278 -588h-147l-16 390l-171 -390h-145l-45 588h133l21 -381l168 381h148l14 -378l173 378h145zM449 663l-79 156h130l65 -156h-116z" />
    <glyph glyph-name="x.sc" horiz-adv-x="604" 
d="M227 311l-150 277h154l90 -172l122 172h179l-231 -290l156 -298h-152l-99 188l-140 -188h-181z" />
    <glyph glyph-name="y.sc" horiz-adv-x="529" 
d="M195 252l-121 336h141l68 -196l145 196h163l-255 -336l-51 -252h-141z" />
    <glyph glyph-name="yacute.sc" horiz-adv-x="529" 
d="M195 252l-121 336h141l68 -196l145 196h163l-255 -336l-51 -252h-141zM367 819h143l-129 -156h-128z" />
    <glyph glyph-name="ycircumflex.sc" horiz-adv-x="529" 
d="M195 252l-121 336h141l68 -196l145 196h163l-255 -336l-51 -252h-141zM287 820h158l68 -158h-118l-40 95l-77 -95h-124z" />
    <glyph glyph-name="ydieresis.sc" horiz-adv-x="529" 
d="M195 252l-121 336h141l68 -196l145 196h163l-255 -336l-51 -252h-141zM196 685.5q-21 20.5 -21 51.5t21 51.5t53 20.5q21 0 38 -9.5t27 -26t10 -36.5t-10 -36.5t-27 -26t-38 -9.5q-32 0 -53 20.5zM400 685.5q-21 20.5 -21 51.5t21 51.5t53 20.5q21 0 38 -9.5t27 -26
t10 -36.5t-10 -36.5t-27 -26t-38 -9.5q-32 0 -53 20.5z" />
    <glyph glyph-name="ygrave.sc" horiz-adv-x="529" 
d="M195 252l-121 336h141l68 -196l145 196h163l-255 -336l-51 -252h-141zM304 663l-79 156h130l65 -156h-116z" />
    <glyph glyph-name="z.sc" horiz-adv-x="535" 
d="M301 467h-233l24 121h456l-327 -467h258l-24 -121h-482z" />
    <glyph glyph-name="zacute.sc" horiz-adv-x="535" 
d="M301 467h-233l24 121h456l-327 -467h258l-24 -121h-482zM357 819h143l-129 -156h-128z" />
    <glyph glyph-name="zcaron.sc" horiz-adv-x="535" 
d="M301 467h-233l24 121h456l-327 -467h258l-24 -121h-482zM406 662h-157l-69 157h118l41 -94l76 94h124z" />
    <glyph glyph-name="zdotaccent.sc" horiz-adv-x="535" 
d="M301 467h-233l24 121h456l-327 -467h258l-24 -121h-482zM302 678.5q-18 9.5 -28 26.5t-10 38q0 33 22 54.5t56 21.5q22 0 39.5 -10t28 -27t10.5 -39q0 -21 -10.5 -38t-28 -26.5t-39.5 -9.5t-40 9.5z" />
    <glyph glyph-name="m.sc.ss01" horiz-adv-x="768" 
d="M148 588h160l89 -213l171 213h187l-117 -588h-138l83 414l-180 -222h-61l-91 222l-83 -414h-137z" />
    <glyph glyph-name="q.sc.ss02" horiz-adv-x="665" 
d="M607 200q-22 -64 -63.5 -112.5t-100.5 -74.5l35 -101l-130 -44l-35 117h-6q-85 0 -141.5 33.5t-84 93t-27.5 139.5q0 97 39 177t112 127t171 47q85 0 141.5 -33.5t84 -93t27.5 -138.5q0 -73 -22 -137zM408.5 142.5q37.5 34.5 55.5 87.5t18 109q0 67 -28 104t-88 37
q-55 0 -92.5 -34t-55 -87.5t-17.5 -110.5q0 -66 27.5 -103t87.5 -37q55 0 92.5 34.5z" />
    <glyph glyph-name="oslash.sc.ss04" horiz-adv-x="665" 
d="M599 481q30 -61 30 -144q0 -98 -39 -178t-112 -127t-171 -47q-86 0 -144 35l-90 -99l-88 80l99 105q-30 62 -30 145q0 97 39 177t112 127t171 47q85 0 144 -35l93 101l88 -80zM408.5 142.5q37.5 34.5 55.5 87.5t18 109q0 67 -28 104t-88 37q-55 0 -92.5 -34t-55 -87.5
t-17.5 -110.5q0 -66 27.5 -103t87.5 -37q55 0 92.5 34.5z" />
    <glyph glyph-name="A.subs" horiz-adv-x="421" 
d="M228 -55h-147l-33 -65h-117l201 388h164l47 -388h-108zM219 29l-17 157h-1l-78 -157h96z" />
    <glyph glyph-name="B.subs" horiz-adv-x="403" 
d="M311 55.5q14 -20.5 14 -54.5q0 -61 -41 -91t-113 -30h-184l77 388h162q58 0 89 -19t31 -65q0 -74 -81 -95q32 -13 46 -33.5zM237 159q0 21 -12.5 30t-37.5 9h-28l-17 -83h34q61 0 61 44zM202 -36q17 14 17 39q0 22 -13 33t-43 11h-34l-20 -97h39q37 0 54 14z" />
    <glyph glyph-name="C.subs" horiz-adv-x="443" 
d="M43.5 -84.5q-44.5 46.5 -44.5 132.5q0 65 25.5 117.5t75 83t118.5 30.5q52 0 90 -17t58.5 -48.5t20.5 -74.5q0 -10 -3 -25h-112q3 34 -13.5 52.5t-48.5 18.5q-33 0 -55 -21t-32 -52t-10 -63q0 -44 18.5 -64.5t51.5 -20.5q28 0 47 14t26 40h111q-15 -71 -65 -110t-132 -39
t-126.5 46.5z" />
    <glyph glyph-name="D.subs" horiz-adv-x="454" 
d="M64 268h134q98 0 142.5 -43.5t44.5 -126.5q0 -63 -28 -112.5t-80 -77.5t-122 -28h-168zM153 -30q39 0 65.5 17t39 45.5t12.5 63.5q0 42 -20 62.5t-61 20.5h-34l-42 -209h40z" />
    <glyph glyph-name="E.subs" horiz-adv-x="361" 
d="M64 268h260l-16 -84h-152l-13 -65h150l-17 -85h-150l-14 -69h152l-17 -85h-260z" />
    <glyph glyph-name="F.subs" horiz-adv-x="339" 
d="M64 268h246l-17 -84h-137l-14 -71h135l-16 -84h-136l-29 -149h-109z" />
    <glyph glyph-name="G.subs" horiz-adv-x="451" 
d="M201 96h183l-8 -50q-14 -84 -66.5 -130.5t-137.5 -46.5q-86 0 -130.5 46t-44.5 128q0 65 27.5 119t79.5 85.5t123 31.5q75 0 118.5 -36.5t43.5 -109.5h-110q0 29 -16 43.5t-45 14.5q-50 0 -78 -38.5t-28 -101.5q0 -46 17.5 -69t56.5 -23q34 0 53 17.5t26 48.5h-78z" />
    <glyph glyph-name="H.subs" horiz-adv-x="470" 
d="M64 268h109l-29 -146h131l29 146h109l-77 -388h-109l29 149h-131l-29 -149h-109z" />
    <glyph glyph-name="I.subs" horiz-adv-x="230" 
d="M64 268h109l-77 -388h-109z" />
    <glyph glyph-name="J.subs" horiz-adv-x="246" 
d="M-62 -119l20 99q4 -1 16 -1q24 0 37.5 5.5t21.5 19t13 37.5l45 227h110l-51 -258q-14 -66 -55.5 -99t-117.5 -33q-20 0 -39 3z" />
    <glyph glyph-name="K.subs" horiz-adv-x="438" 
d="M229 79l130 -199h-125l-105 165l-33 -165h-109l77 388h109l-28 -140l130 140h137z" />
    <glyph glyph-name="L.subs" horiz-adv-x="302" 
d="M64 268h109l-58 -291h121l-19 -97h-230z" />
    <glyph glyph-name="M.subs" horiz-adv-x="566" 
d="M64 268h113l60 -218l144 218h128l-77 -388h-102l44 222l-145 -222h-38l-58 222l-44 -222h-102z" />
    <glyph glyph-name="N.subs" horiz-adv-x="480" 
d="M64 268h107l102 -230l45 230h105l-77 -388h-108l-101 230l-45 -230h-105z" />
    <glyph glyph-name="O.subs" horiz-adv-x="462" 
d="M41 -82.5q-43 48.5 -43 129.5q0 65 27.5 118t77.5 83.5t115 30.5q89 0 132 -48t43 -129q0 -65 -27.5 -118.5t-77.5 -84t-115 -30.5q-89 0 -132 48.5zM234 -16.5q23 19.5 34.5 50.5t11.5 68q0 39 -15.5 60.5t-51.5 21.5q-34 0 -56.5 -19t-34 -51t-11.5 -70q0 -80 67 -80
q33 0 56 19.5z" />
    <glyph glyph-name="P.subs" horiz-adv-x="385" 
d="M64 268h138q71 0 107 -28.5t36 -88.5q0 -65 -39.5 -97.5t-112.5 -32.5h-69l-28 -141h-109zM171 95q32 0 49.5 13.5t17.5 39.5q0 46 -53 46h-26l-20 -99h32z" />
    <glyph glyph-name="Q.subs" horiz-adv-x="462" 
d="M363.5 -20.5q-29.5 -54.5 -81.5 -83.5l27 -56l-77 -33l-27 64q-20 -2 -32 -2q-89 0 -132 48.5t-43 129.5q0 65 27.5 118t77.5 83.5t115 30.5q89 0 132 -48t43 -129q0 -68 -29.5 -122.5zM237 -14q21 18 32 49t11 67q0 39 -15.5 60.5t-51.5 21.5q-34 0 -56.5 -19t-34 -51
t-11.5 -70q0 -74 56 -79l-11 25l65 29z" />
    <glyph glyph-name="R.subs" horiz-adv-x="410" 
d="M322.5 74q-27.5 -35 -75.5 -47l82 -147h-112l-78 142h-15l-28 -142h-109l78 388h157q66 0 97 -28.5t31 -80.5q0 -50 -27.5 -85zM139 92h38q31 0 45.5 15.5t14.5 41.5q0 24 -12 34.5t-37 10.5h-29z" />
    <glyph glyph-name="S.subs" horiz-adv-x="382" 
d="M43.5 -118.5q-35.5 12.5 -53.5 35.5t-18 54q0 16 2 25h113v-7q0 -17 13 -26t37 -9q23 0 36 9t13 27q0 12 -7.5 21t-23.5 16.5t-49 20.5q-27 11 -46.5 22.5t-32 32.5t-12.5 52q0 40 22 68t60 42t87 14q69 0 106 -25.5t37 -70.5q0 -11 -3 -26h-109v9q0 15 -10.5 24t-32.5 9
t-33.5 -8.5t-11.5 -25.5q0 -12 8 -20.5t27.5 -16.5t43.5 -17q32 -13 53.5 -26t35 -34.5t13.5 -52.5q0 -39 -21 -68t-61 -45t-97 -16q-50 0 -85.5 12.5z" />
    <glyph glyph-name="T.subs" horiz-adv-x="326" 
d="M95 179h-97l17 89h303l-18 -89h-96l-60 -299h-109z" />
    <glyph glyph-name="U.subs" horiz-adv-x="437" 
d="M2 -1q0 23 6 48l44 221h109l-45 -226q-4 -16 -4 -31q0 -23 12.5 -35t40.5 -12q33 0 48.5 15t21.5 47l48 242h109l-52 -256q-14 -71 -58.5 -107t-124.5 -36q-155 0 -155 130z" />
    <glyph glyph-name="V.subs" horiz-adv-x="409" 
d="M408 268l-223 -388h-107l-70 388h108l35 -257l138 257h119z" />
    <glyph glyph-name="W.subs" horiz-adv-x="559" 
d="M558 268l-184 -388h-113l-8 237l-103 -237h-110l-32 388h102l13 -238l103 238h107l8 -234l105 234h112z" />
    <glyph glyph-name="X.subs" horiz-adv-x="431" 
d="M120 91l-93 177h116l50 -95l82 95h137l-165 -184l105 -204h-117l-61 117l-103 -117h-139z" />
    <glyph glyph-name="Y.subs" horiz-adv-x="367" 
d="M89 46l-81 222h107l40 -114l86 114h125l-168 -222l-34 -166h-109z" />
    <glyph glyph-name="Z.subs" horiz-adv-x="370" 
d="M152 176h-141l19 92h313l-209 -296h158l-18 -92h-331z" />
    <glyph glyph-name="a.subs" horiz-adv-x="386" 
d="M267.5 163.5q33.5 -27.5 33.5 -81.5q0 -22 -6 -51l-31 -151h-103l5 28q-36 -36 -95 -36q-50 0 -74.5 22.5t-24.5 63.5q0 60 46 84.5t124 24.5h56l2 19q0 17 -9.5 25.5t-31.5 8.5q-40 0 -46 -31h-106q11 50 50 76t105 26q72 0 105.5 -27.5zM164 -39q16 16 22 49h-43
q-31 0 -45.5 -8.5t-14.5 -27.5q0 -15 8.5 -22t26.5 -7q30 0 46 16z" />
    <glyph glyph-name="b.subs" horiz-adv-x="402" 
d="M303.5 155q27.5 -36 27.5 -96q0 -51 -19 -93.5t-54.5 -68t-83.5 -25.5q-34 0 -56 11.5t-34 35.5l-7 -39h-101l84 424h104l-28 -143q35 30 82 30q58 0 85.5 -36zM202.5 -15q18.5 25 18.5 63q0 54 -49 54q-50 0 -62 -61q-6 -28 -6 -41q0 -19 11.5 -29.5t33.5 -10.5
q35 0 53.5 25z" />
    <glyph glyph-name="c.subs" horiz-adv-x="374" 
d="M20.5 -89.5q-36.5 38.5 -36.5 102.5q0 50 22.5 90.5t63.5 64t93 23.5q73 0 109.5 -33.5t36.5 -96.5h-113q0 41 -39 41q-32 0 -48 -25t-16 -61q0 -56 43 -56q19 0 31 10t15 24h113q-12 -58 -57.5 -90t-107.5 -32q-73 0 -109.5 38.5z" />
    <glyph glyph-name="d.subs" horiz-adv-x="403" 
d="M363 304l-85 -424h-101l5 25q-35 -34 -86 -34q-58 0 -85.5 36t-27.5 96q0 51 19 93.5t54.5 68t83.5 25.5q32 0 53.5 -10t33.5 -32l32 156h104zM142 -40q25 0 40 15t22 46q6 34 6 41q0 19 -11.5 29.5t-33.5 10.5q-35 0 -53.5 -25t-18.5 -63q0 -54 49 -54z" />
    <glyph glyph-name="e.subs" horiz-adv-x="380" 
d="M303 6h-214q0 -32 11.5 -47.5t38.5 -15.5q20 0 33.5 8t17.5 25h106q-8 -32 -32 -55.5t-58.5 -36t-73.5 -12.5q-75 0 -111.5 36.5t-36.5 100.5q0 52 23 93.5t64.5 65t95.5 23.5q66 0 104.5 -34.5t38.5 -101.5q0 -21 -7 -49zM121.5 105q-15.5 -15 -23.5 -40h109
q-1 27 -12 41t-35 14q-23 0 -38.5 -15z" />
    <glyph glyph-name="f.subs" horiz-adv-x="231" 
d="M19 98h-36l17 84h36l7 34q11 53 41 76t90 23q29 0 55 -7l-15 -75q-14 4 -27 4q-37 0 -45 -35l-3 -20h64l-17 -84h-65l-43 -218h-103z" />
    <glyph glyph-name="g.subs" horiz-adv-x="401" 
d="M337 182l-60 -303q-26 -128 -175 -128q-70 0 -109 25t-38 74h109q1 -13 12 -20.5t29 -7.5q29 0 46 14.5t22 41.5l5 27q-31 -30 -81 -30q-58 0 -85.5 36t-27.5 96q0 49 19 91t54.5 67t82.5 25q34 0 56 -11t33 -35l8 38h100zM143 -36q49 0 61 61q6 30 6 37q0 19 -11.5 29.5
t-33.5 10.5q-35 0 -53.5 -23.5t-18.5 -60.5q0 -54 50 -54z" />
    <glyph glyph-name="h.subs" horiz-adv-x="396" 
d="M290.5 165.5q23.5 -25.5 23.5 -72.5q0 -17 -4 -38l-35 -175h-103l33 161q2 16 2 22q0 21 -9.5 30t-30.5 9q-42 0 -52 -49l-35 -173h-104l84 424h103l-29 -148q37 35 88 35q45 0 68.5 -25.5z" />
    <glyph glyph-name="i.subs" horiz-adv-x="203" 
d="M66 233.5q-16 15.5 -16 37.5q0 23 15.5 38.5t39.5 15.5t40 -15.5t16 -38.5q0 -22 -16 -37.5t-40 -15.5q-23 0 -39 15.5zM37 182h103l-61 -302h-103z" />
    <glyph glyph-name="j.subs" horiz-adv-x="203" 
d="M67 233q-16 15 -16 38t15.5 38.5t40.5 15.5q23 0 39 -15.5t16 -38.5q0 -22 -16 -37.5t-39 -15.5q-24 0 -40 15zM-97 -237l19 88q6 -2 19 -2q30 0 34 28l62 305h103l-65 -327q-10 -51 -38.5 -74t-81.5 -23q-27 0 -52 5z" />
    <glyph glyph-name="k.subs" horiz-adv-x="369" 
d="M200 33l104 -153h-126l-74 121l-24 -121h-104l84 424h104l-44 -220l93 98h137z" />
    <glyph glyph-name="l.subs" horiz-adv-x="203" 
d="M60 304h103l-84 -424h-103z" />
    <glyph glyph-name="m.subs" horiz-adv-x="580" 
d="M474.5 165.5q23.5 -25.5 23.5 -72.5q0 -17 -4 -38l-35 -175h-103l32 161q3 12 3 22q0 21 -9 30t-28 9q-20 0 -32 -11.5t-18 -37.5l-34 -173h-103l32 161q1 4 2 9.5t1 12.5q0 21 -9 30t-28 9q-20 0 -32.5 -12t-17.5 -37l-35 -173h-104l61 302h99l-6 -30q19 19 40.5 29
t48.5 10q32 0 53 -14t30 -40q21 27 46 40.5t58 13.5q45 0 68.5 -25.5z" />
    <glyph glyph-name="n.subs" horiz-adv-x="396" 
d="M290.5 165.5q23.5 -25.5 23.5 -72.5q0 -17 -4 -38l-35 -175h-103l33 161q2 16 2 22q0 21 -9.5 30t-30.5 9t-34 -11.5t-18 -37.5l-35 -173h-104l61 302h99l-6 -31q38 40 92 40q45 0 68.5 -25.5z" />
    <glyph glyph-name="o.subs" horiz-adv-x="384" 
d="M49.5 -110q-33.5 18 -49.5 49.5t-16 71.5q0 51 22.5 92t64 64.5t94.5 23.5q75 0 111.5 -38t36.5 -101q0 -52 -22 -93t-63 -64t-95 -23q-50 0 -83.5 18zM189 -14.5q16 25.5 16 62.5q0 26 -11 40t-37 14q-32 0 -48 -25t-16 -62q0 -27 11 -41t37 -14q32 0 48 25.5z" />
    <glyph glyph-name="p.subs" horiz-adv-x="402" 
d="M304.5 155q27.5 -36 27.5 -96q0 -51 -19 -93.5t-54.5 -68t-83.5 -25.5q-32 0 -53.5 10t-33.5 32l-32 -155h-104l85 423h100l-5 -26q34 35 87 35q58 0 85.5 -36zM203.5 -15q18.5 25 18.5 63q0 54 -49 54q-50 0 -62 -61q-6 -28 -6 -41q0 -19 11.5 -29.5t32.5 -10.5
q36 0 54.5 25z" />
    <glyph glyph-name="q.subs" horiz-adv-x="402" 
d="M337 182l-84 -423h-104l29 142q-34 -30 -82 -30q-58 0 -85.5 36t-27.5 96q0 51 19 93.5t54.5 68t83.5 25.5q34 0 56 -11t33 -35l8 38h100zM142 -40q25 0 40 15t22 46q6 34 6 41q0 19 -11.5 29.5t-33.5 10.5q-35 0 -53.5 -25t-18.5 -63q0 -54 49 -54z" />
    <glyph glyph-name="r.subs" horiz-adv-x="271" 
d="M247 182l-19 -92q-9 3 -26 3q-79 0 -99 -101l-23 -112h-104l61 302h98l-8 -39q36 44 87 44q18 0 33 -5z" />
    <glyph glyph-name="s.subs" horiz-adv-x="329" 
d="M1.5 -106q-32.5 25 -32.5 69q0 10 1 16h102v-8q0 -30 34 -30q31 0 31 23q0 12 -9.5 19.5t-32.5 16.5q-44 16 -66.5 37t-22.5 56q0 47 38 72.5t98 25.5q58 0 88 -22t30 -64v-11h-98v5q0 26 -29 26q-13 0 -20 -6t-7 -16t9.5 -16t38.5 -17q47 -17 70 -38.5t23 -57.5
q0 -51 -41.5 -78t-106.5 -27t-97.5 25z" />
    <glyph glyph-name="t.subs" horiz-adv-x="244" 
d="M19 -106.5q-24 19.5 -24 64.5q0 21 4 41l20 99h-39l18 84h39l14 70h103l-14 -70h69l-18 -84h-68l-19 -94q-2 -12 -2 -17q0 -15 8 -21t24 -6q12 0 30 3l-17 -84q-28 -5 -51 -5q-53 0 -77 19.5z" />
    <glyph glyph-name="u.subs" horiz-adv-x="396" 
d="M333 182l-61 -302h-99l6 31q-38 -40 -92 -40q-45 0 -68.5 25.5t-23.5 72.5q0 17 4 38l35 175h103l-33 -161q-2 -16 -2 -22q0 -21 9.5 -30t30.5 -9t34 12t18 37l35 173h104z" />
    <glyph glyph-name="v.subs" horiz-adv-x="360" 
d="M-4 182h105l23 -179l95 179h118l-170 -302h-121z" />
    <glyph glyph-name="w.subs" horiz-adv-x="533" 
d="M510 182l-170 -302h-99l-17 166l-82 -166h-98l-48 302h104l15 -168l88 168h86l20 -167l83 167h118z" />
    <glyph glyph-name="x.subs" horiz-adv-x="380" 
d="M89 39l-88 143h111l42 -74l68 74h134l-147 -149l91 -153h-109l-48 80l-74 -80h-132z" />
    <glyph glyph-name="y.subs" horiz-adv-x="360" 
d="M338 182l-254 -422h-114l73 121l-47 301h104l18 -190l101 190h119z" />
    <glyph glyph-name="z.subs" horiz-adv-x="313" 
d="M119 -36h123l-17 -84h-292l179 218h-122l17 84h285z" />
    <glyph glyph-name="A.sups" horiz-adv-x="421" 
d="M340 503h-147l-33 -65h-117l201 388h164l47 -388h-108zM331 587l-17 157h-1l-78 -157h96z" />
    <glyph glyph-name="B.sups" horiz-adv-x="403" 
d="M423 613.5q14 -20.5 14 -54.5q0 -61 -41 -91t-113 -30h-184l77 388h162q58 0 89 -19t31 -65q0 -74 -81 -95q32 -13 46 -33.5zM349 717q0 21 -12.5 30t-37.5 9h-28l-17 -83h34q61 0 61 44zM314 522q17 14 17 39q0 22 -13 33t-43 11h-34l-20 -97h39q37 0 54 14z" />
    <glyph glyph-name="C.sups" horiz-adv-x="443" 
d="M155.5 473.5q-44.5 46.5 -44.5 132.5q0 65 25.5 117.5t75 83t118.5 30.5q52 0 90 -17t58.5 -48.5t20.5 -74.5q0 -10 -3 -25h-112q3 34 -13.5 52.5t-48.5 18.5q-33 0 -55 -21t-32 -52t-10 -63q0 -44 18.5 -64.5t51.5 -20.5q28 0 47 14t26 40h111q-15 -71 -65 -110
t-132 -39t-126.5 46.5z" />
    <glyph glyph-name="D.sups" horiz-adv-x="454" 
d="M176 826h134q98 0 142.5 -43.5t44.5 -126.5q0 -63 -28 -112.5t-80 -77.5t-122 -28h-168zM265 528q39 0 65.5 17t39 45.5t12.5 63.5q0 42 -20 62.5t-61 20.5h-34l-42 -209h40z" />
    <glyph glyph-name="E.sups" horiz-adv-x="361" 
d="M176 826h260l-16 -84h-152l-13 -65h150l-17 -85h-150l-14 -69h152l-17 -85h-260z" />
    <glyph glyph-name="F.sups" horiz-adv-x="339" 
d="M176 826h246l-17 -84h-137l-14 -71h135l-16 -84h-136l-29 -149h-109z" />
    <glyph glyph-name="G.sups" horiz-adv-x="451" 
d="M313 654h183l-8 -50q-14 -84 -66.5 -130.5t-137.5 -46.5q-86 0 -130.5 46t-44.5 128q0 65 27.5 119t79.5 85.5t123 31.5q75 0 118.5 -36.5t43.5 -109.5h-110q0 29 -16 43.5t-45 14.5q-50 0 -78 -38.5t-28 -101.5q0 -46 17.5 -69t56.5 -23q34 0 53 17.5t26 48.5h-78z" />
    <glyph glyph-name="H.sups" horiz-adv-x="470" 
d="M176 826h109l-29 -146h131l29 146h109l-77 -388h-109l29 149h-131l-29 -149h-109z" />
    <glyph glyph-name="I.sups" horiz-adv-x="230" 
d="M176 826h109l-77 -388h-109z" />
    <glyph glyph-name="J.sups" horiz-adv-x="246" 
d="M50 439l20 99q4 -1 16 -1q24 0 37.5 5.5t21.5 19t13 37.5l45 227h110l-51 -258q-14 -66 -55.5 -99t-117.5 -33q-20 0 -39 3z" />
    <glyph glyph-name="K.sups" horiz-adv-x="438" 
d="M341 637l130 -199h-125l-105 165l-33 -165h-109l77 388h109l-28 -140l130 140h137z" />
    <glyph glyph-name="L.sups" horiz-adv-x="302" 
d="M176 826h109l-58 -291h121l-19 -97h-230z" />
    <glyph glyph-name="M.sups" horiz-adv-x="566" 
d="M176 826h113l60 -218l144 218h128l-77 -388h-102l44 222l-145 -222h-38l-58 222l-44 -222h-102z" />
    <glyph glyph-name="N.sups" horiz-adv-x="480" 
d="M176 826h107l102 -230l45 230h105l-77 -388h-108l-101 230l-45 -230h-105z" />
    <glyph glyph-name="O.sups" horiz-adv-x="462" 
d="M153 475.5q-43 48.5 -43 129.5q0 65 27.5 118t77.5 83.5t115 30.5q89 0 132 -48t43 -129q0 -65 -27.5 -118.5t-77.5 -84t-115 -30.5q-89 0 -132 48.5zM346 541.5q23 19.5 34.5 50.5t11.5 68q0 39 -15.5 60.5t-51.5 21.5q-34 0 -56.5 -19t-34 -51t-11.5 -70q0 -80 67 -80
q33 0 56 19.5z" />
    <glyph glyph-name="P.sups" horiz-adv-x="385" 
d="M176 826h138q71 0 107 -28.5t36 -88.5q0 -65 -39.5 -97.5t-112.5 -32.5h-69l-28 -141h-109zM283 653q32 0 49.5 13.5t17.5 39.5q0 46 -53 46h-26l-20 -99h32z" />
    <glyph glyph-name="Q.sups" horiz-adv-x="462" 
d="M475.5 537.5q-29.5 -54.5 -81.5 -83.5l27 -56l-77 -33l-27 64q-20 -2 -32 -2q-89 0 -132 48.5t-43 129.5q0 65 27.5 118t77.5 83.5t115 30.5q89 0 132 -48t43 -129q0 -68 -29.5 -122.5zM349 544q21 18 32 49t11 67q0 39 -15.5 60.5t-51.5 21.5q-34 0 -56.5 -19t-34 -51
t-11.5 -70q0 -74 56 -79l-11 25l65 29z" />
    <glyph glyph-name="R.sups" horiz-adv-x="410" 
d="M434.5 632q-27.5 -35 -75.5 -47l82 -147h-112l-78 142h-15l-28 -142h-109l78 388h157q66 0 97 -28.5t31 -80.5q0 -50 -27.5 -85zM251 650h38q31 0 45.5 15.5t14.5 41.5q0 24 -12 34.5t-37 10.5h-29z" />
    <glyph glyph-name="S.sups" horiz-adv-x="382" 
d="M155.5 439.5q-35.5 12.5 -53.5 35.5t-18 54q0 16 2 25h113v-7q0 -17 13 -26t37 -9q23 0 36 9t13 27q0 12 -7.5 21t-23.5 16.5t-49 20.5q-27 11 -46.5 22.5t-32 32.5t-12.5 52q0 40 22 68t60 42t87 14q69 0 106 -25.5t37 -70.5q0 -11 -3 -26h-109v9q0 15 -10.5 24t-32.5 9
t-33.5 -8.5t-11.5 -25.5q0 -12 8 -20.5t27.5 -16.5t43.5 -17q32 -13 53.5 -26t35 -34.5t13.5 -52.5q0 -39 -21 -68t-61 -45t-97 -16q-50 0 -85.5 12.5z" />
    <glyph glyph-name="T.sups" horiz-adv-x="326" 
d="M207 737h-97l17 89h303l-18 -89h-96l-60 -299h-109z" />
    <glyph glyph-name="U.sups" horiz-adv-x="437" 
d="M114 557q0 23 6 48l44 221h109l-45 -226q-4 -16 -4 -31q0 -23 12.5 -35t40.5 -12q33 0 48.5 15t21.5 47l48 242h109l-52 -256q-14 -71 -58.5 -107t-124.5 -36q-155 0 -155 130z" />
    <glyph glyph-name="V.sups" horiz-adv-x="409" 
d="M520 826l-223 -388h-107l-70 388h108l35 -257l138 257h119z" />
    <glyph glyph-name="W.sups" horiz-adv-x="559" 
d="M670 826l-184 -388h-113l-8 237l-103 -237h-110l-32 388h102l13 -238l103 238h107l8 -234l105 234h112z" />
    <glyph glyph-name="X.sups" horiz-adv-x="431" 
d="M232 649l-93 177h116l50 -95l82 95h137l-165 -184l105 -204h-117l-61 117l-103 -117h-139z" />
    <glyph glyph-name="Y.sups" horiz-adv-x="367" 
d="M201 604l-81 222h107l40 -114l86 114h125l-168 -222l-34 -166h-109z" />
    <glyph glyph-name="Z.sups" horiz-adv-x="370" 
d="M264 734h-141l19 92h313l-209 -296h158l-18 -92h-331z" />
    <glyph glyph-name="a.sups" horiz-adv-x="386" 
d="M379.5 721.5q33.5 -27.5 33.5 -81.5q0 -22 -6 -51l-31 -151h-103l5 28q-36 -36 -95 -36q-50 0 -74.5 22.5t-24.5 63.5q0 60 46 84.5t124 24.5h56l2 19q0 17 -9.5 25.5t-31.5 8.5q-40 0 -46 -31h-106q11 50 50 76t105 26q72 0 105.5 -27.5zM276 519q16 16 22 49h-43
q-31 0 -45.5 -8.5t-14.5 -27.5q0 -15 8.5 -22t26.5 -7q30 0 46 16z" />
    <glyph glyph-name="b.sups" horiz-adv-x="402" 
d="M415.5 713q27.5 -36 27.5 -96q0 -51 -19 -93.5t-54.5 -68t-83.5 -25.5q-34 0 -56 11.5t-34 35.5l-7 -39h-101l84 424h104l-28 -143q35 30 82 30q58 0 85.5 -36zM314.5 543q18.5 25 18.5 63q0 54 -49 54q-50 0 -62 -61q-6 -28 -6 -41q0 -19 11.5 -29.5t33.5 -10.5
q35 0 53.5 25z" />
    <glyph glyph-name="c.sups" horiz-adv-x="374" 
d="M132.5 468.5q-36.5 38.5 -36.5 102.5q0 50 22.5 90.5t63.5 64t93 23.5q73 0 109.5 -33.5t36.5 -96.5h-113q0 41 -39 41q-32 0 -48 -25t-16 -61q0 -56 43 -56q19 0 31 10t15 24h113q-12 -58 -57.5 -90t-107.5 -32q-73 0 -109.5 38.5z" />
    <glyph glyph-name="d.sups" horiz-adv-x="403" 
d="M475 862l-85 -424h-101l5 25q-35 -34 -86 -34q-58 0 -85.5 36t-27.5 96q0 51 19 93.5t54.5 68t83.5 25.5q32 0 53.5 -10t33.5 -32l32 156h104zM254 518q25 0 40 15t22 46q6 34 6 41q0 19 -11.5 29.5t-33.5 10.5q-35 0 -53.5 -25t-18.5 -63q0 -54 49 -54z" />
    <glyph glyph-name="e.sups" horiz-adv-x="380" 
d="M415 564h-214q0 -32 11.5 -47.5t38.5 -15.5q20 0 33.5 8t17.5 25h106q-8 -32 -32 -55.5t-58.5 -36t-73.5 -12.5q-75 0 -111.5 36.5t-36.5 100.5q0 52 23 93.5t64.5 65t95.5 23.5q66 0 104.5 -34.5t38.5 -101.5q0 -21 -7 -49zM233.5 663q-15.5 -15 -23.5 -40h109
q-1 27 -12 41t-35 14q-23 0 -38.5 -15z" />
    <glyph glyph-name="f.sups" horiz-adv-x="231" 
d="M131 656h-36l17 84h36l7 34q11 53 41 76t90 23q29 0 55 -7l-15 -75q-14 4 -27 4q-37 0 -45 -35l-3 -20h64l-17 -84h-65l-43 -218h-103z" />
    <glyph glyph-name="g.sups" horiz-adv-x="401" 
d="M449 740l-60 -303q-26 -128 -175 -128q-70 0 -109 25t-38 74h109q1 -13 12 -20.5t29 -7.5q29 0 46 14.5t22 41.5l5 27q-31 -30 -81 -30q-58 0 -85.5 36t-27.5 96q0 49 19 91t54.5 67t82.5 25q34 0 56 -11t33 -35l8 38h100zM255 522q49 0 61 61q6 30 6 37q0 19 -11.5 29.5
t-33.5 10.5q-35 0 -53.5 -23.5t-18.5 -60.5q0 -54 50 -54z" />
    <glyph glyph-name="h.sups" horiz-adv-x="396" 
d="M402.5 723.5q23.5 -25.5 23.5 -72.5q0 -17 -4 -38l-35 -175h-103l33 161q2 16 2 22q0 21 -9.5 30t-30.5 9q-42 0 -52 -49l-35 -173h-104l84 424h103l-29 -148q37 35 88 35q45 0 68.5 -25.5z" />
    <glyph glyph-name="i.sups" horiz-adv-x="203" 
d="M178 791.5q-16 15.5 -16 37.5q0 23 15.5 38.5t39.5 15.5t40 -15.5t16 -38.5q0 -22 -16 -37.5t-40 -15.5q-23 0 -39 15.5zM149 740h103l-61 -302h-103z" />
    <glyph glyph-name="j.sups" horiz-adv-x="203" 
d="M179 791q-16 15 -16 38t15.5 38.5t40.5 15.5q23 0 39 -15.5t16 -38.5q0 -22 -16 -37.5t-39 -15.5q-24 0 -40 15zM15 321l19 88q6 -2 19 -2q30 0 34 28l62 305h103l-65 -327q-10 -51 -38.5 -74t-81.5 -23q-27 0 -52 5z" />
    <glyph glyph-name="k.sups" horiz-adv-x="369" 
d="M312 591l104 -153h-126l-74 121l-24 -121h-104l84 424h104l-44 -220l93 98h137z" />
    <glyph glyph-name="l.sups" horiz-adv-x="203" 
d="M172 862h103l-84 -424h-103z" />
    <glyph glyph-name="m.sups" horiz-adv-x="580" 
d="M586.5 723.5q23.5 -25.5 23.5 -72.5q0 -17 -4 -38l-35 -175h-103l32 161q3 12 3 22q0 21 -9 30t-28 9q-20 0 -32 -11.5t-18 -37.5l-34 -173h-103l32 161q1 4 2 9.5t1 12.5q0 21 -9 30t-28 9q-20 0 -32.5 -12t-17.5 -37l-35 -173h-104l61 302h99l-6 -30q19 19 40.5 29
t48.5 10q32 0 53 -14t30 -40q21 27 46 40.5t58 13.5q45 0 68.5 -25.5z" />
    <glyph glyph-name="n.sups" horiz-adv-x="396" 
d="M402.5 723.5q23.5 -25.5 23.5 -72.5q0 -17 -4 -38l-35 -175h-103l33 161q2 16 2 22q0 21 -9.5 30t-30.5 9t-34 -11.5t-18 -37.5l-35 -173h-104l61 302h99l-6 -31q38 40 92 40q45 0 68.5 -25.5z" />
    <glyph glyph-name="o.sups" horiz-adv-x="384" 
d="M161.5 448q-33.5 18 -49.5 49.5t-16 71.5q0 51 22.5 92t64 64.5t94.5 23.5q75 0 111.5 -38t36.5 -101q0 -52 -22 -93t-63 -64t-95 -23q-50 0 -83.5 18zM301 543.5q16 25.5 16 62.5q0 26 -11 40t-37 14q-32 0 -48 -25t-16 -62q0 -27 11 -41t37 -14q32 0 48 25.5z" />
    <glyph glyph-name="p.sups" horiz-adv-x="402" 
d="M416.5 713q27.5 -36 27.5 -96q0 -51 -19 -93.5t-54.5 -68t-83.5 -25.5q-32 0 -53.5 10t-33.5 32l-32 -155h-104l85 423h100l-5 -26q34 35 87 35q58 0 85.5 -36zM315.5 543q18.5 25 18.5 63q0 54 -49 54q-50 0 -62 -61q-6 -28 -6 -41q0 -19 11.5 -29.5t32.5 -10.5
q36 0 54.5 25z" />
    <glyph glyph-name="q.sups" horiz-adv-x="402" 
d="M449 740l-84 -423h-104l29 142q-34 -30 -82 -30q-58 0 -85.5 36t-27.5 96q0 51 19 93.5t54.5 68t83.5 25.5q34 0 56 -11t33 -35l8 38h100zM254 518q25 0 40 15t22 46q6 34 6 41q0 19 -11.5 29.5t-33.5 10.5q-35 0 -53.5 -25t-18.5 -63q0 -54 49 -54z" />
    <glyph glyph-name="r.sups" horiz-adv-x="271" 
d="M359 740l-19 -92q-9 3 -26 3q-79 0 -99 -101l-23 -112h-104l61 302h98l-8 -39q36 44 87 44q18 0 33 -5z" />
    <glyph glyph-name="s.sups" horiz-adv-x="329" 
d="M113.5 452q-32.5 25 -32.5 69q0 10 1 16h102v-8q0 -30 34 -30q31 0 31 23q0 12 -9.5 19.5t-32.5 16.5q-44 16 -66.5 37t-22.5 56q0 47 38 72.5t98 25.5q58 0 88 -22t30 -64v-11h-98v5q0 26 -29 26q-13 0 -20 -6t-7 -16t9.5 -16t38.5 -17q47 -17 70 -38.5t23 -57.5
q0 -51 -41.5 -78t-106.5 -27t-97.5 25z" />
    <glyph glyph-name="t.sups" horiz-adv-x="244" 
d="M131 451.5q-24 19.5 -24 64.5q0 21 4 41l20 99h-39l18 84h39l14 70h103l-14 -70h69l-18 -84h-68l-19 -94q-2 -12 -2 -17q0 -15 8 -21t24 -6q12 0 30 3l-17 -84q-28 -5 -51 -5q-53 0 -77 19.5z" />
    <glyph glyph-name="u.sups" horiz-adv-x="396" 
d="M445 740l-61 -302h-99l6 31q-38 -40 -92 -40q-45 0 -68.5 25.5t-23.5 72.5q0 17 4 38l35 175h103l-33 -161q-2 -16 -2 -22q0 -21 9.5 -30t30.5 -9t34 12t18 37l35 173h104z" />
    <glyph glyph-name="v.sups" horiz-adv-x="360" 
d="M108 740h105l23 -179l95 179h118l-170 -302h-121z" />
    <glyph glyph-name="w.sups" horiz-adv-x="533" 
d="M622 740l-170 -302h-99l-17 166l-82 -166h-98l-48 302h104l15 -168l88 168h86l20 -167l83 167h118z" />
    <glyph glyph-name="x.sups" horiz-adv-x="380" 
d="M201 597l-88 143h111l42 -74l68 74h134l-147 -149l91 -153h-109l-48 80l-74 -80h-132z" />
    <glyph glyph-name="y.sups" horiz-adv-x="360" 
d="M450 740l-254 -422h-114l73 121l-47 301h104l18 -190l101 190h119z" />
    <glyph glyph-name="z.sups" horiz-adv-x="313" 
d="M231 522h123l-17 -84h-292l179 218h-122l17 84h285z" />
    <glyph glyph-name="zero.lf" horiz-adv-x="676" 
d="M176.5 14.5q-56.5 31.5 -84.5 87.5t-28 131q0 70 15 148q20 100 62 177t107 121t153 44q84 0 141 -31.5t84.5 -87.5t27.5 -131q0 -70 -15 -148q-20 -100 -61.5 -176.5t-107 -121t-152.5 -44.5q-85 0 -141.5 31.5zM428 172.5q40 63.5 61 165.5q16 78 16 136t-27.5 90.5
t-84.5 32.5q-62 0 -102 -63.5t-61 -165.5q-16 -78 -16 -136t27.5 -90.5t84.5 -32.5q62 0 102 63.5z" />
    <glyph glyph-name="one.lf" horiz-adv-x="385" 
d="M211 575h-116l53 131h232l-141 -706h-143z" />
    <glyph glyph-name="two.lf" horiz-adv-x="588" 
d="M-27 3l352 330q42 39 66 65.5t39.5 56t15.5 60.5q0 40 -22.5 62.5t-69.5 22.5q-59 0 -90 -38.5t-43 -101.5h-140q23 123 94.5 193t193.5 70q114 0 170.5 -52.5t56.5 -143.5q0 -64 -28.5 -115t-84.5 -103q-97 -89 -209 -183h254l-25 -126h-531z" />
    <glyph glyph-name="three.lf" horiz-adv-x="596" 
d="M552.5 429.5q-40.5 -45.5 -113.5 -63.5q54 -18 79 -56t25 -95q0 -71 -36.5 -123.5t-101 -80.5t-147.5 -28q-127 0 -183 51t-56 151q0 31 8 71h135q-5 -30 -5 -50q0 -50 25.5 -77t83.5 -27q41 0 70.5 15.5t45 42.5t15.5 62q0 51 -32 75t-95 24h-12l20 98h22q74 0 111 29.5
t37 81.5q0 40 -24 62t-72 22q-55 0 -86 -32t-41 -85h-138q22 109 93 167.5t185 58.5q77 0 128 -22.5t75.5 -62.5t24.5 -93q0 -70 -40.5 -115.5z" />
    <glyph glyph-name="four.lf" horiz-adv-x="658" 
d="M621 154h-96l-31 -154h-142l31 154h-398l1 4l378 548h271l-86 -431h96zM407 275l76 381h-1l-254 -381h179z" />
    <glyph glyph-name="five.lf" horiz-adv-x="591" 
d="M306 582l-47 -124q36 7 75 7q110 0 164 -57t54 -156q0 -79 -36.5 -140t-102.5 -95t-151 -34q-234 0 -234 201q0 29 6 62h139q-4 -21 -4 -45q0 -48 23.5 -74t76.5 -26q42 0 72 18t46 49.5t16 70.5q0 67 -43.5 99t-131.5 32q-35 0 -72.5 -4t-68.5 -11l128 351h407l-51 -124
h-265z" />
    <glyph glyph-name="six.lf" horiz-adv-x="661" 
d="M519.5 437q47.5 -27 72.5 -73.5t25 -104.5q0 -77 -38.5 -140t-106 -99.5t-151.5 -36.5q-134 0 -194 71t-60 193q0 128 43 237t125.5 174t197.5 65q72 0 124.5 -24t80 -70.5t27.5 -111.5h-138q-1 46 -27.5 70.5t-75.5 24.5q-53 0 -93.5 -30.5t-67 -81.5t-39.5 -115
q33 38 79.5 58.5t102.5 20.5q66 0 113.5 -27zM401.5 120.5q33.5 21.5 51.5 57.5t18 77q0 49 -27 77.5t-80 28.5q-44 0 -78 -21.5t-52.5 -56t-18.5 -74.5q0 -50 27.5 -80t81.5 -30q44 0 77.5 21.5z" />
    <glyph glyph-name="seven.lf" horiz-adv-x="562" 
d="M389 575h-295l26 131h516l-428 -706h-176z" />
    <glyph glyph-name="eight.lf" horiz-adv-x="636" 
d="M612 466q-20 -37 -55.5 -60.5t-80.5 -30.5q54 -19 80.5 -61t26.5 -100q0 -72 -38 -124t-104 -79.5t-148 -27.5q-87 0 -145.5 24.5t-87 69t-28.5 105.5q0 52 23 95.5t64 71.5t94 36q-46 18 -70 57t-24 91q0 59 35.5 102t96 65.5t132.5 22.5q80 0 135.5 -21t84.5 -60.5
t29 -94.5q0 -44 -20 -81zM426.5 438.5q28.5 14.5 44.5 39.5t16 56q0 43 -26.5 67.5t-79.5 24.5q-37 0 -64.5 -14t-42 -39t-14.5 -57q0 -44 26 -68t76 -24q36 0 64.5 14.5zM368 108.5q31 15.5 48.5 43.5t17.5 63q0 47 -28.5 76t-84.5 29q-41 0 -72.5 -17t-48.5 -46t-17 -64
q0 -47 29 -73.5t86 -26.5q39 0 70 15.5z" />
    <glyph glyph-name="nine.lf" horiz-adv-x="658" 
d="M577.5 654q60.5 -71 60.5 -193q0 -128 -43 -237t-126 -174t-198 -65q-72 0 -124 24t-79.5 70.5t-27.5 111.5h137q1 -46 28 -70.5t76 -24.5q52 0 93 30.5t67.5 81.5t39.5 115q-34 -38 -80.5 -58.5t-102.5 -20.5q-66 0 -113.5 27t-72.5 73.5t-25 104.5q0 77 38.5 140
t106 99.5t151.5 36.5q134 0 194.5 -71zM419 368.5q34 21.5 52 56t18 74.5q0 50 -27.5 80t-80.5 30q-45 0 -78.5 -21.5t-51 -57t-17.5 -77.5q0 -49 26.5 -77.5t79.5 -28.5q45 0 79 21.5z" />
    <glyph glyph-name="zero.dnom" horiz-adv-x="438" 
d="M68 33q-38 43 -38 118q0 31 7 69q17 82 65 130t128 48q81 0 119 -43t38 -118q0 -30 -7 -69q-15 -82 -64 -130t-130 -48q-80 0 -118 43zM241.5 110q18.5 26 26.5 69q6 30 6 58q0 34 -11 50.5t-37 16.5q-58 0 -78 -95q-6 -30 -6 -58q0 -34 11 -50.5t38 -16.5q32 0 50.5 26z
" />
    <glyph glyph-name="one.dnom" horiz-adv-x="283" 
d="M103 290h-71l37 98h166l-78 -388h-112z" />
    <glyph glyph-name="two.dnom" horiz-adv-x="379" 
d="M-32 5l214 186q36 32 50 49t14 36q0 18 -12.5 28t-34.5 10q-51 0 -63 -58h-106q12 66 56 104.5t117 38.5q74 0 111.5 -29t37.5 -83q0 -34 -15 -60.5t-46 -51.5l-98 -79h127l-19 -96h-334z" />
    <glyph glyph-name="three.dnom" horiz-adv-x="375" 
d="M305.5 168q13.5 -19 13.5 -49q0 -41 -22 -70.5t-61.5 -44.5t-90.5 -15q-76 0 -112.5 31.5t-36.5 89.5q0 16 3 35l98 -1q-3 -10 -3 -20q0 -51 54 -51q30 0 46.5 14.5t16.5 38.5q0 22 -13.5 30.5t-40.5 8.5h-16l13 68h18q31 0 47.5 11.5t16.5 33.5q0 17 -11.5 27t-34.5 10
q-28 0 -43 -15t-19 -39h-100q13 66 58.5 102t118.5 36q67 0 103.5 -28.5t36.5 -76.5q0 -35 -21.5 -60t-59.5 -37q28 -10 41.5 -29z" />
    <glyph glyph-name="four.dnom" horiz-adv-x="415" 
d="M204 75h-235v2l208 311h194l-45 -223h58l-17 -90h-59l-15 -75h-105zM221 165l38 188l-119 -188h81z" />
    <glyph glyph-name="five.dnom" horiz-adv-x="387" 
d="M41 21.5q-38 31.5 -38 89.5q0 11 2 25l104 -1l-1 -14q0 -48 54 -48q29 0 45 15.5t16 39.5q0 63 -110 63q-19 0 -40.5 -2t-39.5 -5l77 204h257l-30 -80h-156l-20 -54q15 3 35 3q70 0 104.5 -33t34.5 -89q0 -45 -22.5 -77.5t-62.5 -50t-93 -17.5q-78 0 -116 31.5z" />
    <glyph glyph-name="six.dnom" horiz-adv-x="426" 
d="M336 222.5q33 -31.5 33 -83.5q0 -44 -24 -78t-65 -52.5t-92 -18.5q-166 0 -166 157q0 72 26 129t75.5 89.5t117.5 32.5q71 0 108.5 -33t39.5 -87h-102q-3 20 -16 30.5t-39 10.5q-37 0 -61 -27t-33 -71q20 16 46.5 24.5t56.5 8.5q62 0 95 -31.5zM236.5 88q17.5 18 17.5 44
q0 22 -13 34t-41 12q-30 0 -48 -17.5t-18 -43.5q0 -22 14 -34.5t40 -12.5q31 0 48.5 18z" />
    <glyph glyph-name="seven.dnom" horiz-adv-x="366" 
d="M187 292h-155l20 96h328l-249 -388h-131z" />
    </font>
</defs>
</svg>
