<?xml version="1.0" standalone="no"?>
<!DOCTYPE svg PUBLIC "-//W3C//DTD SVG 1.1//EN" "http://www.w3.org/Graphics/SVG/1.1/DTD/svg11.dtd" >
<svg xmlns="http://www.w3.org/2000/svg" xmlns:xlink="http://www.w3.org/1999/xlink" version="1.1">
<metadata>
Created by FontForge 20170731 at Mon Apr  9 23:06:37 2018
 By Aleksey,,,
Copyright (c) 2018 Monotype Imaging Inc. All rights reserved.
</metadata>
<defs>
<font id="NeuePlakText-Italic" horiz-adv-x="0" >
  <font-face 
    font-family="Neue Plak Text Italic"
    font-weight="400"
    font-style="italic"
    font-stretch="normal"
    units-per-em="1000"
    panose-1="2 11 5 4 3 2 2 9 2 4"
    ascent="771"
    descent="-229"
    x-height="487"
    cap-height="706"
    bbox="-776 -248 1050 1156"
    underline-thickness="50"
    underline-position="-200"
    slope="-11"
    unicode-range="U+000D-FEFF"
  />
<missing-glyph horiz-adv-x="659" 
d="M168 706h508l-141 -706h-508zM457 82l109 542h-320l-108 -542h319z" />
    <glyph glyph-name=".notdef" horiz-adv-x="659" 
d="M168 706h508l-141 -706h-508zM457 82l109 542h-320l-108 -542h319z" />
    <glyph glyph-name=".null" 
 />
    <glyph glyph-name="nonmarkingreturn" horiz-adv-x="333" 
 />
    <glyph glyph-name="NULL" 
 />
    <glyph glyph-name="NULL" 
 />
    <glyph glyph-name="CR" unicode="&#xd;" horiz-adv-x="182" 
 />
    <glyph glyph-name="space" unicode=" " horiz-adv-x="182" 
 />
    <glyph glyph-name="exclam" unicode="!" horiz-adv-x="278" 
d="M184 706h96l-114 -513h-73zM55 3q-17 17 -17 43q0 28 17 45t45 17q27 0 44.5 -17.5t17.5 -44.5q0 -26 -18 -43t-44 -17q-28 0 -45 17z" />
    <glyph glyph-name="quotedbl" unicode="&#x22;" horiz-adv-x="425" 
d="M175 706h88l-66 -281h-67zM347 706h88l-66 -281h-67z" />
    <glyph glyph-name="numbersign" unicode="#" horiz-adv-x="665" 
d="M557 439l-62 -172h119l-29 -77h-117l-74 -206h-84l73 206h-171l-73 -206h-84l73 206h-117l29 77h116l61 172h-115l29 76h113l74 207h84l-74 -207h171l74 207h85l-74 -207h121l-29 -76h-119zM472 439h-171l-61 -172h171z" />
    <glyph glyph-name="dollar" unicode="$" horiz-adv-x="604" 
d="M488 488q4 19 4 40q0 46 -22.5 76t-67.5 40l-48 -243l23 -8q60 -22 98 -46t58.5 -59t20.5 -87q0 -67 -35.5 -116t-98.5 -75t-144 -26h-1l-17 -84h-50l18 87q-97 11 -143.5 65t-46.5 139q0 19 3 38h100q-3 -13 -3 -38q0 -53 26 -86.5t81 -42.5l53 268l-11 4
q-54 19 -91 42.5t-58 58.5t-21 84q0 60 32.5 106t90 71.5t128.5 25.5h3l17 84h50l-18 -87q84 -12 126.5 -62t42.5 -127q0 -21 -3 -42h-96zM234 463q25 -24 77 -45l46 230q-44 0 -77.5 -15.5t-52 -42.5t-18.5 -62q0 -41 25 -65zM439.5 245q-13.5 22 -37.5 37.5t-63 31.5
l-51 -255q50 1 87.5 17.5t57.5 46.5t20 69q0 31 -13.5 53z" />
    <glyph glyph-name="percent" unicode="%" horiz-adv-x="750" 
d="M137 438.5q-29 35.5 -29 95.5q0 51 18.5 91.5t53.5 64t84 23.5q61 0 90 -35.5t29 -95.5q0 -50 -18.5 -91t-53.5 -64.5t-83 -23.5q-62 0 -91 35.5zM666 706h78l-616 -706h-78zM299 494q22 35 22 87q0 77 -62 77q-45 0 -67.5 -35.5t-22.5 -88.5q0 -75 62 -75q46 0 68 35z
M441.5 28.5q-29.5 35.5 -29.5 95.5q0 51 18.5 91.5t53.5 64t84 23.5q61 0 90 -35.5t29 -95.5q0 -50 -18.5 -91t-53.5 -64.5t-83 -23.5q-61 0 -90.5 35.5zM603 84q22 35 22 87q0 77 -62 77q-45 0 -67.5 -35.5t-22.5 -88.5q0 -75 62 -75q46 0 68 35z" />
    <glyph glyph-name="ampersand" unicode="&#x26;" horiz-adv-x="635" 
d="M518 85q23 -9 53 -11l-16 -74q-46 0 -81 13t-63 39q-42 -32 -88 -48.5t-102 -16.5q-65 0 -109.5 20.5t-67 58t-22.5 86.5q0 52 26.5 95t69 76.5t101.5 66.5q-18 44 -26.5 80.5t-8.5 68.5q0 58 25 99t70.5 62.5t106.5 21.5q78 0 121.5 -33t43.5 -93q0 -51 -31.5 -91.5
t-76 -69.5t-120.5 -71q3 -7 11 -21l83 -154l9 -16q24 30 48 67t58 93l64 -34q-34 -60 -63.5 -104.5t-58.5 -79.5q21 -21 44 -30zM292 430q59 31 95 54t59 51t23 59q0 30 -22 47.5t-65 17.5q-54 0 -85.5 -31.5t-31.5 -88.5q0 -44 27 -109zM146 85.5q30 -25.5 84 -25.5
q75 0 135 51l-10 18l-97 180l-7 14q-64 -39 -99.5 -78t-35.5 -88q0 -46 30 -71.5z" />
    <glyph glyph-name="quotesingle" unicode="'" horiz-adv-x="254" 
d="M175 706h88l-66 -281h-67z" />
    <glyph glyph-name="parenleft" unicode="(" horiz-adv-x="392" 
d="M135.5 -31.5q-13.5 81.5 -13.5 170.5q0 181 63 347.5t184 322.5h89q-125 -154 -191.5 -324.5t-66.5 -351.5q0 -89 13 -171t39 -163h-76q-27 88 -40.5 169.5z" />
    <glyph glyph-name="parenright" unicode=")" horiz-adv-x="393" 
d="M281.5 639q13.5 -82 13.5 -170q0 -182 -63 -348t-184 -322h-89q125 153 191.5 323.5t66.5 352.5q0 89 -13 171t-39 163h77q26 -88 39.5 -170z" />
    <glyph glyph-name="asterisk" unicode="*" horiz-adv-x="361" 
d="M111 477l96 74l-111 51l32 55l100 -68l14 120l61 -12l-33 -116l119 24l7 -63l-121 -5l59 -105l-57 -26l-41 114l-82 -89z" />
    <glyph glyph-name="plus" unicode="+" horiz-adv-x="577" 
d="M523 248h-197l-40 -199h-75l40 199h-197l15 72h197l40 201h75l-40 -201h197z" />
    <glyph glyph-name="comma" unicode="," horiz-adv-x="281" 
d="M98 157h88l-145 -328h-70z" />
    <glyph glyph-name="hyphen" unicode="-" horiz-adv-x="387" 
d="M70 323h279l-16 -78h-279z" />
    <glyph glyph-name="period" unicode="." horiz-adv-x="278" 
d="M55 3q-17 17 -17 43q0 28 17 45t45 17q27 0 44.5 -17.5t17.5 -44.5q0 -26 -18 -43t-44 -17q-28 0 -45 17z" />
    <glyph glyph-name="slash" unicode="/" horiz-adv-x="454" 
d="M419 722h96l-444 -772h-95z" />
    <glyph glyph-name="zero" unicode="0" horiz-adv-x="600" 
d="M105 51q-51 67 -51 182q0 69 15 147q20 99 61 176t104 121.5t146 44.5q108 0 158.5 -67.5t50.5 -181.5q0 -76 -15 -147q-20 -99 -60.5 -176t-103.5 -121.5t-146 -44.5q-108 0 -159 67zM366 101.5q43 35.5 71 94.5t42 134q15 77 15 142q0 79 -27 123.5t-90 44.5
q-82 0 -135.5 -73.5t-76.5 -190.5q-15 -77 -15 -142q0 -79 27 -123.5t90 -44.5q56 0 99 35.5z" />
    <glyph glyph-name="one" unicode="1" horiz-adv-x="600" 
d="M361 622h-166l34 84h239l-141 -706h-91z" />
    <glyph glyph-name="two" unicode="2" horiz-adv-x="600" 
d="M-2 3l345 306q52 46 81 76.5t47 65.5t18 76q0 53 -29.5 83.5t-92.5 30.5q-140 0 -172 -175h-89q22 119 88 187.5t180 68.5q106 0 158 -51t52 -138q0 -49 -17 -90t-46.5 -76t-75.5 -75q-100 -87 -247 -211h307l-16 -81h-492z" />
    <glyph glyph-name="three" unicode="3" horiz-adv-x="600" 
d="M546 430q-43 -46 -119 -61q111 -35 111 -156q0 -69 -34 -121t-94.5 -80t-138.5 -28q-118 0 -170.5 50.5t-52.5 146.5q0 31 8 69h86q-6 -40 -6 -59q0 -62 32.5 -95.5t106.5 -33.5q52 0 91 19.5t59.5 54.5t20.5 81q0 62 -41 91.5t-122 29.5h-10l14 68h26q88 0 136 35
t48 101q0 50 -31 78.5t-94 28.5q-74 0 -115.5 -43.5t-54.5 -117.5h-89q21 111 88.5 172.5t179.5 61.5q70 0 116.5 -22t69 -60.5t22.5 -90.5q0 -73 -43 -119z" />
    <glyph glyph-name="four" unicode="4" horiz-adv-x="600" 
d="M560 176h-97l-35 -176h-90l35 176h-376l1 4l405 526h166l-90 -452h98zM389 254l83 417h-1l-322 -417h240z" />
    <glyph glyph-name="five" unicode="5" horiz-adv-x="600" 
d="M286 626l-64 -174q43 10 88 10q76 0 127 -27t75.5 -75.5t24.5 -114.5q0 -76 -34.5 -135t-97 -92.5t-142.5 -33.5q-113 0 -165.5 51t-52.5 141q0 27 6 55h87q-4 -21 -4 -46q0 -58 31 -90.5t100 -32.5q55 0 95 22.5t61 62.5t21 90q0 75 -45.5 114.5t-137.5 39.5
q-37 0 -77 -6t-77 -18l123 339h371l-32 -80h-281z" />
    <glyph glyph-name="six" unicode="6" horiz-adv-x="600" 
d="M466.5 431q46.5 -27 70 -73.5t23.5 -105.5q0 -74 -36 -135.5t-99 -97t-140 -35.5q-121 0 -175.5 71t-54.5 193q0 126 40 234.5t118 174t186 65.5q67 0 114 -25t71 -71.5t24 -109.5h-89q1 63 -32 97.5t-92 34.5q-65 0 -114.5 -38.5t-81 -103t-44.5 -143.5q33 45 84.5 70
t114.5 25q66 0 112.5 -27zM379.5 87q41.5 26 64.5 69.5t23 94.5q0 61 -35 98.5t-100 37.5q-54 0 -95 -25t-63 -67.5t-22 -92.5q0 -40 14.5 -72t44.5 -50.5t74 -18.5q53 0 94.5 26z" />
    <glyph glyph-name="seven" unicode="7" horiz-adv-x="600" 
d="M498 622h-358l16 84h499l-444 -706h-111z" />
    <glyph glyph-name="eight" unicode="8" horiz-adv-x="600" 
d="M522 312.5q28 -42.5 28 -101.5q0 -70 -35.5 -121.5t-98 -78.5t-140.5 -27q-123 0 -184.5 51.5t-61.5 140.5q0 54 24 98t67 72t99 36q-51 17 -76.5 57.5t-25.5 94.5q0 58 33.5 100.5t90 65t125.5 22.5q75 0 127.5 -20.5t79 -58.5t26.5 -90q0 -47 -20.5 -85t-57.5 -63
t-85 -32q57 -18 85 -60.5zM283 639q-35 -16 -54.5 -45.5t-19.5 -69.5q0 -55 34.5 -85.5t98.5 -30.5q47 0 84.5 17t59 47.5t21.5 69.5q0 53 -35.5 83t-106.5 30q-47 0 -82 -16zM370 76q40 19 62.5 53.5t22.5 79.5q0 58 -37.5 93t-109.5 35q-53 0 -95 -20t-65 -55t-23 -79
q0 -58 39 -92t115 -34q51 0 91 19z" />
    <glyph glyph-name="nine" unicode="9" horiz-adv-x="600" 
d="M534 651q54 -71 54 -193q0 -126 -40 -234.5t-118 -174t-186 -65.5q-66 0 -113 25t-71.5 71.5t-24.5 109.5h89q-1 -63 32 -97.5t92 -34.5q65 0 115 38.5t81.5 103t44.5 143.5q-33 -45 -84.5 -70t-114.5 -25q-66 0 -112.5 27t-70 73.5t-23.5 105.5q0 74 36 135.5t99 97
t140 35.5q121 0 175 -71zM407 344q41 25 63 67.5t22 92.5q0 40 -14.5 72t-45 50.5t-74.5 18.5q-53 0 -94 -26t-64 -69.5t-23 -94.5q0 -61 35 -98.5t100 -37.5q54 0 95 25z" />
    <glyph glyph-name="colon" unicode=":" horiz-adv-x="278" 
d="M55 3q-17 17 -17 43q0 28 17 45t45 17q27 0 44.5 -17.5t17.5 -44.5q0 -26 -18 -43t-44 -17q-28 0 -45 17zM126 358q-17 17 -17 43q0 28 17 45t45 17q27 0 44.5 -17.5t17.5 -44.5q0 -26 -18 -43t-44 -17q-28 0 -45 17z" />
    <glyph glyph-name="semicolon" unicode=";" horiz-adv-x="308" 
d="M98 157h88l-145 -328h-70zM155 358q-17 17 -17 43q0 28 17 45t45 17q27 0 44.5 -17.5t17.5 -44.5q0 -26 -18 -43t-44 -17q-28 0 -45 17z" />
    <glyph glyph-name="less" unicode="&#x3c;" horiz-adv-x="577" 
d="M557 412l-431 -128l380 -128l-15 -74l-438 152l14 70l6 29l499 153z" />
    <glyph glyph-name="equal" unicode="=" horiz-adv-x="577" 
d="M89 419h469l-15 -72h-468zM50 221h469l-15 -72h-468z" />
    <glyph glyph-name="greater" unicode="&#x3e;" horiz-adv-x="577" 
d="M541 334l-14 -70h-1l-6 -29l-498 -153l14 74l432 128l-380 128l15 74z" />
    <glyph glyph-name="question" unicode="?" horiz-adv-x="494" 
d="M190 209q86 97 132 153t73.5 106t27.5 91t-25 66t-81 25q-45 0 -73.5 -17t-43 -46t-23.5 -73h-87q19 101 74 154.5t158 53.5q64 0 107.5 -20t65 -57t21.5 -86q0 -47 -24.5 -96.5t-66 -102.5t-124.5 -149l-15 -18h-110zM155 3q-17 17 -17 43q0 28 17 45t45 17
q27 0 44.5 -17.5t17.5 -44.5q0 -26 -18 -43t-44 -17q-28 0 -45 17z" />
    <glyph glyph-name="at" unicode="@" horiz-adv-x="833" 
d="M655.5 640q72.5 -39 108.5 -108.5t36 -160.5q0 -87 -32.5 -156.5t-95 -109.5t-148.5 -40h-44l11 52q-27 -29 -63.5 -44.5t-80.5 -15.5q-65 0 -96.5 31t-31.5 84q0 76 55 110t153 34h100q6 35 6 50q0 39 -19 56.5t-67 17.5q-47 0 -70.5 -20.5t-31.5 -61.5h-77
q12 68 58 105t127 37q84 0 118.5 -33.5t34.5 -100.5q0 -27 -8 -69l-36 -181q59 7 101 42.5t63.5 90.5t21.5 119q0 80 -30 139.5t-91.5 92.5t-152.5 33q-114 0 -196 -53.5t-124.5 -146.5t-42.5 -210q0 -134 70.5 -211t217.5 -77q34 0 61 3l-11 -48q-21 -3 -52 -3
q-118 0 -193.5 43t-110.5 118.5t-35 175.5q0 130 50.5 233t145.5 162.5t222 59.5q107 0 179.5 -39zM449 132.5q26 15.5 42 47.5t27 87h-88q-63 0 -96.5 -19.5t-33.5 -67.5q0 -31 19.5 -47t63.5 -16q40 0 66 15.5z" />
    <glyph glyph-name="A" unicode="A" horiz-adv-x="630" 
d="M458 177h-305l-94 -177h-99l378 706h139l96 -706h-92zM449 252l-50 386h-2l-204 -386h256z" />
    <glyph glyph-name="B" unicode="B" horiz-adv-x="600" 
d="M520 310q26 -39 26 -99q0 -67 -33 -114.5t-93 -72t-140 -24.5h-238l141 706h203q98 0 147.5 -44t49.5 -120q0 -65 -39 -111.5t-107 -63.5q57 -18 83 -57zM214 399h107q50 0 87 16.5t57 46t20 69.5q0 105 -135 105h-89zM400.5 106.5q48.5 36.5 48.5 108.5q0 113 -148 113
h-101l-52 -258h115q89 0 137.5 36.5z" />
    <glyph glyph-name="C" unicode="C" horiz-adv-x="700" 
d="M132.5 62.5q-64.5 78.5 -64.5 213.5q0 120 45 222t129 163t197 61q79 0 136.5 -30t88 -85.5t30.5 -129.5q0 -4 -2 -26h-92q1 9 1 20q0 53 -20.5 91t-58.5 58.5t-91 20.5q-84 0 -145 -51.5t-92 -135t-31 -177.5q0 -100 43 -156t133 -56q85 0 140.5 47t77.5 129h97
q-17 -80 -62 -138t-111.5 -88.5t-146.5 -30.5q-137 0 -201.5 78.5z" />
    <glyph glyph-name="D" unicode="D" horiz-adv-x="690" 
d="M183 706h181q158 0 229 -76t71 -211q0 -121 -46 -216t-133 -149t-205 -54h-238zM270 78q97 0 164 43.5t100.5 120t33.5 174.5q0 102 -48.5 157t-159.5 55h-100l-110 -550h120z" />
    <glyph glyph-name="E" unicode="E" horiz-adv-x="544" 
d="M183 706h402l-15 -78h-310l-46 -229h307l-16 -78h-307l-48 -243h310l-16 -78h-402z" />
    <glyph glyph-name="F" unicode="F" horiz-adv-x="525" 
d="M183 706h391l-15 -78h-299l-46 -229h297l-16 -78h-297l-64 -321h-92z" />
    <glyph glyph-name="G" unicode="G" horiz-adv-x="707" 
d="M287 590q-62 -51 -93 -136.5t-31 -188.5q0 -92 43.5 -146t129.5 -54q104 0 161 60.5t77 161.5v2h-184l16 80h275l-15 -78q-17 -88 -58 -157t-110 -109.5t-165 -40.5q-90 0 -149.5 37t-88 102.5t-28.5 150.5q0 124 45.5 226t131 162t200.5 60q125 0 187.5 -65t61.5 -187
h-90q-2 171 -164 171q-90 0 -152 -51z" />
    <glyph glyph-name="H" unicode="H" horiz-adv-x="687" 
d="M183 706h92l-61 -306h322l61 306h92l-141 -706h-92l64 320h-322l-64 -320h-92z" />
    <glyph glyph-name="I" unicode="I" horiz-adv-x="273" 
d="M183 706h92l-141 -706h-92z" />
    <glyph glyph-name="J" unicode="J" horiz-adv-x="355" 
d="M-30 2l17 85q23 -5 47 -5q46 0 75.5 14t48 44.5t28.5 82.5l97 483h93l-102 -510q-20 -103 -77 -151t-160 -48q-38 0 -67 5z" />
    <glyph glyph-name="K" unicode="K" horiz-adv-x="599" 
d="M292 374l247 -374h-107l-228 350l-70 -350h-92l141 706h92l-59 -294l305 294h117z" />
    <glyph glyph-name="L" unicode="L" horiz-adv-x="473" 
d="M183 706h92l-125 -624h272l-16 -82h-364z" />
    <glyph glyph-name="M" unicode="M" horiz-adv-x="855" 
d="M183 706h108l114 -560l335 560h117l-141 -706h-88l112 558l-338 -558h-46l-114 560l-113 -560h-87z" />
    <glyph glyph-name="N" unicode="N" horiz-adv-x="712" 
d="M183 706h95l232 -573l115 573h89l-141 -706h-96l-231 573l-115 -573h-89z" />
    <glyph glyph-name="O" unicode="O" horiz-adv-x="726" 
d="M133 61.5q-65 77.5 -65 208.5q0 122 43.5 225.5t126.5 165t195 61.5q93 0 153 -36.5t88 -100.5t28 -148q0 -123 -43.5 -226.5t-126.5 -165t-196 -61.5q-138 0 -203 77.5zM485 117.5q60 52.5 91 138t31 182.5q0 93 -43.5 148t-137.5 55q-82 0 -142 -52.5t-91 -137.5
t-31 -182q0 -93 44 -148.5t137 -55.5q82 0 142 52.5z" />
    <glyph glyph-name="P" unicode="P" horiz-adv-x="574" 
d="M183 706h199q113 0 166.5 -45t53.5 -130q0 -67 -30 -116t-84.5 -75t-128.5 -26h-162l-63 -314h-92zM343 389q78 0 121 35t43 100q0 54 -34 81t-104 27h-108l-49 -243h131z" />
    <glyph glyph-name="Q" unicode="Q" horiz-adv-x="726" 
d="M674 252.5q-28 -86.5 -82 -150.5t-129 -94l58 -129l-76 -32l-58 140q-25 -3 -51 -3q-138 0 -203 77.5t-65 208.5q0 122 43.5 225.5t126.5 165t195 61.5q93 0 153 -36.5t88 -100.5t28 -148q0 -98 -28 -184.5zM526 161.5q40 54.5 60.5 126.5t20.5 150q0 93 -43.5 148
t-137.5 55q-82 0 -142 -52.5t-91 -137.5t-31 -182q0 -93 44 -148.5t137 -55.5h12l-35 84l67 29l43 -95q56 24 96 78.5z" />
    <glyph glyph-name="R" unicode="R" horiz-adv-x="617" 
d="M589 418.5q-28 -46.5 -79.5 -72.5t-120.5 -29l170 -317h-100l-168 316h-93l-64 -316h-92l141 706h215q114 0 166.5 -47t52.5 -131q0 -63 -28 -109.5zM478.5 422.5q43.5 35.5 43.5 102.5q0 54 -33.5 80.5t-105.5 26.5h-122l-49 -245h142q81 0 124.5 35.5z" />
    <glyph glyph-name="S" unicode="S" horiz-adv-x="595" 
d="M92 39.5q-59 55.5 -59 151.5q0 25 2 38h98q-3 -19 -3 -37q0 -63 37.5 -98t114.5 -35q52 0 89.5 16t57.5 45.5t20 68.5q0 40 -21 65t-51.5 40t-96.5 40q-55 21 -91 44t-56 57t-20 83q0 61 31.5 107.5t88 71.5t130.5 25q72 0 121.5 -24t74 -67t24.5 -100q0 -15 -4 -43h-93
q4 28 4 42q0 54 -35 86t-99 32q-45 0 -78.5 -15.5t-52 -42.5t-18.5 -62q0 -34 16.5 -55.5t43 -35t73.5 -31.5l32 -13q61 -24 98 -47.5t57 -58t20 -85.5q0 -68 -33.5 -117t-95.5 -75t-144 -26q-123 0 -182 55.5z" />
    <glyph glyph-name="T" unicode="T" horiz-adv-x="544" 
d="M303 628h-208l16 78h507l-15 -78h-207l-126 -628h-93z" />
    <glyph glyph-name="U" unicode="U" horiz-adv-x="643" 
d="M119.5 30q-54.5 46 -54.5 139q0 42 8 79l91 458h93l-94 -471q-6 -31 -6 -57q0 -58 31.5 -85.5t100.5 -27.5q82 0 126 39t60 121l96 481h93l-101 -502q-22 -111 -89.5 -165.5t-187.5 -54.5q-112 0 -166.5 46z" />
    <glyph glyph-name="V" unicode="V" horiz-adv-x="620" 
d="M704 706l-395 -706h-94l-114 706h94l88 -595l322 595h99z" />
    <glyph glyph-name="W" unicode="W" horiz-adv-x="896" 
d="M980 706l-333 -706h-100l-36 579l-258 -579h-96l-56 706h87l42 -574l253 574h100l38 -572l265 572h94z" />
    <glyph glyph-name="X" unicode="X" horiz-adv-x="652" 
d="M293 379l-169 327h100l133 -262l223 262h117l-295 -336l190 -370h-100l-154 301l-257 -301h-118z" />
    <glyph glyph-name="Y" unicode="Y" horiz-adv-x="563" 
d="M249 304l-148 402h93l115 -311l230 311h108l-306 -402l-61 -304h-92z" />
    <glyph glyph-name="Z" unicode="Z" horiz-adv-x="571" 
d="M456 626h-340l16 80h492l-480 -626h367l-16 -80h-521z" />
    <glyph glyph-name="bracketleft" unicode="[" horiz-adv-x="378" 
d="M267 809h200l-14 -69h-123l-175 -872h123l-13 -69h-200z" />
    <glyph glyph-name="backslash" unicode="\" horiz-adv-x="454" 
d="M278 -50l-148 772h83l148 -772h-83z" />
    <glyph glyph-name="bracketright" unicode="]" horiz-adv-x="378" 
d="M135 -201h-199l14 69h123l174 872h-123l14 69h199z" />
    <glyph glyph-name="asciicircum" unicode="^" horiz-adv-x="454" 
d="M365 374l-53 267l-159 -267h-93l202 332h115l70 -332h-82z" />
    <glyph glyph-name="underscore" unicode="_" horiz-adv-x="385" 
d="M-66 -89h385l-15 -76h-385z" />
    <glyph glyph-name="grave" unicode="`" horiz-adv-x="282" 
d="M222 572l-75 154h84l67 -154h-76z" />
    <glyph glyph-name="a" unicode="a" horiz-adv-x="540" 
d="M436.5 456.5q43.5 -42.5 43.5 -122.5q0 -32 -10 -82l-51 -252h-87l13 64q-65 -76 -175 -76q-75 0 -113 35.5t-38 96.5q0 88 66.5 127t178.5 39h125q6 30 6 51q0 47 -24 70.5t-79 23.5q-109 0 -125 -96h-90q14 77 70 120.5t147 43.5q99 0 142.5 -42.5zM318.5 98
q41.5 40 58.5 126h-109q-71 0 -113 -21t-42 -71q0 -74 91 -74q73 0 114.5 40z" />
    <glyph glyph-name="b" unicode="b" horiz-adv-x="574" 
d="M491.5 442.5q42.5 -56.5 42.5 -152.5q0 -79 -31.5 -148.5t-88.5 -111t-131 -41.5q-60 0 -99 25.5t-54 75.5l-18 -90h-85l141 706h86l-56 -280q32 36 72.5 54.5t87.5 18.5q91 0 133.5 -56.5zM362.5 95q39.5 31 60 82t20.5 110q0 62 -27 99t-86 37q-62 0 -105 -40t-57 -110
q-7 -31 -10 -51.5t-3 -34.5q0 -59 29.5 -91t84.5 -32q54 0 93.5 31z" />
    <glyph glyph-name="c" unicode="c" horiz-adv-x="528" 
d="M126.5 16q-44.5 27 -65.5 74t-21 108q0 82 33.5 151t94.5 109.5t139 40.5q58 0 101 -20t66.5 -58t23.5 -91q0 -14 -1 -21h-91q1 5 1 13q0 48 -28 74.5t-77 26.5q-53 0 -91.5 -31.5t-59 -83.5t-20.5 -110q0 -62 27.5 -98t85.5 -36q34 0 62 14.5t46.5 39.5t25.5 57h95
q-12 -58 -45.5 -100t-82 -64t-107.5 -22q-67 0 -111.5 27z" />
    <glyph glyph-name="d" unicode="d" horiz-adv-x="574" 
d="M590 706l-141 -706h-85l13 63q-32 -37 -73 -56t-89 -19q-90 0 -133 57t-43 151q0 80 31.5 149t89 111t131.5 42q59 0 97.5 -24.5t54.5 -73.5l61 306h86zM349.5 103.5q43.5 39.5 56.5 109.5q6 31 9 52t3 35q0 59 -29 90.5t-84 31.5q-54 0 -93.5 -31t-60.5 -81.5
t-21 -109.5q0 -62 27 -99t87 -37q62 0 105.5 39.5z" />
    <glyph glyph-name="e" unicode="e" horiz-adv-x="547" 
d="M129 226q-1 -10 -1 -31q0 -135 126 -135q52 0 88 23.5t53 68.5h92q-17 -52 -51.5 -88.5t-82 -55.5t-102.5 -19q-107 0 -159 56t-52 151q0 84 33 153t94 109.5t141 40.5q61 0 106 -24t69.5 -70t24.5 -112q0 -36 -6 -67h-373zM200.5 391.5q-41.5 -37.5 -59.5 -100.5h281v6
q0 63 -29 97.5t-89 34.5q-62 0 -103.5 -37.5z" />
    <glyph glyph-name="f" unicode="f" horiz-adv-x="331" 
d="M130 415h-75l15 72h74l18 91q15 72 57.5 105.5t117.5 33.5q33 0 66 -7l-15 -72q-24 6 -43 6q-82 0 -101 -87l-14 -70h126l-15 -72h-125l-83 -415h-86z" />
    <glyph glyph-name="g" unicode="g" horiz-adv-x="573" 
d="M546 487l-100 -499q-18 -95 -78 -148t-168 -53q-92 0 -144.5 35.5t-52.5 103.5q0 8 2 24h88l-1 -12q0 -40 30 -60.5t82 -20.5q129 0 157 143l12 62q-31 -35 -71 -52.5t-86 -17.5q-90 0 -133 55.5t-43 144.5q0 83 31 153t88 111.5t131 41.5q59 0 98.5 -25.5t54.5 -75.5
l18 90h85zM349.5 107q43.5 39 56.5 108q7 34 9.5 52t2.5 33q0 59 -29.5 90.5t-84.5 31.5q-54 0 -93.5 -30t-60 -80t-20.5 -108q0 -62 27.5 -99t86.5 -37q62 0 105.5 39z" />
    <glyph glyph-name="h" unicode="h" horiz-adv-x="559" 
d="M463 459.5q38 -39.5 38 -116.5q0 -37 -8 -72l-54 -271h-86l53 267q7 31 7 60q0 49 -23.5 72.5t-71.5 23.5q-59 0 -96.5 -34t-50.5 -101l-58 -288h-86l141 706h86l-55 -277q58 70 152 70q74 0 112 -39.5z" />
    <glyph glyph-name="i" unicode="i" horiz-adv-x="237" 
d="M160 609q-16 16 -16 40q0 25 16 41t41 16q24 0 40.5 -16t16.5 -41q0 -24 -16.5 -40t-40.5 -16q-25 0 -41 16zM124 487h87l-98 -487h-86z" />
    <glyph glyph-name="j" unicode="j" horiz-adv-x="237" 
d="M159 609q-16 16 -16 40q0 25 16 41t41 16q24 0 41 -16.5t17 -40.5t-17 -40t-41 -16q-25 0 -41 16zM-109 -200l15 76q12 -2 29 -2q36 0 55 17t26 56l108 540h87l-113 -564q-13 -67 -50 -97t-104 -30q-29 0 -53 4z" />
    <glyph glyph-name="k" unicode="k" horiz-adv-x="474" 
d="M245 260l185 -260h-103l-167 237l-47 -237h-86l141 706h86l-82 -411l208 192h120z" />
    <glyph glyph-name="l" unicode="l" horiz-adv-x="237" 
d="M168 706h86l-141 -706h-86z" />
    <glyph glyph-name="m" unicode="m" horiz-adv-x="858" 
d="M765.5 462q35.5 -37 35.5 -112q0 -38 -9 -79l-54 -271h-86l53 267q6 35 6 62q0 49 -21 71.5t-65 22.5q-56 0 -92 -34.5t-49 -100.5l-58 -288h-87l54 267q7 39 7 58q0 51 -21.5 74.5t-66.5 23.5q-56 0 -92 -34t-49 -101l-58 -288h-86l97 487h87l-12 -57q56 69 146 69
q116 0 139 -104q62 104 173 104q73 0 108.5 -37z" />
    <glyph glyph-name="n" unicode="n" horiz-adv-x="559" 
d="M463.5 460q37.5 -39 37.5 -109q0 -44 -8 -80l-54 -271h-86l53 266q7 33 7 63q0 48 -24 71t-74 23q-56 0 -93.5 -34.5t-50.5 -100.5l-58 -288h-86l97 487h87l-12 -57q59 69 153 69q74 0 111.5 -39z" />
    <glyph glyph-name="o" unicode="o" horiz-adv-x="549" 
d="M127 16q-45 28 -66 75.5t-21 107.5q0 83 33 151.5t94 108.5t140 40q70 0 115 -28.5t66 -76.5t21 -108q0 -83 -32.5 -151t-93 -107.5t-142.5 -39.5q-69 0 -114 28zM342 95.5q39 31.5 58 82t19 108.5q0 64 -28 100.5t-89 36.5q-55 0 -94 -32.5t-58.5 -83.5t-19.5 -106
q0 -64 28.5 -100.5t88.5 -36.5q56 0 95 31.5z" />
    <glyph glyph-name="p" unicode="p" horiz-adv-x="574" 
d="M491.5 442q42.5 -57 42.5 -152q0 -79 -31.5 -148.5t-88.5 -111t-131 -41.5q-59 0 -98 24.5t-55 74.5l-57 -289h-86l137 688h85l-13 -64q32 38 73 57t89 19q91 0 133.5 -57zM362.5 95q39.5 31 60 82t20.5 110q0 62 -27 99t-86 37q-62 0 -105 -40t-57 -110
q-7 -31 -10 -51.5t-3 -34.5q0 -59 29.5 -91t84.5 -32q54 0 93.5 31z" />
    <glyph glyph-name="q" unicode="q" horiz-adv-x="574" 
d="M547 487l-138 -688h-86l52 262q-31 -36 -72 -54.5t-88 -18.5q-90 0 -133 57t-43 151q0 80 31.5 149.5t89 111t131.5 41.5q59 0 98 -25t55 -75l18 89h85zM349.5 103.5q43.5 39.5 56.5 109.5q6 31 9 52t3 35q0 59 -29 90.5t-84 31.5q-54 0 -93.5 -31t-60.5 -81.5
t-21 -109.5q0 -62 27 -99t87 -37q62 0 105.5 39.5z" />
    <glyph glyph-name="r" unicode="r" horiz-adv-x="348" 
d="M382 487l-16 -78q-20 5 -44 5q-62 0 -101.5 -38.5t-53.5 -108.5l-54 -267h-86l97 487h83l-12 -61q24 32 59.5 49.5t78.5 17.5q23 0 49 -6z" />
    <glyph glyph-name="s" unicode="s" horiz-adv-x="467" 
d="M63 24.5q-44 36.5 -44 100.5q0 18 3 37h86q-3 -15 -3 -29q0 -37 24 -58t75 -21t80.5 21.5t29.5 56.5q0 24 -13 40t-34 26t-56 23q-41 14 -69 31t-44 42.5t-16 61.5q0 44 23.5 76t65.5 49.5t96 17.5q80 0 121.5 -33.5t41.5 -92.5q0 -10 -2 -30h-84q3 12 3 25
q0 32 -21.5 50.5t-63.5 18.5q-43 0 -69 -19.5t-26 -50.5q0 -21 13 -36t35 -25.5t59 -24.5q66 -24 98.5 -55t32.5 -83q0 -48 -26.5 -83t-73.5 -53.5t-107 -18.5q-91 0 -135 36.5z" />
    <glyph glyph-name="t" unicode="t" horiz-adv-x="356" 
d="M104.5 18.5q-31.5 26.5 -31.5 83.5q0 30 7 61l50 252h-76l15 72h76l23 118h87l-24 -118h139l-14 -72h-139l-50 -252q-4 -17 -4 -36q0 -31 16.5 -46t51.5 -15q23 0 54 7l-15 -74q-38 -7 -67 -7q-67 0 -98.5 26.5z" />
    <glyph glyph-name="u" unicode="u" horiz-adv-x="559" 
d="M533 487l-98 -487h-86l11 57q-57 -69 -153 -69q-74 0 -111.5 39t-37.5 109q0 37 8 80l54 271h87l-54 -266q-6 -38 -6 -64q0 -47 24 -70t73 -23q56 0 93.5 34.5t50.5 100.5l58 288h87z" />
    <glyph glyph-name="v" unicode="v" horiz-adv-x="499" 
d="M66 487h89l61 -386l215 386h100l-280 -487h-100z" />
    <glyph glyph-name="w" unicode="w" horiz-adv-x="752" 
d="M784 487l-265 -487h-87l-35 370l-177 -370h-85l-69 487h88l41 -375l184 375h78l38 -374l191 374h98z" />
    <glyph glyph-name="x" unicode="x" horiz-adv-x="522" 
d="M212 252l-139 235h96l102 -177l162 177h110l-235 -243l147 -244h-97l-105 185l-168 -185h-113z" />
    <glyph glyph-name="y" unicode="y" horiz-adv-x="510" 
d="M542 487l-422 -688h-95l124 202l-83 486h88l61 -388l228 388h99z" />
    <glyph glyph-name="z" unicode="z" horiz-adv-x="458" 
d="M133 72h266l-15 -72h-415l357 415h-249l14 72h394z" />
    <glyph glyph-name="braceleft" unicode="{" horiz-adv-x="355" 
d="M444 809l-13 -66h-22q-52 0 -77 -22t-35 -68l-49 -247q-7 -36 -19 -58t-32.5 -32.5t-53.5 -13.5q34 -6 49 -25.5t15 -57.5q0 -16 -7 -53l-43 -212q-3 -17 -3 -30q0 -30 18 -45t61 -15h22l-13 -65h-37q-62 0 -93 30.5t-31 84.5q0 18 5 43l42 213q6 27 6 46
q0 28 -18.5 39.5t-63.5 11.5l15 75q41 0 63 9t33.5 29.5t18.5 59.5l49 243q12 57 51 91.5t102 34.5h60z" />
    <glyph glyph-name="bar" unicode="|" horiz-adv-x="415" 
d="M265 756h89l-191 -957h-89z" />
    <glyph glyph-name="braceright" unicode="}" horiz-adv-x="356" 
d="M264.5 351.5q18.5 -11.5 63.5 -11.5l-15 -74q-41 0 -63 -9t-33.5 -29.5t-18.5 -59.5l-49 -244q-12 -57 -51 -91t-102 -34h-60l13 66h22q52 0 77 22t35 68l49 247q7 36 19 58t32.5 32.5t52.5 13.5q-33 6 -48 25.5t-15 57.5q0 16 7 53l43 211q3 18 3 31q0 30 -18 45t-61 15
h-22l13 65h37q63 0 93.5 -30.5t30.5 -85.5q0 -17 -5 -42l-42 -213q-6 -27 -6 -46q0 -29 18.5 -40.5z" />
    <glyph glyph-name="asciitilde" unicode="~" horiz-adv-x="577" 
d="M338 196.5q-18 8.5 -30.5 21t-27.5 32.5q-18 26 -32.5 38t-35.5 12q-32 0 -52.5 -28.5t-35.5 -80.5h-70q24 91 63 139.5t98 48.5q24 0 42 -8.5t30 -21t27 -31.5q14 -19 23 -29t20 -16t26 -6q32 0 52 27.5t36 80.5h70q-24 -91 -63.5 -139t-97.5 -48q-24 0 -42 8.5z" />
    <glyph glyph-name="uni00A0" unicode="&#xa0;" horiz-adv-x="182" 
 />
    <glyph glyph-name="exclamdown" unicode="&#xa1;" horiz-adv-x="278" 
d="M227 502.5q17 -16.5 17 -43.5q0 -28 -17 -45t-45 -17q-27 0 -44.5 17.5t-17.5 44.5t17.5 43.5t44.5 16.5q28 0 45 -16.5zM98 -201h-96l114 513h73z" />
    <glyph glyph-name="cent" unicode="&#xa2;" horiz-adv-x="527" 
d="M430 419q1 5 1 13q0 42 -20.5 68t-59.5 33l-73 -360q49 4 82 35t42 78h92q-12 -58 -44.5 -100t-80 -64t-105.5 -23l-19 -99h-50l20 103q-78 12 -115.5 67t-37.5 138q0 80 32 147.5t89.5 109t132.5 44.5l20 97h50l-20 -99q72 -9 113 -52.5t41 -114.5q0 -13 -1 -21h-89z
M169.5 220.5q19.5 -34.5 61.5 -43.5l72 357q-48 -7 -82.5 -40t-52.5 -82t-18 -104q0 -53 19.5 -87.5z" />
    <glyph glyph-name="sterling" unicode="&#xa3;" horiz-adv-x="615" 
d="M527 468q5 33 5 56q0 61 -25.5 92t-87.5 31q-51 0 -83 -20.5t-49.5 -57t-28.5 -91.5l-20 -97h193l-11 -55h-193l-51 -255h102q66 0 107.5 21t65 61t36.5 100h85q-18 -89 -49 -143.5t-86.5 -82t-145.5 -27.5h-300l15 71h78l51 255h-78l10 55h79l21 107q15 77 44 128
t80.5 78.5t130.5 27.5q106 0 151.5 -47t45.5 -138q0 -31 -6 -69h-86z" />
    <glyph glyph-name="currency" unicode="&#xa4;" horiz-adv-x="550" 
d="M492 274.5q-22 -48.5 -62 -82.5l61 -95h-78l-39 60q-50 -21 -104 -21q-69 0 -116 33l-76 -72h-76l113 111q-18 24 -27 54.5t-9 65.5q0 56 22 104.5t63 82.5l-61 94h78l38 -59q50 21 104 21q68 0 117 -34l74 72h78l-114 -111q18 -24 27 -55t9 -65q0 -55 -22 -103.5z
M362.5 227.5q37.5 23.5 58 63t20.5 84.5q0 37 -14.5 66t-43 45.5t-67.5 16.5q-49 0 -86.5 -23.5t-57.5 -62.5t-20 -85q0 -37 14.5 -66t43 -45.5t67.5 -16.5q48 0 85.5 23.5z" />
    <glyph glyph-name="yen" unicode="&#xa5;" horiz-adv-x="558" 
d="M351 342h175l-11 -52h-179l-16 -80h179l-10 -53h-179l-31 -157h-94l31 157h-181l11 53h180l16 80h-180l10 52h176l-150 364h91l117 -292l232 292h108z" />
    <glyph glyph-name="brokenbar" unicode="&#xa6;" horiz-adv-x="415" 
d="M265 756h89l-65 -328h-89zM140 128h89l-66 -329h-89z" />
    <glyph glyph-name="section" unicode="&#xa7;" horiz-adv-x="491" 
d="M413 559q1 6 1 19q0 39 -23 59.5t-71 20.5q-51 0 -81.5 -24.5t-30.5 -65.5q0 -29 14 -49.5t33 -32t61 -34.5q45 -24 73.5 -47t43.5 -52.5t15 -69.5q0 -50 -22 -88t-61.5 -61.5t-92.5 -30.5q33 -18 56 -37t36.5 -46.5t13.5 -65.5q0 -51 -26.5 -89t-73.5 -58t-107 -20
q-90 0 -133.5 37t-43.5 106q0 18 1 28h86q-1 -9 -1 -25q0 -40 22 -60.5t71 -20.5q57 0 86.5 27t29.5 74q0 29 -13 49.5t-33.5 34t-57.5 31.5q-45 21 -74 43.5t-45.5 53t-16.5 72.5q0 49 24.5 86.5t67.5 58.5t98 25q-37 22 -60.5 41.5t-39 48t-15.5 67.5q0 48 25.5 84t70 55
t101.5 19q88 0 132.5 -37.5t44.5 -104.5q0 -13 -1 -21h-84zM305 169q29 15 45 41t16 58q0 43 -27 66t-79 23q-39 0 -68.5 -13.5t-45.5 -38.5t-16 -58q0 -43 28 -68t80 -25q38 0 67 15z" />
    <glyph glyph-name="dieresis" unicode="&#xa8;" horiz-adv-x="402" 
d="M146 601.5q-16 15.5 -16 38.5q0 24 16 40t40 16q23 0 39.5 -16t16.5 -40q0 -23 -16.5 -38.5t-39.5 -15.5q-24 0 -40 15.5zM335.5 601.5q-15.5 15.5 -15.5 38.5q0 24 15.5 40t40.5 16q23 0 39.5 -16t16.5 -40q0 -23 -16.5 -38.5t-39.5 -15.5q-25 0 -40.5 15.5z" />
    <glyph glyph-name="copyright" unicode="&#xa9;" horiz-adv-x="812" 
d="M218.5 24.5q-72.5 40.5 -110 113t-37.5 167.5q0 113 51.5 208.5t141.5 152t201 56.5q100 0 172.5 -39.5t110 -111.5t37.5 -167q0 -114 -51 -210.5t-141 -153t-201 -56.5q-101 0 -173.5 40.5zM570 82.5q78 50.5 121 135.5t43 186q0 81 -31.5 142t-92.5 94t-146 33
q-99 0 -177 -49.5t-121.5 -134t-43.5 -184.5q0 -81 32 -143t93 -96t147 -34q98 0 176 50.5zM300.5 132.5q-41.5 24.5 -63.5 71.5t-22 113q0 77 29 141t83.5 102.5t128.5 38.5q56 0 98 -21.5t63.5 -63t19.5 -100.5h-77q2 56 -27 87t-81 31t-88.5 -31.5t-54.5 -81t-18 -105.5
q0 -66 27.5 -101t81.5 -35q52 0 88 30.5t48 82.5h78q-12 -58 -42.5 -99t-75 -62.5t-98.5 -21.5q-56 0 -97.5 24.5z" />
    <glyph glyph-name="ordfeminine" unicode="&#xaa;" horiz-adv-x="385" 
d="M369.5 687q32.5 -29 32.5 -85q0 -24 -6 -54l-37 -182h-70l9 42q-22 -24 -52.5 -37t-65.5 -13q-54 0 -81 25.5t-27 70.5q0 62 47 90.5t125 28.5h85q4 16 4 31q0 30 -16.5 45t-55.5 15q-34 0 -52.5 -16t-23.5 -47h-72q10 55 47.5 85t103.5 30q73 0 105.5 -29zM282.5 440
q26.5 27 38.5 85h-74q-47 0 -73 -13.5t-26 -48.5q0 -24 14.5 -37t47.5 -13q46 0 72.5 27z" />
    <glyph glyph-name="guillemotleft" unicode="&#xab;" horiz-adv-x="491" 
d="M29 283l181 159h101l-188 -166l114 -157h-89zM232 283l181 159h101l-188 -166l114 -157h-89z" />
    <glyph glyph-name="logicalnot" unicode="&#xac;" horiz-adv-x="577" 
d="M472 355h-396l15 71h468l-76 -378h-73z" />
    <glyph glyph-name="uni00AD" unicode="&#xad;" horiz-adv-x="387" 
d="M70 323h279l-16 -78h-279z" />
    <glyph glyph-name="registered" unicode="&#xae;" horiz-adv-x="492" 
d="M421 696.5q41 -23.5 61.5 -65.5t20.5 -96q0 -65 -28 -117.5t-78.5 -83t-116.5 -30.5q-60 0 -101.5 24t-62 66.5t-20.5 96.5q0 64 28.5 116t79.5 82.5t116 30.5q60 0 101 -23.5zM380 365q42 26 64 70.5t22 100.5q0 70 -36.5 109.5t-109.5 39.5q-57 0 -99.5 -26t-65 -70
t-22.5 -97q0 -70 37.5 -111.5t109.5 -41.5q58 0 100 26zM392 619.5q22 -16.5 22 -50.5q0 -28 -14 -45t-40 -23q26 -12 26 -46q0 -9 -2 -23l-9 -45h-47l9 46q3 12 3 20q0 17 -10 24.5t-33 7.5h-48l-20 -98h-48l51 249h92q46 0 68 -16.5zM352 532.5q14 10.5 14 29.5t-11 27.5
t-35 8.5h-48l-15 -76h56q25 0 39 10.5z" />
    <glyph glyph-name="macron" unicode="&#xaf;" horiz-adv-x="383" 
d="M135 670h283l-12 -61h-283z" />
    <glyph glyph-name="degree" unicode="&#xb0;" horiz-adv-x="317" 
d="M155.5 476q-31.5 17 -48.5 46.5t-17 67.5q0 39 17 69t48.5 46.5t71.5 16.5q41 0 72.5 -16.5t49 -46.5t17.5 -69q0 -38 -17.5 -67.5t-49.5 -46.5t-72 -17t-71.5 17zM279 539.5q19 19.5 19 50.5q0 33 -19 53t-51 20t-51 -20t-19 -53q0 -32 19 -51t51 -19t51 19.5z" />
    <glyph glyph-name="plusminus" unicode="&#xb1;" horiz-adv-x="577" 
d="M550 380l-15 -73h-196l-33 -164h-75l33 164h-197l15 73h196l32 161h75l-32 -161h197zM26 100h468l-14 -72h-469z" />
    <glyph glyph-name="twosuperior" unicode="&#xb2;" horiz-adv-x="353" 
d="M61 442l204 172q30 25 45.5 41t24.5 33t9 37q0 25 -16 39t-49 14q-40 0 -60 -22t-28 -58h-69q12 64 52 101t107 37q66 0 99.5 -28t33.5 -79q0 -39 -19.5 -68t-58.5 -61l-120 -97h156l-13 -65h-299z" />
    <glyph glyph-name="threesuperior" unicode="&#xb3;" horiz-adv-x="370" 
d="M400.5 674.5q-22.5 -24.5 -61.5 -36.5q29 -10 43 -30.5t14 -51.5q0 -40 -20.5 -69t-57.5 -44t-84 -15q-72 0 -106.5 30.5t-34.5 86.5q0 16 3 34h65q-3 -13 -3 -25q0 -33 19 -51t58 -18q42 0 66.5 20t24.5 54q0 30 -19.5 43t-59.5 13h-14l10 50h21q42 0 65 16t23 46
q0 24 -16.5 38t-49.5 14q-40 0 -62.5 -21.5t-29.5 -53.5h-65q11 60 54.5 96t113.5 36q61 0 93.5 -27.5t32.5 -73.5q0 -36 -22.5 -60.5z" />
    <glyph glyph-name="acute" unicode="&#xb4;" horiz-adv-x="283" 
d="M235 726h95l-127 -154h-87z" />
    <glyph glyph-name="mu" unicode="&#xb5;" horiz-adv-x="563" 
d="M536 487l-97 -487h-84l12 63q-30 -37 -69 -56t-85 -19q-72 0 -101 43q-6 -59 -18 -118l-22 -114h-85l137 688h85l-56 -282q-6 -24 -6 -55q0 -45 22.5 -66t69.5 -21q62 0 101.5 35.5t54.5 104.5l56 284h85z" />
    <glyph glyph-name="paragraph" unicode="&#xb6;" horiz-adv-x="651" 
d="M309 304h-35q-104 0 -150 47t-46 134q0 69 26.5 119t78 76t124.5 26h418l-15 -74h-67l-167 -833h-80l167 833h-109l-166 -833h-80z" />
    <glyph glyph-name="periodcentered" unicode="&#xb7;" horiz-adv-x="278" 
d="M103 245q-17 17 -17 43q0 28 17 45t45 17q27 0 44.5 -17.5t17.5 -44.5q0 -26 -18 -43t-44 -17q-28 0 -45 17z" />
    <glyph glyph-name="cedilla" unicode="&#xb8;" horiz-adv-x="302" 
d="M152.5 -73.5q23.5 -21.5 23.5 -55.5q0 -45 -35.5 -68t-93.5 -23q-53 0 -87 17l20 49q31 -13 65 -13q30 0 47.5 11t17.5 30q0 18 -17 27t-57 9h-34l45 95h66l-27 -54q43 -3 66.5 -24.5z" />
    <glyph glyph-name="onesuperior" unicode="&#xb9;" horiz-adv-x="264" 
d="M208 761h-78l24 65h140l-78 -388h-73z" />
    <glyph glyph-name="ordmasculine" unicode="&#xba;" horiz-adv-x="390" 
d="M123 400q-36 41 -36 110q0 57 23.5 104t66 74.5t97.5 27.5q74 0 110 -41t36 -110q0 -56 -24 -103.5t-66.5 -75t-96.5 -27.5q-74 0 -110 41zM296 440.5q25 20.5 38 53.5t13 71q0 42 -18 66t-58 24q-35 0 -60 -20.5t-38 -53.5t-13 -71q0 -42 18 -66t58 -24q35 0 60 20.5z
" />
    <glyph glyph-name="guillemotright" unicode="&#xbb;" horiz-adv-x="491" 
d="M273 279l-181 -160h-100l188 166l-115 157h89zM476 279l-181 -160h-100l188 166l-115 157h89z" />
    <glyph glyph-name="onequarter" unicode="&#xbc;" horiz-adv-x="790" 
d="M184 641h-78l24 65h140l-78 -388h-73zM625 706h71l-551 -706h-73zM618 92h-231v2l230 294h130l-48 -235h58l-12 -61h-58l-18 -92h-70zM630 153l42 211l-164 -211h122z" />
    <glyph glyph-name="onehalf" unicode="&#xbd;" horiz-adv-x="806" 
d="M184 641h-78l24 65h140l-78 -388h-73zM625 706h71l-551 -706h-73zM426 4l204 172q30 25 45.5 41t24.5 33t9 37q0 25 -16 39t-49 14q-40 0 -60 -22t-28 -58h-69q12 64 52 101t107 37q66 0 99.5 -28t33.5 -79q0 -39 -19.5 -68t-58.5 -61l-120 -97h156l-13 -65h-299z" />
    <glyph glyph-name="threequarters" unicode="&#xbe;" horiz-adv-x="893" 
d="M376.5 554.5q-22.5 -24.5 -61.5 -36.5q29 -10 43 -30.5t14 -51.5q0 -40 -20.5 -69t-57.5 -44t-84 -15q-72 0 -106.5 30.5t-34.5 86.5q0 16 3 34h65q-3 -13 -3 -25q0 -33 19 -51t58 -18q42 0 66.5 20t24.5 54q0 30 -19.5 43t-59.5 13h-14l10 50h21q42 0 65 16t23 46
q0 24 -16.5 38t-49.5 14q-40 0 -62.5 -21.5t-29.5 -53.5h-65q11 60 54.5 96t113.5 36q61 0 93.5 -27.5t32.5 -73.5q0 -36 -22.5 -60.5zM728 706h71l-551 -706h-73zM721 92h-231v2l230 294h130l-48 -235h58l-12 -61h-58l-18 -92h-70zM733 153l42 211l-164 -211h122z" />
    <glyph glyph-name="questiondown" unicode="&#xbf;" horiz-adv-x="494" 
d="M344 507q17 -17 17 -43q0 -28 -17 -45t-45 -17q-27 0 -44.5 17.5t-17.5 44.5q0 26 18 43t44 17q28 0 45 -17zM309 301q-86 -97 -132 -153t-73.5 -106t-27.5 -91t25.5 -66t80.5 -25q45 0 73.5 17t43 46t23.5 73h87q-19 -101 -74 -154.5t-158 -53.5q-64 0 -107.5 20t-65 57
t-21.5 86q0 47 24.5 96.5t66 102.5t124.5 149l15 18h110z" />
    <glyph glyph-name="Agrave" unicode="&#xc0;" horiz-adv-x="630" 
d="M458 177h-305l-94 -177h-99l378 706h139l96 -706h-92zM449 252l-50 386h-2l-204 -386h256zM414 777l-104 128h92l96 -128h-84z" />
    <glyph glyph-name="Aacute" unicode="&#xc1;" horiz-adv-x="630" 
d="M458 177h-305l-94 -177h-99l378 706h139l96 -706h-92zM449 252l-50 386h-2l-204 -386h256zM475 905h105l-141 -128h-97z" />
    <glyph glyph-name="Acircumflex" unicode="&#xc2;" horiz-adv-x="630" 
d="M458 177h-305l-94 -177h-99l378 706h139l96 -706h-92zM449 252l-50 386h-2l-204 -386h256zM392 905h106l92 -128h-83l-65 86l-98 -86h-95z" />
    <glyph glyph-name="Atilde" unicode="&#xc3;" horiz-adv-x="630" 
d="M458 177h-305l-94 -177h-99l378 706h139l96 -706h-92zM449 252l-50 386h-2l-204 -386h256zM456.5 783q-18.5 10 -35.5 29q-3 3 -14 14.5t-22 16.5t-24 5q-46 0 -67 -73h-58q15 63 47 98t81 35q27 0 45 -10t37 -30q2 -2 11.5 -13t20.5 -16.5t23 -5.5q26 0 42 19t27 54h58
q-33 -133 -127 -133q-26 0 -44.5 10z" />
    <glyph glyph-name="Adieresis" unicode="&#xc4;" horiz-adv-x="630" 
d="M458 177h-305l-94 -177h-99l378 706h139l96 -706h-92zM449 252l-50 386h-2l-204 -386h256zM287.5 812q-15.5 15 -15.5 38t15.5 38.5t39.5 15.5q23 0 39 -15.5t16 -38.5t-16 -38t-39 -15q-24 0 -39.5 15zM495.5 812q-15.5 15 -15.5 38t15.5 38.5t39.5 15.5
q23 0 39.5 -15.5t16.5 -38.5t-16 -38t-40 -15t-39.5 15z" />
    <glyph glyph-name="Aring" unicode="&#xc5;" horiz-adv-x="630" 
d="M458 177h-305l-94 -177h-99l378 706h139l96 -706h-92zM449 252l-50 386h-2l-204 -386h256zM364 757.5q-25 13.5 -39 37.5t-14 56t14 56t39 37t59 13t60 -13.5t40 -37.5t14 -55q0 -32 -14 -56t-40 -37.5t-60 -13.5t-59 13.5zM466 809q16 16 16 42q0 25 -16.5 41t-42.5 16
t-41.5 -15.5t-15.5 -41.5t15.5 -42t41.5 -16q27 0 43 16z" />
    <glyph glyph-name="AE" unicode="&#xc6;" horiz-adv-x="787" 
d="M522 628l-18 -229h260l-16 -78h-250l-19 -243h224l-16 -78h-308l15 179h-227l-104 -179h-103l418 706h450l-15 -78h-291zM433 633h-2l-220 -379h190z" />
    <glyph glyph-name="Ccedilla" unicode="&#xc7;" horiz-adv-x="700" 
d="M600 451q1 9 1 20q0 53 -20.5 91t-58.5 58.5t-91 20.5q-84 0 -145 -51.5t-92 -135t-31 -177.5q0 -100 43 -156t133 -56q85 0 140.5 47t77.5 129h97q-16 -77 -58.5 -133.5t-105.5 -88t-139 -35.5l-17 -34q43 -3 66 -24t23 -55q0 -45 -35.5 -68t-93.5 -23q-53 0 -86 17
l19 49q31 -13 66 -13q29 0 47 11t18 30q0 18 -17.5 27t-57.5 9h-34l37 77q-112 14 -165 90t-53 199q0 120 45 222t129 163t197 61q79 0 136.5 -30t88 -85.5t30.5 -129.5q0 -4 -2 -26h-92z" />
    <glyph glyph-name="Egrave" unicode="&#xc8;" horiz-adv-x="544" 
d="M183 706h402l-15 -78h-310l-46 -229h307l-16 -78h-307l-48 -243h310l-16 -78h-402zM385 777l-104 128h92l96 -128h-84z" />
    <glyph glyph-name="Eacute" unicode="&#xc9;" horiz-adv-x="544" 
d="M183 706h402l-15 -78h-310l-46 -229h307l-16 -78h-307l-48 -243h310l-16 -78h-402zM447 905h105l-141 -128h-97z" />
    <glyph glyph-name="Ecircumflex" unicode="&#xca;" horiz-adv-x="544" 
d="M183 706h402l-15 -78h-310l-46 -229h307l-16 -78h-307l-48 -243h310l-16 -78h-402zM363 905h106l92 -128h-83l-65 86l-98 -86h-95z" />
    <glyph glyph-name="Edieresis" unicode="&#xcb;" horiz-adv-x="544" 
d="M183 706h402l-15 -78h-310l-46 -229h307l-16 -78h-307l-48 -243h310l-16 -78h-402zM259.5 812q-15.5 15 -15.5 38t15.5 38.5t39.5 15.5q23 0 39 -15.5t16 -38.5t-16 -38t-39 -15q-24 0 -39.5 15zM467.5 812q-15.5 15 -15.5 38t15.5 38.5t39.5 15.5q23 0 39.5 -15.5
t16.5 -38.5t-16 -38t-40 -15t-39.5 15z" />
    <glyph glyph-name="Igrave" unicode="&#xcc;" horiz-adv-x="273" 
d="M183 706h92l-141 -706h-92zM238 777l-104 128h92l96 -128h-84z" />
    <glyph glyph-name="Iacute" unicode="&#xcd;" horiz-adv-x="273" 
d="M183 706h92l-141 -706h-92zM299 905h105l-141 -128h-97z" />
    <glyph glyph-name="Icircumflex" unicode="&#xce;" horiz-adv-x="273" 
d="M183 706h92l-141 -706h-92zM216 905h99l60 -128h-75l-38 85l-72 -85h-82z" />
    <glyph glyph-name="Idieresis" unicode="&#xcf;" horiz-adv-x="273" 
d="M183 706h92l-141 -706h-92zM141.5 804q-14.5 14 -14.5 35q0 22 14.5 37t36.5 15q21 0 35.5 -15t14.5 -37q0 -21 -14.5 -35t-35.5 -14q-22 0 -36.5 14zM285.5 803q-14.5 14 -14.5 35q0 23 14.5 37.5t36.5 14.5q21 0 35.5 -15t14.5 -37q0 -21 -14.5 -35t-35.5 -14
q-22 0 -36.5 14z" />
    <glyph glyph-name="Eth" unicode="&#xd0;" horiz-adv-x="690" 
d="M593 630q71 -76 71 -211q0 -121 -46 -216t-133 -149t-205 -54h-238l65 326h-58l13 67h58l63 313h181q158 0 229 -76zM434 121.5q67 43.5 100.5 120t33.5 174.5q0 102 -48.5 157t-159.5 55h-100l-47 -235h170l-13 -67h-170l-50 -248h120q97 0 164 43.5z" />
    <glyph glyph-name="Ntilde" unicode="&#xd1;" horiz-adv-x="712" 
d="M183 706h95l232 -573l115 573h89l-141 -706h-96l-231 573l-115 -573h-89zM496.5 783q-18.5 10 -35.5 29q-3 3 -14 14.5t-22 16.5t-24 5q-46 0 -67 -73h-58q15 63 47 98t81 35q27 0 45 -10t37 -30q2 -2 11.5 -13t20.5 -16.5t23 -5.5q26 0 42 19t27 54h58
q-33 -133 -127 -133q-26 0 -44.5 10z" />
    <glyph glyph-name="Ograve" unicode="&#xd2;" horiz-adv-x="726" 
d="M133 61.5q-65 77.5 -65 208.5q0 122 43.5 225.5t126.5 165t195 61.5q93 0 153 -36.5t88 -100.5t28 -148q0 -123 -43.5 -226.5t-126.5 -165t-196 -61.5q-138 0 -203 77.5zM485 117.5q60 52.5 91 138t31 182.5q0 93 -43.5 148t-137.5 55q-82 0 -142 -52.5t-91 -137.5
t-31 -182q0 -93 44 -148.5t137 -55.5q82 0 142 52.5zM460 777l-104 128h92l96 -128h-84z" />
    <glyph glyph-name="Oacute" unicode="&#xd3;" horiz-adv-x="726" 
d="M133 61.5q-65 77.5 -65 208.5q0 122 43.5 225.5t126.5 165t195 61.5q93 0 153 -36.5t88 -100.5t28 -148q0 -123 -43.5 -226.5t-126.5 -165t-196 -61.5q-138 0 -203 77.5zM485 117.5q60 52.5 91 138t31 182.5q0 93 -43.5 148t-137.5 55q-82 0 -142 -52.5t-91 -137.5
t-31 -182q0 -93 44 -148.5t137 -55.5q82 0 142 52.5zM521 905h105l-141 -128h-97z" />
    <glyph glyph-name="Ocircumflex" unicode="&#xd4;" horiz-adv-x="726" 
d="M133 61.5q-65 77.5 -65 208.5q0 122 43.5 225.5t126.5 165t195 61.5q93 0 153 -36.5t88 -100.5t28 -148q0 -123 -43.5 -226.5t-126.5 -165t-196 -61.5q-138 0 -203 77.5zM485 117.5q60 52.5 91 138t31 182.5q0 93 -43.5 148t-137.5 55q-82 0 -142 -52.5t-91 -137.5
t-31 -182q0 -93 44 -148.5t137 -55.5q82 0 142 52.5zM438 905h106l92 -128h-83l-65 86l-98 -86h-95z" />
    <glyph glyph-name="Otilde" unicode="&#xd5;" horiz-adv-x="726" 
d="M133 61.5q-65 77.5 -65 208.5q0 122 43.5 225.5t126.5 165t195 61.5q93 0 153 -36.5t88 -100.5t28 -148q0 -123 -43.5 -226.5t-126.5 -165t-196 -61.5q-138 0 -203 77.5zM485 117.5q60 52.5 91 138t31 182.5q0 93 -43.5 148t-137.5 55q-82 0 -142 -52.5t-91 -137.5
t-31 -182q0 -93 44 -148.5t137 -55.5q82 0 142 52.5zM502.5 783q-18.5 10 -35.5 29q-3 3 -14 14.5t-22 16.5t-24 5q-46 0 -67 -73h-58q15 63 47 98t81 35q27 0 45 -10t37 -30q2 -2 11.5 -13t20.5 -16.5t23 -5.5q26 0 42 19t27 54h58q-33 -133 -127 -133q-26 0 -44.5 10z" />
    <glyph glyph-name="Odieresis" unicode="&#xd6;" horiz-adv-x="726" 
d="M133 61.5q-65 77.5 -65 208.5q0 122 43.5 225.5t126.5 165t195 61.5q93 0 153 -36.5t88 -100.5t28 -148q0 -123 -43.5 -226.5t-126.5 -165t-196 -61.5q-138 0 -203 77.5zM485 117.5q60 52.5 91 138t31 182.5q0 93 -43.5 148t-137.5 55q-82 0 -142 -52.5t-91 -137.5
t-31 -182q0 -93 44 -148.5t137 -55.5q82 0 142 52.5zM333.5 812q-15.5 15 -15.5 38t15.5 38.5t39.5 15.5q23 0 39 -15.5t16 -38.5t-16 -38t-39 -15q-24 0 -39.5 15zM541.5 812q-15.5 15 -15.5 38t15.5 38.5t39.5 15.5q23 0 39.5 -15.5t16.5 -38.5t-16 -38t-40 -15t-39.5 15z
" />
    <glyph glyph-name="multiply" unicode="&#xd7;" horiz-adv-x="577" 
d="M347 279l128 -160l-56 -46l-127 160l-198 -165l-46 57l198 165l-127 161l55 45l127 -160l198 165l46 -57z" />
    <glyph glyph-name="Oslash" unicode="&#xd8;" horiz-adv-x="726" 
d="M671 591q31 -65 31 -154q0 -123 -43.5 -226.5t-126.5 -165t-196 -61.5q-74 0 -126.5 23t-85.5 66l-77 -73h-80l129 119q-28 65 -28 151q0 122 43.5 225.5t126.5 165t195 61.5q141 0 210 -85l72 69h80zM284 588.5q-60 -52.5 -91 -137.5t-31 -182q0 -47 10 -81l400 387
q-45 66 -146 66q-82 0 -142 -52.5zM485 117.5q60 52.5 91 138t31 182.5q0 45 -11 86l-402 -387q45 -72 149 -72q82 0 142 52.5z" />
    <glyph glyph-name="Ugrave" unicode="&#xd9;" horiz-adv-x="643" 
d="M119.5 30q-54.5 46 -54.5 139q0 42 8 79l91 458h93l-94 -471q-6 -31 -6 -57q0 -58 31.5 -85.5t100.5 -27.5q82 0 126 39t60 121l96 481h93l-101 -502q-22 -111 -89.5 -165.5t-187.5 -54.5q-112 0 -166.5 46zM422 777l-104 128h92l96 -128h-84z" />
    <glyph glyph-name="Uacute" unicode="&#xda;" horiz-adv-x="643" 
d="M119.5 30q-54.5 46 -54.5 139q0 42 8 79l91 458h93l-94 -471q-6 -31 -6 -57q0 -58 31.5 -85.5t100.5 -27.5q82 0 126 39t60 121l96 481h93l-101 -502q-22 -111 -89.5 -165.5t-187.5 -54.5q-112 0 -166.5 46zM483 905h105l-141 -128h-97z" />
    <glyph glyph-name="Ucircumflex" unicode="&#xdb;" horiz-adv-x="643" 
d="M119.5 30q-54.5 46 -54.5 139q0 42 8 79l91 458h93l-94 -471q-6 -31 -6 -57q0 -58 31.5 -85.5t100.5 -27.5q82 0 126 39t60 121l96 481h93l-101 -502q-22 -111 -89.5 -165.5t-187.5 -54.5q-112 0 -166.5 46zM400 905h106l92 -128h-83l-65 86l-98 -86h-95z" />
    <glyph glyph-name="Udieresis" unicode="&#xdc;" horiz-adv-x="643" 
d="M119.5 30q-54.5 46 -54.5 139q0 42 8 79l91 458h93l-94 -471q-6 -31 -6 -57q0 -58 31.5 -85.5t100.5 -27.5q82 0 126 39t60 121l96 481h93l-101 -502q-22 -111 -89.5 -165.5t-187.5 -54.5q-112 0 -166.5 46zM295.5 812q-15.5 15 -15.5 38t15.5 38.5t39.5 15.5
q23 0 39 -15.5t16 -38.5t-16 -38t-39 -15q-24 0 -39.5 15zM503.5 812q-15.5 15 -15.5 38t15.5 38.5t39.5 15.5q23 0 39.5 -15.5t16.5 -38.5t-16 -38t-40 -15t-39.5 15z" />
    <glyph glyph-name="Yacute" unicode="&#xdd;" horiz-adv-x="563" 
d="M249 304l-148 402h93l115 -311l230 311h108l-306 -402l-61 -304h-92zM435 905h105l-141 -128h-97z" />
    <glyph glyph-name="Thorn" unicode="&#xde;" horiz-adv-x="574" 
d="M183 706h92l-24 -121h89q232 0 232 -200q0 -79 -32.5 -136.5t-93 -88t-141.5 -30.5h-144l-27 -130h-92zM290 207q89 0 138 44.5t49 126.5q0 66 -37 98t-114 32h-90l-60 -301h114z" />
    <glyph glyph-name="germandbls" unicode="&#xdf;" horiz-adv-x="566" 
d="M490.5 329q24.5 -43 24.5 -102q0 -71 -34 -122.5t-97.5 -78.5t-151.5 -27q-26 0 -54 2l14 71l38 -1q93 0 144 41.5t51 117.5q0 60 -35.5 94t-108.5 34h-30l13 68h43q47 0 83.5 15.5t57 44.5t20.5 68q0 47 -26 73.5t-80 26.5q-67 0 -100.5 -40t-47.5 -111l-101 -503h-86
l102 514q20 98 77 153t161 55q94 0 140.5 -45t46.5 -121q0 -64 -38 -107.5t-104 -56.5q54 -20 78.5 -63z" />
    <glyph glyph-name="agrave" unicode="&#xe0;" horiz-adv-x="540" 
d="M436.5 456.5q43.5 -42.5 43.5 -122.5q0 -32 -10 -82l-51 -252h-87l13 64q-65 -76 -175 -76q-75 0 -113 35.5t-38 96.5q0 88 66.5 127t178.5 39h125q6 30 6 51q0 47 -24 70.5t-79 23.5q-109 0 -125 -96h-90q14 77 70 120.5t147 43.5q99 0 142.5 -42.5zM318.5 98
q41.5 40 58.5 126h-109q-71 0 -113 -21t-42 -71q0 -74 91 -74q73 0 114.5 40zM322 572l-75 154h84l67 -154h-76z" />
    <glyph glyph-name="aacute" unicode="&#xe1;" horiz-adv-x="540" 
d="M436.5 456.5q43.5 -42.5 43.5 -122.5q0 -32 -10 -82l-51 -252h-87l13 64q-65 -76 -175 -76q-75 0 -113 35.5t-38 96.5q0 88 66.5 127t178.5 39h125q6 30 6 51q0 47 -24 70.5t-79 23.5q-109 0 -125 -96h-90q14 77 70 120.5t147 43.5q99 0 142.5 -42.5zM318.5 98
q41.5 40 58.5 126h-109q-71 0 -113 -21t-42 -71q0 -74 91 -74q73 0 114.5 40zM382 726h95l-127 -154h-87z" />
    <glyph glyph-name="acircumflex" unicode="&#xe2;" horiz-adv-x="540" 
d="M436.5 456.5q43.5 -42.5 43.5 -122.5q0 -32 -10 -82l-51 -252h-87l13 64q-65 -76 -175 -76q-75 0 -113 35.5t-38 96.5q0 88 66.5 127t178.5 39h125q6 30 6 51q0 47 -24 70.5t-79 23.5q-109 0 -125 -96h-90q14 77 70 120.5t147 43.5q99 0 142.5 -42.5zM318.5 98
q41.5 40 58.5 126h-109q-71 0 -113 -21t-42 -71q0 -74 91 -74q73 0 114.5 40zM309 727h104l72 -156h-79l-51 113l-96 -113h-85z" />
    <glyph glyph-name="atilde" unicode="&#xe3;" horiz-adv-x="540" 
d="M436.5 456.5q43.5 -42.5 43.5 -122.5q0 -32 -10 -82l-51 -252h-87l13 64q-65 -76 -175 -76q-75 0 -113 35.5t-38 96.5q0 88 66.5 127t178.5 39h125q6 30 6 51q0 47 -24 70.5t-79 23.5q-109 0 -125 -96h-90q14 77 70 120.5t147 43.5q99 0 142.5 -42.5zM318.5 98
q41.5 40 58.5 126h-109q-71 0 -113 -21t-42 -71q0 -74 91 -74q73 0 114.5 40zM363.5 579.5q-17.5 10.5 -31.5 37.5q-2 3 -11 18.5t-18.5 23t-20.5 7.5q-21 0 -34.5 -22.5t-26.5 -71.5h-59q18 82 47 119.5t76 37.5q25 0 41.5 -11.5t32.5 -38.5q3 -5 12.5 -19.5t18.5 -21
t21 -6.5q21 0 33.5 22t25.5 73h59q-12 -56 -27.5 -90t-38.5 -51t-57 -17q-25 0 -42.5 10.5z" />
    <glyph glyph-name="adieresis" unicode="&#xe4;" horiz-adv-x="540" 
d="M436.5 456.5q43.5 -42.5 43.5 -122.5q0 -32 -10 -82l-51 -252h-87l13 64q-65 -76 -175 -76q-75 0 -113 35.5t-38 96.5q0 88 66.5 127t178.5 39h125q6 30 6 51q0 47 -24 70.5t-79 23.5q-109 0 -125 -96h-90q14 77 70 120.5t147 43.5q99 0 142.5 -42.5zM318.5 98
q41.5 40 58.5 126h-109q-71 0 -113 -21t-42 -71q0 -74 91 -74q73 0 114.5 40zM210 601.5q-16 15.5 -16 38.5q0 24 16 40t40 16q23 0 39.5 -16t16.5 -40q0 -23 -16.5 -38.5t-39.5 -15.5q-24 0 -40 15.5zM399.5 601.5q-15.5 15.5 -15.5 38.5q0 24 15.5 40t40.5 16
q23 0 39.5 -16t16.5 -40q0 -23 -16.5 -38.5t-39.5 -15.5q-25 0 -40.5 15.5z" />
    <glyph glyph-name="aring" unicode="&#xe5;" horiz-adv-x="540" 
d="M436.5 456.5q43.5 -42.5 43.5 -122.5q0 -32 -10 -82l-51 -252h-87l13 64q-65 -76 -175 -76q-75 0 -113 35.5t-38 96.5q0 88 66.5 127t178.5 39h125q6 30 6 51q0 47 -24 70.5t-79 23.5q-109 0 -125 -96h-90q14 77 70 120.5t147 43.5q99 0 142.5 -42.5zM318.5 98
q41.5 40 58.5 126h-109q-71 0 -113 -21t-42 -71q0 -74 91 -74q73 0 114.5 40zM281 567.5q-25 13.5 -39 37.5t-14 56t14 56t39 37t59 13t60 -13.5t40 -37.5t14 -55q0 -32 -14 -56t-40 -37.5t-60 -13.5t-59 13.5zM383 619q16 16 16 42q0 25 -16.5 41t-42.5 16t-41.5 -15.5
t-15.5 -41.5t15.5 -42t41.5 -16q27 0 43 16z" />
    <glyph glyph-name="ae" unicode="&#xe6;" horiz-adv-x="860" 
d="M464 225q-1 -10 -1 -30q0 -64 27.5 -99.5t85.5 -35.5q49 0 82 23.5t49 68.5h92q-24 -78 -84.5 -120.5t-141.5 -42.5q-71 0 -115.5 31t-63.5 87q-33 -57 -86.5 -88t-127.5 -31q-80 0 -120.5 35.5t-40.5 97.5q0 88 66.5 127t178.5 39h125q7 29 7 50q0 47 -24.5 70.5
t-79.5 23.5q-108 0 -126 -96h-89q14 77 70 120.5t147 43.5q126 0 164 -77q32 37 75.5 57t96.5 20q57 0 100 -24t66.5 -70.5t23.5 -111.5q0 -35 -5 -68h-351zM529.5 390q-38.5 -39 -55.5 -103h260v10q0 63 -26 97.5t-81 34.5q-59 0 -97.5 -39zM318.5 98.5
q41.5 40.5 59.5 126.5h-109q-72 0 -114 -20.5t-42 -72.5q0 -74 91 -74q73 0 114.5 40.5z" />
    <glyph glyph-name="ccedilla" unicode="&#xe7;" horiz-adv-x="528" 
d="M406 309q1 5 1 13q0 48 -28 74.5t-77 26.5q-53 0 -91.5 -31.5t-59 -83.5t-20.5 -110q0 -62 27.5 -98t85.5 -36q34 0 62 14.5t46.5 39.5t25.5 57h95q-12 -55 -42.5 -95.5t-75 -63.5t-99.5 -26l-19 -39q43 -3 66.5 -24.5t23.5 -55.5q0 -45 -35.5 -68t-94.5 -23
q-52 0 -86 17l20 49q31 -13 65 -13q30 0 47.5 11t17.5 30q0 18 -17 27t-57 9h-34l39 83q-77 13 -114.5 67.5t-37.5 137.5q0 82 33.5 151t94.5 109.5t139 40.5q58 0 101 -20t66.5 -58t23.5 -91q0 -14 -1 -21h-91z" />
    <glyph glyph-name="egrave" unicode="&#xe8;" horiz-adv-x="547" 
d="M129 226q-1 -10 -1 -31q0 -135 126 -135q52 0 88 23.5t53 68.5h92q-17 -52 -51.5 -88.5t-82 -55.5t-102.5 -19q-107 0 -159 56t-52 151q0 84 33 153t94 109.5t141 40.5q61 0 106 -24t69.5 -70t24.5 -112q0 -36 -6 -67h-373zM200.5 391.5q-41.5 -37.5 -59.5 -100.5h281v6
q0 63 -29 97.5t-89 34.5q-62 0 -103.5 -37.5zM318 572l-75 154h84l67 -154h-76z" />
    <glyph glyph-name="eacute" unicode="&#xe9;" horiz-adv-x="547" 
d="M129 226q-1 -10 -1 -31q0 -135 126 -135q52 0 88 23.5t53 68.5h92q-17 -52 -51.5 -88.5t-82 -55.5t-102.5 -19q-107 0 -159 56t-52 151q0 84 33 153t94 109.5t141 40.5q61 0 106 -24t69.5 -70t24.5 -112q0 -36 -6 -67h-373zM200.5 391.5q-41.5 -37.5 -59.5 -100.5h281v6
q0 63 -29 97.5t-89 34.5q-62 0 -103.5 -37.5zM378 726h95l-127 -154h-87z" />
    <glyph glyph-name="ecircumflex" unicode="&#xea;" horiz-adv-x="547" 
d="M129 226q-1 -10 -1 -31q0 -135 126 -135q52 0 88 23.5t53 68.5h92q-17 -52 -51.5 -88.5t-82 -55.5t-102.5 -19q-107 0 -159 56t-52 151q0 84 33 153t94 109.5t141 40.5q61 0 106 -24t69.5 -70t24.5 -112q0 -36 -6 -67h-373zM200.5 391.5q-41.5 -37.5 -59.5 -100.5h281v6
q0 63 -29 97.5t-89 34.5q-62 0 -103.5 -37.5zM305 727h104l72 -156h-79l-51 113l-96 -113h-85z" />
    <glyph glyph-name="edieresis" unicode="&#xeb;" horiz-adv-x="547" 
d="M129 226q-1 -10 -1 -31q0 -135 126 -135q52 0 88 23.5t53 68.5h92q-17 -52 -51.5 -88.5t-82 -55.5t-102.5 -19q-107 0 -159 56t-52 151q0 84 33 153t94 109.5t141 40.5q61 0 106 -24t69.5 -70t24.5 -112q0 -36 -6 -67h-373zM200.5 391.5q-41.5 -37.5 -59.5 -100.5h281v6
q0 63 -29 97.5t-89 34.5q-62 0 -103.5 -37.5zM206 601.5q-16 15.5 -16 38.5q0 24 16 40t40 16q23 0 39.5 -16t16.5 -40q0 -23 -16.5 -38.5t-39.5 -15.5q-24 0 -40 15.5zM395.5 601.5q-15.5 15.5 -15.5 38.5q0 24 15.5 40t40.5 16q23 0 39.5 -16t16.5 -40q0 -23 -16.5 -38.5
t-39.5 -15.5q-25 0 -40.5 15.5z" />
    <glyph glyph-name="igrave" unicode="&#xec;" horiz-adv-x="237" 
d="M124 487h87l-98 -487h-86zM166 572l-60 154h82l51 -154h-73z" />
    <glyph glyph-name="iacute" unicode="&#xed;" horiz-adv-x="237" 
d="M124 487h87l-98 -487h-86zM232 726h93l-111 -154h-84z" />
    <glyph glyph-name="icircumflex" unicode="&#xee;" horiz-adv-x="237" 
d="M124 487h87l-98 -487h-86zM168 727h90l54 -156h-68l-37 109l-83 -109h-73z" />
    <glyph glyph-name="idieresis" unicode="&#xef;" horiz-adv-x="237" 
d="M124 487h87l-98 -487h-86zM92 602.5q-13 13.5 -13 35.5q0 23 14 37t36 14q21 0 34 -13t13 -35q0 -23 -14 -37.5t-35 -14.5q-22 0 -35 13.5zM227 602.5q-13 13.5 -13 35.5q0 23 14 37t36 14q21 0 34 -13t13 -35q0 -23 -14 -37.5t-36 -14.5q-21 0 -34 13.5z" />
    <glyph glyph-name="eth" unicode="&#xf0;" horiz-adv-x="552" 
d="M536 634l-94 -31q71 -150 71 -293q0 -95 -31 -167.5t-92 -113t-147 -40.5q-104 0 -154 55.5t-50 150.5q0 75 31.5 139.5t88.5 103t130 38.5q92 0 136 -63q-16 75 -60 164l-214 -71l12 62l176 59q-14 25 -46 77v2h93q17 -27 30 -54l131 44zM339.5 91.5q38.5 28.5 58.5 76
t20 104.5q0 134 -117 134q-53 0 -92 -28.5t-59 -76.5t-20 -105q0 -62 27.5 -97.5t89.5 -35.5q54 0 92.5 28.5z" />
    <glyph glyph-name="ntilde" unicode="&#xf1;" horiz-adv-x="559" 
d="M463.5 460q37.5 -39 37.5 -109q0 -44 -8 -80l-54 -271h-86l53 266q7 33 7 63q0 48 -24 71t-74 23q-56 0 -93.5 -34.5t-50.5 -100.5l-58 -288h-86l97 487h87l-12 -57q59 69 153 69q74 0 111.5 -39zM389.5 579.5q-17.5 10.5 -31.5 37.5q-2 3 -11 18.5t-18.5 23t-20.5 7.5
q-21 0 -34.5 -22.5t-26.5 -71.5h-59q18 82 47 119.5t76 37.5q25 0 41.5 -11.5t32.5 -38.5q3 -5 12.5 -19.5t18.5 -21t21 -6.5q21 0 33.5 22t25.5 73h59q-12 -56 -27.5 -90t-38.5 -51t-57 -17q-25 0 -42.5 10.5z" />
    <glyph glyph-name="ograve" unicode="&#xf2;" horiz-adv-x="549" 
d="M127 16q-45 28 -66 75.5t-21 107.5q0 83 33 151.5t94 108.5t140 40q70 0 115 -28.5t66 -76.5t21 -108q0 -83 -32.5 -151t-93 -107.5t-142.5 -39.5q-69 0 -114 28zM342 95.5q39 31.5 58 82t19 108.5q0 64 -28 100.5t-89 36.5q-55 0 -94 -32.5t-58.5 -83.5t-19.5 -106
q0 -64 28.5 -100.5t88.5 -36.5q56 0 95 31.5zM332 572l-75 154h84l67 -154h-76z" />
    <glyph glyph-name="oacute" unicode="&#xf3;" horiz-adv-x="549" 
d="M127 16q-45 28 -66 75.5t-21 107.5q0 83 33 151.5t94 108.5t140 40q70 0 115 -28.5t66 -76.5t21 -108q0 -83 -32.5 -151t-93 -107.5t-142.5 -39.5q-69 0 -114 28zM342 95.5q39 31.5 58 82t19 108.5q0 64 -28 100.5t-89 36.5q-55 0 -94 -32.5t-58.5 -83.5t-19.5 -106
q0 -64 28.5 -100.5t88.5 -36.5q56 0 95 31.5zM392 726h95l-127 -154h-87z" />
    <glyph glyph-name="ocircumflex" unicode="&#xf4;" horiz-adv-x="549" 
d="M127 16q-45 28 -66 75.5t-21 107.5q0 83 33 151.5t94 108.5t140 40q70 0 115 -28.5t66 -76.5t21 -108q0 -83 -32.5 -151t-93 -107.5t-142.5 -39.5q-69 0 -114 28zM342 95.5q39 31.5 58 82t19 108.5q0 64 -28 100.5t-89 36.5q-55 0 -94 -32.5t-58.5 -83.5t-19.5 -106
q0 -64 28.5 -100.5t88.5 -36.5q56 0 95 31.5zM319 727h104l72 -156h-79l-51 113l-96 -113h-85z" />
    <glyph glyph-name="otilde" unicode="&#xf5;" horiz-adv-x="549" 
d="M127 16q-45 28 -66 75.5t-21 107.5q0 83 33 151.5t94 108.5t140 40q70 0 115 -28.5t66 -76.5t21 -108q0 -83 -32.5 -151t-93 -107.5t-142.5 -39.5q-69 0 -114 28zM342 95.5q39 31.5 58 82t19 108.5q0 64 -28 100.5t-89 36.5q-55 0 -94 -32.5t-58.5 -83.5t-19.5 -106
q0 -64 28.5 -100.5t88.5 -36.5q56 0 95 31.5zM373.5 579.5q-17.5 10.5 -31.5 37.5q-2 3 -11 18.5t-18.5 23t-20.5 7.5q-21 0 -34.5 -22.5t-26.5 -71.5h-59q18 82 47 119.5t76 37.5q25 0 41.5 -11.5t32.5 -38.5q3 -5 12.5 -19.5t18.5 -21t21 -6.5q21 0 33.5 22t25.5 73h59
q-12 -56 -27.5 -90t-38.5 -51t-57 -17q-25 0 -42.5 10.5z" />
    <glyph glyph-name="odieresis" unicode="&#xf6;" horiz-adv-x="549" 
d="M127 16q-45 28 -66 75.5t-21 107.5q0 83 33 151.5t94 108.5t140 40q70 0 115 -28.5t66 -76.5t21 -108q0 -83 -32.5 -151t-93 -107.5t-142.5 -39.5q-69 0 -114 28zM342 95.5q39 31.5 58 82t19 108.5q0 64 -28 100.5t-89 36.5q-55 0 -94 -32.5t-58.5 -83.5t-19.5 -106
q0 -64 28.5 -100.5t88.5 -36.5q56 0 95 31.5zM220 601.5q-16 15.5 -16 38.5q0 24 16 40t40 16q23 0 39.5 -16t16.5 -40q0 -23 -16.5 -38.5t-39.5 -15.5q-24 0 -40 15.5zM409.5 601.5q-15.5 15.5 -15.5 38.5q0 24 15.5 40t40.5 16q23 0 39.5 -16t16.5 -40q0 -23 -16.5 -38.5
t-39.5 -15.5q-25 0 -40.5 15.5z" />
    <glyph glyph-name="divide" unicode="&#xf7;" horiz-adv-x="577" 
d="M300 449.5q-14 13.5 -14 36.5t14 36.5t37 13.5q22 0 36 -13.5t14 -36.5q0 -22 -14.5 -36t-35.5 -14q-23 0 -37 13.5zM69 320h469l-15 -72h-468zM219.5 46q-14.5 14 -14.5 36q0 24 14 37t38 13q21 0 35.5 -13.5t14.5 -36.5q0 -21 -14.5 -35.5t-35.5 -14.5q-23 0 -37.5 14z
" />
    <glyph glyph-name="oslash" unicode="&#xf8;" horiz-adv-x="549" 
d="M479 412q30 -50 30 -126q0 -83 -32.5 -151t-93 -107.5t-142.5 -39.5q-91 0 -144 51l-40 -39h-69l81 76q-29 51 -29 123q0 83 33 151.5t94 108.5t140 40q90 0 143 -50l39 38h69zM208 390.5q-39 -32.5 -58.5 -83.5t-19.5 -106q0 -37 8 -60l250 249q-28 33 -86 33
q-55 0 -94 -32.5zM342 95.5q39 31.5 58 82t19 108.5q0 33 -8 63l-252 -249q30 -36 88 -36q56 0 95 31.5z" />
    <glyph glyph-name="ugrave" unicode="&#xf9;" horiz-adv-x="559" 
d="M533 487l-98 -487h-86l11 57q-57 -69 -153 -69q-74 0 -111.5 39t-37.5 109q0 37 8 80l54 271h87l-54 -266q-6 -38 -6 -64q0 -47 24 -70t73 -23q56 0 93.5 34.5t50.5 100.5l58 288h87zM326 572l-75 154h84l67 -154h-76z" />
    <glyph glyph-name="uacute" unicode="&#xfa;" horiz-adv-x="559" 
d="M533 487l-98 -487h-86l11 57q-57 -69 -153 -69q-74 0 -111.5 39t-37.5 109q0 37 8 80l54 271h87l-54 -266q-6 -38 -6 -64q0 -47 24 -70t73 -23q56 0 93.5 34.5t50.5 100.5l58 288h87zM386 726h95l-127 -154h-87z" />
    <glyph glyph-name="ucircumflex" unicode="&#xfb;" horiz-adv-x="559" 
d="M533 487l-98 -487h-86l11 57q-57 -69 -153 -69q-74 0 -111.5 39t-37.5 109q0 37 8 80l54 271h87l-54 -266q-6 -38 -6 -64q0 -47 24 -70t73 -23q56 0 93.5 34.5t50.5 100.5l58 288h87zM313 727h104l72 -156h-79l-51 113l-96 -113h-85z" />
    <glyph glyph-name="udieresis" unicode="&#xfc;" horiz-adv-x="559" 
d="M533 487l-98 -487h-86l11 57q-57 -69 -153 -69q-74 0 -111.5 39t-37.5 109q0 37 8 80l54 271h87l-54 -266q-6 -38 -6 -64q0 -47 24 -70t73 -23q56 0 93.5 34.5t50.5 100.5l58 288h87zM214 601.5q-16 15.5 -16 38.5q0 24 16 40t40 16q23 0 39.5 -16t16.5 -40
q0 -23 -16.5 -38.5t-39.5 -15.5q-24 0 -40 15.5zM403.5 601.5q-15.5 15.5 -15.5 38.5q0 24 15.5 40t40.5 16q23 0 39.5 -16t16.5 -40q0 -23 -16.5 -38.5t-39.5 -15.5q-25 0 -40.5 15.5z" />
    <glyph glyph-name="yacute" unicode="&#xfd;" horiz-adv-x="510" 
d="M542 487l-422 -688h-95l124 202l-83 486h88l61 -388l228 388h99zM362 726h95l-127 -154h-87z" />
    <glyph glyph-name="thorn" unicode="&#xfe;" horiz-adv-x="574" 
d="M491.5 442q42.5 -57 42.5 -152q0 -79 -31.5 -148.5t-88.5 -111t-131 -41.5q-59 0 -98 24.5t-55 74.5l-57 -289h-86l181 907h86l-56 -280q32 36 72.5 54.5t87.5 18.5q91 0 133.5 -57zM362.5 95q39.5 31 60 82t20.5 110q0 62 -27 99t-86 37q-62 0 -105 -40t-57 -110
q-7 -31 -10 -51.5t-3 -34.5q0 -59 29.5 -91t84.5 -32q54 0 93.5 31z" />
    <glyph glyph-name="ydieresis" unicode="&#xff;" horiz-adv-x="510" 
d="M542 487l-422 -688h-95l124 202l-83 486h88l61 -388l228 388h99zM190 601.5q-16 15.5 -16 38.5q0 24 16 40t40 16q23 0 39.5 -16t16.5 -40q0 -23 -16.5 -38.5t-39.5 -15.5q-24 0 -40 15.5zM379.5 601.5q-15.5 15.5 -15.5 38.5q0 24 15.5 40t40.5 16q23 0 39.5 -16
t16.5 -40q0 -23 -16.5 -38.5t-39.5 -15.5q-25 0 -40.5 15.5z" />
    <glyph glyph-name="Amacron" unicode="&#x100;" horiz-adv-x="630" 
d="M458 177h-305l-94 -177h-99l378 706h139l96 -706h-92zM449 252l-50 386h-2l-204 -386h256zM292 873h293l-12 -63h-293z" />
    <glyph glyph-name="amacron" unicode="&#x101;" horiz-adv-x="540" 
d="M436.5 456.5q43.5 -42.5 43.5 -122.5q0 -32 -10 -82l-51 -252h-87l13 64q-65 -76 -175 -76q-75 0 -113 35.5t-38 96.5q0 88 66.5 127t178.5 39h125q6 30 6 51q0 47 -24 70.5t-79 23.5q-109 0 -125 -96h-90q14 77 70 120.5t147 43.5q99 0 142.5 -42.5zM318.5 98
q41.5 40 58.5 126h-109q-71 0 -113 -21t-42 -71q0 -74 91 -74q73 0 114.5 40zM208 670h283l-12 -61h-283z" />
    <glyph glyph-name="Abreve" unicode="&#x102;" horiz-adv-x="630" 
d="M458 177h-305l-94 -177h-99l378 706h139l96 -706h-92zM449 252l-50 386h-2l-204 -386h256zM294 876q0 9 2 29h62q-1 -6 -1 -16q0 -33 17 -48t53 -15q40 0 64 19t38 60h66q-17 -66 -61 -99.5t-114 -33.5q-126 0 -126 104z" />
    <glyph glyph-name="abreve" unicode="&#x103;" horiz-adv-x="540" 
d="M436.5 456.5q43.5 -42.5 43.5 -122.5q0 -32 -10 -82l-51 -252h-87l13 64q-65 -76 -175 -76q-75 0 -113 35.5t-38 96.5q0 88 66.5 127t178.5 39h125q6 30 6 51q0 47 -24 70.5t-79 23.5q-109 0 -125 -96h-90q14 77 70 120.5t147 43.5q99 0 142.5 -42.5zM318.5 98
q41.5 40 58.5 126h-109q-71 0 -113 -21t-42 -71q0 -74 91 -74q73 0 114.5 40zM236 599.5q-32 31.5 -32 94.5q0 15 3 33h65q-2 -13 -2 -35q0 -35 16 -52t52 -17q44 0 68.5 25t39.5 79h68q-19 -80 -61.5 -119.5t-116.5 -39.5q-68 0 -100 31.5z" />
    <glyph glyph-name="Aogonek" unicode="&#x104;" horiz-adv-x="630" 
d="M480.5 -145.5q12.5 -9.5 32.5 -9.5q19 0 40 7l-11 -58q-26 -6 -53 -6q-45 0 -71 21t-26 59q0 39 28.5 70.5t78.5 61.5h-18l-23 177h-305l-94 -177h-99l378 706h139l96 -706q-34 -24 -55 -40.5t-35.5 -36t-14.5 -40.5q0 -19 12.5 -28.5zM449 252l-50 386h-2l-204 -386h256
z" />
    <glyph glyph-name="aogonek" unicode="&#x105;" horiz-adv-x="541" 
d="M470 252l-51 -252h2q-34 -23 -55.5 -39.5t-36 -36.5t-14.5 -41q0 -19 12.5 -28.5t33.5 -9.5q17 0 40 7l-12 -58q-26 -6 -52 -6q-45 0 -71 21t-26 59q0 39 28.5 70.5t77.5 61.5h-14l13 64q-65 -76 -175 -76q-75 0 -113 35.5t-38 96.5q0 88 66.5 127t178.5 39h125
q6 30 6 51q0 47 -24 70.5t-79 23.5q-109 0 -125 -96h-90q14 77 70 120.5t147 43.5q99 0 142.5 -42.5t43.5 -122.5q0 -32 -10 -82zM318.5 98q41.5 40 58.5 126h-109q-71 0 -113 -21t-42 -71q0 -74 91 -74q73 0 114.5 40z" />
    <glyph glyph-name="Cacute" unicode="&#x106;" horiz-adv-x="700" 
d="M132.5 62.5q-64.5 78.5 -64.5 213.5q0 120 45 222t129 163t197 61q79 0 136.5 -30t88 -85.5t30.5 -129.5q0 -4 -2 -26h-92q1 9 1 20q0 53 -20.5 91t-58.5 58.5t-91 20.5q-84 0 -145 -51.5t-92 -135t-31 -177.5q0 -100 43 -156t133 -56q85 0 140.5 47t77.5 129h97
q-17 -80 -62 -138t-111.5 -88.5t-146.5 -30.5q-137 0 -201.5 78.5zM527 905h105l-141 -128h-97z" />
    <glyph glyph-name="cacute" unicode="&#x107;" horiz-adv-x="528" 
d="M126.5 16q-44.5 27 -65.5 74t-21 108q0 82 33.5 151t94.5 109.5t139 40.5q58 0 101 -20t66.5 -58t23.5 -91q0 -14 -1 -21h-91q1 5 1 13q0 48 -28 74.5t-77 26.5q-53 0 -91.5 -31.5t-59 -83.5t-20.5 -110q0 -62 27.5 -98t85.5 -36q34 0 62 14.5t46.5 39.5t25.5 57h95
q-12 -58 -45.5 -100t-82 -64t-107.5 -22q-67 0 -111.5 27zM385 726h95l-127 -154h-87z" />
    <glyph glyph-name="Ccircumflex" unicode="&#x108;" horiz-adv-x="700" 
d="M132.5 62.5q-64.5 78.5 -64.5 213.5q0 120 45 222t129 163t197 61q79 0 136.5 -30t88 -85.5t30.5 -129.5q0 -4 -2 -26h-92q1 9 1 20q0 53 -20.5 91t-58.5 58.5t-91 20.5q-84 0 -145 -51.5t-92 -135t-31 -177.5q0 -100 43 -156t133 -56q85 0 140.5 47t77.5 129h97
q-17 -80 -62 -138t-111.5 -88.5t-146.5 -30.5q-137 0 -201.5 78.5zM443 905h106l92 -128h-83l-65 86l-98 -86h-95z" />
    <glyph glyph-name="ccircumflex" unicode="&#x109;" horiz-adv-x="528" 
d="M126.5 16q-44.5 27 -65.5 74t-21 108q0 82 33.5 151t94.5 109.5t139 40.5q58 0 101 -20t66.5 -58t23.5 -91q0 -14 -1 -21h-91q1 5 1 13q0 48 -28 74.5t-77 26.5q-53 0 -91.5 -31.5t-59 -83.5t-20.5 -110q0 -62 27.5 -98t85.5 -36q34 0 62 14.5t46.5 39.5t25.5 57h95
q-12 -58 -45.5 -100t-82 -64t-107.5 -22q-67 0 -111.5 27zM312 727h104l72 -156h-79l-51 113l-96 -113h-85z" />
    <glyph glyph-name="Cdotaccent" unicode="&#x10a;" horiz-adv-x="700" 
d="M132.5 62.5q-64.5 78.5 -64.5 213.5q0 120 45 222t129 163t197 61q79 0 136.5 -30t88 -85.5t30.5 -129.5q0 -4 -2 -26h-92q1 9 1 20q0 53 -20.5 91t-58.5 58.5t-91 20.5q-84 0 -145 -51.5t-92 -135t-31 -177.5q0 -100 43 -156t133 -56q85 0 140.5 47t77.5 129h97
q-17 -80 -62 -138t-111.5 -88.5t-146.5 -30.5q-137 0 -201.5 78.5zM444.5 806.5q-15.5 14.5 -15.5 37.5t15.5 38t39.5 15q23 0 39 -15t16 -38q0 -22 -16 -37t-39 -15q-24 0 -39.5 14.5z" />
    <glyph glyph-name="cdotaccent" unicode="&#x10b;" horiz-adv-x="528" 
d="M126.5 16q-44.5 27 -65.5 74t-21 108q0 82 33.5 151t94.5 109.5t139 40.5q58 0 101 -20t66.5 -58t23.5 -91q0 -14 -1 -21h-91q1 5 1 13q0 48 -28 74.5t-77 26.5q-53 0 -91.5 -31.5t-59 -83.5t-20.5 -110q0 -62 27.5 -98t85.5 -36q34 0 62 14.5t46.5 39.5t25.5 57h95
q-12 -58 -45.5 -100t-82 -64t-107.5 -22q-67 0 -111.5 27zM306 610.5q-16 15.5 -16 39.5q0 25 16 41t41 16q24 0 41 -16.5t17 -40.5t-17 -39.5t-41 -15.5q-25 0 -41 15.5z" />
    <glyph glyph-name="Ccaron" unicode="&#x10c;" horiz-adv-x="700" 
d="M132.5 62.5q-64.5 78.5 -64.5 213.5q0 120 45 222t129 163t197 61q79 0 136.5 -30t88 -85.5t30.5 -129.5q0 -4 -2 -26h-92q1 9 1 20q0 53 -20.5 91t-58.5 58.5t-91 20.5q-84 0 -145 -51.5t-92 -135t-31 -177.5q0 -100 43 -156t133 -56q85 0 140.5 47t77.5 129h97
q-17 -80 -62 -138t-111.5 -88.5t-146.5 -30.5q-137 0 -201.5 78.5zM523 777h-106l-92 128h84l64 -85l99 85h95z" />
    <glyph glyph-name="ccaron" unicode="&#x10d;" horiz-adv-x="528" 
d="M126.5 16q-44.5 27 -65.5 74t-21 108q0 82 33.5 151t94.5 109.5t139 40.5q58 0 101 -20t66.5 -58t23.5 -91q0 -14 -1 -21h-91q1 5 1 13q0 48 -28 74.5t-77 26.5q-53 0 -91.5 -31.5t-59 -83.5t-20.5 -110q0 -62 27.5 -98t85.5 -36q34 0 62 14.5t46.5 39.5t25.5 57h95
q-12 -58 -45.5 -100t-82 -64t-107.5 -22q-67 0 -111.5 27zM387 571h-104l-71 155h78l51 -113l97 113h84z" />
    <glyph glyph-name="Dcaron" unicode="&#x10e;" horiz-adv-x="690" 
d="M183 706h181q158 0 229 -76t71 -211q0 -121 -46 -216t-133 -149t-205 -54h-238zM270 78q97 0 164 43.5t100.5 120t33.5 174.5q0 102 -48.5 157t-159.5 55h-100l-110 -550h120zM489 777h-106l-92 128h84l64 -85l99 85h95z" />
    <glyph glyph-name="dcaron" unicode="&#x10f;" horiz-adv-x="631" 
d="M590 706l-141 -706h-85l13 63q-32 -37 -73 -56t-89 -19q-90 0 -133 57t-43 151q0 80 31.5 149t89 111t131.5 42q59 0 97.5 -24.5t54.5 -73.5l61 306h86zM349.5 103.5q43.5 39.5 56.5 109.5q6 31 9 52t3 35q0 59 -29 90.5t-84 31.5q-54 0 -93.5 -31t-60.5 -81.5
t-21 -109.5q0 -62 27 -99t87 -37q62 0 105.5 39.5zM667 706h76l-70 -167h-68z" />
    <glyph glyph-name="Dcroat" unicode="&#x110;" horiz-adv-x="690" 
d="M593 630q71 -76 71 -211q0 -121 -46 -216t-133 -149t-205 -54h-238l65 326h-58l13 67h58l63 313h181q158 0 229 -76zM434 121.5q67 43.5 100.5 120t33.5 174.5q0 102 -48.5 157t-159.5 55h-100l-47 -235h170l-13 -67h-170l-50 -248h120q97 0 164 43.5z" />
    <glyph glyph-name="dcroat" unicode="&#x111;" horiz-adv-x="574" 
d="M626 576h-62l-115 -576h-85l13 63q-32 -37 -73 -56t-89 -19q-90 0 -133 57t-43 151q0 80 31.5 149t89 111t131.5 42q59 0 97.5 -24.5t54.5 -73.5l35 176h-165l12 58h165l14 72h86l-14 -72h62zM349.5 103.5q43.5 39.5 56.5 109.5q6 31 9 52t3 35q0 59 -29 90.5t-84 31.5
q-54 0 -93.5 -31t-60.5 -81.5t-21 -109.5q0 -62 27 -99t87 -37q62 0 105.5 39.5z" />
    <glyph glyph-name="Emacron" unicode="&#x112;" horiz-adv-x="544" 
d="M183 706h402l-15 -78h-310l-46 -229h307l-16 -78h-307l-48 -243h310l-16 -78h-402zM264 873h293l-12 -63h-293z" />
    <glyph glyph-name="emacron" unicode="&#x113;" horiz-adv-x="547" 
d="M129 226q-1 -10 -1 -31q0 -135 126 -135q52 0 88 23.5t53 68.5h92q-17 -52 -51.5 -88.5t-82 -55.5t-102.5 -19q-107 0 -159 56t-52 151q0 84 33 153t94 109.5t141 40.5q61 0 106 -24t69.5 -70t24.5 -112q0 -36 -6 -67h-373zM200.5 391.5q-41.5 -37.5 -59.5 -100.5h281v6
q0 63 -29 97.5t-89 34.5q-62 0 -103.5 -37.5zM204 670h283l-12 -61h-283z" />
    <glyph glyph-name="Ebreve" unicode="&#x114;" horiz-adv-x="544" 
d="M183 706h402l-15 -78h-310l-46 -229h307l-16 -78h-307l-48 -243h310l-16 -78h-402zM265 876q0 9 2 29h62q-1 -6 -1 -16q0 -33 17 -48t53 -15q40 0 64 19t38 60h66q-17 -66 -61 -99.5t-114 -33.5q-126 0 -126 104z" />
    <glyph glyph-name="ebreve" unicode="&#x115;" horiz-adv-x="547" 
d="M129 226q-1 -10 -1 -31q0 -135 126 -135q52 0 88 23.5t53 68.5h92q-17 -52 -51.5 -88.5t-82 -55.5t-102.5 -19q-107 0 -159 56t-52 151q0 84 33 153t94 109.5t141 40.5q61 0 106 -24t69.5 -70t24.5 -112q0 -36 -6 -67h-373zM200.5 391.5q-41.5 -37.5 -59.5 -100.5h281v6
q0 63 -29 97.5t-89 34.5q-62 0 -103.5 -37.5zM232 599.5q-32 31.5 -32 94.5q0 15 3 33h65q-2 -13 -2 -35q0 -35 16 -52t52 -17q44 0 68.5 25t39.5 79h68q-19 -80 -61.5 -119.5t-116.5 -39.5q-68 0 -100 31.5z" />
    <glyph glyph-name="Edotaccent" unicode="&#x116;" horiz-adv-x="544" 
d="M183 706h402l-15 -78h-310l-46 -229h307l-16 -78h-307l-48 -243h310l-16 -78h-402zM364.5 806.5q-15.5 14.5 -15.5 37.5t15.5 38t39.5 15q23 0 39 -15t16 -38q0 -22 -16 -37t-39 -15q-24 0 -39.5 14.5z" />
    <glyph glyph-name="edotaccent" unicode="&#x117;" horiz-adv-x="547" 
d="M129 226q-1 -10 -1 -31q0 -135 126 -135q52 0 88 23.5t53 68.5h92q-17 -52 -51.5 -88.5t-82 -55.5t-102.5 -19q-107 0 -159 56t-52 151q0 84 33 153t94 109.5t141 40.5q61 0 106 -24t69.5 -70t24.5 -112q0 -36 -6 -67h-373zM200.5 391.5q-41.5 -37.5 -59.5 -100.5h281v6
q0 63 -29 97.5t-89 34.5q-62 0 -103.5 -37.5zM299 610.5q-16 15.5 -16 39.5q0 25 16 41t41 16q24 0 41 -16.5t17 -40.5t-17 -39.5t-41 -15.5q-25 0 -41 15.5z" />
    <glyph glyph-name="Eogonek" unicode="&#x118;" horiz-adv-x="544" 
d="M260 628l-46 -229h307l-16 -78h-307l-48 -243h310l-16 -78q-35 -24 -56 -40.5t-35.5 -36t-14.5 -40.5q0 -19 12.5 -28.5t33.5 -9.5q19 0 40 7l-11 -58q-27 -6 -53 -6q-45 0 -71 21t-26 59q0 39 28.5 70.5t78.5 61.5h-328l141 706h402l-15 -78h-310z" />
    <glyph glyph-name="eogonek" unicode="&#x119;" horiz-adv-x="547" 
d="M129 226q-1 -10 -1 -31q0 -64 30.5 -99.5t95.5 -35.5q52 0 88 23.5t53 68.5h92q-31 -91 -120 -150q-33 -23 -54.5 -40.5t-36.5 -37.5t-15 -41q0 -18 12.5 -27.5t33.5 -9.5q22 0 40 6l-12 -58q-24 -6 -52 -6q-45 0 -71 21t-26 58q0 36 24 66t66 57q-8 -1 -25 -1
q-71 0 -118.5 26t-70 72.5t-22.5 108.5q0 84 32.5 153t93.5 109.5t142 40.5q60 0 105 -24t70 -70.5t25 -111.5q0 -36 -6 -67h-373zM200.5 391.5q-41.5 -37.5 -59.5 -100.5h281v6q0 63 -29 97.5t-89 34.5q-62 0 -103.5 -37.5z" />
    <glyph glyph-name="Ecaron" unicode="&#x11a;" horiz-adv-x="544" 
d="M183 706h402l-15 -78h-310l-46 -229h307l-16 -78h-307l-48 -243h310l-16 -78h-402zM443 777h-106l-92 128h84l64 -85l99 85h95z" />
    <glyph glyph-name="ecaron" unicode="&#x11b;" horiz-adv-x="547" 
d="M129 226q-1 -10 -1 -31q0 -135 126 -135q52 0 88 23.5t53 68.5h92q-17 -52 -51.5 -88.5t-82 -55.5t-102.5 -19q-107 0 -159 56t-52 151q0 84 33 153t94 109.5t141 40.5q61 0 106 -24t69.5 -70t24.5 -112q0 -36 -6 -67h-373zM200.5 391.5q-41.5 -37.5 -59.5 -100.5h281v6
q0 63 -29 97.5t-89 34.5q-62 0 -103.5 -37.5zM380 571h-104l-71 155h78l51 -113l97 113h84z" />
    <glyph glyph-name="Gcircumflex" unicode="&#x11c;" horiz-adv-x="707" 
d="M287 590q-62 -51 -93 -136.5t-31 -188.5q0 -92 43.5 -146t129.5 -54q104 0 161 60.5t77 161.5v2h-184l16 80h275l-15 -78q-17 -88 -58 -157t-110 -109.5t-165 -40.5q-90 0 -149.5 37t-88 102.5t-28.5 150.5q0 124 45.5 226t131 162t200.5 60q125 0 187.5 -65t61.5 -187
h-90q-2 171 -164 171q-90 0 -152 -51zM434 905h106l92 -128h-83l-65 86l-98 -86h-95z" />
    <glyph glyph-name="gcircumflex" unicode="&#x11d;" horiz-adv-x="573" 
d="M546 487l-100 -499q-18 -95 -78 -148t-168 -53q-92 0 -144.5 35.5t-52.5 103.5q0 8 2 24h88l-1 -12q0 -40 30 -60.5t82 -20.5q129 0 157 143l12 62q-31 -35 -71 -52.5t-86 -17.5q-90 0 -133 55.5t-43 144.5q0 83 31 153t88 111.5t131 41.5q59 0 98.5 -25.5t54.5 -75.5
l18 90h85zM349.5 107q43.5 39 56.5 108q7 34 9.5 52t2.5 33q0 59 -29.5 90.5t-84.5 31.5q-54 0 -93.5 -30t-60 -80t-20.5 -108q0 -62 27.5 -99t86.5 -37q62 0 105.5 39zM315 727h104l72 -156h-79l-51 113l-96 -113h-85z" />
    <glyph glyph-name="Gbreve" unicode="&#x11e;" horiz-adv-x="707" 
d="M287 590q-62 -51 -93 -136.5t-31 -188.5q0 -92 43.5 -146t129.5 -54q104 0 161 60.5t77 161.5v2h-184l16 80h275l-15 -78q-17 -88 -58 -157t-110 -109.5t-165 -40.5q-90 0 -149.5 37t-88 102.5t-28.5 150.5q0 124 45.5 226t131 162t200.5 60q125 0 187.5 -65t61.5 -187
h-90q-2 171 -164 171q-90 0 -152 -51zM336 876q0 9 2 29h62q-1 -6 -1 -16q0 -33 17 -48t53 -15q40 0 64 19t38 60h66q-17 -66 -61 -99.5t-114 -33.5q-126 0 -126 104z" />
    <glyph glyph-name="gbreve" unicode="&#x11f;" horiz-adv-x="573" 
d="M546 487l-100 -499q-18 -95 -78 -148t-168 -53q-92 0 -144.5 35.5t-52.5 103.5q0 8 2 24h88l-1 -12q0 -40 30 -60.5t82 -20.5q129 0 157 143l12 62q-31 -35 -71 -52.5t-86 -17.5q-90 0 -133 55.5t-43 144.5q0 83 31 153t88 111.5t131 41.5q59 0 98.5 -25.5t54.5 -75.5
l18 90h85zM349.5 107q43.5 39 56.5 108q7 34 9.5 52t2.5 33q0 59 -29.5 90.5t-84.5 31.5q-54 0 -93.5 -30t-60 -80t-20.5 -108q0 -62 27.5 -99t86.5 -37q62 0 105.5 39zM242 599.5q-32 31.5 -32 94.5q0 15 3 33h65q-2 -13 -2 -35q0 -35 16 -52t52 -17q44 0 68.5 25t39.5 79
h68q-19 -80 -61.5 -119.5t-116.5 -39.5q-68 0 -100 31.5z" />
    <glyph glyph-name="Gdotaccent" unicode="&#x120;" horiz-adv-x="707" 
d="M287 590q-62 -51 -93 -136.5t-31 -188.5q0 -92 43.5 -146t129.5 -54q104 0 161 60.5t77 161.5v2h-184l16 80h275l-15 -78q-17 -88 -58 -157t-110 -109.5t-165 -40.5q-90 0 -149.5 37t-88 102.5t-28.5 150.5q0 124 45.5 226t131 162t200.5 60q125 0 187.5 -65t61.5 -187
h-90q-2 171 -164 171q-90 0 -152 -51zM434.5 806.5q-15.5 14.5 -15.5 37.5t15.5 38t39.5 15q23 0 39 -15t16 -38q0 -22 -16 -37t-39 -15q-24 0 -39.5 14.5z" />
    <glyph glyph-name="gdotaccent" unicode="&#x121;" horiz-adv-x="573" 
d="M546 487l-100 -499q-18 -95 -78 -148t-168 -53q-92 0 -144.5 35.5t-52.5 103.5q0 8 2 24h88l-1 -12q0 -40 30 -60.5t82 -20.5q129 0 157 143l12 62q-31 -35 -71 -52.5t-86 -17.5q-90 0 -133 55.5t-43 144.5q0 83 31 153t88 111.5t131 41.5q59 0 98.5 -25.5t54.5 -75.5
l18 90h85zM349.5 107q43.5 39 56.5 108q7 34 9.5 52t2.5 33q0 59 -29.5 90.5t-84.5 31.5q-54 0 -93.5 -30t-60 -80t-20.5 -108q0 -62 27.5 -99t86.5 -37q62 0 105.5 39zM309 610.5q-16 15.5 -16 39.5q0 25 16 41t41 16q24 0 41 -16.5t17 -40.5t-17 -39.5t-41 -15.5
q-25 0 -41 15.5z" />
    <glyph glyph-name="Gcommaaccent" unicode="&#x122;" horiz-adv-x="707" 
d="M287 590q-62 -51 -93 -136.5t-31 -188.5q0 -92 43.5 -146t129.5 -54q104 0 161 60.5t77 161.5v2h-184l16 80h275l-15 -78q-17 -88 -58 -157t-110 -109.5t-165 -40.5q-90 0 -149.5 37t-88 102.5t-28.5 150.5q0 124 45.5 226t131 162t200.5 60q125 0 187.5 -65t61.5 -187
h-90q-2 171 -164 171q-90 0 -152 -51zM262 -53h89l-70 -148h-81z" />
    <glyph glyph-name="gcommaaccent" unicode="&#x123;" horiz-adv-x="573" 
d="M546 487l-100 -499q-18 -95 -78 -148t-168 -53q-92 0 -144.5 35.5t-52.5 103.5q0 8 2 24h88l-1 -12q0 -40 30 -60.5t82 -20.5q129 0 157 143l12 62q-31 -35 -71 -52.5t-86 -17.5q-90 0 -133 55.5t-43 144.5q0 83 31 153t88 111.5t131 41.5q59 0 98.5 -25.5t54.5 -75.5
l18 90h85zM349.5 107q43.5 39 56.5 108q7 34 9.5 52t2.5 33q0 59 -29.5 90.5t-84.5 31.5q-54 0 -93.5 -30t-60 -80t-20.5 -108q0 -62 27.5 -99t86.5 -37q62 0 105.5 39zM361 572h-89l71 147h80z" />
    <glyph glyph-name="Hcircumflex" unicode="&#x124;" horiz-adv-x="687" 
d="M183 706h92l-61 -306h322l61 306h92l-141 -706h-92l64 320h-322l-64 -320h-92zM416 905h106l92 -128h-83l-65 86l-98 -86h-95z" />
    <glyph glyph-name="hcircumflex" unicode="&#x125;" horiz-adv-x="559" 
d="M463 459.5q38 -39.5 38 -116.5q0 -37 -8 -72l-54 -271h-86l53 267q7 31 7 60q0 49 -23.5 72.5t-71.5 23.5q-59 0 -96.5 -34t-50.5 -101l-58 -288h-86l141 706h86l-55 -277q58 70 152 70q74 0 112 -39.5zM361 905h106l92 -128h-83l-65 86l-98 -86h-95z" />
    <glyph glyph-name="Hbar" unicode="&#x126;" horiz-adv-x="687" 
d="M689 706l-141 -706h-92l64 320h-322l-64 -320h-92l141 706h92l-24 -118h322l24 118h92zM562 528h-322l-26 -128h322z" />
    <glyph glyph-name="hbar" unicode="&#x127;" horiz-adv-x="559" 
d="M463 459.5q38 -39.5 38 -116.5q0 -37 -8 -72l-54 -271h-86l53 267q7 31 7 60q0 49 -23.5 72.5t-71.5 23.5q-59 0 -96.5 -34t-50.5 -101l-58 -288h-86l115 576h-55l12 58h55l14 72h86l-14 -72h172l-12 -58h-172l-29 -147q58 70 152 70q74 0 112 -39.5z" />
    <glyph glyph-name="Itilde" unicode="&#x128;" horiz-adv-x="273" 
d="M183 706h92l-141 -706h-92zM269 784.5q-14 10.5 -25 28.5q-11 19 -19.5 27.5t-22.5 8.5q-19 0 -30.5 -17.5t-20.5 -54.5h-53q15 67 40.5 98.5t68.5 31.5q23 0 37 -10t25 -30q10 -19 17.5 -26.5t20.5 -7.5q20 0 31 17t22 55h54q-16 -69 -41 -100t-67 -31q-23 0 -37 10.5z
" />
    <glyph glyph-name="itilde" unicode="&#x129;" horiz-adv-x="237" 
d="M124 487h87l-98 -487h-86zM202 582q-13 13 -19 39q-1 4 -5 18.5t-10 21.5t-14 7q-16 0 -26 -22.5t-21 -73.5h-55q13 57 26.5 90.5t32 50t46.5 16.5q26 0 38.5 -14t19.5 -43q6 -22 11.5 -31.5t17.5 -9.5q16 0 26.5 22.5t20.5 73.5h55q-13 -58 -26 -91.5t-32 -50t-47 -16.5
q-26 0 -39 13z" />
    <glyph glyph-name="Imacron" unicode="&#x12a;" horiz-adv-x="273" 
d="M183 706h92l-141 -706h-92zM147 872h228l-12 -62h-229z" />
    <glyph glyph-name="imacron" unicode="&#x12b;" horiz-adv-x="237" 
d="M124 487h87l-98 -487h-86zM97 670h214l-12 -61h-214z" />
    <glyph glyph-name="Ibreve" unicode="&#x12c;" horiz-adv-x="273" 
d="M183 706h92l-141 -706h-92zM140 866q0 11 4 39h63q-3 -16 -3 -30q0 -25 11.5 -36.5t37.5 -11.5q32 0 49 18.5t27 59.5h66q-13 -66 -48.5 -99.5t-97.5 -33.5q-109 0 -109 94z" />
    <glyph glyph-name="ibreve" unicode="&#x12d;" horiz-adv-x="237" 
d="M124 487h87l-98 -487h-86zM110 593.5q-25 25.5 -25 77.5q0 25 6 56h60q-6 -31 -6 -52q0 -28 10.5 -40.5t33.5 -12.5q34 0 53 24.5t30 80.5h63q-17 -81 -52.5 -120t-96.5 -39q-51 0 -76 25.5z" />
    <glyph glyph-name="Iogonek" unicode="&#x12e;" horiz-adv-x="273" 
d="M134 0q-39 -39 -61.5 -69t-22.5 -55q0 -16 9.5 -23.5t24.5 -7.5q16 0 35 7l-12 -57q-22 -7 -49 -7q-39 0 -61 18.5t-22 51.5q0 66 91 142h-24l141 706h92z" />
    <glyph glyph-name="iogonek" unicode="&#x12f;" horiz-adv-x="237" 
d="M241.5 690q16.5 -16 16.5 -41q0 -24 -16.5 -40t-40.5 -16q-25 0 -41 16t-16 40q0 25 16 41t41 16q24 0 40.5 -16zM124 487h87l-98 -487q-39 -39 -61.5 -69t-22.5 -55q0 -16 9.5 -23.5t24.5 -7.5q16 0 35 7l-12 -57q-22 -7 -49 -7q-39 0 -61 18.5t-22 51.5q0 66 91 142
h-18z" />
    <glyph glyph-name="Idotaccent" unicode="&#x130;" horiz-adv-x="273" 
d="M183 706h92l-141 -706h-92zM216.5 806.5q-15.5 14.5 -15.5 37.5t15.5 38t39.5 15q23 0 39 -15t16 -38q0 -22 -16 -37t-39 -15q-24 0 -39.5 14.5z" />
    <glyph glyph-name="dotlessi" unicode="&#x131;" horiz-adv-x="237" 
d="M124 487h87l-98 -487h-86z" />
    <glyph glyph-name="IJ" unicode="&#x132;" horiz-adv-x="629" 
d="M183 706h92l-141 -706h-92zM243 2l17 85q23 -5 47 -5q46 0 75.5 14t48 44.5t28.5 82.5l97 483h93l-102 -510q-20 -103 -77 -151t-160 -48q-38 0 -67 5z" />
    <glyph glyph-name="ij" unicode="&#x133;" horiz-adv-x="475" 
d="M160 609q-16 16 -16 40q0 25 16 41t41 16q24 0 40.5 -16t16.5 -41q0 -24 -16.5 -40t-40.5 -16q-25 0 -41 16zM124 487h87l-98 -487h-86zM396 609q-16 16 -16 40q0 25 16 41t41 16q24 0 41 -16.5t17 -40.5t-17 -40t-41 -16q-25 0 -41 16zM128 -200l15 76q12 -2 29 -2
q36 0 55 17t26 56l108 540h87l-113 -564q-13 -67 -50 -97t-104 -30q-29 0 -53 4z" />
    <glyph glyph-name="Jcircumflex" unicode="&#x134;" horiz-adv-x="355" 
d="M-30 2l17 85q23 -5 47 -5q46 0 75.5 14t48 44.5t28.5 82.5l97 483h93l-102 -510q-20 -103 -77 -151t-160 -48q-38 0 -67 5zM314 905h99l60 -128h-75l-38 85l-72 -85h-82z" />
    <glyph glyph-name="jcircumflex" unicode="&#x135;" horiz-adv-x="237" 
d="M-109 -200l15 76q12 -2 29 -2q36 0 55 17t26 56l108 540h87l-113 -564q-13 -67 -50 -97t-104 -30q-29 0 -53 4zM167 727h90l54 -156h-68l-37 109l-83 -109h-73z" />
    <glyph glyph-name="Kcommaaccent" unicode="&#x136;" horiz-adv-x="599" 
d="M292 374l247 -374h-107l-228 350l-70 -350h-92l141 706h92l-59 -294l305 294h117zM233 -53h89l-70 -148h-81z" />
    <glyph glyph-name="kcommaaccent" unicode="&#x137;" horiz-adv-x="474" 
d="M245 260l185 -260h-103l-167 237l-47 -237h-86l141 706h86l-82 -411l208 192h120zM170 -53h89l-70 -148h-81z" />
    <glyph glyph-name="kgreenlandic" unicode="&#x138;" horiz-adv-x="474" 
d="M245 259l185 -259h-103l-166 237l-48 -237h-86l97 487h87l-39 -192l212 192h119z" />
    <glyph glyph-name="Lacute" unicode="&#x139;" horiz-adv-x="473" 
d="M183 706h92l-125 -624h272l-16 -82h-364zM327 905h105l-141 -128h-97z" />
    <glyph glyph-name="lacute" unicode="&#x13a;" horiz-adv-x="237" 
d="M168 706h86l-141 -706h-86zM281 905h105l-141 -128h-97z" />
    <glyph glyph-name="Lcommaaccent" unicode="&#x13b;" horiz-adv-x="473" 
d="M183 706h92l-125 -624h272l-16 -82h-364zM192 -53h89l-70 -148h-81z" />
    <glyph glyph-name="lcommaaccent" unicode="&#x13c;" horiz-adv-x="237" 
d="M168 706h86l-141 -706h-86zM16 -53h89l-70 -148h-81z" />
    <glyph glyph-name="Lcaron" unicode="&#x13d;" horiz-adv-x="473" 
d="M183 706h92l-125 -624h272l-16 -82h-364zM389 706h76l-70 -167h-68z" />
    <glyph glyph-name="lcaron" unicode="&#x13e;" horiz-adv-x="282" 
d="M168 706h86l-141 -706h-86zM324 706h76l-70 -167h-68z" />
    <glyph glyph-name="Ldot" unicode="&#x13f;" horiz-adv-x="524" 
d="M183 706h92l-125 -624h272l-16 -82h-364zM383 350q-17 17 -17 43q0 28 17 45t45 17q27 0 44.5 -17.5t17.5 -44.5q0 -26 -18 -43t-44 -17q-28 0 -45 17z" />
    <glyph glyph-name="ldot" unicode="&#x140;" horiz-adv-x="370" 
d="M168 706h86l-141 -706h-86zM276 290q-17 17 -17 43q0 28 17 45t45 17q27 0 44.5 -17.5t17.5 -44.5q0 -26 -18 -43t-44 -17q-28 0 -45 17z" />
    <glyph glyph-name="Lslash" unicode="&#x141;" horiz-adv-x="473" 
d="M422 82l-16 -82h-364l62 312l-70 -41l16 78l70 41l63 316h92l-53 -267l158 94l-16 -79l-158 -93l-56 -279h272z" />
    <glyph glyph-name="lslash" unicode="&#x142;" horiz-adv-x="253" 
d="M280 422l-86 -54l-73 -368h-86l65 323l-84 -50l16 78l83 51l61 304h86l-52 -258l85 52z" />
    <glyph glyph-name="Nacute" unicode="&#x143;" horiz-adv-x="712" 
d="M183 706h95l232 -573l115 573h89l-141 -706h-96l-231 573l-115 -573h-89zM516 905h105l-141 -128h-97z" />
    <glyph glyph-name="nacute" unicode="&#x144;" horiz-adv-x="559" 
d="M463.5 460q37.5 -39 37.5 -109q0 -44 -8 -80l-54 -271h-86l53 266q7 33 7 63q0 48 -24 71t-74 23q-56 0 -93.5 -34.5t-50.5 -100.5l-58 -288h-86l97 487h87l-12 -57q59 69 153 69q74 0 111.5 -39zM408 726h95l-127 -154h-87z" />
    <glyph glyph-name="Ncommaaccent" unicode="&#x145;" horiz-adv-x="712" 
d="M183 706h95l232 -573l115 573h89l-141 -706h-96l-231 573l-115 -573h-89zM270 -53h89l-70 -148h-81z" />
    <glyph glyph-name="ncommaaccent" unicode="&#x146;" horiz-adv-x="559" 
d="M463.5 460q37.5 -39 37.5 -109q0 -44 -8 -80l-54 -271h-86l53 266q7 33 7 63q0 48 -24 71t-74 23q-56 0 -93.5 -34.5t-50.5 -100.5l-58 -288h-86l97 487h87l-12 -57q59 69 153 69q74 0 111.5 -39zM187 -53h89l-70 -148h-81z" />
    <glyph glyph-name="Ncaron" unicode="&#x147;" horiz-adv-x="712" 
d="M183 706h95l232 -573l115 573h89l-141 -706h-96l-231 573l-115 -573h-89zM512 777h-106l-92 128h84l64 -85l99 85h95z" />
    <glyph glyph-name="ncaron" unicode="&#x148;" horiz-adv-x="559" 
d="M463.5 460q37.5 -39 37.5 -109q0 -44 -8 -80l-54 -271h-86l53 266q7 33 7 63q0 48 -24 71t-74 23q-56 0 -93.5 -34.5t-50.5 -100.5l-58 -288h-86l97 487h87l-12 -57q59 69 153 69q74 0 111.5 -39zM410 571h-104l-71 155h78l51 -113l97 113h84z" />
    <glyph glyph-name="napostrophe" unicode="&#x149;" horiz-adv-x="705" 
d="M199 706h95l-142 -281h-73zM609.5 460q37.5 -39 37.5 -109q0 -44 -8 -80l-54 -271h-86l53 266q7 33 7 63q0 48 -24 71t-74 23q-56 0 -93.5 -34.5t-50.5 -100.5l-58 -288h-86l97 487h87l-12 -57q59 69 153 69q74 0 111.5 -39z" />
    <glyph glyph-name="Eng" unicode="&#x14a;" horiz-adv-x="712" 
d="M714 706l-155 -776q-14 -71 -51.5 -102.5t-106.5 -31.5q-29 0 -53 4l15 74q11 -2 28 -2q36 0 55.5 17t26.5 57l11 58l-238 569l-115 -573h-89l141 706h95l235 -559l112 559h89z" />
    <glyph glyph-name="eng" unicode="&#x14b;" horiz-adv-x="559" 
d="M463.5 459.5q37.5 -39.5 37.5 -116.5q0 -37 -8 -72l-69 -348q-13 -67 -50 -97t-104 -30q-29 0 -53 4l15 76q13 -2 32 -2q34 0 52 15.5t25 52.5l65 325q7 31 7 58q0 51 -24 74.5t-74 23.5q-56 0 -93.5 -34.5t-50.5 -100.5l-58 -288h-86l97 487h87l-12 -57q59 69 152 69
q75 0 112.5 -39.5z" />
    <glyph glyph-name="Omacron" unicode="&#x14c;" horiz-adv-x="726" 
d="M133 61.5q-65 77.5 -65 208.5q0 122 43.5 225.5t126.5 165t195 61.5q93 0 153 -36.5t88 -100.5t28 -148q0 -123 -43.5 -226.5t-126.5 -165t-196 -61.5q-138 0 -203 77.5zM485 117.5q60 52.5 91 138t31 182.5q0 93 -43.5 148t-137.5 55q-82 0 -142 -52.5t-91 -137.5
t-31 -182q0 -93 44 -148.5t137 -55.5q82 0 142 52.5zM338 873h293l-12 -63h-293z" />
    <glyph glyph-name="omacron" unicode="&#x14d;" horiz-adv-x="549" 
d="M127 16q-45 28 -66 75.5t-21 107.5q0 83 33 151.5t94 108.5t140 40q70 0 115 -28.5t66 -76.5t21 -108q0 -83 -32.5 -151t-93 -107.5t-142.5 -39.5q-69 0 -114 28zM342 95.5q39 31.5 58 82t19 108.5q0 64 -28 100.5t-89 36.5q-55 0 -94 -32.5t-58.5 -83.5t-19.5 -106
q0 -64 28.5 -100.5t88.5 -36.5q56 0 95 31.5zM218 670h283l-12 -61h-283z" />
    <glyph glyph-name="Obreve" unicode="&#x14e;" horiz-adv-x="726" 
d="M133 61.5q-65 77.5 -65 208.5q0 122 43.5 225.5t126.5 165t195 61.5q93 0 153 -36.5t88 -100.5t28 -148q0 -123 -43.5 -226.5t-126.5 -165t-196 -61.5q-138 0 -203 77.5zM485 117.5q60 52.5 91 138t31 182.5q0 93 -43.5 148t-137.5 55q-82 0 -142 -52.5t-91 -137.5
t-31 -182q0 -93 44 -148.5t137 -55.5q82 0 142 52.5zM340 876q0 9 2 29h62q-1 -6 -1 -16q0 -33 17 -48t53 -15q40 0 64 19t38 60h66q-17 -66 -61 -99.5t-114 -33.5q-126 0 -126 104z" />
    <glyph glyph-name="obreve" unicode="&#x14f;" horiz-adv-x="549" 
d="M127 16q-45 28 -66 75.5t-21 107.5q0 83 33 151.5t94 108.5t140 40q70 0 115 -28.5t66 -76.5t21 -108q0 -83 -32.5 -151t-93 -107.5t-142.5 -39.5q-69 0 -114 28zM342 95.5q39 31.5 58 82t19 108.5q0 64 -28 100.5t-89 36.5q-55 0 -94 -32.5t-58.5 -83.5t-19.5 -106
q0 -64 28.5 -100.5t88.5 -36.5q56 0 95 31.5zM246 599.5q-32 31.5 -32 94.5q0 15 3 33h65q-2 -13 -2 -35q0 -35 16 -52t52 -17q44 0 68.5 25t39.5 79h68q-19 -80 -61.5 -119.5t-116.5 -39.5q-68 0 -100 31.5z" />
    <glyph glyph-name="Ohungarumlaut" unicode="&#x150;" horiz-adv-x="726" 
d="M133 61.5q-65 77.5 -65 208.5q0 122 43.5 225.5t126.5 165t195 61.5q93 0 153 -36.5t88 -100.5t28 -148q0 -123 -43.5 -226.5t-126.5 -165t-196 -61.5q-138 0 -203 77.5zM485 117.5q60 52.5 91 138t31 182.5q0 93 -43.5 148t-137.5 55q-82 0 -142 -52.5t-91 -137.5
t-31 -182q0 -93 44 -148.5t137 -55.5q82 0 142 52.5zM471 905h90l-141 -127h-77zM620 905h89l-140 -127h-77z" />
    <glyph glyph-name="ohungarumlaut" unicode="&#x151;" horiz-adv-x="549" 
d="M127 16q-45 28 -66 75.5t-21 107.5q0 83 33 151.5t94 108.5t140 40q70 0 115 -28.5t66 -76.5t21 -108q0 -83 -32.5 -151t-93 -107.5t-142.5 -39.5q-69 0 -114 28zM342 95.5q39 31.5 58 82t19 108.5q0 64 -28 100.5t-89 36.5q-55 0 -94 -32.5t-58.5 -83.5t-19.5 -106
q0 -64 28.5 -100.5t88.5 -36.5q56 0 95 31.5zM352 727h87l-146 -155h-72zM499 727h87l-145 -155h-73z" />
    <glyph glyph-name="OE" unicode="&#x152;" horiz-adv-x="1007" 
d="M724 628l-46 -229h306l-15 -78h-306l-49 -243h309l-15 -78h-392l14 71q-43 -42 -96 -64.5t-115 -22.5q-130 0 -189.5 81.5t-59.5 217.5q0 119 42 219.5t120.5 160t182.5 59.5q84 0 138 -35t81 -98l23 117h392l-15 -78h-310zM463 114.5q57 49.5 85.5 131.5t28.5 179
q0 100 -38.5 158t-127.5 58q-76 0 -131.5 -51.5t-84.5 -135.5t-29 -178q0 -98 38 -154.5t122 -56.5q80 0 137 49.5z" />
    <glyph glyph-name="oe" unicode="&#x153;" horiz-adv-x="872" 
d="M476 226q-1 -10 -1 -31q0 -64 27.5 -99.5t85.5 -35.5q49 0 82 23.5t49 68.5h92q-16 -52 -49 -88.5t-78.5 -55.5t-98.5 -19q-63 0 -105 24.5t-64 69.5q-33 -45 -81.5 -70t-109.5 -25q-63 0 -104 27.5t-60.5 74.5t-19.5 107q0 84 30.5 153t88.5 109t138 40q58 0 96.5 -25.5
t59.5 -70.5q33 46 81 71t107 25q57 0 100 -24t66.5 -70.5t23.5 -111.5q0 -34 -5 -67h-351zM542.5 391.5q-38.5 -37.5 -55.5 -100.5h259v6q0 63 -26 97.5t-81 34.5q-58 0 -96.5 -37.5zM320.5 96q36.5 32 54 83t17.5 110q0 134 -99 134q-55 0 -91.5 -32.5t-53.5 -84
t-17 -108.5q0 -134 99 -134q54 0 90.5 32z" />
    <glyph glyph-name="Racute" unicode="&#x154;" horiz-adv-x="617" 
d="M589 418.5q-28 -46.5 -79.5 -72.5t-120.5 -29l170 -317h-100l-168 316h-93l-64 -316h-92l141 706h215q114 0 166.5 -47t52.5 -131q0 -63 -28 -109.5zM478.5 422.5q43.5 35.5 43.5 102.5q0 54 -33.5 80.5t-105.5 26.5h-122l-49 -245h142q81 0 124.5 35.5zM474 905h105
l-141 -128h-97z" />
    <glyph glyph-name="racute" unicode="&#x155;" horiz-adv-x="348" 
d="M382 487l-16 -78q-20 5 -44 5q-62 0 -101.5 -38.5t-53.5 -108.5l-54 -267h-86l97 487h83l-12 -61q24 32 59.5 49.5t78.5 17.5q23 0 49 -6zM316 726h95l-127 -154h-87z" />
    <glyph glyph-name="Rcommaaccent" unicode="&#x156;" horiz-adv-x="617" 
d="M589 418.5q-28 -46.5 -79.5 -72.5t-120.5 -29l170 -317h-100l-168 316h-93l-64 -316h-92l141 706h215q114 0 166.5 -47t52.5 -131q0 -63 -28 -109.5zM478.5 422.5q43.5 35.5 43.5 102.5q0 54 -33.5 80.5t-105.5 26.5h-122l-49 -245h142q81 0 124.5 35.5zM253 -53h89
l-70 -148h-81z" />
    <glyph glyph-name="rcommaaccent" unicode="&#x157;" horiz-adv-x="348" 
d="M382 487l-16 -78q-20 5 -44 5q-62 0 -101.5 -38.5t-53.5 -108.5l-54 -267h-86l97 487h83l-12 -61q24 32 59.5 49.5t78.5 17.5q23 0 49 -6zM16 -53h89l-70 -148h-81z" />
    <glyph glyph-name="Rcaron" unicode="&#x158;" horiz-adv-x="617" 
d="M589 418.5q-28 -46.5 -79.5 -72.5t-120.5 -29l170 -317h-100l-168 316h-93l-64 -316h-92l141 706h215q114 0 166.5 -47t52.5 -131q0 -63 -28 -109.5zM478.5 422.5q43.5 35.5 43.5 102.5q0 54 -33.5 80.5t-105.5 26.5h-122l-49 -245h142q81 0 124.5 35.5zM470 777h-106
l-92 128h84l64 -85l99 85h95z" />
    <glyph glyph-name="rcaron" unicode="&#x159;" horiz-adv-x="348" 
d="M382 487l-16 -78q-20 5 -44 5q-62 0 -101.5 -38.5t-53.5 -108.5l-54 -267h-86l97 487h83l-12 -61q24 32 59.5 49.5t78.5 17.5q23 0 49 -6zM318 571h-104l-71 155h78l51 -113l97 113h84z" />
    <glyph glyph-name="Sacute" unicode="&#x15a;" horiz-adv-x="595" 
d="M92 39.5q-59 55.5 -59 151.5q0 25 2 38h98q-3 -19 -3 -37q0 -63 37.5 -98t114.5 -35q52 0 89.5 16t57.5 45.5t20 68.5q0 40 -21 65t-51.5 40t-96.5 40q-55 21 -91 44t-56 57t-20 83q0 61 31.5 107.5t88 71.5t130.5 25q72 0 121.5 -24t74 -67t24.5 -100q0 -15 -4 -43h-93
q4 28 4 42q0 54 -35 86t-99 32q-45 0 -78.5 -15.5t-52 -42.5t-18.5 -62q0 -34 16.5 -55.5t43 -35t73.5 -31.5l32 -13q61 -24 98 -47.5t57 -58t20 -85.5q0 -68 -33.5 -117t-95.5 -75t-144 -26q-123 0 -182 55.5zM436 905h105l-141 -128h-97z" />
    <glyph glyph-name="sacute" unicode="&#x15b;" horiz-adv-x="467" 
d="M63 24.5q-44 36.5 -44 100.5q0 18 3 37h86q-3 -15 -3 -29q0 -37 24 -58t75 -21t80.5 21.5t29.5 56.5q0 24 -13 40t-34 26t-56 23q-41 14 -69 31t-44 42.5t-16 61.5q0 44 23.5 76t65.5 49.5t96 17.5q80 0 121.5 -33.5t41.5 -92.5q0 -10 -2 -30h-84q3 12 3 25
q0 32 -21.5 50.5t-63.5 18.5q-43 0 -69 -19.5t-26 -50.5q0 -21 13 -36t35 -25.5t59 -24.5q66 -24 98.5 -55t32.5 -83q0 -48 -26.5 -83t-73.5 -53.5t-107 -18.5q-91 0 -135 36.5zM343 726h95l-127 -154h-87z" />
    <glyph glyph-name="Scircumflex" unicode="&#x15c;" horiz-adv-x="595" 
d="M92 39.5q-59 55.5 -59 151.5q0 25 2 38h98q-3 -19 -3 -37q0 -63 37.5 -98t114.5 -35q52 0 89.5 16t57.5 45.5t20 68.5q0 40 -21 65t-51.5 40t-96.5 40q-55 21 -91 44t-56 57t-20 83q0 61 31.5 107.5t88 71.5t130.5 25q72 0 121.5 -24t74 -67t24.5 -100q0 -15 -4 -43h-93
q4 28 4 42q0 54 -35 86t-99 32q-45 0 -78.5 -15.5t-52 -42.5t-18.5 -62q0 -34 16.5 -55.5t43 -35t73.5 -31.5l32 -13q61 -24 98 -47.5t57 -58t20 -85.5q0 -68 -33.5 -117t-95.5 -75t-144 -26q-123 0 -182 55.5zM353 905h106l92 -128h-83l-65 86l-98 -86h-95z" />
    <glyph glyph-name="scircumflex" unicode="&#x15d;" horiz-adv-x="467" 
d="M63 24.5q-44 36.5 -44 100.5q0 18 3 37h86q-3 -15 -3 -29q0 -37 24 -58t75 -21t80.5 21.5t29.5 56.5q0 24 -13 40t-34 26t-56 23q-41 14 -69 31t-44 42.5t-16 61.5q0 44 23.5 76t65.5 49.5t96 17.5q80 0 121.5 -33.5t41.5 -92.5q0 -10 -2 -30h-84q3 12 3 25
q0 32 -21.5 50.5t-63.5 18.5q-43 0 -69 -19.5t-26 -50.5q0 -21 13 -36t35 -25.5t59 -24.5q66 -24 98.5 -55t32.5 -83q0 -48 -26.5 -83t-73.5 -53.5t-107 -18.5q-91 0 -135 36.5zM271 727h104l72 -156h-79l-51 113l-96 -113h-85z" />
    <glyph glyph-name="Scedilla" unicode="&#x15e;" horiz-adv-x="595" 
d="M486 488q4 28 4 42q0 54 -35 86t-99 32q-45 0 -78.5 -15.5t-52 -42.5t-18.5 -62q0 -34 16.5 -55.5t43 -35t73.5 -31.5l32 -13q61 -24 98 -47.5t57 -58t20 -85.5q0 -62 -28.5 -108.5t-80.5 -74t-123 -33.5l-18 -35q43 -3 66.5 -24.5t23.5 -55.5q0 -45 -35.5 -68t-94.5 -23
q-52 0 -86 17l20 49q31 -13 65 -13q30 0 47.5 11t17.5 30q0 18 -17 27t-57 9h-34l35 75q-110 6 -162.5 60.5t-52.5 145.5q0 25 2 38h98q-3 -19 -3 -37q0 -63 37.5 -98t114.5 -35q52 0 89.5 16t57.5 45.5t20 68.5q0 40 -21 65t-51.5 40t-96.5 40q-55 21 -91 44t-56 57t-20 83
q0 61 31.5 107.5t88 71.5t130.5 25q72 0 121.5 -24t74 -67t24.5 -100q0 -15 -4 -43h-93z" />
    <glyph glyph-name="scedilla" unicode="&#x15f;" horiz-adv-x="467" 
d="M344 343q3 12 3 25q0 32 -21.5 50.5t-63.5 18.5q-43 0 -69 -19.5t-26 -50.5q0 -21 13 -36t35 -25.5t59 -24.5q66 -24 98.5 -55t32.5 -83q0 -44 -22.5 -77t-62.5 -52.5t-92 -24.5l-19 -38q43 -3 66.5 -24.5t23.5 -55.5q0 -45 -35.5 -68t-94.5 -23q-52 0 -86 17l20 49
q31 -13 65 -13q30 0 47.5 11t17.5 30q0 18 -17 27t-57 9h-34l38 80q-73 7 -108.5 42t-35.5 93q0 18 3 37h86q-3 -15 -3 -29q0 -37 24 -58t75 -21t80.5 21.5t29.5 56.5q0 24 -13 40t-34 26t-56 23q-41 14 -69 31t-44 42.5t-16 61.5q0 44 23.5 76t65.5 49.5t96 17.5
q80 0 121.5 -33.5t41.5 -92.5q0 -10 -2 -30h-84z" />
    <glyph glyph-name="Scaron" unicode="&#x160;" horiz-adv-x="595" 
d="M92 39.5q-59 55.5 -59 151.5q0 25 2 38h98q-3 -19 -3 -37q0 -63 37.5 -98t114.5 -35q52 0 89.5 16t57.5 45.5t20 68.5q0 40 -21 65t-51.5 40t-96.5 40q-55 21 -91 44t-56 57t-20 83q0 61 31.5 107.5t88 71.5t130.5 25q72 0 121.5 -24t74 -67t24.5 -100q0 -15 -4 -43h-93
q4 28 4 42q0 54 -35 86t-99 32q-45 0 -78.5 -15.5t-52 -42.5t-18.5 -62q0 -34 16.5 -55.5t43 -35t73.5 -31.5l32 -13q61 -24 98 -47.5t57 -58t20 -85.5q0 -68 -33.5 -117t-95.5 -75t-144 -26q-123 0 -182 55.5zM433 777h-106l-92 128h84l64 -85l99 85h95z" />
    <glyph glyph-name="scaron" unicode="&#x161;" horiz-adv-x="467" 
d="M63 24.5q-44 36.5 -44 100.5q0 18 3 37h86q-3 -15 -3 -29q0 -37 24 -58t75 -21t80.5 21.5t29.5 56.5q0 24 -13 40t-34 26t-56 23q-41 14 -69 31t-44 42.5t-16 61.5q0 44 23.5 76t65.5 49.5t96 17.5q80 0 121.5 -33.5t41.5 -92.5q0 -10 -2 -30h-84q3 12 3 25
q0 32 -21.5 50.5t-63.5 18.5q-43 0 -69 -19.5t-26 -50.5q0 -21 13 -36t35 -25.5t59 -24.5q66 -24 98.5 -55t32.5 -83q0 -48 -26.5 -83t-73.5 -53.5t-107 -18.5q-91 0 -135 36.5zM345 571h-104l-71 155h78l51 -113l97 113h84z" />
    <glyph glyph-name="uni0162" unicode="&#x162;" horiz-adv-x="544" 
d="M618 706l-15 -78h-207l-126 -628h-8l-25 -50q43 -3 66 -24t23 -55q0 -45 -35.5 -68t-93.5 -23q-53 0 -86 17l19 49q33 -13 66 -13q29 0 47 11t18 30q0 18 -17.5 27t-57.5 9h-34l44 90h-19l126 628h-208l16 78h507z" />
    <glyph glyph-name="uni0163" unicode="&#x163;" horiz-adv-x="356" 
d="M167 163q-4 -17 -4 -36q0 -31 16.5 -46t51.5 -15q23 0 54 7l-15 -74q-38 -7 -67 -7h-8l-21 -41q43 -3 66.5 -24.5t23.5 -55.5q0 -45 -35.5 -68t-93.5 -23q-53 0 -87 17l20 49q31 -13 65 -13q30 0 48 11t18 30q0 18 -17.5 27t-57.5 9h-34l44 92q-31 11 -46 35.5t-15 64.5
q0 30 7 61l50 252h-76l15 72h76l23 118h87l-24 -118h139l-14 -72h-139z" />
    <glyph glyph-name="Tcaron" unicode="&#x164;" horiz-adv-x="544" 
d="M303 628h-208l16 78h507l-15 -78h-207l-126 -628h-93zM430 777h-106l-92 128h84l64 -85l99 85h95z" />
    <glyph glyph-name="tcaron" unicode="&#x165;" horiz-adv-x="383" 
d="M104.5 18.5q-31.5 26.5 -31.5 83.5q0 30 7 61l50 252h-76l15 72h76l23 118h87l-24 -118h139l-14 -72h-139l-50 -252q-4 -17 -4 -36q0 -31 16.5 -46t51.5 -15q23 0 54 7l-15 -74q-38 -7 -67 -7q-67 0 -98.5 26.5zM347 705h76l-70 -167h-68z" />
    <glyph glyph-name="Tbar" unicode="&#x166;" horiz-adv-x="544" 
d="M396 628l-38 -191h127l-13 -63h-127l-75 -374h-93l75 374h-130l13 63h130l38 191h-208l16 78h507l-15 -78h-207z" />
    <glyph glyph-name="tbar" unicode="&#x167;" horiz-adv-x="356" 
d="M217 415l-23 -118h139l-12 -61h-140l-14 -73q-4 -17 -4 -36q0 -31 16.5 -46t51.5 -15q23 0 54 7l-15 -74q-38 -7 -67 -7q-67 0 -98.5 26.5t-31.5 83.5q0 30 7 61l14 73h-76l12 61h77l23 118h-76l15 72h76l23 118h87l-24 -118h139l-14 -72h-139z" />
    <glyph glyph-name="Utilde" unicode="&#x168;" horiz-adv-x="643" 
d="M119.5 30q-54.5 46 -54.5 139q0 42 8 79l91 458h93l-94 -471q-6 -31 -6 -57q0 -58 31.5 -85.5t100.5 -27.5q82 0 126 39t60 121l96 481h93l-101 -502q-22 -111 -89.5 -165.5t-187.5 -54.5q-112 0 -166.5 46zM464.5 783q-18.5 10 -35.5 29q-3 3 -14 14.5t-22 16.5t-24 5
q-46 0 -67 -73h-58q15 63 47 98t81 35q27 0 45 -10t37 -30q2 -2 11.5 -13t20.5 -16.5t23 -5.5q26 0 42 19t27 54h58q-33 -133 -127 -133q-26 0 -44.5 10z" />
    <glyph glyph-name="utilde" unicode="&#x169;" horiz-adv-x="559" 
d="M533 487l-98 -487h-86l11 57q-57 -69 -153 -69q-74 0 -111.5 39t-37.5 109q0 37 8 80l54 271h87l-54 -266q-6 -38 -6 -64q0 -47 24 -70t73 -23q56 0 93.5 34.5t50.5 100.5l58 288h87zM367.5 579.5q-17.5 10.5 -31.5 37.5q-2 3 -11 18.5t-18.5 23t-20.5 7.5
q-21 0 -34.5 -22.5t-26.5 -71.5h-59q18 82 47 119.5t76 37.5q25 0 41.5 -11.5t32.5 -38.5q3 -5 12.5 -19.5t18.5 -21t21 -6.5q21 0 33.5 22t25.5 73h59q-12 -56 -27.5 -90t-38.5 -51t-57 -17q-25 0 -42.5 10.5z" />
    <glyph glyph-name="Umacron" unicode="&#x16a;" horiz-adv-x="643" 
d="M119.5 30q-54.5 46 -54.5 139q0 42 8 79l91 458h93l-94 -471q-6 -31 -6 -57q0 -58 31.5 -85.5t100.5 -27.5q82 0 126 39t60 121l96 481h93l-101 -502q-22 -111 -89.5 -165.5t-187.5 -54.5q-112 0 -166.5 46zM300 873h293l-12 -63h-293z" />
    <glyph glyph-name="umacron" unicode="&#x16b;" horiz-adv-x="559" 
d="M533 487l-98 -487h-86l11 57q-57 -69 -153 -69q-74 0 -111.5 39t-37.5 109q0 37 8 80l54 271h87l-54 -266q-6 -38 -6 -64q0 -47 24 -70t73 -23q56 0 93.5 34.5t50.5 100.5l58 288h87zM212 670h283l-12 -61h-283z" />
    <glyph glyph-name="Ubreve" unicode="&#x16c;" horiz-adv-x="643" 
d="M119.5 30q-54.5 46 -54.5 139q0 42 8 79l91 458h93l-94 -471q-6 -31 -6 -57q0 -58 31.5 -85.5t100.5 -27.5q82 0 126 39t60 121l96 481h93l-101 -502q-22 -111 -89.5 -165.5t-187.5 -54.5q-112 0 -166.5 46zM302 876q0 9 2 29h62q-1 -6 -1 -16q0 -33 17 -48t53 -15
q40 0 64 19t38 60h66q-17 -66 -61 -99.5t-114 -33.5q-126 0 -126 104z" />
    <glyph glyph-name="ubreve" unicode="&#x16d;" horiz-adv-x="559" 
d="M533 487l-98 -487h-86l11 57q-57 -69 -153 -69q-74 0 -111.5 39t-37.5 109q0 37 8 80l54 271h87l-54 -266q-6 -38 -6 -64q0 -47 24 -70t73 -23q56 0 93.5 34.5t50.5 100.5l58 288h87zM240 599.5q-32 31.5 -32 94.5q0 15 3 33h65q-2 -13 -2 -35q0 -35 16 -52t52 -17
q44 0 68.5 25t39.5 79h68q-19 -80 -61.5 -119.5t-116.5 -39.5q-68 0 -100 31.5z" />
    <glyph glyph-name="Uring" unicode="&#x16e;" horiz-adv-x="643" 
d="M119.5 30q-54.5 46 -54.5 139q0 42 8 79l91 458h93l-94 -471q-6 -31 -6 -57q0 -58 31.5 -85.5t100.5 -27.5q82 0 126 39t60 121l96 481h93l-101 -502q-22 -111 -89.5 -165.5t-187.5 -54.5q-112 0 -166.5 46zM372 757.5q-25 13.5 -39 37.5t-14 56t14 56t39 37t59 13
t60 -13.5t40 -37.5t14 -55q0 -32 -14 -56t-40 -37.5t-60 -13.5t-59 13.5zM474 809q16 16 16 42q0 25 -16.5 41t-42.5 16t-41.5 -15.5t-15.5 -41.5t15.5 -42t41.5 -16q27 0 43 16z" />
    <glyph glyph-name="uring" unicode="&#x16f;" horiz-adv-x="559" 
d="M533 487l-98 -487h-86l11 57q-57 -69 -153 -69q-74 0 -111.5 39t-37.5 109q0 37 8 80l54 271h87l-54 -266q-6 -38 -6 -64q0 -47 24 -70t73 -23q56 0 93.5 34.5t50.5 100.5l58 288h87zM286 567.5q-25 13.5 -39 37.5t-14 56t14 56t39 37t59 13t60 -13.5t40 -37.5t14 -55
q0 -32 -14 -56t-40 -37.5t-60 -13.5t-59 13.5zM388 619q16 16 16 42q0 25 -16.5 41t-42.5 16t-41.5 -15.5t-15.5 -41.5t15.5 -42t41.5 -16q27 0 43 16z" />
    <glyph glyph-name="Uhungarumlaut" unicode="&#x170;" horiz-adv-x="643" 
d="M119.5 30q-54.5 46 -54.5 139q0 42 8 79l91 458h93l-94 -471q-6 -31 -6 -57q0 -58 31.5 -85.5t100.5 -27.5q82 0 126 39t60 121l96 481h93l-101 -502q-22 -111 -89.5 -165.5t-187.5 -54.5q-112 0 -166.5 46zM433 905h90l-141 -127h-77zM582 905h89l-140 -127h-77z" />
    <glyph glyph-name="uhungarumlaut" unicode="&#x171;" horiz-adv-x="559" 
d="M533 487l-98 -487h-86l11 57q-57 -69 -153 -69q-74 0 -111.5 39t-37.5 109q0 37 8 80l54 271h87l-54 -266q-6 -38 -6 -64q0 -47 24 -70t73 -23q56 0 93.5 34.5t50.5 100.5l58 288h87zM346 727h87l-146 -155h-72zM493 727h87l-145 -155h-73z" />
    <glyph glyph-name="Uogonek" unicode="&#x172;" horiz-adv-x="643" 
d="M664 706l-101 -502q-15 -72 -46 -120t-86 -83q-33 -22 -55 -39.5t-36.5 -37.5t-14.5 -41q0 -19 12.5 -28.5t32.5 -9.5q18 0 41 7l-12 -58q-25 -6 -52 -6q-45 0 -71.5 21t-26.5 59q0 35 23 63t63 56q-22 -3 -49 -3q-112 0 -166.5 46t-54.5 139q0 42 8 79l91 458h93
l-94 -471q-6 -31 -6 -57q0 -58 31.5 -85.5t100.5 -27.5q82 0 126 39t60 121l96 481h93z" />
    <glyph glyph-name="uogonek" unicode="&#x173;" horiz-adv-x="559" 
d="M380 -40.5q-21 -16.5 -35.5 -36t-14.5 -40.5q0 -19 12 -28.5t33 -9.5q19 0 40 7l-11 -58q-25 -6 -53 -6q-45 0 -71 21t-26 59q0 39 28.5 70.5t78.5 61.5h-12l11 57q-57 -69 -153 -69q-74 0 -111.5 39t-37.5 109q0 37 8 80l54 271h87l-54 -266q-6 -38 -6 -64q0 -47 24 -70
t73 -23q56 0 93.5 34.5t50.5 100.5l58 288h87l-98 -487q-34 -24 -55 -40.5z" />
    <glyph glyph-name="Wcircumflex" unicode="&#x174;" horiz-adv-x="896" 
d="M980 706l-333 -706h-100l-36 579l-258 -579h-96l-56 706h87l42 -574l253 574h100l38 -572l265 572h94zM521 905h106l92 -128h-83l-65 86l-98 -86h-95z" />
    <glyph glyph-name="wcircumflex" unicode="&#x175;" horiz-adv-x="752" 
d="M784 487l-265 -487h-87l-35 370l-177 -370h-85l-69 487h88l41 -375l184 375h78l38 -374l191 374h98zM408 727h104l72 -156h-79l-51 113l-96 -113h-85z" />
    <glyph glyph-name="Ycircumflex" unicode="&#x176;" horiz-adv-x="563" 
d="M249 304l-148 402h93l115 -311l230 311h108l-306 -402l-61 -304h-92zM352 905h106l92 -128h-83l-65 86l-98 -86h-95z" />
    <glyph glyph-name="ycircumflex" unicode="&#x177;" horiz-adv-x="510" 
d="M542 487l-422 -688h-95l124 202l-83 486h88l61 -388l228 388h99zM289 727h104l72 -156h-79l-51 113l-96 -113h-85z" />
    <glyph glyph-name="Ydieresis" unicode="&#x178;" horiz-adv-x="563" 
d="M249 304l-148 402h93l115 -311l230 311h108l-306 -402l-61 -304h-92zM247.5 812q-15.5 15 -15.5 38t15.5 38.5t39.5 15.5q23 0 39 -15.5t16 -38.5t-16 -38t-39 -15q-24 0 -39.5 15zM455.5 812q-15.5 15 -15.5 38t15.5 38.5t39.5 15.5q23 0 39.5 -15.5t16.5 -38.5t-16 -38
t-40 -15t-39.5 15z" />
    <glyph glyph-name="Zacute" unicode="&#x179;" horiz-adv-x="571" 
d="M456 626h-340l16 80h492l-480 -626h367l-16 -80h-521zM430 905h105l-141 -128h-97z" />
    <glyph glyph-name="zacute" unicode="&#x17a;" horiz-adv-x="458" 
d="M133 72h266l-15 -72h-415l357 415h-249l14 72h394zM334 726h95l-127 -154h-87z" />
    <glyph glyph-name="Zdotaccent" unicode="&#x17b;" horiz-adv-x="571" 
d="M456 626h-340l16 80h492l-480 -626h367l-16 -80h-521zM347.5 806.5q-15.5 14.5 -15.5 37.5t15.5 38t39.5 15q23 0 39 -15t16 -38q0 -22 -16 -37t-39 -15q-24 0 -39.5 14.5z" />
    <glyph glyph-name="zdotaccent" unicode="&#x17c;" horiz-adv-x="458" 
d="M133 72h266l-15 -72h-415l357 415h-249l14 72h394zM255 610.5q-16 15.5 -16 39.5q0 25 16 41t41 16q24 0 41 -16.5t17 -40.5t-17 -39.5t-41 -15.5q-25 0 -41 15.5z" />
    <glyph glyph-name="Zcaron" unicode="&#x17d;" horiz-adv-x="571" 
d="M456 626h-340l16 80h492l-480 -626h367l-16 -80h-521zM426 777h-106l-92 128h84l64 -85l99 85h95z" />
    <glyph glyph-name="zcaron" unicode="&#x17e;" horiz-adv-x="458" 
d="M133 72h266l-15 -72h-415l357 415h-249l14 72h394zM336 571h-104l-71 155h78l51 -113l97 113h84z" />
    <glyph glyph-name="Schwa" unicode="&#x18f;" horiz-adv-x="691" 
d="M551.5 684.5q58.5 -37.5 86.5 -103t28 -151.5q0 -122 -44 -224.5t-124.5 -162t-183.5 -59.5q-76 0 -131.5 33t-86 97t-30.5 153q0 50 8 100h494q3 32 3 65q0 97 -41 152.5t-129 55.5q-75 0 -127 -40.5t-78 -116.5h-97q23 76 67 129.5t105.5 81.5t133.5 28
q88 0 146.5 -37.5zM425.5 92.5q47.5 28.5 80 80t49.5 118.5h-398q-1 -9 -1 -26q0 -94 40 -147.5t122 -53.5q60 0 107.5 28.5z" />
    <glyph glyph-name="florin" unicode="&#x192;" horiz-adv-x="384" 
d="M-27 1l14 70q18 -5 41 -5q44 0 69 22t34 66l46 225h-123l11 55h123l29 144q13 71 56 105t118 34q30 0 65 -7l-14 -71q-21 6 -45 6q-43 0 -66.5 -22.5t-32.5 -67.5l-25 -121h128l-11 -55h-127l-50 -247q-14 -71 -57 -105t-119 -34q-28 0 -64 8z" />
    <glyph glyph-name="Aringacute" unicode="&#x1fa;" horiz-adv-x="630" 
d="M458 177h-305l-94 -177h-99l378 706h139l96 -706h-92zM449 252l-50 386h-2l-204 -386h256zM364 757.5q-25 13.5 -39 37.5t-14 56t14 56t39 37t59 13t60 -13.5t40 -37.5t14 -55q0 -32 -14 -56t-40 -37.5t-60 -13.5t-59 13.5zM466 809q16 16 16 42q0 25 -16.5 41t-42.5 16
t-41.5 -15.5t-15.5 -41.5t15.5 -42t41.5 -16q27 0 43 16zM525 1156h105l-141 -128h-97z" />
    <glyph glyph-name="aringacute" unicode="&#x1fb;" horiz-adv-x="540" 
d="M436.5 456.5q43.5 -42.5 43.5 -122.5q0 -32 -10 -82l-51 -252h-87l13 64q-65 -76 -175 -76q-75 0 -113 35.5t-38 96.5q0 88 66.5 127t178.5 39h125q6 30 6 51q0 47 -24 70.5t-79 23.5q-109 0 -125 -96h-90q14 77 70 120.5t147 43.5q99 0 142.5 -42.5zM318.5 98
q41.5 40 58.5 126h-109q-71 0 -113 -21t-42 -71q0 -74 91 -74q73 0 114.5 40zM281 567.5q-25 13.5 -39 37.5t-14 56t14 56t39 37t59 13t60 -13.5t40 -37.5t14 -55q0 -32 -14 -56t-40 -37.5t-60 -13.5t-59 13.5zM383 619q16 16 16 42q0 25 -16.5 41t-42.5 16t-41.5 -15.5
t-15.5 -41.5t15.5 -42t41.5 -16q27 0 43 16zM438 1006h95l-127 -154h-87z" />
    <glyph glyph-name="AEacute" unicode="&#x1fc;" horiz-adv-x="787" 
d="M522 628l-18 -229h260l-16 -78h-250l-19 -243h224l-16 -78h-308l15 179h-227l-104 -179h-103l418 706h450l-15 -78h-291zM433 633h-2l-220 -379h190zM608 905h105l-141 -128h-97z" />
    <glyph glyph-name="aeacute" unicode="&#x1fd;" horiz-adv-x="860" 
d="M464 225q-1 -10 -1 -30q0 -64 27.5 -99.5t85.5 -35.5q49 0 82 23.5t49 68.5h92q-24 -78 -84.5 -120.5t-141.5 -42.5q-71 0 -115.5 31t-63.5 87q-33 -57 -86.5 -88t-127.5 -31q-80 0 -120.5 35.5t-40.5 97.5q0 88 66.5 127t178.5 39h125q7 29 7 50q0 47 -24.5 70.5
t-79.5 23.5q-108 0 -126 -96h-89q14 77 70 120.5t147 43.5q126 0 164 -77q32 37 75.5 57t96.5 20q57 0 100 -24t66.5 -70.5t23.5 -111.5q0 -35 -5 -68h-351zM529.5 390q-38.5 -39 -55.5 -103h260v10q0 63 -26 97.5t-81 34.5q-59 0 -97.5 -39zM318.5 98.5
q41.5 40.5 59.5 126.5h-109q-72 0 -114 -20.5t-42 -72.5q0 -74 91 -74q73 0 114.5 40.5zM553 726h95l-127 -154h-87z" />
    <glyph glyph-name="Oslashacute" unicode="&#x1fe;" horiz-adv-x="726" 
d="M671 591q31 -65 31 -154q0 -123 -43.5 -226.5t-126.5 -165t-196 -61.5q-74 0 -126.5 23t-85.5 66l-77 -73h-80l129 119q-28 65 -28 151q0 122 43.5 225.5t126.5 165t195 61.5q141 0 210 -85l72 69h80zM284 588.5q-60 -52.5 -91 -137.5t-31 -182q0 -47 10 -81l400 387
q-45 66 -146 66q-82 0 -142 -52.5zM485 117.5q60 52.5 91 138t31 182.5q0 45 -11 86l-402 -387q45 -72 149 -72q82 0 142 52.5zM521 905h105l-141 -128h-97z" />
    <glyph glyph-name="oslashacute" unicode="&#x1ff;" horiz-adv-x="549" 
d="M479 412q30 -50 30 -126q0 -83 -32.5 -151t-93 -107.5t-142.5 -39.5q-91 0 -144 51l-40 -39h-69l81 76q-29 51 -29 123q0 83 33 151.5t94 108.5t140 40q90 0 143 -50l39 38h69zM208 390.5q-39 -32.5 -58.5 -83.5t-19.5 -106q0 -37 8 -60l250 249q-28 33 -86 33
q-55 0 -94 -32.5zM342 95.5q39 31.5 58 82t19 108.5q0 33 -8 63l-252 -249q30 -36 88 -36q56 0 95 31.5zM392 726h95l-127 -154h-87z" />
    <glyph glyph-name="Scommaaccent" unicode="&#x218;" horiz-adv-x="595" 
d="M92 39.5q-59 55.5 -59 151.5q0 25 2 38h98q-3 -19 -3 -37q0 -63 37.5 -98t114.5 -35q52 0 89.5 16t57.5 45.5t20 68.5q0 40 -21 65t-51.5 40t-96.5 40q-55 21 -91 44t-56 57t-20 83q0 61 31.5 107.5t88 71.5t130.5 25q72 0 121.5 -24t74 -67t24.5 -100q0 -15 -4 -43h-93
q4 28 4 42q0 54 -35 86t-99 32q-45 0 -78.5 -15.5t-52 -42.5t-18.5 -62q0 -34 16.5 -55.5t43 -35t73.5 -31.5l32 -13q61 -24 98 -47.5t57 -58t20 -85.5q0 -68 -33.5 -117t-95.5 -75t-144 -26q-123 0 -182 55.5zM232 -53h89l-70 -148h-81z" />
    <glyph glyph-name="scommaaccent" unicode="&#x219;" horiz-adv-x="467" 
d="M63 24.5q-44 36.5 -44 100.5q0 18 3 37h86q-3 -15 -3 -29q0 -37 24 -58t75 -21t80.5 21.5t29.5 56.5q0 24 -13 40t-34 26t-56 23q-41 14 -69 31t-44 42.5t-16 61.5q0 44 23.5 76t65.5 49.5t96 17.5q80 0 121.5 -33.5t41.5 -92.5q0 -10 -2 -30h-84q3 12 3 25
q0 32 -21.5 50.5t-63.5 18.5q-43 0 -69 -19.5t-26 -50.5q0 -21 13 -36t35 -25.5t59 -24.5q66 -24 98.5 -55t32.5 -83q0 -48 -26.5 -83t-73.5 -53.5t-107 -18.5q-91 0 -135 36.5zM144 -53h89l-70 -148h-81z" />
    <glyph glyph-name="uni021A" unicode="&#x21a;" horiz-adv-x="544" 
d="M303 628h-208l16 78h507l-15 -78h-207l-126 -628h-93zM172 -53h89l-70 -148h-81z" />
    <glyph glyph-name="uni021B" unicode="&#x21b;" horiz-adv-x="356" 
d="M104.5 18.5q-31.5 26.5 -31.5 83.5q0 30 7 61l50 252h-76l15 72h76l23 118h87l-24 -118h139l-14 -72h-139l-50 -252q-4 -17 -4 -36q0 -31 16.5 -46t51.5 -15q23 0 54 7l-15 -74q-38 -7 -67 -7q-67 0 -98.5 26.5zM110 -53h89l-70 -148h-81z" />
    <glyph glyph-name="dotlessj" unicode="&#x237;" horiz-adv-x="237" 
d="M-109 -200l15 76q12 -2 29 -2q36 0 55 17t26 56l108 540h87l-113 -564q-13 -67 -50 -97t-104 -30q-29 0 -53 4z" />
    <glyph glyph-name="schwa" unicode="&#x259;" horiz-adv-x="548" 
d="M456 442q52 -56 52 -152q0 -83 -33 -152t-94 -109.5t-141 -40.5q-61 0 -106 24t-69.5 70t-24.5 112q0 35 5 67h374q1 10 1 30q0 136 -126 136q-52 0 -88 -23.5t-53 -68.5h-92q17 52 51.5 88.5t82 55.5t102.5 19q107 0 159 -56zM347.5 95.5q41.5 37.5 59.5 100.5h-281v-6
q0 -63 28.5 -97.5t89.5 -34.5q62 0 103.5 37.5z" />
    <glyph glyph-name="circumflex" unicode="&#x2c6;" horiz-adv-x="410" 
d="M250 727h104l72 -156h-79l-51 113l-96 -113h-85z" />
    <glyph glyph-name="caron" unicode="&#x2c7;" horiz-adv-x="410" 
d="M322 571h-104l-71 155h78l51 -113l97 113h84z" />
    <glyph glyph-name="uni02C9" unicode="&#x2c9;" horiz-adv-x="383" 
d="M135 670h283l-12 -61h-283z" />
    <glyph glyph-name="breve" unicode="&#x2d8;" horiz-adv-x="408" 
d="M176 599.5q-32 31.5 -32 94.5q0 15 3 33h65q-2 -13 -2 -35q0 -35 16 -52t52 -17q44 0 68.5 25t39.5 79h68q-19 -80 -61.5 -119.5t-116.5 -39.5q-68 0 -100 31.5z" />
    <glyph glyph-name="dotaccent" unicode="&#x2d9;" horiz-adv-x="217" 
d="M149 610.5q-16 15.5 -16 39.5q0 25 16 41t41 16q24 0 41 -16.5t17 -40.5t-17 -39.5t-41 -15.5q-25 0 -41 15.5z" />
    <glyph glyph-name="ring" unicode="&#x2da;" horiz-adv-x="331" 
d="M189 567.5q-25 13.5 -39 37.5t-14 56t14 56t39 37t59 13t60 -13.5t40 -37.5t14 -55q0 -32 -14 -56t-40 -37.5t-60 -13.5t-59 13.5zM291 619q16 16 16 42q0 25 -16.5 41t-42.5 16t-41.5 -15.5t-15.5 -41.5t15.5 -42t41.5 -16q27 0 43 16z" />
    <glyph glyph-name="ogonek" unicode="&#x2db;" horiz-adv-x="267" 
d="M3 -191q-26 21 -26 59q0 42 32 74.5t87 64.5l62 -7q-35 -24 -56 -40.5t-35.5 -36t-14.5 -40.5q0 -19 12.5 -28.5t33.5 -9.5q19 0 40 7l-11 -58q-26 -6 -53 -6q-45 0 -71 21z" />
    <glyph glyph-name="tilde" unicode="&#x2dc;" horiz-adv-x="435" 
d="M316.5 579.5q-17.5 10.5 -31.5 37.5q-2 3 -11 18.5t-18.5 23t-20.5 7.5q-21 0 -34.5 -22.5t-26.5 -71.5h-59q18 82 47 119.5t76 37.5q25 0 41.5 -11.5t32.5 -38.5q3 -5 12.5 -19.5t18.5 -21t21 -6.5q21 0 33.5 22t25.5 73h59q-12 -56 -27.5 -90t-38.5 -51t-57 -17
q-25 0 -42.5 10.5z" />
    <glyph glyph-name="hungarumlaut" unicode="&#x2dd;" horiz-adv-x="434" 
d="M247 727h87l-146 -155h-72zM394 727h87l-145 -155h-73z" />
    <glyph glyph-name="gravecomb" unicode="&#x300;" 
d="M-60 572l-75 154h84l67 -154h-76z" />
    <glyph glyph-name="acutecomb" unicode="&#x301;" 
d="M-48 726h95l-127 -154h-87z" />
    <glyph glyph-name="circumflexcomb" unicode="&#x302;" 
d="M-160 727h104l72 -156h-79l-51 113l-96 -113h-85z" />
    <glyph glyph-name="tildecomb" unicode="&#x303;" 
d="M-118.5 579.5q-17.5 10.5 -31.5 37.5q-2 3 -11 18.5t-18.5 23t-20.5 7.5q-21 0 -34.5 -22.5t-26.5 -71.5h-59q18 82 47 119.5t76 37.5q25 0 41.5 -11.5t32.5 -38.5q3 -5 12.5 -19.5t18.5 -21t21 -6.5q21 0 33.5 22t25.5 73h59q-12 -56 -27.5 -90t-38.5 -51t-57 -17
q-25 0 -42.5 10.5z" />
    <glyph glyph-name="macroncomb" unicode="&#x304;" 
d="M-248 670h283l-12 -61h-283z" />
    <glyph glyph-name="brevecomb" unicode="&#x306;" 
d="M-232 599.5q-32 31.5 -32 94.5q0 15 3 33h65q-2 -13 -2 -35q0 -35 16 -52t52 -17q44 0 68.5 25t39.5 79h68q-19 -80 -61.5 -119.5t-116.5 -39.5q-68 0 -100 31.5z" />
    <glyph glyph-name="dotaccentcomb" unicode="&#x307;" 
d="M-68 610.5q-16 15.5 -16 39.5q0 25 16 41t41 16q24 0 41 -16.5t17 -40.5t-17 -39.5t-41 -15.5q-25 0 -41 15.5z" />
    <glyph glyph-name="dieresiscomb" unicode="&#x308;" 
d="M-256 601.5q-16 15.5 -16 38.5q0 24 16 40t40 16q23 0 39.5 -16t16.5 -40q0 -23 -16.5 -38.5t-39.5 -15.5q-24 0 -40 15.5zM-66.5 601.5q-15.5 15.5 -15.5 38.5q0 24 15.5 40t40.5 16q23 0 39.5 -16t16.5 -40q0 -23 -16.5 -38.5t-39.5 -15.5q-25 0 -40.5 15.5z" />
    <glyph glyph-name="ringcomb" unicode="&#x30a;" 
d="M-142 567.5q-25 13.5 -39 37.5t-14 56t14 56t39 37t59 13t60 -13.5t40 -37.5t14 -55q0 -32 -14 -56t-40 -37.5t-60 -13.5t-59 13.5zM-40 619q16 16 16 42q0 25 -16.5 41t-42.5 16t-41.5 -15.5t-15.5 -41.5t15.5 -42t41.5 -16q27 0 43 16z" />
    <glyph glyph-name="hungarumlautcomb" unicode="&#x30b;" 
d="M-187 727h87l-146 -155h-72zM-40 727h87l-145 -155h-73z" />
    <glyph glyph-name="caroncomb" unicode="&#x30c;" 
d="M-88 571h-104l-71 155h78l51 -113l97 113h84z" />
    <glyph glyph-name="commaturnedabovecomb" unicode="&#x312;" 
d="M-17 572h-89l71 147h80z" />
    <glyph glyph-name="commaaccent" unicode="&#x326;" 
d="M-199 -53h89l-70 -148h-81z" />
    <glyph glyph-name="cedillacomb" unicode="&#x327;" 
d="M-149.5 -73.5q23.5 -21.5 23.5 -55.5q0 -45 -35.5 -68t-93.5 -23q-53 0 -87 17l20 49q31 -13 65 -13q30 0 47.5 11t17.5 30q0 18 -17 27t-57 9h-34l45 95h66l-27 -54q43 -3 66.5 -24.5z" />
    <glyph glyph-name="ogonekcomb" unicode="&#x328;" 
d="M-264 -191q-26 21 -26 59q0 42 32 74.5t87 64.5l62 -7q-35 -24 -56 -40.5t-35.5 -36t-14.5 -40.5q0 -19 12.5 -28.5t33.5 -9.5q19 0 40 7l-11 -58q-26 -6 -53 -6q-45 0 -71 21z" />
    <glyph glyph-name="uni0335" unicode="&#x335;" 
d="M-331 356h304l-13 -60h-303z" />
    <glyph glyph-name="uni0336" unicode="&#x336;" 
d="M-293 660h376l-12 -60h-376z" />
    <glyph glyph-name="uni0337" unicode="&#x337;" 
d="M-72 424l123 76l-16 -78l-123 -78zM-213 351l122 74l-16 -79l-121 -73z" />
    <glyph glyph-name="uni0338" unicode="&#x338;" 
d="M-442 112h2l315 313l65 62h69l-119 -112h-2l-315 -312l-65 -63h-69z" />
    <glyph glyph-name="delta" unicode="&#x394;" horiz-adv-x="630" 
d="M573 0h-613l378 706h139zM473 75l-73 562h-2l-297 -562h372z" />
    <glyph glyph-name="delta" unicode="&#x3b4;" horiz-adv-x="630" 
d="M573 0h-613l378 706h139zM473 75l-73 562h-2l-297 -562h372z" />
    <glyph glyph-name="omega" unicode="&#x3a9;" horiz-adv-x="701" 
d="M38 72h156l17 82q-65 30 -94.5 88.5t-29.5 142.5q0 98 41.5 174.5t117 119.5t175.5 43q136 0 201.5 -67.5t65.5 -186.5q0 -77 -28.5 -143.5t-81.5 -114t-125 -67.5l-15 -71h157l-14 -72h-233l41 205q64 9 110.5 46.5t70.5 93.5t24 121q0 84 -43 132.5t-134 48.5
q-74 0 -127.5 -34.5t-81.5 -94.5t-28 -135q0 -71 27.5 -116t89.5 -62l-41 -205h-233z" />
    <glyph glyph-name="omega" unicode="&#x3c9;" horiz-adv-x="701" 
d="M38 72h156l17 82q-65 30 -94.5 88.5t-29.5 142.5q0 98 41.5 174.5t117 119.5t175.5 43q136 0 201.5 -67.5t65.5 -186.5q0 -77 -28.5 -143.5t-81.5 -114t-125 -67.5l-15 -71h157l-14 -72h-233l41 205q64 9 110.5 46.5t70.5 93.5t24 121q0 84 -43 132.5t-134 48.5
q-74 0 -127.5 -34.5t-81.5 -94.5t-28 -135q0 -71 27.5 -116t89.5 -62l-41 -205h-233z" />
    <glyph glyph-name="uni03BC" unicode="&#x3bc;" horiz-adv-x="563" 
d="M536 487l-97 -487h-84l12 63q-30 -37 -69 -56t-85 -19q-72 0 -101 43q-6 -59 -18 -118l-22 -114h-85l137 688h85l-56 -282q-6 -24 -6 -55q0 -45 22.5 -66t69.5 -21q62 0 101.5 35.5t54.5 104.5l56 284h85z" />
    <glyph glyph-name="pi" unicode="&#x3c0;" horiz-adv-x="673" 
d="M442.5 18.5q-31.5 26.5 -31.5 83.5q0 23 7 61l51 252h-196l-82 -415h-87l83 415h-99l14 72h565l-15 -72h-97l-50 -252q-4 -17 -4 -36q0 -31 16.5 -46t51.5 -15q9 0 13 1l-15 -73q-18 -2 -26 -2q-67 0 -98.5 26.5z" />
    <glyph glyph-name="Wgrave" unicode="&#x1e80;" horiz-adv-x="896" 
d="M980 706l-333 -706h-100l-36 579l-258 -579h-96l-56 706h87l42 -574l253 574h100l38 -572l265 572h94zM543 777l-104 128h92l96 -128h-84z" />
    <glyph glyph-name="wgrave" unicode="&#x1e81;" horiz-adv-x="752" 
d="M784 487l-265 -487h-87l-35 370l-177 -370h-85l-69 487h88l41 -375l184 375h78l38 -374l191 374h98zM421 572l-75 154h84l67 -154h-76z" />
    <glyph glyph-name="Wacute" unicode="&#x1e82;" horiz-adv-x="896" 
d="M980 706l-333 -706h-100l-36 579l-258 -579h-96l-56 706h87l42 -574l253 574h100l38 -572l265 572h94zM605 905h105l-141 -128h-97z" />
    <glyph glyph-name="wacute" unicode="&#x1e83;" horiz-adv-x="752" 
d="M784 487l-265 -487h-87l-35 370l-177 -370h-85l-69 487h88l41 -375l184 375h78l38 -374l191 374h98zM480 726h95l-127 -154h-87z" />
    <glyph glyph-name="Wdieresis" unicode="&#x1e84;" horiz-adv-x="896" 
d="M980 706l-333 -706h-100l-36 579l-258 -579h-96l-56 706h87l42 -574l253 574h100l38 -572l265 572h94zM417.5 812q-15.5 15 -15.5 38t15.5 38.5t39.5 15.5q23 0 39 -15.5t16 -38.5t-16 -38t-39 -15q-24 0 -39.5 15zM625.5 812q-15.5 15 -15.5 38t15.5 38.5t39.5 15.5
q23 0 39.5 -15.5t16.5 -38.5t-16 -38t-40 -15t-39.5 15z" />
    <glyph glyph-name="wdieresis" unicode="&#x1e85;" horiz-adv-x="752" 
d="M784 487l-265 -487h-87l-35 370l-177 -370h-85l-69 487h88l41 -375l184 375h78l38 -374l191 374h98zM309 601.5q-16 15.5 -16 38.5q0 24 16 40t40 16q23 0 39.5 -16t16.5 -40q0 -23 -16.5 -38.5t-39.5 -15.5q-24 0 -40 15.5zM498.5 601.5q-15.5 15.5 -15.5 38.5
q0 24 15.5 40t40.5 16q23 0 39.5 -16t16.5 -40q0 -23 -16.5 -38.5t-39.5 -15.5q-25 0 -40.5 15.5z" />
    <glyph glyph-name="Germandbls" unicode="&#x1e9e;" horiz-adv-x="657" 
d="M676 702l-210 -297q71 -16 106.5 -61.5t35.5 -111.5q0 -72 -36 -125t-101 -81.5t-150 -28.5q-61 0 -101 8l16 80q35 -7 85 -7q61 0 104.5 18.5t66 54t22.5 83.5q0 57 -38.5 87.5t-115.5 30.5q-14 0 -26 -2v3l192 273h-266l-126 -626h-92l141 706h494z" />
    <glyph glyph-name="Ygrave" unicode="&#x1ef2;" horiz-adv-x="563" 
d="M249 304l-148 402h93l115 -311l230 311h108l-306 -402l-61 -304h-92zM374 777l-104 128h92l96 -128h-84z" />
    <glyph glyph-name="ygrave" unicode="&#x1ef3;" horiz-adv-x="510" 
d="M542 487l-422 -688h-95l124 202l-83 486h88l61 -388l228 388h99zM302 572l-75 154h84l67 -154h-76z" />
    <glyph glyph-name="uni2009" unicode="&#x2009;" horiz-adv-x="73" 
 />
    <glyph glyph-name="uni2011" unicode="&#x2011;" horiz-adv-x="600" 
d="M70 323h279l-16 -78h-279z" />
    <glyph glyph-name="endash" unicode="&#x2013;" horiz-adv-x="493" 
d="M70 323h385l-15 -76h-385z" />
    <glyph glyph-name="emdash" unicode="&#x2014;" horiz-adv-x="962" 
d="M70 323h854l-15 -76h-854z" />
    <glyph glyph-name="quoteleft" unicode="&#x2018;" horiz-adv-x="244" 
d="M174 425h-95l142 281h73z" />
    <glyph glyph-name="quoteright" unicode="&#x2019;" horiz-adv-x="244" 
d="M199 706h95l-142 -281h-73z" />
    <glyph glyph-name="quotesinglbase" unicode="&#x201a;" horiz-adv-x="244" 
d="M87 146h95l-142 -281h-73z" />
    <glyph glyph-name="quotedblleft" unicode="&#x201c;" horiz-adv-x="423" 
d="M174 425h-95l142 281h73zM353 425h-95l142 281h73z" />
    <glyph glyph-name="quotedblright" unicode="&#x201d;" horiz-adv-x="423" 
d="M378 706h95l-142 -281h-73zM199 706h95l-142 -281h-73z" />
    <glyph glyph-name="quotedblbase" unicode="&#x201e;" horiz-adv-x="423" 
d="M266 146h95l-142 -281h-73zM87 146h95l-142 -281h-73z" />
    <glyph glyph-name="dagger" unicode="&#x2020;" horiz-adv-x="396" 
d="M413 462h-127l-92 -462h-89l92 462h-127l16 79h127l33 165h89l-33 -165h127z" />
    <glyph glyph-name="daggerdbl" unicode="&#x2021;" horiz-adv-x="396" 
d="M288 469l-47 -232h127l-16 -79h-126l-32 -158h-89l32 158h-128l16 79h127l47 232h-128l16 79h127l32 158h89l-32 -158h127l-16 -79h-126z" />
    <glyph glyph-name="bullet" unicode="&#x2022;" horiz-adv-x="429" 
d="M179.5 266.5q-25.5 14.5 -39.5 40t-14 59.5q0 53 30.5 82.5t82.5 29.5q51 0 81.5 -29.5t30.5 -82.5q0 -34 -14 -59.5t-39.5 -40t-58.5 -14.5q-34 0 -59.5 14.5z" />
    <glyph glyph-name="ellipsis" unicode="&#x2026;" horiz-adv-x="727" 
d="M279 3q-17 17 -17 43q0 28 17 45t45 17q27 0 44.5 -17.5t17.5 -44.5q0 -26 -18 -43t-44 -17q-28 0 -45 17zM504 3q-17 17 -17 43q0 28 17 45t45 17q27 0 44.5 -17.5t17.5 -44.5q0 -26 -18 -43t-44 -17q-28 0 -45 17zM55 3q-17 17 -17 43q0 28 17 45t45 17
q27 0 44.5 -17.5t17.5 -44.5q0 -26 -18 -43t-44 -17q-28 0 -45 17z" />
    <glyph glyph-name="perthousand" unicode="&#x2030;" horiz-adv-x="1114" 
d="M137 438.5q-29 35.5 -29 95.5q0 51 18.5 91.5t53.5 64t84 23.5q61 0 90 -35.5t29 -95.5q0 -50 -18.5 -91t-53.5 -64.5t-83 -23.5q-62 0 -91 35.5zM666 706h78l-616 -706h-78zM299 494q22 35 22 87q0 77 -62 77q-45 0 -67.5 -35.5t-22.5 -88.5q0 -75 62 -75q46 0 68 35z
M441.5 28.5q-29.5 35.5 -29.5 95.5q0 51 18.5 91.5t53.5 64t84 23.5q61 0 90 -35.5t29 -95.5q0 -50 -18.5 -91t-53.5 -64.5t-83 -23.5q-61 0 -90.5 35.5zM805 28.5q-29 35.5 -29 95.5q0 51 18.5 91.5t53.5 64t84 23.5q61 0 89.5 -35t28.5 -96q0 -50 -18 -91t-53 -64.5
t-84 -23.5q-61 0 -90 35.5zM603 84q22 35 22 87q0 77 -62 77q-45 0 -67.5 -35.5t-22.5 -88.5q0 -75 62 -75q46 0 68 35zM967 84q22 35 22 87q0 77 -62 77q-45 0 -67.5 -35.5t-22.5 -88.5q0 -75 62 -75q46 0 68 35z" />
    <glyph glyph-name="guilsinglleft" unicode="&#x2039;" horiz-adv-x="288" 
d="M29 283l181 159h101l-188 -166l114 -157h-89z" />
    <glyph glyph-name="guilsinglright" unicode="&#x203a;" horiz-adv-x="288" 
d="M273 279l-181 -160h-100l188 166l-115 157h89z" />
    <glyph glyph-name="fraction" unicode="&#x2044;" horiz-adv-x="197" 
d="M361 706h71l-551 -706h-73z" />
    <glyph glyph-name="zero.superior" unicode="&#x2070;" horiz-adv-x="428" 
d="M159 472q-35 43 -35 116q0 31 7 69q17 81 64 129.5t122 48.5q74 0 109 -43t35 -116q0 -30 -7 -69q-15 -80 -62.5 -129t-123.5 -49q-74 0 -109 43zM343.5 525.5q27.5 33.5 38.5 89.5q6 30 6 61q0 96 -74 96q-45 0 -72.5 -33.5t-38.5 -89.5q-6 -30 -6 -61q0 -96 74 -96
q45 0 72.5 33.5z" />
    <glyph glyph-name="four.superior" unicode="&#x2074;" horiz-adv-x="377" 
d="M293 530h-231v2l230 294h130l-48 -235h58l-12 -61h-58l-18 -92h-70zM305 591l42 211l-164 -211h122z" />
    <glyph glyph-name="five.superior" unicode="&#x2075;" horiz-adv-x="375" 
d="M131.5 458.5q-34.5 29.5 -34.5 81.5q0 11 2 23h67l-1 -16q0 -61 74 -61q42 0 66 22t24 58q0 37 -28.5 57.5t-83.5 20.5q-51 0 -88 -11l72 193h230l-20 -55h-163l-30 -80q14 3 36 3q74 0 111 -33.5t37 -89.5q0 -42 -21 -74.5t-58.5 -50t-86.5 -17.5q-70 0 -104.5 29.5z
" />
    <glyph glyph-name="six.superior" unicode="&#x2076;" horiz-adv-x="416" 
d="M378.5 675.5q29.5 -15.5 44 -41.5t14.5 -58q0 -42 -22.5 -75.5t-61 -52.5t-85.5 -19q-81 0 -117.5 41.5t-36.5 113.5q0 70 25 127t71.5 90.5t110.5 33.5t99 -31t38 -84h-69q-6 60 -76 60q-49 0 -81 -36.5t-42 -94.5q22 20 52 31t65 11q42 0 71.5 -15.5zM337.5 510
q24.5 25 24.5 62q0 32 -19 49t-58 17q-29 0 -51 -12t-34 -31.5t-12 -41.5q0 -31 21 -49.5t59 -18.5q45 0 69.5 25z" />
    <glyph glyph-name="seven.superior" unicode="&#x2077;" horiz-adv-x="335" 
d="M308 763h-178l13 63h292l-252 -388h-86z" />
    <glyph glyph-name="eight.superior" unicode="&#x2078;" horiz-adv-x="387" 
d="M417.5 676q-23.5 -27 -65.5 -35q30 -10 45.5 -33t15.5 -56q0 -39 -21.5 -66.5t-58.5 -42t-84 -14.5q-74 0 -113 29.5t-39 83.5q0 43 27.5 71t75.5 35q-28 11 -42 32t-14 49q0 33 20 57t54.5 36.5t76.5 12.5q70 0 108 -25.5t38 -72.5q0 -34 -23.5 -61zM348.5 687
q22.5 17 22.5 47q0 52 -78 52q-37 0 -58.5 -16t-21.5 -47q0 -26 19.5 -39.5t56.5 -13.5t59.5 17zM318 503q25 20 25 53q0 28 -21 43.5t-62 15.5q-40 0 -65.5 -19t-25.5 -52q0 -29 21.5 -45t61.5 -16q41 0 66 20z" />
    <glyph glyph-name="nine.superior" unicode="&#x2079;" horiz-adv-x="416" 
d="M477 680q0 -70 -24.5 -127t-71 -90.5t-110.5 -33.5t-99 31t-38 84h68q6 -60 76 -60q50 0 82 36.5t42 95.5q-22 -21 -52.5 -32t-65.5 -11q-42 0 -71 15.5t-43.5 41.5t-14.5 58q0 42 22.5 75.5t60.5 52.5t85 19q154 0 154 -155zM358 638q22 12 33.5 31.5t11.5 41.5
q0 31 -20.5 49.5t-59.5 18.5q-30 0 -51 -11.5t-32 -31.5t-11 -44q0 -31 19.5 -48.5t58.5 -17.5q29 0 51 12z" />
    <glyph glyph-name="uni207A" unicode="&#x207a;" horiz-adv-x="349" 
d="M389 608h-115l-22 -110h-54l22 110h-114l11 55h114l22 110h54l-22 -110h115z" />
    <glyph glyph-name="uni207B" unicode="&#x207b;" horiz-adv-x="349" 
d="M117 663h283l-11 -55h-283z" />
    <glyph glyph-name="uni207C" unicode="&#x207c;" horiz-adv-x="348" 
d="M127 714h282l-10 -49h-281zM105 605h282l-10 -49h-282z" />
    <glyph glyph-name="uni207D" unicode="&#x207d;" horiz-adv-x="249" 
d="M155 457q-9 45 -9 96q0 98 35.5 183t103.5 166h67q-149 -171 -149 -355q0 -92 34 -184h-55q-18 49 -27 94z" />
    <glyph glyph-name="uni207E" unicode="&#x207e;" horiz-adv-x="249" 
d="M250 807.5q9 -45.5 9 -96.5q0 -98 -35.5 -182t-103.5 -166h-67q72 83 110.5 171t38.5 183q0 49 -8.5 94t-25.5 91h55q18 -49 27 -94.5z" />
    <glyph glyph-name="n.superior" unicode="&#x207f;" horiz-adv-x="380" 
d="M377.5 715.5q24.5 -25.5 24.5 -73.5q0 -21 -4 -42l-33 -162h-66l31 157q4 24 4 32q0 28 -13.5 41.5t-42.5 13.5q-33 0 -53.5 -18.5t-27.5 -54.5l-34 -171h-67l59 295h63l-7 -34q36 42 95 42q47 0 71.5 -25.5z" />
    <glyph glyph-name="zero.inferior" unicode="&#x2080;" horiz-adv-x="428" 
d="M47 -86q-35 43 -35 116q0 31 7 69q17 81 64 129.5t122 48.5q74 0 109 -43t35 -116q0 -30 -7 -69q-15 -80 -62.5 -129t-123.5 -49q-74 0 -109 43zM231.5 -32.5q27.5 33.5 38.5 89.5q6 30 6 61q0 96 -74 96q-45 0 -72.5 -33.5t-38.5 -89.5q-6 -30 -6 -61q0 -96 74 -96
q45 0 72.5 33.5z" />
    <glyph glyph-name="one.inferior" unicode="&#x2081;" horiz-adv-x="264" 
d="M96 203h-78l24 65h140l-78 -388h-73z" />
    <glyph glyph-name="two.inferior" unicode="&#x2082;" horiz-adv-x="353" 
d="M-51 -116l204 172q30 25 45.5 41t24.5 33t9 37q0 25 -16 39t-49 14q-40 0 -60 -22t-28 -58h-69q12 64 52 101t107 37q66 0 99.5 -28t33.5 -79q0 -39 -19.5 -68t-58.5 -61l-120 -97h156l-13 -65h-299z" />
    <glyph glyph-name="three.inferior" unicode="&#x2083;" horiz-adv-x="370" 
d="M288.5 116.5q-22.5 -24.5 -61.5 -36.5q29 -10 43 -30.5t14 -51.5q0 -40 -20.5 -69t-57.5 -44t-84 -15q-72 0 -106.5 30.5t-34.5 86.5q0 16 3 34h65q-3 -13 -3 -25q0 -33 19 -51t58 -18q42 0 66.5 20t24.5 54q0 30 -19.5 43t-59.5 13h-14l10 50h21q42 0 65 16t23 46
q0 24 -16.5 38t-49.5 14q-40 0 -62.5 -21.5t-29.5 -53.5h-65q11 60 54.5 96t113.5 36q61 0 93.5 -27.5t32.5 -73.5q0 -36 -22.5 -60.5z" />
    <glyph glyph-name="four.inferior" unicode="&#x2084;" horiz-adv-x="377" 
d="M181 -28h-231v2l230 294h130l-48 -235h58l-12 -61h-58l-18 -92h-70zM193 33l42 211l-164 -211h122z" />
    <glyph glyph-name="five.inferior" unicode="&#x2085;" horiz-adv-x="375" 
d="M19.5 -99.5q-34.5 29.5 -34.5 81.5q0 11 2 23h67l-1 -16q0 -61 74 -61q42 0 66 22t24 58q0 37 -28.5 57.5t-83.5 20.5q-51 0 -88 -11l72 193h230l-20 -55h-163l-30 -80q14 3 36 3q74 0 111 -33.5t37 -89.5q0 -42 -21 -74.5t-58.5 -50t-86.5 -17.5q-70 0 -104.5 29.5z" />
    <glyph glyph-name="six.inferior" unicode="&#x2086;" horiz-adv-x="416" 
d="M266.5 117.5q29.5 -15.5 44 -41.5t14.5 -58q0 -42 -22.5 -75.5t-61 -52.5t-85.5 -19q-81 0 -117.5 41.5t-36.5 113.5q0 70 25 127t71.5 90.5t110.5 33.5t99 -31t38 -84h-69q-6 60 -76 60q-49 0 -81 -36.5t-42 -94.5q22 20 52 31t65 11q42 0 71.5 -15.5zM225.5 -48
q24.5 25 24.5 62q0 32 -19 49t-58 17q-29 0 -51 -12t-34 -31.5t-12 -41.5q0 -31 21 -49.5t59 -18.5q45 0 69.5 25z" />
    <glyph glyph-name="seven.inferior" unicode="&#x2087;" horiz-adv-x="335" 
d="M196 205h-178l13 63h292l-252 -388h-86z" />
    <glyph glyph-name="eight.inferior" unicode="&#x2088;" horiz-adv-x="387" 
d="M305.5 118q-23.5 -27 -65.5 -35q30 -10 45.5 -33t15.5 -56q0 -39 -21.5 -66.5t-58.5 -42t-84 -14.5q-74 0 -113 29.5t-39 83.5q0 43 27.5 71t75.5 35q-28 11 -42 32t-14 49q0 33 20 57t54.5 36.5t76.5 12.5q70 0 108 -25.5t38 -72.5q0 -34 -23.5 -61zM236.5 129
q22.5 17 22.5 47q0 52 -78 52q-37 0 -58.5 -16t-21.5 -47q0 -26 19.5 -39.5t56.5 -13.5t59.5 17zM206 -55q25 20 25 53q0 28 -21 43.5t-62 15.5q-40 0 -65.5 -19t-25.5 -52q0 -29 21.5 -45t61.5 -16q41 0 66 20z" />
    <glyph glyph-name="nine.inferior" unicode="&#x2089;" horiz-adv-x="416" 
d="M365 122q0 -70 -24.5 -127t-71 -90.5t-110.5 -33.5t-99 31t-38 84h68q6 -60 76 -60q50 0 82 36.5t42 95.5q-22 -21 -52.5 -32t-65.5 -11q-42 0 -71 15.5t-43.5 41.5t-14.5 58q0 42 22.5 75.5t60.5 52.5t85 19q154 0 154 -155zM246 80q22 12 33.5 31.5t11.5 41.5
q0 31 -20.5 49.5t-59.5 18.5q-30 0 -51 -11.5t-32 -31.5t-11 -44q0 -31 19.5 -48.5t58.5 -17.5q29 0 51 12z" />
    <glyph glyph-name="uni208A" unicode="&#x208a;" horiz-adv-x="349" 
d="M277 50h-115l-22 -110h-54l22 110h-114l11 55h114l22 110h54l-22 -110h115z" />
    <glyph glyph-name="uni208B" unicode="&#x208b;" horiz-adv-x="349" 
d="M5 105h283l-11 -55h-283z" />
    <glyph glyph-name="uni208C" unicode="&#x208c;" horiz-adv-x="347" 
d="M15 156h282l-10 -49h-281zM-7 47h282l-10 -49h-282z" />
    <glyph glyph-name="uni208D" unicode="&#x208d;" horiz-adv-x="249" 
d="M43 -101q-9 45 -9 96q0 98 35.5 183t103.5 166h67q-149 -171 -149 -355q0 -92 34 -184h-55q-18 49 -27 94z" />
    <glyph glyph-name="uni208E" unicode="&#x208e;" horiz-adv-x="249" 
d="M138 249.5q9 -45.5 9 -96.5q0 -98 -35.5 -182t-103.5 -166h-67q72 83 110.5 171t38.5 183q0 49 -8.5 94t-25.5 91h55q18 -49 27 -94.5z" />
    <glyph glyph-name="uni2099" unicode="&#x2099;" horiz-adv-x="380" 
d="M259.5 125.5q24.5 -25.5 24.5 -73.5q0 -21 -4 -42l-33 -162h-66l31 157q4 24 4 32q0 28 -13.5 41.5t-42.5 13.5q-33 0 -53.5 -18.5t-27.5 -54.5l-34 -171h-67l59 295h63l-7 -34q36 42 95 42q47 0 71.5 -25.5z" />
    <glyph glyph-name="Euro" unicode="&#x20ac;" horiz-adv-x="735" 
d="M635 451q1 9 1 20q0 53 -20 91t-58 58.5t-91 20.5q-85 0 -146 -52t-93 -139h264l-11 -53h-269q-9 -42 -12 -86h264l-11 -52h-254q4 -92 47 -143t129 -51q85 0 140.5 47t77.5 129h96q-17 -80 -62 -138t-111.5 -88.5t-145.5 -30.5q-133 0 -197.5 73.5t-68.5 201.5h-61
l11 52h51q3 40 11 86h-45l10 53h50q26 80 74 141t116.5 96t152.5 35q79 0 136.5 -30t88 -85.5t30.5 -129.5q0 -15 -2 -26h-92z" />
    <glyph glyph-name="uni20B9" unicode="&#x20b9;" horiz-adv-x="653" 
d="M713 651h-189q46 -42 49 -127h116l-11 -55h-108q-12 -85 -74.5 -130.5t-169.5 -45.5h-42l221 -293h-103l-261 354h168q74 0 116.5 28.5t54.5 86.5h-362l11 55h355q-2 55 -30 83.5t-90 28.5h-213l13 70h560z" />
    <glyph glyph-name="uni20BA" unicode="&#x20ba;" horiz-adv-x="580" 
d="M568 302q-20 -101 -58 -167t-106 -100.5t-175 -34.5h-163l49 244l-82 -34l12 60l82 35l20 98l-82 -33l12 60l82 34l48 242h90l-41 -206l207 87l-13 -60l-206 -87l-20 -98l206 86l-12 -61l-206 -86l-40 -202h55q81 0 132 26t79 74.5t43 122.5h87z" />
    <glyph glyph-name="uni20BC" unicode="&#x20bc;" horiz-adv-x="808" 
d="M692.5 566q50.5 -55 50.5 -148q0 -41 -9 -88l-65 -330h-89l67 343q8 37 8 69q0 62 -33 100t-108 40l-110 -552h-92l110 552h-1q-98 0 -148 -54.5t-69 -148.5l-68 -349h-92l69 355q52 272 317 272h7l16 79h92l-16 -79q113 -6 163.5 -61z" />
    <glyph glyph-name="uni2113" unicode="&#x2113;" horiz-adv-x="423" 
d="M411 678q31 -35 31 -113q0 -43 -11 -104q-23 -114 -93 -181t-190 -90q-1 -10 -1 -26q0 -53 24.5 -75.5t75.5 -22.5q41 0 89 16l-15 -76q-43 -12 -90 -12q-85 0 -128 39t-43 124q0 14 1 22q-38 -2 -59 -2l14 65q21 0 55 2l51 254q15 77 40.5 124.5t62.5 69t89 21.5
q66 0 97 -35zM356 564q0 47 -12 65.5t-38 18.5q-23 0 -40.5 -13t-31 -42.5t-23.5 -80.5l-51 -253q78 22 123 73t62 132q11 57 11 100z" />
    <glyph glyph-name="uni2117" unicode="&#x2117;" horiz-adv-x="812" 
d="M218.5 24.5q-72.5 40.5 -110 113t-37.5 167.5q0 113 51.5 208.5t141.5 152t201 56.5q100 0 172.5 -39.5t110 -111.5t37.5 -167q0 -114 -51 -210.5t-141 -153t-201 -56.5q-101 0 -173.5 40.5zM570 82.5q78 50.5 121 135.5t43 186q0 81 -31.5 142t-92.5 94t-146 33
q-99 0 -177 -49.5t-121.5 -134t-43.5 -184.5q0 -81 32 -143t93 -96t147 -34q98 0 176 50.5zM350 590h137q65 0 99 -29.5t34 -92.5q0 -46 -19 -80t-55 -52.5t-85 -18.5h-93l-39 -197h-73zM451 374q47 0 70 23.5t23 65.5q0 38 -19 53.5t-53 15.5h-60l-33 -158h72z" />
    <glyph glyph-name="trademark" unicode="&#x2122;" horiz-adv-x="650" 
d="M168 655h-75l10 51h211l-10 -51h-75l-52 -259h-61zM347 706h71l50 -229l142 229h78l-62 -310h-58l45 226l-141 -226h-33l-51 226l-45 -226h-58z" />
    <glyph glyph-name="Omega" unicode="&#x2126;" horiz-adv-x="701" 
d="M38 72h156l17 82q-65 30 -94.5 88.5t-29.5 142.5q0 98 41.5 174.5t117 119.5t175.5 43q136 0 201.5 -67.5t65.5 -186.5q0 -77 -28.5 -143.5t-81.5 -114t-125 -67.5l-15 -71h157l-14 -72h-233l41 205q64 9 110.5 46.5t70.5 93.5t24 121q0 84 -43 132.5t-134 48.5
q-74 0 -127.5 -34.5t-81.5 -94.5t-28 -135q0 -71 27.5 -116t89.5 -62l-41 -205h-233z" />
    <glyph glyph-name="estimated" unicode="&#x212e;" horiz-adv-x="852" 
d="M241 32.5q-87 43.5 -139.5 121.5t-52.5 176q0 96 51 174t138 122.5t190 44.5q102 0 188.5 -45t138 -124.5t51.5 -177.5h-608q-6 0 -8 -2.5t-2 -8.5v-197q47 -51 110 -78.5t130 -27.5q73 0 139 32.5t113 88.5h57q-56 -68 -138 -105t-171 -37q-100 0 -187 43.5zM659 347
q5 0 7 2.5t2 8.5v184q-44 51 -108 79.5t-132 28.5q-70 0 -133 -28.5t-107 -78.5v-185q0 -6 2 -8.5t8 -2.5h461z" />
    <glyph glyph-name="partialdiff" unicode="&#x2202;" horiz-adv-x="614" 
d="M601 454q0 -126 -40.5 -233.5t-117.5 -172t-182 -64.5q-76 0 -127.5 27t-76.5 74.5t-25 108.5q0 74 33.5 134t92.5 94.5t134 34.5q86 0 136.5 -40t62.5 -109q10 38 15.5 76t5.5 69q0 90 -33 142.5t-108 52.5q-66 0 -107 -37.5t-61 -94.5h-89q18 59 53 105.5t88 73.5
t120 27q226 0 226 -268zM361.5 85q42.5 25 66.5 66.5t24 90.5q0 66 -37 105.5t-109 39.5q-53 0 -93.5 -25t-62.5 -68t-22 -96q0 -63 34 -100.5t103 -37.5q54 0 96.5 25z" />
    <glyph glyph-name="Delta" unicode="&#x2206;" horiz-adv-x="630" 
d="M573 0h-613l378 706h139zM473 75l-73 562h-2l-297 -562h372z" />
    <glyph glyph-name="product" unicode="&#x220f;" horiz-adv-x="691" 
d="M183 706h510l-181 -907h-93l165 827h-324l-165 -827h-93z" />
    <glyph glyph-name="summation" unicode="&#x2211;" horiz-adv-x="533" 
d="M274 264l-146 442h445l-15 -79h-308l123 -376l-268 -373h315l-15 -79h-466z" />
    <glyph glyph-name="minus" unicode="&#x2212;" horiz-adv-x="577" 
d="M69 320h469l-15 -72h-468z" />
    <glyph glyph-name="uni2215" unicode="&#x2215;" horiz-adv-x="577" 
d="M493 706h88l-419 -706h-88z" />
    <glyph glyph-name="uni2219" unicode="&#x2219;" horiz-adv-x="577" 
d="M269 327q-17 17 -17 43q0 28 17 45t45 17q27 0 44.5 -17.5t17.5 -44.5q0 -26 -18 -43t-44 -17q-28 0 -45 17z" />
    <glyph glyph-name="radical" unicode="&#x221a;" horiz-adv-x="640" 
d="M724 706l-461 -912h-97l-73 428l-93 -30l18 88l153 45l60 -416l392 797h101z" />
    <glyph glyph-name="infinity" unicode="&#x221e;" horiz-adv-x="830" 
d="M750 402.5q38 -49.5 38 -129.5q0 -63 -25.5 -117.5t-72.5 -87t-108 -32.5q-68 0 -109 37t-68 102q-49 -66 -98 -102.5t-112 -36.5q-77 0 -115 49.5t-38 129.5q0 63 25.5 117.5t73 87t108.5 32.5q67 0 107 -37t70 -103q49 66 97.5 103t112.5 37q76 0 114 -49.5zM269 130.5
q28 17.5 52 45.5t54 73q-14 39 -30 66t-39 43.5t-56 16.5q-39 0 -68 -22t-44 -57.5t-15 -74.5q0 -48 21.5 -78t63.5 -30q33 0 61 17.5zM648.5 135.5q28.5 22.5 44 58t15.5 73.5q0 47 -21.5 77.5t-64.5 30.5q-33 0 -61 -17.5t-52 -46t-52 -72.5q21 -60 49 -93t76 -33
q38 0 66.5 22.5z" />
    <glyph glyph-name="integral" unicode="&#x222b;" horiz-adv-x="354" 
d="M-89 -200l29 76q13 -2 28 -2q35 0 56 17t31 54l175 637q18 66 56.5 97t103.5 31q23 0 56 -5l-30 -77q-12 2 -21 2q-33 0 -53.5 -17.5t-30.5 -55.5l-176 -635q-18 -66 -56 -97t-102 -31q-32 0 -66 6z" />
    <glyph glyph-name="approxequal" unicode="&#x2248;" horiz-adv-x="577" 
d="M359 315q-17 6 -31 15.5t-25 18.5q-22 18 -35.5 25t-33.5 7q-30 0 -47 -17.5t-28 -49.5h-65q17 62 51 97.5t88 35.5q30 0 50.5 -10t44.5 -30q18 -17 32.5 -24.5t36.5 -7.5q29 0 46 17t27 48h65q-20 -65 -52.5 -98t-84.5 -33q-22 0 -39 6zM321 127q-17 6 -28 13.5
t-28 21.5q-21 17 -35 24.5t-34 7.5q-29 0 -46.5 -18t-27.5 -49h-65q17 62 51 97.5t87 35.5q31 0 52 -10t43 -30q18 -16 33 -24t36 -8q29 0 46 16.5t27 48.5h66q-20 -65 -52.5 -98.5t-85.5 -33.5q-22 0 -39 6z" />
    <glyph glyph-name="notequal" unicode="&#x2260;" horiz-adv-x="577" 
d="M385 347l-110 -125h244l-15 -72h-285l-101 -116h-66l101 116h-118l15 72h159l110 125h-244l14 72h285l101 115h66l-101 -115h118l-15 -72h-158z" />
    <glyph glyph-name="lessequal" unicode="&#x2264;" horiz-adv-x="577" 
d="M567 463l-446 -122l397 -122l-15 -75l-440 142l14 69l8 40l497 144zM26 101h469l-15 -72h-469z" />
    <glyph glyph-name="greaterequal" unicode="&#x2265;" horiz-adv-x="577" 
d="M539 328l-8 -42l-497 -142l15 75l446 123l-397 121l15 76l440 -144zM26 101h468l-14 -72h-469z" />
    <glyph glyph-name="lozenge" unicode="&#x25ca;" horiz-adv-x="512" 
d="M491 253l-273 -454h-100l-92 454l273 453h100zM404 267l-68 352l-223 -381l66 -353z" />
    <glyph glyph-name="ff" unicode="&#xfb00;" horiz-adv-x="665" 
d="M130 415h-75l15 72h74l18 91q15 72 57.5 105.5t117.5 33.5q33 0 66 -7l-15 -72q-24 6 -43 6q-82 0 -101 -87l-14 -70h126l-15 -72h-125l-83 -415h-86zM464 415h-75l15 72h74l18 91q15 72 57.5 105.5t117.5 33.5q33 0 66 -7l-15 -72q-24 6 -43 6q-82 0 -101 -87l-14 -70
h126l-15 -72h-125l-83 -415h-86z" />
    <glyph glyph-name="fi" unicode="&#xfb01;" horiz-adv-x="568" 
d="M130 415h-75l15 72h74l18 91q15 72 57.5 105.5t117.5 33.5q33 0 66 -7l-15 -72q-24 6 -43 6q-82 0 -101 -87l-14 -70h126l-15 -72h-125l-83 -415h-86zM491 609q-16 16 -16 40q0 25 16 41t41 16q24 0 40.5 -16t16.5 -41q0 -24 -16.5 -40t-40.5 -16q-25 0 -41 16zM455 487
h87l-98 -487h-86z" />
    <glyph glyph-name="fl" unicode="&#xfb02;" horiz-adv-x="568" 
d="M130 415h-75l15 72h74l18 91q15 72 57.5 105.5t117.5 33.5q33 0 66 -7l-15 -72q-24 6 -43 6q-82 0 -101 -87l-14 -70h126l-15 -72h-125l-83 -415h-86zM499 706h86l-141 -706h-86z" />
    <glyph glyph-name="ffi" unicode="&#xfb03;" horiz-adv-x="902" 
d="M130 415h-75l15 72h74l18 91q15 72 57.5 105.5t117.5 33.5q33 0 66 -7l-15 -72q-24 6 -43 6q-82 0 -101 -87l-14 -70h126l-15 -72h-125l-83 -415h-86zM464 415h-75l15 72h74l18 91q15 72 57.5 105.5t117.5 33.5q33 0 66 -7l-15 -72q-24 6 -43 6q-82 0 -101 -87l-14 -70
h126l-15 -72h-125l-83 -415h-86zM825 609q-16 16 -16 40q0 25 16 41t41 16q24 0 40.5 -16t16.5 -41q0 -24 -16.5 -40t-40.5 -16q-25 0 -41 16zM789 487h87l-98 -487h-86z" />
    <glyph glyph-name="ffl" unicode="&#xfb04;" horiz-adv-x="902" 
d="M130 415h-75l15 72h74l18 91q15 72 57.5 105.5t117.5 33.5q33 0 66 -7l-15 -72q-24 6 -43 6q-82 0 -101 -87l-14 -70h126l-15 -72h-125l-83 -415h-86zM464 415h-75l15 72h74l18 91q15 72 57.5 105.5t117.5 33.5q33 0 66 -7l-15 -72q-24 6 -43 6q-82 0 -101 -87l-14 -70
h126l-15 -72h-125l-83 -415h-86zM833 706h86l-141 -706h-86z" />
    <glyph glyph-name="uniFEFF" unicode="&#xfeff;" 
 />
    <glyph glyph-name="uni00A40301" horiz-adv-x="355" 
d="M-30 2l17 85q23 -5 47 -5q46 0 75.5 14t48 44.5t28.5 82.5l97 483h93l-102 -510q-20 -103 -77 -151t-160 -48q-38 0 -67 5zM397 905h105l-141 -128h-97z" />
    <glyph glyph-name="M.ss01" horiz-adv-x="801" 
d="M183 706h109l133 -313l254 313h124l-141 -706h-89l119 596l-264 -322h-42l-136 322l-119 -596h-89z" />
    <glyph glyph-name="Q.ss02" horiz-adv-x="726" 
d="M673 249.5q-29 -87.5 -84.5 -151.5t-132.5 -93l45 -134l-86 -30l-43 145q-24 -2 -36 -2q-138 0 -203 77.5t-65 208.5q0 122 43.5 225.5t126.5 165t195 61.5q93 0 153 -36.5t88 -100.5t28 -148q0 -100 -29 -187.5zM485 117.5q60 52.5 91 138t31 182.5q0 93 -43.5 148
t-137.5 55q-82 0 -142 -52.5t-91 -137.5t-31 -182q0 -93 44 -148.5t137 -55.5q82 0 142 52.5z" />
    <glyph glyph-name="Oslash.ss04" horiz-adv-x="726" 
d="M669 595q33 -65 33 -158q0 -123 -43.5 -226.5t-126.5 -165t-196 -61.5q-123 0 -192 66l-111 -112l-58 57l123 120q-30 63 -30 155q0 122 43.5 225.5t126.5 165t195 61.5q120 0 188 -63l108 109l58 -57zM485 117.5q60 52.5 91 138t31 182.5q0 93 -43.5 148t-137.5 55
q-82 0 -142 -52.5t-91 -137.5t-31 -182q0 -93 44 -148.5t137 -55.5q82 0 142 52.5z" />
    <glyph glyph-name="i.loclTRK" horiz-adv-x="237" 
d="M124 487h87l-98 -487h-86zM160 609.5q-16 15.5 -16 39.5q0 25 16 41t41 16q24 0 41 -16.5t17 -40.5t-17 -39.5t-41 -15.5q-25 0 -41 15.5z" />
    <glyph glyph-name="uni006A0301" horiz-adv-x="237" 
d="M-109 -200l15 76q12 -2 29 -2q36 0 55 17t26 56l108 540h87l-113 -564q-13 -67 -50 -97t-104 -30q-29 0 -53 4zM232 726h93l-111 -154h-84z" />
    <glyph glyph-name="oslash.ss04" horiz-adv-x="549" 
d="M479 412q30 -51 30 -126q0 -83 -32.5 -151t-93 -107.5t-142.5 -39.5q-74 0 -123 34l-63 -74l-58 48l72 80q-29 51 -29 123q0 83 33 151.5t94 108.5t140 40q73 0 122 -33l65 75l57 -49zM342 95.5q39 31.5 58 82t19 108.5q0 64 -28 100.5t-89 36.5q-55 0 -94 -32.5
t-58.5 -83.5t-19.5 -106q0 -64 28.5 -100.5t88.5 -36.5q56 0 95 31.5z" />
    <glyph glyph-name="f_i" horiz-adv-x="568" 
d="M130 415h-75l15 72h74l18 91q15 72 57.5 105.5t117.5 33.5q33 0 66 -7l-15 -72q-24 6 -43 6q-82 0 -101 -87l-14 -70h126l-15 -72h-125l-83 -415h-86zM491 609q-16 16 -16 40q0 25 16 41t41 16q24 0 40.5 -16t16.5 -41q0 -24 -16.5 -40t-40.5 -16q-25 0 -41 16zM455 487
h87l-98 -487h-86z" />
    <glyph glyph-name="f_l" horiz-adv-x="568" 
d="M130 415h-75l15 72h74l18 91q15 72 57.5 105.5t117.5 33.5q33 0 66 -7l-15 -72q-24 6 -43 6q-82 0 -101 -87l-14 -70h126l-15 -72h-125l-83 -415h-86zM499 706h86l-141 -706h-86z" />
    <glyph glyph-name="a.sc" horiz-adv-x="552" 
d="M388 137h-257l-74 -137h-97l316 583h136l83 -583h-88zM378 211l-42 303h-2l-163 -303h207z" />
    <glyph glyph-name="aacute.sc" horiz-adv-x="552" 
d="M388 137h-257l-74 -137h-97l316 583h136l83 -583h-88zM378 211l-42 303h-2l-163 -303h207zM409 822h95l-127 -154h-87z" />
    <glyph glyph-name="abreve.sc" horiz-adv-x="552" 
d="M388 137h-257l-74 -137h-97l316 583h136l83 -583h-88zM378 211l-42 303h-2l-163 -303h207zM264 695.5q-32 31.5 -32 94.5q0 15 3 33h65q-2 -13 -2 -35q0 -35 16 -52t52 -17q44 0 68.5 25t39.5 79h68q-19 -80 -61.5 -119.5t-116.5 -39.5q-68 0 -100 31.5z" />
    <glyph glyph-name="acircumflex.sc" horiz-adv-x="552" 
d="M388 137h-257l-74 -137h-97l316 583h136l83 -583h-88zM378 211l-42 303h-2l-163 -303h207zM337 823h104l72 -156h-79l-51 113l-96 -113h-85z" />
    <glyph glyph-name="adieresis.sc" horiz-adv-x="552" 
d="M388 137h-257l-74 -137h-97l316 583h136l83 -583h-88zM378 211l-42 303h-2l-163 -303h207zM238 697.5q-16 15.5 -16 38.5q0 24 16 40t40 16q23 0 39.5 -16t16.5 -40q0 -23 -16.5 -38.5t-39.5 -15.5q-24 0 -40 15.5zM427.5 697.5q-15.5 15.5 -15.5 38.5q0 24 15.5 40
t40.5 16q23 0 39.5 -16t16.5 -40q0 -23 -16.5 -38.5t-39.5 -15.5q-25 0 -40.5 15.5z" />
    <glyph glyph-name="agrave.sc" horiz-adv-x="552" 
d="M388 137h-257l-74 -137h-97l316 583h136l83 -583h-88zM378 211l-42 303h-2l-163 -303h207zM350 668l-75 154h84l67 -154h-76z" />
    <glyph glyph-name="amacron.sc" horiz-adv-x="552" 
d="M388 137h-257l-74 -137h-97l316 583h136l83 -583h-88zM378 211l-42 303h-2l-163 -303h207zM235 766h283l-12 -61h-283z" />
    <glyph glyph-name="aogonek.sc" horiz-adv-x="552" 
d="M402.5 -145.5q12.5 -9.5 32.5 -9.5q19 0 40 7l-11 -58q-25 -6 -53 -6q-45 0 -71 21t-26 59q0 39 28.5 70.5t78.5 61.5h-14l-19 137h-257l-74 -137h-97l316 583h136l83 -583q-34 -24 -55 -40.5t-35.5 -36t-14.5 -40.5q0 -19 12.5 -28.5zM378 211l-42 303h-2l-163 -303h207
z" />
    <glyph glyph-name="aring.sc" horiz-adv-x="552" 
d="M388 137h-257l-74 -137h-97l316 583h136l83 -583h-88zM378 211l-42 303h-2l-163 -303h207zM309 663.5q-25 13.5 -39 37.5t-14 56t14 56t39 37t59 13t60 -13.5t40 -37.5t14 -55q0 -32 -14 -56t-40 -37.5t-60 -13.5t-59 13.5zM411 715q16 16 16 42q0 25 -16.5 41t-42.5 16
t-41.5 -15.5t-15.5 -41.5t15.5 -42t41.5 -16q27 0 43 16z" />
    <glyph glyph-name="aringacute.sc" horiz-adv-x="552" 
d="M388 137h-257l-74 -137h-97l316 583h136l83 -583h-88zM378 211l-42 303h-2l-163 -303h207zM309 663.5q-25 13.5 -39 37.5t-14 56t14 56t39 37t59 13t60 -13.5t40 -37.5t14 -55q0 -32 -14 -56t-40 -37.5t-60 -13.5t-59 13.5zM411 715q16 16 16 42q0 25 -16.5 41t-42.5 16
t-41.5 -15.5t-15.5 -41.5t15.5 -42t41.5 -16q27 0 43 16zM466 1102h95l-127 -154h-87z" />
    <glyph glyph-name="atilde.sc" horiz-adv-x="552" 
d="M388 137h-257l-74 -137h-97l316 583h136l83 -583h-88zM378 211l-42 303h-2l-163 -303h207zM391.5 675.5q-17.5 10.5 -31.5 37.5q-2 3 -11 18.5t-18.5 23t-20.5 7.5q-21 0 -34.5 -22.5t-26.5 -71.5h-59q18 82 47 119.5t76 37.5q25 0 41.5 -11.5t32.5 -38.5
q3 -5 12.5 -19.5t18.5 -21t21 -6.5q21 0 33.5 22t25.5 73h59q-12 -56 -27.5 -90t-38.5 -51t-57 -17q-25 0 -42.5 10.5z" />
    <glyph glyph-name="ae.sc" horiz-adv-x="690" 
d="M448 506l-12 -171h219l-16 -77h-209l-13 -181h189l-15 -77h-272l11 139h-189l-82 -139h-99l350 583h397l-16 -77h-243zM361 510h-2l-175 -298h152z" />
    <glyph glyph-name="aeacute.sc" horiz-adv-x="690" 
d="M448 506l-12 -171h219l-16 -77h-209l-13 -181h189l-15 -77h-272l11 139h-189l-82 -139h-99l350 583h397l-16 -77h-243zM361 510h-2l-175 -298h152zM523 822h95l-127 -154h-87z" />
    <glyph glyph-name="b.sc" horiz-adv-x="543" 
d="M459.5 255.5q22.5 -30.5 22.5 -79.5q0 -87 -60.5 -131.5t-165.5 -44.5h-214l116 583h185q85 0 128 -35.5t43 -97.5q0 -59 -34.5 -97t-93.5 -52q51 -15 73.5 -45.5zM198 334h90q61 0 96 27t35 74q0 39 -27 60t-80 21h-77zM388 172q0 95 -120 95h-83l-40 -200h96
q147 0 147 105z" />
    <glyph glyph-name="c.sc" horiz-adv-x="623" 
d="M161 18q-53 32 -78 87.5t-25 128.5q0 101 38 183.5t109 130.5t167 48q68 0 119 -24.5t78 -70.5t27 -108q0 -9 -2 -27h-91q1 10 1 22q0 39 -16 68t-47 45t-74 16q-70 0 -118.5 -38t-72.5 -101.5t-24 -140.5q0 -172 146 -172q69 1 114.5 35.5t61.5 98.5h94
q-21 -101 -92 -157t-182 -56q-80 0 -133 32z" />
    <glyph glyph-name="cacute.sc" horiz-adv-x="623" 
d="M161 18q-53 32 -78 87.5t-25 128.5q0 101 38 183.5t109 130.5t167 48q68 0 119 -24.5t78 -70.5t27 -108q0 -9 -2 -27h-91q1 10 1 22q0 39 -16 68t-47 45t-74 16q-70 0 -118.5 -38t-72.5 -101.5t-24 -140.5q0 -172 146 -172q69 1 114.5 35.5t61.5 98.5h94
q-21 -101 -92 -157t-182 -56q-80 0 -133 32zM444 822h95l-127 -154h-87z" />
    <glyph glyph-name="ccaron.sc" horiz-adv-x="623" 
d="M161 18q-53 32 -78 87.5t-25 128.5q0 101 38 183.5t109 130.5t167 48q68 0 119 -24.5t78 -70.5t27 -108q0 -9 -2 -27h-91q1 10 1 22q0 39 -16 68t-47 45t-74 16q-70 0 -118.5 -38t-72.5 -101.5t-24 -140.5q0 -172 146 -172q69 1 114.5 35.5t61.5 98.5h94
q-21 -101 -92 -157t-182 -56q-80 0 -133 32zM446 667h-104l-71 155h78l51 -113l97 113h84z" />
    <glyph glyph-name="ccedilla.sc" horiz-adv-x="623" 
d="M503 366q1 10 1 22q0 39 -16 68t-47 45t-74 16q-70 0 -118.5 -38t-72.5 -101.5t-24 -140.5q0 -172 146 -172q69 1 114.5 35.5t61.5 98.5h94q-20 -93 -82.5 -148.5t-159.5 -63.5l-18 -37q43 -3 66 -24t23 -55q0 -45 -35.5 -68t-93.5 -23q-53 0 -86 17l19 49q31 -13 66 -13
q29 0 47 11t18 30q0 18 -17.5 27t-57.5 9h-34l38 78q-69 6 -114.5 39t-67 86t-21.5 121q0 101 38 183.5t109 130.5t167 48q68 0 119 -24.5t78 -70.5t27 -108q0 -9 -2 -27h-91z" />
    <glyph glyph-name="ccircumflex.sc" horiz-adv-x="623" 
d="M161 18q-53 32 -78 87.5t-25 128.5q0 101 38 183.5t109 130.5t167 48q68 0 119 -24.5t78 -70.5t27 -108q0 -9 -2 -27h-91q1 10 1 22q0 39 -16 68t-47 45t-74 16q-70 0 -118.5 -38t-72.5 -101.5t-24 -140.5q0 -172 146 -172q69 1 114.5 35.5t61.5 98.5h94
q-21 -101 -92 -157t-182 -56q-80 0 -133 32zM371 823h104l72 -156h-79l-51 113l-96 -113h-85z" />
    <glyph glyph-name="cdotaccent.sc" horiz-adv-x="623" 
d="M161 18q-53 32 -78 87.5t-25 128.5q0 101 38 183.5t109 130.5t167 48q68 0 119 -24.5t78 -70.5t27 -108q0 -9 -2 -27h-91q1 10 1 22q0 39 -16 68t-47 45t-74 16q-70 0 -118.5 -38t-72.5 -101.5t-24 -140.5q0 -172 146 -172q69 1 114.5 35.5t61.5 98.5h94
q-21 -101 -92 -157t-182 -56q-80 0 -133 32zM365 706.5q-16 15.5 -16 39.5q0 25 16 41t41 16q24 0 41 -16.5t17 -40.5t-17 -39.5t-41 -15.5q-25 0 -41 15.5z" />
    <glyph glyph-name="d.sc" horiz-adv-x="619" 
d="M158 583h166q132 0 193.5 -64t61.5 -181q0 -96 -38.5 -173t-113.5 -121t-179 -44h-206zM246 77q80 0 133 32.5t78.5 89.5t25.5 132q0 175 -166 175h-85l-85 -429h99z" />
    <glyph glyph-name="eth.sc" horiz-adv-x="619" 
d="M517.5 519q61.5 -64 61.5 -181q0 -96 -38.5 -173t-113.5 -121t-179 -44h-206l53 268h-60l12 61h60l51 254h166q132 0 193.5 -64zM379 109.5q53 32.5 78.5 89.5t25.5 132q0 175 -166 175h-85l-35 -177h153l-12 -61h-153l-38 -191h99q80 0 133 32.5z" />
    <glyph glyph-name="dcaron.sc" horiz-adv-x="619" 
d="M158 583h166q132 0 193.5 -64t61.5 -181q0 -96 -38.5 -173t-113.5 -121t-179 -44h-206zM246 77q80 0 133 32.5t78.5 89.5t25.5 132q0 175 -166 175h-85l-85 -429h99zM435 667h-104l-71 155h78l51 -113l97 113h84z" />
    <glyph glyph-name="dcroat.sc" horiz-adv-x="619" 
d="M517.5 519q61.5 -64 61.5 -181q0 -96 -38.5 -173t-113.5 -121t-179 -44h-206l53 268h-60l12 61h60l51 254h166q132 0 193.5 -64zM379 109.5q53 32.5 78.5 89.5t25.5 132q0 175 -166 175h-85l-35 -177h153l-12 -61h-153l-38 -191h99q80 0 133 32.5z" />
    <glyph glyph-name="e.sc" horiz-adv-x="491" 
d="M158 583h350l-16 -77h-260l-33 -171h257l-16 -77h-257l-36 -181h259l-15 -77h-349z" />
    <glyph glyph-name="eacute.sc" horiz-adv-x="491" 
d="M158 583h350l-16 -77h-260l-33 -171h257l-16 -77h-257l-36 -181h259l-15 -77h-349zM394 822h95l-127 -154h-87z" />
    <glyph glyph-name="ebreve.sc" horiz-adv-x="491" 
d="M158 583h350l-16 -77h-260l-33 -171h257l-16 -77h-257l-36 -181h259l-15 -77h-349zM248 695.5q-32 31.5 -32 94.5q0 15 3 33h65q-2 -13 -2 -35q0 -35 16 -52t52 -17q44 0 68.5 25t39.5 79h68q-19 -80 -61.5 -119.5t-116.5 -39.5q-68 0 -100 31.5z" />
    <glyph glyph-name="ecaron.sc" horiz-adv-x="491" 
d="M158 583h350l-16 -77h-260l-33 -171h257l-16 -77h-257l-36 -181h259l-15 -77h-349zM396 667h-104l-71 155h78l51 -113l97 113h84z" />
    <glyph glyph-name="ecircumflex.sc" horiz-adv-x="491" 
d="M158 583h350l-16 -77h-260l-33 -171h257l-16 -77h-257l-36 -181h259l-15 -77h-349zM321 823h104l72 -156h-79l-51 113l-96 -113h-85z" />
    <glyph glyph-name="edieresis.sc" horiz-adv-x="491" 
d="M158 583h350l-16 -77h-260l-33 -171h257l-16 -77h-257l-36 -181h259l-15 -77h-349zM222 697.5q-16 15.5 -16 38.5q0 24 16 40t40 16q23 0 39.5 -16t16.5 -40q0 -23 -16.5 -38.5t-39.5 -15.5q-24 0 -40 15.5zM411.5 697.5q-15.5 15.5 -15.5 38.5q0 24 15.5 40t40.5 16
q23 0 39.5 -16t16.5 -40q0 -23 -16.5 -38.5t-39.5 -15.5q-25 0 -40.5 15.5z" />
    <glyph glyph-name="edotaccent.sc" horiz-adv-x="491" 
d="M158 583h350l-16 -77h-260l-33 -171h257l-16 -77h-257l-36 -181h259l-15 -77h-349zM315 706.5q-16 15.5 -16 39.5q0 25 16 41t41 16q24 0 41 -16.5t17 -40.5t-17 -39.5t-41 -15.5q-25 0 -41 15.5z" />
    <glyph glyph-name="egrave.sc" horiz-adv-x="491" 
d="M158 583h350l-16 -77h-260l-33 -171h257l-16 -77h-257l-36 -181h259l-15 -77h-349zM334 668l-75 154h84l67 -154h-76z" />
    <glyph glyph-name="emacron.sc" horiz-adv-x="491" 
d="M158 583h350l-16 -77h-260l-33 -171h257l-16 -77h-257l-36 -181h259l-15 -77h-349zM220 766h283l-12 -61h-283z" />
    <glyph glyph-name="eogonek.sc" horiz-adv-x="491" 
d="M232 506l-33 -171h257l-16 -77h-257l-36 -181h259l-15 -77q-35 -24 -56 -40.5t-35.5 -36t-14.5 -40.5q0 -19 12.5 -28.5t33.5 -9.5q19 0 40 7l-11 -58q-27 -6 -53 -6q-45 0 -71 21t-26 59q0 39 28.5 70.5t78.5 61.5h-275l116 583h350l-16 -77h-260z" />
    <glyph glyph-name="uni0259.sc" horiz-adv-x="596" 
d="M462 565q49 -31 72.5 -85.5t23.5 -126.5q0 -101 -37 -185t-104 -133t-153 -49q-64 0 -111 27.5t-72.5 80.5t-25.5 127q0 41 7 86h401q2 30 2 47q0 76 -32 119.5t-100 43.5q-57 0 -96 -31t-60 -88h-95q19 63 56.5 107.5t88.5 67.5t112 23q74 0 123 -31zM382.5 110
q46.5 46 67.5 124h-307v-16q0 -72 31.5 -113t94.5 -41q67 0 113.5 46z" />
    <glyph glyph-name="f.sc" horiz-adv-x="472" 
d="M158 583h339l-16 -77h-249l-33 -171h247l-16 -77h-247l-51 -258h-90z" />
    <glyph glyph-name="g.sc" horiz-adv-x="624" 
d="M347 308h240l-9 -42q-25 -131 -92.5 -205.5t-192.5 -74.5q-80 0 -133 31t-78 86.5t-25 128.5q0 99 38.5 182.5t110.5 132.5t168 49q70 0 119.5 -25t75.5 -72t26 -113h-89q0 67 -35.5 100.5t-102.5 33.5q-70 0 -119.5 -40t-74.5 -106.5t-25 -143.5q0 -80 34 -124t114 -44
q82 0 127.5 48t61.5 128h-154z" />
    <glyph glyph-name="gbreve.sc" horiz-adv-x="624" 
d="M347 308h240l-9 -42q-25 -131 -92.5 -205.5t-192.5 -74.5q-80 0 -133 31t-78 86.5t-25 128.5q0 99 38.5 182.5t110.5 132.5t168 49q70 0 119.5 -25t75.5 -72t26 -113h-89q0 67 -35.5 100.5t-102.5 33.5q-70 0 -119.5 -40t-74.5 -106.5t-25 -143.5q0 -80 34 -124t114 -44
q82 0 127.5 48t61.5 128h-154zM312 695.5q-32 31.5 -32 94.5q0 15 3 33h65q-2 -13 -2 -35q0 -35 16 -52t52 -17q44 0 68.5 25t39.5 79h68q-19 -80 -61.5 -119.5t-116.5 -39.5q-68 0 -100 31.5z" />
    <glyph glyph-name="gcircumflex.sc" horiz-adv-x="624" 
d="M347 308h240l-9 -42q-25 -131 -92.5 -205.5t-192.5 -74.5q-80 0 -133 31t-78 86.5t-25 128.5q0 99 38.5 182.5t110.5 132.5t168 49q70 0 119.5 -25t75.5 -72t26 -113h-89q0 67 -35.5 100.5t-102.5 33.5q-70 0 -119.5 -40t-74.5 -106.5t-25 -143.5q0 -80 34 -124t114 -44
q82 0 127.5 48t61.5 128h-154zM385 823h104l72 -156h-79l-51 113l-96 -113h-85z" />
    <glyph glyph-name="uni0123.sc" horiz-adv-x="624" 
d="M347 308h240l-9 -42q-25 -131 -92.5 -205.5t-192.5 -74.5q-80 0 -133 31t-78 86.5t-25 128.5q0 99 38.5 182.5t110.5 132.5t168 49q70 0 119.5 -25t75.5 -72t26 -113h-89q0 67 -35.5 100.5t-102.5 33.5q-70 0 -119.5 -40t-74.5 -106.5t-25 -143.5q0 -80 34 -124t114 -44
q82 0 127.5 48t61.5 128h-154zM227 -53h89l-70 -148h-81z" />
    <glyph glyph-name="gdotaccent.sc" horiz-adv-x="624" 
d="M347 308h240l-9 -42q-25 -131 -92.5 -205.5t-192.5 -74.5q-80 0 -133 31t-78 86.5t-25 128.5q0 99 38.5 182.5t110.5 132.5t168 49q70 0 119.5 -25t75.5 -72t26 -113h-89q0 67 -35.5 100.5t-102.5 33.5q-70 0 -119.5 -40t-74.5 -106.5t-25 -143.5q0 -80 34 -124t114 -44
q82 0 127.5 48t61.5 128h-154zM379 706.5q-16 15.5 -16 39.5q0 25 16 41t41 16q24 0 41 -16.5t17 -40.5t-17 -39.5t-41 -15.5q-25 0 -41 15.5z" />
    <glyph glyph-name="h.sc" horiz-adv-x="625" 
d="M158 583h90l-49 -247h264l50 247h89l-116 -583h-90l51 257h-265l-50 -257h-90z" />
    <glyph glyph-name="hbar.sc" horiz-adv-x="625" 
d="M602 583l-116 -583h-90l51 257h-265l-50 -257h-90l116 583h90l-18 -91h265l18 91h89zM463 336l19 96h-264l-19 -96h264z" />
    <glyph glyph-name="hcircumflex.sc" horiz-adv-x="625" 
d="M158 583h90l-49 -247h264l50 247h89l-116 -583h-90l51 257h-265l-50 -257h-90zM373 823h104l72 -156h-79l-51 113l-96 -113h-85z" />
    <glyph glyph-name="i.sc" horiz-adv-x="271" 
d="M158 583h90l-116 -583h-90z" />
    <glyph glyph-name="dotlessi.sc" horiz-adv-x="271" 
d="M158 583h90l-116 -583h-90z" />
    <glyph glyph-name="iacute.sc" horiz-adv-x="271" 
d="M158 583h90l-116 -583h-90zM267 822h93l-111 -154h-84z" />
    <glyph glyph-name="ibreve.sc" horiz-adv-x="271" 
d="M158 583h90l-116 -583h-90zM145 689.5q-25 25.5 -25 77.5q0 25 6 56h60q-6 -31 -6 -52q0 -28 10.5 -40.5t33.5 -12.5q34 0 53 24.5t30 80.5h63q-17 -81 -52.5 -120t-96.5 -39q-51 0 -76 25.5z" />
    <glyph glyph-name="icircumflex.sc" horiz-adv-x="271" 
d="M158 583h90l-116 -583h-90zM203 823h90l54 -156h-68l-37 109l-83 -109h-73z" />
    <glyph glyph-name="idieresis.sc" horiz-adv-x="271" 
d="M158 583h90l-116 -583h-90zM127 698.5q-13 13.5 -13 35.5q0 23 14 37t36 14q21 0 34 -13t13 -35q0 -23 -14 -37.5t-35 -14.5q-22 0 -35 13.5zM262 698.5q-13 13.5 -13 35.5q0 23 14 37t36 14q21 0 34 -13t13 -35q0 -23 -14 -37.5t-36 -14.5q-21 0 -34 13.5z" />
    <glyph glyph-name="i.sc.loclTRK" horiz-adv-x="271" 
d="M158 583h90l-116 -583h-90zM195 705.5q-16 15.5 -16 39.5q0 25 16 41t41 16q24 0 41 -16.5t17 -40.5t-17 -39.5t-41 -15.5q-25 0 -41 15.5z" />
    <glyph glyph-name="igrave.sc" horiz-adv-x="271" 
d="M158 583h90l-116 -583h-90zM201 668l-60 154h82l51 -154h-73z" />
    <glyph glyph-name="ij.sc" horiz-adv-x="593" 
d="M158 583h90l-116 -583h-90zM241 3l16 81q22 -2 34 -2q40 0 65.5 11t41 36t24.5 68l78 386h90l-82 -411q-18 -90 -67.5 -132t-140.5 -42q-35 0 -59 5z" />
    <glyph glyph-name="imacron.sc" horiz-adv-x="271" 
d="M158 583h90l-116 -583h-90zM132 766h214l-12 -61h-214z" />
    <glyph glyph-name="iogonek.sc" horiz-adv-x="271" 
d="M248 583l-116 -583q-40 -39 -62.5 -68.5t-22.5 -55.5q0 -16 9.5 -23.5t25.5 -7.5q15 0 34 7l-12 -57q-22 -7 -49 -7q-38 0 -60.5 18.5t-22.5 51.5q0 66 91 142h-21l116 583h90z" />
    <glyph glyph-name="itilde.sc" horiz-adv-x="271" 
d="M158 583h90l-116 -583h-90zM237 678q-13 13 -19 39q-1 4 -5 18.5t-10 21.5t-14 7q-16 0 -26 -22.5t-21 -73.5h-55q13 57 26.5 90.5t32 50t46.5 16.5q26 0 38.5 -14t19.5 -43q6 -22 11.5 -31.5t17.5 -9.5q16 0 26.5 22.5t20.5 73.5h55q-13 -58 -26 -91.5t-32 -50
t-47 -16.5q-26 0 -39 13z" />
    <glyph glyph-name="j.sc" horiz-adv-x="323" 
d="M-30 3l16 81q22 -2 34 -2q40 0 65.5 11t41 36t24.5 68l78 386h90l-82 -411q-18 -90 -67.5 -132t-140.5 -42q-35 0 -59 5z" />
    <glyph glyph-name="uni006A0301.sc" horiz-adv-x="323" 
d="M-30 3l16 81q22 -2 34 -2q40 0 65.5 11t41 36t24.5 68l78 386h90l-82 -411q-18 -90 -67.5 -132t-140.5 -42q-35 0 -59 5zM337 822h93l-111 -154h-84z" />
    <glyph glyph-name="jcircumflex.sc" horiz-adv-x="323" 
d="M-30 3l16 81q22 -2 34 -2q40 0 65.5 11t41 36t24.5 68l78 386h90l-82 -411q-18 -90 -67.5 -132t-140.5 -42q-35 0 -59 5zM273 823h90l54 -156h-68l-37 109l-83 -109h-73z" />
    <glyph glyph-name="k.sc" horiz-adv-x="535" 
d="M277 311l198 -311h-105l-180 290l-58 -290h-90l116 583h90l-48 -240l253 240h108z" />
    <glyph glyph-name="uni0137.sc" horiz-adv-x="535" 
d="M277 311l198 -311h-105l-180 290l-58 -290h-90l116 583h90l-48 -240l253 240h108zM201 -53h89l-70 -148h-81z" />
    <glyph glyph-name="kgreenlandic.sc" horiz-adv-x="535" 
d="M277 311l198 -311h-105l-180 290l-58 -290h-90l116 583h90l-48 -240l253 240h108z" />
    <glyph glyph-name="l.sc" horiz-adv-x="424" 
d="M158 583h90l-100 -502h225l-16 -81h-315z" />
    <glyph glyph-name="lacute.sc" horiz-adv-x="424" 
d="M158 583h90l-100 -502h225l-16 -81h-315zM298 822h95l-127 -154h-87z" />
    <glyph glyph-name="lcaron.sc" horiz-adv-x="424" 
d="M158 583h90l-100 -502h225l-16 -81h-315zM328 583h76l-70 -167h-68z" />
    <glyph glyph-name="uni013C.sc" horiz-adv-x="424" 
d="M158 583h90l-100 -502h225l-16 -81h-315zM157 -53h89l-70 -148h-81z" />
    <glyph glyph-name="ldot.sc" horiz-adv-x="442" 
d="M158 583h90l-100 -502h225l-16 -81h-315zM317 302q-17 17 -17 43q0 28 17 45t45 17q27 0 44.5 -17.5t17.5 -44.5q0 -26 -18 -43t-44 -17q-28 0 -45 17z" />
    <glyph glyph-name="lslash.sc" horiz-adv-x="424" 
d="M373 81l-16 -81h-315l50 250l-73 -43l16 78l72 42l51 256h90l-41 -208l158 94l-16 -79l-158 -93l-43 -216h225z" />
    <glyph glyph-name="m.sc" horiz-adv-x="768" 
d="M158 583h103l99 -433l272 433h114l-117 -583h-85l88 438l-274 -438h-44l-99 438l-88 -438h-85z" />
    <glyph glyph-name="n.sc" horiz-adv-x="645" 
d="M158 583h91l197 -449l90 449h87l-117 -583h-91l-196 449l-91 -449h-86z" />
    <glyph glyph-name="nacute.sc" horiz-adv-x="645" 
d="M158 583h91l197 -449l90 449h87l-117 -583h-91l-196 449l-91 -449h-86zM457 822h95l-127 -154h-87z" />
    <glyph glyph-name="napostrophe.sc" horiz-adv-x="805" 
d="M199 706h95l-142 -281h-73zM337 583h91l197 -449l90 449h87l-117 -583h-91l-196 449l-91 -449h-86z" />
    <glyph glyph-name="ncaron.sc" horiz-adv-x="645" 
d="M158 583h91l197 -449l90 449h87l-117 -583h-91l-196 449l-91 -449h-86zM459 667h-104l-71 155h78l51 -113l97 113h84z" />
    <glyph glyph-name="uni0146.sc" horiz-adv-x="645" 
d="M158 583h91l197 -449l90 449h87l-117 -583h-91l-196 449l-91 -449h-86zM225 -53h89l-70 -148h-81z" />
    <glyph glyph-name="eng.sc" horiz-adv-x="645" 
d="M623 583l-128 -641q-11 -58 -43 -84t-91 -26q-28 0 -55 3l15 73q8 -2 22 -2q30 0 47 14t22 44l8 38l-201 447l-91 -449h-86l116 583h91l199 -440l88 440h87z" />
    <glyph glyph-name="ntilde.sc" horiz-adv-x="645" 
d="M158 583h91l197 -449l90 449h87l-117 -583h-91l-196 449l-91 -449h-86zM438.5 675.5q-17.5 10.5 -31.5 37.5q-2 3 -11 18.5t-18.5 23t-20.5 7.5q-21 0 -34.5 -22.5t-26.5 -71.5h-59q18 82 47 119.5t76 37.5q25 0 41.5 -11.5t32.5 -38.5q3 -5 12.5 -19.5t18.5 -21t21 -6.5
q21 0 33.5 22t25.5 73h59q-12 -56 -27.5 -90t-38.5 -51t-57 -17q-25 0 -42.5 10.5z" />
    <glyph glyph-name="o.sc" horiz-adv-x="644" 
d="M162 18q-53 32 -78.5 89t-25.5 133q0 96 38 177.5t108.5 130t164.5 48.5q80 0 132.5 -32t78 -89t25.5 -132q0 -97 -38 -178.5t-108 -130t-164 -48.5q-80 0 -133 32zM415.5 106q47.5 39 71.5 102.5t24 135.5q0 171 -148 171q-68 0 -115.5 -39t-71.5 -102.5t-24 -136.5
q0 -170 149 -170q67 0 114.5 39z" />
    <glyph glyph-name="oacute.sc" horiz-adv-x="644" 
d="M162 18q-53 32 -78.5 89t-25.5 133q0 96 38 177.5t108.5 130t164.5 48.5q80 0 132.5 -32t78 -89t25.5 -132q0 -97 -38 -178.5t-108 -130t-164 -48.5q-80 0 -133 32zM415.5 106q47.5 39 71.5 102.5t24 135.5q0 171 -148 171q-68 0 -115.5 -39t-71.5 -102.5t-24 -136.5
q0 -170 149 -170q67 0 114.5 39zM455 822h95l-127 -154h-87z" />
    <glyph glyph-name="obreve.sc" horiz-adv-x="644" 
d="M162 18q-53 32 -78.5 89t-25.5 133q0 96 38 177.5t108.5 130t164.5 48.5q80 0 132.5 -32t78 -89t25.5 -132q0 -97 -38 -178.5t-108 -130t-164 -48.5q-80 0 -133 32zM415.5 106q47.5 39 71.5 102.5t24 135.5q0 171 -148 171q-68 0 -115.5 -39t-71.5 -102.5t-24 -136.5
q0 -170 149 -170q67 0 114.5 39zM310 695.5q-32 31.5 -32 94.5q0 15 3 33h65q-2 -13 -2 -35q0 -35 16 -52t52 -17q44 0 68.5 25t39.5 79h68q-19 -80 -61.5 -119.5t-116.5 -39.5q-68 0 -100 31.5z" />
    <glyph glyph-name="ocircumflex.sc" horiz-adv-x="644" 
d="M162 18q-53 32 -78.5 89t-25.5 133q0 96 38 177.5t108.5 130t164.5 48.5q80 0 132.5 -32t78 -89t25.5 -132q0 -97 -38 -178.5t-108 -130t-164 -48.5q-80 0 -133 32zM415.5 106q47.5 39 71.5 102.5t24 135.5q0 171 -148 171q-68 0 -115.5 -39t-71.5 -102.5t-24 -136.5
q0 -170 149 -170q67 0 114.5 39zM383 823h104l72 -156h-79l-51 113l-96 -113h-85z" />
    <glyph glyph-name="odieresis.sc" horiz-adv-x="644" 
d="M162 18q-53 32 -78.5 89t-25.5 133q0 96 38 177.5t108.5 130t164.5 48.5q80 0 132.5 -32t78 -89t25.5 -132q0 -97 -38 -178.5t-108 -130t-164 -48.5q-80 0 -133 32zM415.5 106q47.5 39 71.5 102.5t24 135.5q0 171 -148 171q-68 0 -115.5 -39t-71.5 -102.5t-24 -136.5
q0 -170 149 -170q67 0 114.5 39zM284 697.5q-16 15.5 -16 38.5q0 24 16 40t40 16q23 0 39.5 -16t16.5 -40q0 -23 -16.5 -38.5t-39.5 -15.5q-24 0 -40 15.5zM473.5 697.5q-15.5 15.5 -15.5 38.5q0 24 15.5 40t40.5 16q23 0 39.5 -16t16.5 -40q0 -23 -16.5 -38.5t-39.5 -15.5
q-25 0 -40.5 15.5z" />
    <glyph glyph-name="ograve.sc" horiz-adv-x="644" 
d="M162 18q-53 32 -78.5 89t-25.5 133q0 96 38 177.5t108.5 130t164.5 48.5q80 0 132.5 -32t78 -89t25.5 -132q0 -97 -38 -178.5t-108 -130t-164 -48.5q-80 0 -133 32zM415.5 106q47.5 39 71.5 102.5t24 135.5q0 171 -148 171q-68 0 -115.5 -39t-71.5 -102.5t-24 -136.5
q0 -170 149 -170q67 0 114.5 39zM395 668l-75 154h84l67 -154h-76z" />
    <glyph glyph-name="ohungarumlaut.sc" horiz-adv-x="644" 
d="M162 18q-53 32 -78.5 89t-25.5 133q0 96 38 177.5t108.5 130t164.5 48.5q80 0 132.5 -32t78 -89t25.5 -132q0 -97 -38 -178.5t-108 -130t-164 -48.5q-80 0 -133 32zM415.5 106q47.5 39 71.5 102.5t24 135.5q0 171 -148 171q-68 0 -115.5 -39t-71.5 -102.5t-24 -136.5
q0 -170 149 -170q67 0 114.5 39zM416 823h87l-146 -155h-72zM563 823h87l-145 -155h-73z" />
    <glyph glyph-name="omacron.sc" horiz-adv-x="644" 
d="M162 18q-53 32 -78.5 89t-25.5 133q0 96 38 177.5t108.5 130t164.5 48.5q80 0 132.5 -32t78 -89t25.5 -132q0 -97 -38 -178.5t-108 -130t-164 -48.5q-80 0 -133 32zM415.5 106q47.5 39 71.5 102.5t24 135.5q0 171 -148 171q-68 0 -115.5 -39t-71.5 -102.5t-24 -136.5
q0 -170 149 -170q67 0 114.5 39zM281 766h283l-12 -61h-283z" />
    <glyph glyph-name="oslash.sc" horiz-adv-x="644" 
d="M572 490q33 -61 33 -147q0 -97 -38 -178.5t-108 -130t-164 -48.5q-112 0 -173 63l-51 -49h-78l98 92q-33 62 -33 148q0 96 38 177.5t108.5 130t164.5 48.5q111 0 172 -63l52 50h77zM247.5 476q-47.5 -39 -71.5 -102.5t-24 -136.5q0 -45 10 -78l315 310q-38 46 -114 46
q-68 0 -115.5 -39zM415.5 106q47.5 39 71.5 102.5t24 135.5q0 47 -11 80l-314 -310q38 -47 115 -47q67 0 114.5 39z" />
    <glyph glyph-name="oslashacute.sc" horiz-adv-x="644" 
d="M572 490q33 -61 33 -147q0 -97 -38 -178.5t-108 -130t-164 -48.5q-112 0 -173 63l-51 -49h-78l98 92q-33 62 -33 148q0 96 38 177.5t108.5 130t164.5 48.5q111 0 172 -63l52 50h77zM247.5 476q-47.5 -39 -71.5 -102.5t-24 -136.5q0 -45 10 -78l315 310q-38 46 -114 46
q-68 0 -115.5 -39zM415.5 106q47.5 39 71.5 102.5t24 135.5q0 47 -11 80l-314 -310q38 -47 115 -47q67 0 114.5 39zM455 822h95l-127 -154h-87z" />
    <glyph glyph-name="otilde.sc" horiz-adv-x="644" 
d="M162 18q-53 32 -78.5 89t-25.5 133q0 96 38 177.5t108.5 130t164.5 48.5q80 0 132.5 -32t78 -89t25.5 -132q0 -97 -38 -178.5t-108 -130t-164 -48.5q-80 0 -133 32zM415.5 106q47.5 39 71.5 102.5t24 135.5q0 171 -148 171q-68 0 -115.5 -39t-71.5 -102.5t-24 -136.5
q0 -170 149 -170q67 0 114.5 39zM437.5 675.5q-17.5 10.5 -31.5 37.5q-2 3 -11 18.5t-18.5 23t-20.5 7.5q-21 0 -34.5 -22.5t-26.5 -71.5h-59q18 82 47 119.5t76 37.5q25 0 41.5 -11.5t32.5 -38.5q3 -5 12.5 -19.5t18.5 -21t21 -6.5q21 0 33.5 22t25.5 73h59
q-12 -56 -27.5 -90t-38.5 -51t-57 -17q-25 0 -42.5 10.5z" />
    <glyph glyph-name="oe.sc" horiz-adv-x="879" 
d="M620 506l-34 -171h257l-16 -77h-256l-37 -181h260l-15 -77h-338l11 54q-35 -31 -80 -47.5t-96 -16.5q-73 0 -121.5 32t-72 88t-23.5 131q0 95 36.5 175.5t105 128.5t159.5 48q65 0 110 -27t69 -76l19 93h337l-15 -77h-260zM399.5 107q47.5 39 71.5 102t24 135
q0 171 -138 171q-66 0 -112.5 -39t-69.5 -102.5t-23 -136.5q0 -80 31.5 -124.5t101.5 -44.5q67 0 114.5 39z" />
    <glyph glyph-name="p.sc" horiz-adv-x="515" 
d="M158 583h182q95 0 140.5 -38.5t45.5 -109.5q0 -56 -25 -97.5t-70.5 -64t-106.5 -22.5h-142l-50 -251h-90zM303 324q62 0 96 26.5t34 76.5q0 42 -27.5 62.5t-85.5 20.5h-86l-38 -186h107z" />
    <glyph glyph-name="thorn.sc" horiz-adv-x="516" 
d="M158 583h90l-19 -96h73q104 0 152 -43t48 -123q0 -68 -27 -116.5t-78.5 -74.5t-123.5 -26h-121l-20 -104h-90zM255 179q75 0 115 35.5t40 101.5q0 48 -30.5 72t-97.5 24h-68l-47 -233h88z" />
    <glyph glyph-name="q.sc" horiz-adv-x="644" 
d="M581.5 199.5q-23.5 -67.5 -68.5 -117.5t-106 -75l47 -100l-72 -36l-50 117q-24 -2 -37 -2q-80 0 -133 32t-78.5 89t-25.5 133q0 96 38 177.5t108.5 130t164.5 48.5q80 0 132.5 -32t78 -89t25.5 -132q0 -76 -23.5 -143.5zM448.5 139.5q31.5 40.5 47 93.5t15.5 111
q0 171 -148 171q-68 0 -115.5 -39t-71.5 -102.5t-24 -136.5q0 -79 35 -124t112 -46l-28 66l63 32l39 -84q44 18 75.5 58.5z" />
    <glyph glyph-name="r.sc" horiz-adv-x="550" 
d="M513 341q-23 -39 -65.5 -61.5t-100.5 -26.5l145 -253h-94l-143 252h-73l-50 -252h-90l116 583h197q94 0 137.5 -39.5t43.5 -110.5q0 -53 -23 -92zM196 321h110q67 0 102.5 27t35.5 80q0 43 -27 63t-85 20h-98z" />
    <glyph glyph-name="racute.sc" horiz-adv-x="550" 
d="M513 341q-23 -39 -65.5 -61.5t-100.5 -26.5l145 -253h-94l-143 252h-73l-50 -252h-90l116 583h197q94 0 137.5 -39.5t43.5 -110.5q0 -53 -23 -92zM196 321h110q67 0 102.5 27t35.5 80q0 43 -27 63t-85 20h-98zM419 822h95l-127 -154h-87z" />
    <glyph glyph-name="rcaron.sc" horiz-adv-x="550" 
d="M513 341q-23 -39 -65.5 -61.5t-100.5 -26.5l145 -253h-94l-143 252h-73l-50 -252h-90l116 583h197q94 0 137.5 -39.5t43.5 -110.5q0 -53 -23 -92zM196 321h110q67 0 102.5 27t35.5 80q0 43 -27 63t-85 20h-98zM421 667h-104l-71 155h78l51 -113l97 113h84z" />
    <glyph glyph-name="uni0157.sc" horiz-adv-x="550" 
d="M513 341q-23 -39 -65.5 -61.5t-100.5 -26.5l145 -253h-94l-143 252h-73l-50 -252h-90l116 583h197q94 0 137.5 -39.5t43.5 -110.5q0 -53 -23 -92zM196 321h110q67 0 102.5 27t35.5 80q0 43 -27 63t-85 20h-98zM214 -53h89l-70 -148h-81z" />
    <glyph glyph-name="s.sc" horiz-adv-x="525" 
d="M79 29q-56 43 -56 121q0 18 3 37h97q-3 -16 -3 -29q0 -49 32.5 -74t94.5 -25q54 0 89 24t35 68q0 31 -16.5 50.5t-42.5 32.5t-84 35q-71 26 -107 61t-36 95q0 52 27 90.5t75.5 59.5t111.5 21q64 0 108 -19.5t66 -54t22 -81.5q0 -12 -2 -36h-93q2 22 2 28q0 42 -28.5 67
t-80.5 25q-51 0 -82.5 -23.5t-31.5 -66.5q0 -28 15.5 -45.5t39 -27.5t81.5 -31q53 -19 86.5 -40t51.5 -51.5t18 -74.5q0 -58 -29.5 -98.5t-81 -60.5t-118.5 -20q-107 0 -163 43z" />
    <glyph glyph-name="sacute.sc" horiz-adv-x="525" 
d="M79 29q-56 43 -56 121q0 18 3 37h97q-3 -16 -3 -29q0 -49 32.5 -74t94.5 -25q54 0 89 24t35 68q0 31 -16.5 50.5t-42.5 32.5t-84 35q-71 26 -107 61t-36 95q0 52 27 90.5t75.5 59.5t111.5 21q64 0 108 -19.5t66 -54t22 -81.5q0 -12 -2 -36h-93q2 22 2 28q0 42 -28.5 67
t-80.5 25q-51 0 -82.5 -23.5t-31.5 -66.5q0 -28 15.5 -45.5t39 -27.5t81.5 -31q53 -19 86.5 -40t51.5 -51.5t18 -74.5q0 -58 -29.5 -98.5t-81 -60.5t-118.5 -20q-107 0 -163 43zM373 822h95l-127 -154h-87z" />
    <glyph glyph-name="scaron.sc" horiz-adv-x="525" 
d="M79 29q-56 43 -56 121q0 18 3 37h97q-3 -16 -3 -29q0 -49 32.5 -74t94.5 -25q54 0 89 24t35 68q0 31 -16.5 50.5t-42.5 32.5t-84 35q-71 26 -107 61t-36 95q0 52 27 90.5t75.5 59.5t111.5 21q64 0 108 -19.5t66 -54t22 -81.5q0 -12 -2 -36h-93q2 22 2 28q0 42 -28.5 67
t-80.5 25q-51 0 -82.5 -23.5t-31.5 -66.5q0 -28 15.5 -45.5t39 -27.5t81.5 -31q53 -19 86.5 -40t51.5 -51.5t18 -74.5q0 -58 -29.5 -98.5t-81 -60.5t-118.5 -20q-107 0 -163 43zM375 667h-104l-71 155h78l51 -113l97 113h84z" />
    <glyph glyph-name="scedilla.sc" horiz-adv-x="525" 
d="M400 405q2 22 2 28q0 42 -28.5 67t-80.5 25q-51 0 -82.5 -23.5t-31.5 -66.5q0 -28 15.5 -45.5t39 -27.5t81.5 -31q53 -19 86.5 -40t51.5 -51.5t18 -74.5q0 -54 -25 -92t-69.5 -59.5t-103.5 -26.5l-18 -36q43 -3 66.5 -24.5t23.5 -55.5q0 -45 -35.5 -68t-94.5 -23
q-52 0 -86 17l20 49q31 -13 65 -13q30 0 47.5 11t17.5 30q0 18 -17 27t-57 9h-34l37 77q-91 7 -138 49t-47 114q0 18 3 37h97q-3 -16 -3 -29q0 -49 32.5 -74t94.5 -25q54 0 89 24t35 68q0 31 -16.5 50.5t-42.5 32.5t-84 35q-71 26 -107 61t-36 95q0 52 27 90.5t75.5 59.5
t111.5 21q64 0 108 -19.5t66 -54t22 -81.5q0 -12 -2 -36h-93z" />
    <glyph glyph-name="scircumflex.sc" horiz-adv-x="525" 
d="M79 29q-56 43 -56 121q0 18 3 37h97q-3 -16 -3 -29q0 -49 32.5 -74t94.5 -25q54 0 89 24t35 68q0 31 -16.5 50.5t-42.5 32.5t-84 35q-71 26 -107 61t-36 95q0 52 27 90.5t75.5 59.5t111.5 21q64 0 108 -19.5t66 -54t22 -81.5q0 -12 -2 -36h-93q2 22 2 28q0 42 -28.5 67
t-80.5 25q-51 0 -82.5 -23.5t-31.5 -66.5q0 -28 15.5 -45.5t39 -27.5t81.5 -31q53 -19 86.5 -40t51.5 -51.5t18 -74.5q0 -58 -29.5 -98.5t-81 -60.5t-118.5 -20q-107 0 -163 43zM300 823h104l72 -156h-79l-51 113l-96 -113h-85z" />
    <glyph glyph-name="uni0219.sc" horiz-adv-x="525" 
d="M79 29q-56 43 -56 121q0 18 3 37h97q-3 -16 -3 -29q0 -49 32.5 -74t94.5 -25q54 0 89 24t35 68q0 31 -16.5 50.5t-42.5 32.5t-84 35q-71 26 -107 61t-36 95q0 52 27 90.5t75.5 59.5t111.5 21q64 0 108 -19.5t66 -54t22 -81.5q0 -12 -2 -36h-93q2 22 2 28q0 42 -28.5 67
t-80.5 25q-51 0 -82.5 -23.5t-31.5 -66.5q0 -28 15.5 -45.5t39 -27.5t81.5 -31q53 -19 86.5 -40t51.5 -51.5t18 -74.5q0 -58 -29.5 -98.5t-81 -60.5t-118.5 -20q-107 0 -163 43zM190 -53h89l-70 -148h-81z" />
    <glyph glyph-name="germandbls.sc" horiz-adv-x="588" 
d="M579 579l-159 -242q57 -14 84.5 -51.5t27.5 -91.5q0 -60 -29 -104.5t-82 -68.5t-121 -24q-56 0 -98 9l15 77q36 -6 76 -6q71 0 109.5 31t38.5 87q0 44 -28 67.5t-88 23.5q-16 0 -32 -2v3l145 217h-206l-100 -504h-90l116 583h422z" />
    <glyph glyph-name="t.sc" horiz-adv-x="472" 
d="M243 506h-173l16 77h436l-16 -77h-173l-101 -506h-89z" />
    <glyph glyph-name="tbar.sc" horiz-adv-x="472" 
d="M333 506l-29 -145h107l-13 -61h-106l-60 -300h-89l59 300h-107l12 61h107l29 145h-173l16 77h436l-16 -77h-173z" />
    <glyph glyph-name="tcaron.sc" horiz-adv-x="482" 
d="M243 506h-173l16 77h436l-16 -77h-173l-101 -506h-89zM375 667h-104l-71 155h78l51 -113l97 113h84z" />
    <glyph glyph-name="uni0163.sc" horiz-adv-x="472" 
d="M522 583l-16 -77h-173l-101 -506h-9l-25 -49q43 -3 66.5 -24.5t23.5 -55.5q0 -45 -35.5 -68t-93.5 -23q-53 0 -87 17l20 49q31 -13 65 -13q30 0 47.5 11t17.5 30q0 18 -17 27t-57 9h-34l43 90h-14l100 506h-173l16 77h436z" />
    <glyph glyph-name="uni021B.sc" horiz-adv-x="472" 
d="M243 506h-173l16 77h436l-16 -77h-173l-101 -506h-89zM134 -53h89l-70 -148h-81z" />
    <glyph glyph-name="u.sc" horiz-adv-x="581" 
d="M110 28.5q-49 42.5 -49 128.5q0 32 7 66l72 360h90l-74 -373q-6 -27 -6 -48q0 -48 27 -71.5t86 -23.5q65 0 98.5 28.5t45.5 88.5l80 399h90l-82 -412q-19 -93 -76 -139t-157 -46q-103 0 -152 42.5z" />
    <glyph glyph-name="uacute.sc" horiz-adv-x="581" 
d="M110 28.5q-49 42.5 -49 128.5q0 32 7 66l72 360h90l-74 -373q-6 -27 -6 -48q0 -48 27 -71.5t86 -23.5q65 0 98.5 28.5t45.5 88.5l80 399h90l-82 -412q-19 -93 -76 -139t-157 -46q-103 0 -152 42.5zM420 822h95l-127 -154h-87z" />
    <glyph glyph-name="ubreve.sc" horiz-adv-x="581" 
d="M110 28.5q-49 42.5 -49 128.5q0 32 7 66l72 360h90l-74 -373q-6 -27 -6 -48q0 -48 27 -71.5t86 -23.5q65 0 98.5 28.5t45.5 88.5l80 399h90l-82 -412q-19 -93 -76 -139t-157 -46q-103 0 -152 42.5zM275 695.5q-32 31.5 -32 94.5q0 15 3 33h65q-2 -13 -2 -35q0 -35 16 -52
t52 -17q44 0 68.5 25t39.5 79h68q-19 -80 -61.5 -119.5t-116.5 -39.5q-68 0 -100 31.5z" />
    <glyph glyph-name="ucircumflex.sc" horiz-adv-x="581" 
d="M110 28.5q-49 42.5 -49 128.5q0 32 7 66l72 360h90l-74 -373q-6 -27 -6 -48q0 -48 27 -71.5t86 -23.5q65 0 98.5 28.5t45.5 88.5l80 399h90l-82 -412q-19 -93 -76 -139t-157 -46q-103 0 -152 42.5zM348 823h104l72 -156h-79l-51 113l-96 -113h-85z" />
    <glyph glyph-name="udieresis.sc" horiz-adv-x="581" 
d="M110 28.5q-49 42.5 -49 128.5q0 32 7 66l72 360h90l-74 -373q-6 -27 -6 -48q0 -48 27 -71.5t86 -23.5q65 0 98.5 28.5t45.5 88.5l80 399h90l-82 -412q-19 -93 -76 -139t-157 -46q-103 0 -152 42.5zM249 697.5q-16 15.5 -16 38.5q0 24 16 40t40 16q23 0 39.5 -16t16.5 -40
q0 -23 -16.5 -38.5t-39.5 -15.5q-24 0 -40 15.5zM438.5 697.5q-15.5 15.5 -15.5 38.5q0 24 15.5 40t40.5 16q23 0 39.5 -16t16.5 -40q0 -23 -16.5 -38.5t-39.5 -15.5q-25 0 -40.5 15.5z" />
    <glyph glyph-name="ugrave.sc" horiz-adv-x="581" 
d="M110 28.5q-49 42.5 -49 128.5q0 32 7 66l72 360h90l-74 -373q-6 -27 -6 -48q0 -48 27 -71.5t86 -23.5q65 0 98.5 28.5t45.5 88.5l80 399h90l-82 -412q-19 -93 -76 -139t-157 -46q-103 0 -152 42.5zM360 668l-75 154h84l67 -154h-76z" />
    <glyph glyph-name="uhungarumlaut.sc" horiz-adv-x="581" 
d="M110 28.5q-49 42.5 -49 128.5q0 32 7 66l72 360h90l-74 -373q-6 -27 -6 -48q0 -48 27 -71.5t86 -23.5q65 0 98.5 28.5t45.5 88.5l80 399h90l-82 -412q-19 -93 -76 -139t-157 -46q-103 0 -152 42.5zM381 823h87l-146 -155h-72zM528 823h87l-145 -155h-73z" />
    <glyph glyph-name="umacron.sc" horiz-adv-x="581" 
d="M110 28.5q-49 42.5 -49 128.5q0 32 7 66l72 360h90l-74 -373q-6 -27 -6 -48q0 -48 27 -71.5t86 -23.5q65 0 98.5 28.5t45.5 88.5l80 399h90l-82 -412q-19 -93 -76 -139t-157 -46q-103 0 -152 42.5zM246 766h283l-12 -61h-283z" />
    <glyph glyph-name="uogonek.sc" horiz-adv-x="581" 
d="M577 583l-82 -412q-12 -61 -39 -99.5t-77 -71.5q-35 -24 -56 -40.5t-35.5 -36t-14.5 -40.5q0 -19 12.5 -28.5t33.5 -9.5q19 0 40 7l-11 -58q-25 -6 -53 -6q-45 0 -71 21t-26 59q0 35 22.5 63.5t63.5 55.5q-7 -1 -22 -1q-103 0 -152 42.5t-49 128.5q0 32 7 66l72 360h90
l-74 -373q-6 -27 -6 -48q0 -48 27 -71.5t86 -23.5q65 0 98.5 28.5t45.5 88.5l80 399h90z" />
    <glyph glyph-name="uring.sc" horiz-adv-x="581" 
d="M110 28.5q-49 42.5 -49 128.5q0 32 7 66l72 360h90l-74 -373q-6 -27 -6 -48q0 -48 27 -71.5t86 -23.5q65 0 98.5 28.5t45.5 88.5l80 399h90l-82 -412q-19 -93 -76 -139t-157 -46q-103 0 -152 42.5zM320 663.5q-25 13.5 -39 37.5t-14 56t14 56t39 37t59 13t60 -13.5
t40 -37.5t14 -55q0 -32 -14 -56t-40 -37.5t-60 -13.5t-59 13.5zM422 715q16 16 16 42q0 25 -16.5 41t-42.5 16t-41.5 -15.5t-15.5 -41.5t15.5 -42t41.5 -16q27 0 43 16z" />
    <glyph glyph-name="utilde.sc" horiz-adv-x="581" 
d="M110 28.5q-49 42.5 -49 128.5q0 32 7 66l72 360h90l-74 -373q-6 -27 -6 -48q0 -48 27 -71.5t86 -23.5q65 0 98.5 28.5t45.5 88.5l80 399h90l-82 -412q-19 -93 -76 -139t-157 -46q-103 0 -152 42.5zM402.5 675.5q-17.5 10.5 -31.5 37.5q-2 3 -11 18.5t-18.5 23t-20.5 7.5
q-21 0 -34.5 -22.5t-26.5 -71.5h-59q18 82 47 119.5t76 37.5q25 0 41.5 -11.5t32.5 -38.5q3 -5 12.5 -19.5t18.5 -21t21 -6.5q21 0 33.5 22t25.5 73h59q-12 -56 -27.5 -90t-38.5 -51t-57 -17q-25 0 -42.5 10.5z" />
    <glyph glyph-name="v.sc" horiz-adv-x="542" 
d="M602 583l-334 -583h-90l-102 583h89l74 -474l264 474h99z" />
    <glyph glyph-name="w.sc" horiz-adv-x="776" 
d="M836 583l-281 -583h-95l-29 458l-213 -458h-93l-49 583h85l34 -450l209 450h97l29 -447l213 447h93z" />
    <glyph glyph-name="wacute.sc" horiz-adv-x="776" 
d="M836 583l-281 -583h-95l-29 458l-213 -458h-93l-49 583h85l34 -450l209 450h97l29 -447l213 447h93zM514 822h95l-127 -154h-87z" />
    <glyph glyph-name="wcircumflex.sc" horiz-adv-x="776" 
d="M836 583l-281 -583h-95l-29 458l-213 -458h-93l-49 583h85l34 -450l209 450h97l29 -447l213 447h93zM442 823h104l72 -156h-79l-51 113l-96 -113h-85z" />
    <glyph glyph-name="wdieresis.sc" horiz-adv-x="776" 
d="M836 583l-281 -583h-95l-29 458l-213 -458h-93l-49 583h85l34 -450l209 450h97l29 -447l213 447h93zM343 697.5q-16 15.5 -16 38.5q0 24 16 40t40 16q23 0 39.5 -16t16.5 -40q0 -23 -16.5 -38.5t-39.5 -15.5q-24 0 -40 15.5zM532.5 697.5q-15.5 15.5 -15.5 38.5
q0 24 15.5 40t40.5 16q23 0 39.5 -16t16.5 -40q0 -23 -16.5 -38.5t-39.5 -15.5q-25 0 -40.5 15.5z" />
    <glyph glyph-name="wgrave.sc" horiz-adv-x="776" 
d="M836 583l-281 -583h-95l-29 458l-213 -458h-93l-49 583h85l34 -450l209 450h97l29 -447l213 447h93zM454 668l-75 154h84l67 -154h-76z" />
    <glyph glyph-name="x.sc" horiz-adv-x="571" 
d="M239 310l-154 273h97l117 -209l173 209h112l-240 -282l167 -301h-97l-132 234l-198 -234h-114z" />
    <glyph glyph-name="y.sc" horiz-adv-x="492" 
d="M203 251l-127 332h90l93 -242l188 242h104l-258 -332l-51 -251h-89z" />
    <glyph glyph-name="yacute.sc" horiz-adv-x="492" 
d="M203 251l-127 332h90l93 -242l188 242h104l-258 -332l-51 -251h-89zM371 822h95l-127 -154h-87z" />
    <glyph glyph-name="ycircumflex.sc" horiz-adv-x="492" 
d="M203 251l-127 332h90l93 -242l188 242h104l-258 -332l-51 -251h-89zM299 823h104l72 -156h-79l-51 113l-96 -113h-85z" />
    <glyph glyph-name="ydieresis.sc" horiz-adv-x="492" 
d="M203 251l-127 332h90l93 -242l188 242h104l-258 -332l-51 -251h-89zM200 697.5q-16 15.5 -16 38.5q0 24 16 40t40 16q23 0 39.5 -16t16.5 -40q0 -23 -16.5 -38.5t-39.5 -15.5q-24 0 -40 15.5zM389.5 697.5q-15.5 15.5 -15.5 38.5q0 24 15.5 40t40.5 16q23 0 39.5 -16
t16.5 -40q0 -23 -16.5 -38.5t-39.5 -15.5q-25 0 -40.5 15.5z" />
    <glyph glyph-name="ygrave.sc" horiz-adv-x="492" 
d="M203 251l-127 332h90l93 -242l188 242h104l-258 -332l-51 -251h-89zM311 668l-75 154h84l67 -154h-76z" />
    <glyph glyph-name="z.sc" horiz-adv-x="501" 
d="M360 504h-278l16 79h426l-386 -504h303l-16 -79h-451z" />
    <glyph glyph-name="zacute.sc" horiz-adv-x="501" 
d="M360 504h-278l16 79h426l-386 -504h303l-16 -79h-451zM368 822h95l-127 -154h-87z" />
    <glyph glyph-name="zcaron.sc" horiz-adv-x="501" 
d="M360 504h-278l16 79h426l-386 -504h303l-16 -79h-451zM370 667h-104l-71 155h78l51 -113l97 113h84z" />
    <glyph glyph-name="zdotaccent.sc" horiz-adv-x="501" 
d="M360 504h-278l16 79h426l-386 -504h303l-16 -79h-451zM289 706.5q-16 15.5 -16 39.5q0 25 16 41t41 16q24 0 41 -16.5t17 -40.5t-17 -39.5t-41 -15.5q-25 0 -41 15.5z" />
    <glyph glyph-name="m.sc.ss01" horiz-adv-x="724" 
d="M158 583h103l111 -247l207 247h122l-116 -583h-87l94 472l-216 -255h-40l-113 255l-95 -472h-86z" />
    <glyph glyph-name="q.sc.ss02" horiz-adv-x="644" 
d="M581 199q-24 -68 -69 -118t-107 -75l38 -108l-84 -29l-37 118q-9 -1 -27 -1q-80 0 -133 32t-78.5 89t-25.5 133q0 96 38 177.5t108.5 130t164.5 48.5q80 0 132.5 -32t78 -89t25.5 -132q0 -76 -24 -144zM415.5 106q47.5 39 71.5 102.5t24 135.5q0 171 -148 171
q-68 0 -115.5 -39t-71.5 -102.5t-24 -136.5q0 -170 149 -170q67 0 114.5 39z" />
    <glyph glyph-name="oslash.sc.ss04" horiz-adv-x="644" 
d="M573 489q32 -58 32 -146q0 -97 -38 -178.5t-108 -130t-164 -48.5q-97 0 -156 48l-87 -92l-56 52l94 99q-32 60 -32 147q0 96 38 177.5t108.5 130t164.5 48.5q96 0 155 -48l87 94l58 -53zM415.5 106q47.5 39 71.5 102.5t24 135.5q0 171 -148 171q-68 0 -115.5 -39
t-71.5 -102.5t-24 -136.5q0 -170 149 -170q67 0 114.5 39z" />
    <glyph glyph-name="A.subs" horiz-adv-x="386" 
d="M224 -34h-170l-46 -86h-75l211 388h106l56 -388h-70zM217 22l-27 193h-2l-104 -193h133z" />
    <glyph glyph-name="B.subs" horiz-adv-x="386" 
d="M285.5 50.5q15.5 -21.5 15.5 -54.5q0 -59 -41 -87.5t-113 -28.5h-152l77 388h130q57 0 88 -22t31 -67q0 -39 -22 -63.5t-61 -33.5q32 -10 47.5 -31.5zM110 105h57q81 0 81 62q0 27 -16 39.5t-50 12.5h-49zM230 -3q0 60 -71 60h-59l-25 -128h63q92 0 92 68z" />
    <glyph glyph-name="C.subs" horiz-adv-x="432" 
d="M45.5 -85q-42.5 45 -42.5 127q0 64 25.5 118t75 86t117.5 32q45 0 79.5 -15.5t53.5 -45.5t19 -73q0 -12 -1 -22h-74q4 47 -18.5 70.5t-65.5 23.5q-45 0 -76.5 -25t-47 -64.5t-15.5 -82.5q0 -54 25.5 -82.5t69.5 -28.5q42 0 71 21t39 60h72q-16 -69 -65 -106.5t-124 -37.5
t-117.5 45z" />
    <glyph glyph-name="D.subs" horiz-adv-x="437" 
d="M72 268h120q92 0 132.5 -41.5t40.5 -122.5q0 -63 -26.5 -114t-76 -80.5t-117.5 -29.5h-150zM145 -60q48 0 81 21.5t49.5 58.5t16.5 83q0 53 -25 79.5t-79 26.5h-57l-54 -269h68z" />
    <glyph glyph-name="E.subs" horiz-adv-x="348" 
d="M72 268h242l-11 -57h-171l-22 -105h170l-12 -58h-169l-22 -110h171l-11 -58h-242z" />
    <glyph glyph-name="F.subs" horiz-adv-x="333" 
d="M72 268h233l-11 -57h-162l-22 -107h161l-11 -58h-162l-32 -166h-71z" />
    <glyph glyph-name="G.subs" horiz-adv-x="438" 
d="M201 88h167l-6 -37q-16 -86 -66 -133.5t-130 -47.5q-82 0 -123 46t-41 124q0 64 26.5 118.5t76.5 87t116 32.5q71 0 112 -36t41 -106h-71q0 43 -23.5 63t-62.5 20q-43 0 -75 -23t-49.5 -62.5t-17.5 -88.5q0 -54 23.5 -84.5t75.5 -30.5q49 0 77.5 29t37.5 76h-98z" />
    <glyph glyph-name="H.subs" horiz-adv-x="446" 
d="M72 268h71l-32 -160h170l31 160h71l-77 -388h-71l33 166h-170l-32 -166h-71z" />
    <glyph glyph-name="I.subs" horiz-adv-x="206" 
d="M72 268h71l-77 -388h-71z" />
    <glyph glyph-name="J.subs" horiz-adv-x="232" 
d="M-59 -119l13 65q7 -1 24 -1q38 0 56.5 16t25.5 56l51 251h70l-53 -268q-13 -62 -49 -92t-101 -30q-19 0 -37 3z" />
    <glyph glyph-name="K.subs" horiz-adv-x="389" 
d="M169 85l138 -205h-81l-124 184l-36 -184h-71l77 388h71l-31 -154l158 154h90z" />
    <glyph glyph-name="L.subs" horiz-adv-x="299" 
d="M72 268h71l-65 -324h147l-13 -64h-217z" />
    <glyph glyph-name="M.subs" horiz-adv-x="544" 
d="M72 268h77l68 -275l177 275h86l-77 -388h-67l56 278l-178 -278h-29l-68 278l-55 -278h-67z" />
    <glyph glyph-name="N.subs" horiz-adv-x="460" 
d="M72 268h72l128 -285l56 285h68l-77 -388h-71l-128 285l-56 -285h-69z" />
    <glyph glyph-name="O.subs" horiz-adv-x="449" 
d="M41 -83.5q-38 46.5 -38 124.5q0 66 26 120t75 85.5t113 31.5q84 0 122.5 -46t38.5 -124q0 -67 -26.5 -121t-75 -85.5t-113.5 -31.5q-84 0 -122 46.5zM242 -42q32 24 48 64t16 88q0 105 -92 105q-45 0 -76 -24t-46.5 -64.5t-15.5 -89.5t20.5 -76t69.5 -27q44 0 76 24z" />
    <glyph glyph-name="P.subs" horiz-adv-x="365" 
d="M72 268h125q65 0 97.5 -26t32.5 -80q0 -61 -38.5 -90.5t-109.5 -29.5h-81l-32 -162h-71zM167 94q90 0 90 67q0 29 -17.5 42t-51.5 13h-55l-25 -122h59z" />
    <glyph glyph-name="Q.subs" horiz-adv-x="449" 
d="M344 -27.5q-34 -59.5 -94 -85.5l28 -66l-54 -22l-28 73q-22 -2 -33 -2q-84 0 -122 46.5t-38 124.5q0 66 26 120t75 85.5t113 31.5q84 0 122.5 -46t38.5 -124q0 -76 -34 -135.5zM284.5 11q21.5 44 21.5 99q0 105 -92 105q-45 0 -76 -24t-46.5 -64.5t-15.5 -89.5t20.5 -76
t69.5 -27h7l-16 41l47 20l20 -48q39 20 60.5 64z" />
    <glyph glyph-name="R.subs" horiz-adv-x="388" 
d="M302.5 81q-32.5 -33 -89.5 -38l95 -163h-74l-93 162h-43l-32 -162h-71l78 388h139q64 0 93.5 -26.5t29.5 -75.5q0 -52 -32.5 -85zM108 92h71q41 0 62.5 18t21.5 51q0 29 -16.5 42t-52.5 13h-61z" />
    <glyph glyph-name="S.subs" horiz-adv-x="368" 
d="M45.5 -117q-33.5 13 -51 36t-17.5 55q0 13 3 28h74q-1 -6 -1 -17q0 -27 20.5 -42t58.5 -15q36 0 57 14t21 41q0 18 -10.5 30.5t-29.5 22t-54 22.5q-28 11 -48 22.5t-33.5 32t-13.5 50.5q0 36 19 62t53 39.5t79 13.5q66 0 100.5 -26.5t34.5 -71.5q0 -18 -2 -29h-72
q2 8 2 18q0 25 -17 39.5t-51 14.5q-35 0 -54 -13t-19 -39q0 -19 11.5 -31t27.5 -19t52 -20q51 -19 77 -43.5t26 -67.5q0 -58 -43.5 -89t-118.5 -31q-47 0 -80.5 13z" />
    <glyph glyph-name="T.subs" horiz-adv-x="324" 
d="M120 209h-114l12 59h297l-11 -59h-114l-65 -329h-70z" />
    <glyph glyph-name="U.subs" horiz-adv-x="413" 
d="M7 -11q0 17 5 45l47 234h70l-48 -240q-4 -17 -4 -33q0 -31 17.5 -46.5t55.5 -15.5q41 0 62.5 18.5t29.5 57.5l51 259h70l-54 -269q-13 -65 -52.5 -97t-111.5 -32q-138 0 -138 119z" />
    <glyph glyph-name="V.subs" horiz-adv-x="378" 
d="M376 268l-224 -388h-70l-71 388h70l49 -305l169 305h77z" />
    <glyph glyph-name="W.subs" horiz-adv-x="535" 
d="M533 268l-187 -388h-74l-20 290l-134 -290h-72l-35 388h65l23 -289l134 289h72l18 -287l137 287h73z" />
    <glyph glyph-name="X.subs" horiz-adv-x="403" 
d="M128 90l-98 178h76l70 -126l115 126h90l-169 -183l110 -205h-77l-81 150l-136 -150h-92z" />
    <glyph glyph-name="Y.subs" horiz-adv-x="343" 
d="M97 47l-86 221h70l59 -151l119 151h81l-173 -221l-34 -167h-70z" />
    <glyph glyph-name="Z.subs" horiz-adv-x="348" 
d="M196 207h-177l12 61h294l-252 -327h194l-12 -61h-311z" />
    <glyph glyph-name="a.subs" horiz-adv-x="365" 
d="M275 84q0 -22 -6 -48l-31 -156h-67l7 35q-37 -42 -104 -42q-49 0 -73.5 22t-24.5 61q0 56 42.5 78.5t113.5 22.5h74q4 19 4 28q0 24 -14 36t-46 12t-49.5 -12.5t-21.5 -36.5h-69q10 48 45.5 73.5t96.5 25.5q123 0 123 -99zM165 -53.5q23 22.5 32 68.5h-64q-42 0 -64 -12
t-22 -39q0 -20 13 -30t38 -10q44 0 67 22.5z" />
    <glyph glyph-name="b.subs" horiz-adv-x="385" 
d="M282 147q28 -36 28 -94q0 -49 -19 -90t-54 -65.5t-81 -24.5q-37 0 -62 14t-36 42l-9 -49h-65l84 424h67l-32 -160q38 39 92 39q59 0 87 -36zM194 -52.5q23 15.5 34.5 42t11.5 57.5q0 35 -16.5 56t-52.5 21q-34 0 -58 -23t-32 -64q-6 -31 -6 -45q0 -29 17 -44.5t47 -15.5
q32 0 55 15.5z" />
    <glyph glyph-name="c.subs" horiz-adv-x="352" 
d="M21 -90.5q-33 36.5 -33 97.5q0 49 21 89t59.5 63.5t88.5 23.5q63 0 95.5 -31t32.5 -89h-73q0 29 -15 45t-44 16q-31 0 -52.5 -16t-32 -42.5t-10.5 -56.5q0 -35 16.5 -56t49.5 -21q29 0 48 15.5t24 40.5h73q-11 -54 -52 -84.5t-97 -30.5q-66 0 -99 36.5z" />
    <glyph glyph-name="d.subs" horiz-adv-x="386" 
d="M340 304l-85 -424h-65l7 34q-37 -42 -95 -42q-59 0 -87 36t-28 94q0 49 19 90t54 65.5t81 24.5q36 0 61 -13.5t36 -40.5l35 176h67zM184 -46q24 23 32 64q6 26 6 45q0 29 -16.5 44.5t-46.5 15.5q-32 0 -55 -15.5t-35 -42t-12 -57.5q0 -35 17 -56t52 -21q34 0 58 23z" />
    <glyph glyph-name="e.subs" horiz-adv-x="363" 
d="M56 13v-9q0 -39 16.5 -60t54.5 -21q32 0 53.5 14.5t28.5 42.5h68q-8 -34 -30.5 -58t-54.5 -36.5t-68 -12.5q-69 0 -103 36t-34 97q0 49 21.5 89.5t61 64t89.5 23.5q62 0 96.5 -32.5t34.5 -93.5q0 -23 -5 -44h-229zM96.5 111q-23.5 -21 -33.5 -55h161v4q0 35 -16.5 53.5
t-52.5 18.5q-35 0 -58.5 -21z" />
    <glyph glyph-name="f.subs" horiz-adv-x="219" 
d="M35 119h-44l11 56h44l9 46q10 47 37 68.5t78 21.5q29 0 45 -5l-10 -52q-16 4 -28 4q-49 0 -58 -47l-6 -36h75l-11 -56h-76l-47 -239h-67z" />
    <glyph glyph-name="g.subs" horiz-adv-x="384" 
d="M313 175l-60 -301q-12 -58 -51.5 -90t-110.5 -32q-65 0 -99 25t-33 74h70q-1 -24 16 -36.5t48 -12.5q77 0 94 75l7 35q-37 -38 -91 -38q-59 0 -87.5 36t-28.5 94q0 48 19 88.5t54 65t81 24.5q76 0 98 -55l9 48h65zM184.5 -44.5q23.5 22.5 32.5 64.5q5 25 5 43
q0 29 -16.5 44.5t-46.5 15.5q-32 0 -55 -15.5t-34.5 -41t-11.5 -56.5q0 -35 16.5 -56t51.5 -21t58.5 22.5z" />
    <glyph glyph-name="h.subs" horiz-adv-x="380" 
d="M265.5 157.5q24.5 -25.5 24.5 -73.5q0 -21 -4 -42l-33 -162h-66l31 157q4 24 4 32q0 28 -13.5 41.5t-42.5 13.5q-33 0 -53.5 -18.5t-27.5 -54.5l-34 -171h-67l84 424h67l-31 -158q34 37 90 37q47 0 71.5 -25.5z" />
    <glyph glyph-name="i.subs" horiz-adv-x="179" 
d="M65 241.5q-12 11.5 -12 27.5q0 17 11.5 29t29.5 12q17 0 29 -11.5t12 -28.5t-12 -28.5t-29 -11.5t-29 11.5zM43 175h66l-59 -295h-66z" />
    <glyph glyph-name="j.subs" horiz-adv-x="179" 
d="M65.5 241q-11.5 11 -11.5 28q0 18 11.5 29.5t29.5 11.5q17 0 29 -11.5t12 -28.5q0 -16 -12 -28t-29 -12q-18 0 -29.5 11zM-98 -238l12 58q8 -2 20 -2q19 0 29.5 8.5t14.5 28.5l65 320h66l-67 -334q-8 -43 -32.5 -63t-68.5 -20q-24 0 -39 4z" />
    <glyph glyph-name="k.subs" horiz-adv-x="326" 
d="M141 33l116 -153h-81l-98 137l-27 -137h-67l84 424h67l-48 -242l123 113h90z" />
    <glyph glyph-name="l.subs" horiz-adv-x="179" 
d="M68 304h66l-84 -424h-66z" />
    <glyph glyph-name="m.subs" horiz-adv-x="567" 
d="M453 157.5q24 -25.5 24 -73.5q0 -21 -4 -42l-32 -162h-67l31 157q4 16 4 32q0 28 -12.5 41.5t-38.5 13.5q-63 0 -78 -73l-34 -171h-67l31 157q4 16 4 32q0 28 -12.5 41.5t-38.5 13.5q-63 0 -78 -73l-34 -171h-67l59 295h63l-7 -33q36 41 92 41q34 0 56 -15t31 -44
q19 30 44.5 44.5t60.5 14.5q46 0 70 -25.5z" />
    <glyph glyph-name="n.subs" horiz-adv-x="380" 
d="M265.5 157.5q24.5 -25.5 24.5 -73.5q0 -21 -4 -42l-33 -162h-66l31 157q4 24 4 32q0 28 -13.5 41.5t-42.5 13.5q-33 0 -53.5 -18.5t-27.5 -54.5l-34 -171h-67l59 295h63l-7 -34q36 42 95 42q47 0 71.5 -25.5z" />
    <glyph glyph-name="o.subs" horiz-adv-x="365" 
d="M22.5 -90q-34.5 37 -34.5 97q0 49 21 89.5t59 63.5t87 23q68 0 101.5 -37t33.5 -98q0 -49 -21 -89t-58.5 -63t-86.5 -23q-67 0 -101.5 37zM179 -53q21 16 31 42.5t10 57.5q0 36 -16.5 56.5t-52.5 20.5q-30 0 -51 -16t-31.5 -42t-10.5 -58q0 -35 17 -56t53 -21q30 0 51 16
z" />
    <glyph glyph-name="p.subs" horiz-adv-x="385" 
d="M282.5 147q28.5 -36 28.5 -94q0 -49 -19 -90t-54 -65.5t-81 -24.5q-36 0 -60.5 13t-36.5 39l-34 -166h-66l83 416h64l-7 -35q37 43 95 43q59 0 87.5 -36zM194 -52.5q23 15.5 34.5 42t11.5 57.5q0 35 -16.5 56t-51.5 21t-59 -23t-32 -64q-6 -31 -6 -45q0 -29 17 -44.5
t47 -15.5q32 0 55 15.5z" />
    <glyph glyph-name="q.subs" horiz-adv-x="385" 
d="M313 175l-83 -416h-67l31 151q-37 -38 -92 -38q-59 0 -87 36t-28 94q0 49 19 90t54 65.5t81 24.5q76 0 98 -55l9 48h65zM184 -46q24 23 32 64q6 26 6 45q0 29 -16.5 44.5t-46.5 15.5q-32 0 -55 -15.5t-35 -42t-12 -57.5q0 -35 17 -56t52 -21q34 0 58 23z" />
    <glyph glyph-name="r.subs" horiz-adv-x="242" 
d="M217 175l-13 -61q-9 3 -26 3q-40 0 -65 -24.5t-34 -71.5l-28 -141h-67l59 295h63l-8 -38q34 42 88 42q15 0 31 -4z" />
    <glyph glyph-name="s.subs" horiz-adv-x="312" 
d="M3 -105.5q-29 23.5 -29 66.5q0 11 1 17h66v-12q0 -44 57 -44q27 0 42 9.5t15 28.5t-13.5 28.5t-43.5 19.5q-43 15 -65 33.5t-22 52.5q0 42 32.5 65.5t85.5 23.5q56 0 83 -21.5t27 -60.5q0 -8 -1 -13h-64q1 3 1 9q0 39 -50 39q-23 0 -35.5 -9.5t-12.5 -26.5q0 -11 7 -18.5
t21.5 -13.5t31.5 -11q44 -15 66 -35t22 -56q0 -46 -36.5 -70.5t-94.5 -24.5q-62 0 -91 23.5z" />
    <glyph glyph-name="t.subs" horiz-adv-x="236" 
d="M26 -107.5q-21 17.5 -21 57.5q0 19 4 38l27 131h-46l11 56h46l14 71h67l-14 -71h82l-11 -56h-83l-26 -132q-3 -12 -3 -21q0 -17 9.5 -25t29.5 -8q19 0 35 4l-11 -57q-23 -5 -43 -5q-46 0 -67 17.5z" />
    <glyph glyph-name="u.subs" horiz-adv-x="380" 
d="M309 175l-59 -295h-63l7 33q-19 -21 -42 -31t-52 -10q-47 0 -72 25.5t-25 73.5q0 15 5 42l32 162h67l-31 -157q-4 -16 -4 -31q0 -29 13.5 -42.5t42.5 -13.5q65 0 80 73l35 171h66z" />
    <glyph glyph-name="v.subs" horiz-adv-x="330" 
d="M-1 175h68l37 -214l123 214h77l-173 -295h-77z" />
    <glyph glyph-name="w.subs" horiz-adv-x="493" 
d="M467 175l-166 -295h-65l-22 207l-103 -207h-65l-47 295h67l26 -210l108 210h58l24 -208l108 208h77z" />
    <glyph glyph-name="x.subs" horiz-adv-x="347" 
d="M92 33l-87 142h73l57 -97l95 97h87l-145 -145l89 -150h-71l-62 103l-99 -103h-86z" />
    <glyph glyph-name="y.subs" horiz-adv-x="336" 
d="M309 175l-259 -415h-74l76 122l-53 293h68l33 -224l132 224h77z" />
    <glyph glyph-name="z.subs" horiz-adv-x="302" 
d="M69 -63h152l-11 -57h-269l208 239h-145l11 56h257z" />
    <glyph glyph-name="A.sups" horiz-adv-x="386" 
d="M336 524h-170l-46 -86h-75l211 388h106l56 -388h-70zM329 580l-27 193h-2l-104 -193h133z" />
    <glyph glyph-name="B.sups" horiz-adv-x="386" 
d="M397.5 608.5q15.5 -21.5 15.5 -54.5q0 -59 -41 -87.5t-113 -28.5h-152l77 388h130q57 0 88 -22t31 -67q0 -39 -22 -63.5t-61 -33.5q32 -10 47.5 -31.5zM222 663h57q81 0 81 62q0 27 -16 39.5t-50 12.5h-49zM342 555q0 60 -71 60h-59l-25 -128h63q92 0 92 68z" />
    <glyph glyph-name="C.sups" horiz-adv-x="432" 
d="M157.5 473q-42.5 45 -42.5 127q0 64 25.5 118t75 86t117.5 32q45 0 79.5 -15.5t53.5 -45.5t19 -73q0 -12 -1 -22h-74q4 47 -18.5 70.5t-65.5 23.5q-45 0 -76.5 -25t-47 -64.5t-15.5 -82.5q0 -54 25.5 -82.5t69.5 -28.5q42 0 71 21t39 60h72q-16 -69 -65 -106.5
t-124 -37.5t-117.5 45z" />
    <glyph glyph-name="D.sups" horiz-adv-x="437" 
d="M184 826h120q92 0 132.5 -41.5t40.5 -122.5q0 -63 -26.5 -114t-76 -80.5t-117.5 -29.5h-150zM257 498q48 0 81 21.5t49.5 58.5t16.5 83q0 53 -25 79.5t-79 26.5h-57l-54 -269h68z" />
    <glyph glyph-name="E.sups" horiz-adv-x="348" 
d="M184 826h242l-11 -57h-171l-22 -105h170l-12 -58h-169l-22 -110h171l-11 -58h-242z" />
    <glyph glyph-name="F.sups" horiz-adv-x="333" 
d="M184 826h233l-11 -57h-162l-22 -107h161l-11 -58h-162l-32 -166h-71z" />
    <glyph glyph-name="G.sups" horiz-adv-x="438" 
d="M313 646h167l-6 -37q-16 -86 -66 -133.5t-130 -47.5q-82 0 -123 46t-41 124q0 64 26.5 118.5t76.5 87t116 32.5q71 0 112 -36t41 -106h-71q0 43 -23.5 63t-62.5 20q-43 0 -75 -23t-49.5 -62.5t-17.5 -88.5q0 -54 23.5 -84.5t75.5 -30.5q49 0 77.5 29t37.5 76h-98z" />
    <glyph glyph-name="H.sups" horiz-adv-x="446" 
d="M184 826h71l-32 -160h170l31 160h71l-77 -388h-71l33 166h-170l-32 -166h-71z" />
    <glyph glyph-name="I.sups" horiz-adv-x="206" 
d="M184 826h71l-77 -388h-71z" />
    <glyph glyph-name="J.sups" horiz-adv-x="232" 
d="M53 439l13 65q7 -1 24 -1q38 0 56.5 16t25.5 56l51 251h70l-53 -268q-13 -62 -49 -92t-101 -30q-19 0 -37 3z" />
    <glyph glyph-name="K.sups" horiz-adv-x="389" 
d="M281 643l138 -205h-81l-124 184l-36 -184h-71l77 388h71l-31 -154l158 154h90z" />
    <glyph glyph-name="L.sups" horiz-adv-x="299" 
d="M184 826h71l-65 -324h147l-13 -64h-217z" />
    <glyph glyph-name="M.sups" horiz-adv-x="544" 
d="M184 826h77l68 -275l177 275h86l-77 -388h-67l56 278l-178 -278h-29l-68 278l-55 -278h-67z" />
    <glyph glyph-name="N.sups" horiz-adv-x="460" 
d="M184 826h72l128 -285l56 285h68l-77 -388h-71l-128 285l-56 -285h-69z" />
    <glyph glyph-name="O.sups" horiz-adv-x="449" 
d="M153 474.5q-38 46.5 -38 124.5q0 66 26 120t75 85.5t113 31.5q84 0 122.5 -46t38.5 -124q0 -67 -26.5 -121t-75 -85.5t-113.5 -31.5q-84 0 -122 46.5zM354 516q32 24 48 64t16 88q0 105 -92 105q-45 0 -76 -24t-46.5 -64.5t-15.5 -89.5t20.5 -76t69.5 -27q44 0 76 24z
" />
    <glyph glyph-name="P.sups" horiz-adv-x="365" 
d="M184 826h125q65 0 97.5 -26t32.5 -80q0 -61 -38.5 -90.5t-109.5 -29.5h-81l-32 -162h-71zM279 652q90 0 90 67q0 29 -17.5 42t-51.5 13h-55l-25 -122h59z" />
    <glyph glyph-name="Q.sups" horiz-adv-x="449" 
d="M456 530.5q-34 -59.5 -94 -85.5l28 -66l-54 -22l-28 73q-22 -2 -33 -2q-84 0 -122 46.5t-38 124.5q0 66 26 120t75 85.5t113 31.5q84 0 122.5 -46t38.5 -124q0 -76 -34 -135.5zM396.5 569q21.5 44 21.5 99q0 105 -92 105q-45 0 -76 -24t-46.5 -64.5t-15.5 -89.5t20.5 -76
t69.5 -27h7l-16 41l47 20l20 -48q39 20 60.5 64z" />
    <glyph glyph-name="R.sups" horiz-adv-x="388" 
d="M414.5 639q-32.5 -33 -89.5 -38l95 -163h-74l-93 162h-43l-32 -162h-71l78 388h139q64 0 93.5 -26.5t29.5 -75.5q0 -52 -32.5 -85zM220 650h71q41 0 62.5 18t21.5 51q0 29 -16.5 42t-52.5 13h-61z" />
    <glyph glyph-name="S.sups" horiz-adv-x="368" 
d="M157.5 441q-33.5 13 -51 36t-17.5 55q0 13 3 28h74q-1 -6 -1 -17q0 -27 20.5 -42t58.5 -15q36 0 57 14t21 41q0 18 -10.5 30.5t-29.5 22t-54 22.5q-28 11 -48 22.5t-33.5 32t-13.5 50.5q0 36 19 62t53 39.5t79 13.5q66 0 100.5 -26.5t34.5 -71.5q0 -18 -2 -29h-72
q2 8 2 18q0 25 -17 39.5t-51 14.5q-35 0 -54 -13t-19 -39q0 -19 11.5 -31t27.5 -19t52 -20q51 -19 77 -43.5t26 -67.5q0 -58 -43.5 -89t-118.5 -31q-47 0 -80.5 13z" />
    <glyph glyph-name="T.sups" horiz-adv-x="324" 
d="M232 767h-114l12 59h297l-11 -59h-114l-65 -329h-70z" />
    <glyph glyph-name="U.sups" horiz-adv-x="413" 
d="M119 547q0 17 5 45l47 234h70l-48 -240q-4 -17 -4 -33q0 -31 17.5 -46.5t55.5 -15.5q41 0 62.5 18.5t29.5 57.5l51 259h70l-54 -269q-13 -65 -52.5 -97t-111.5 -32q-138 0 -138 119z" />
    <glyph glyph-name="V.sups" horiz-adv-x="378" 
d="M488 826l-224 -388h-70l-71 388h70l49 -305l169 305h77z" />
    <glyph glyph-name="W.sups" horiz-adv-x="535" 
d="M645 826l-187 -388h-74l-20 290l-134 -290h-72l-35 388h65l23 -289l134 289h72l18 -287l137 287h73z" />
    <glyph glyph-name="X.sups" horiz-adv-x="403" 
d="M240 648l-98 178h76l70 -126l115 126h90l-169 -183l110 -205h-77l-81 150l-136 -150h-92z" />
    <glyph glyph-name="Y.sups" horiz-adv-x="343" 
d="M209 605l-86 221h70l59 -151l119 151h81l-173 -221l-34 -167h-70z" />
    <glyph glyph-name="Z.sups" horiz-adv-x="348" 
d="M308 765h-177l12 61h294l-252 -327h194l-12 -61h-311z" />
    <glyph glyph-name="a.sups" horiz-adv-x="365" 
d="M387 642q0 -22 -6 -48l-31 -156h-67l7 35q-37 -42 -104 -42q-49 0 -73.5 22t-24.5 61q0 56 42.5 78.5t113.5 22.5h74q4 19 4 28q0 24 -14 36t-46 12t-49.5 -12.5t-21.5 -36.5h-69q10 48 45.5 73.5t96.5 25.5q123 0 123 -99zM277 504.5q23 22.5 32 68.5h-64q-42 0 -64 -12
t-22 -39q0 -20 13 -30t38 -10q44 0 67 22.5z" />
    <glyph glyph-name="b.sups" horiz-adv-x="385" 
d="M394 705q28 -36 28 -94q0 -49 -19 -90t-54 -65.5t-81 -24.5q-37 0 -62 14t-36 42l-9 -49h-65l84 424h67l-32 -160q38 39 92 39q59 0 87 -36zM306 505.5q23 15.5 34.5 42t11.5 57.5q0 35 -16.5 56t-52.5 21q-34 0 -58 -23t-32 -64q-6 -31 -6 -45q0 -29 17 -44.5t47 -15.5
q32 0 55 15.5z" />
    <glyph glyph-name="c.sups" horiz-adv-x="352" 
d="M133 467.5q-33 36.5 -33 97.5q0 49 21 89t59.5 63.5t88.5 23.5q63 0 95.5 -31t32.5 -89h-73q0 29 -15 45t-44 16q-31 0 -52.5 -16t-32 -42.5t-10.5 -56.5q0 -35 16.5 -56t49.5 -21q29 0 48 15.5t24 40.5h73q-11 -54 -52 -84.5t-97 -30.5q-66 0 -99 36.5z" />
    <glyph glyph-name="d.sups" horiz-adv-x="386" 
d="M452 862l-85 -424h-65l7 34q-37 -42 -95 -42q-59 0 -87 36t-28 94q0 49 19 90t54 65.5t81 24.5q36 0 61 -13.5t36 -40.5l35 176h67zM296 512q24 23 32 64q6 26 6 45q0 29 -16.5 44.5t-46.5 15.5q-32 0 -55 -15.5t-35 -42t-12 -57.5q0 -35 17 -56t52 -21q34 0 58 23z" />
    <glyph glyph-name="e.sups" horiz-adv-x="363" 
d="M168 571v-9q0 -39 16.5 -60t54.5 -21q32 0 53.5 14.5t28.5 42.5h68q-8 -34 -30.5 -58t-54.5 -36.5t-68 -12.5q-69 0 -103 36t-34 97q0 49 21.5 89.5t61 64t89.5 23.5q62 0 96.5 -32.5t34.5 -93.5q0 -23 -5 -44h-229zM208.5 669q-23.5 -21 -33.5 -55h161v4
q0 35 -16.5 53.5t-52.5 18.5q-35 0 -58.5 -21z" />
    <glyph glyph-name="f.sups" horiz-adv-x="219" 
d="M147 677h-44l11 56h44l9 46q10 47 37 68.5t78 21.5q29 0 45 -5l-10 -52q-16 4 -28 4q-49 0 -58 -47l-6 -36h75l-11 -56h-76l-47 -239h-67z" />
    <glyph glyph-name="g.sups" horiz-adv-x="384" 
d="M425 733l-60 -301q-12 -58 -51.5 -90t-110.5 -32q-65 0 -99 25t-33 74h70q-1 -24 16 -36.5t48 -12.5q77 0 94 75l7 35q-37 -38 -91 -38q-59 0 -87.5 36t-28.5 94q0 48 19 88.5t54 65t81 24.5q76 0 98 -55l9 48h65zM296.5 513.5q23.5 22.5 32.5 64.5q5 25 5 43
q0 29 -16.5 44.5t-46.5 15.5q-32 0 -55 -15.5t-34.5 -41t-11.5 -56.5q0 -35 16.5 -56t51.5 -21t58.5 22.5z" />
    <glyph glyph-name="h.sups" horiz-adv-x="380" 
d="M377.5 715.5q24.5 -25.5 24.5 -73.5q0 -21 -4 -42l-33 -162h-66l31 157q4 24 4 32q0 28 -13.5 41.5t-42.5 13.5q-33 0 -53.5 -18.5t-27.5 -54.5l-34 -171h-67l84 424h67l-31 -158q34 37 90 37q47 0 71.5 -25.5z" />
    <glyph glyph-name="i.sups" horiz-adv-x="179" 
d="M177 799.5q-12 11.5 -12 27.5q0 17 11.5 29t29.5 12q17 0 29 -11.5t12 -28.5t-12 -28.5t-29 -11.5t-29 11.5zM155 733h66l-59 -295h-66z" />
    <glyph glyph-name="j.sups" horiz-adv-x="179" 
d="M177.5 799q-11.5 11 -11.5 28q0 18 11.5 29.5t29.5 11.5q17 0 29 -11.5t12 -28.5q0 -16 -12 -28t-29 -12q-18 0 -29.5 11zM14 320l12 58q8 -2 20 -2q19 0 29.5 8.5t14.5 28.5l65 320h66l-67 -334q-8 -43 -32.5 -63t-68.5 -20q-24 0 -39 4z" />
    <glyph glyph-name="k.sups" horiz-adv-x="326" 
d="M253 591l116 -153h-81l-98 137l-27 -137h-67l84 424h67l-48 -242l123 113h90z" />
    <glyph glyph-name="l.sups" horiz-adv-x="179" 
d="M180 862h66l-84 -424h-66z" />
    <glyph glyph-name="m.sups" horiz-adv-x="567" 
d="M565 715.5q24 -25.5 24 -73.5q0 -21 -4 -42l-32 -162h-67l31 157q4 16 4 32q0 28 -12.5 41.5t-38.5 13.5q-63 0 -78 -73l-34 -171h-67l31 157q4 16 4 32q0 28 -12.5 41.5t-38.5 13.5q-63 0 -78 -73l-34 -171h-67l59 295h63l-7 -33q36 41 92 41q34 0 56 -15t31 -44
q19 30 44.5 44.5t60.5 14.5q46 0 70 -25.5z" />
    <glyph glyph-name="n.sups" horiz-adv-x="380" 
d="M377.5 715.5q24.5 -25.5 24.5 -73.5q0 -21 -4 -42l-33 -162h-66l31 157q4 24 4 32q0 28 -13.5 41.5t-42.5 13.5q-33 0 -53.5 -18.5t-27.5 -54.5l-34 -171h-67l59 295h63l-7 -34q36 42 95 42q47 0 71.5 -25.5z" />
    <glyph glyph-name="o.sups" horiz-adv-x="365" 
d="M134.5 468q-34.5 37 -34.5 97q0 49 21 89.5t59 63.5t87 23q68 0 101.5 -37t33.5 -98q0 -49 -21 -89t-58.5 -63t-86.5 -23q-67 0 -101.5 37zM291 505q21 16 31 42.5t10 57.5q0 36 -16.5 56.5t-52.5 20.5q-30 0 -51 -16t-31.5 -42t-10.5 -58q0 -35 17 -56t53 -21
q30 0 51 16z" />
    <glyph glyph-name="p.sups" horiz-adv-x="385" 
d="M394.5 705q28.5 -36 28.5 -94q0 -49 -19 -90t-54 -65.5t-81 -24.5q-36 0 -60.5 13t-36.5 39l-34 -166h-66l83 416h64l-7 -35q37 43 95 43q59 0 87.5 -36zM306 505.5q23 15.5 34.5 42t11.5 57.5q0 35 -16.5 56t-51.5 21t-59 -23t-32 -64q-6 -31 -6 -45q0 -29 17 -44.5
t47 -15.5q32 0 55 15.5z" />
    <glyph glyph-name="q.sups" horiz-adv-x="385" 
d="M425 733l-83 -416h-67l31 151q-37 -38 -92 -38q-59 0 -87 36t-28 94q0 49 19 90t54 65.5t81 24.5q76 0 98 -55l9 48h65zM296 512q24 23 32 64q6 26 6 45q0 29 -16.5 44.5t-46.5 15.5q-32 0 -55 -15.5t-35 -42t-12 -57.5q0 -35 17 -56t52 -21q34 0 58 23z" />
    <glyph glyph-name="r.sups" horiz-adv-x="242" 
d="M329 733l-13 -61q-9 3 -26 3q-40 0 -65 -24.5t-34 -71.5l-28 -141h-67l59 295h63l-8 -38q34 42 88 42q15 0 31 -4z" />
    <glyph glyph-name="s.sups" horiz-adv-x="312" 
d="M115 452.5q-29 23.5 -29 66.5q0 11 1 17h66v-12q0 -44 57 -44q27 0 42 9.5t15 28.5t-13.5 28.5t-43.5 19.5q-43 15 -65 33.5t-22 52.5q0 42 32.5 65.5t85.5 23.5q56 0 83 -21.5t27 -60.5q0 -8 -1 -13h-64q1 3 1 9q0 39 -50 39q-23 0 -35.5 -9.5t-12.5 -26.5
q0 -11 7 -18.5t21.5 -13.5t31.5 -11q44 -15 66 -35t22 -56q0 -46 -36.5 -70.5t-94.5 -24.5q-62 0 -91 23.5z" />
    <glyph glyph-name="t.sups" horiz-adv-x="236" 
d="M138 450.5q-21 17.5 -21 57.5q0 19 4 38l27 131h-46l11 56h46l14 71h67l-14 -71h82l-11 -56h-83l-26 -132q-3 -12 -3 -21q0 -17 9.5 -25t29.5 -8q19 0 35 4l-11 -57q-23 -5 -43 -5q-46 0 -67 17.5z" />
    <glyph glyph-name="u.sups" horiz-adv-x="380" 
d="M421 733l-59 -295h-63l7 33q-19 -21 -42 -31t-52 -10q-47 0 -72 25.5t-25 73.5q0 15 5 42l32 162h67l-31 -157q-4 -16 -4 -31q0 -29 13.5 -42.5t42.5 -13.5q65 0 80 73l35 171h66z" />
    <glyph glyph-name="v.sups" horiz-adv-x="330" 
d="M111 733h68l37 -214l123 214h77l-173 -295h-77z" />
    <glyph glyph-name="w.sups" horiz-adv-x="493" 
d="M579 733l-166 -295h-65l-22 207l-103 -207h-65l-47 295h67l26 -210l108 210h58l24 -208l108 208h77z" />
    <glyph glyph-name="x.sups" horiz-adv-x="347" 
d="M204 591l-87 142h73l57 -97l95 97h87l-145 -145l89 -150h-71l-62 103l-99 -103h-86z" />
    <glyph glyph-name="y.sups" horiz-adv-x="336" 
d="M421 733l-259 -415h-74l76 122l-53 293h68l33 -224l132 224h77z" />
    <glyph glyph-name="z.sups" horiz-adv-x="302" 
d="M181 495h152l-11 -57h-269l208 239h-145l11 56h257z" />
    <glyph glyph-name="zero.lf" horiz-adv-x="659" 
d="M173 15.5q-52 31.5 -76.5 87.5t-24.5 130q0 69 15 147q20 99 61 176t103.5 121.5t145.5 44.5q119 0 176 -67.5t57 -181.5q0 -76 -15 -147q-20 -99 -60.5 -176t-103.5 -121.5t-146 -44.5q-80 0 -132 31.5zM407.5 101.5q42.5 35.5 70.5 94.5t42 134q16 82 16 142
q0 78 -34 123t-108 45q-82 0 -135 -74t-76 -190q-16 -82 -16 -142q0 -78 34 -123t108 -45q56 0 98.5 35.5z" />
    <glyph glyph-name="one.lf" horiz-adv-x="352" 
d="M229 622h-120l33 84h194l-141 -706h-91z" />
    <glyph glyph-name="two.lf" horiz-adv-x="559" 
d="M-21 3l345 306q52 46 81 76.5t47 65.5t18 76q0 53 -29.5 83.5t-92.5 30.5q-140 0 -172 -175h-89q22 119 88 187.5t180 68.5q106 0 158 -51t52 -138q0 -49 -17 -90t-46.5 -76t-75.5 -75q-100 -87 -247 -211h307l-16 -81h-492z" />
    <glyph glyph-name="three.lf" horiz-adv-x="586" 
d="M531 431q-43 -46 -118 -61q110 -36 110 -157q0 -69 -34 -121t-94.5 -80t-139.5 -28q-119 0 -172 50.5t-53 146.5q0 35 7 69h87q-7 -35 -7 -59q0 -62 33 -95.5t108 -33.5q53 0 92 19.5t60 54.5t21 81q0 62 -40.5 91.5t-121.5 29.5h-10l13 68h26q88 0 136.5 35t48.5 101
q0 50 -32 78.5t-95 28.5q-74 0 -115.5 -43.5t-55.5 -117.5h-89q22 111 89 172.5t179 61.5q71 0 118 -22t69.5 -60.5t22.5 -90.5q0 -72 -43 -118z" />
    <glyph glyph-name="four.lf" horiz-adv-x="602" 
d="M568 176h-99l-35 -176h-90l35 176h-388l1 4l412 526h171l-90 -452h100zM395 254l83 416h-1l-326 -416h244z" />
    <glyph glyph-name="five.lf" horiz-adv-x="574" 
d="M276 626l-64 -174q43 10 88 10q76 0 127 -27t75.5 -75.5t24.5 -114.5q0 -76 -34.5 -135.5t-97 -92.5t-142.5 -33q-113 0 -165.5 51t-52.5 141q0 27 6 55h88q-4 -21 -4 -46q0 -123 130 -123q55 0 95 22.5t61 62.5t21 90q0 154 -182 154q-37 0 -77 -6t-78 -18l123 339h372
l-33 -80h-281z" />
    <glyph glyph-name="six.lf" horiz-adv-x="644" 
d="M492.5 431q47.5 -27 72 -73.5t24.5 -105.5q0 -74 -37 -135.5t-101 -97t-143 -35.5q-123 0 -178 71t-55 193q0 126 40.5 234.5t119.5 174t188 65.5q68 0 116 -25t73 -71.5t25 -109.5h-89q0 63 -33.5 97.5t-95.5 34.5q-66 0 -117 -38.5t-83 -103.5t-46 -145q35 45 87.5 71
t117.5 26q67 0 114.5 -27zM406.5 87q42.5 26 66 69.5t23.5 94.5q0 40 -16 70.5t-47.5 48t-76.5 17.5q-56 0 -98 -25t-64.5 -67.5t-22.5 -92.5q0 -40 15.5 -72t46.5 -50.5t76 -18.5q55 0 97.5 26z" />
    <glyph glyph-name="seven.lf" horiz-adv-x="519" 
d="M432 622h-324l17 84h465l-435 -706h-110z" />
    <glyph glyph-name="eight.lf" horiz-adv-x="626" 
d="M535 312.5q28 -42.5 28 -101.5q0 -70 -35.5 -121.5t-98 -78.5t-140.5 -27q-123 0 -184.5 51.5t-61.5 140.5q0 54 24 98t67 72t99 36q-51 17 -76.5 57.5t-25.5 94.5q0 58 33.5 100.5t90 65t125.5 22.5q75 0 127.5 -20.5t79 -58.5t26.5 -90q0 -47 -20.5 -85t-57.5 -63
t-85 -32q57 -18 85 -60.5zM296 639q-35 -16 -54.5 -45.5t-19.5 -69.5q0 -55 34.5 -85.5t98.5 -30.5q47 0 84.5 17t59 47.5t21.5 69.5q0 53 -35.5 83t-106.5 30q-47 0 -82 -16zM383 76q40 19 62.5 53.5t22.5 79.5q0 58 -37.5 93t-109.5 35q-53 0 -95 -20t-65 -55t-23 -79
q0 -58 39 -92t115 -34q51 0 91 19z" />
    <glyph glyph-name="nine.lf" horiz-adv-x="640" 
d="M560 653q55 -71 55 -193q0 -126 -41 -234.5t-120 -174t-188 -65.5q-68 0 -116 25t-73 71.5t-25 109.5h89q0 -63 33.5 -97.5t95.5 -34.5q67 0 117.5 38.5t82.5 103.5t46 145q-35 -46 -87.5 -71.5t-116.5 -25.5q-67 0 -115 27t-72 73.5t-24 105.5q0 74 36.5 135.5t101 97
t143.5 35.5q123 0 178 -71zM431 346q42 25 65 67.5t23 92.5q0 40 -15.5 72t-46.5 50.5t-77 18.5q-55 0 -97.5 -26t-65.5 -69.5t-23 -94.5q0 -62 36 -99t104 -37q55 0 97 25z" />
    <glyph glyph-name="zero.dnom" horiz-adv-x="428" 
d="M71 34q-35 43 -35 116q0 31 7 69q17 81 64 129.5t122 48.5q74 0 109 -43t35 -116q0 -30 -7 -69q-15 -80 -62.5 -129t-123.5 -49q-74 0 -109 43zM255.5 87.5q27.5 33.5 38.5 89.5q6 30 6 61q0 96 -74 96q-45 0 -72.5 -33.5t-38.5 -89.5q-6 -30 -6 -61q0 -96 74 -96
q45 0 72.5 33.5z" />
    <glyph glyph-name="one.dnom" horiz-adv-x="264" 
d="M120 323h-78l24 65h140l-78 -388h-73z" />
    <glyph glyph-name="two.dnom" horiz-adv-x="353" 
d="M-27 4l204 172q30 25 45.5 41t24.5 33t9 37q0 25 -16 39t-49 14q-40 0 -60 -22t-28 -58h-69q12 64 52 101t107 37q66 0 99.5 -28t33.5 -79q0 -39 -19.5 -68t-58.5 -61l-120 -97h156l-13 -65h-299z" />
    </font>
</defs>
</svg>
