<?xml version="1.0" standalone="no"?>
<!DOCTYPE svg PUBLIC "-//W3C//DTD SVG 1.1//EN" "http://www.w3.org/Graphics/SVG/1.1/DTD/svg11.dtd" >
<svg xmlns="http://www.w3.org/2000/svg" xmlns:xlink="http://www.w3.org/1999/xlink" version="1.1">
<metadata>
Created by FontForge 20170731 at Mon Apr  9 23:07:42 2018
 By Aleksey,,,
Copyright (c) 2018 Monotype Imaging Inc. All rights reserved.
</metadata>
<defs>
<font id="NeuePlak-CondBlack" horiz-adv-x="0" >
  <font-face 
    font-family="Neue Plak Condensed Black"
    font-weight="400"
    font-stretch="condensed"
    units-per-em="1000"
    panose-1="2 11 10 6 3 2 2 2 2 4"
    ascent="798"
    descent="-202"
    x-height="522"
    cap-height="706"
    bbox="-530 -186 794 1074"
    underline-thickness="50"
    underline-position="-200"
    unicode-range="U+000D-FEFF"
  />
<missing-glyph horiz-adv-x="444" 
d="M24 706h396v-706h-396v706zM279 126v454h-113v-454h113z" />
    <glyph glyph-name=".notdef" horiz-adv-x="444" 
d="M24 706h396v-706h-396v706zM279 126v454h-113v-454h113z" />
    <glyph glyph-name=".null" 
 />
    <glyph glyph-name="nonmarkingreturn" horiz-adv-x="333" 
 />
    <glyph glyph-name="NULL" 
 />
    <glyph glyph-name="NULL" 
 />
    <glyph glyph-name="CR" unicode="&#xd;" horiz-adv-x="127" 
 />
    <glyph glyph-name="space" unicode=" " horiz-adv-x="127" 
 />
    <glyph glyph-name="exclam" unicode="!" horiz-adv-x="247" 
d="M53 706h141l-16 -503h-109zM68.5 9.5q-21.5 20.5 -21.5 54.5q0 35 21.5 55.5t55.5 20.5t55 -20.5t21 -55.5q0 -34 -21 -54.5t-55 -20.5t-55.5 20.5z" />
    <glyph glyph-name="quotedbl" unicode="&#x22;" horiz-adv-x="378" 
d="M43 706h129l-16 -261h-97zM206 706h129l-16 -261h-97z" />
    <glyph glyph-name="numbersign" unicode="#" horiz-adv-x="506" 
d="M409 419l-15 -132h72l-14 -117h-72l-21 -183h-112l21 183h-72l-21 -183h-112l21 183h-73l14 117h72l16 132h-73l15 117h71l21 183h112l-21 -183h72l21 183h113l-21 -183h72l-14 -117h-72zM297 419h-72l-16 -132h72z" />
    <glyph glyph-name="dollar" unicode="$" horiz-adv-x="418" 
d="M401 269q4 -26 4 -76q0 -48 -3 -71t-13 -45q-19 -41 -59.5 -63.5t-101.5 -25.5v-62h-40v62q-62 3 -101.5 25.5t-57.5 61.5q-7 15 -10 29t-4.5 39t-1.5 72h145q0 -42 1 -61.5t4 -27.5q8 -18 28 -24v193q-12 6 -22.5 10t-17.5 7q-48 22 -74.5 43t-39.5 50q-10 22 -13.5 47
t-3.5 72q0 43 3 64.5t13 43.5q17 39 56 61t97 25v62h41v-62q115 -6 151 -83q6 -15 9 -28t4 -41t1 -69h-138q0 41 -0.5 59.5t-3.5 25.5q-8 18 -27 23v-176l36 -15q53 -24 82.5 -45.5t42.5 -51.5q10 -22 14 -48zM192 445v161q-13 -2 -21 -8.5t-11 -15.5q-2 -4 -2.5 -15
t-0.5 -34q0 -26 1.5 -38t5.5 -23q9 -17 28 -27zM261.5 143q0.5 13 0.5 41q0 29 -1.5 42t-6.5 23q-7 16 -29 30v-178q24 4 33 23q3 6 3.5 19z" />
    <glyph glyph-name="percent" unicode="%" horiz-adv-x="488" 
d="M25 460q-7 15 -9.5 34.5t-2.5 66.5t2.5 66.5t9.5 35.5q11 24 35 36.5t59 12.5q71 0 93 -49q8 -15 10 -34t2 -68t-2.5 -68t-9.5 -33q-22 -50 -93 -50q-72 0 -94 50zM368 706h74l-322 -706h-74zM138 493q2 5 2.5 20t0.5 48t-0.5 48t-2.5 20q-4 10 -19 10t-19 -10
q-2 -4 -2.5 -19.5t-0.5 -48.5t0.5 -48.5t2.5 -19.5q5 -10 19 -10t19 10zM275 44q-7 15 -9 34t-2 67t2 67.5t9 34.5q24 50 94 50q35 0 59 -12.5t35 -37.5q7 -16 9.5 -35.5t2.5 -66.5q0 -46 -2.5 -65.5t-9.5 -35.5q-11 -25 -35 -37.5t-59 -12.5q-70 0 -94 50zM388 77
q2 4 2.5 19.5t0.5 48.5t-0.5 48.5t-2.5 20.5q-5 10 -19 10t-19 -10q-2 -5 -2.5 -20.5t-0.5 -48.5t0.5 -48t2.5 -20q5 -10 19 -10t19 10z" />
    <glyph glyph-name="ampersand" unicode="&#x26;" horiz-adv-x="482" 
d="M466 0q-72 0 -124 33q-56 -43 -141 -43q-93 0 -138.5 46t-45.5 126q0 67 31.5 119t86.5 106q-28 63 -41.5 107.5t-13.5 81.5q0 65 40.5 104t123.5 39q71 0 114.5 -33t43.5 -104q0 -37 -17.5 -72t-43 -65t-66.5 -72l62 -143q12 42 21 96l103 -19q-13 -101 -44 -171
q18 -9 49 -12v-124zM213.5 613q-9.5 -13 -9.5 -36q0 -17 6 -39.5t19 -58.5q24 27 36.5 52.5t12.5 52.5q0 19 -9 30.5t-26 11.5q-20 0 -29.5 -13zM174 121.5q18 -20.5 50 -20.5q23 0 42 12l-16 30l-62 130q-32 -49 -32 -93q0 -38 18 -58.5z" />
    <glyph glyph-name="quotesingle" unicode="'" horiz-adv-x="215" 
d="M43 706h129l-16 -261h-97z" />
    <glyph glyph-name="parenleft" unicode="(" horiz-adv-x="255" 
d="M62.5 50.5q-22.5 108.5 -22.5 247.5t23 247t73 222h110q-44 -113 -66 -227t-22 -242q0 -127 22 -241.5t66 -226.5h-111q-50 112 -72.5 220.5z" />
    <glyph glyph-name="parenright" unicode=")" horiz-adv-x="255" 
d="M9 -170q44 112 66 226.5t22 241.5q0 128 -22 242t-66 227h110q50 -114 73 -222t23 -247t-22.5 -247.5t-72.5 -220.5h-111z" />
    <glyph glyph-name="asterisk" unicode="*" horiz-adv-x="340" 
d="M54 497l72 63l-96 9l30 93l83 -50l-22 94h97l-21 -94l83 50l30 -93l-96 -9l72 -63l-79 -56l-37 88l-38 -88z" />
    <glyph glyph-name="plus" unicode="+" horiz-adv-x="399" 
d="M371 256h-120v-122h-103v122h-119v101h119v122h104v-122h119v-101z" />
    <glyph glyph-name="comma" unicode="," horiz-adv-x="221" 
d="M65 159h121l-68 -319h-97z" />
    <glyph glyph-name="hyphen" unicode="-" horiz-adv-x="268" 
d="M29 365h210v-117h-210v117z" />
    <glyph glyph-name="period" unicode="." horiz-adv-x="250" 
d="M69.5 9.5q-21.5 20.5 -21.5 54.5q0 35 21.5 55.5t55.5 20.5t55 -20.5t21 -55.5q0 -34 -21 -54.5t-55 -20.5t-55.5 20.5z" />
    <glyph glyph-name="slash" unicode="/" horiz-adv-x="365" 
d="M221 719h126l-203 -769h-125z" />
    <glyph glyph-name="zero" unicode="0" horiz-adv-x="439" 
d="M47 88q-10 23 -15 51t-7 76.5t-2 137.5t2 137.5t7 76.5t15 51q44 101 173 101q128 0 172 -101q10 -23 15 -51t7.5 -77t2.5 -137t-2.5 -137t-7.5 -77t-15 -51q-44 -101 -172 -101q-129 0 -173 101zM265 140q4 8 5 24t1.5 64.5t0.5 124.5t-0.5 124.5t-1.5 64.5t-5 24
q-11 27 -45 27q-35 0 -46 -27q-3 -9 -4.5 -25t-2 -64t-0.5 -124t0.5 -124t2 -64t4.5 -25q11 -27 46 -27q34 0 45 27z" />
    <glyph glyph-name="one" unicode="1" horiz-adv-x="254" 
d="M80 575h-75l22 131h192v-706h-139v575z" />
    <glyph glyph-name="two" unicode="2" horiz-adv-x="391" 
d="M11 2l177 360q21 43 30 64.5t13 41.5t4 47q0 30 -1 40t-4 16q-9 23 -39 23q-31 0 -40 -24q-4 -9 -5.5 -27t-1.5 -64h-132q0 67 3.5 98t14.5 57q39 85 164 85q62 0 104 -22.5t62 -66.5q9 -20 12 -42.5t3 -60.5q0 -51 -11.5 -96.5t-35.5 -91.5q-34 -76 -105 -212h154v-127
h-366v2z" />
    <glyph glyph-name="three" unicode="3" horiz-adv-x="404" 
d="M380.5 286q2.5 -20 2.5 -72q0 -42 -1 -70.5t-4 -42t-9 -27.5q-20 -43 -61.5 -65t-109.5 -22q-63 0 -105 20t-62 64q-11 24 -14.5 56.5t-3.5 105.5h130q0 -49 1.5 -69t5.5 -29q11 -25 44 -25q35 0 44 24q3 7 4 25.5t1 57.5q0 38 -1 51t-5 21q-8 16 -25 22.5t-45 6.5h-17
v109h18q28 0 43.5 7t22.5 21q4 8 4.5 21t0.5 39q0 28 -0.5 42.5t-3.5 20.5q-9 23 -41 23t-42 -24q-2 -6 -3 -27t-2 -53h-130q0 58 3 87.5t13 50.5q19 44 63 64t104 20q64 0 104.5 -22t58.5 -62q9 -19 11.5 -40.5t2.5 -75.5q0 -41 -2.5 -58t-8.5 -32q-9 -19 -24 -32.5
t-40 -20.5q52 -15 69 -54q7 -16 9.5 -36z" />
    <glyph glyph-name="four" unicode="4" horiz-adv-x="457" 
d="M449 143h-57v-143h-137v143h-261v1l146 562h252v-436h57v-127zM255 270v378h-1l-87 -378h88z" />
    <glyph glyph-name="five" unicode="5" horiz-adv-x="399" 
d="M94 8q-42 21 -63 65q-10 23 -14 57t-4 101h133q0 -53 1.5 -71.5t5.5 -27.5q5 -12 15.5 -18t26.5 -6q32 0 42 25q4 8 5 23.5t1 71.5q0 50 -2 70.5t-7 32.5q-10 21 -35.5 30.5t-65.5 9.5q-22 0 -49.5 -2t-51.5 -6l38 343h303l-22 -128h-165l-13 -113q27 6 55 6
q104 0 139 -77q9 -21 12.5 -51.5t3.5 -106.5q0 -55 -1.5 -84.5t-4.5 -46.5t-10 -32q-39 -86 -167 -86q-64 0 -106 21z" />
    <glyph glyph-name="six" unicode="6" horiz-adv-x="433" 
d="M408.5 364q3.5 -15 4.5 -46.5t1 -77.5q0 -55 -1.5 -83t-5 -44.5t-11.5 -33.5q-19 -45 -63.5 -68.5t-109.5 -23.5q-67 0 -110 25.5t-66 77.5q-10 23 -15.5 50.5t-7.5 75t-2 134.5t2 134.5t7.5 76.5t16.5 53q46 105 177 105q89 0 137 -48q23 -24 33 -63.5t13 -104.5h-132
q-2 41 -4.5 59t-9.5 25q-13 14 -38 14q-38 0 -53 -34q-7 -15 -9 -44t-2 -110q17 24 46.5 36.5t67.5 12.5q45 0 77 -17.5t48 -51.5q6 -14 9.5 -29zM273.5 162q1.5 17 1.5 69q0 53 -1.5 70.5t-4.5 26.5q-6 13 -18 20.5t-29 7.5q-18 0 -30.5 -8t-18.5 -22q-3 -9 -4.5 -26
t-1.5 -70q0 -50 1.5 -67t4.5 -26q12 -29 49 -29q35 0 47 28q3 9 4.5 26z" />
    <glyph glyph-name="seven" unicode="7" horiz-adv-x="373" 
d="M196 575h-182v131h360l-175 -706h-150z" />
    <glyph glyph-name="eight" unicode="8" horiz-adv-x="426" 
d="M402 294q3 -26 3 -88q0 -64 -3 -89t-11 -43q-19 -42 -64 -64.5t-114 -22.5t-114.5 22.5t-64.5 64.5q-8 19 -10.5 44t-2.5 88t2.5 88t10.5 42q19 43 73 58q-24 7 -41.5 21t-26.5 34q-7 14 -9 33t-2 62q0 38 2.5 57.5t10.5 35.5q17 40 61 61t111 21q66 0 110 -21t62 -61
q7 -16 10 -36t3 -57q0 -43 -2 -62t-9 -33q-17 -39 -68 -55q53 -15 72 -57q8 -17 11 -43zM166 569q-1 -11 -1 -45q0 -29 1 -43t4 -21q12 -24 43 -24t42 24q3 7 4 21t1 43q0 28 -1 42t-4 22q-11 23 -42 23q-16 0 -26.5 -6t-15.5 -17q-4 -8 -5 -19zM263 157q1 19 1 61
q0 51 -1 65.5t-5 21.5q-5 12 -17 19t-28 7q-33 0 -46 -26q-3 -7 -4 -26.5t-1 -60.5q0 -42 1 -61t4 -27q12 -25 46 -25t46 26q3 7 4 26z" />
    <glyph glyph-name="nine" unicode="9" horiz-adv-x="432" 
d="M401 566.5q5 -27.5 7 -75t2 -134.5q0 -88 -2 -135.5t-7 -76t-16 -52.5q-24 -52 -67.5 -78.5t-109.5 -26.5q-89 0 -137 48q-24 24 -34 63.5t-12 104.5h132q2 -41 4.5 -59t9.5 -25q13 -14 38 -14q38 0 53 34q6 16 8.5 46t2.5 109q-18 -25 -47.5 -38t-66.5 -13
q-46 0 -78 17.5t-48 52.5q-6 14 -9 29t-4 46.5t-1 77.5q0 55 1.5 83t5 44t10.5 33q20 46 64 69.5t109 23.5q66 0 110 -26t67 -77q10 -23 15 -50.5zM263.5 407q1.5 17 1.5 70t-1 68.5t-5 23.5q-12 30 -48 30t-48 -29q-3 -8 -4 -28.5t-1 -65.5q0 -56 1 -72t5 -25q5 -14 17 -21
t29 -7q18 0 30.5 8t18.5 22q3 9 4.5 26z" />
    <glyph glyph-name="colon" unicode=":" horiz-adv-x="250" 
d="M69.5 9.5q-21.5 20.5 -21.5 54.5q0 35 21.5 55.5t55.5 20.5t55 -20.5t21 -55.5q0 -34 -21 -54.5t-55 -20.5t-55.5 20.5zM69.5 364.5q-21.5 20.5 -21.5 54.5q0 35 21.5 55.5t55.5 20.5t55 -20.5t21 -55.5q0 -34 -21 -54.5t-55 -20.5t-55.5 20.5z" />
    <glyph glyph-name="semicolon" unicode=";" horiz-adv-x="250" 
d="M65 159h121l-68 -319h-97zM69.5 364.5q-21.5 20.5 -21.5 54.5q0 35 21.5 55.5t55.5 20.5t55 -20.5t21 -55.5q0 -34 -21 -54.5t-55 -20.5t-55.5 20.5z" />
    <glyph glyph-name="less" unicode="&#x3c;" horiz-adv-x="399" 
d="M372 378l-238 -71l238 -71v-103l-342 106v136l342 105v-102z" />
    <glyph glyph-name="equal" unicode="=" horiz-adv-x="399" 
d="M29 441h342v-101h-342v101zM29 273h342v-101h-342v101z" />
    <glyph glyph-name="greater" unicode="&#x3e;" horiz-adv-x="399" 
d="M371 375v-136l-342 -106v103l238 71l-238 71v102z" />
    <glyph glyph-name="question" unicode="?" horiz-adv-x="401" 
d="M133 233q39 106 64 175.5t32 97.5t7 53q0 24 -8.5 35.5t-29.5 11.5q-14 0 -22.5 -5t-12.5 -15q-3 -8 -3.5 -24t-0.5 -49h-134q0 56 2.5 78.5t11.5 42.5q19 42 61 63.5t102 21.5q83 0 128.5 -41t45.5 -114q0 -24 -5.5 -48.5t-24.5 -81.5t-49 -142l-31 -89h-144zM135.5 9.5
q-21.5 20.5 -21.5 54.5q0 35 21.5 55.5t55.5 20.5t55 -20.5t21 -55.5q0 -34 -21 -54.5t-55 -20.5t-55.5 20.5z" />
    <glyph glyph-name="at" unicode="@" horiz-adv-x="546" 
d="M520 476q6 -54 6 -147q0 -81 -4.5 -125.5t-16.5 -72.5q-19 -41 -53.5 -59t-95.5 -18h-48v45q-15 -22 -38 -34.5t-52 -12.5q-30 0 -50.5 11.5t-29.5 32.5q-7 14 -9 32.5t-2 59.5q0 44 2 62.5t9 33.5q12 29 42 42.5t92 13.5h33v10q0 43 -0.5 62.5t-3.5 25.5q-6 14 -27 14
t-27 -14q-2 -5 -3 -18t-1 -37h-107q0 32 3 53.5t10 37.5q26 58 129 58q50 0 79.5 -13t42.5 -40q8 -18 10.5 -45t2.5 -78v-237q16 5 26 15.5t16 25.5q8 17 11 55.5t3 112.5q0 89 -5 138t-19 80q-20 44 -62.5 67.5t-106.5 23.5q-128 0 -171 -97q-15 -34 -21 -87t-6 -142
q0 -102 5.5 -164.5t21.5 -97.5q22 -48 69 -72t121 -24q43 0 76 4v-52q-42 -5 -76 -5q-95 0 -154.5 31t-88.5 95q-18 40 -24.5 106.5t-6.5 176.5q0 94 7.5 153t25.5 101q57 125 223 125q167 0 220 -119q17 -39 23 -93zM306 273h-21q-17 0 -27.5 -4t-14.5 -13q-2 -6 -3 -15
t-1 -27q0 -23 1 -34t3 -17q3 -7 9 -10.5t17 -3.5q25 0 32 18q4 7 4.5 28.5t0.5 68.5v9z" />
    <glyph glyph-name="A" unicode="A" horiz-adv-x="456" 
d="M298 112h-140l-16 -112h-142l119 706h218l119 -706h-142zM281 230l-52 362h-2l-52 -362h106z" />
    <glyph glyph-name="B" unicode="B" horiz-adv-x="420" 
d="M398.5 279.5q2.5 -19.5 2.5 -73.5q0 -67 -2.5 -92t-10.5 -41q-17 -38 -53 -55.5t-92 -17.5h-214v706h212q106 0 137 -67q8 -17 10 -37.5t2 -72.5q0 -47 -2 -64.5t-9 -31.5q-19 -43 -82 -55q39 -9 60.5 -24.5t31.5 -38.5q7 -16 9.5 -35.5zM170 425h23q19 0 31 7t17 20
q3 6 4 21t1 46q0 25 -1 37t-4 19q-8 24 -47 24h-24v-174zM253 157q1 14 1 58q0 40 -1 53t-4 21q-6 14 -19.5 20.5t-36.5 6.5h-23v-208h24q43 0 55 27q3 8 4 22z" />
    <glyph glyph-name="C" unicode="C" horiz-adv-x="455" 
d="M117.5 16q-47.5 28 -72.5 84q-10 22 -15 48.5t-7 72t-2 132.5q0 85 2 131.5t7 73t15 49.5q24 55 71.5 83t118.5 28q88 0 140 -48q34 -31 47.5 -75.5t13.5 -120.5h-145q0 37 -2 57t-5.5 29.5t-11.5 16.5t-17.5 10.5t-23.5 3.5q-20 0 -34 -9t-21 -26q-4 -10 -6 -25.5
t-3 -60.5t-1 -117t1 -117.5t3 -61t6 -25.5q15 -34 56 -34q26 0 42 15q7 5 10.5 14.5t5.5 29.5t2 57h146q-1 -73 -15 -119.5t-46 -75.5q-25 -23 -61 -35.5t-81 -12.5q-70 0 -117.5 28z" />
    <glyph glyph-name="D" unicode="D" horiz-adv-x="453" 
d="M29 706h190q71 0 119 -28t72 -80q10 -21 14.5 -44.5t6.5 -68.5t2 -132t-2 -132t-6.5 -68.5t-14.5 -44.5q-24 -52 -72 -80t-119 -28h-190v706zM203 122q30 0 47.5 9.5t26.5 29.5q4 9 6 23.5t3 57t1 109.5q0 69 -1 112.5t-3 58t-6 23.5q-9 20 -26.5 29.5t-47.5 9.5h-33
v-462h33z" />
    <glyph glyph-name="E" unicode="E" horiz-adv-x="334" 
d="M29 706h287v-126h-146v-147h143v-123h-143v-185h146v-125h-287v706z" />
    <glyph glyph-name="F" unicode="F" horiz-adv-x="304" 
d="M29 706h259v-125h-118v-148h116v-124h-116v-309h-141v706z" />
    <glyph glyph-name="G" unicode="G" horiz-adv-x="459" 
d="M438 371v-52q0 -74 -2 -114.5t-7 -64.5t-15 -46q-23 -53 -68 -79.5t-112 -26.5q-70 0 -117.5 28.5t-72.5 83.5q-10 23 -14.5 49t-6.5 72t-2 132t2 132t6.5 72t14.5 49q25 55 72.5 83.5t117.5 28.5q89 0 142 -47q32 -30 45 -73t14 -118h-141q-1 50 -5 69.5t-14 28.5
q-16 14 -42 14q-42 0 -57 -35q-4 -10 -6 -25.5t-3 -61t-1 -117.5t1 -117.5t3 -61t6 -25.5q15 -35 60 -35q41 0 56 31q4 9 5 27.5t1 82.5h-65v116h205z" />
    <glyph glyph-name="H" unicode="H" horiz-adv-x="454" 
d="M29 706h141v-273h113v273h141v-706h-141v308h-113v-308h-141v706z" />
    <glyph glyph-name="I" unicode="I" horiz-adv-x="199" 
d="M29 706h141v-706h-141v706z" />
    <glyph glyph-name="J" unicode="J" horiz-adv-x="237" 
d="M5 0v130l20 -1q25 0 35.5 12.5t10.5 43.5v521h141v-545q0 -84 -37 -123.5t-120 -39.5q-16 0 -50 2z" />
    <glyph glyph-name="K" unicode="K" horiz-adv-x="448" 
d="M295 0l-125 323v-323h-141v706h141v-266l106 266h152l-135 -321l156 -385h-154z" />
    <glyph glyph-name="L" unicode="L" horiz-adv-x="275" 
d="M29 706h141v-578h100v-128h-241v706z" />
    <glyph glyph-name="M" unicode="M" horiz-adv-x="594" 
d="M29 706h173l95 -399l96 399h172v-706h-135v420l-94 -420h-79l-93 420v-420h-135v706z" />
    <glyph glyph-name="N" unicode="N" horiz-adv-x="482" 
d="M29 706h132l155 -384v384h137v-706h-129l-159 393v-393h-136v706z" />
    <glyph glyph-name="O" unicode="O" horiz-adv-x="468" 
d="M121.5 13q-46.5 26 -71.5 77q-12 24 -18 52t-8.5 76.5t-2.5 134.5q0 85 2 131.5t7 73.5t15 50q24 54 72 82.5t117 28.5q70 0 117.5 -28t71.5 -83q10 -23 15.5 -50t7.5 -73.5t2 -131.5t-2 -131.5t-7.5 -73.5t-15.5 -50q-24 -55 -71.5 -83t-117.5 -28q-66 0 -112.5 26z
M271 125.5q14 9.5 22 27.5q4 10 6 25.5t3 59.5t1 115t-1 115.5t-3 59.5t-6 25q-8 18 -22 27.5t-37 9.5q-44 0 -59 -37q-4 -10 -5.5 -25.5t-2.5 -59.5t-1 -115t1 -115.5t3 -59.5t6 -25q15 -37 58 -37q23 0 37 9.5z" />
    <glyph glyph-name="P" unicode="P" horiz-adv-x="408" 
d="M29 706h211q57 0 92.5 -16.5t51.5 -52.5q8 -21 11 -46.5t3 -85.5q0 -57 -3 -82.5t-11 -45.5q-16 -36 -51.5 -53t-92.5 -17h-70v-307h-141v706zM200 418q19 0 31.5 5t17.5 17q3 8 4.5 19.5t1.5 46.5t-1.5 46.5t-4.5 20.5q-10 21 -49 21h-30v-176h30z" />
    <glyph glyph-name="Q" unicode="Q" horiz-adv-x="468" 
d="M351 15l55 -112l-118 -51l-60 135q-64 1 -109 27t-69 76q-12 24 -18 52t-8.5 76.5t-2.5 134.5q0 85 2 131.5t7 73.5t15 50q24 54 72 82.5t117 28.5q70 0 117.5 -28t71.5 -83q10 -23 15.5 -50t7.5 -73.5t2 -131.5t-2 -131.5t-7.5 -73.5t-15.5 -50q-24 -55 -72 -83z
M234 116q23 0 37 9.5t22 27.5q4 10 6 25.5t3 59.5t1 115t-1 115.5t-3 59.5t-6 25q-8 18 -22 27.5t-37 9.5q-44 0 -59 -37q-4 -10 -5.5 -25.5t-2.5 -59.5t-1 -115t1 -115.5t3 -59.5t6 -25q15 -37 58 -37z" />
    <glyph glyph-name="R" unicode="R" horiz-adv-x="425" 
d="M381.5 330q12.5 -26 12.5 -67v-263h-141v259q0 26 -11 37t-37 11h-35v-307h-141v706h213q57 0 92.5 -16t51.5 -51q8 -18 11 -42t3 -79q0 -50 -2.5 -69.5t-8.5 -34.5q-15 -33 -51 -46q31 -12 43.5 -38zM255 464.5q1 15.5 1 47.5q0 27 -1 39.5t-4 19.5q-6 12 -17.5 17
t-29.5 5h-34v-173h35q18 0 29 5t17 17q3 7 4 22.5z" />
    <glyph glyph-name="S" unicode="S" horiz-adv-x="412" 
d="M90.5 10q-44.5 23 -63.5 65q-6 15 -9.5 28.5t-4.5 42t-1 69.5h149q0 -41 1 -59.5t4 -26.5q10 -24 41 -24q15 0 25 5.5t15 16.5q3 6 3.5 18.5t0.5 38.5q0 28 -1.5 40t-5.5 23q-6 12 -17 21t-27.5 17t-34.5 16l-19 8q-43 22 -70.5 44t-40.5 51q-9 21 -12.5 47t-3.5 74
q0 43 3 64.5t13 42.5q19 42 61.5 64.5t107.5 22.5q63 0 105.5 -21t61.5 -63q7 -15 10 -28.5t4 -41t1 -68.5h-143q0 40 -1 58.5t-4 26.5q-9 21 -37 21q-14 0 -23.5 -5.5t-13.5 -15.5q-2 -6 -2.5 -16.5t-0.5 -32.5q0 -26 1.5 -37.5t5.5 -21.5q7 -15 23 -24.5t50 -23.5l20 -9
q50 -23 79.5 -44.5t42.5 -52.5q10 -22 13 -47t3 -80q0 -50 -3 -72.5t-12 -43.5q-20 -44 -66 -67t-114 -23q-69 0 -113.5 23z" />
    <glyph glyph-name="T" unicode="T" horiz-adv-x="321" 
d="M90 581h-85v125h311v-125h-85v-581h-141v581z" />
    <glyph glyph-name="U" unicode="U" horiz-adv-x="438" 
d="M69.5 32.5q-45.5 45.5 -45.5 141.5v532h142v-530q0 -31 12.5 -46.5t39.5 -15.5q29 0 42 15.5t13 46.5v530h141v-532q0 -96 -46.5 -141.5t-149.5 -45.5t-148.5 45.5z" />
    <glyph glyph-name="V" unicode="V" horiz-adv-x="438" 
d="M438 706l-149 -706h-139l-150 706h141l79 -476l78 476h140z" />
    <glyph glyph-name="W" unicode="W" horiz-adv-x="650" 
d="M650 706l-118 -706h-144l-63 428l-63 -428h-142l-120 706h136l61 -444l60 444h137l60 -444l60 444h136z" />
    <glyph glyph-name="X" unicode="X" horiz-adv-x="462" 
d="M136 373l-123 333h149l69 -231l70 231h149l-124 -334l137 -372h-150l-82 268l-82 -268h-150z" />
    <glyph glyph-name="Y" unicode="Y" horiz-adv-x="420" 
d="M139 286l-139 420h142l68 -261l68 261h142l-139 -420v-286h-142v286z" />
    <glyph glyph-name="Z" unicode="Z" horiz-adv-x="363" 
d="M163 581h-147v125h332l-158 -581h163v-125h-348z" />
    <glyph glyph-name="bracketleft" unicode="[" horiz-adv-x="239" 
d="M49 767h177v-107h-60v-724h60v-106h-177v937z" />
    <glyph glyph-name="backslash" unicode="\" horiz-adv-x="365" 
d="M221 -50l-202 769h125l203 -769h-126z" />
    <glyph glyph-name="bracketright" unicode="]" horiz-adv-x="239" 
d="M13 -170v106h60v724h-60v107h177v-937h-177z" />
    <glyph glyph-name="asciicircum" unicode="^" horiz-adv-x="355" 
d="M219 409l-41 186l-41 -186h-126l82 297h170l81 -297h-125z" />
    <glyph glyph-name="underscore" unicode="_" horiz-adv-x="271" 
d="M0 -50h271v-115h-271v115z" />
    <glyph glyph-name="grave" unicode="`" horiz-adv-x="292" 
d="M130 567l-80 139h128l64 -139h-112z" />
    <glyph glyph-name="a" unicode="a" horiz-adv-x="384" 
d="M359 414q3 -26 3 -80v-334h-133v45q-37 -54 -107 -54q-75 0 -99 53q-7 15 -9 34.5t-2 67.5q0 52 2 71t9 35q16 36 55.5 51.5t108.5 15.5h42v11q0 39 -1 56t-3 24q-7 18 -34 18t-34 -18q-2 -6 -3 -16t-1 -31h-130q0 39 2.5 57.5t9.5 35.5q34 75 157 75q63 0 100.5 -17.5
t54.5 -54.5q9 -19 12 -45zM209 101.5q10 5.5 15 17.5q3 8 4 30t1 74v9h-28q-21 0 -33 -4t-17 -14q-2 -5 -2.5 -16.5t-0.5 -32.5q0 -24 0.5 -36t2.5 -16q7 -17 33 -17q15 0 25 5.5z" />
    <glyph glyph-name="b" unicode="b" horiz-adv-x="400" 
d="M377 428.5q4 -19.5 5.5 -58t1.5 -109.5t-2 -109t-5.5 -58t-10.5 -36q-15 -32 -42 -49.5t-66 -17.5q-67 0 -104 53v-44h-130v706h133v-223q37 48 101 48q39 0 66 -17.5t42 -48.5q7 -17 11 -36.5zM244 158q1 24 1 103t-1 103.5t-5 32.5q-9 22 -38 22q-45 0 -45 -61v-194
q0 -61 45 -61q29 0 38 23q4 8 5 32z" />
    <glyph glyph-name="c" unicode="c" horiz-adv-x="387" 
d="M35 80q-8 17 -11.5 35.5t-5 51t-1.5 94.5t1.5 94.5t5 51.5t11.5 36q20 44 60 66t100 22q86 0 128 -41q19 -17 28.5 -37t13.5 -48t5 -73h-138q0 26 -1.5 43.5t-4 24.5t-7.5 11q-8 8 -24 8q-26 0 -34 -21q-4 -9 -5 -31.5t-1 -105.5t1 -105.5t5 -31.5q11 -21 34 -21
q14 0 24 8q5 5 7.5 12.5t3.5 27.5t1 51h139q-1 -51 -5 -81.5t-13.5 -51t-28.5 -37.5q-22 -20 -54.5 -30.5t-73.5 -10.5q-121 0 -160 89z" />
    <glyph glyph-name="d" unicode="d" horiz-adv-x="400" 
d="M376 706v-706h-130v44q-37 -53 -103 -53q-40 0 -67 17.5t-41 49.5q-7 16 -11 35.5t-5.5 57.5t-1.5 110q0 73 1.5 110.5t5 57t11.5 36.5q14 31 41 48.5t67 17.5q63 0 100 -48v223h133zM244 358q0 61 -45 61q-28 0 -38 -22q-3 -9 -4.5 -35t-1.5 -101q0 -74 1.5 -100
t4.5 -35q11 -23 38 -23q45 0 45 61v194z" />
    <glyph glyph-name="e" unicode="e" horiz-adv-x="390" 
d="M235.5 126q2.5 12 3.5 49h133q-1 -41 -5 -66.5t-13.5 -43.5t-26.5 -33q-45 -41 -129 -41q-123 0 -164 89q-7 17 -10.5 36t-5 52t-1.5 94q0 62 1.5 94.5t5 50.5t10.5 35q41 89 160 89q120 0 161 -89q9 -19 12.5 -40t4.5 -64t1 -105h-223q0 -64 1 -83.5t5 -28.5
q5 -12 14.5 -17.5t25.5 -5.5q21 0 31 10q6 6 8.5 18zM156 404q-3 -9 -4.5 -27t-1.5 -57h90q-1 46 -2 60.5t-4 23.5q-5 11 -14.5 16.5t-24.5 5.5q-29 0 -39 -22z" />
    <glyph glyph-name="f" unicode="f" horiz-adv-x="266" 
d="M53 403h-46v119h46v52q0 76 37.5 109t117.5 33q17 0 51 -4v-112q-9 2 -27 2q-26 0 -36.5 -12.5t-10.5 -38.5v-29h68v-119h-68v-403h-132v403z" />
    <glyph glyph-name="g" unicode="g" horiz-adv-x="401" 
d="M376 522v-499q0 -50 -3.5 -76.5t-13.5 -47.5q-19 -41 -58 -60.5t-103 -19.5q-90 0 -135 39q-21 19 -30 44.5t-11 64.5h133q1 -17 3.5 -25.5t7.5 -13.5q11 -9 34 -9q31 0 40 21q2 7 3 20.5t1 40.5v44q-35 -51 -103 -51q-77 0 -106 64q-8 17 -11.5 36t-5 56t-1.5 111
q0 77 1.5 113.5t5 55t11.5 35.5q14 32 41 49t65 17q69 0 106 -55v46h129zM244 164v196q0 59 -45 59q-29 0 -38 -22q-4 -10 -5 -34t-1 -101q0 -79 1 -103t5 -33q9 -23 38 -23q45 0 45 61z" />
    <glyph glyph-name="h" unicode="h" horiz-adv-x="390" 
d="M340.5 499q27.5 -32 27.5 -93v-406h-133v371q0 25 -9 36.5t-28 11.5q-41 0 -41 -52v-367h-133v706h133v-230q39 55 104 55q52 0 79.5 -32z" />
    <glyph glyph-name="i" unicode="i" horiz-adv-x="181" 
d="M40.5 588.5q-20.5 19.5 -20.5 50.5t20.5 49.5t51.5 18.5t51 -18.5t20 -49.5t-20.5 -50.5t-50.5 -19.5q-31 0 -51.5 19.5zM24 522h133v-522h-133v522z" />
    <glyph glyph-name="j" unicode="j" horiz-adv-x="186" 
d="M43.5 588.5q-20.5 19.5 -20.5 50.5t20.5 49.5t52.5 18.5q31 0 50.5 -18.5t19.5 -49.5t-20 -50.5t-50 -19.5q-32 0 -52.5 19.5zM-24 -170v116q8 -1 19 -1q19 0 27 9.5t8 30.5v537h132v-562q0 -70 -33 -101t-103 -31q-34 0 -50 2z" />
    <glyph glyph-name="k" unicode="k" horiz-adv-x="391" 
d="M243 0l-86 227v-227h-133v706h133v-367l75 183h152l-106 -238l119 -284h-154z" />
    <glyph glyph-name="l" unicode="l" horiz-adv-x="181" 
d="M24 706h133v-706h-133v706z" />
    <glyph glyph-name="m" unicode="m" horiz-adv-x="595" 
d="M546 499.5q26 -31.5 26 -94.5v-405h-132v367q0 27 -9 39.5t-27 12.5q-39 0 -39 -55v-364h-133v369q0 27 -8.5 38.5t-27.5 11.5q-39 0 -39 -55v-364h-133v522h133v-46q34 55 104 55q38 0 62 -14.5t34 -46.5q20 31 47 46t63 15q53 0 79 -31.5z" />
    <glyph glyph-name="n" unicode="n" horiz-adv-x="390" 
d="M340.5 499.5q27.5 -31.5 27.5 -93.5v-406h-133v371q0 25 -9 36.5t-28 11.5q-41 0 -41 -52v-367h-133v522h133v-45q19 27 44.5 40.5t59.5 13.5q52 0 79.5 -31.5z" />
    <glyph glyph-name="o" unicode="o" horiz-adv-x="393" 
d="M95.5 14q-40.5 23 -60.5 66q-8 17 -11.5 36t-5 51t-1.5 94t1.5 94t5 51t11.5 36q20 43 60.5 66t101.5 23t101.5 -23t60.5 -66q7 -18 11 -36.5t5.5 -51.5t1.5 -93t-1.5 -93t-5.5 -51.5t-11 -35.5q-20 -44 -60.5 -67t-101.5 -23t-101.5 23zM233 125q4 10 5.5 34t1.5 102
t-1.5 102.5t-5.5 34.5q-5 11 -13.5 16t-22.5 5q-15 0 -23.5 -5t-13.5 -16q-4 -9 -5 -32.5t-1 -104.5t1 -104t5 -32q9 -22 37 -22q27 0 36 22z" />
    <glyph glyph-name="p" unicode="p" horiz-adv-x="400" 
d="M377 428.5q4 -19.5 5.5 -58t1.5 -109.5t-2 -109t-5.5 -58t-10.5 -36q-15 -32 -42 -49.5t-66 -17.5q-65 0 -101 50v-211h-133v692h130v-45q35 54 104 54q39 0 66 -17.5t42 -48.5q7 -17 11 -36.5zM244 159q1 24 1 102q0 79 -1 103.5t-5 32.5q-9 22 -38 22q-45 0 -45 -61
v-193q0 -61 45 -61q29 0 38 23q4 8 5 32z" />
    <glyph glyph-name="q" unicode="q" horiz-adv-x="400" 
d="M376 522v-692h-133v210q-37 -49 -100 -49q-40 0 -67 17.5t-41 49.5q-7 16 -11 35.5t-5.5 57.5t-1.5 110q0 73 1.5 110.5t5 57t11.5 36.5q14 31 41 48.5t67 17.5q67 0 103 -53v44h130zM244 165v193q0 61 -45 61q-28 0 -38 -22q-3 -9 -4.5 -35t-1.5 -101q0 -74 1.5 -99.5
t4.5 -34.5q11 -23 38 -23q45 0 45 61z" />
    <glyph glyph-name="r" unicode="r" horiz-adv-x="267" 
d="M258 522v-125q-5 2 -20 2q-39 0 -60 -27.5t-21 -78.5v-293h-133v522h130v-51q13 26 34.5 40t48.5 14q12 0 21 -3z" />
    <glyph glyph-name="s" unicode="s" horiz-adv-x="355" 
d="M81 7.5q-37 17.5 -55 55.5q-8 19 -10.5 41t-2.5 69h131q0 -30 0.5 -44.5t3.5 -19.5q8 -17 29 -17t27 15q2 4 2.5 10t0.5 18q0 16 -1 25.5t-4 17.5q-6 13 -19.5 21.5t-43.5 22.5q-42 19 -68 37.5t-39 47.5q-6 15 -9 33t-3 48q0 25 2.5 41t8.5 29q16 36 53 54.5t93 18.5
q114 0 145 -69q7 -16 9.5 -35t2.5 -59h-129q0 22 -0.5 32.5t-2.5 16.5q-8 16 -26 16q-10 0 -16.5 -3.5t-8.5 -10.5q-1 -4 -1.5 -9t-0.5 -13q0 -24 4 -33q6 -14 20.5 -23t48.5 -25q32 -15 50.5 -25t34 -24.5t23.5 -33.5q7 -14 9.5 -33t2.5 -55q0 -30 -3 -47.5t-10 -33.5
q-33 -74 -153 -74q-58 0 -95 17.5z" />
    <glyph glyph-name="t" unicode="t" horiz-adv-x="263" 
d="M110 7q-29 12 -43 41.5t-14 82.5v272h-46v119h46v113h132v-113h65v-119h-65v-243q0 -29 9.5 -39.5t31.5 -10.5q19 0 29 2v-111q-36 -6 -68 -6q-48 0 -77 12z" />
    <glyph glyph-name="u" unicode="u" horiz-adv-x="390" 
d="M366 522v-522h-133v45q-19 -27 -44.5 -40t-59.5 -13q-52 0 -79.5 31t-27.5 93v406h133v-371q0 -25 9 -36.5t28 -11.5q41 0 41 52v367h133z" />
    <glyph glyph-name="v" unicode="v" horiz-adv-x="385" 
d="M-2 522h140l55 -359l55 359h140l-120 -522h-151z" />
    <glyph glyph-name="w" unicode="w" horiz-adv-x="594" 
d="M596 522l-115 -522h-134l-50 306l-51 -306h-134l-114 522h133l47 -308l56 308h124l56 -306l48 306h134z" />
    <glyph glyph-name="x" unicode="x" horiz-adv-x="399" 
d="M114 271l-110 251h146l50 -154l50 154h145l-109 -251l117 -271h-145l-58 171l-59 -171h-144z" />
    <glyph glyph-name="y" unicode="y" horiz-adv-x="378" 
d="M380 522l-130 -522l-46 -170h-129l46 175l-123 517h140l49 -347l57 347h136z" />
    <glyph glyph-name="z" unicode="z" horiz-adv-x="330" 
d="M182 119h140v-119h-325l155 404h-141v118h320z" />
    <glyph glyph-name="braceleft" unicode="{" horiz-adv-x="269" 
d="M179 329q-16 -25 -55 -31q39 -6 55 -31t16 -75v-198q0 -25 4.5 -38.5t16.5 -20t34 -6.5h6v-99h-36q-71 0 -102.5 34t-31.5 107v205q0 24 -5.5 37t-18 18.5t-34.5 5.5v122q23 0 35.5 5.5t17.5 18.5t5 37v204q0 74 32 108.5t102 34.5h36v-100h-6q-22 0 -34 -6t-16.5 -20
t-4.5 -38v-199q0 -50 -16 -75z" />
    <glyph glyph-name="bar" unicode="|" horiz-adv-x="233" 
d="M53 756h128v-926h-128v926z" />
    <glyph glyph-name="braceright" unicode="}" horiz-adv-x="269" 
d="M188 383q5 -13 17.5 -18.5t35.5 -5.5v-122q-22 0 -34.5 -5.5t-18 -18.5t-5.5 -37v-205q0 -73 -32 -107t-102 -34h-36v99h6q22 0 33.5 6.5t16 20t4.5 38.5v198q0 50 16 75t55 31q-39 6 -55 31.5t-16 74.5v199q0 25 -4.5 38.5t-16 19.5t-33.5 6h-6v100h36q70 0 102 -35
t32 -108v-204q0 -24 5 -37z" />
    <glyph glyph-name="asciitilde" unicode="~" horiz-adv-x="399" 
d="M233 217.5q-14 6.5 -25.5 16.5t-21.5 20q-13 12 -20 17t-16 5q-12 0 -16.5 -14.5t-5.5 -48.5h-90q1 67 10.5 108t30.5 61t58 20q17 0 31 -6.5t25.5 -16.5t21.5 -20q13 -12 20 -17t16 -5q12 0 16.5 15t5.5 48h90q-2 -67 -11 -108t-30 -61t-58 -20q-17 0 -31 6.5z" />
    <glyph glyph-name="uni00A0" unicode="&#xa0;" horiz-adv-x="127" 
 />
    <glyph glyph-name="exclamdown" unicode="&#xa1;" horiz-adv-x="247" 
d="M68.5 401.5q-21.5 20.5 -21.5 54.5q0 35 21.5 55.5t55.5 20.5t55 -20.5t21 -55.5q0 -34 -21 -54.5t-55 -20.5t-55.5 20.5zM69 321h110l15 -491h-142z" />
    <glyph glyph-name="cent" unicode="&#xa2;" horiz-adv-x="387" 
d="M234.5 217.5q2.5 7.5 3.5 27t1 49.5h131q-1 -51 -5 -81.5t-13.5 -51t-28.5 -37.5q-39 -35 -108 -40v-84h-41v84q-103 7 -140 88q-7 17 -10.5 36t-5 51.5t-1.5 93.5t1.5 94t5 52t10.5 35q37 81 140 88v84h41v-84q71 -3 108 -40q19 -17 28.5 -36.5t13.5 -48t5 -73.5h-131
q0 26 -1 43.5t-3.5 24t-7.5 11.5q-6 6 -15 9v-318q8 2 15 10q5 6 7.5 13.5zM177 195v317q-15 -5 -22 -20q-3 -8 -4.5 -18t-2 -41t-0.5 -80q0 -48 0.5 -79t2 -41t4.5 -17q7 -16 22 -21z" />
    <glyph glyph-name="sterling" unicode="&#xa3;" horiz-adv-x="446" 
d="M428 233q-1 -63 -5 -91.5t-15 -54.5q-20 -44 -59.5 -65.5t-101.5 -21.5h-230v118h41v206h-41v68h41v64q0 56 2 87t6 50t13 38q20 45 61.5 66.5t104.5 21.5q62 0 102 -21.5t60 -65.5q12 -27 16 -57t4 -95h-136q0 56 -1 73.5t-6 27.5q-10 22 -38 22q-30 0 -39 -23
q-3 -6 -4.5 -16t-2 -36.5t-0.5 -68.5v-67h132v-68h-132v-206h33q21 0 33.5 6.5t19.5 20.5q4 9 5 25t1 63h136z" />
    <glyph glyph-name="currency" unicode="&#xa4;" horiz-adv-x="379" 
d="M312 177l51 -111h-89l-32 71q-25 -5 -52 -5q-30 0 -54 6l-32 -72h-88l51 112q-13 16 -21 34q-9 20 -12.5 47t-3.5 94t3.5 94t12.5 47t23 36l-53 111h88l33 -73q24 6 53 6q30 0 53 -6l33 73h87l-52 -111q15 -18 23 -36q9 -20 12.5 -47t3.5 -94t-3.5 -94t-12.5 -47
q-10 -22 -22 -35zM190 235q35 0 48 29q3 9 4.5 25.5t1.5 63.5t-1.5 63.5t-4.5 26.5q-13 28 -48 28q-36 0 -48 -28q-3 -10 -4.5 -26.5t-1.5 -63.5t1.5 -63.5t4.5 -25.5q13 -29 48 -29z" />
    <glyph glyph-name="yen" unicode="&#xa5;" horiz-adv-x="414" 
d="M283 343h105v-61h-109v-34h109v-62h-109v-186h-142v186h-110v62h110v34h-110v61h106l-136 363h144l68 -233l68 233h141z" />
    <glyph glyph-name="brokenbar" unicode="&#xa6;" horiz-adv-x="233" 
d="M53 756h128v-313h-128v313zM53 143h128v-313h-128v313z" />
    <glyph glyph-name="section" unicode="&#xa7;" horiz-adv-x="371" 
d="M319.5 96.5q14.5 -15.5 23.5 -34.5q7 -16 9.5 -34.5t2.5 -48.5t-3 -48.5t-10 -34.5q-17 -38 -57 -56.5t-100 -18.5t-99 17.5t-57 55.5q-8 18 -10.5 40t-2.5 70h135q0 -29 0.5 -43t2.5 -19q8 -17 31 -17q24 0 31 16q2 5 2.5 12t0.5 20q0 14 -1 23.5t-5 17.5
q-6 15 -22.5 26t-47.5 26q-46 22 -72 42t-40 50q-8 17 -11 40.5t-3 72.5q0 41 3 60t9 33q19 42 67 61q-47 32 -62 66q-7 15 -10 33.5t-3 44.5t2.5 42t8.5 30q17 38 57 57.5t99 19.5q117 0 151 -72q7 -16 9.5 -35.5t2.5 -60.5h-132q0 21 -1 31.5t-3 16.5q-6 17 -29 17
q-22 0 -30 -17q-1 -4 -1.5 -9.5t-0.5 -14.5q0 -21 5 -32q7 -14 22 -24.5t49 -28.5q32 -16 51.5 -28t35.5 -27.5t25 -35.5q8 -17 10.5 -41t2.5 -75q0 -42 -2.5 -62t-10.5 -37q-18 -38 -58 -56q21 -15 35.5 -30.5zM146.5 319q-0.5 -13 -0.5 -42q0 -30 0.5 -43.5t2.5 -18.5
q9 -21 37 -21q14 0 23 5t13 15q2 5 3 18.5t1 43.5q0 29 -0.5 42t-2.5 18q-9 21 -38 21q-13 0 -22.5 -5.5t-13.5 -15.5q-2 -4 -2.5 -17z" />
    <glyph glyph-name="dieresis" unicode="&#xa8;" horiz-adv-x="395" 
d="M69 585q-19 18 -19 47t19 46.5t48 17.5t47.5 -17.5t18.5 -46.5t-18.5 -47t-47.5 -18t-48 18zM231 585q-19 18 -19 46q0 29 19 46.5t48 17.5t47.5 -17.5t18.5 -46.5q0 -28 -18.5 -46t-47.5 -18t-48 18z" />
    <glyph glyph-name="copyright" unicode="&#xa9;" horiz-adv-x="532" 
d="M130.5 20q-54.5 33 -81.5 93q-17 36 -22.5 92t-5.5 148t5.5 147.5t22.5 91.5q27 60 82 93.5t135 33.5q79 0 134 -32t82 -92q17 -37 23 -94t6 -148q0 -96 -5.5 -149.5t-22.5 -90.5q-28 -61 -81.5 -93.5t-135.5 -32.5q-81 0 -135.5 33zM434 140q12 29 16.5 77.5t4.5 134.5
q0 85 -5 136.5t-18 81.5q-45 98 -165 98q-63 0 -105 -26t-64 -75q-13 -28 -17 -79t-4 -134q0 -89 4 -138t17 -76q23 -51 63.5 -76.5t104.5 -25.5q121 0 168 102zM187.5 122.5q-33.5 19.5 -51.5 57.5q-7 15 -10 31.5t-4.5 48.5t-1.5 93q0 62 1.5 94t4.5 48t10 31
q17 38 50.5 58t80.5 20q31 0 55 -8.5t44 -26.5q24 -21 33 -52t9 -84h-107q0 25 -1.5 42t-5.5 23q-11 14 -29 14q-11 0 -19 -5t-13 -16q-3 -8 -4 -42.5t-1 -94.5q0 -72 1 -98.5t5 -35.5q9 -20 32 -20q19 0 28 14q7 13 7 66h108q0 -58 -9 -90t-32 -53q-38 -34 -100 -34
q-47 0 -80.5 19.5z" />
    <glyph glyph-name="ordfeminine" unicode="&#xaa;" horiz-adv-x="273" 
d="M255.5 632.5q2.5 -17.5 2.5 -54.5v-234h-98v32q-28 -38 -75 -38q-52 0 -69 37q-5 11 -6.5 24t-1.5 46q0 34 2 48t7 27q11 25 38.5 36t76.5 11h28v7q0 28 -0.5 40.5t-2.5 16.5q-5 11 -21 11t-21 -11q-2 -4 -2.5 -11t-0.5 -21h-96q0 28 2 41t7 24q22 52 112 52q44 0 71 -12
t39 -39q6 -15 8.5 -32.5zM157 429q2 5 2.5 20.5t0.5 50.5v7h-18q-13 0 -20.5 -2.5t-11.5 -9.5q-2 -8 -2 -35q0 -24 2 -34q6 -11 21 -11q18 0 26 14z" />
    <glyph glyph-name="guillemotleft" unicode="&#xab;" horiz-adv-x="392" 
d="M8 302l89 163h120l-88 -163l88 -163h-120zM174 302l89 163h120l-88 -163l88 -163h-120z" />
    <glyph glyph-name="logicalnot" unicode="&#xac;" horiz-adv-x="399" 
d="M267 310h-238v101h342v-276h-104v175z" />
    <glyph glyph-name="uni00AD" unicode="&#xad;" horiz-adv-x="268" 
d="M29 365h210v-117h-210v117z" />
    <glyph glyph-name="registered" unicode="&#xae;" horiz-adv-x="354" 
d="M331 610q3 -13 4.5 -35t1.5 -63t-1.5 -63t-4.5 -35t-10 -29q-34 -75 -144 -75q-109 0 -144 75q-7 15 -10.5 28.5t-4.5 38t-1 60.5t1 60.5t4.5 38t10.5 28.5q35 75 144 75q110 0 144 -75q7 -16 10 -29zM287.5 440q2.5 21 2.5 72t-2.5 72t-9.5 37q-13 26 -37 37.5t-64 11.5
q-41 0 -65 -11.5t-36 -37.5q-7 -16 -9.5 -37t-2.5 -72t2.5 -72t9.5 -36q12 -27 36 -38.5t65 -11.5q40 0 64 11.5t37 38.5q7 15 9.5 36zM250.5 521.5q-5.5 -12.5 -20.5 -17.5q14 -5 19.5 -15t5.5 -27v-69h-62v67q0 10 -3.5 14t-14.5 4h-12v-85h-61v238h88q27 0 41 -7
t19.5 -21.5t5.5 -41.5t-5.5 -39.5zM191.5 536q3.5 5 3.5 21q0 15 -3.5 20t-14.5 5h-14v-51h15q10 0 13.5 5z" />
    <glyph glyph-name="macron" unicode="&#xaf;" horiz-adv-x="331" 
d="M50 676h231v-91h-231v91z" />
    <glyph glyph-name="degree" unicode="&#xb0;" horiz-adv-x="290" 
d="M78 488q-29 16 -45 44t-16 63q0 36 16 64t45 44t67 16q37 0 66.5 -16t45.5 -44t16 -64q0 -35 -16 -63t-45.5 -44t-66.5 -16q-38 0 -67 16zM174 565q11 11 11 30q0 20 -11 31.5t-29 11.5t-29 -11.5t-11 -31.5q0 -19 11 -30t29 -11t29 11z" />
    <glyph glyph-name="plusminus" unicode="&#xb1;" horiz-adv-x="399" 
d="M371 412v-102h-120v-89h-103v89h-119v102h119v89h103v-89h120zM29 196h342v-102h-342v102z" />
    <glyph glyph-name="twosuperior" unicode="&#xb2;" horiz-adv-x="261" 
d="M4 441l119 195q16 26 22 40.5t6 34.5q0 14 -0.5 21t-2.5 9q-5 11 -20 11t-22 -12q-2 -4 -2.5 -11t-0.5 -21h-95q0 31 2.5 45.5t8.5 26.5q22 53 109 53q88 0 112 -52q5 -11 7 -23t2 -31q0 -34 -6 -57t-22 -49q-30 -52 -59 -95h85v-88h-243v3z" />
    <glyph glyph-name="threesuperior" unicode="&#xb3;" horiz-adv-x="267" 
d="M250.5 596q1.5 -12 1.5 -40q0 -35 -2 -48.5t-7 -25.5q-12 -26 -42 -38.5t-73 -12.5t-69 12t-38 39q-7 13 -9 30.5t-2 59.5h91q0 -22 0.5 -33t2.5 -15q5 -12 22 -12q16 0 23 10q2 8 2 38q0 16 -0.5 23.5t-2.5 11.5q-4 7 -12.5 10t-24.5 3h-9v71h10q15 0 23 3t11 10
q2 4 3 9.5t1 15.5q0 11 -0.5 17t-2.5 9q-4 9 -19 9q-16 0 -21 -11q-2 -4 -2.5 -11t-0.5 -22h-91q0 30 1.5 44t6.5 26q14 30 42 42.5t68 12.5q86 0 109 -51q5 -9 6.5 -21t1.5 -40q0 -20 -1 -28.5t-5 -15.5q-10 -20 -38 -31q30 -7 40 -29q5 -9 6.5 -21z" />
    <glyph glyph-name="acute" unicode="&#xb4;" horiz-adv-x="292" 
d="M115 706h127l-80 -139h-112z" />
    <glyph glyph-name="mu" unicode="&#xb5;" horiz-adv-x="392" 
d="M368 522v-522h-129v54q-14 -31 -33.5 -46.5t-46.5 -15.5q-7 0 -11 1q9 -56 9 -115v-49h-133v693h133v-367q0 -27 8.5 -38.5t28.5 -11.5q41 0 41 53v364h133z" />
    <glyph glyph-name="paragraph" unicode="&#xb6;" horiz-adv-x="515" 
d="M197 276h-32q-57 0 -91 17.5t-51 53.5q-9 19 -11.5 46t-2.5 98t2.5 98t11.5 46q17 36 52 53.5t93 17.5h342v-113h-41v-763h-112v763h-48v-763h-112v446z" />
    <glyph glyph-name="periodcentered" unicode="&#xb7;" horiz-adv-x="250" 
d="M69.5 252.5q-21.5 20.5 -21.5 54.5q0 35 21.5 55.5t55.5 20.5t55 -20.5t21 -55.5q0 -34 -21 -54.5t-55 -20.5t-55.5 20.5z" />
    <glyph glyph-name="cedilla" unicode="&#xb8;" horiz-adv-x="300" 
d="M229 -43.5q21 -19.5 21 -53.5q0 -45 -32.5 -65.5t-88.5 -20.5q-41 0 -79 13l14 61q25 -9 54 -9q21 0 32 5.5t11 18.5t-12 18.5t-39 5.5h-39l20 88h88l-9 -41q38 -1 59 -20.5z" />
    <glyph glyph-name="onesuperior" unicode="&#xb9;" horiz-adv-x="185" 
d="M55 737h-51l13 89h141v-388h-103v299z" />
    <glyph glyph-name="ordmasculine" unicode="&#xba;" horiz-adv-x="278" 
d="M68 354q-29 16 -43 46q-8 17 -10.5 40t-2.5 87t2.5 87t10.5 40q14 30 43 46t71 16q43 0 71.5 -16t42.5 -46q9 -18 11.5 -41.5t2.5 -85.5t-2.5 -85.5t-11.5 -41.5q-14 -30 -42.5 -46t-71.5 -16q-42 0 -71 16zM162 434q2 6 3 26.5t1 66.5t-1 66.5t-3 26.5q-6 14 -23 14
t-22 -14q-3 -6 -4 -23t-1 -70t1 -70t4 -23q5 -14 22 -14t23 14z" />
    <glyph glyph-name="guillemotright" unicode="&#xbb;" horiz-adv-x="392" 
d="M9 139l88 163l-88 163h120l89 -163l-89 -163h-120zM175 139l88 163l-88 163h121l88 -163l-88 -163h-121z" />
    <glyph glyph-name="onequarter" unicode="&#xbc;" horiz-adv-x="599" 
d="M55 617h-51l13 89h141v-388h-103v299zM373 706h68l-304 -706h-68zM460 69h-167v2l89 317h173v-230h37v-89h-37v-69h-95v69zM460 158v194l-48 -194h48z" />
    <glyph glyph-name="onehalf" unicode="&#xbd;" horiz-adv-x="577" 
d="M55 617h-51l13 89h141v-388h-103v299zM373 706h68l-304 -706h-68zM320 3l119 195q16 26 22 40.5t6 34.5q0 14 -0.5 21t-2.5 9q-5 11 -20 11t-22 -12q-2 -4 -2.5 -11t-0.5 -21h-95q0 31 2.5 45.5t8.5 26.5q22 53 109 53q88 0 112 -52q5 -11 7 -23t2 -31q0 -34 -6 -57
t-22 -49q-30 -52 -59 -95h85v-88h-243v3z" />
    <glyph glyph-name="threequarters" unicode="&#xbe;" horiz-adv-x="679" 
d="M250.5 476q1.5 -12 1.5 -40q0 -35 -2 -48.5t-7 -25.5q-12 -26 -42 -38.5t-73 -12.5t-69 12t-38 39q-7 13 -9 30.5t-2 59.5h91q0 -22 0.5 -33t2.5 -15q5 -12 22 -12q16 0 23 10q2 8 2 38q0 16 -0.5 23.5t-2.5 11.5q-4 7 -12.5 10t-24.5 3h-9v71h10q15 0 23 3t11 10
q2 4 3 9.5t1 15.5q0 11 -0.5 17t-2.5 9q-4 9 -19 9q-16 0 -21 -11q-2 -4 -2.5 -11t-0.5 -22h-91q0 30 1.5 44t6.5 26q14 30 42 42.5t68 12.5q86 0 109 -51q5 -9 6.5 -21t1.5 -40q0 -20 -1 -28.5t-5 -15.5q-10 -20 -38 -31q30 -7 40 -29q5 -9 6.5 -21zM454 706h68l-304 -706
h-68zM540 69h-167v2l89 317h173v-230h37v-89h-37v-69h-95v69zM540 158v194l-48 -194h48z" />
    <glyph glyph-name="questiondown" unicode="&#xbf;" horiz-adv-x="400" 
d="M154.5 402.5q-21.5 20.5 -21.5 54.5q0 35 21.5 55.5t55.5 20.5t55 -20.5t21 -55.5q0 -34 -21.5 -54.5t-54.5 -20.5q-34 0 -55.5 20.5zM70.5 -140.5q-45.5 39.5 -45.5 111.5q0 23 5.5 47t24.5 79.5t49 137.5l30 82h144l-25 -63q-34 -87 -56 -145.5t-28 -83.5t-6 -48t9 -34
t30 -11q13 0 21.5 5t13.5 15q3 8 3.5 24.5t0.5 48.5h133q0 -57 -2 -78t-11 -41q-18 -42 -60.5 -64t-102.5 -22q-82 0 -127.5 39.5z" />
    <glyph glyph-name="Agrave" unicode="&#xc0;" horiz-adv-x="456" 
d="M298 112h-140l-16 -112h-142l119 706h218l119 -706h-142zM281 230l-52 362h-2l-52 -362h106zM180 745l-88 115h134l72 -115h-118z" />
    <glyph glyph-name="Aacute" unicode="&#xc1;" horiz-adv-x="456" 
d="M298 112h-140l-16 -112h-142l119 706h218l119 -706h-142zM281 230l-52 362h-2l-52 -362h106zM231 860h133l-88 -115h-118z" />
    <glyph glyph-name="Acircumflex" unicode="&#xc2;" horiz-adv-x="456" 
d="M298 112h-140l-16 -112h-142l119 706h218l119 -706h-142zM281 230l-52 362h-2l-52 -362h106zM153 860h149l73 -115h-112l-35 56l-36 -56h-111z" />
    <glyph glyph-name="Atilde" unicode="&#xc3;" horiz-adv-x="456" 
d="M298 112h-140l-16 -112h-142l119 706h218l119 -706h-142zM281 230l-52 362h-2l-52 -362h106zM253.5 747q-14.5 5 -29.5 15q-7 3 -13.5 7t-14 6.5t-13.5 2.5q-11 0 -16.5 -8.5t-7.5 -25.5h-76q1 60 22 89t64 29q21 0 33 -5t32 -18q12 -7 20 -10t17 -3q11 0 17 8t9 26h76
q-1 -59 -21 -88.5t-65 -29.5q-19 0 -33.5 5z" />
    <glyph glyph-name="Adieresis" unicode="&#xc4;" horiz-adv-x="456" 
d="M298 112h-140l-16 -112h-142l119 706h218l119 -706h-142zM281 230l-52 362h-2l-52 -362h106zM99 761.5q-18 17.5 -18 45.5q0 29 18.5 46t46.5 17t46 -17t18 -46q0 -28 -18 -45.5t-46 -17.5q-29 0 -47 17.5zM265 761.5q-18 17.5 -18 45.5q0 29 18 46t46 17t46 -17t18 -46
q0 -28 -18 -45.5t-46 -17.5t-46 17.5z" />
    <glyph glyph-name="Aring" unicode="&#xc5;" horiz-adv-x="456" 
d="M298 112h-140l-16 -112h-142l119 706h218l119 -706h-142zM281 230l-52 362h-2l-52 -362h106zM172.5 737q-24.5 12 -38.5 34.5t-14 51.5t14 51.5t38.5 34.5t55.5 12q32 0 56.5 -12t38 -34.5t13.5 -51.5t-14 -51.5t-38.5 -34.5t-55.5 -12t-55.5 12zM255 797q10 10 10 26
t-10.5 26t-26.5 10t-26 -10t-10 -26t9.5 -26t26.5 -10t27 10z" />
    <glyph glyph-name="AE" unicode="&#xc6;" horiz-adv-x="537" 
d="M381 580l9 -147h127v-123h-119l11 -185h110v-125h-239l-6 108h-113l-19 -108h-142l147 706h373v-126h-139zM268 226l-19 358h-2l-64 -358h85z" />
    <glyph glyph-name="Ccedilla" unicode="&#xc7;" horiz-adv-x="455" 
d="M438 231q-1 -73 -15 -119.5t-46 -75.5q-40 -37 -105 -46l-3 -14q38 -1 59 -20.5t21 -53.5q0 -45 -32.5 -65t-88.5 -20q-41 0 -79 12l14 62q28 -10 54 -10q21 0 32 5.5t11 18.5t-12 18.5t-39 5.5h-39l14 63q-98 18 -139 108q-10 22 -15 48.5t-7 72t-2 132.5q0 85 2 131.5
t7 73t15 49.5q24 55 71.5 83t118.5 28q88 0 140 -48q34 -31 47.5 -75.5t13.5 -120.5h-145q0 37 -2 57t-5.5 29.5t-11.5 16.5t-17.5 10.5t-23.5 3.5q-20 0 -34 -9t-21 -26q-4 -10 -6 -25.5t-3 -60.5t-1 -117t1 -117.5t3 -61t6 -25.5q15 -34 56 -34q26 0 42 15q7 5 10.5 14.5
t5.5 29.5t2 57h146z" />
    <glyph glyph-name="Egrave" unicode="&#xc8;" horiz-adv-x="334" 
d="M29 706h287v-126h-146v-147h143v-123h-143v-185h146v-125h-287v706zM126 745l-88 115h134l72 -115h-118z" />
    <glyph glyph-name="Eacute" unicode="&#xc9;" horiz-adv-x="334" 
d="M29 706h287v-126h-146v-147h143v-123h-143v-185h146v-125h-287v706zM177 860h133l-88 -115h-118z" />
    <glyph glyph-name="Ecircumflex" unicode="&#xca;" horiz-adv-x="334" 
d="M29 706h287v-126h-146v-147h143v-123h-143v-185h146v-125h-287v706zM99 860h149l73 -115h-112l-35 56l-36 -56h-111z" />
    <glyph glyph-name="Edieresis" unicode="&#xcb;" horiz-adv-x="334" 
d="M29 706h287v-126h-146v-147h143v-123h-143v-185h146v-125h-287v706zM45 761.5q-18 17.5 -18 45.5q0 29 18.5 46t46.5 17t46 -17t18 -46q0 -28 -18 -45.5t-46 -17.5q-29 0 -47 17.5zM211 761.5q-18 17.5 -18 45.5q0 29 18 46t46 17t46 -17t18 -46q0 -28 -18 -45.5
t-46 -17.5t-46 17.5z" />
    <glyph glyph-name="Igrave" unicode="&#xcc;" horiz-adv-x="199" 
d="M29 706h141v-706h-141v706zM52 745l-88 115h134l72 -115h-118z" />
    <glyph glyph-name="Iacute" unicode="&#xcd;" horiz-adv-x="199" 
d="M29 706h141v-706h-141v706zM103 860h133l-88 -115h-118z" />
    <glyph glyph-name="Icircumflex" unicode="&#xce;" horiz-adv-x="199" 
d="M29 706h141v-706h-141v706zM26 860h145l64 -115h-108l-27 54l-29 -54h-108z" />
    <glyph glyph-name="Idieresis" unicode="&#xcf;" horiz-adv-x="199" 
d="M29 706h141v-706h-141v706zM-13 760.5q-17 17.5 -17 45.5t17 45t43 17q27 0 44 -17t17 -45t-17.5 -45.5t-43.5 -17.5t-43 17.5zM128 760.5q-17 17.5 -17 45.5t16.5 45t43.5 17t44 -17t17 -45t-17 -45.5t-44 -17.5q-26 0 -43 17.5z" />
    <glyph glyph-name="Eth" unicode="&#xd0;" horiz-adv-x="460" 
d="M430.5 553.5q4.5 -23.5 6.5 -68.5t2 -132t-2 -132t-6.5 -68.5t-14.5 -44.5q-24 -52 -72 -80t-119 -28h-190v316h-37v108h37v282h190q71 0 119 -28t72 -80q10 -21 14.5 -44.5zM289 184.5q2 14.5 3 57t1 109.5q0 69 -1 112.5t-3 58t-6 23.5q-9 20 -26.5 29.5t-46.5 9.5h-34
v-160h66v-108h-66v-194h34q29 0 46.5 9.5t26.5 29.5q4 9 6 23.5z" />
    <glyph glyph-name="Ntilde" unicode="&#xd1;" horiz-adv-x="482" 
d="M29 706h132l155 -384v384h137v-706h-129l-159 393v-393h-136v706zM265.5 747q-14.5 5 -29.5 15q-7 3 -13.5 7t-14 6.5t-13.5 2.5q-11 0 -16.5 -8.5t-7.5 -25.5h-76q1 60 22 89t64 29q21 0 33 -5t32 -18q12 -7 20 -10t17 -3q11 0 17 8t9 26h76q-1 -59 -21 -88.5t-65 -29.5
q-19 0 -33.5 5z" />
    <glyph glyph-name="Ograve" unicode="&#xd2;" horiz-adv-x="468" 
d="M121.5 13q-46.5 26 -71.5 77q-12 24 -18 52t-8.5 76.5t-2.5 134.5q0 85 2 131.5t7 73.5t15 50q24 54 72 82.5t117 28.5q70 0 117.5 -28t71.5 -83q10 -23 15.5 -50t7.5 -73.5t2 -131.5t-2 -131.5t-7.5 -73.5t-15.5 -50q-24 -55 -71.5 -83t-117.5 -28q-66 0 -112.5 26z
M271 125.5q14 9.5 22 27.5q4 10 6 25.5t3 59.5t1 115t-1 115.5t-3 59.5t-6 25q-8 18 -22 27.5t-37 9.5q-44 0 -59 -37q-4 -10 -5.5 -25.5t-2.5 -59.5t-1 -115t1 -115.5t3 -59.5t6 -25q15 -37 58 -37q23 0 37 9.5zM187 745l-88 115h134l72 -115h-118z" />
    <glyph glyph-name="Oacute" unicode="&#xd3;" horiz-adv-x="468" 
d="M121.5 13q-46.5 26 -71.5 77q-12 24 -18 52t-8.5 76.5t-2.5 134.5q0 85 2 131.5t7 73.5t15 50q24 54 72 82.5t117 28.5q70 0 117.5 -28t71.5 -83q10 -23 15.5 -50t7.5 -73.5t2 -131.5t-2 -131.5t-7.5 -73.5t-15.5 -50q-24 -55 -71.5 -83t-117.5 -28q-66 0 -112.5 26z
M271 125.5q14 9.5 22 27.5q4 10 6 25.5t3 59.5t1 115t-1 115.5t-3 59.5t-6 25q-8 18 -22 27.5t-37 9.5q-44 0 -59 -37q-4 -10 -5.5 -25.5t-2.5 -59.5t-1 -115t1 -115.5t3 -59.5t6 -25q15 -37 58 -37q23 0 37 9.5zM238 860h133l-88 -115h-118z" />
    <glyph glyph-name="Ocircumflex" unicode="&#xd4;" horiz-adv-x="468" 
d="M121.5 13q-46.5 26 -71.5 77q-12 24 -18 52t-8.5 76.5t-2.5 134.5q0 85 2 131.5t7 73.5t15 50q24 54 72 82.5t117 28.5q70 0 117.5 -28t71.5 -83q10 -23 15.5 -50t7.5 -73.5t2 -131.5t-2 -131.5t-7.5 -73.5t-15.5 -50q-24 -55 -71.5 -83t-117.5 -28q-66 0 -112.5 26z
M271 125.5q14 9.5 22 27.5q4 10 6 25.5t3 59.5t1 115t-1 115.5t-3 59.5t-6 25q-8 18 -22 27.5t-37 9.5q-44 0 -59 -37q-4 -10 -5.5 -25.5t-2.5 -59.5t-1 -115t1 -115.5t3 -59.5t6 -25q15 -37 58 -37q23 0 37 9.5zM159 860h149l73 -115h-112l-35 56l-36 -56h-111z" />
    <glyph glyph-name="Otilde" unicode="&#xd5;" horiz-adv-x="468" 
d="M121.5 13q-46.5 26 -71.5 77q-12 24 -18 52t-8.5 76.5t-2.5 134.5q0 85 2 131.5t7 73.5t15 50q24 54 72 82.5t117 28.5q70 0 117.5 -28t71.5 -83q10 -23 15.5 -50t7.5 -73.5t2 -131.5t-2 -131.5t-7.5 -73.5t-15.5 -50q-24 -55 -71.5 -83t-117.5 -28q-66 0 -112.5 26z
M271 125.5q14 9.5 22 27.5q4 10 6 25.5t3 59.5t1 115t-1 115.5t-3 59.5t-6 25q-8 18 -22 27.5t-37 9.5q-44 0 -59 -37q-4 -10 -5.5 -25.5t-2.5 -59.5t-1 -115t1 -115.5t3 -59.5t6 -25q15 -37 58 -37q23 0 37 9.5zM259.5 747q-14.5 5 -29.5 15q-7 3 -13.5 7t-14 6.5
t-13.5 2.5q-11 0 -16.5 -8.5t-7.5 -25.5h-76q1 60 22 89t64 29q21 0 33 -5t32 -18q12 -7 20 -10t17 -3q11 0 17 8t9 26h76q-1 -59 -21 -88.5t-65 -29.5q-19 0 -33.5 5z" />
    <glyph glyph-name="Odieresis" unicode="&#xd6;" horiz-adv-x="468" 
d="M121.5 13q-46.5 26 -71.5 77q-12 24 -18 52t-8.5 76.5t-2.5 134.5q0 85 2 131.5t7 73.5t15 50q24 54 72 82.5t117 28.5q70 0 117.5 -28t71.5 -83q10 -23 15.5 -50t7.5 -73.5t2 -131.5t-2 -131.5t-7.5 -73.5t-15.5 -50q-24 -55 -71.5 -83t-117.5 -28q-66 0 -112.5 26z
M271 125.5q14 9.5 22 27.5q4 10 6 25.5t3 59.5t1 115t-1 115.5t-3 59.5t-6 25q-8 18 -22 27.5t-37 9.5q-44 0 -59 -37q-4 -10 -5.5 -25.5t-2.5 -59.5t-1 -115t1 -115.5t3 -59.5t6 -25q15 -37 58 -37q23 0 37 9.5zM105 761.5q-18 17.5 -18 45.5q0 29 18.5 46t46.5 17t46 -17
t18 -46q0 -28 -18 -45.5t-46 -17.5q-29 0 -47 17.5zM271 761.5q-18 17.5 -18 45.5q0 29 18 46t46 17t46 -17t18 -46q0 -28 -18 -45.5t-46 -17.5t-46 17.5z" />
    <glyph glyph-name="multiply" unicode="&#xd7;" horiz-adv-x="399" 
d="M270 307l95 -94l-71 -71l-94 95l-95 -95l-70 71l94 94l-94 95l70 70l95 -94l94 94l71 -70z" />
    <glyph glyph-name="Oslash" unicode="&#xd8;" horiz-adv-x="468" 
d="M423 608q10 -23 15.5 -50t7.5 -73.5t2 -131.5t-2 -131.5t-7.5 -73.5t-15.5 -50q-24 -55 -71.5 -83t-117.5 -28q-105 0 -160 66l-33 -53h-53l61 93q-11 23 -17 51.5t-8.5 76.5t-2.5 132q0 85 2 131.5t7 73.5t15 50q24 54 72 82.5t117 28.5q105 0 160 -64l32 51h52l-59 -90
zM169.5 527.5q-1.5 -15.5 -2.5 -59.5t-1 -115v-82l134 245q-1 14 -2.5 22.5t-4.5 14.5q-8 18 -22 27.5t-37 9.5q-44 0 -59 -37q-4 -10 -5.5 -25.5zM299 178.5q2 15.5 3 59.5t1 115v89l-135 -247q1 -16 3 -25.5t5 -16.5q15 -37 58 -37q23 0 37 9.5t22 27.5q4 10 6 25.5z" />
    <glyph glyph-name="Ugrave" unicode="&#xd9;" horiz-adv-x="438" 
d="M69.5 32.5q-45.5 45.5 -45.5 141.5v532h142v-530q0 -31 12.5 -46.5t39.5 -15.5q29 0 42 15.5t13 46.5v530h141v-532q0 -96 -46.5 -141.5t-149.5 -45.5t-148.5 45.5zM172 745l-88 115h134l72 -115h-118z" />
    <glyph glyph-name="Uacute" unicode="&#xda;" horiz-adv-x="438" 
d="M69.5 32.5q-45.5 45.5 -45.5 141.5v532h142v-530q0 -31 12.5 -46.5t39.5 -15.5q29 0 42 15.5t13 46.5v530h141v-532q0 -96 -46.5 -141.5t-149.5 -45.5t-148.5 45.5zM223 860h133l-88 -115h-118z" />
    <glyph glyph-name="Ucircumflex" unicode="&#xdb;" horiz-adv-x="438" 
d="M69.5 32.5q-45.5 45.5 -45.5 141.5v532h142v-530q0 -31 12.5 -46.5t39.5 -15.5q29 0 42 15.5t13 46.5v530h141v-532q0 -96 -46.5 -141.5t-149.5 -45.5t-148.5 45.5zM144 860h149l73 -115h-112l-35 56l-36 -56h-111z" />
    <glyph glyph-name="Udieresis" unicode="&#xdc;" horiz-adv-x="438" 
d="M69.5 32.5q-45.5 45.5 -45.5 141.5v532h142v-530q0 -31 12.5 -46.5t39.5 -15.5q29 0 42 15.5t13 46.5v530h141v-532q0 -96 -46.5 -141.5t-149.5 -45.5t-148.5 45.5zM90 761.5q-18 17.5 -18 45.5q0 29 18.5 46t46.5 17t46 -17t18 -46q0 -28 -18 -45.5t-46 -17.5
q-29 0 -47 17.5zM256 761.5q-18 17.5 -18 45.5q0 29 18 46t46 17t46 -17t18 -46q0 -28 -18 -45.5t-46 -17.5t-46 17.5z" />
    <glyph glyph-name="Yacute" unicode="&#xdd;" horiz-adv-x="420" 
d="M139 286l-139 420h142l68 -261l68 261h142l-139 -420v-286h-142v286zM215 860h133l-88 -115h-118z" />
    <glyph glyph-name="Thorn" unicode="&#xde;" horiz-adv-x="408" 
d="M29 706h141v-108h62q59 0 96 -18t54 -56q7 -15 10 -31.5t4.5 -46t1.5 -84.5t-1.5 -84t-4.5 -45.5t-10 -31.5q-17 -38 -53.5 -56t-96.5 -18h-62v-127h-141v706zM196 242q21 0 33.5 5.5t18.5 18.5q4 9 5.5 26t1.5 70t-1.5 70.5t-5.5 25.5q-6 13 -18.5 18.5t-33.5 5.5h-26
v-240h26z" />
    <glyph glyph-name="germandbls" unicode="&#xdf;" horiz-adv-x="405" 
d="M386 307.5q3 -25.5 3 -90.5q0 -66 -3 -92t-12 -47q-34 -78 -156 -78h-36v110h11q41 0 53 29q3 8 4.5 24.5t1.5 65.5q0 47 -1.5 63.5t-4.5 24.5q-6 13 -19 21t-35 8h-9v106h8q22 0 32.5 5.5t15.5 17.5q2 6 3 18.5t1 39.5q0 25 -1 38t-3 19q-10 22 -38 22q-14 0 -23.5 -5.5
t-14.5 -17.5q-4 -8 -5 -22.5t-1 -51.5v-515h-133v509q0 52 3.5 78t13.5 49q20 42 58.5 62.5t101.5 20.5t101.5 -20.5t56.5 -60.5q8 -19 11 -37.5t3 -56.5q0 -37 -3 -59.5t-10 -38.5q-13 -28 -41 -40q38 -15 55 -52q9 -21 12 -46.5z" />
    <glyph glyph-name="agrave" unicode="&#xe0;" horiz-adv-x="384" 
d="M359 414q3 -26 3 -80v-334h-133v45q-37 -54 -107 -54q-75 0 -99 53q-7 15 -9 34.5t-2 67.5q0 52 2 71t9 35q16 36 55.5 51.5t108.5 15.5h42v11q0 39 -1 56t-3 24q-7 18 -34 18t-34 -18q-2 -6 -3 -16t-1 -31h-130q0 39 2.5 57.5t9.5 35.5q34 75 157 75q63 0 100.5 -17.5
t54.5 -54.5q9 -19 12 -45zM209 101.5q10 5.5 15 17.5q3 8 4 30t1 74v9h-28q-21 0 -33 -4t-17 -14q-2 -5 -2.5 -16.5t-0.5 -32.5q0 -24 0.5 -36t2.5 -16q7 -17 33 -17q15 0 25 5.5zM153 567l-80 139h128l64 -139h-112z" />
    <glyph glyph-name="aacute" unicode="&#xe1;" horiz-adv-x="384" 
d="M359 414q3 -26 3 -80v-334h-133v45q-37 -54 -107 -54q-75 0 -99 53q-7 15 -9 34.5t-2 67.5q0 52 2 71t9 35q16 36 55.5 51.5t108.5 15.5h42v11q0 39 -1 56t-3 24q-7 18 -34 18t-34 -18q-2 -6 -3 -16t-1 -31h-130q0 39 2.5 57.5t9.5 35.5q34 75 157 75q63 0 100.5 -17.5
t54.5 -54.5q9 -19 12 -45zM209 101.5q10 5.5 15 17.5q3 8 4 30t1 74v9h-28q-21 0 -33 -4t-17 -14q-2 -5 -2.5 -16.5t-0.5 -32.5q0 -24 0.5 -36t2.5 -16q7 -17 33 -17q15 0 25 5.5zM194 706h127l-80 -139h-112z" />
    <glyph glyph-name="acircumflex" unicode="&#xe2;" horiz-adv-x="384" 
d="M359 414q3 -26 3 -80v-334h-133v45q-37 -54 -107 -54q-75 0 -99 53q-7 15 -9 34.5t-2 67.5q0 52 2 71t9 35q16 36 55.5 51.5t108.5 15.5h42v11q0 39 -1 56t-3 24q-7 18 -34 18t-34 -18q-2 -6 -3 -16t-1 -31h-130q0 39 2.5 57.5t9.5 35.5q34 75 157 75q63 0 100.5 -17.5
t54.5 -54.5q9 -19 12 -45zM209 101.5q10 5.5 15 17.5q3 8 4 30t1 74v9h-28q-21 0 -33 -4t-17 -14q-2 -5 -2.5 -16.5t-0.5 -32.5q0 -24 0.5 -36t2.5 -16q7 -17 33 -17q15 0 25 5.5zM126 706h141l75 -140h-110l-36 71l-36 -71h-110z" />
    <glyph glyph-name="atilde" unicode="&#xe3;" horiz-adv-x="384" 
d="M359 414q3 -26 3 -80v-334h-133v45q-37 -54 -107 -54q-75 0 -99 53q-7 15 -9 34.5t-2 67.5q0 52 2 71t9 35q16 36 55.5 51.5t108.5 15.5h42v11q0 39 -1 56t-3 24q-7 18 -34 18t-34 -18q-2 -6 -3 -16t-1 -31h-130q0 39 2.5 57.5t9.5 35.5q34 75 157 75q63 0 100.5 -17.5
t54.5 -54.5q9 -19 12 -45zM209 101.5q10 5.5 15 17.5q3 8 4 30t1 74v9h-28q-21 0 -33 -4t-17 -14q-2 -5 -2.5 -16.5t-0.5 -32.5q0 -24 0.5 -36t2.5 -16q7 -17 33 -17q15 0 25 5.5zM222.5 572q-14.5 7 -30.5 20q-14 11 -22.5 16t-17.5 5q-13 0 -18 -10.5t-7 -35.5h-73
q1 74 19 107.5t62 33.5q21 0 34.5 -7t30.5 -21q14 -11 22.5 -16t17.5 -5q13 0 18 10.5t7 36.5h73q0 -73 -18.5 -107t-61.5 -34q-21 0 -35.5 7z" />
    <glyph glyph-name="adieresis" unicode="&#xe4;" horiz-adv-x="384" 
d="M359 414q3 -26 3 -80v-334h-133v45q-37 -54 -107 -54q-75 0 -99 53q-7 15 -9 34.5t-2 67.5q0 52 2 71t9 35q16 36 55.5 51.5t108.5 15.5h42v11q0 39 -1 56t-3 24q-7 18 -34 18t-34 -18q-2 -6 -3 -16t-1 -31h-130q0 39 2.5 57.5t9.5 35.5q34 75 157 75q63 0 100.5 -17.5
t54.5 -54.5q9 -19 12 -45zM209 101.5q10 5.5 15 17.5q3 8 4 30t1 74v9h-28q-21 0 -33 -4t-17 -14q-2 -5 -2.5 -16.5t-0.5 -32.5q0 -24 0.5 -36t2.5 -16q7 -17 33 -17q15 0 25 5.5zM68 585q-19 18 -19 47t19 46.5t48 17.5t47.5 -17.5t18.5 -46.5t-18.5 -47t-47.5 -18t-48 18z
M230 585q-19 18 -19 46q0 29 19 46.5t48 17.5t47.5 -17.5t18.5 -46.5q0 -28 -18.5 -46t-47.5 -18t-48 18z" />
    <glyph glyph-name="aring" unicode="&#xe5;" horiz-adv-x="384" 
d="M359 414q3 -26 3 -80v-334h-133v45q-37 -54 -107 -54q-75 0 -99 53q-7 15 -9 34.5t-2 67.5q0 52 2 71t9 35q16 36 55.5 51.5t108.5 15.5h42v11q0 39 -1 56t-3 24q-7 18 -34 18t-34 -18q-2 -6 -3 -16t-1 -31h-130q0 39 2.5 57.5t9.5 35.5q34 75 157 75q63 0 100.5 -17.5
t54.5 -54.5q9 -19 12 -45zM209 101.5q10 5.5 15 17.5q3 8 4 30t1 74v9h-28q-21 0 -33 -4t-17 -14q-2 -5 -2.5 -16.5t-0.5 -32.5q0 -24 0.5 -36t2.5 -16q7 -17 33 -17q15 0 25 5.5zM140.5 570q-24.5 12 -38.5 34.5t-14 51.5t14 51.5t38.5 34.5t55.5 12q32 0 56.5 -12
t38 -34.5t13.5 -51.5t-14 -51.5t-38.5 -34.5t-55.5 -12t-55.5 12zM223 630q10 10 10 26t-10.5 26t-26.5 10t-26 -10t-10 -26t9.5 -26t26.5 -10t27 10z" />
    <glyph glyph-name="ae" unicode="&#xe6;" horiz-adv-x="593" 
d="M436 116q2 6 3.5 21t1.5 38h135q-1 -60 -11 -90.5t-34 -53.5q-22 -20 -54 -30t-71 -10q-50 0 -84 15.5t-54 47.5q-22 -31 -54 -47t-78 -16q-87 0 -112 55q-7 16 -9.5 35.5t-2.5 67.5q0 51 2 69.5t9 33.5q16 36 55.5 51.5t108.5 15.5h42v10q0 40 -1 57t-3 24q-7 18 -34 18
t-34 -18q-2 -6 -3 -16t-1 -31h-130q0 39 2.5 57.5t9.5 35.5q34 75 157 75q38 0 65 -6.5t45 -19.5q38 26 99 26q117 0 158 -88q8 -18 12 -38.5t5 -57t1 -114.5h-216q0 -62 1.5 -82.5t5.5 -31.5q5 -11 13.5 -16t22.5 -5q17 0 25 8q5 4 7 10zM368 406q-4 -8 -5 -22.5t-2 -64.5
h81q0 48 -1 63t-5 23q-5 11 -13 16t-21 5q-25 0 -34 -20zM229 233h-28q-21 0 -33 -4t-17 -15q-2 -5 -2.5 -16t-0.5 -33q0 -24 0.5 -35t2.5 -17q8 -17 33 -17q30 0 39 22q3 6 4 14.5t1.5 30.5t0.5 60v10z" />
    <glyph glyph-name="ccedilla" unicode="&#xe7;" horiz-adv-x="387" 
d="M226.5 123.5q2.5 7.5 3.5 27.5t1 51h139q-1 -51 -5 -81.5t-13.5 -51t-28.5 -37.5q-33 -30 -90 -39l-4 -17q38 -1 59.5 -20.5t21.5 -53.5q0 -45 -33 -65t-88 -20q-42 0 -79 12l13 62q28 -10 55 -10q42 0 42 24q0 13 -12 19t-38 6h-39l15 65q-81 17 -111 85
q-8 17 -11.5 35.5t-5 51t-1.5 94.5t1.5 94.5t5 51.5t11.5 36q20 44 60 66t100 22q86 0 128 -41q19 -17 28.5 -37t13.5 -48t5 -73h-138q0 26 -1.5 43.5t-4 24.5t-7.5 11q-8 8 -24 8q-26 0 -34 -21q-4 -9 -5 -31.5t-1 -105.5t1 -105.5t5 -31.5q11 -21 34 -21q14 0 24 8
q5 5 7.5 12.5z" />
    <glyph glyph-name="egrave" unicode="&#xe8;" horiz-adv-x="390" 
d="M235.5 126q2.5 12 3.5 49h133q-1 -41 -5 -66.5t-13.5 -43.5t-26.5 -33q-45 -41 -129 -41q-123 0 -164 89q-7 17 -10.5 36t-5 52t-1.5 94q0 62 1.5 94.5t5 50.5t10.5 35q41 89 160 89q120 0 161 -89q9 -19 12.5 -40t4.5 -64t1 -105h-223q0 -64 1 -83.5t5 -28.5
q5 -12 14.5 -17.5t25.5 -5.5q21 0 31 10q6 6 8.5 18zM156 404q-3 -9 -4.5 -27t-1.5 -57h90q-1 46 -2 60.5t-4 23.5q-5 11 -14.5 16.5t-24.5 5.5q-29 0 -39 -22zM151 567l-80 139h128l64 -139h-112z" />
    <glyph glyph-name="eacute" unicode="&#xe9;" horiz-adv-x="390" 
d="M235.5 126q2.5 12 3.5 49h133q-1 -41 -5 -66.5t-13.5 -43.5t-26.5 -33q-45 -41 -129 -41q-123 0 -164 89q-7 17 -10.5 36t-5 52t-1.5 94q0 62 1.5 94.5t5 50.5t10.5 35q41 89 160 89q120 0 161 -89q9 -19 12.5 -40t4.5 -64t1 -105h-223q0 -64 1 -83.5t5 -28.5
q5 -12 14.5 -17.5t25.5 -5.5q21 0 31 10q6 6 8.5 18zM156 404q-3 -9 -4.5 -27t-1.5 -57h90q-1 46 -2 60.5t-4 23.5q-5 11 -14.5 16.5t-24.5 5.5q-29 0 -39 -22zM192 706h127l-80 -139h-112z" />
    <glyph glyph-name="ecircumflex" unicode="&#xea;" horiz-adv-x="390" 
d="M235.5 126q2.5 12 3.5 49h133q-1 -41 -5 -66.5t-13.5 -43.5t-26.5 -33q-45 -41 -129 -41q-123 0 -164 89q-7 17 -10.5 36t-5 52t-1.5 94q0 62 1.5 94.5t5 50.5t10.5 35q41 89 160 89q120 0 161 -89q9 -19 12.5 -40t4.5 -64t1 -105h-223q0 -64 1 -83.5t5 -28.5
q5 -12 14.5 -17.5t25.5 -5.5q21 0 31 10q6 6 8.5 18zM156 404q-3 -9 -4.5 -27t-1.5 -57h90q-1 46 -2 60.5t-4 23.5q-5 11 -14.5 16.5t-24.5 5.5q-29 0 -39 -22zM125 706h141l75 -140h-110l-36 71l-36 -71h-110z" />
    <glyph glyph-name="edieresis" unicode="&#xeb;" horiz-adv-x="390" 
d="M235.5 126q2.5 12 3.5 49h133q-1 -41 -5 -66.5t-13.5 -43.5t-26.5 -33q-45 -41 -129 -41q-123 0 -164 89q-7 17 -10.5 36t-5 52t-1.5 94q0 62 1.5 94.5t5 50.5t10.5 35q41 89 160 89q120 0 161 -89q9 -19 12.5 -40t4.5 -64t1 -105h-223q0 -64 1 -83.5t5 -28.5
q5 -12 14.5 -17.5t25.5 -5.5q21 0 31 10q6 6 8.5 18zM156 404q-3 -9 -4.5 -27t-1.5 -57h90q-1 46 -2 60.5t-4 23.5q-5 11 -14.5 16.5t-24.5 5.5q-29 0 -39 -22zM67 585q-19 18 -19 47t19 46.5t48 17.5t47.5 -17.5t18.5 -46.5t-18.5 -47t-47.5 -18t-48 18zM229 585
q-19 18 -19 46q0 29 19 46.5t48 17.5t47.5 -17.5t18.5 -46.5q0 -28 -18.5 -46t-47.5 -18t-48 18z" />
    <glyph glyph-name="igrave" unicode="&#xec;" horiz-adv-x="181" 
d="M24 522h133v-522h-133v522zM54 567l-69 139h124l51 -139h-106z" />
    <glyph glyph-name="iacute" unicode="&#xed;" horiz-adv-x="181" 
d="M24 522h133v-522h-133v522zM73 706h124l-69 -139h-106z" />
    <glyph glyph-name="icircumflex" unicode="&#xee;" horiz-adv-x="181" 
d="M24 522h133v-522h-133v522zM29 706h124l48 -140h-84l-26 74l-27 -74h-84z" />
    <glyph glyph-name="idieresis" unicode="&#xef;" horiz-adv-x="181" 
d="M24 522h133v-522h-133v522zM-9 585.5q-14 16.5 -14 46.5q0 29 14.5 45.5t39.5 16.5t39 -16.5t14 -45.5q0 -30 -14 -46.5t-39 -16.5q-26 0 -40 16.5zM110 585.5q-14 16.5 -14 46.5q0 29 14.5 45.5t39.5 16.5t39.5 -16.5t14.5 -45.5q0 -30 -14 -46.5t-40 -16.5t-40 16.5z
" />
    <glyph glyph-name="eth" unicode="&#xf0;" horiz-adv-x="395" 
d="M364 479.5q10 -34.5 13 -80.5t3 -137q0 -64 -1.5 -97.5t-5 -51.5t-11.5 -35q-20 -44 -61 -65.5t-106 -21.5q-123 0 -163 85q-7 16 -10 33.5t-4 53.5t-1 88q0 66 1.5 100t4.5 52t10 32q30 68 108 68q56 0 93 -35q-5 16 -20 49l-24 48l-141 -47v84l97 33q-23 33 -51 69v2
h145l25 -32l92 31v-85l-47 -15q13 -23 21 -40q23 -51 33 -85.5zM241 154.5q1 21.5 1 99.5q0 67 -1 87t-5 28q-6 13 -15 19t-23 6q-27 0 -36 -23q-4 -10 -5.5 -30t-1.5 -87q0 -75 1.5 -97.5t4.5 -31.5q11 -23 38 -23q28 0 37 22q4 9 5 30.5z" />
    <glyph glyph-name="ntilde" unicode="&#xf1;" horiz-adv-x="390" 
d="M340.5 499.5q27.5 -31.5 27.5 -93.5v-406h-133v371q0 25 -9 36.5t-28 11.5q-41 0 -41 -52v-367h-133v522h133v-45q19 27 44.5 40.5t59.5 13.5q52 0 79.5 -31.5zM225.5 572q-14.5 7 -30.5 20q-14 11 -22.5 16t-17.5 5q-13 0 -18 -10.5t-7 -35.5h-73q1 74 19 107.5t62 33.5
q21 0 34.5 -7t30.5 -21q14 -11 22.5 -16t17.5 -5q13 0 18 10.5t7 36.5h73q0 -73 -18.5 -107t-61.5 -34q-21 0 -35.5 7z" />
    <glyph glyph-name="ograve" unicode="&#xf2;" horiz-adv-x="393" 
d="M95.5 14q-40.5 23 -60.5 66q-8 17 -11.5 36t-5 51t-1.5 94t1.5 94t5 51t11.5 36q20 43 60.5 66t101.5 23t101.5 -23t60.5 -66q7 -18 11 -36.5t5.5 -51.5t1.5 -93t-1.5 -93t-5.5 -51.5t-11 -35.5q-20 -44 -60.5 -67t-101.5 -23t-101.5 23zM233 125q4 10 5.5 34t1.5 102
t-1.5 102.5t-5.5 34.5q-5 11 -13.5 16t-22.5 5q-15 0 -23.5 -5t-13.5 -16q-4 -9 -5 -32.5t-1 -104.5t1 -104t5 -32q9 -22 37 -22q27 0 36 22zM153 567l-80 139h128l64 -139h-112z" />
    <glyph glyph-name="oacute" unicode="&#xf3;" horiz-adv-x="393" 
d="M95.5 14q-40.5 23 -60.5 66q-8 17 -11.5 36t-5 51t-1.5 94t1.5 94t5 51t11.5 36q20 43 60.5 66t101.5 23t101.5 -23t60.5 -66q7 -18 11 -36.5t5.5 -51.5t1.5 -93t-1.5 -93t-5.5 -51.5t-11 -35.5q-20 -44 -60.5 -67t-101.5 -23t-101.5 23zM233 125q4 10 5.5 34t1.5 102
t-1.5 102.5t-5.5 34.5q-5 11 -13.5 16t-22.5 5q-15 0 -23.5 -5t-13.5 -16q-4 -9 -5 -32.5t-1 -104.5t1 -104t5 -32q9 -22 37 -22q27 0 36 22zM194 706h127l-80 -139h-112z" />
    <glyph glyph-name="ocircumflex" unicode="&#xf4;" horiz-adv-x="393" 
d="M95.5 14q-40.5 23 -60.5 66q-8 17 -11.5 36t-5 51t-1.5 94t1.5 94t5 51t11.5 36q20 43 60.5 66t101.5 23t101.5 -23t60.5 -66q7 -18 11 -36.5t5.5 -51.5t1.5 -93t-1.5 -93t-5.5 -51.5t-11 -35.5q-20 -44 -60.5 -67t-101.5 -23t-101.5 23zM233 125q4 10 5.5 34t1.5 102
t-1.5 102.5t-5.5 34.5q-5 11 -13.5 16t-22.5 5q-15 0 -23.5 -5t-13.5 -16q-4 -9 -5 -32.5t-1 -104.5t1 -104t5 -32q9 -22 37 -22q27 0 36 22zM127 706h141l75 -140h-110l-36 71l-36 -71h-110z" />
    <glyph glyph-name="otilde" unicode="&#xf5;" horiz-adv-x="393" 
d="M95.5 14q-40.5 23 -60.5 66q-8 17 -11.5 36t-5 51t-1.5 94t1.5 94t5 51t11.5 36q20 43 60.5 66t101.5 23t101.5 -23t60.5 -66q7 -18 11 -36.5t5.5 -51.5t1.5 -93t-1.5 -93t-5.5 -51.5t-11 -35.5q-20 -44 -60.5 -67t-101.5 -23t-101.5 23zM233 125q4 10 5.5 34t1.5 102
t-1.5 102.5t-5.5 34.5q-5 11 -13.5 16t-22.5 5q-15 0 -23.5 -5t-13.5 -16q-4 -9 -5 -32.5t-1 -104.5t1 -104t5 -32q9 -22 37 -22q27 0 36 22zM223.5 572q-14.5 7 -30.5 20q-14 11 -22.5 16t-17.5 5q-13 0 -18 -10.5t-7 -35.5h-73q1 74 19 107.5t62 33.5q21 0 34.5 -7
t30.5 -21q14 -11 22.5 -16t17.5 -5q13 0 18 10.5t7 36.5h73q0 -73 -18.5 -107t-61.5 -34q-21 0 -35.5 7z" />
    <glyph glyph-name="odieresis" unicode="&#xf6;" horiz-adv-x="393" 
d="M95.5 14q-40.5 23 -60.5 66q-8 17 -11.5 36t-5 51t-1.5 94t1.5 94t5 51t11.5 36q20 43 60.5 66t101.5 23t101.5 -23t60.5 -66q7 -18 11 -36.5t5.5 -51.5t1.5 -93t-1.5 -93t-5.5 -51.5t-11 -35.5q-20 -44 -60.5 -67t-101.5 -23t-101.5 23zM233 125q4 10 5.5 34t1.5 102
t-1.5 102.5t-5.5 34.5q-5 11 -13.5 16t-22.5 5q-15 0 -23.5 -5t-13.5 -16q-4 -9 -5 -32.5t-1 -104.5t1 -104t5 -32q9 -22 37 -22q27 0 36 22zM68 585q-19 18 -19 47t19 46.5t48 17.5t47.5 -17.5t18.5 -46.5t-18.5 -47t-47.5 -18t-48 18zM230 585q-19 18 -19 46q0 29 19 46.5
t48 17.5t47.5 -17.5t18.5 -46.5q0 -28 -18.5 -46t-47.5 -18t-48 18z" />
    <glyph glyph-name="divide" unicode="&#xf7;" horiz-adv-x="399" 
d="M156 414.5q-17 16.5 -17 43.5t17 43t44 16t43.5 -16t16.5 -43t-16.5 -43.5t-43.5 -16.5t-44 16.5zM29 357h342v-101h-342v101zM156 112q-17 16 -17 43q0 28 17 44t44 16t43.5 -16t16.5 -44q0 -27 -16.5 -43t-43.5 -16t-44 16z" />
    <glyph glyph-name="oslash" unicode="&#xf8;" horiz-adv-x="393" 
d="M359 442q7 -18 11 -36.5t5.5 -51.5t1.5 -93t-1.5 -93t-5.5 -51.5t-11 -35.5q-20 -44 -60.5 -67t-101.5 -23q-76 0 -120 35l-17 -26h-48l36 56q-5 8 -13 24q-8 17 -11.5 36t-5 51t-1.5 94t1.5 94t5 51t11.5 36q20 43 60.5 66t101.5 23q74 0 119 -34l17 25h48l-37 -54
q8 -11 15 -26zM155 365.5q-1 -23.5 -1 -104.5v-41l84 154q-1 14 -5 24q-5 11 -13.5 16t-22.5 5q-15 0 -23.5 -5t-13.5 -16q-4 -9 -5 -32.5zM238.5 159q1.5 24 1.5 102v45l-85 -153q1 -11 2 -17.5t3 -10.5q9 -22 37 -22q27 0 36 22q4 10 5.5 34z" />
    <glyph glyph-name="ugrave" unicode="&#xf9;" horiz-adv-x="390" 
d="M366 522v-522h-133v45q-19 -27 -44.5 -40t-59.5 -13q-52 0 -79.5 31t-27.5 93v406h133v-371q0 -25 9 -36.5t28 -11.5q41 0 41 52v367h133zM146 567l-80 139h128l64 -139h-112z" />
    <glyph glyph-name="uacute" unicode="&#xfa;" horiz-adv-x="390" 
d="M366 522v-522h-133v45q-19 -27 -44.5 -40t-59.5 -13q-52 0 -79.5 31t-27.5 93v406h133v-371q0 -25 9 -36.5t28 -11.5q41 0 41 52v367h133zM187 706h127l-80 -139h-112z" />
    <glyph glyph-name="ucircumflex" unicode="&#xfb;" horiz-adv-x="390" 
d="M366 522v-522h-133v45q-19 -27 -44.5 -40t-59.5 -13q-52 0 -79.5 31t-27.5 93v406h133v-371q0 -25 9 -36.5t28 -11.5q41 0 41 52v367h133zM120 706h141l75 -140h-110l-36 71l-36 -71h-110z" />
    <glyph glyph-name="udieresis" unicode="&#xfc;" horiz-adv-x="390" 
d="M366 522v-522h-133v45q-19 -27 -44.5 -40t-59.5 -13q-52 0 -79.5 31t-27.5 93v406h133v-371q0 -25 9 -36.5t28 -11.5q41 0 41 52v367h133zM61 585q-19 18 -19 47t19 46.5t48 17.5t47.5 -17.5t18.5 -46.5t-18.5 -47t-47.5 -18t-48 18zM223 585q-19 18 -19 46q0 29 19 46.5
t48 17.5t47.5 -17.5t18.5 -46.5q0 -28 -18.5 -46t-47.5 -18t-48 18z" />
    <glyph glyph-name="yacute" unicode="&#xfd;" horiz-adv-x="378" 
d="M380 522l-130 -522l-46 -170h-129l46 175l-123 517h140l49 -347l57 347h136zM188 706h127l-80 -139h-112z" />
    <glyph glyph-name="thorn" unicode="&#xfe;" horiz-adv-x="400" 
d="M377 428.5q4 -19.5 5.5 -58t1.5 -109.5t-2 -109t-5.5 -58t-10.5 -36q-15 -32 -42 -49.5t-66 -17.5q-65 0 -101 50v-211h-133v876h133v-225q35 50 101 50q39 0 66 -17.5t42 -48.5q7 -17 11 -36.5zM244 159q1 24 1 102q0 79 -1 103.5t-5 32.5q-9 22 -38 22q-45 0 -45 -61
v-193q0 -61 45 -61q29 0 38 23q4 8 5 32z" />
    <glyph glyph-name="ydieresis" unicode="&#xff;" horiz-adv-x="378" 
d="M380 522l-130 -522l-46 -170h-129l46 175l-123 517h140l49 -347l57 347h136zM62 585q-19 18 -19 47t19 46.5t48 17.5t47.5 -17.5t18.5 -46.5t-18.5 -47t-47.5 -18t-48 18zM224 585q-19 18 -19 46q0 29 19 46.5t48 17.5t47.5 -17.5t18.5 -46.5q0 -28 -18.5 -46t-47.5 -18
t-48 18z" />
    <glyph glyph-name="Amacron" unicode="&#x100;" horiz-adv-x="456" 
d="M298 112h-140l-16 -112h-142l119 706h218l119 -706h-142zM281 230l-52 362h-2l-52 -362h106zM105 848h246v-87h-246v87z" />
    <glyph glyph-name="amacron" unicode="&#x101;" horiz-adv-x="384" 
d="M359 414q3 -26 3 -80v-334h-133v45q-37 -54 -107 -54q-75 0 -99 53q-7 15 -9 34.5t-2 67.5q0 52 2 71t9 35q16 36 55.5 51.5t108.5 15.5h42v11q0 39 -1 56t-3 24q-7 18 -34 18t-34 -18q-2 -6 -3 -16t-1 -31h-130q0 39 2.5 57.5t9.5 35.5q34 75 157 75q63 0 100.5 -17.5
t54.5 -54.5q9 -19 12 -45zM209 101.5q10 5.5 15 17.5q3 8 4 30t1 74v9h-28q-21 0 -33 -4t-17 -14q-2 -5 -2.5 -16.5t-0.5 -32.5q0 -24 0.5 -36t2.5 -16q7 -17 33 -17q15 0 25 5.5zM81 676h231v-91h-231v91z" />
    <glyph glyph-name="Abreve" unicode="&#x102;" horiz-adv-x="456" 
d="M298 112h-140l-16 -112h-142l119 706h218l119 -706h-142zM281 230l-52 362h-2l-52 -362h106zM92 860h92q1 -25 12 -36.5t33 -11.5t32.5 11t13.5 37h89q-3 -121 -135 -121q-134 0 -137 121z" />
    <glyph glyph-name="abreve" unicode="&#x103;" horiz-adv-x="384" 
d="M359 414q3 -26 3 -80v-334h-133v45q-37 -54 -107 -54q-75 0 -99 53q-7 15 -9 34.5t-2 67.5q0 52 2 71t9 35q16 36 55.5 51.5t108.5 15.5h42v11q0 39 -1 56t-3 24q-7 18 -34 18t-34 -18q-2 -6 -3 -16t-1 -31h-130q0 39 2.5 57.5t9.5 35.5q34 75 157 75q63 0 100.5 -17.5
t54.5 -54.5q9 -19 12 -45zM209 101.5q10 5.5 15 17.5q3 8 4 30t1 74v9h-28q-21 0 -33 -4t-17 -14q-2 -5 -2.5 -16.5t-0.5 -32.5q0 -24 0.5 -36t2.5 -16q7 -17 33 -17q15 0 25 5.5zM93 596q-35 35 -36 110h92q2 -37 13 -52.5t35 -15.5t35 15.5t12 52.5h92q-1 -75 -36 -110
t-103 -35q-69 0 -104 35z" />
    <glyph glyph-name="Aogonek" unicode="&#x104;" horiz-adv-x="456" 
d="M457 -94v-76q-30 -11 -62 -11q-48 0 -76.5 21t-28.5 61q0 31 19.5 55t56.5 44h-52l-16 112h-140l-16 -112h-142l119 706h218l119 -706q-31 -21 -46.5 -37.5t-15.5 -35.5q0 -14 8 -21t22 -7q19 0 33 7zM281 230l-52 362h-2l-52 -362h106z" />
    <glyph glyph-name="aogonek" unicode="&#x105;" horiz-adv-x="384" 
d="M363 -94v-76q-30 -11 -62 -11q-48 0 -76.5 21t-28.5 61q0 31 19.5 55t56.5 44h-43v45q-37 -54 -107 -54q-75 0 -99 53q-7 15 -9 34.5t-2 67.5q0 52 2 71t9 35q16 36 55.5 51.5t108.5 15.5h42v11q0 39 -1 56t-3 24q-7 18 -34 18t-34 -18q-2 -6 -3 -16t-1 -31h-130
q0 39 2.5 57.5t9.5 35.5q34 75 157 75q63 0 100.5 -17.5t54.5 -54.5q9 -19 12 -45t3 -80v-334q-32 -22 -47.5 -38t-15.5 -35q0 -14 8.5 -21t22.5 -7q19 0 33 7zM209 101.5q10 5.5 15 17.5q3 8 4 30t1 74v9h-28q-21 0 -33 -4t-17 -14q-2 -5 -2.5 -16.5t-0.5 -32.5
q0 -24 0.5 -36t2.5 -16q7 -17 33 -17q15 0 25 5.5z" />
    <glyph glyph-name="Cacute" unicode="&#x106;" horiz-adv-x="455" 
d="M117.5 16q-47.5 28 -72.5 84q-10 22 -15 48.5t-7 72t-2 132.5q0 85 2 131.5t7 73t15 49.5q24 55 71.5 83t118.5 28q88 0 140 -48q34 -31 47.5 -75.5t13.5 -120.5h-145q0 37 -2 57t-5.5 29.5t-11.5 16.5t-17.5 10.5t-23.5 3.5q-20 0 -34 -9t-21 -26q-4 -10 -6 -25.5
t-3 -60.5t-1 -117t1 -117.5t3 -61t6 -25.5q15 -34 56 -34q26 0 42 15q7 5 10.5 14.5t5.5 29.5t2 57h146q-1 -73 -15 -119.5t-46 -75.5q-25 -23 -61 -35.5t-81 -12.5q-70 0 -117.5 28zM238 860h133l-88 -115h-118z" />
    <glyph glyph-name="cacute" unicode="&#x107;" horiz-adv-x="387" 
d="M35 80q-8 17 -11.5 35.5t-5 51t-1.5 94.5t1.5 94.5t5 51.5t11.5 36q20 44 60 66t100 22q86 0 128 -41q19 -17 28.5 -37t13.5 -48t5 -73h-138q0 26 -1.5 43.5t-4 24.5t-7.5 11q-8 8 -24 8q-26 0 -34 -21q-4 -9 -5 -31.5t-1 -105.5t1 -105.5t5 -31.5q11 -21 34 -21
q14 0 24 8q5 5 7.5 12.5t3.5 27.5t1 51h139q-1 -51 -5 -81.5t-13.5 -51t-28.5 -37.5q-22 -20 -54.5 -30.5t-73.5 -10.5q-121 0 -160 89zM192 706h127l-80 -139h-112z" />
    <glyph glyph-name="Ccircumflex" unicode="&#x108;" horiz-adv-x="455" 
d="M117.5 16q-47.5 28 -72.5 84q-10 22 -15 48.5t-7 72t-2 132.5q0 85 2 131.5t7 73t15 49.5q24 55 71.5 83t118.5 28q88 0 140 -48q34 -31 47.5 -75.5t13.5 -120.5h-145q0 37 -2 57t-5.5 29.5t-11.5 16.5t-17.5 10.5t-23.5 3.5q-20 0 -34 -9t-21 -26q-4 -10 -6 -25.5
t-3 -60.5t-1 -117t1 -117.5t3 -61t6 -25.5q15 -34 56 -34q26 0 42 15q7 5 10.5 14.5t5.5 29.5t2 57h146q-1 -73 -15 -119.5t-46 -75.5q-25 -23 -61 -35.5t-81 -12.5q-70 0 -117.5 28zM160 860h149l73 -115h-112l-35 56l-36 -56h-111z" />
    <glyph glyph-name="ccircumflex" unicode="&#x109;" horiz-adv-x="387" 
d="M35 80q-8 17 -11.5 35.5t-5 51t-1.5 94.5t1.5 94.5t5 51.5t11.5 36q20 44 60 66t100 22q86 0 128 -41q19 -17 28.5 -37t13.5 -48t5 -73h-138q0 26 -1.5 43.5t-4 24.5t-7.5 11q-8 8 -24 8q-26 0 -34 -21q-4 -9 -5 -31.5t-1 -105.5t1 -105.5t5 -31.5q11 -21 34 -21
q14 0 24 8q5 5 7.5 12.5t3.5 27.5t1 51h139q-1 -51 -5 -81.5t-13.5 -51t-28.5 -37.5q-22 -20 -54.5 -30.5t-73.5 -10.5q-121 0 -160 89zM125 706h141l75 -140h-110l-36 71l-36 -71h-110z" />
    <glyph glyph-name="Cdotaccent" unicode="&#x10a;" horiz-adv-x="455" 
d="M117.5 16q-47.5 28 -72.5 84q-10 22 -15 48.5t-7 72t-2 132.5q0 85 2 131.5t7 73t15 49.5q24 55 71.5 83t118.5 28q88 0 140 -48q34 -31 47.5 -75.5t13.5 -120.5h-145q0 37 -2 57t-5.5 29.5t-11.5 16.5t-17.5 10.5t-23.5 3.5q-20 0 -34 -9t-21 -26q-4 -10 -6 -25.5
t-3 -60.5t-1 -117t1 -117.5t3 -61t6 -25.5q15 -34 56 -34q26 0 42 15q7 5 10.5 14.5t5.5 29.5t2 57h146q-1 -73 -15 -119.5t-46 -75.5q-25 -23 -61 -35.5t-81 -12.5q-70 0 -117.5 28zM185.5 762q-19.5 18 -19.5 48t19.5 48t49.5 18t49 -18t19 -48t-19 -48t-49 -18t-49.5 18z
" />
    <glyph glyph-name="cdotaccent" unicode="&#x10b;" horiz-adv-x="387" 
d="M35 80q-8 17 -11.5 35.5t-5 51t-1.5 94.5t1.5 94.5t5 51.5t11.5 36q20 44 60 66t100 22q86 0 128 -41q19 -17 28.5 -37t13.5 -48t5 -73h-138q0 26 -1.5 43.5t-4 24.5t-7.5 11q-8 8 -24 8q-26 0 -34 -21q-4 -9 -5 -31.5t-1 -105.5t1 -105.5t5 -31.5q11 -21 34 -21
q14 0 24 8q5 5 7.5 12.5t3.5 27.5t1 51h139q-1 -51 -5 -81.5t-13.5 -51t-28.5 -37.5q-22 -20 -54.5 -30.5t-73.5 -10.5q-121 0 -160 89zM144 588q-20 19 -20 49q0 31 20 49.5t51 18.5t50.5 -18.5t19.5 -49.5q0 -30 -20 -49t-50 -19q-31 0 -51 19z" />
    <glyph glyph-name="Ccaron" unicode="&#x10c;" horiz-adv-x="455" 
d="M117.5 16q-47.5 28 -72.5 84q-10 22 -15 48.5t-7 72t-2 132.5q0 85 2 131.5t7 73t15 49.5q24 55 71.5 83t118.5 28q88 0 140 -48q34 -31 47.5 -75.5t13.5 -120.5h-145q0 37 -2 57t-5.5 29.5t-11.5 16.5t-17.5 10.5t-23.5 3.5q-20 0 -34 -9t-21 -26q-4 -10 -6 -25.5
t-3 -60.5t-1 -117t1 -117.5t3 -61t6 -25.5q15 -34 56 -34q26 0 42 15q7 5 10.5 14.5t5.5 29.5t2 57h146q-1 -73 -15 -119.5t-46 -75.5q-25 -23 -61 -35.5t-81 -12.5q-70 0 -117.5 28zM310 745h-149l-73 115h112l35 -57l36 57h111z" />
    <glyph glyph-name="ccaron" unicode="&#x10d;" horiz-adv-x="387" 
d="M35 80q-8 17 -11.5 35.5t-5 51t-1.5 94.5t1.5 94.5t5 51.5t11.5 36q20 44 60 66t100 22q86 0 128 -41q19 -17 28.5 -37t13.5 -48t5 -73h-138q0 26 -1.5 43.5t-4 24.5t-7.5 11q-8 8 -24 8q-26 0 -34 -21q-4 -9 -5 -31.5t-1 -105.5t1 -105.5t5 -31.5q11 -21 34 -21
q14 0 24 8q5 5 7.5 12.5t3.5 27.5t1 51h139q-1 -51 -5 -81.5t-13.5 -51t-28.5 -37.5q-22 -20 -54.5 -30.5t-73.5 -10.5q-121 0 -160 89zM265 566h-141l-75 140h110l36 -70l36 70h110z" />
    <glyph glyph-name="Dcaron" unicode="&#x10e;" horiz-adv-x="453" 
d="M29 706h190q71 0 119 -28t72 -80q10 -21 14.5 -44.5t6.5 -68.5t2 -132t-2 -132t-6.5 -68.5t-14.5 -44.5q-24 -52 -72 -80t-119 -28h-190v706zM203 122q30 0 47.5 9.5t26.5 29.5q4 9 6 23.5t3 57t1 109.5q0 69 -1 112.5t-3 58t-6 23.5q-9 20 -26.5 29.5t-47.5 9.5h-33
v-462h33zM289 745h-149l-73 115h112l35 -57l36 57h111z" />
    <glyph glyph-name="dcaron" unicode="&#x10f;" horiz-adv-x="500" 
d="M376 706v-706h-130v44q-37 -53 -103 -53q-40 0 -67 17.5t-41 49.5q-7 16 -11 35.5t-5.5 57.5t-1.5 110q0 73 1.5 110.5t5 57t11.5 36.5q14 31 41 48.5t67 17.5q63 0 100 -48v223h133zM244 358q0 61 -45 61q-28 0 -38 -22q-3 -9 -4.5 -35t-1.5 -101q0 -74 1.5 -100
t4.5 -35q11 -23 38 -23q45 0 45 61v194zM408 706h98l-29 -154h-84z" />
    <glyph glyph-name="Dcroat" unicode="&#x110;" horiz-adv-x="460" 
d="M430.5 553.5q4.5 -23.5 6.5 -68.5t2 -132t-2 -132t-6.5 -68.5t-14.5 -44.5q-24 -52 -72 -80t-119 -28h-190v316h-37v108h37v282h190q71 0 119 -28t72 -80q10 -21 14.5 -44.5zM289 184.5q2 14.5 3 57t1 109.5q0 69 -1 112.5t-3 58t-6 23.5q-9 20 -26.5 29.5t-46.5 9.5h-34
v-160h66v-108h-66v-194h34q29 0 46.5 9.5t26.5 29.5q4 9 6 23.5z" />
    <glyph glyph-name="dcroat" unicode="&#x111;" horiz-adv-x="400" 
d="M401 572h-25v-572h-130v44q-37 -53 -103 -53q-40 0 -67 17.5t-41 49.5q-7 16 -11 35.5t-5.5 57.5t-1.5 110q0 73 1.5 110.5t5 57t11.5 36.5q14 31 41 48.5t67 17.5q63 0 100 -48v89h-131v83h131v51h133v-51h25v-83zM244 358q0 61 -45 61q-28 0 -38 -22q-3 -9 -4.5 -35
t-1.5 -101q0 -74 1.5 -100t4.5 -35q11 -23 38 -23q45 0 45 61v194z" />
    <glyph glyph-name="Emacron" unicode="&#x112;" horiz-adv-x="334" 
d="M29 706h287v-126h-146v-147h143v-123h-143v-185h146v-125h-287v706zM51 848h246v-87h-246v87z" />
    <glyph glyph-name="emacron" unicode="&#x113;" horiz-adv-x="390" 
d="M235.5 126q2.5 12 3.5 49h133q-1 -41 -5 -66.5t-13.5 -43.5t-26.5 -33q-45 -41 -129 -41q-123 0 -164 89q-7 17 -10.5 36t-5 52t-1.5 94q0 62 1.5 94.5t5 50.5t10.5 35q41 89 160 89q120 0 161 -89q9 -19 12.5 -40t4.5 -64t1 -105h-223q0 -64 1 -83.5t5 -28.5
q5 -12 14.5 -17.5t25.5 -5.5q21 0 31 10q6 6 8.5 18zM156 404q-3 -9 -4.5 -27t-1.5 -57h90q-1 46 -2 60.5t-4 23.5q-5 11 -14.5 16.5t-24.5 5.5q-29 0 -39 -22zM80 676h231v-91h-231v91z" />
    <glyph glyph-name="Ebreve" unicode="&#x114;" horiz-adv-x="334" 
d="M29 706h287v-126h-146v-147h143v-123h-143v-185h146v-125h-287v706zM38 860h92q1 -25 12 -36.5t33 -11.5t32.5 11t13.5 37h89q-3 -121 -135 -121q-134 0 -137 121z" />
    <glyph glyph-name="ebreve" unicode="&#x115;" horiz-adv-x="390" 
d="M235.5 126q2.5 12 3.5 49h133q-1 -41 -5 -66.5t-13.5 -43.5t-26.5 -33q-45 -41 -129 -41q-123 0 -164 89q-7 17 -10.5 36t-5 52t-1.5 94q0 62 1.5 94.5t5 50.5t10.5 35q41 89 160 89q120 0 161 -89q9 -19 12.5 -40t4.5 -64t1 -105h-223q0 -64 1 -83.5t5 -28.5
q5 -12 14.5 -17.5t25.5 -5.5q21 0 31 10q6 6 8.5 18zM156 404q-3 -9 -4.5 -27t-1.5 -57h90q-1 46 -2 60.5t-4 23.5q-5 11 -14.5 16.5t-24.5 5.5q-29 0 -39 -22zM92 596q-35 35 -36 110h92q2 -37 13 -52.5t35 -15.5t35 15.5t12 52.5h92q-1 -75 -36 -110t-103 -35
q-69 0 -104 35z" />
    <glyph glyph-name="Edotaccent" unicode="&#x116;" horiz-adv-x="334" 
d="M29 706h287v-126h-146v-147h143v-123h-143v-185h146v-125h-287v706zM124.5 762q-19.5 18 -19.5 48t19.5 48t49.5 18t49 -18t19 -48t-19 -48t-49 -18t-49.5 18z" />
    <glyph glyph-name="edotaccent" unicode="&#x117;" horiz-adv-x="390" 
d="M235.5 126q2.5 12 3.5 49h133q-1 -41 -5 -66.5t-13.5 -43.5t-26.5 -33q-45 -41 -129 -41q-123 0 -164 89q-7 17 -10.5 36t-5 52t-1.5 94q0 62 1.5 94.5t5 50.5t10.5 35q41 89 160 89q120 0 161 -89q9 -19 12.5 -40t4.5 -64t1 -105h-223q0 -64 1 -83.5t5 -28.5
q5 -12 14.5 -17.5t25.5 -5.5q21 0 31 10q6 6 8.5 18zM156 404q-3 -9 -4.5 -27t-1.5 -57h90q-1 46 -2 60.5t-4 23.5q-5 11 -14.5 16.5t-24.5 5.5q-29 0 -39 -22zM144 588q-20 19 -20 49q0 31 20 49.5t51 18.5t50.5 -18.5t19.5 -49.5q0 -30 -20 -49t-50 -19q-31 0 -51 19z" />
    <glyph glyph-name="Eogonek" unicode="&#x118;" horiz-adv-x="334" 
d="M317 -94v-76q-28 -11 -61 -11q-48 0 -76.5 21t-28.5 61q0 32 19.5 55.5t56.5 43.5h-198v706h287v-126h-146v-147h143v-123h-143v-185h146v-125q-31 -21 -46.5 -37.5t-15.5 -35.5q0 -14 8.5 -21t22.5 -7q18 0 32 7z" />
    <glyph glyph-name="eogonek" unicode="&#x119;" horiz-adv-x="390" 
d="M235.5 126q2.5 12 3.5 49h133q-1 -44 -6.5 -71.5t-18.5 -48t-37 -41.5q-33 -30 -46 -47t-13 -35q0 -16 8.5 -24.5t23.5 -8.5q17 0 32 7v-76q-30 -11 -62 -11q-48 0 -76.5 22.5t-28.5 64.5q0 49 47 85q-120 1 -161 89q-7 17 -10.5 36t-5 52t-1.5 94q0 62 1.5 94.5t5 50.5
t10.5 35q20 43 60 66t100 23t100.5 -22.5t60.5 -66.5q9 -19 12.5 -40t4.5 -64t1 -105h-223q0 -64 1 -83.5t5 -28.5q5 -12 15 -17.5t26 -5.5q20 0 30 10q6 6 8.5 18zM156 404q-3 -9 -4.5 -27t-1.5 -57h90q0 40 -1.5 58t-4.5 26q-5 11 -14.5 16.5t-24.5 5.5q-29 0 -39 -22z
" />
    <glyph glyph-name="Ecaron" unicode="&#x11a;" horiz-adv-x="334" 
d="M29 706h287v-126h-146v-147h143v-123h-143v-185h146v-125h-287v706zM249 745h-149l-73 115h112l35 -57l36 57h111z" />
    <glyph glyph-name="ecaron" unicode="&#x11b;" horiz-adv-x="390" 
d="M235.5 126q2.5 12 3.5 49h133q-1 -41 -5 -66.5t-13.5 -43.5t-26.5 -33q-45 -41 -129 -41q-123 0 -164 89q-7 17 -10.5 36t-5 52t-1.5 94q0 62 1.5 94.5t5 50.5t10.5 35q41 89 160 89q120 0 161 -89q9 -19 12.5 -40t4.5 -64t1 -105h-223q0 -64 1 -83.5t5 -28.5
q5 -12 14.5 -17.5t25.5 -5.5q21 0 31 10q6 6 8.5 18zM156 404q-3 -9 -4.5 -27t-1.5 -57h90q-1 46 -2 60.5t-4 23.5q-5 11 -14.5 16.5t-24.5 5.5q-29 0 -39 -22zM265 566h-141l-75 140h110l36 -70l36 70h110z" />
    <glyph glyph-name="Gcircumflex" unicode="&#x11c;" horiz-adv-x="459" 
d="M438 371v-52q0 -74 -2 -114.5t-7 -64.5t-15 -46q-23 -53 -68 -79.5t-112 -26.5q-70 0 -117.5 28.5t-72.5 83.5q-10 23 -14.5 49t-6.5 72t-2 132t2 132t6.5 72t14.5 49q25 55 72.5 83.5t117.5 28.5q89 0 142 -47q32 -30 45 -73t14 -118h-141q-1 50 -5 69.5t-14 28.5
q-16 14 -42 14q-42 0 -57 -35q-4 -10 -6 -25.5t-3 -61t-1 -117.5t1 -117.5t3 -61t6 -25.5q15 -35 60 -35q41 0 56 31q4 9 5 27.5t1 82.5h-65v116h205zM159 860h149l73 -115h-112l-35 56l-36 -56h-111z" />
    <glyph glyph-name="gcircumflex" unicode="&#x11d;" horiz-adv-x="401" 
d="M376 522v-499q0 -50 -3.5 -76.5t-13.5 -47.5q-19 -41 -58 -60.5t-103 -19.5q-90 0 -135 39q-21 19 -30 44.5t-11 64.5h133q1 -17 3.5 -25.5t7.5 -13.5q11 -9 34 -9q31 0 40 21q2 7 3 20.5t1 40.5v44q-35 -51 -103 -51q-77 0 -106 64q-8 17 -11.5 36t-5 56t-1.5 111
q0 77 1.5 113.5t5 55t11.5 35.5q14 32 41 49t65 17q69 0 106 -55v46h129zM244 164v196q0 59 -45 59q-29 0 -38 -22q-4 -10 -5 -34t-1 -101q0 -79 1 -103t5 -33q9 -23 38 -23q45 0 45 61zM129 706h141l75 -140h-110l-36 71l-36 -71h-110z" />
    <glyph glyph-name="Gbreve" unicode="&#x11e;" horiz-adv-x="459" 
d="M438 371v-52q0 -74 -2 -114.5t-7 -64.5t-15 -46q-23 -53 -68 -79.5t-112 -26.5q-70 0 -117.5 28.5t-72.5 83.5q-10 23 -14.5 49t-6.5 72t-2 132t2 132t6.5 72t14.5 49q25 55 72.5 83.5t117.5 28.5q89 0 142 -47q32 -30 45 -73t14 -118h-141q-1 50 -5 69.5t-14 28.5
q-16 14 -42 14q-42 0 -57 -35q-4 -10 -6 -25.5t-3 -61t-1 -117.5t1 -117.5t3 -61t6 -25.5q15 -35 60 -35q41 0 56 31q4 9 5 27.5t1 82.5h-65v116h205zM98 860h92q1 -25 12 -36.5t33 -11.5t32.5 11t13.5 37h89q-3 -121 -135 -121q-134 0 -137 121z" />
    <glyph glyph-name="gbreve" unicode="&#x11f;" horiz-adv-x="401" 
d="M376 522v-499q0 -50 -3.5 -76.5t-13.5 -47.5q-19 -41 -58 -60.5t-103 -19.5q-90 0 -135 39q-21 19 -30 44.5t-11 64.5h133q1 -17 3.5 -25.5t7.5 -13.5q11 -9 34 -9q31 0 40 21q2 7 3 20.5t1 40.5v44q-35 -51 -103 -51q-77 0 -106 64q-8 17 -11.5 36t-5 56t-1.5 111
q0 77 1.5 113.5t5 55t11.5 35.5q14 32 41 49t65 17q69 0 106 -55v46h129zM244 164v196q0 59 -45 59q-29 0 -38 -22q-4 -10 -5 -34t-1 -101q0 -79 1 -103t5 -33q9 -23 38 -23q45 0 45 61zM96 596q-35 35 -36 110h92q2 -37 13 -52.5t35 -15.5t35 15.5t12 52.5h92
q-1 -75 -36 -110t-103 -35q-69 0 -104 35z" />
    <glyph glyph-name="Gdotaccent" unicode="&#x120;" horiz-adv-x="459" 
d="M438 371v-52q0 -74 -2 -114.5t-7 -64.5t-15 -46q-23 -53 -68 -79.5t-112 -26.5q-70 0 -117.5 28.5t-72.5 83.5q-10 23 -14.5 49t-6.5 72t-2 132t2 132t6.5 72t14.5 49q25 55 72.5 83.5t117.5 28.5q89 0 142 -47q32 -30 45 -73t14 -118h-141q-1 50 -5 69.5t-14 28.5
q-16 14 -42 14q-42 0 -57 -35q-4 -10 -6 -25.5t-3 -61t-1 -117.5t1 -117.5t3 -61t6 -25.5q15 -35 60 -35q41 0 56 31q4 9 5 27.5t1 82.5h-65v116h205zM184.5 762q-19.5 18 -19.5 48t19.5 48t49.5 18t49 -18t19 -48t-19 -48t-49 -18t-49.5 18z" />
    <glyph glyph-name="gdotaccent" unicode="&#x121;" horiz-adv-x="401" 
d="M376 522v-499q0 -50 -3.5 -76.5t-13.5 -47.5q-19 -41 -58 -60.5t-103 -19.5q-90 0 -135 39q-21 19 -30 44.5t-11 64.5h133q1 -17 3.5 -25.5t7.5 -13.5q11 -9 34 -9q31 0 40 21q2 7 3 20.5t1 40.5v44q-35 -51 -103 -51q-77 0 -106 64q-8 17 -11.5 36t-5 56t-1.5 111
q0 77 1.5 113.5t5 55t11.5 35.5q14 32 41 49t65 17q69 0 106 -55v46h129zM244 164v196q0 59 -45 59q-29 0 -38 -22q-4 -10 -5 -34t-1 -101q0 -79 1 -103t5 -33q9 -23 38 -23q45 0 45 61zM148 588q-20 19 -20 49q0 31 20 49.5t51 18.5t50.5 -18.5t19.5 -49.5q0 -30 -20 -49
t-50 -19q-31 0 -51 19z" />
    <glyph glyph-name="Gcommaaccent" unicode="&#x122;" horiz-adv-x="459" 
d="M438 371v-52q0 -74 -2 -114.5t-7 -64.5t-15 -46q-23 -53 -68 -79.5t-112 -26.5q-70 0 -117.5 28.5t-72.5 83.5q-10 23 -14.5 49t-6.5 72t-2 132t2 132t6.5 72t14.5 49q25 55 72.5 83.5t117.5 28.5q89 0 142 -47q32 -30 45 -73t14 -118h-141q-1 50 -5 69.5t-14 28.5
q-16 14 -42 14q-42 0 -57 -35q-4 -10 -6 -25.5t-3 -61t-1 -117.5t1 -117.5t3 -61t6 -25.5q15 -35 60 -35q41 0 56 31q4 9 5 27.5t1 82.5h-65v116h205zM167 -41h133l-35 -129h-123z" />
    <glyph glyph-name="gcommaaccent" unicode="&#x123;" horiz-adv-x="401" 
d="M376 522v-499q0 -50 -3.5 -76.5t-13.5 -47.5q-19 -41 -58 -60.5t-103 -19.5q-90 0 -135 39q-21 19 -30 44.5t-11 64.5h133q1 -17 3.5 -25.5t7.5 -13.5q11 -9 34 -9q31 0 40 21q2 7 3 20.5t1 40.5v44q-35 -51 -103 -51q-77 0 -106 64q-8 17 -11.5 36t-5 56t-1.5 111
q0 77 1.5 113.5t5 55t11.5 35.5q14 32 41 49t65 17q69 0 106 -55v46h129zM244 164v196q0 59 -45 59q-29 0 -38 -22q-4 -10 -5 -34t-1 -101q0 -79 1 -103t5 -33q9 -23 38 -23q45 0 45 61zM242 574h-133l36 130h122z" />
    <glyph glyph-name="Hcircumflex" unicode="&#x124;" horiz-adv-x="454" 
d="M29 706h141v-273h113v273h141v-706h-141v308h-113v-308h-141v706zM152 860h149l73 -115h-112l-35 56l-36 -56h-111z" />
    <glyph glyph-name="hcircumflex" unicode="&#x125;" horiz-adv-x="390" 
d="M340.5 499q27.5 -32 27.5 -93v-406h-133v371q0 25 -9 36.5t-28 11.5q-41 0 -41 -52v-367h-133v706h133v-230q39 55 104 55q52 0 79.5 -32zM121 860h149l73 -115h-112l-35 56l-36 -56h-111z" />
    <glyph glyph-name="Hbar" unicode="&#x126;" horiz-adv-x="454" 
d="M424 706v-706h-141v308h-113v-308h-141v706h141v-96h113v96h141zM283 433v93h-113v-93h113z" />
    <glyph glyph-name="hbar" unicode="&#x127;" horiz-adv-x="390" 
d="M340.5 499q27.5 -32 27.5 -93v-406h-133v371q0 25 -9 36.5t-28 11.5q-41 0 -41 -52v-367h-133v572h-23v83h23v51h133v-51h133v-83h-133v-96q39 55 104 55q52 0 79.5 -32z" />
    <glyph glyph-name="Itilde" unicode="&#x128;" horiz-adv-x="199" 
d="M29 706h141v-706h-141v706zM120.5 748q-11.5 5 -24.5 14q-3 2 -10 6.5t-12 7t-10 2.5q-10 0 -14.5 -8t-6.5 -25h-66q1 60 19.5 88t56.5 28q18 0 29.5 -5.5t24.5 -15.5q2 -1 8 -5.5t10.5 -6.5t9.5 -2q11 0 15.5 7.5t6.5 26.5h67q-1 -61 -19 -89t-56 -28q-17 0 -28.5 5z
" />
    <glyph glyph-name="itilde" unicode="&#x129;" horiz-adv-x="181" 
d="M24 522h133v-522h-133v522zM101.5 574q-11.5 9 -20.5 25q-6 9 -10 13.5t-9 4.5q-8 0 -11 -11t-3 -39h-65q1 51 6.5 81t19.5 45t40 15q21 0 32.5 -9.5t19.5 -24.5q6 -9 10 -13.5t9 -4.5q9 0 11.5 10.5t3.5 39.5h64q0 -51 -6 -81t-20 -45t-39 -15q-21 0 -32.5 9z" />
    <glyph glyph-name="Imacron" unicode="&#x12a;" horiz-adv-x="199" 
d="M29 706h141v-706h-141v706zM-3 847h204v-86h-204v86z" />
    <glyph glyph-name="imacron" unicode="&#x12b;" horiz-adv-x="181" 
d="M24 522h133v-522h-133v522zM-6 676h195v-91h-195v91z" />
    <glyph glyph-name="Ibreve" unicode="&#x12c;" horiz-adv-x="199" 
d="M29 706h141v-706h-141v706zM11 768.5q-30 29.5 -30 91.5h85q2 -27 9 -37.5t25 -10.5q17 0 24 11t8 37h86q0 -62 -29.5 -91.5t-88.5 -29.5t-89 29.5z" />
    <glyph glyph-name="ibreve" unicode="&#x12d;" horiz-adv-x="181" 
d="M24 522h133v-522h-133v522zM10.5 594.5q-25.5 34.5 -25.5 111.5h79q0 -27 3 -41.5t9 -20t16 -5.5t16 5.5t8.5 20t2.5 41.5h79q0 -76 -25 -111t-81 -35t-81.5 34.5z" />
    <glyph glyph-name="Iogonek" unicode="&#x12e;" horiz-adv-x="199" 
d="M172 -95v-75q-22 -11 -54 -11q-44 0 -70.5 20.5t-26.5 58.5q0 32 15.5 57t44.5 45h-52v706h141v-706q-24 -23 -35.5 -40t-11.5 -38q0 -11 6.5 -17t17.5 -6q13 0 25 6z" />
    <glyph glyph-name="iogonek" unicode="&#x12f;" horiz-adv-x="181" 
d="M40.5 588.5q-20.5 19.5 -20.5 50.5t20.5 49.5t51.5 18.5t51 -18.5t20 -49.5t-20.5 -50.5t-50.5 -19.5q-31 0 -51.5 19.5zM115.5 -95q6.5 -6 17.5 -6q14 0 26 6v-75q-23 -11 -55 -11q-44 0 -70 20.5t-26 58.5q0 33 15.5 57.5t44.5 44.5h-44v522h133v-522
q-25 -24 -36.5 -41t-11.5 -37q0 -11 6.5 -17z" />
    <glyph glyph-name="Idotaccent" unicode="&#x130;" horiz-adv-x="199" 
d="M29 706h141v-706h-141v706zM50.5 762q-19.5 18 -19.5 48t19.5 48t49.5 18t49 -18t19 -48t-19 -48t-49 -18t-49.5 18z" />
    <glyph glyph-name="dotlessi" unicode="&#x131;" horiz-adv-x="181" 
d="M24 522h133v-522h-133v522z" />
    <glyph glyph-name="IJ" unicode="&#x132;" horiz-adv-x="436" 
d="M29 706h141v-706h-141v706zM204 0v130l20 -1q25 0 35.5 12.5t10.5 43.5v521h141v-545q0 -84 -37 -123.5t-120 -39.5q-16 0 -50 2z" />
    <glyph glyph-name="ij" unicode="&#x133;" horiz-adv-x="367" 
d="M40.5 588.5q-20.5 19.5 -20.5 50.5t20.5 49.5t51.5 18.5t51 -18.5t20 -49.5t-20.5 -50.5t-50.5 -19.5q-31 0 -51.5 19.5zM24 522h133v-522h-133v522zM224.5 588.5q-20.5 19.5 -20.5 50.5t20.5 49.5t52.5 18.5q31 0 50.5 -18.5t19.5 -49.5t-20 -50.5t-50 -19.5
q-32 0 -52.5 19.5zM157 -170v116q8 -1 19 -1q19 0 27 9.5t8 30.5v537h132v-562q0 -70 -33 -101t-103 -31q-34 0 -50 2z" />
    <glyph glyph-name="Jcircumflex" unicode="&#x134;" horiz-adv-x="237" 
d="M5 0v130l20 -1q25 0 35.5 12.5t10.5 43.5v521h141v-545q0 -84 -37 -123.5t-120 -39.5q-16 0 -50 2zM70 860h145l64 -115h-108l-27 54l-29 -54h-108z" />
    <glyph glyph-name="jcircumflex" unicode="&#x135;" horiz-adv-x="186" 
d="M-24 -170v116q8 -1 19 -1q19 0 27 9.5t8 30.5v537h132v-562q0 -70 -33 -101t-103 -31q-34 0 -50 2zM33 706h124l48 -140h-84l-26 74l-27 -74h-84z" />
    <glyph glyph-name="Kcommaaccent" unicode="&#x136;" horiz-adv-x="448" 
d="M295 0l-125 323v-323h-141v706h141v-266l106 266h152l-135 -321l156 -385h-154zM159 -41h133l-35 -129h-123z" />
    <glyph glyph-name="kcommaaccent" unicode="&#x137;" horiz-adv-x="391" 
d="M243 0l-86 227v-227h-133v706h133v-367l75 183h152l-106 -238l119 -284h-154zM130 -41h133l-35 -129h-123z" />
    <glyph glyph-name="kgreenlandic" unicode="&#x138;" horiz-adv-x="391" 
d="M243 0l-86 227v-227h-133v522h133v-183l75 183h152l-106 -238l119 -284h-154z" />
    <glyph glyph-name="Lacute" unicode="&#x139;" horiz-adv-x="275" 
d="M29 706h141v-578h100v-128h-241v706zM109 860h133l-88 -115h-118z" />
    <glyph glyph-name="lacute" unicode="&#x13a;" horiz-adv-x="181" 
d="M24 706h133v-706h-133v706zM94 860h133l-88 -115h-118z" />
    <glyph glyph-name="Lcommaaccent" unicode="&#x13b;" horiz-adv-x="275" 
d="M29 706h141v-578h100v-128h-241v706zM83 -41h133l-35 -129h-123z" />
    <glyph glyph-name="lcommaaccent" unicode="&#x13c;" horiz-adv-x="181" 
d="M24 706h133v-706h-133v706zM24 -41h133l-35 -129h-123z" />
    <glyph glyph-name="Lcaron" unicode="&#x13d;" horiz-adv-x="302" 
d="M29 706h141v-578h100v-128h-241v706zM207 706h98l-29 -154h-84z" />
    <glyph glyph-name="lcaron" unicode="&#x13e;" horiz-adv-x="280" 
d="M24 706h133v-706h-133v706zM188 706h98l-29 -154h-84z" />
    <glyph glyph-name="Ldot" unicode="&#x13f;" horiz-adv-x="368" 
d="M29 706h141v-578h100v-128h-241v706zM228.5 344.5q-21.5 20.5 -21.5 54.5q0 35 21.5 55.5t55.5 20.5t55 -20.5t21 -55.5q0 -34 -21 -54.5t-55 -20.5t-55.5 20.5z" />
    <glyph glyph-name="ldot" unicode="&#x140;" horiz-adv-x="348" 
d="M24 706h133v-706h-133v706zM209.5 314.5q-21.5 20.5 -21.5 54.5q0 35 21.5 55.5t55.5 20.5t55 -20.5t21 -55.5q0 -34 -21 -54.5t-55 -20.5t-55.5 20.5z" />
    <glyph glyph-name="Lslash" unicode="&#x141;" horiz-adv-x="282" 
d="M276 128v-128h-241v287l-36 -24v120l36 24v299h141v-226l79 54v-121l-79 -54v-231h100z" />
    <glyph glyph-name="lslash" unicode="&#x142;" horiz-adv-x="215" 
d="M214 390l-45 -33v-357h-132v283l-37 -26v107l37 27v315h132v-241l45 32v-107z" />
    <glyph glyph-name="Nacute" unicode="&#x143;" horiz-adv-x="482" 
d="M29 706h132l155 -384v384h137v-706h-129l-159 393v-393h-136v706zM243 860h133l-88 -115h-118z" />
    <glyph glyph-name="nacute" unicode="&#x144;" horiz-adv-x="390" 
d="M340.5 499.5q27.5 -31.5 27.5 -93.5v-406h-133v371q0 25 -9 36.5t-28 11.5q-41 0 -41 -52v-367h-133v522h133v-45q19 27 44.5 40.5t59.5 13.5q52 0 79.5 -31.5zM196 706h127l-80 -139h-112z" />
    <glyph glyph-name="Ncommaaccent" unicode="&#x145;" horiz-adv-x="482" 
d="M29 706h132l155 -384v384h137v-706h-129l-159 393v-393h-136v706zM180 -41h133l-35 -129h-123z" />
    <glyph glyph-name="ncommaaccent" unicode="&#x146;" horiz-adv-x="390" 
d="M340.5 499.5q27.5 -31.5 27.5 -93.5v-406h-133v371q0 25 -9 36.5t-28 11.5q-41 0 -41 -52v-367h-133v522h133v-45q19 27 44.5 40.5t59.5 13.5q52 0 79.5 -31.5zM130 -41h133l-35 -129h-123z" />
    <glyph glyph-name="Ncaron" unicode="&#x147;" horiz-adv-x="482" 
d="M29 706h132l155 -384v384h137v-706h-129l-159 393v-393h-136v706zM315 745h-149l-73 115h112l35 -57l36 57h111z" />
    <glyph glyph-name="ncaron" unicode="&#x148;" horiz-adv-x="390" 
d="M340.5 499.5q27.5 -31.5 27.5 -93.5v-406h-133v371q0 25 -9 36.5t-28 11.5q-41 0 -41 -52v-367h-133v522h133v-45q19 27 44.5 40.5t59.5 13.5q52 0 79.5 -31.5zM269 566h-141l-75 140h110l36 -70l36 70h110z" />
    <glyph glyph-name="napostrophe" unicode="&#x149;" horiz-adv-x="544" 
d="M59 706h130l-75 -261h-99zM494.5 499.5q27.5 -31.5 27.5 -93.5v-406h-133v371q0 25 -9 36.5t-28 11.5q-41 0 -41 -52v-367h-133v522h133v-45q19 27 44.5 40.5t59.5 13.5q52 0 79.5 -31.5z" />
    <glyph glyph-name="Eng" unicode="&#x14a;" horiz-adv-x="482" 
d="M453 706v-748q0 -69 -33.5 -99.5t-103.5 -30.5q-36 0 -53 2v114l19 -1q18 0 26.5 10.5t8.5 32.5v43l-152 370v-399h-136v706h132l155 -379v379h137z" />
    <glyph glyph-name="eng" unicode="&#x14b;" horiz-adv-x="390" 
d="M340.5 499.5q27.5 -31.5 27.5 -93.5v-447q0 -69 -33 -100t-103 -31q-34 0 -51 2v116q9 -1 20 -1q19 0 26.5 9t7.5 30v387q0 26 -8.5 37t-28.5 11q-41 0 -41 -52v-367h-133v522h133v-45q39 54 103 54q53 0 80.5 -31.5z" />
    <glyph glyph-name="Omacron" unicode="&#x14c;" horiz-adv-x="468" 
d="M121.5 13q-46.5 26 -71.5 77q-12 24 -18 52t-8.5 76.5t-2.5 134.5q0 85 2 131.5t7 73.5t15 50q24 54 72 82.5t117 28.5q70 0 117.5 -28t71.5 -83q10 -23 15.5 -50t7.5 -73.5t2 -131.5t-2 -131.5t-7.5 -73.5t-15.5 -50q-24 -55 -71.5 -83t-117.5 -28q-66 0 -112.5 26z
M271 125.5q14 9.5 22 27.5q4 10 6 25.5t3 59.5t1 115t-1 115.5t-3 59.5t-6 25q-8 18 -22 27.5t-37 9.5q-44 0 -59 -37q-4 -10 -5.5 -25.5t-2.5 -59.5t-1 -115t1 -115.5t3 -59.5t6 -25q15 -37 58 -37q23 0 37 9.5zM111 848h246v-87h-246v87z" />
    <glyph glyph-name="omacron" unicode="&#x14d;" horiz-adv-x="393" 
d="M95.5 14q-40.5 23 -60.5 66q-8 17 -11.5 36t-5 51t-1.5 94t1.5 94t5 51t11.5 36q20 43 60.5 66t101.5 23t101.5 -23t60.5 -66q7 -18 11 -36.5t5.5 -51.5t1.5 -93t-1.5 -93t-5.5 -51.5t-11 -35.5q-20 -44 -60.5 -67t-101.5 -23t-101.5 23zM233 125q4 10 5.5 34t1.5 102
t-1.5 102.5t-5.5 34.5q-5 11 -13.5 16t-22.5 5q-15 0 -23.5 -5t-13.5 -16q-4 -9 -5 -32.5t-1 -104.5t1 -104t5 -32q9 -22 37 -22q27 0 36 22zM81 676h231v-91h-231v91z" />
    <glyph glyph-name="Obreve" unicode="&#x14e;" horiz-adv-x="468" 
d="M121.5 13q-46.5 26 -71.5 77q-12 24 -18 52t-8.5 76.5t-2.5 134.5q0 85 2 131.5t7 73.5t15 50q24 54 72 82.5t117 28.5q70 0 117.5 -28t71.5 -83q10 -23 15.5 -50t7.5 -73.5t2 -131.5t-2 -131.5t-7.5 -73.5t-15.5 -50q-24 -55 -71.5 -83t-117.5 -28q-66 0 -112.5 26z
M271 125.5q14 9.5 22 27.5q4 10 6 25.5t3 59.5t1 115t-1 115.5t-3 59.5t-6 25q-8 18 -22 27.5t-37 9.5q-44 0 -59 -37q-4 -10 -5.5 -25.5t-2.5 -59.5t-1 -115t1 -115.5t3 -59.5t6 -25q15 -37 58 -37q23 0 37 9.5zM98 860h92q1 -25 12 -36.5t33 -11.5t32.5 11t13.5 37h89
q-3 -121 -135 -121q-134 0 -137 121z" />
    <glyph glyph-name="obreve" unicode="&#x14f;" horiz-adv-x="393" 
d="M95.5 14q-40.5 23 -60.5 66q-8 17 -11.5 36t-5 51t-1.5 94t1.5 94t5 51t11.5 36q20 43 60.5 66t101.5 23t101.5 -23t60.5 -66q7 -18 11 -36.5t5.5 -51.5t1.5 -93t-1.5 -93t-5.5 -51.5t-11 -35.5q-20 -44 -60.5 -67t-101.5 -23t-101.5 23zM233 125q4 10 5.5 34t1.5 102
t-1.5 102.5t-5.5 34.5q-5 11 -13.5 16t-22.5 5q-15 0 -23.5 -5t-13.5 -16q-4 -9 -5 -32.5t-1 -104.5t1 -104t5 -32q9 -22 37 -22q27 0 36 22zM94 596q-35 35 -36 110h92q2 -37 13 -52.5t35 -15.5t35 15.5t12 52.5h92q-1 -75 -36 -110t-103 -35q-69 0 -104 35z" />
    <glyph glyph-name="Ohungarumlaut" unicode="&#x150;" horiz-adv-x="468" 
d="M121.5 13q-46.5 26 -71.5 77q-12 24 -18 52t-8.5 76.5t-2.5 134.5q0 85 2 131.5t7 73.5t15 50q24 54 72 82.5t117 28.5q70 0 117.5 -28t71.5 -83q10 -23 15.5 -50t7.5 -73.5t2 -131.5t-2 -131.5t-7.5 -73.5t-15.5 -50q-24 -55 -71.5 -83t-117.5 -28q-66 0 -112.5 26z
M271 125.5q14 9.5 22 27.5q4 10 6 25.5t3 59.5t1 115t-1 115.5t-3 59.5t-6 25q-8 18 -22 27.5t-37 9.5q-44 0 -59 -37q-4 -10 -5.5 -25.5t-2.5 -59.5t-1 -115t1 -115.5t3 -59.5t6 -25q15 -37 58 -37q23 0 37 9.5zM175 860h110l-81 -115h-91zM317 860h112l-82 -115h-92z" />
    <glyph glyph-name="ohungarumlaut" unicode="&#x151;" horiz-adv-x="393" 
d="M95.5 14q-40.5 23 -60.5 66q-8 17 -11.5 36t-5 51t-1.5 94t1.5 94t5 51t11.5 36q20 43 60.5 66t101.5 23t101.5 -23t60.5 -66q7 -18 11 -36.5t5.5 -51.5t1.5 -93t-1.5 -93t-5.5 -51.5t-11 -35.5q-20 -44 -60.5 -67t-101.5 -23t-101.5 23zM233 125q4 10 5.5 34t1.5 102
t-1.5 102.5t-5.5 34.5q-5 11 -13.5 16t-22.5 5q-15 0 -23.5 -5t-13.5 -16q-4 -9 -5 -32.5t-1 -104.5t1 -104t5 -32q9 -22 37 -22q27 0 36 22zM140 706h107l-82 -139h-87zM278 706h106l-81 -139h-87z" />
    <glyph glyph-name="OE" unicode="&#x152;" horiz-adv-x="603" 
d="M440 581v-148h143v-123h-143v-185h146v-125h-293q-25 -7 -60 -7q-69 0 -116.5 27t-71.5 78q-10 23 -15 48t-7 72.5t-2 134.5t2 134.5t7 72.5t15 48q24 51 71.5 78t116.5 27q35 0 60 -7h293v-125h-146zM197.5 125q13.5 -9 35.5 -9q43 0 58 37q4 10 5.5 25.5t2.5 59.5
t1 115t-0.5 116t-2.5 59.5t-6 24.5q-15 37 -58 37t-58 -37q-4 -10 -5.5 -25t-2.5 -59.5t-1 -115.5t1 -115.5t3 -59.5t6 -25q8 -19 21.5 -28z" />
    <glyph glyph-name="oe" unicode="&#x153;" horiz-adv-x="598" 
d="M441.5 118.5q1.5 5.5 2.5 20t1 36.5h135q-1 -58 -10 -88t-32 -52q-44 -44 -128 -44q-69 0 -109 31q-40 -31 -108 -31q-118 0 -158 89q-8 17 -11.5 35.5t-5 51t-1.5 94.5t1.5 94.5t5 51.5t11.5 36q39 88 158 88q68 0 107 -30q38 30 105 30q117 0 158 -88q8 -18 12 -39.5
t5 -59t1 -111.5h-215q0 -64 1 -84t5 -29q9 -22 36 -22q19 0 28 11q4 4 5.5 9.5zM372 406q-3 -9 -4.5 -27t-1.5 -59h81q0 39 -1.5 58.5t-4.5 27.5q-10 21 -34 21q-25 0 -35 -21zM229.5 141q1.5 11 2 41.5t0.5 78.5q0 82 -1 105.5t-6 33.5q-8 19 -32 19t-33 -20
q-4 -9 -5 -32.5t-1 -105.5q0 -81 1 -104.5t5 -33.5q9 -20 33 -20t32 20q3 7 4.5 18z" />
    <glyph glyph-name="Racute" unicode="&#x154;" horiz-adv-x="422" 
d="M381.5 330q12.5 -26 12.5 -67v-263h-141v259q0 26 -11 37t-37 11h-35v-307h-141v706h213q57 0 92.5 -16t51.5 -51q8 -18 11 -42t3 -79q0 -50 -2.5 -69.5t-8.5 -34.5q-15 -33 -51 -46q31 -12 43.5 -38zM255 464.5q1 15.5 1 47.5q0 27 -1 39.5t-4 19.5q-6 12 -17.5 17
t-29.5 5h-34v-173h35q18 0 29 5t17 17q3 7 4 22.5zM207 860h133l-88 -115h-118z" />
    <glyph glyph-name="racute" unicode="&#x155;" horiz-adv-x="267" 
d="M258 522v-125q-5 2 -20 2q-39 0 -60 -27.5t-21 -78.5v-293h-133v522h130v-51q13 26 34.5 40t48.5 14q12 0 21 -3zM141 706h127l-80 -139h-112z" />
    <glyph glyph-name="Rcommaaccent" unicode="&#x156;" horiz-adv-x="422" 
d="M381.5 330q12.5 -26 12.5 -67v-263h-141v259q0 26 -11 37t-37 11h-35v-307h-141v706h213q57 0 92.5 -16t51.5 -51q8 -18 11 -42t3 -79q0 -50 -2.5 -69.5t-8.5 -34.5q-15 -33 -51 -46q31 -12 43.5 -38zM255 464.5q1 15.5 1 47.5q0 27 -1 39.5t-4 19.5q-6 12 -17.5 17
t-29.5 5h-34v-173h35q18 0 29 5t17 17q3 7 4 22.5zM155 -41h133l-35 -129h-123z" />
    <glyph glyph-name="rcommaaccent" unicode="&#x157;" horiz-adv-x="267" 
d="M258 522v-125q-5 2 -20 2q-39 0 -60 -27.5t-21 -78.5v-293h-133v522h130v-51q13 26 34.5 40t48.5 14q12 0 21 -3zM24 -41h133l-35 -129h-123z" />
    <glyph glyph-name="Rcaron" unicode="&#x158;" horiz-adv-x="422" 
d="M381.5 330q12.5 -26 12.5 -67v-263h-141v259q0 26 -11 37t-37 11h-35v-307h-141v706h213q57 0 92.5 -16t51.5 -51q8 -18 11 -42t3 -79q0 -50 -2.5 -69.5t-8.5 -34.5q-15 -33 -51 -46q31 -12 43.5 -38zM255 464.5q1 15.5 1 47.5q0 27 -1 39.5t-4 19.5q-6 12 -17.5 17
t-29.5 5h-34v-173h35q18 0 29 5t17 17q3 7 4 22.5zM279 745h-149l-73 115h112l35 -57l36 57h111z" />
    <glyph glyph-name="rcaron" unicode="&#x159;" horiz-adv-x="267" 
d="M258 522v-125q-5 2 -20 2q-39 0 -60 -27.5t-21 -78.5v-293h-133v522h130v-51q13 26 34.5 40t48.5 14q12 0 21 -3zM214 566h-141l-75 140h110l36 -70l36 70h110z" />
    <glyph glyph-name="Sacute" unicode="&#x15a;" horiz-adv-x="412" 
d="M90.5 10q-44.5 23 -63.5 65q-6 15 -9.5 28.5t-4.5 42t-1 69.5h149q0 -41 1 -59.5t4 -26.5q10 -24 41 -24q15 0 25 5.5t15 16.5q3 6 3.5 18.5t0.5 38.5q0 28 -1.5 40t-5.5 23q-6 12 -17 21t-27.5 17t-34.5 16l-19 8q-43 22 -70.5 44t-40.5 51q-9 21 -12.5 47t-3.5 74
q0 43 3 64.5t13 42.5q19 42 61.5 64.5t107.5 22.5q63 0 105.5 -21t61.5 -63q7 -15 10 -28.5t4 -41t1 -68.5h-143q0 40 -1 58.5t-4 26.5q-9 21 -37 21q-14 0 -23.5 -5.5t-13.5 -15.5q-2 -6 -2.5 -16.5t-0.5 -32.5q0 -26 1.5 -37.5t5.5 -21.5q7 -15 23 -24.5t50 -23.5l20 -9
q50 -23 79.5 -44.5t42.5 -52.5q10 -22 13 -47t3 -80q0 -50 -3 -72.5t-12 -43.5q-20 -44 -66 -67t-114 -23q-69 0 -113.5 23zM190 860h133l-88 -115h-118z" />
    <glyph glyph-name="sacute" unicode="&#x15b;" horiz-adv-x="355" 
d="M81 7.5q-37 17.5 -55 55.5q-8 19 -10.5 41t-2.5 69h131q0 -30 0.5 -44.5t3.5 -19.5q8 -17 29 -17t27 15q2 4 2.5 10t0.5 18q0 16 -1 25.5t-4 17.5q-6 13 -19.5 21.5t-43.5 22.5q-42 19 -68 37.5t-39 47.5q-6 15 -9 33t-3 48q0 25 2.5 41t8.5 29q16 36 53 54.5t93 18.5
q114 0 145 -69q7 -16 9.5 -35t2.5 -59h-129q0 22 -0.5 32.5t-2.5 16.5q-8 16 -26 16q-10 0 -16.5 -3.5t-8.5 -10.5q-1 -4 -1.5 -9t-0.5 -13q0 -24 4 -33q6 -14 20.5 -23t48.5 -25q32 -15 50.5 -25t34 -24.5t23.5 -33.5q7 -14 9.5 -33t2.5 -55q0 -30 -3 -47.5t-10 -33.5
q-33 -74 -153 -74q-58 0 -95 17.5zM176 706h127l-80 -139h-112z" />
    <glyph glyph-name="Scircumflex" unicode="&#x15c;" horiz-adv-x="412" 
d="M90.5 10q-44.5 23 -63.5 65q-6 15 -9.5 28.5t-4.5 42t-1 69.5h149q0 -41 1 -59.5t4 -26.5q10 -24 41 -24q15 0 25 5.5t15 16.5q3 6 3.5 18.5t0.5 38.5q0 28 -1.5 40t-5.5 23q-6 12 -17 21t-27.5 17t-34.5 16l-19 8q-43 22 -70.5 44t-40.5 51q-9 21 -12.5 47t-3.5 74
q0 43 3 64.5t13 42.5q19 42 61.5 64.5t107.5 22.5q63 0 105.5 -21t61.5 -63q7 -15 10 -28.5t4 -41t1 -68.5h-143q0 40 -1 58.5t-4 26.5q-9 21 -37 21q-14 0 -23.5 -5.5t-13.5 -15.5q-2 -6 -2.5 -16.5t-0.5 -32.5q0 -26 1.5 -37.5t5.5 -21.5q7 -15 23 -24.5t50 -23.5l20 -9
q50 -23 79.5 -44.5t42.5 -52.5q10 -22 13 -47t3 -80q0 -50 -3 -72.5t-12 -43.5q-20 -44 -66 -67t-114 -23q-69 0 -113.5 23zM129 860h149l73 -115h-112l-35 56l-36 -56h-111z" />
    <glyph glyph-name="scircumflex" unicode="&#x15d;" horiz-adv-x="355" 
d="M81 7.5q-37 17.5 -55 55.5q-8 19 -10.5 41t-2.5 69h131q0 -30 0.5 -44.5t3.5 -19.5q8 -17 29 -17t27 15q2 4 2.5 10t0.5 18q0 16 -1 25.5t-4 17.5q-6 13 -19.5 21.5t-43.5 22.5q-42 19 -68 37.5t-39 47.5q-6 15 -9 33t-3 48q0 25 2.5 41t8.5 29q16 36 53 54.5t93 18.5
q114 0 145 -69q7 -16 9.5 -35t2.5 -59h-129q0 22 -0.5 32.5t-2.5 16.5q-8 16 -26 16q-10 0 -16.5 -3.5t-8.5 -10.5q-1 -4 -1.5 -9t-0.5 -13q0 -24 4 -33q6 -14 20.5 -23t48.5 -25q32 -15 50.5 -25t34 -24.5t23.5 -33.5q7 -14 9.5 -33t2.5 -55q0 -30 -3 -47.5t-10 -33.5
q-33 -74 -153 -74q-58 0 -95 17.5zM109 706h141l75 -140h-110l-36 71l-36 -71h-110z" />
    <glyph glyph-name="Scedilla" unicode="&#x15e;" horiz-adv-x="412" 
d="M396 273q3 -25 3 -80q0 -50 -3 -72.5t-12 -43.5q-17 -38 -53 -60t-88 -28l-3 -13q37 -1 58.5 -20.5t21.5 -53.5q0 -45 -32.5 -65t-88.5 -20q-40 0 -79 12l14 62q28 -10 55 -10q21 0 31.5 5.5t10.5 18.5t-12 18.5t-39 5.5h-38l14 61q-49 7 -81.5 29t-47.5 56
q-6 15 -9.5 28.5t-4.5 42t-1 69.5h149q0 -41 1 -59.5t4 -26.5q10 -24 41 -24q15 0 25 5.5t15 16.5q3 6 3.5 18.5t0.5 38.5q0 28 -1.5 40t-5.5 23q-6 12 -17 21t-27.5 17t-34.5 16l-19 8q-43 22 -70.5 44t-40.5 51q-9 21 -12.5 47t-3.5 74q0 43 3 64.5t13 42.5
q19 42 61.5 64.5t107.5 22.5q63 0 105.5 -21t61.5 -63q7 -15 10 -28.5t4 -41t1 -68.5h-143q0 40 -1 58.5t-4 26.5q-9 21 -37 21q-14 0 -23.5 -5.5t-13.5 -15.5q-2 -6 -2.5 -16.5t-0.5 -32.5q0 -26 1.5 -37.5t5.5 -21.5q7 -15 23 -24.5t50 -23.5l20 -9q50 -23 79.5 -44.5
t42.5 -52.5q10 -22 13 -47z" />
    <glyph glyph-name="scedilla" unicode="&#x15f;" horiz-adv-x="355" 
d="M339.5 200q2.5 -19 2.5 -55q0 -30 -3 -47.5t-10 -33.5q-28 -60 -111 -71l-4 -17q38 -1 59.5 -20.5t21.5 -53.5q0 -45 -33 -65t-89 -20q-40 0 -79 12l14 62q28 -10 55 -10q42 0 42 24q0 13 -12 19t-38 6h-39l14 63q-39 6 -64.5 23t-39.5 47q-8 19 -10.5 41t-2.5 69h131
q0 -30 0.5 -44.5t3.5 -19.5q8 -17 29 -17t27 15q2 4 2.5 10t0.5 18q0 16 -1 25.5t-4 17.5q-6 13 -19.5 21.5t-43.5 22.5q-42 19 -68 37.5t-39 47.5q-6 15 -9 33t-3 48q0 25 2.5 41t8.5 29q16 36 53 54.5t93 18.5q114 0 145 -69q7 -16 9.5 -35t2.5 -59h-129q0 22 -0.5 32.5
t-2.5 16.5q-8 16 -26 16q-10 0 -16.5 -3.5t-8.5 -10.5q-1 -4 -1.5 -9t-0.5 -13q0 -24 4 -33q6 -14 20.5 -23t48.5 -25q32 -15 50.5 -25t34 -24.5t23.5 -33.5q7 -14 9.5 -33z" />
    <glyph glyph-name="Scaron" unicode="&#x160;" horiz-adv-x="412" 
d="M90.5 10q-44.5 23 -63.5 65q-6 15 -9.5 28.5t-4.5 42t-1 69.5h149q0 -41 1 -59.5t4 -26.5q10 -24 41 -24q15 0 25 5.5t15 16.5q3 6 3.5 18.5t0.5 38.5q0 28 -1.5 40t-5.5 23q-6 12 -17 21t-27.5 17t-34.5 16l-19 8q-43 22 -70.5 44t-40.5 51q-9 21 -12.5 47t-3.5 74
q0 43 3 64.5t13 42.5q19 42 61.5 64.5t107.5 22.5q63 0 105.5 -21t61.5 -63q7 -15 10 -28.5t4 -41t1 -68.5h-143q0 40 -1 58.5t-4 26.5q-9 21 -37 21q-14 0 -23.5 -5.5t-13.5 -15.5q-2 -6 -2.5 -16.5t-0.5 -32.5q0 -26 1.5 -37.5t5.5 -21.5q7 -15 23 -24.5t50 -23.5l20 -9
q50 -23 79.5 -44.5t42.5 -52.5q10 -22 13 -47t3 -80q0 -50 -3 -72.5t-12 -43.5q-20 -44 -66 -67t-114 -23q-69 0 -113.5 23zM278 745h-149l-73 115h112l35 -57l36 57h111z" />
    <glyph glyph-name="scaron" unicode="&#x161;" horiz-adv-x="355" 
d="M81 7.5q-37 17.5 -55 55.5q-8 19 -10.5 41t-2.5 69h131q0 -30 0.5 -44.5t3.5 -19.5q8 -17 29 -17t27 15q2 4 2.5 10t0.5 18q0 16 -1 25.5t-4 17.5q-6 13 -19.5 21.5t-43.5 22.5q-42 19 -68 37.5t-39 47.5q-6 15 -9 33t-3 48q0 25 2.5 41t8.5 29q16 36 53 54.5t93 18.5
q114 0 145 -69q7 -16 9.5 -35t2.5 -59h-129q0 22 -0.5 32.5t-2.5 16.5q-8 16 -26 16q-10 0 -16.5 -3.5t-8.5 -10.5q-1 -4 -1.5 -9t-0.5 -13q0 -24 4 -33q6 -14 20.5 -23t48.5 -25q32 -15 50.5 -25t34 -24.5t23.5 -33.5q7 -14 9.5 -33t2.5 -55q0 -30 -3 -47.5t-10 -33.5
q-33 -74 -153 -74q-58 0 -95 17.5zM249 566h-141l-75 140h110l36 -70l36 70h110z" />
    <glyph glyph-name="uni0162" unicode="&#x162;" horiz-adv-x="321" 
d="M202 0l-5 -23q38 -1 59 -20.5t21 -53.5q0 -45 -32.5 -65.5t-88.5 -20.5q-41 0 -79 13l14 61q26 -9 54 -9q21 0 32 5.5t11 18.5t-12 18.5t-39 5.5h-39l16 70h-24v581h-85v125h311v-125h-85v-581h-29z" />
    <glyph glyph-name="uni0163" unicode="&#x163;" horiz-adv-x="263" 
d="M257 -41.5q21 -19.5 21 -53.5q0 -45 -32.5 -65.5t-88.5 -20.5q-43 0 -79 13l14 61q25 -9 54 -9q21 0 32 5.5t11 18.5t-12 18.5t-39 5.5h-39l17 73q-33 11 -48 41t-15 85v272h-46v119h46v113h132v-113h65v-119h-65v-243q0 -29 9.5 -39.5t31.5 -10.5q19 0 29 2v-111
q-29 -5 -53 -6l-4 -16q38 -1 59 -20.5z" />
    <glyph glyph-name="Tcaron" unicode="&#x164;" horiz-adv-x="321" 
d="M90 581h-85v125h311v-125h-85v-581h-141v581zM236 745h-149l-73 115h112l35 -57l36 57h111z" />
    <glyph glyph-name="tcaron" unicode="&#x165;" horiz-adv-x="315" 
d="M110 7q-29 12 -43 41.5t-14 82.5v272h-46v119h46v113h132v-113h65v-119h-65v-243q0 -29 9.5 -39.5t31.5 -10.5q19 0 29 2v-111q-36 -6 -68 -6q-48 0 -77 12zM219 706h98l-29 -154h-84z" />
    <glyph glyph-name="Tbar" unicode="&#x166;" horiz-adv-x="321" 
d="M231 581v-146h65v-106h-65v-329h-141v329h-66v106h66v146h-85v125h311v-125h-85z" />
    <glyph glyph-name="tbar" unicode="&#x167;" horiz-adv-x="263" 
d="M255 112v-111q-36 -6 -68 -6q-48 0 -77 12t-43 41.5t-14 82.5v95h-46v91h46v86h-46v119h46v113h132v-113h65v-119h-65v-86h65v-91h-65v-66q0 -29 9.5 -39.5t31.5 -10.5q19 0 29 2z" />
    <glyph glyph-name="Utilde" unicode="&#x168;" horiz-adv-x="438" 
d="M69.5 32.5q-45.5 45.5 -45.5 141.5v532h142v-530q0 -31 12.5 -46.5t39.5 -15.5q29 0 42 15.5t13 46.5v530h141v-532q0 -96 -46.5 -141.5t-149.5 -45.5t-148.5 45.5zM244.5 747q-14.5 5 -29.5 15q-7 3 -13.5 7t-14 6.5t-13.5 2.5q-11 0 -16.5 -8.5t-7.5 -25.5h-76
q1 60 22 89t64 29q21 0 33 -5t32 -18q12 -7 20 -10t17 -3q11 0 17 8t9 26h76q-1 -59 -21 -88.5t-65 -29.5q-19 0 -33.5 5z" />
    <glyph glyph-name="utilde" unicode="&#x169;" horiz-adv-x="390" 
d="M366 522v-522h-133v45q-19 -27 -44.5 -40t-59.5 -13q-52 0 -79.5 31t-27.5 93v406h133v-371q0 -25 9 -36.5t28 -11.5q41 0 41 52v367h133zM216.5 572q-14.5 7 -30.5 20q-14 11 -22.5 16t-17.5 5q-13 0 -18 -10.5t-7 -35.5h-73q1 74 19 107.5t62 33.5q21 0 34.5 -7
t30.5 -21q14 -11 22.5 -16t17.5 -5q13 0 18 10.5t7 36.5h73q0 -73 -18.5 -107t-61.5 -34q-21 0 -35.5 7z" />
    <glyph glyph-name="Umacron" unicode="&#x16a;" horiz-adv-x="438" 
d="M69.5 32.5q-45.5 45.5 -45.5 141.5v532h142v-530q0 -31 12.5 -46.5t39.5 -15.5q29 0 42 15.5t13 46.5v530h141v-532q0 -96 -46.5 -141.5t-149.5 -45.5t-148.5 45.5zM96 848h246v-87h-246v87z" />
    <glyph glyph-name="umacron" unicode="&#x16b;" horiz-adv-x="390" 
d="M366 522v-522h-133v45q-19 -27 -44.5 -40t-59.5 -13q-52 0 -79.5 31t-27.5 93v406h133v-371q0 -25 9 -36.5t28 -11.5q41 0 41 52v367h133zM74 676h231v-91h-231v91z" />
    <glyph glyph-name="Ubreve" unicode="&#x16c;" horiz-adv-x="438" 
d="M69.5 32.5q-45.5 45.5 -45.5 141.5v532h142v-530q0 -31 12.5 -46.5t39.5 -15.5q29 0 42 15.5t13 46.5v530h141v-532q0 -96 -46.5 -141.5t-149.5 -45.5t-148.5 45.5zM83 860h92q1 -25 12 -36.5t33 -11.5t32.5 11t13.5 37h89q-3 -121 -135 -121q-134 0 -137 121z" />
    <glyph glyph-name="ubreve" unicode="&#x16d;" horiz-adv-x="390" 
d="M366 522v-522h-133v45q-19 -27 -44.5 -40t-59.5 -13q-52 0 -79.5 31t-27.5 93v406h133v-371q0 -25 9 -36.5t28 -11.5q41 0 41 52v367h133zM86 596q-35 35 -36 110h92q2 -37 13 -52.5t35 -15.5t35 15.5t12 52.5h92q-1 -75 -36 -110t-103 -35q-69 0 -104 35z" />
    <glyph glyph-name="Uring" unicode="&#x16e;" horiz-adv-x="438" 
d="M69.5 32.5q-45.5 45.5 -45.5 141.5v532h142v-530q0 -31 12.5 -46.5t39.5 -15.5q29 0 42 15.5t13 46.5v530h141v-532q0 -96 -46.5 -141.5t-149.5 -45.5t-148.5 45.5zM163.5 737q-24.5 12 -38.5 34.5t-14 51.5t14 51.5t38.5 34.5t55.5 12q32 0 56.5 -12t38 -34.5
t13.5 -51.5t-14 -51.5t-38.5 -34.5t-55.5 -12t-55.5 12zM246 797q10 10 10 26t-10.5 26t-26.5 10t-26 -10t-10 -26t9.5 -26t26.5 -10t27 10z" />
    <glyph glyph-name="uring" unicode="&#x16f;" horiz-adv-x="390" 
d="M366 522v-522h-133v45q-19 -27 -44.5 -40t-59.5 -13q-52 0 -79.5 31t-27.5 93v406h133v-371q0 -25 9 -36.5t28 -11.5q41 0 41 52v367h133zM134.5 570q-24.5 12 -38.5 34.5t-14 51.5t14 51.5t38.5 34.5t55.5 12q32 0 56.5 -12t38 -34.5t13.5 -51.5t-14 -51.5t-38.5 -34.5
t-55.5 -12t-55.5 12zM217 630q10 10 10 26t-10.5 26t-26.5 10t-26 -10t-10 -26t9.5 -26t26.5 -10t27 10z" />
    <glyph glyph-name="Uhungarumlaut" unicode="&#x170;" horiz-adv-x="438" 
d="M69.5 32.5q-45.5 45.5 -45.5 141.5v532h142v-530q0 -31 12.5 -46.5t39.5 -15.5q29 0 42 15.5t13 46.5v530h141v-532q0 -96 -46.5 -141.5t-149.5 -45.5t-148.5 45.5zM160 860h110l-81 -115h-91zM302 860h112l-82 -115h-92z" />
    <glyph glyph-name="uhungarumlaut" unicode="&#x171;" horiz-adv-x="390" 
d="M366 522v-522h-133v45q-19 -27 -44.5 -40t-59.5 -13q-52 0 -79.5 31t-27.5 93v406h133v-371q0 -25 9 -36.5t28 -11.5q41 0 41 52v367h133zM133 706h107l-82 -139h-87zM271 706h106l-81 -139h-87z" />
    <glyph glyph-name="Uogonek" unicode="&#x172;" horiz-adv-x="437" 
d="M413 706v-532q0 -62 -18 -100t-54 -64q-33 -25 -47 -41.5t-14 -37.5q0 -16 8 -24t22 -8q19 0 33 7v-76q-28 -11 -61 -11q-48 0 -77 22.5t-29 63.5q0 25 10.5 45t31.5 37q-103 0 -148.5 45.5t-45.5 141.5v532h141v-530q0 -62 53 -62q28 0 41 15.5t13 46.5v530h141z" />
    <glyph glyph-name="uogonek" unicode="&#x173;" horiz-adv-x="390" 
d="M367 -94v-76q-30 -11 -62 -11q-48 0 -76.5 21t-28.5 61q0 31 19.5 55t56.5 44h-43v45q-19 -27 -44.5 -40t-59.5 -13q-52 0 -79.5 31t-27.5 93v406h133v-371q0 -25 9 -36.5t28 -11.5q41 0 41 52v367h133v-522q-32 -22 -47.5 -38t-15.5 -35q0 -14 8.5 -21t22.5 -7
q18 0 33 7z" />
    <glyph glyph-name="Wcircumflex" unicode="&#x174;" horiz-adv-x="650" 
d="M650 706l-118 -706h-144l-63 428l-63 -428h-142l-120 706h136l61 -444l60 444h137l60 -444l60 444h136zM251 860h149l73 -115h-112l-35 56l-36 -56h-111z" />
    <glyph glyph-name="wcircumflex" unicode="&#x175;" horiz-adv-x="594" 
d="M596 522l-115 -522h-134l-50 306l-51 -306h-134l-114 522h133l47 -308l56 308h124l56 -306l48 306h134zM226 706h141l75 -140h-110l-36 71l-36 -71h-110z" />
    <glyph glyph-name="Ycircumflex" unicode="&#x176;" horiz-adv-x="420" 
d="M139 286l-139 420h142l68 -261l68 261h142l-139 -420v-286h-142v286zM137 860h149l73 -115h-112l-35 56l-36 -56h-111z" />
    <glyph glyph-name="ycircumflex" unicode="&#x177;" horiz-adv-x="378" 
d="M380 522l-130 -522l-46 -170h-129l46 175l-123 517h140l49 -347l57 347h136zM121 706h141l75 -140h-110l-36 71l-36 -71h-110z" />
    <glyph glyph-name="Ydieresis" unicode="&#x178;" horiz-adv-x="420" 
d="M139 286l-139 420h142l68 -261l68 261h142l-139 -420v-286h-142v286zM83 761.5q-18 17.5 -18 45.5q0 29 18.5 46t46.5 17t46 -17t18 -46q0 -28 -18 -45.5t-46 -17.5q-29 0 -47 17.5zM249 761.5q-18 17.5 -18 45.5q0 29 18 46t46 17t46 -17t18 -46q0 -28 -18 -45.5
t-46 -17.5t-46 17.5z" />
    <glyph glyph-name="Zacute" unicode="&#x179;" horiz-adv-x="363" 
d="M163 581h-147v125h332l-158 -581h163v-125h-348zM183 860h133l-88 -115h-118z" />
    <glyph glyph-name="zacute" unicode="&#x17a;" horiz-adv-x="330" 
d="M182 119h140v-119h-325l155 404h-141v118h320zM166 706h127l-80 -139h-112z" />
    <glyph glyph-name="Zdotaccent" unicode="&#x17b;" horiz-adv-x="363" 
d="M163 581h-147v125h332l-158 -581h163v-125h-348zM130.5 762q-19.5 18 -19.5 48t19.5 48t49.5 18t49 -18t19 -48t-19 -48t-49 -18t-49.5 18z" />
    <glyph glyph-name="zdotaccent" unicode="&#x17c;" horiz-adv-x="330" 
d="M182 119h140v-119h-325l155 404h-141v118h320zM118 588q-20 19 -20 49q0 31 20 49.5t51 18.5t50.5 -18.5t19.5 -49.5q0 -30 -20 -49t-50 -19q-31 0 -51 19z" />
    <glyph glyph-name="Zcaron" unicode="&#x17d;" horiz-adv-x="363" 
d="M163 581h-147v125h332l-158 -581h163v-125h-348zM255 745h-149l-73 115h112l35 -57l36 57h111z" />
    <glyph glyph-name="zcaron" unicode="&#x17e;" horiz-adv-x="330" 
d="M182 119h140v-119h-325l155 404h-141v118h320zM239 566h-141l-75 140h110l36 -70l36 70h110z" />
    <glyph glyph-name="Schwa" unicode="&#x18f;" horiz-adv-x="459" 
d="M429.5 557q4.5 -26 6.5 -72t2 -132t-2 -132t-6.5 -72t-14.5 -49q-25 -55 -72.5 -83.5t-117.5 -28.5q-67 0 -112 26.5t-69 79.5q-9 22 -14 46t-7 63.5t-2 109.5v59h272q0 65 -1 106t-3 55.5t-6 23.5q-15 35 -57 35q-29 0 -43 -15q-6 -7 -9.5 -15.5t-5.5 -28.5t-3 -59h-142
q1 52 6.5 87t17 59.5t31.5 44.5q53 53 146 53q140 0 191 -112q10 -23 14.5 -49zM283 149q5 12 7 32t3 75h-133q0 -62 1.5 -81t5.5 -30q13 -31 55 -31q46 0 61 35z" />
    <glyph glyph-name="florin" unicode="&#x192;" horiz-adv-x="293" 
d="M7 0v113q12 -3 26 -3q24 0 35.5 12t11.5 37v219h-68v69h68v130q0 74 37.5 106.5t117.5 32.5q17 0 51 -4v-113q-12 3 -27 3q-25 0 -35.5 -12t-10.5 -39v-104h68v-69h-68v-243q0 -74 -37.5 -106.5t-117.5 -32.5q-19 0 -51 4z" />
    <glyph glyph-name="Aringacute" unicode="&#x1fa;" horiz-adv-x="456" 
d="M298 112h-140l-16 -112h-142l119 706h218l119 -706h-142zM281 230l-52 362h-2l-52 -362h106zM172.5 737q-24.5 12 -38.5 34.5t-14 51.5t14 51.5t38.5 34.5t55.5 12q32 0 56.5 -12t38 -34.5t13.5 -51.5t-14 -51.5t-38.5 -34.5t-55.5 -12t-55.5 12zM255 797q10 10 10 26
t-10.5 26t-26.5 10t-26 -10t-10 -26t9.5 -26t26.5 -10t27 10zM231 1074h133l-88 -115h-118z" />
    <glyph glyph-name="aringacute" unicode="&#x1fb;" horiz-adv-x="384" 
d="M359 414q3 -26 3 -80v-334h-133v45q-37 -54 -107 -54q-75 0 -99 53q-7 15 -9 34.5t-2 67.5q0 52 2 71t9 35q16 36 55.5 51.5t108.5 15.5h42v11q0 39 -1 56t-3 24q-7 18 -34 18t-34 -18q-2 -6 -3 -16t-1 -31h-130q0 39 2.5 57.5t9.5 35.5q34 75 157 75q63 0 100.5 -17.5
t54.5 -54.5q9 -19 12 -45zM209 101.5q10 5.5 15 17.5q3 8 4 30t1 74v9h-28q-21 0 -33 -4t-17 -14q-2 -5 -2.5 -16.5t-0.5 -32.5q0 -24 0.5 -36t2.5 -16q7 -17 33 -17q15 0 25 5.5zM140.5 570q-24.5 12 -38.5 34.5t-14 51.5t14 51.5t38.5 34.5t55.5 12q32 0 56.5 -12
t38 -34.5t13.5 -51.5t-14 -51.5t-38.5 -34.5t-55.5 -12t-55.5 12zM223 630q10 10 10 26t-10.5 26t-26.5 10t-26 -10t-10 -26t9.5 -26t26.5 -10t27 10zM193 937h127l-80 -139h-112z" />
    <glyph glyph-name="AEacute" unicode="&#x1fc;" horiz-adv-x="537" 
d="M381 580l9 -147h127v-123h-119l11 -185h110v-125h-239l-6 108h-113l-19 -108h-142l147 706h373v-126h-139zM268 226l-19 358h-2l-64 -358h85zM309 860h133l-88 -115h-118z" />
    <glyph glyph-name="aeacute" unicode="&#x1fd;" horiz-adv-x="593" 
d="M436 116q2 6 3.5 21t1.5 38h135q-1 -60 -11 -90.5t-34 -53.5q-22 -20 -54 -30t-71 -10q-50 0 -84 15.5t-54 47.5q-22 -31 -54 -47t-78 -16q-87 0 -112 55q-7 16 -9.5 35.5t-2.5 67.5q0 51 2 69.5t9 33.5q16 36 55.5 51.5t108.5 15.5h42v10q0 40 -1 57t-3 24q-7 18 -34 18
t-34 -18q-2 -6 -3 -16t-1 -31h-130q0 39 2.5 57.5t9.5 35.5q34 75 157 75q38 0 65 -6.5t45 -19.5q38 26 99 26q117 0 158 -88q8 -18 12 -38.5t5 -57t1 -114.5h-216q0 -62 1.5 -82.5t5.5 -31.5q5 -11 13.5 -16t22.5 -5q17 0 25 8q5 4 7 10zM368 406q-4 -8 -5 -22.5t-2 -64.5
h81q0 48 -1 63t-5 23q-5 11 -13 16t-21 5q-25 0 -34 -20zM229 233h-28q-21 0 -33 -4t-17 -15q-2 -5 -2.5 -16t-0.5 -33q0 -24 0.5 -35t2.5 -17q8 -17 33 -17q30 0 39 22q3 6 4 14.5t1.5 30.5t0.5 60v10zM297 706h127l-80 -139h-112z" />
    <glyph glyph-name="Oslashacute" unicode="&#x1fe;" horiz-adv-x="468" 
d="M423 608q10 -23 15.5 -50t7.5 -73.5t2 -131.5t-2 -131.5t-7.5 -73.5t-15.5 -50q-24 -55 -71.5 -83t-117.5 -28q-105 0 -160 66l-33 -53h-53l61 93q-11 23 -17 51.5t-8.5 76.5t-2.5 132q0 85 2 131.5t7 73.5t15 50q24 54 72 82.5t117 28.5q105 0 160 -64l32 51h52l-59 -90
zM169.5 527.5q-1.5 -15.5 -2.5 -59.5t-1 -115v-82l134 245q-1 14 -2.5 22.5t-4.5 14.5q-8 18 -22 27.5t-37 9.5q-44 0 -59 -37q-4 -10 -5.5 -25.5zM299 178.5q2 15.5 3 59.5t1 115v89l-135 -247q1 -16 3 -25.5t5 -16.5q15 -37 58 -37q23 0 37 9.5t22 27.5q4 10 6 25.5z
M238 860h133l-88 -115h-118z" />
    <glyph glyph-name="oslashacute" unicode="&#x1ff;" horiz-adv-x="393" 
d="M359 442q7 -18 11 -36.5t5.5 -51.5t1.5 -93t-1.5 -93t-5.5 -51.5t-11 -35.5q-20 -44 -60.5 -67t-101.5 -23q-76 0 -120 35l-17 -26h-48l36 56q-5 8 -13 24q-8 17 -11.5 36t-5 51t-1.5 94t1.5 94t5 51t11.5 36q20 43 60.5 66t101.5 23q74 0 119 -34l17 25h48l-37 -54
q8 -11 15 -26zM155 365.5q-1 -23.5 -1 -104.5v-41l84 154q-1 14 -5 24q-5 11 -13.5 16t-22.5 5q-15 0 -23.5 -5t-13.5 -16q-4 -9 -5 -32.5zM238.5 159q1.5 24 1.5 102v45l-85 -153q1 -11 2 -17.5t3 -10.5q9 -22 37 -22q27 0 36 22q4 10 5.5 34zM194 706h127l-80 -139h-112z
" />
    <glyph glyph-name="Scommaaccent" unicode="&#x218;" horiz-adv-x="412" 
d="M90.5 10q-44.5 23 -63.5 65q-6 15 -9.5 28.5t-4.5 42t-1 69.5h149q0 -41 1 -59.5t4 -26.5q10 -24 41 -24q15 0 25 5.5t15 16.5q3 6 3.5 18.5t0.5 38.5q0 28 -1.5 40t-5.5 23q-6 12 -17 21t-27.5 17t-34.5 16l-19 8q-43 22 -70.5 44t-40.5 51q-9 21 -12.5 47t-3.5 74
q0 43 3 64.5t13 42.5q19 42 61.5 64.5t107.5 22.5q63 0 105.5 -21t61.5 -63q7 -15 10 -28.5t4 -41t1 -68.5h-143q0 40 -1 58.5t-4 26.5q-9 21 -37 21q-14 0 -23.5 -5.5t-13.5 -15.5q-2 -6 -2.5 -16.5t-0.5 -32.5q0 -26 1.5 -37.5t5.5 -21.5q7 -15 23 -24.5t50 -23.5l20 -9
q50 -23 79.5 -44.5t42.5 -52.5q10 -22 13 -47t3 -80q0 -50 -3 -72.5t-12 -43.5q-20 -44 -66 -67t-114 -23q-69 0 -113.5 23zM142 -42h133l-35 -129h-123z" />
    <glyph glyph-name="scommaaccent" unicode="&#x219;" horiz-adv-x="355" 
d="M81 7.5q-37 17.5 -55 55.5q-8 19 -10.5 41t-2.5 69h131q0 -30 0.5 -44.5t3.5 -19.5q8 -17 29 -17t27 15q2 4 2.5 10t0.5 18q0 16 -1 25.5t-4 17.5q-6 13 -19.5 21.5t-43.5 22.5q-42 19 -68 37.5t-39 47.5q-6 15 -9 33t-3 48q0 25 2.5 41t8.5 29q16 36 53 54.5t93 18.5
q114 0 145 -69q7 -16 9.5 -35t2.5 -59h-129q0 22 -0.5 32.5t-2.5 16.5q-8 16 -26 16q-10 0 -16.5 -3.5t-8.5 -10.5q-1 -4 -1.5 -9t-0.5 -13q0 -24 4 -33q6 -14 20.5 -23t48.5 -25q32 -15 50.5 -25t34 -24.5t23.5 -33.5q7 -14 9.5 -33t2.5 -55q0 -30 -3 -47.5t-10 -33.5
q-33 -74 -153 -74q-58 0 -95 17.5zM113 -41h133l-35 -129h-123z" />
    <glyph glyph-name="uni021A" unicode="&#x21a;" horiz-adv-x="321" 
d="M90 581h-85v125h311v-125h-85v-581h-141v581zM95 -41h133l-35 -129h-123z" />
    <glyph glyph-name="uni021B" unicode="&#x21b;" horiz-adv-x="263" 
d="M110 7q-29 12 -43 41.5t-14 82.5v272h-46v119h46v113h132v-113h65v-119h-65v-243q0 -29 9.5 -39.5t31.5 -10.5q19 0 29 2v-111q-36 -6 -68 -6q-48 0 -77 12zM96 -39h133l-35 -129h-123z" />
    <glyph glyph-name="dotlessj" unicode="&#x237;" horiz-adv-x="186" 
d="M-24 -170v116q8 -1 19 -1q19 0 27 9.5t8 30.5v537h132v-562q0 -70 -33 -101t-103 -31q-34 0 -50 2z" />
    <glyph glyph-name="schwa" unicode="&#x259;" horiz-adv-x="390" 
d="M366.5 406q3.5 -19 5 -51.5t1.5 -94.5q0 -63 -1.5 -95t-5 -50t-11.5 -35q-19 -43 -59 -66t-100 -23t-100.5 22.5t-60.5 66.5q-9 19 -12.5 40t-4.5 64t-1 105h223q0 64 -1 83.5t-5 29.5q-5 11 -15 16.5t-26 5.5q-20 0 -30 -9q-6 -6 -8.5 -18.5t-3.5 -49.5h-133
q1 41 5 66.5t13.5 43.5t26.5 33q22 21 54.5 31t73.5 10q62 0 103 -22.5t61 -66.5q8 -17 11.5 -36zM234 118q3 9 4.5 27t1.5 57h-90q0 -40 1.5 -58t4.5 -26q11 -22 39 -22q29 0 39 22z" />
    <glyph glyph-name="circumflex" unicode="&#x2c6;" horiz-adv-x="392" 
d="M126 706h141l75 -140h-110l-36 71l-36 -71h-110z" />
    <glyph glyph-name="caron" unicode="&#x2c7;" horiz-adv-x="392" 
d="M266 566h-141l-75 140h110l36 -70l36 70h110z" />
    <glyph glyph-name="uni02C9" unicode="&#x2c9;" horiz-adv-x="331" 
d="M50 676h231v-91h-231v91z" />
    <glyph glyph-name="breve" unicode="&#x2d8;" horiz-adv-x="379" 
d="M86 596q-35 35 -36 110h92q2 -37 13 -52.5t35 -15.5t35 15.5t12 52.5h92q-1 -75 -36 -110t-103 -35q-69 0 -104 35z" />
    <glyph glyph-name="dotaccent" unicode="&#x2d9;" horiz-adv-x="241" 
d="M70 588q-20 19 -20 49q0 31 20 49.5t51 18.5t50.5 -18.5t19.5 -49.5q0 -30 -20 -49t-50 -19q-31 0 -51 19z" />
    <glyph glyph-name="ring" unicode="&#x2da;" horiz-adv-x="316" 
d="M102.5 570q-24.5 12 -38.5 34.5t-14 51.5t14 51.5t38.5 34.5t55.5 12q32 0 56.5 -12t38 -34.5t13.5 -51.5t-14 -51.5t-38.5 -34.5t-55.5 -12t-55.5 12zM185 630q10 10 10 26t-10.5 26t-26.5 10t-26 -10t-10 -26t9.5 -26t26.5 -10t27 10z" />
    <glyph glyph-name="ogonek" unicode="&#x2db;" horiz-adv-x="268" 
d="M78.5 -160q-28.5 21 -28.5 61q0 32 20 56t58 44l88 -1q-32 -22 -47.5 -38t-15.5 -35q0 -14 8.5 -21t22.5 -7q19 0 33 7v-76q-30 -11 -62 -11q-48 0 -76.5 21z" />
    <glyph glyph-name="tilde" unicode="&#x2dc;" horiz-adv-x="384" 
d="M218.5 572q-14.5 7 -30.5 20q-14 11 -22.5 16t-17.5 5q-13 0 -18 -10.5t-7 -35.5h-73q1 74 19 107.5t62 33.5q21 0 34.5 -7t30.5 -21q14 -11 22.5 -16t17.5 -5q13 0 18 10.5t7 36.5h73q0 -73 -18.5 -107t-61.5 -34q-21 0 -35.5 7z" />
    <glyph glyph-name="hungarumlaut" unicode="&#x2dd;" horiz-adv-x="406" 
d="M112 706h107l-82 -139h-87zM250 706h106l-81 -139h-87z" />
    <glyph glyph-name="gravecomb" unicode="&#x300;" 
d="M-162 567l-80 139h128l64 -139h-112z" />
    <glyph glyph-name="acutecomb" unicode="&#x301;" 
d="M-177 706h127l-80 -139h-112z" />
    <glyph glyph-name="circumflexcomb" unicode="&#x302;" 
d="M-266 706h141l75 -140h-110l-36 71l-36 -71h-110z" />
    <glyph glyph-name="tildecomb" unicode="&#x303;" 
d="M-165.5 572q-14.5 7 -30.5 20q-14 11 -22.5 16t-17.5 5q-13 0 -18 -10.5t-7 -35.5h-73q1 74 19 107.5t62 33.5q21 0 34.5 -7t30.5 -21q14 -11 22.5 -16t17.5 -5q13 0 18 10.5t7 36.5h73q0 -73 -18.5 -107t-61.5 -34q-21 0 -35.5 7z" />
    <glyph glyph-name="macroncomb" unicode="&#x304;" 
d="M-281 676h231v-91h-231v91z" />
    <glyph glyph-name="brevecomb" unicode="&#x306;" 
d="M-293 596q-35 35 -36 110h92q2 -37 13 -52.5t35 -15.5t35 15.5t12 52.5h92q-1 -75 -36 -110t-103 -35q-69 0 -104 35z" />
    <glyph glyph-name="dotaccentcomb" unicode="&#x307;" 
d="M-171 588q-20 19 -20 49q0 31 20 49.5t51 18.5t50.5 -18.5t19.5 -49.5q0 -30 -20 -49t-50 -19q-31 0 -51 19z" />
    <glyph glyph-name="dieresiscomb" unicode="&#x308;" 
d="M-326 585q-19 18 -19 47t19 46.5t48 17.5t47.5 -17.5t18.5 -46.5t-18.5 -47t-47.5 -18t-48 18zM-164 585q-19 18 -19 46q0 29 19 46.5t48 17.5t47.5 -17.5t18.5 -46.5q0 -28 -18.5 -46t-47.5 -18t-48 18z" />
    <glyph glyph-name="ringcomb" unicode="&#x30a;" 
d="M-213.5 570q-24.5 12 -38.5 34.5t-14 51.5t14 51.5t38.5 34.5t55.5 12q32 0 56.5 -12t38 -34.5t13.5 -51.5t-14 -51.5t-38.5 -34.5t-55.5 -12t-55.5 12zM-131 630q10 10 10 26t-10.5 26t-26.5 10t-26 -10t-10 -26t9.5 -26t26.5 -10t27 10z" />
    <glyph glyph-name="hungarumlautcomb" unicode="&#x30b;" 
d="M-294 706h107l-82 -139h-87zM-156 706h106l-81 -139h-87z" />
    <glyph glyph-name="caroncomb" unicode="&#x30c;" 
d="M-126 566h-141l-75 140h110l36 -70l36 70h110z" />
    <glyph glyph-name="commaturnedabovecomb" unicode="&#x312;" 
d="M-75 574h-133l36 130h122z" />
    <glyph glyph-name="commaaccent" unicode="&#x326;" 
d="M-183 -41h133l-35 -129h-123z" />
    <glyph glyph-name="cedillacomb" unicode="&#x327;" 
d="M-71 -43.5q21 -19.5 21 -53.5q0 -45 -32.5 -65.5t-88.5 -20.5q-41 0 -79 13l14 61q25 -9 54 -9q21 0 32 5.5t11 18.5t-12 18.5t-39 5.5h-39l20 88h88l-9 -41q38 -1 59 -20.5z" />
    <glyph glyph-name="ogonekcomb" unicode="&#x328;" 
d="M-189.5 -160q-28.5 21 -28.5 61q0 32 20 56t58 44l88 -1q-32 -22 -47.5 -38t-15.5 -35q0 -14 8.5 -21t22.5 -7q19 0 33 7v-76q-30 -11 -62 -11q-48 0 -76.5 21z" />
    <glyph glyph-name="uni0335" unicode="&#x335;" 
d="M-294 377h244v-91h-244v91z" />
    <glyph glyph-name="uni0336" unicode="&#x336;" 
d="M-214 672h214v-84h-214v84z" />
    <glyph glyph-name="uni0337" unicode="&#x337;" 
d="M0 497v-107l-108 -79v22l-107 -76v107l107 77v-21z" />
    <glyph glyph-name="uni0338" unicode="&#x338;" 
d="M-313 148l4 -7l159 292l1 -4l62 93h47l-92 -138l-2 5l-162 -293l-1 4l-64 -100h-47z" />
    <glyph glyph-name="uni0394" unicode="&#x394;" horiz-adv-x="456" 
d="M456 0h-456l119 706h218zM297 118l-68 474h-2l-68 -474h138z" />
    <glyph glyph-name="uni03A9" unicode="&#x3a9;" horiz-adv-x="460" 
d="M343 115h88v-115h-182v247q27 5 41 33q5 11 6.5 35t1.5 101q0 58 -0.5 94t-2.5 47.5t-5 19.5q-16 34 -60 34t-60 -34q-3 -8 -5 -19.5t-2.5 -47.5t-0.5 -94q0 -77 1.5 -101t6.5 -35q14 -28 41 -33v-247h-182v115h88v38q-55 23 -79 76q-8 17 -11 34.5t-4.5 51t-1.5 101.5
q0 78 1.5 115t5 56t11.5 37q21 47 69.5 71t121.5 24t121.5 -24t69.5 -71q8 -18 11.5 -37t5 -56t1.5 -115q0 -68 -1.5 -101.5t-4.5 -51t-11 -34.5q-24 -52 -79 -76v-38z" />
    <glyph glyph-name="uni03BC" unicode="&#x3bc;" horiz-adv-x="392" 
d="M368 522v-522h-129v54q-14 -31 -33.5 -46.5t-46.5 -15.5q-7 0 -11 1q9 -56 9 -115v-49h-133v693h133v-367q0 -27 8.5 -38.5t28.5 -11.5q41 0 41 53v364h133z" />
    <glyph glyph-name="pi" unicode="&#x3c0;" horiz-adv-x="502" 
d="M345.5 7q-28.5 12 -42.5 41t-14 80v275h-76v-403h-132v403h-52v119h445v-119h-53v-247q0 -26 9 -36t28 -10h15v-111q-24 -4 -52 -4q-47 0 -75.5 12z" />
    <glyph glyph-name="Wgrave" unicode="&#x1e80;" horiz-adv-x="650" 
d="M650 706l-118 -706h-144l-63 428l-63 -428h-142l-120 706h136l61 -444l60 444h137l60 -444l60 444h136zM278 745l-88 115h134l72 -115h-118z" />
    <glyph glyph-name="wgrave" unicode="&#x1e81;" horiz-adv-x="594" 
d="M596 522l-115 -522h-134l-50 306l-51 -306h-134l-114 522h133l47 -308l56 308h124l56 -306l48 306h134zM252 567l-80 139h128l64 -139h-112z" />
    <glyph glyph-name="Wacute" unicode="&#x1e82;" horiz-adv-x="650" 
d="M650 706l-118 -706h-144l-63 428l-63 -428h-142l-120 706h136l61 -444l60 444h137l60 -444l60 444h136zM329 860h133l-88 -115h-118z" />
    <glyph glyph-name="wacute" unicode="&#x1e83;" horiz-adv-x="594" 
d="M596 522l-115 -522h-134l-50 306l-51 -306h-134l-114 522h133l47 -308l56 308h124l56 -306l48 306h134zM293 706h127l-80 -139h-112z" />
    <glyph glyph-name="Wdieresis" unicode="&#x1e84;" horiz-adv-x="650" 
d="M650 706l-118 -706h-144l-63 428l-63 -428h-142l-120 706h136l61 -444l60 444h137l60 -444l60 444h136zM197 761.5q-18 17.5 -18 45.5q0 29 18.5 46t46.5 17t46 -17t18 -46q0 -28 -18 -45.5t-46 -17.5q-29 0 -47 17.5zM363 761.5q-18 17.5 -18 45.5q0 29 18 46t46 17
t46 -17t18 -46q0 -28 -18 -45.5t-46 -17.5t-46 17.5z" />
    <glyph glyph-name="wdieresis" unicode="&#x1e85;" horiz-adv-x="594" 
d="M596 522l-115 -522h-134l-50 306l-51 -306h-134l-114 522h133l47 -308l56 308h124l56 -306l48 306h134zM167 585q-19 18 -19 47t19 46.5t48 17.5t47.5 -17.5t18.5 -46.5t-18.5 -47t-47.5 -18t-48 18zM329 585q-19 18 -19 46q0 29 19 46.5t48 17.5t47.5 -17.5t18.5 -46.5
q0 -28 -18.5 -46t-47.5 -18t-48 18z" />
    <glyph glyph-name="Germandbls" unicode="&#x1e9e;" horiz-adv-x="450" 
d="M427.5 314.5q2.5 -24.5 2.5 -90.5q0 -45 -1 -75t-4 -44.5t-9 -27.5q-18 -40 -56 -59.5t-97 -19.5q-35 0 -60 4v116q14 -2 24 -2q43 0 55 27q2 7 3 24.5t1 56.5q0 40 -1 58.5t-3 25.5q-12 27 -50 27h-14v2l54 244h-102v-581h-141v706h395v-3l-64 -290q41 -18 57 -56
q8 -18 10.5 -42.5z" />
    <glyph glyph-name="Ygrave" unicode="&#x1ef2;" horiz-adv-x="420" 
d="M139 286l-139 420h142l68 -261l68 261h142l-139 -420v-286h-142v286zM164 745l-88 115h134l72 -115h-118z" />
    <glyph glyph-name="ygrave" unicode="&#x1ef3;" horiz-adv-x="378" 
d="M380 522l-130 -522l-46 -170h-129l46 175l-123 517h140l49 -347l57 347h136zM147 567l-80 139h128l64 -139h-112z" />
    <glyph glyph-name="uni2009" unicode="&#x2009;" horiz-adv-x="51" 
 />
    <glyph glyph-name="uni2011" unicode="&#x2011;" horiz-adv-x="268" 
d="M29 365h210v-117h-210v117z" />
    <glyph glyph-name="endash" unicode="&#x2013;" horiz-adv-x="328" 
d="M29 365h271v-115h-271v115z" />
    <glyph glyph-name="emdash" unicode="&#x2014;" horiz-adv-x="656" 
d="M29 365h598v-115h-598v115z" />
    <glyph glyph-name="quoteleft" unicode="&#x2018;" horiz-adv-x="204" 
d="M145 445h-130l75 261h99z" />
    <glyph glyph-name="quoteright" unicode="&#x2019;" horiz-adv-x="204" 
d="M59 706h130l-75 -261h-99z" />
    <glyph glyph-name="quotesinglbase" unicode="&#x201a;" horiz-adv-x="204" 
d="M59 146h130l-75 -261h-99z" />
    <glyph glyph-name="quotedblleft" unicode="&#x201c;" horiz-adv-x="365" 
d="M145 445h-130l75 261h99zM307 445h-131l75 261h99z" />
    <glyph glyph-name="quotedblright" unicode="&#x201d;" horiz-adv-x="365" 
d="M220 706h130l-75 -261h-99zM59 706h130l-75 -261h-99z" />
    <glyph glyph-name="quotedblbase" unicode="&#x201e;" horiz-adv-x="365" 
d="M220 146h130l-75 -261h-99zM59 146h130l-75 -261h-99z" />
    <glyph glyph-name="dagger" unicode="&#x2020;" horiz-adv-x="305" 
d="M293 432h-73v-432h-135v432h-73v129h73v145h135v-145h73v-129z" />
    <glyph glyph-name="daggerdbl" unicode="&#x2021;" horiz-adv-x="305" 
d="M220 447v-188h73v-128h-73v-131h-135v131h-73v128h73v188h-73v128h73v131h135v-131h73v-128h-73z" />
    <glyph glyph-name="bullet" unicode="&#x2022;" horiz-adv-x="381" 
d="M125 254q-29 16 -45.5 45t-16.5 67q0 39 16 68t45 44t67 15t66.5 -15t44.5 -44t16 -68q0 -38 -16 -67t-45 -45t-66 -16t-66 16z" />
    <glyph glyph-name="ellipsis" unicode="&#x2026;" horiz-adv-x="663" 
d="M275.5 9.5q-21.5 20.5 -21.5 54.5q0 35 21.5 55.5t55.5 20.5t55 -20.5t21 -55.5q0 -34 -21 -54.5t-55 -20.5t-55.5 20.5zM482.5 9.5q-21.5 20.5 -21.5 54.5q0 35 21.5 55.5t55.5 20.5t55 -20.5t21 -55.5q0 -34 -21 -54.5t-55 -20.5t-55.5 20.5zM69.5 9.5
q-21.5 20.5 -21.5 54.5q0 35 21.5 55.5t55.5 20.5t55 -20.5t21 -55.5q0 -34 -21 -54.5t-55 -20.5t-55.5 20.5z" />
    <glyph glyph-name="perthousand" unicode="&#x2030;" horiz-adv-x="724" 
d="M25 460q-7 15 -9.5 34.5t-2.5 66.5t2.5 66.5t9.5 35.5q11 24 35 36.5t59 12.5q71 0 93 -49q8 -15 10 -34t2 -68t-2.5 -68t-9.5 -33q-22 -50 -93 -50q-72 0 -94 50zM368 706h74l-322 -706h-74zM138 493q2 5 2.5 20t0.5 48t-0.5 48t-2.5 20q-4 10 -19 10t-19 -10
q-2 -4 -2.5 -19.5t-0.5 -48.5t0.5 -48.5t2.5 -19.5q5 -10 19 -10t19 10zM275 44q-7 15 -9 34t-2 67t2 67.5t9 34.5q24 50 94 50q35 0 59 -12.5t35 -37.5q7 -16 9.5 -35.5t2.5 -66.5q0 -46 -2.5 -65.5t-9.5 -35.5q-11 -25 -35 -37.5t-59 -12.5q-70 0 -94 50zM546 6.5
q-24 12.5 -35 37.5q-7 16 -9.5 35.5t-2.5 65.5q0 47 2.5 66.5t9.5 35.5q11 25 35 37.5t59 12.5t58.5 -12.5t34.5 -37.5q8 -15 10 -34t2 -68q0 -48 -2.5 -67t-9.5 -34q-11 -25 -34.5 -37.5t-58.5 -12.5t-59 12.5zM388 77q2 4 2.5 19.5t0.5 48.5t-0.5 48.5t-2.5 20.5
q-5 10 -19 10t-19 -10q-2 -5 -2.5 -20.5t-0.5 -48.5t0.5 -48t2.5 -20q5 -10 19 -10t19 10zM624 77q2 5 2.5 20t0.5 48t-0.5 48t-2.5 21q-7 10 -19 10q-14 0 -19 -10q-2 -5 -2.5 -20.5t-0.5 -48.5t0.5 -48.5t2.5 -19.5q5 -10 19 -10t19 10z" />
    <glyph glyph-name="guilsinglleft" unicode="&#x2039;" horiz-adv-x="226" 
d="M8 302l89 163h120l-88 -163l88 -163h-120z" />
    <glyph glyph-name="guilsinglright" unicode="&#x203a;" horiz-adv-x="226" 
d="M9 139l88 163l-88 163h120l89 -163l-89 -163h-120z" />
    <glyph glyph-name="fraction" unicode="&#x2044;" horiz-adv-x="140" 
d="M188 706h68l-304 -706h-68z" />
    <glyph glyph-name="zero.superior" unicode="&#x2070;" horiz-adv-x="294" 
d="M32 492q-8 18 -11 44.5t-3 95.5t3 95.5t11 44.5q27 61 115 61q89 0 116 -61q8 -19 10.5 -45.5t2.5 -94.5t-2.5 -94.5t-10.5 -45.5q-27 -61 -116 -61q-88 0 -115 61zM170 530q2 5 2.5 27.5t0.5 74.5t-0.5 74.5t-2.5 27.5q-6 13 -23 13q-15 0 -22 -13q-2 -6 -3 -28t-1 -74
t1 -74t3 -28q7 -13 22 -13q17 0 23 13z" />
    <glyph glyph-name="four.superior" unicode="&#x2074;" horiz-adv-x="301" 
d="M162 507h-167v2l89 317h173v-230h37v-89h-37v-69h-95v69zM162 596v194l-48 -194h48z" />
    <glyph glyph-name="five.superior" unicode="&#x2075;" horiz-adv-x="269" 
d="M20 485q-5 13 -7.5 31.5t-2.5 53.5h94q0 -20 0.5 -30t2.5 -15q7 -13 24 -13t22 11q2 4 2.5 13.5t0.5 28.5t-1 29.5t-4 16.5q-7 12 -23 16.5t-45 4.5q-31 0 -64 -5l23 199h204l-10 -80h-109l-5 -51q15 3 39 3q33 0 55 -11.5t31 -32.5q6 -12 8 -27.5t2 -55.5
q0 -39 -2 -56.5t-7 -28.5q-13 -29 -43 -42t-72 -13q-87 0 -113 54z" />
    <glyph glyph-name="six.superior" unicode="&#x2076;" horiz-adv-x="290" 
d="M273.5 622q1.5 -14 1.5 -51q0 -39 -2 -54t-8 -29q-13 -28 -43 -42.5t-74 -14.5q-91 0 -119 61q-5 12 -8 24.5t-4 41.5t-1 73q0 42 1 70.5t4 42.5t9 28q15 31 44.5 46t74.5 15q32 0 53.5 -7t37.5 -23q13 -13 18.5 -34t8.5 -53h-92q0 13 -1.5 20.5t-4.5 11.5q-6 7 -20 7
q-11 0 -18 -4t-11 -13q-2 -6 -3 -21.5t-1 -46.5q22 21 67 21q30 0 52 -11t32 -32q5 -12 6.5 -26zM171.5 534.5q0.5 9.5 0.5 29.5q0 22 -0.5 31.5t-2.5 13.5q-6 12 -22 12t-23 -13q-2 -3 -2.5 -13t-0.5 -31q0 -19 0.5 -28.5t2.5 -13.5q7 -13 23 -13q18 0 22 13q2 3 2.5 12.5z
" />
    <glyph glyph-name="seven.superior" unicode="&#x2077;" horiz-adv-x="243" 
d="M111 738h-100v88h233l-111 -388h-108z" />
    <glyph glyph-name="eight.superior" unicode="&#x2078;" horiz-adv-x="281" 
d="M264.5 597q1.5 -12 1.5 -43q0 -32 -1.5 -45t-6.5 -24q-12 -26 -42.5 -40t-74.5 -14q-45 0 -75.5 14t-42.5 40q-4 10 -6 23.5t-2 45.5t1.5 44t6.5 21q11 25 44 35q-33 11 -43 35q-4 8 -5 17.5t-1 30.5q0 17 1.5 26.5t5.5 18.5q11 24 41.5 37.5t74.5 13.5t74 -13.5
t41 -37.5q4 -10 5.5 -19t1.5 -26q0 -19 -1.5 -29t-5.5 -18q-10 -25 -42 -36q31 -10 44 -35q5 -10 6.5 -22zM117.5 743.5q-0.5 -6.5 -0.5 -18.5q0 -13 0.5 -20t1.5 -10q5 -11 22 -11t21 12q1 2 1.5 9t0.5 20q0 12 -0.5 18.5t-1.5 9.5q-5 11 -21 11q-17 0 -22 -11
q-1 -3 -1.5 -9.5zM166 560q0 33 -2 41q-6 12 -23 12q-18 0 -24 -12q-2 -8 -2 -41t2 -41q7 -13 24 -13t23 13q2 8 2 41z" />
    <glyph glyph-name="nine.superior" unicode="&#x2079;" horiz-adv-x="290" 
d="M269.5 747.5q2.5 -12.5 3.5 -41.5t1 -73q0 -42 -1 -71t-4 -42.5t-9 -27.5q-28 -61 -118 -61q-32 0 -53.5 7t-37.5 23q-14 13 -19 33.5t-8 53.5h92q0 -13 1.5 -20.5t4.5 -11.5q6 -7 20 -7q21 0 28 17q3 7 4 20t1 49q-24 -22 -68 -22q-30 0 -52 11t-32 32q-5 11 -6 24.5
t-1 52.5q0 41 2 55.5t8 27.5q13 28 42.5 42.5t73.5 14.5q92 0 120 -61q5 -12 7.5 -24.5zM169 669q1 10 1 31q0 19 -0.5 28.5t-2.5 13.5q-6 13 -23 13t-23 -13q-2 -3 -2.5 -12.5t-0.5 -29.5q0 -22 0.5 -31.5t2.5 -13.5q6 -12 23 -12q8 0 14 3.5t8 9.5q2 3 3 13z" />
    <glyph glyph-name="uni207A" unicode="&#x207a;" horiz-adv-x="254" 
d="M238 595h-73v-67h-74v67h-73v75h73v68h75v-68h72v-75z" />
    <glyph glyph-name="uni207B" unicode="&#x207b;" horiz-adv-x="255" 
d="M17 670h221v-75h-221v75z" />
    <glyph glyph-name="uni207C" unicode="&#x207c;" horiz-adv-x="243" 
d="M17 711h209v-63h-209v63zM17 617h209v-64h-209v64z" />
    <glyph glyph-name="uni207D" unicode="&#x207d;" horiz-adv-x="167" 
d="M38 496.5q-14 58.5 -14 135.5q0 78 14 136.5t45 124.5h79q-24 -64 -36.5 -127t-12.5 -134q0 -70 12.5 -133t36.5 -127h-79q-31 66 -45 124.5z" />
    <glyph glyph-name="uni207E" unicode="&#x207e;" horiz-adv-x="167" 
d="M5 372q24 64 36.5 127t12.5 133q0 71 -12.5 134t-36.5 127h79q31 -66 45 -124.5t14 -136.5q0 -77 -14 -135.5t-45 -124.5h-79z" />
    <glyph glyph-name="n.superior" unicode="&#x207f;" horiz-adv-x="274" 
d="M239.5 690.5q19.5 -22.5 19.5 -63.5v-283h-97v257q0 30 -23 30q-13 0 -19.5 -8.5t-6.5 -24.5v-254h-97v363h97v-28q28 34 69 34q38 0 57.5 -22.5z" />
    <glyph glyph-name="zero.inferior" unicode="&#x2080;" horiz-adv-x="294" 
d="M32 -66q-8 18 -11 44.5t-3 95.5t3 95.5t11 44.5q27 61 115 61q89 0 116 -61q8 -19 10.5 -45.5t2.5 -94.5t-2.5 -94.5t-10.5 -45.5q-27 -61 -116 -61q-88 0 -115 61zM170 -28q2 5 2.5 27.5t0.5 74.5t-0.5 74.5t-2.5 27.5q-6 13 -23 13q-15 0 -22 -13q-2 -6 -3 -28t-1 -74
t1 -74t3 -28q7 -13 22 -13q17 0 23 13z" />
    <glyph glyph-name="one.inferior" unicode="&#x2081;" horiz-adv-x="185" 
d="M55 179h-51l13 89h141v-388h-103v299z" />
    <glyph glyph-name="two.inferior" unicode="&#x2082;" horiz-adv-x="261" 
d="M4 -117l119 195q16 26 22 40.5t6 34.5q0 14 -0.5 21t-2.5 9q-5 11 -20 11t-22 -12q-2 -4 -2.5 -11t-0.5 -21h-95q0 31 2.5 45.5t8.5 26.5q22 53 109 53q88 0 112 -52q5 -11 7 -23t2 -31q0 -34 -6 -57t-22 -49q-30 -52 -59 -95h85v-88h-243v3z" />
    <glyph glyph-name="three.inferior" unicode="&#x2083;" horiz-adv-x="267" 
d="M250.5 38q1.5 -12 1.5 -40q0 -35 -2 -48.5t-7 -25.5q-12 -26 -42 -38.5t-73 -12.5t-69 12t-38 39q-7 13 -9 30.5t-2 59.5h91q0 -22 0.5 -33t2.5 -15q5 -12 22 -12q16 0 23 10q2 8 2 38q0 16 -0.5 23.5t-2.5 11.5q-4 7 -12.5 10t-24.5 3h-9v71h10q15 0 23 3t11 10
q2 4 3 9.5t1 15.5q0 11 -0.5 17t-2.5 9q-4 9 -19 9q-16 0 -21 -11q-2 -4 -2.5 -11t-0.5 -22h-91q0 30 1.5 44t6.5 26q14 30 42 42.5t68 12.5q86 0 109 -51q5 -9 6.5 -21t1.5 -40q0 -20 -1 -28.5t-5 -15.5q-10 -20 -38 -31q30 -7 40 -29q5 -9 6.5 -21z" />
    <glyph glyph-name="four.inferior" unicode="&#x2084;" horiz-adv-x="301" 
d="M162 -51h-167v2l89 317h173v-230h37v-89h-37v-69h-95v69zM162 38v194l-48 -194h48z" />
    <glyph glyph-name="five.inferior" unicode="&#x2085;" horiz-adv-x="269" 
d="M20 -73q-5 13 -7.5 31.5t-2.5 53.5h94q0 -20 0.5 -30t2.5 -15q7 -13 24 -13t22 11q2 4 2.5 13.5t0.5 28.5t-1 29.5t-4 16.5q-7 12 -23 16.5t-45 4.5q-31 0 -64 -5l23 199h204l-10 -80h-109l-5 -51q15 3 39 3q33 0 55 -11.5t31 -32.5q6 -12 8 -27.5t2 -55.5
q0 -39 -2 -56.5t-7 -28.5q-13 -29 -43 -42t-72 -13q-87 0 -113 54z" />
    <glyph glyph-name="six.inferior" unicode="&#x2086;" horiz-adv-x="290" 
d="M273.5 64q1.5 -14 1.5 -51q0 -39 -2 -54t-8 -29q-13 -28 -43 -42.5t-74 -14.5q-91 0 -119 61q-5 12 -8 24.5t-4 41.5t-1 73q0 42 1 70.5t4 42.5t9 28q15 31 44.5 46t74.5 15q32 0 53.5 -7t37.5 -23q13 -13 18.5 -34t8.5 -53h-92q0 13 -1.5 20.5t-4.5 11.5q-6 7 -20 7
q-11 0 -18 -4t-11 -13q-2 -6 -3 -21.5t-1 -46.5q22 21 67 21q30 0 52 -11t32 -32q5 -12 6.5 -26zM171.5 -23.5q0.5 9.5 0.5 29.5q0 22 -0.5 31.5t-2.5 13.5q-6 12 -22 12t-23 -13q-2 -3 -2.5 -13t-0.5 -31q0 -19 0.5 -28.5t2.5 -13.5q7 -13 23 -13q18 0 22 13q2 3 2.5 12.5z
" />
    <glyph glyph-name="seven.inferior" unicode="&#x2087;" horiz-adv-x="243" 
d="M111 180h-100v88h233l-111 -388h-108z" />
    <glyph glyph-name="eight.inferior" unicode="&#x2088;" horiz-adv-x="281" 
d="M264.5 39q1.5 -12 1.5 -43q0 -32 -1.5 -45t-6.5 -24q-12 -26 -42.5 -40t-74.5 -14q-45 0 -75.5 14t-42.5 40q-4 10 -6 23.5t-2 45.5t1.5 44t6.5 21q11 25 44 35q-33 11 -43 35q-4 8 -5 17.5t-1 30.5q0 17 1.5 26.5t5.5 18.5q11 24 41.5 37.5t74.5 13.5t74 -13.5t41 -37.5
q4 -10 5.5 -19t1.5 -26q0 -19 -1.5 -29t-5.5 -18q-10 -25 -42 -36q31 -10 44 -35q5 -10 6.5 -22zM117.5 185.5q-0.5 -6.5 -0.5 -18.5q0 -13 0.5 -20t1.5 -10q5 -11 22 -11t21 12q1 2 1.5 9t0.5 20q0 12 -0.5 18.5t-1.5 9.5q-5 11 -21 11q-17 0 -22 -11q-1 -3 -1.5 -9.5z
M166 2q0 33 -2 41q-6 12 -23 12q-18 0 -24 -12q-2 -8 -2 -41t2 -41q7 -13 24 -13t23 13q2 8 2 41z" />
    <glyph glyph-name="nine.inferior" unicode="&#x2089;" horiz-adv-x="290" 
d="M269.5 189.5q2.5 -12.5 3.5 -41.5t1 -73q0 -42 -1 -71t-4 -42.5t-9 -27.5q-28 -61 -118 -61q-32 0 -53.5 7t-37.5 23q-14 13 -19 33.5t-8 53.5h92q0 -13 1.5 -20.5t4.5 -11.5q6 -7 20 -7q21 0 28 17q3 7 4 20t1 49q-24 -22 -68 -22q-30 0 -52 11t-32 32q-5 11 -6 24.5
t-1 52.5q0 41 2 55.5t8 27.5q13 28 42.5 42.5t73.5 14.5q92 0 120 -61q5 -12 7.5 -24.5zM169 111q1 10 1 31q0 19 -0.5 28.5t-2.5 13.5q-6 13 -23 13t-23 -13q-2 -3 -2.5 -12.5t-0.5 -29.5q0 -22 0.5 -31.5t2.5 -13.5q6 -12 23 -12q8 0 14 3.5t8 9.5q2 3 3 13z" />
    <glyph glyph-name="uni208A" unicode="&#x208a;" horiz-adv-x="255" 
d="M238 37h-73v-67h-74v67h-73v75h73v68h75v-68h72v-75z" />
    <glyph glyph-name="uni208B" unicode="&#x208b;" horiz-adv-x="255" 
d="M17 112h221v-75h-221v75z" />
    <glyph glyph-name="uni208C" unicode="&#x208c;" horiz-adv-x="243" 
d="M17 153h209v-63h-209v63zM17 59h209v-64h-209v64z" />
    <glyph glyph-name="uni208D" unicode="&#x208d;" horiz-adv-x="167" 
d="M38 -61.5q-14 58.5 -14 135.5q0 78 14 136.5t45 124.5h79q-24 -64 -36.5 -127t-12.5 -134q0 -70 12.5 -133t36.5 -127h-79q-31 66 -45 124.5z" />
    <glyph glyph-name="uni208E" unicode="&#x208e;" horiz-adv-x="167" 
d="M5 -186q24 64 36.5 127t12.5 133q0 71 -12.5 134t-36.5 127h79q31 -66 45 -124.5t14 -136.5q0 -77 -14 -135.5t-45 -124.5h-79z" />
    <glyph glyph-name="uni2099" unicode="&#x2099;" horiz-adv-x="274" 
d="M239.5 161.5q19.5 -22.5 19.5 -63.5v-283h-97v257q0 30 -23 30q-13 0 -19.5 -8.5t-6.5 -24.5v-254h-97v363h97v-28q28 34 69 34q38 0 57.5 -22.5z" />
    <glyph glyph-name="Euro" unicode="&#x20ac;" horiz-adv-x="484" 
d="M467 231q-1 -73 -15 -119.5t-46 -75.5q-25 -23 -61 -35.5t-81 -12.5q-140 0 -191 112q-12 28 -17.5 64t-6.5 114h-32v61h32v14v23h-32v61h33q1 72 6 106.5t18 63.5q24 55 71.5 83t117.5 28q89 0 141 -48q34 -31 47.5 -75.5t13.5 -120.5h-145q0 37 -2 57t-6 29.5t-11 16.5
q-8 7 -17.5 10.5t-23.5 3.5q-41 0 -55 -35q-5 -12 -7 -34t-3 -85h128v-61h-128v-23v-14h128v-61h-128q1 -71 2.5 -94t6.5 -35q16 -34 56 -34q27 0 43 15q7 5 10.5 14.5t5.5 29.5t2 57h146z" />
    <glyph glyph-name="uni20B9" unicode="&#x20b9;" horiz-adv-x="385" 
d="M377 638h-85q7 -8 12 -20q7 -17 10 -36.5t4 -60.5h59v-69h-59q-1 -49 -3.5 -70.5t-10.5 -37.5q-24 -52 -85 -65l120 -279h-151l-149 371h82q21 0 33 6t18 19q3 7 4.5 19.5t1.5 36.5h-154v69h154q0 22 -1.5 33.5t-4.5 18.5q-12 25 -49 25h-99v108h353v-68z" />
    <glyph glyph-name="uni20BA" unicode="&#x20ba;" horiz-adv-x="429" 
d="M420 309q0 -73 -2 -112.5t-6.5 -61.5t-13.5 -43q-21 -47 -63.5 -69.5t-108.5 -22.5h-168v283l-41 -19v72l41 19v39l-41 -19v71l41 19v241h140v-185l120 54v-71l-120 -54v-39l120 54v-72l-120 -54v-214h21q44 0 57 30q5 12 6.5 39t1.5 115h136z" />
    <glyph glyph-name="uni20BC" unicode="&#x20bc;" horiz-adv-x="598" 
d="M561 502q4 -19 6 -50t2 -87v-365h-141v368q0 67 -1.5 88t-6.5 33q-13 31 -50 31v-520h-142v520q-37 0 -50 -31q-4 -8 -5.5 -18t-2 -36t-0.5 -67v-368h-141v365q0 57 1.5 88t6 50t13.5 37q22 49 66 72.5t112 23.5v70h142v-70q68 0 112 -23.5t66 -72.5q9 -19 13 -38z" />
    <glyph glyph-name="uni2113" unicode="&#x2113;" horiz-adv-x="384" 
d="M202.5 127q20.5 -19 65.5 -19q34 0 71 13v-112q-44 -16 -100 -16q-188 0 -192 184q-12 -1 -37 -1v102q25 0 37 1v224q0 75 16.5 121.5t51 68.5t91.5 22q60 0 95 -22.5t50.5 -70.5t15.5 -127q0 -88 -19 -148t-60.5 -97.5t-108.5 -55.5q3 -48 23.5 -67zM179 306
q22 14 34 38t16.5 60t4.5 91q0 52 -3 77.5t-9 33.5t-17 8q-10 0 -15.5 -5.5t-8 -20.5t-2.5 -43v-239z" />
    <glyph glyph-name="uni2117" unicode="&#x2117;" horiz-adv-x="532" 
d="M130.5 20q-54.5 33 -81.5 93q-17 36 -22.5 92t-5.5 148t5.5 147.5t22.5 91.5q27 60 82 93.5t135 33.5q79 0 134 -32t82 -92q17 -37 23 -94t6 -148q0 -96 -5.5 -149.5t-22.5 -90.5q-28 -61 -81.5 -93.5t-135.5 -32.5q-81 0 -135.5 33zM434 140q12 29 16.5 77.5t4.5 134.5
q0 85 -5 136.5t-18 81.5q-45 98 -165 98q-63 0 -105 -26t-64 -75q-13 -28 -17 -79t-4 -134q0 -89 4 -138t17 -76q23 -51 63.5 -76.5t104.5 -25.5q121 0 168 102zM146 595h149q39 0 63 -12t35 -37q6 -14 8 -31.5t2 -59.5t-2 -59.5t-8 -31.5q-11 -25 -35 -37t-63 -12h-45v-204
h-104v484zM269 397q10 0 16 2.5t9 9.5q2 5 3 15t1 31q0 22 -1 31.5t-3 14.5q-5 12 -25 12h-19v-116h19z" />
    <glyph glyph-name="trademark" unicode="&#x2122;" horiz-adv-x="502" 
d="M44 630h-41v76h169v-76h-41v-234h-87v234zM187 706h107l42 -180l43 180h106v-310h-80v174l-45 -174h-48l-44 174v-174h-81v310z" />
    <glyph glyph-name="Omega" unicode="&#x2126;" horiz-adv-x="460" 
d="M343 115h88v-115h-182v247q27 5 41 33q5 11 6.5 35t1.5 101q0 58 -0.5 94t-2.5 47.5t-5 19.5q-16 34 -60 34t-60 -34q-3 -8 -5 -19.5t-2.5 -47.5t-0.5 -94q0 -77 1.5 -101t6.5 -35q14 -28 41 -33v-247h-182v115h88v38q-55 23 -79 76q-8 17 -11 34.5t-4.5 51t-1.5 101.5
q0 78 1.5 115t5 56t11.5 37q21 47 69.5 71t121.5 24t121.5 -24t69.5 -71q8 -18 11.5 -37t5 -56t1.5 -115q0 -68 -1.5 -101.5t-4.5 -51t-11 -34.5q-24 -52 -79 -76v-38z" />
    <glyph glyph-name="estimated" unicode="&#x212e;" horiz-adv-x="832" 
d="M229 32.5q-87 43.5 -139.5 121.5t-52.5 176q0 96 51 174t138 122.5t190 44.5q102 0 188.5 -45t138 -124.5t51.5 -177.5h-608q-6 0 -8 -2.5t-2 -8.5v-197q47 -51 110 -78.5t130 -27.5q73 0 139 32.5t113 88.5h57q-56 -68 -138 -105t-171 -37q-100 0 -187 43.5zM647 347
q5 0 7 2.5t2 8.5v184q-44 51 -108 79.5t-132 28.5q-70 0 -133 -28.5t-107 -78.5v-185q0 -6 2 -8.5t8 -2.5h461z" />
    <glyph glyph-name="partialdiff" unicode="&#x2202;" horiz-adv-x="433" 
d="M402 572q5 -26 7 -74.5t2 -138.5q0 -94 -2.5 -144t-8 -75.5t-15.5 -48.5q-47 -104 -178 -104q-64 0 -107.5 23t-63.5 69q-7 16 -10.5 32.5t-5 45t-1.5 84.5q0 47 1 79t4 47.5t9 28.5q16 35 48 52t78 17q76 0 112 -48q0 78 -2 107t-8 44q-14 32 -51 32q-22 0 -35 -13
q-6 -7 -8.5 -21t-4.5 -37h-133q3 47 12.5 82.5t32.5 58.5q48 49 139 49q129 0 174 -99q10 -22 15 -48zM262.5 162.5q1.5 17.5 1.5 68.5q0 54 -1.5 71.5t-5.5 26.5q-5 14 -17 21.5t-29 7.5q-34 0 -45 -27q-4 -9 -5 -25t-1 -74q0 -46 1 -67t4 -29q12 -27 46 -27q35 0 47 28
q3 8 4.5 25.5z" />
    <glyph glyph-name="Delta" unicode="&#x2206;" horiz-adv-x="456" 
d="M456 0h-456l119 706h218zM297 118l-68 474h-2l-68 -474h138z" />
    <glyph glyph-name="product" unicode="&#x220f;" horiz-adv-x="454" 
d="M29 706h396v-876h-142v750h-112v-750h-142v876z" />
    <glyph glyph-name="summation" unicode="&#x2211;" horiz-adv-x="346" 
d="M137 295l-120 411h320v-125h-139l81 -286l-91 -340h156v-125h-335z" />
    <glyph glyph-name="minus" unicode="&#x2212;" horiz-adv-x="399" 
d="M29 357h342v-101h-342v101z" />
    <glyph glyph-name="uni2215" unicode="&#x2215;" horiz-adv-x="399" 
d="M241 706h112l-196 -706h-111z" />
    <glyph glyph-name="uni2219" unicode="&#x2219;" horiz-adv-x="399" 
d="M143 246.5q-25 23.5 -25 62.5q0 41 24.5 64.5t64.5 23.5q39 0 63 -23.5t24 -64.5q0 -39 -24 -62.5t-63 -23.5t-64 23.5z" />
    <glyph glyph-name="radical" unicode="&#x221a;" horiz-adv-x="484" 
d="M484 706l-165 -876h-165l-85 416l-59 -14v124l161 33l67 -405l104 722h142z" />
    <glyph glyph-name="infinity" unicode="&#x221e;" horiz-adv-x="594" 
d="M571.5 386q3.5 -15 5 -42.5t1.5 -81.5q0 -53 -1.5 -80.5t-5 -42.5t-10.5 -30q-17 -39 -51 -59t-83 -20t-80.5 21.5t-49.5 66.5q-19 -45 -50 -66.5t-80 -21.5t-83.5 20t-51.5 59q-7 15 -10 29.5t-4 45.5t-1 78t1 78.5t4 46t10 29.5q17 38 51.5 58.5t83.5 20.5t80 -21.5
t50 -66.5q18 45 49.5 66.5t80.5 21.5q48 0 82.5 -20.5t51.5 -58.5q7 -15 10.5 -30zM202 155.5q9 9.5 16 34.5t14 72q-7 47 -14 72t-16 34.5t-23 9.5q-21 0 -30 -18q-2 -7 -3 -28t-1 -70t1 -69.5t3 -27.5q10 -19 30 -19q14 0 23 9.5zM448 192q1 21 1 70t-1 70.5t-4 27.5
q-7 18 -29 18q-14 0 -23 -9.5t-16 -34.5t-14 -72q7 -47 14 -72t16 -34.5t23 -9.5q21 0 29 19q3 6 4 27z" />
    <glyph glyph-name="integral" unicode="&#x222b;" horiz-adv-x="301" 
d="M0 -170l21 115q14 -2 19 -2q17 0 24.5 9.5t9.5 30.5l35 594q3 69 37.5 101t104.5 32q18 0 50 -4l-19 -117q-10 2 -13 2q-29 0 -30 -40l-36 -594q-4 -69 -38 -100.5t-103 -31.5q-37 0 -62 5z" />
    <glyph glyph-name="approxequal" unicode="&#x2248;" horiz-adv-x="399" 
d="M223 327.5q-17 7.5 -37 20.5q-9 6 -18.5 10.5t-17.5 4.5q-12 0 -17.5 -9.5t-6.5 -31.5h-85q2 70 24 103t69 33q26 0 43 -7.5t37 -20.5q9 -6 18.5 -10.5t17.5 -4.5q12 0 17 9.5t6 31.5h86q-2 -71 -24 -103.5t-70 -32.5q-25 0 -42 7.5zM222 163.5q-18 7.5 -36 20.5
q-9 6 -18.5 10.5t-17.5 4.5q-12 0 -17.5 -10t-6.5 -32h-85q2 71 24 104t69 33q26 0 43 -7.5t37 -20.5q11 -8 19.5 -11.5t16.5 -3.5q12 0 17 9.5t6 31.5h86q-2 -71 -24 -103.5t-70 -32.5q-25 0 -43 7.5z" />
    <glyph glyph-name="notequal" unicode="&#x2260;" horiz-adv-x="399" 
d="M250 340l-35 -66h156v-102h-203l-46 -89h-62l46 89h-77v102h124l35 66h-159v101h207l46 89h62l-46 -89h73v-101h-121z" />
    <glyph glyph-name="lessequal" unicode="&#x2264;" horiz-adv-x="399" 
d="M371 399l-261 -41l261 -40v-103l-342 71v144l342 71v-102zM29 196h342v-102h-342v102z" />
    <glyph glyph-name="greaterequal" unicode="&#x2265;" horiz-adv-x="399" 
d="M371 430v-144l-342 -71v103l261 40l-261 41v102zM29 196h342v-102h-342v102z" />
    <glyph glyph-name="lozenge" unicode="&#x25ca;" horiz-adv-x="408" 
d="M10 268l120 438h148l120 -438l-120 -438h-148zM268 268l-64 305l-64 -305l64 -305z" />
    <glyph glyph-name="ff" unicode="&#xfb00;" horiz-adv-x="533" 
d="M53 403h-46v119h46v52q0 76 37.5 109t117.5 33q17 0 51 -4v-112q-9 2 -27 2q-26 0 -36.5 -12.5t-10.5 -38.5v-29h68v-119h-68v-403h-132v403zM321 403h-46v119h46v52q0 76 37.5 109t117.5 33q17 0 51 -4v-112q-9 2 -27 2q-26 0 -36.5 -12.5t-10.5 -38.5v-29h68v-119h-68
v-403h-132v403z" />
    <glyph glyph-name="fi" unicode="&#xfb01;" horiz-adv-x="447" 
d="M53 403h-46v119h46v52q0 76 37.5 109t117.5 33q17 0 51 -4v-112q-9 2 -27 2q-26 0 -36.5 -12.5t-10.5 -38.5v-29h68v-119h-68v-403h-132v403zM306.5 588.5q-20.5 19.5 -20.5 50.5t20.5 49.5t51.5 18.5t51 -18.5t20 -49.5t-20.5 -50.5t-50.5 -19.5q-31 0 -51.5 19.5z
M290 522h133v-522h-133v522z" />
    <glyph glyph-name="fl" unicode="&#xfb02;" horiz-adv-x="447" 
d="M53 403h-46v119h46v52q0 76 37.5 109t117.5 33q17 0 51 -4v-112q-9 2 -27 2q-26 0 -36.5 -12.5t-10.5 -38.5v-29h68v-119h-68v-403h-132v403zM290 706h133v-706h-133v706z" />
    <glyph glyph-name="ffi" unicode="&#xfb03;" horiz-adv-x="714" 
d="M53 403h-46v119h46v52q0 76 37.5 109t117.5 33q17 0 51 -4v-112q-9 2 -27 2q-26 0 -36.5 -12.5t-10.5 -38.5v-29h68v-119h-68v-403h-132v403zM321 403h-46v119h46v52q0 76 37.5 109t117.5 33q17 0 51 -4v-112q-9 2 -27 2q-26 0 -36.5 -12.5t-10.5 -38.5v-29h68v-119h-68
v-403h-132v403zM573.5 588.5q-20.5 19.5 -20.5 50.5t20.5 49.5t51.5 18.5t51 -18.5t20 -49.5t-20.5 -50.5t-50.5 -19.5q-31 0 -51.5 19.5zM557 522h133v-522h-133v522z" />
    <glyph glyph-name="ffl" unicode="&#xfb04;" horiz-adv-x="714" 
d="M53 403h-46v119h46v52q0 76 37.5 109t117.5 33q17 0 51 -4v-112q-9 2 -27 2q-26 0 -36.5 -12.5t-10.5 -38.5v-29h68v-119h-68v-403h-132v403zM321 403h-46v119h46v52q0 76 37.5 109t117.5 33q17 0 51 -4v-112q-9 2 -27 2q-26 0 -36.5 -12.5t-10.5 -38.5v-29h68v-119h-68
v-403h-132v403zM557 706h133v-706h-133v706z" />
    <glyph glyph-name="uniFEFF" unicode="&#xfeff;" 
 />
    <glyph glyph-name="uni00A40301" horiz-adv-x="237" 
d="M5 0v130l20 -1q25 0 35.5 12.5t10.5 43.5v521h141v-545q0 -84 -37 -123.5t-120 -39.5q-16 0 -50 2zM147 860h133l-88 -115h-118z" />
    <glyph glyph-name="M.ss01" horiz-adv-x="574" 
d="M29 706h167l92 -233l90 233h167v-706h-135v490l-84 -223h-78l-84 223v-490h-135v706z" />
    <glyph glyph-name="Q.ss02" horiz-adv-x="468" 
d="M351 15l55 -112l-118 -51l-60 135q-64 1 -109 27t-69 76q-12 24 -18 52t-8.5 76.5t-2.5 134.5q0 85 2 131.5t7 73.5t15 50q24 54 72 82.5t117 28.5q70 0 117.5 -28t71.5 -83q10 -23 15.5 -50t7.5 -73.5t2 -131.5t-2 -131.5t-7.5 -73.5t-15.5 -50q-24 -55 -72 -83z
M234 116q23 0 37 9.5t22 27.5q4 10 6 25.5t3 59.5t1 115t-1 115.5t-3 59.5t-6 25q-8 18 -22 27.5t-37 9.5q-44 0 -59 -37q-4 -10 -5.5 -25.5t-2.5 -59.5t-1 -115t1 -115.5t3 -59.5t6 -25q15 -37 58 -37z" />
    <glyph glyph-name="R.ss03" horiz-adv-x="422" 
d="M186 311h-16v-311h-141v706h213q57 0 92.5 -17t51.5 -52q8 -18 11 -43t3 -84q0 -61 -3 -86.5t-11 -42.5q-20 -44 -62 -59l101 -322h-148zM170 416h31q39 0 49 21q4 8 5 19.5t1 50.5q0 35 -1 46.5t-5 18.5q-6 11 -17.5 15.5t-31.5 4.5h-31v-176z" />
    <glyph glyph-name="Racute.ss03" horiz-adv-x="425" 
d="M186 311h-16v-311h-141v706h213q57 0 92.5 -17t51.5 -52q8 -18 11 -43t3 -84q0 -61 -3 -86.5t-11 -42.5q-20 -44 -62 -59l101 -322h-148zM170 416h31q39 0 49 21q4 8 5 19.5t1 50.5q0 35 -1 46.5t-5 18.5q-6 11 -17.5 15.5t-31.5 4.5h-31v-176zM216 860h133l-88 -115
h-118z" />
    <glyph glyph-name="Rcaron.ss03" horiz-adv-x="425" 
d="M186 311h-16v-311h-141v706h213q57 0 92.5 -17t51.5 -52q8 -18 11 -43t3 -84q0 -61 -3 -86.5t-11 -42.5q-20 -44 -62 -59l101 -322h-148zM170 416h31q39 0 49 21q4 8 5 19.5t1 50.5q0 35 -1 46.5t-5 18.5q-6 11 -17.5 15.5t-31.5 4.5h-31v-176zM288 745h-149l-73 115h112
l35 -57l36 57h111z" />
    <glyph glyph-name="uni0156.ss03" horiz-adv-x="425" 
d="M186 311h-16v-311h-141v706h213q57 0 92.5 -17t51.5 -52q8 -18 11 -43t3 -84q0 -61 -3 -86.5t-11 -42.5q-20 -44 -62 -59l101 -322h-148zM170 416h31q39 0 49 21q4 8 5 19.5t1 50.5q0 35 -1 46.5t-5 18.5q-6 11 -17.5 15.5t-31.5 4.5h-31v-176zM144 -41h133l-35 -129
h-123z" />
    <glyph glyph-name="Oslash.ss04" horiz-adv-x="468" 
d="M423 608q10 -23 15.5 -50t7.5 -73.5t2 -131.5t-2 -131.5t-7.5 -73.5t-15.5 -50q-24 -55 -71.5 -83t-117.5 -28q-49 0 -88 15l-48 -75l-94 58l56 87q-4 6 -10 18q-12 24 -18 52t-8.5 76.5t-2.5 134.5q0 85 2 131.5t7 73.5t15 50q24 54 72 82.5t117 28.5q54 0 93 -16l46 75
l96 -56l-58 -91q3 -4 12 -23zM299 178.5q2 15.5 3 59.5t1 115t-1 115.5t-3 59.5t-6 25q-8 18 -22 27.5t-37 9.5q-44 0 -59 -37q-4 -10 -5.5 -25.5t-2.5 -59.5t-1 -115t1 -115.5t3 -59.5t6 -25q15 -37 58 -37q23 0 37 9.5t22 27.5q4 10 6 25.5z" />
    <glyph glyph-name="i.loclTRK" horiz-adv-x="181" 
d="M24 522h133v-522h-133v522zM40.5 588.5q-20.5 19.5 -20.5 50.5t20.5 49.5t51.5 18.5t51 -18.5t20 -49.5t-20 -50.5t-51 -19.5t-51.5 19.5z" />
    <glyph glyph-name="uni006A0301" horiz-adv-x="186" 
d="M-24 -170v116q8 -1 19 -1q19 0 27 9.5t8 30.5v537h132v-562q0 -70 -33 -101t-103 -31q-34 0 -50 2zM77 706h124l-69 -139h-106z" />
    <glyph glyph-name="oslash.ss04" horiz-adv-x="393" 
d="M359 442q7 -18 11 -36.5t5.5 -51.5t1.5 -93t-1.5 -93t-5.5 -51.5t-11 -35.5q-20 -44 -60.5 -67t-101.5 -23q-26 0 -53 5l-33 -62l-96 47l38 69q-10 13 -18 30t-11.5 36t-5 51t-1.5 94t1.5 94t5 51t11.5 36q20 43 60.5 66t101.5 23q25 0 52 -5l33 63l97 -47l-39 -69
q10 -11 19 -31zM238.5 159q1.5 24 1.5 102t-1.5 102.5t-5.5 34.5q-5 11 -13.5 16t-22.5 5q-15 0 -23.5 -5t-13.5 -16q-4 -9 -5 -32.5t-1 -104.5t1 -104t5 -32q9 -22 37 -22q27 0 36 22q4 10 5.5 34z" />
    <glyph glyph-name="r.ss05" horiz-adv-x="305" 
d="M24 522h132v-40q14 25 31 36.5t42 11.5q32 0 52 -20t20 -54q0 -33 -20.5 -53.5t-53.5 -20.5q-17 0 -31.5 6.5t-22.5 17.5q-10 -4 -13 -14t-3 -36v-356h-133v522z" />
    <glyph glyph-name="racute.ss05" horiz-adv-x="305" 
d="M24 522h132v-40q14 25 31 36.5t42 11.5q32 0 52 -20t20 -54q0 -33 -20.5 -53.5t-53.5 -20.5q-17 0 -31.5 6.5t-22.5 17.5q-10 -4 -13 -14t-3 -36v-356h-133v522zM137 706h124l-69 -139h-106z" />
    <glyph glyph-name="rcaron.ss05" horiz-adv-x="305" 
d="M24 522h132v-40q14 25 31 36.5t42 11.5q32 0 52 -20t20 -54q0 -33 -20.5 -53.5t-53.5 -20.5q-17 0 -31.5 6.5t-22.5 17.5q-10 -4 -13 -14t-3 -36v-356h-133v522zM126 706l27 -73l26 73h84l-48 -140h-124l-49 140h84z" />
    <glyph glyph-name="uni0157.ss05" horiz-adv-x="305" 
d="M24 522h132v-40q14 25 31 36.5t42 11.5q32 0 52 -20t20 -54q0 -33 -20.5 -53.5t-53.5 -20.5q-17 0 -31.5 6.5t-22.5 17.5q-10 -4 -13 -14t-3 -36v-356h-133v522zM24 -41h133l-35 -129h-123z" />
    <glyph glyph-name="f_i" horiz-adv-x="447" 
d="M53 403h-46v119h46v52q0 76 37.5 109t117.5 33q17 0 51 -4v-112q-9 2 -27 2q-26 0 -36.5 -12.5t-10.5 -38.5v-29h68v-119h-68v-403h-132v403zM306.5 588.5q-20.5 19.5 -20.5 50.5t20.5 49.5t51.5 18.5t51 -18.5t20 -49.5t-20.5 -50.5t-50.5 -19.5q-31 0 -51.5 19.5z
M290 522h133v-522h-133v522z" />
    <glyph glyph-name="f_l" horiz-adv-x="447" 
d="M53 403h-46v119h46v52q0 76 37.5 109t117.5 33q17 0 51 -4v-112q-9 2 -27 2q-26 0 -36.5 -12.5t-10.5 -38.5v-29h68v-119h-68v-403h-132v403zM290 706h133v-706h-133v706z" />
    <glyph glyph-name="zero.tf" horiz-adv-x="421" 
d="M105 11.5q-42 24.5 -64 75.5q-10 23 -15 49.5t-7.5 75.5t-2.5 141t2.5 141t7.5 75.5t15 49.5q22 51 64 75.5t105 24.5t105 -24.5t64 -75.5q10 -23 15 -49.5t7.5 -75.5t2.5 -141t-2.5 -141t-7.5 -75.5t-15 -49.5q-22 -51 -64 -75.5t-105 -24.5t-105 24.5zM255 140
q3 9 4.5 25t2 64.5t0.5 123.5t-0.5 123t-2 64.5t-4.5 25.5q-11 26 -45 26q-33 0 -44 -26q-4 -9 -5 -25t-1.5 -64.5t-0.5 -123.5t0.5 -124t1.5 -65t5 -24q11 -26 44 -26q34 0 45 26z" />
    <glyph glyph-name="one.tf" horiz-adv-x="421" 
d="M161 575h-94l22 131h211v-706h-139v575z" />
    <glyph glyph-name="two.tf" horiz-adv-x="421" 
d="M23 2l177 360q21 43 30 64.5t13 41.5t4 47q0 30 -1 40t-4 16q-9 23 -39 23q-31 0 -40 -24q-4 -9 -5.5 -27t-1.5 -64h-132q0 67 3.5 98t14.5 57q39 85 164 85q62 0 104 -22.5t62 -66.5q9 -20 12 -42.5t3 -60.5q0 -51 -11.5 -96.5t-35.5 -91.5q-34 -76 -105 -212h154v-127
h-366v2z" />
    <glyph glyph-name="three.tf" horiz-adv-x="421" 
d="M392.5 286q2.5 -20 2.5 -72q0 -48 -1.5 -73.5t-4.5 -39t-9 -27.5q-19 -43 -61 -65t-112 -22q-63 0 -105 20t-62 64q-11 24 -14.5 56.5t-3.5 105.5h133q-1 -49 0.5 -69t6.5 -29q5 -12 16 -18.5t27 -6.5q35 0 44 25q3 7 4 26.5t1 58.5q0 37 -1 49t-5 20q-7 15 -24 22t-45 7
h-18v109h18q28 0 43.5 7t22.5 21q4 8 5 18.5t1 41.5q0 28 -1 42t-4 21q-9 23 -41 23q-17 0 -26.5 -6t-15.5 -18q-2 -7 -3 -27.5t-1 -52.5h-133q0 56 3.5 86t12.5 52q20 44 63.5 64t103.5 20q128 0 165 -84q9 -19 11.5 -40.5t2.5 -75.5q0 -43 -2 -59t-9 -31q-8 -19 -23.5 -32
t-40.5 -21q27 -8 44 -21t26 -33q7 -16 9.5 -36z" />
    <glyph glyph-name="four.tf" horiz-adv-x="421" 
d="M414 143h-50v-143h-131v143h-231v1l127 562h235v-436h50v-127zM233 270v378h-2l-76 -378h78z" />
    <glyph glyph-name="five.tf" horiz-adv-x="421" 
d="M106 8q-42 21 -63 65q-10 23 -14 57t-4 101h133q0 -53 1.5 -71.5t5.5 -27.5q5 -12 15.5 -18t26.5 -6q32 0 42 25q4 8 5 23.5t1 71.5q0 50 -2 70.5t-7 32.5q-10 21 -35.5 30.5t-65.5 9.5q-22 0 -49.5 -2t-51.5 -6l38 343h303l-22 -128h-165l-13 -113q27 6 55 6
q104 0 139 -77q9 -21 12.5 -51.5t3.5 -106.5q0 -55 -1.5 -84.5t-4.5 -46.5t-10 -32q-39 -86 -167 -86q-64 0 -106 21z" />
    <glyph glyph-name="six.tf" horiz-adv-x="422" 
d="M400 365q3 -15 4 -47t1 -78q0 -55 -1.5 -83t-5 -44.5t-10.5 -33.5q-20 -45 -63.5 -68.5t-106.5 -23.5q-128 0 -174 103q-10 23 -15 50t-7 74.5t-2 135.5q0 89 2 136.5t7 76.5t16 53q48 103 174 103q87 0 134 -47q24 -25 34 -64.5t12 -104.5h-130q-2 41 -4.5 59t-9.5 25
q-13 14 -36 14q-37 0 -52 -34q-7 -14 -9 -43t-2 -111q18 24 46.5 36.5t65.5 12.5q92 0 123 -69q6 -13 9 -28zM266.5 161q1.5 17 1.5 70t-1.5 70.5t-4.5 26.5q-12 28 -45 28q-18 0 -30 -8t-17 -22q-4 -8 -5.5 -25t-1.5 -71q0 -51 1.5 -67.5t5.5 -26.5q12 -28 46 -28
q17 0 29 7t17 20q3 9 4.5 26z" />
    <glyph glyph-name="seven.tf" horiz-adv-x="421" 
d="M230 575h-205v131h383l-177 -706h-150z" />
    <glyph glyph-name="eight.tf" horiz-adv-x="421" 
d="M399 294q3 -26 3 -88q0 -64 -3 -89t-11 -43q-19 -42 -64 -64.5t-114 -22.5t-114.5 22.5t-64.5 64.5q-8 19 -10.5 44t-2.5 88t2.5 88t10.5 42q19 43 73 58q-24 7 -41.5 21t-26.5 34q-7 14 -9 33t-2 62q0 38 2.5 57.5t10.5 35.5q17 40 61 61t111 21q66 0 110 -21t62 -61
q7 -16 10 -36t3 -57q0 -43 -2 -62t-9 -33q-17 -39 -68 -55q53 -15 72 -57q8 -17 11 -43zM163 569q-1 -11 -1 -45q0 -29 1 -43t4 -21q12 -24 43 -24t42 24q3 7 4 21t1 43q0 28 -1 42t-4 22q-11 23 -42 23q-16 0 -26.5 -6t-15.5 -17q-4 -8 -5 -19zM260 157q1 19 1 61
q0 51 -1 65.5t-5 21.5q-5 12 -17 19t-28 7q-33 0 -46 -26q-3 -7 -4 -26.5t-1 -60.5q0 -42 1 -61t4 -27q12 -25 46 -25t46 26q3 7 4 26z" />
    <glyph glyph-name="nine.tf" horiz-adv-x="421" 
d="M391.5 566q5.5 -27 7.5 -74.5t2 -135.5q0 -87 -2 -135.5t-7.5 -77.5t-16.5 -53q-46 -103 -174 -103q-85 0 -134 47q-23 25 -33 65t-12 104h130q2 -41 4.5 -59t9.5 -25q13 -14 36 -14q37 0 52 34q6 15 8.5 45t2.5 110q-17 -25 -45.5 -37.5t-66.5 -12.5q-45 0 -76.5 17.5
t-46.5 51.5q-6 14 -9 29t-4.5 43.5t-1.5 80.5q0 55 1.5 83t5 44.5t11.5 33.5q20 45 63 68.5t107 23.5q127 0 173 -103q10 -23 15.5 -50zM256 404q1 16 1 72q0 53 -1 69t-5 25q-6 14 -18 21t-28 7q-35 0 -46 -27q-4 -9 -5 -24.5t-1 -71.5q0 -53 1.5 -70.5t4.5 -26.5
q11 -28 45 -28t47 30q4 8 5 24z" />
    <glyph glyph-name="zero.dnom" horiz-adv-x="294" 
d="M32 54q-8 18 -11 44.5t-3 95.5t3 95.5t11 44.5q27 61 115 61q89 0 116 -61q8 -19 10.5 -45.5t2.5 -94.5t-2.5 -94.5t-10.5 -45.5q-27 -61 -116 -61q-88 0 -115 61zM170 92q2 5 2.5 27.5t0.5 74.5t-0.5 74.5t-2.5 27.5q-6 13 -23 13q-15 0 -22 -13q-2 -6 -3 -28t-1 -74
t1 -74t3 -28q7 -13 22 -13q17 0 23 13z" />
    <glyph glyph-name="one.dnom" horiz-adv-x="185" 
d="M55 299h-51l13 89h141v-388h-103v299z" />
    <glyph glyph-name="two.dnom" horiz-adv-x="261" 
d="M4 3l119 195q16 26 22 40.5t6 34.5q0 14 -0.5 21t-2.5 9q-5 11 -20 11t-22 -12q-2 -4 -2.5 -11t-0.5 -21h-95q0 31 2.5 45.5t8.5 26.5q22 53 109 53q88 0 112 -52q5 -11 7 -23t2 -31q0 -34 -6 -57t-22 -49q-30 -52 -59 -95h85v-88h-243v3z" />
    <glyph glyph-name="three.dnom" horiz-adv-x="267" 
d="M250.5 158q1.5 -12 1.5 -40q0 -35 -2 -48.5t-7 -25.5q-12 -26 -42 -38.5t-73 -12.5t-69 12t-38 39q-7 13 -9 30.5t-2 59.5h91q0 -22 0.5 -33t2.5 -15q5 -12 22 -12q16 0 23 10q2 8 2 38q0 16 -0.5 23.5t-2.5 11.5q-4 7 -12.5 10t-24.5 3h-9v71h10q15 0 23 3t11 10
q2 4 3 9.5t1 15.5q0 11 -0.5 17t-2.5 9q-4 9 -19 9q-16 0 -21 -11q-2 -4 -2.5 -11t-0.5 -22h-91q0 30 1.5 44t6.5 26q14 30 42 42.5t68 12.5q86 0 109 -51q5 -9 6.5 -21t1.5 -40q0 -20 -1 -28.5t-5 -15.5q-10 -20 -38 -31q30 -7 40 -29q5 -9 6.5 -21z" />
    <glyph glyph-name="four.dnom" horiz-adv-x="301" 
d="M162 69h-167v2l89 317h173v-230h37v-89h-37v-69h-95v69zM162 158v194l-48 -194h48z" />
    <glyph glyph-name="five.dnom" horiz-adv-x="269" 
d="M20 47q-5 13 -7.5 31.5t-2.5 53.5h94q0 -20 0.5 -30t2.5 -15q7 -13 24 -13t22 11q2 4 2.5 13.5t0.5 28.5t-1 29.5t-4 16.5q-7 12 -23 16.5t-45 4.5q-31 0 -64 -5l23 199h204l-10 -80h-109l-5 -51q15 3 39 3q33 0 55 -11.5t31 -32.5q6 -12 8 -27.5t2 -55.5q0 -39 -2 -56.5
t-7 -28.5q-13 -29 -43 -42t-72 -13q-87 0 -113 54z" />
    <glyph glyph-name="six.dnom" horiz-adv-x="290" 
d="M273.5 184q1.5 -14 1.5 -51q0 -39 -2 -54t-8 -29q-13 -28 -43 -42.5t-74 -14.5q-91 0 -119 61q-5 12 -8 24.5t-4 41.5t-1 73q0 42 1 70.5t4 42.5t9 28q15 31 44.5 46t74.5 15q32 0 53.5 -7t37.5 -23q13 -13 18.5 -34t8.5 -53h-92q0 13 -1.5 20.5t-4.5 11.5q-6 7 -20 7
q-11 0 -18 -4t-11 -13q-2 -6 -3 -21.5t-1 -46.5q22 21 67 21q30 0 52 -11t32 -32q5 -12 6.5 -26zM171.5 96.5q0.5 9.5 0.5 29.5q0 22 -0.5 31.5t-2.5 13.5q-6 12 -22 12t-23 -13q-2 -3 -2.5 -13t-0.5 -31q0 -19 0.5 -28.5t2.5 -13.5q7 -13 23 -13q18 0 22 13q2 3 2.5 12.5z
" />
    <glyph glyph-name="seven.dnom" horiz-adv-x="243" 
d="M111 300h-100v88h233l-111 -388h-108z" />
    <glyph glyph-name="eight.dnom" horiz-adv-x="281" 
d="M264.5 159q1.5 -12 1.5 -43q0 -32 -1.5 -45t-6.5 -24q-12 -26 -42.5 -40t-74.5 -14q-45 0 -75.5 14t-42.5 40q-4 10 -6 23.5t-2 45.5t1.5 44t6.5 21q11 25 44 35q-33 11 -43 35q-4 8 -5 17.5t-1 30.5q0 17 1.5 26.5t5.5 18.5q11 24 41.5 37.5t74.5 13.5t74 -13.5
t41 -37.5q4 -10 5.5 -19t1.5 -26q0 -19 -1.5 -29t-5.5 -18q-10 -25 -42 -36q31 -10 44 -35q5 -10 6.5 -22zM117.5 305.5q-0.5 -6.5 -0.5 -18.5q0 -13 0.5 -20t1.5 -10q5 -11 22 -11t21 12q1 2 1.5 9t0.5 20q0 12 -0.5 18.5t-1.5 9.5q-5 11 -21 11q-17 0 -22 -11
q-1 -3 -1.5 -9.5zM166 122q0 33 -2 41q-6 12 -23 12q-18 0 -24 -12q-2 -8 -2 -41t2 -41q7 -13 24 -13t23 13q2 8 2 41z" />
    <glyph glyph-name="nine.dnom" horiz-adv-x="290" 
d="M269.5 309.5q2.5 -12.5 3.5 -41.5t1 -73q0 -42 -1 -71t-4 -42.5t-9 -27.5q-28 -61 -118 -61q-32 0 -53.5 7t-37.5 23q-14 13 -19 33.5t-8 53.5h92q0 -13 1.5 -20.5t4.5 -11.5q6 -7 20 -7q21 0 28 17q3 7 4 20t1 49q-24 -22 -68 -22q-30 0 -52 11t-32 32q-5 11 -6 24.5
t-1 52.5q0 41 2 55.5t8 27.5q13 28 42.5 42.5t73.5 14.5q92 0 120 -61q5 -12 7.5 -24.5zM169 231q1 10 1 31q0 19 -0.5 28.5t-2.5 13.5q-6 13 -23 13t-23 -13q-2 -3 -2.5 -12.5t-0.5 -29.5q0 -22 0.5 -31.5t2.5 -13.5q6 -12 23 -12q8 0 14 3.5t8 9.5q2 3 3 13z" />
    <glyph glyph-name="zero.numr" horiz-adv-x="294" 
d="M32 372q-8 18 -11 44.5t-3 95.5t3 95.5t11 44.5q27 61 115 61q89 0 116 -61q8 -19 10.5 -45.5t2.5 -94.5t-2.5 -94.5t-10.5 -45.5q-27 -61 -116 -61q-88 0 -115 61zM170 410q2 5 2.5 27.5t0.5 74.5t-0.5 74.5t-2.5 27.5q-6 13 -23 13q-15 0 -22 -13q-2 -6 -3 -28t-1 -74
t1 -74t3 -28q7 -13 22 -13q17 0 23 13z" />
    <glyph glyph-name="one.numr" horiz-adv-x="185" 
d="M55 617h-51l13 89h141v-388h-103v299z" />
    <glyph glyph-name="two.numr" horiz-adv-x="261" 
d="M4 321l119 195q16 26 22 40.5t6 34.5q0 14 -0.5 21t-2.5 9q-5 11 -20 11t-22 -12q-2 -4 -2.5 -11t-0.5 -21h-95q0 31 2.5 45.5t8.5 26.5q22 53 109 53q88 0 112 -52q5 -11 7 -23t2 -31q0 -34 -6 -57t-22 -49q-30 -52 -59 -95h85v-88h-243v3z" />
    <glyph glyph-name="three.numr" horiz-adv-x="267" 
d="M250.5 476q1.5 -12 1.5 -40q0 -35 -2 -48.5t-7 -25.5q-12 -26 -42 -38.5t-73 -12.5t-69 12t-38 39q-7 13 -9 30.5t-2 59.5h91q0 -22 0.5 -33t2.5 -15q5 -12 22 -12q16 0 23 10q2 8 2 38q0 16 -0.5 23.5t-2.5 11.5q-4 7 -12.5 10t-24.5 3h-9v71h10q15 0 23 3t11 10
q2 4 3 9.5t1 15.5q0 11 -0.5 17t-2.5 9q-4 9 -19 9q-16 0 -21 -11q-2 -4 -2.5 -11t-0.5 -22h-91q0 30 1.5 44t6.5 26q14 30 42 42.5t68 12.5q86 0 109 -51q5 -9 6.5 -21t1.5 -40q0 -20 -1 -28.5t-5 -15.5q-10 -20 -38 -31q30 -7 40 -29q5 -9 6.5 -21z" />
    <glyph glyph-name="four.numr" horiz-adv-x="301" 
d="M162 387h-167v2l89 317h173v-230h37v-89h-37v-69h-95v69zM162 476v194l-48 -194h48z" />
    <glyph glyph-name="five.numr" horiz-adv-x="269" 
d="M20 365q-5 13 -7.5 31.5t-2.5 53.5h94q0 -20 0.5 -30t2.5 -15q7 -13 24 -13t22 11q2 4 2.5 13.5t0.5 28.5t-1 29.5t-4 16.5q-7 12 -23 16.5t-45 4.5q-31 0 -64 -5l23 199h204l-10 -80h-109l-5 -51q15 3 39 3q33 0 55 -11.5t31 -32.5q6 -12 8 -27.5t2 -55.5
q0 -39 -2 -56.5t-7 -28.5q-13 -29 -43 -42t-72 -13q-87 0 -113 54z" />
    <glyph glyph-name="six.numr" horiz-adv-x="290" 
d="M273.5 502q1.5 -14 1.5 -51q0 -39 -2 -54t-8 -29q-13 -28 -43 -42.5t-74 -14.5q-91 0 -119 61q-5 12 -8 24.5t-4 41.5t-1 73q0 42 1 70.5t4 42.5t9 28q15 31 44.5 46t74.5 15q32 0 53.5 -7t37.5 -23q13 -13 18.5 -34t8.5 -53h-92q0 13 -1.5 20.5t-4.5 11.5q-6 7 -20 7
q-11 0 -18 -4t-11 -13q-2 -6 -3 -21.5t-1 -46.5q22 21 67 21q30 0 52 -11t32 -32q5 -12 6.5 -26zM171.5 414.5q0.5 9.5 0.5 29.5q0 22 -0.5 31.5t-2.5 13.5q-6 12 -22 12t-23 -13q-2 -3 -2.5 -13t-0.5 -31q0 -19 0.5 -28.5t2.5 -13.5q7 -13 23 -13q18 0 22 13q2 3 2.5 12.5z
" />
    <glyph glyph-name="seven.numr" horiz-adv-x="243" 
d="M111 618h-100v88h233l-111 -388h-108z" />
    <glyph glyph-name="eight.numr" horiz-adv-x="281" 
d="M264.5 477q1.5 -12 1.5 -43q0 -32 -1.5 -45t-6.5 -24q-12 -26 -42.5 -40t-74.5 -14q-45 0 -75.5 14t-42.5 40q-4 10 -6 23.5t-2 45.5t1.5 44t6.5 21q11 25 44 35q-33 11 -43 35q-4 8 -5 17.5t-1 30.5q0 17 1.5 26.5t5.5 18.5q11 24 41.5 37.5t74.5 13.5t74 -13.5
t41 -37.5q4 -10 5.5 -19t1.5 -26q0 -19 -1.5 -29t-5.5 -18q-10 -25 -42 -36q31 -10 44 -35q5 -10 6.5 -22zM117.5 623.5q-0.5 -6.5 -0.5 -18.5q0 -13 0.5 -20t1.5 -10q5 -11 22 -11t21 12q1 2 1.5 9t0.5 20q0 12 -0.5 18.5t-1.5 9.5q-5 11 -21 11q-17 0 -22 -11
q-1 -3 -1.5 -9.5zM166 440q0 33 -2 41q-6 12 -23 12q-18 0 -24 -12q-2 -8 -2 -41t2 -41q7 -13 24 -13t23 13q2 8 2 41z" />
    <glyph glyph-name="nine.numr" horiz-adv-x="290" 
d="M269.5 627.5q2.5 -12.5 3.5 -41.5t1 -73q0 -42 -1 -71t-4 -42.5t-9 -27.5q-28 -61 -118 -61q-32 0 -53.5 7t-37.5 23q-14 13 -19 33.5t-8 53.5h92q0 -13 1.5 -20.5t4.5 -11.5q6 -7 20 -7q21 0 28 17q3 7 4 20t1 49q-24 -22 -68 -22q-30 0 -52 11t-32 32q-5 11 -6 24.5
t-1 52.5q0 41 2 55.5t8 27.5q13 28 42.5 42.5t73.5 14.5q92 0 120 -61q5 -12 7.5 -24.5zM169 549q1 10 1 31q0 19 -0.5 28.5t-2.5 13.5q-6 13 -23 13t-23 -13q-2 -3 -2.5 -12.5t-0.5 -29.5q0 -22 0.5 -31.5t2.5 -13.5q6 -12 23 -12q8 0 14 3.5t8 9.5q2 3 3 13z" />
    <glyph glyph-name="colon.case" horiz-adv-x="250" 
d="M69.5 120.5q-21.5 20.5 -21.5 54.5q0 35 21.5 55.5t55.5 20.5t55 -20.5t21 -55.5q0 -34 -21 -54.5t-55 -20.5t-55.5 20.5zM69.5 475.5q-21.5 20.5 -21.5 54.5q0 35 21.5 55.5t55.5 20.5t55 -20.5t21 -55.5q0 -34 -21 -54.5t-55 -20.5t-55.5 20.5z" />
    <glyph glyph-name="semicolon.case" horiz-adv-x="250" 
d="M65 270h121l-68 -319h-97zM69.5 475.5q-21.5 20.5 -21.5 54.5q0 35 21.5 55.5t55.5 20.5t55 -20.5t21 -55.5q0 -34 -21 -54.5t-55 -20.5t-55.5 20.5z" />
    <glyph glyph-name="exclamdown.case" horiz-adv-x="247" 
d="M178.5 692.5q21.5 -20.5 21.5 -54.5q0 -35 -21.5 -55.5t-55.5 -20.5t-55 20.5t-21 55.5q0 34 21 54.5t55 20.5t55.5 -20.5zM194 -4h-141l16 503h109z" />
    <glyph glyph-name="questiondown.case" horiz-adv-x="401" 
d="M265.5 697.5q21.5 -20.5 21.5 -54.5q0 -35 -21.5 -55.5t-55.5 -20.5t-55 20.5t-21 55.5q0 34 21 54.5t55 20.5t55.5 -20.5zM268 474q-39 -106 -64 -175.5t-32 -97.5t-7 -53q0 -24 8.5 -35.5t29.5 -11.5q14 0 22.5 5t12.5 15q3 8 3.5 24t0.5 49h134q0 -56 -2.5 -78.5
t-11.5 -42.5q-19 -42 -61 -63.5t-102 -21.5q-83 0 -128.5 41t-45.5 114q0 24 5.5 48.5t24.5 81.5t49 142l31 89h144z" />
    <glyph glyph-name="periodcentered.case" horiz-adv-x="250" 
d="M69.5 316.5q-21.5 20.5 -21.5 54.5q0 35 21.5 55.5t55.5 20.5t55 -20.5t21 -55.5q0 -34 -21 -54.5t-55 -20.5t-55.5 20.5z" />
    <glyph glyph-name="periodcentered.loclCAT.case" horiz-adv-x="93" 
d="M-46.5 344.5q-21.5 20.5 -21.5 54.5q0 35 21.5 55.5t55.5 20.5t55 -20.5t21 -55.5q0 -34 -21 -54.5t-55 -20.5t-55.5 20.5z" />
    <glyph glyph-name="slash.case" horiz-adv-x="365" 
d="M231 756h125l-212 -806h-125z" />
    <glyph glyph-name="periodcentered.loclCAT" horiz-adv-x="167" 
d="M28.5 314.5q-21.5 20.5 -21.5 54.5q0 35 21.5 55.5t55.5 20.5t55 -20.5t21 -55.5q0 -34 -21 -54.5t-55 -20.5t-55.5 20.5z" />
    <glyph glyph-name="parenleft.case" horiz-adv-x="255" 
d="M62.5 101.5q-22.5 109.5 -22.5 251.5q0 143 23 252t73 222h110q-44 -112 -66 -227.5t-22 -246.5t22 -246t66 -228h-111q-50 113 -72.5 222.5z" />
    <glyph glyph-name="parenright.case" horiz-adv-x="255" 
d="M9 -121q44 113 66 228t22 246t-22 246.5t-66 227.5h110q50 -113 73 -222t23 -252q0 -142 -23 -251t-73 -223h-110z" />
    <glyph glyph-name="braceleft.case" horiz-adv-x="269" 
d="M179 384q-16 -25 -55 -31q39 -6 55 -31t16 -75v-201q0 -24 4.5 -38t16.5 -20t34 -6h6v-100h-36q-70 0 -102 34.5t-32 107.5v207q0 24 -5.5 37t-18 18.5t-34.5 5.5v122q23 0 35.5 5.5t17.5 18.5t5 37v207q0 73 32 107.5t102 34.5h36v-100h-6q-22 0 -34 -6t-16.5 -20
t-4.5 -38v-201q0 -50 -16 -75z" />
    <glyph glyph-name="braceright.case" horiz-adv-x="269" 
d="M188 438q5 -13 17.5 -18.5t35.5 -5.5v-122q-22 0 -34.5 -5.5t-18 -18.5t-5.5 -37v-207q0 -73 -32 -107.5t-102 -34.5h-36v100h6q22 0 33.5 6t16 19.5t4.5 38.5v201q0 50 16 75t55 31q-39 6 -55 31.5t-16 74.5v201q0 25 -4.5 38.5t-16 19.5t-33.5 6h-6v100h36
q70 0 102 -34.5t32 -107.5v-207q0 -24 5 -37z" />
    <glyph glyph-name="bracketleft.case" horiz-adv-x="239" 
d="M49 827h177v-106h-60v-735h60v-107h-177v948z" />
    <glyph glyph-name="bracketright.case" horiz-adv-x="239" 
d="M13 -121v107h60v735h-60v106h177v-948h-177z" />
    <glyph glyph-name="hyphen.case" horiz-adv-x="270" 
d="M29 429h210v-117h-210v117z" />
    <glyph glyph-name="uni00AD.case" horiz-adv-x="268" 
d="M29 429h210v-117h-210v117z" />
    <glyph glyph-name="endash.case" horiz-adv-x="328" 
d="M29 429h271v-115h-271v115z" />
    <glyph glyph-name="emdash.case" horiz-adv-x="656" 
d="M29 429h598v-115h-598v115z" />
    <glyph glyph-name="guillemotleft.case" horiz-adv-x="392" 
d="M8 366l89 163h120l-88 -163l88 -163h-120zM174 366l89 163h120l-88 -163l88 -163h-120z" />
    <glyph glyph-name="guillemotright.case" horiz-adv-x="392" 
d="M9 203l88 163l-88 163h120l89 -163l-89 -163h-120zM175 203l88 163l-88 163h121l88 -163l-88 -163h-121z" />
    <glyph glyph-name="guilsinglleft.case" horiz-adv-x="226" 
d="M8 366l89 163h120l-88 -163l88 -163h-120z" />
    <glyph glyph-name="guilsinglright.case" horiz-adv-x="226" 
d="M9 203l88 163l-88 163h120l89 -163l-89 -163h-120z" />
    <glyph glyph-name="cent.ss06" horiz-adv-x="387" 
d="M226.5 215.5q2.5 7.5 3.5 27.5t1 51h139q-1 -51 -5 -81.5t-13.5 -51t-28.5 -37.5q-31 -28 -79 -37v-87h-97v87q-40 7 -68.5 28.5t-43.5 56.5q-8 17 -11.5 35.5t-5 51t-1.5 94.5t1.5 94.5t5 51.5t11.5 36q30 69 112 84v87h97v-87q50 -9 79 -37q19 -17 28.5 -37t13.5 -48
t5 -73h-138q0 26 -1.5 43.5t-4 24.5t-7.5 11q-8 8 -24 8q-26 0 -34 -21q-4 -9 -5 -31.5t-1 -105.5t1 -105.5t5 -31.5q11 -21 34 -21q14 0 24 8q5 5 7.5 12.5z" />
    <glyph glyph-name="dollar.ss06" horiz-adv-x="415" 
d="M398 271.5q3 -25.5 3 -78.5q0 -48 -3 -71t-13 -45q-17 -35 -49.5 -57t-79.5 -29v-86h-100v85q-48 7 -80 29t-47 56q-7 15 -10 29t-4.5 39t-1.5 72h149q0 -41 1 -59.5t4 -26.5q11 -24 42 -24q15 0 25 5.5t15 16.5q2 6 3 18.5t1 38.5q0 27 -1.5 39t-6.5 24q-6 12 -17 21
t-27.5 17t-34.5 16l-19 8q-43 22 -70 44t-41 51q-9 21 -12 47t-3 74q0 43 3 64.5t12 42.5q15 34 45.5 54.5t74.5 28.5v86h99v-86q85 -13 117 -80q7 -15 10 -28.5t4 -41t1 -68.5h-143q0 40 -1 58.5t-4 26.5q-9 21 -37 21q-27 0 -37 -21q-2 -6 -2.5 -16.5t-0.5 -32.5
q0 -26 1.5 -37.5t5.5 -21.5q7 -15 23 -24.5t50 -23.5l20 -9q50 -22 79.5 -44t43.5 -53q10 -23 13 -48.5z" />
    <glyph glyph-name="paragraph.ss07" horiz-adv-x="516" 
d="M198 276h-32q-57 0 -91.5 17.5t-50.5 53.5q-9 20 -12 47.5t-3 96.5q0 68 3 96t12 48q16 37 51.5 54t94.5 17h341v-112h-41v-764h-112v764h-49v-764h-111v446zM198 388v207h-21q-18 0 -28 -4.5t-15 -16.5q-4 -8 -5 -22t-1 -61q0 -39 1 -57t4 -26q6 -11 16 -15.5t27 -4.5
h22z" />
    <glyph glyph-name="caroncomb.alt" 
d="M-92 706h98l-29 -154h-84z" />
    <glyph glyph-name="uni0335.Eth" 
d="M-244 424h244v-108h-244v108z" />
    <glyph glyph-name="uni0335.Tbar" 
d="M-322 402h272v-105h-272v105z" />
    <glyph glyph-name="caron.alt" horiz-adv-x="213" 
d="M65 706h98l-29 -154h-84z" />
    <glyph glyph-name="uni0308.case" 
d="M-326 761.5q-18 17.5 -18 45.5q0 29 18.5 46t46.5 17t46 -17t18 -46q0 -28 -18 -45.5t-46 -17.5q-29 0 -47 17.5zM-160 761.5q-18 17.5 -18 45.5q0 29 18 46t46 17t46 -17t18 -46q0 -28 -18 -45.5t-46 -17.5t-46 17.5z" />
    <glyph glyph-name="uni0307.case" 
d="M-167.5 762q-19.5 18 -19.5 48t19.5 48t49.5 18t49 -18t19 -48t-19 -48t-49 -18t-49.5 18z" />
    <glyph glyph-name="gravecomb.case" 
d="M-168 745l-88 115h134l72 -115h-118z" />
    <glyph glyph-name="acutecomb.case" 
d="M-183 860h133l-88 -115h-118z" />
    <glyph glyph-name="uni030B.case" 
d="M-304 860h110l-81 -115h-91zM-162 860h112l-82 -115h-92z" />
    <glyph glyph-name="uni0302.case" 
d="M-272 860h149l73 -115h-112l-35 56l-36 -56h-111z" />
    <glyph glyph-name="uni030C.case" 
d="M-122 745h-149l-73 115h112l35 -57l36 57h111z" />
    <glyph glyph-name="uni0306.case" 
d="M-322 860h92q1 -25 12 -36.5t33 -11.5t32.5 11t13.5 37h89q-3 -121 -135 -121q-134 0 -137 121z" />
    <glyph glyph-name="uni030A.case" 
d="M-213.5 737q-24.5 12 -38.5 34.5t-14 51.5t14 51.5t38.5 34.5t55.5 12q32 0 56.5 -12t38 -34.5t13.5 -51.5t-14 -51.5t-38.5 -34.5t-55.5 -12t-55.5 12zM-131 797q10 10 10 26t-10.5 26t-26.5 10t-26 -10t-10 -26t9.5 -26t26.5 -10t27 10z" />
    <glyph glyph-name="tildecomb.case" 
d="M-169.5 747q-14.5 5 -29.5 15q-7 3 -13.5 7t-14 6.5t-13.5 2.5q-11 0 -16.5 -8.5t-7.5 -25.5h-76q1 60 22 89t64 29q21 0 33 -5t32 -18q12 -7 20 -10t17 -3q11 0 17 8t9 26h76q-1 -59 -21 -88.5t-65 -29.5q-19 0 -33.5 5z" />
    <glyph glyph-name="uni0304.case" 
d="M-296 848h246v-87h-246v87z" />
    <glyph glyph-name="uni0337.case" 
d="M0 534v-122l-152 -104v23l-104 -69v120l104 70v-22z" />
    <glyph glyph-name="uni0338.case" 
d="M-421 168l8 -7l232 422l5 -9l83 132h53l-116 -177l-6 11l-231 -425l-7 7l-77 -122h-53z" />
    <glyph glyph-name="uni0308.narrow.case" 
d="M-295 760.5q-17 17.5 -17 45.5t17 45t43 17q27 0 44 -17t17 -45t-17.5 -45.5t-43.5 -17.5t-43 17.5zM-154 760.5q-17 17.5 -17 45.5t16.5 45t43.5 17t44 -17t17 -45t-17 -45.5t-44 -17.5q-26 0 -43 17.5z" />
    <glyph glyph-name="uni0302.narrow.case" 
d="M-259 860h145l64 -115h-108l-27 54l-29 -54h-108z" />
    <glyph glyph-name="uni0306.narrow.case" 
d="M-257 768.5q-30 29.5 -30 91.5h85q2 -27 9 -37.5t25 -10.5q17 0 24 11t8 37h86q0 -62 -29.5 -91.5t-88.5 -29.5t-89 29.5z" />
    <glyph glyph-name="tildecomb.narrow.case" 
d="M-153.5 748q-11.5 5 -24.5 14q-3 2 -10 6.5t-12 7t-10 2.5q-10 0 -14.5 -8t-6.5 -25h-66q1 60 19.5 88t56.5 28q18 0 29.5 -5.5t24.5 -15.5q2 -1 8 -5.5t10.5 -6.5t9.5 -2q11 0 15.5 7.5t6.5 26.5h67q-1 -61 -19 -89t-56 -28q-17 0 -28.5 5z" />
    <glyph glyph-name="uni0304.narrow.case" 
d="M-254 847h204v-86h-204v86z" />
    <glyph glyph-name="uni0335.dh" 
d="M-289 376h289v-84h-289v84z" />
    <glyph glyph-name="uni0307.i" 
d="M-172.5 588.5q-20.5 19.5 -20.5 50.5t20.5 49.5t51.5 18.5t51 -18.5t20 -49.5t-20 -50.5t-51 -19.5t-51.5 19.5z" />
    <glyph glyph-name="uni0308.narrow" 
d="M-263 585.5q-14 16.5 -14 46.5q0 29 14.5 45.5t39.5 16.5t39 -16.5t14 -45.5q0 -30 -14 -46.5t-39 -16.5q-26 0 -40 16.5zM-144 585.5q-14 16.5 -14 46.5q0 29 14.5 45.5t39.5 16.5t39.5 -16.5t14.5 -45.5q0 -30 -14 -46.5t-40 -16.5t-40 16.5z" />
    <glyph glyph-name="gravecomb.narrow" 
d="M-156 567l-69 139h124l51 -139h-106z" />
    <glyph glyph-name="acutecomb.narrow" 
d="M-174 706h124l-69 -139h-106z" />
    <glyph glyph-name="uni0302.narrow" 
d="M-222 706h124l48 -140h-84l-26 74l-27 -74h-84z" />
    <glyph glyph-name="uni030C.narrow" 
d="M-191 706l27 -73l26 73h84l-48 -140h-124l-49 140h84z" />
    <glyph glyph-name="uni0306.narrow" 
d="M-237.5 594.5q-25.5 34.5 -25.5 111.5h79q0 -27 3 -41.5t9 -20t16 -5.5t16 5.5t8.5 20t2.5 41.5h79q0 -76 -25 -111t-81 -35t-81.5 34.5z" />
    <glyph glyph-name="tildecomb.narrow" 
d="M-147.5 574q-11.5 9 -20.5 25q-6 9 -10 13.5t-9 4.5q-8 0 -11 -11t-3 -39h-65q1 51 6.5 81t19.5 45t40 15q21 0 32.5 -9.5t19.5 -24.5q6 -9 10 -13.5t9 -4.5q9 0 11.5 10.5t3.5 39.5h64q0 -51 -6 -81t-20 -45t-39 -15q-21 0 -32.5 9z" />
    <glyph glyph-name="uni0304.narrow" 
d="M-245 676h195v-91h-195v91z" />
    <glyph glyph-name="uni0328.narrow" 
d="M-176 -160.5q-26 20.5 -26 58.5q0 33 16 58t45 45l88 -1q-25 -24 -36.5 -41t-11.5 -37q0 -11 7 -17t18 -6q13 0 25 6v-75q-23 -11 -55 -11q-44 0 -70 20.5z" />
    <glyph glyph-name="uni0338.ss04" 
d="M-161 497l49 91l97 -46l-92 -163zM-380 -19l92 164l54 -121l-49 -90z" />
    <glyph glyph-name="uni0338.case.ss04" 
d="M-159 674l63 103l96 -55l-108 -171zM-465 -16l115 177l64 -102l-85 -132z" />
    </font>
</defs>
</svg>
