<?xml version="1.0" standalone="no"?>
<!DOCTYPE svg PUBLIC "-//W3C//DTD SVG 1.1//EN" "http://www.w3.org/Graphics/SVG/1.1/DTD/svg11.dtd" >
<svg xmlns="http://www.w3.org/2000/svg" xmlns:xlink="http://www.w3.org/1999/xlink" version="1.1">
<metadata>
Created by FontForge 20170731 at Mon Apr  9 23:06:36 2018
 By Aleksey,,,
Copyright (c) 2018 Monotype Imaging Inc. All rights reserved.
</metadata>
<defs>
<font id="NeuePlakText-BlackItalic" horiz-adv-x="0" >
  <font-face 
    font-family="Neue Plak Text Black Italic"
    font-weight="400"
    font-style="italic"
    font-stretch="normal"
    units-per-em="1000"
    panose-1="2 11 10 4 3 2 2 9 2 4"
    ascent="774"
    descent="-226"
    x-height="499"
    cap-height="706"
    bbox="-858 -249 1095 1194"
    underline-thickness="50"
    underline-position="-200"
    slope="-11"
    unicode-range="U+000D-FEFF"
  />
<missing-glyph horiz-adv-x="714" 
d="M155 706h586l-141 -706h-586zM456 144l84 418h-241l-84 -418h241z" />
    <glyph glyph-name=".notdef" horiz-adv-x="714" 
d="M155 706h586l-141 -706h-586zM456 144l84 418h-241l-84 -418h241z" />
    <glyph glyph-name=".null" 
 />
    <glyph glyph-name="nonmarkingreturn" horiz-adv-x="333" 
 />
    <glyph glyph-name="NULL" 
 />
    <glyph glyph-name="NULL" 
 />
    <glyph glyph-name="CR" unicode="&#xd;" horiz-adv-x="185" 
 />
    <glyph glyph-name="space" unicode=" " horiz-adv-x="185" 
 />
    <glyph glyph-name="exclam" unicode="!" horiz-adv-x="326" 
d="M167 706h174l-120 -479h-126zM77.5 -5.5q-22.5 12.5 -35 34.5t-12.5 50t12.5 49.5t35 34t51.5 12.5t51 -12.5t34.5 -34t12.5 -49.5t-12.5 -50t-34.5 -34.5t-51 -12.5t-51.5 12.5z" />
    <glyph glyph-name="quotedbl" unicode="&#x22;" horiz-adv-x="556" 
d="M180 706h158l-78 -282h-115zM401 706h158l-78 -282h-115z" />
    <glyph glyph-name="numbersign" unicode="#" horiz-adv-x="723" 
d="M624 420l-48 -134h100l-49 -132h-98l-62 -172h-146l61 172h-126l-61 -172h-146l61 172h-102l48 132h101l48 134h-99l49 132h97l61 172h146l-61 -172h125l61 172h149l-62 -172h103l-48 -132h-102zM476 420h-125l-48 -134h126z" />
    <glyph glyph-name="dollar" unicode="$" horiz-adv-x="635" 
d="M453 499q2 20 2 27q0 27 -10.5 44.5t-34.5 25.5l-33 -165q23 -10 46 -18q57 -22 94.5 -48t57.5 -62.5t20 -86.5q0 -71 -38 -123t-104.5 -80t-151.5 -31l-14 -71h-68l15 74q-105 11 -156 66t-51 142q0 15 1 24h184q-1 -8 -1 -22q0 -66 54 -80l36 178l-46 20
q-74 31 -112.5 75.5t-38.5 111.5q0 65 35.5 114.5t97 78t136.5 31.5l15 71h66l-15 -74q93 -10 140 -61.5t47 -134.5q0 -17 -1 -26h-172zM287.5 488.5q11.5 -16.5 36.5 -31.5l29 143q-36 -4 -56.5 -23.5t-20.5 -49.5q0 -22 11.5 -38.5zM398.5 233q-13.5 17 -44.5 35l-32 -157
q42 4 66 26t24 55q0 24 -13.5 41z" />
    <glyph glyph-name="percent" unicode="%" horiz-adv-x="780" 
d="M127.5 425q-32.5 36 -32.5 100q0 55 19.5 98t58 67.5t92.5 24.5q66 0 97.5 -36.5t31.5 -99.5q0 -55 -19 -98t-57.5 -67.5t-92.5 -24.5q-65 0 -97.5 36zM652 706h122l-605 -706h-122zM279 504.5q14 28.5 14 67.5q0 29 -8.5 42.5t-28.5 13.5q-31 0 -45.5 -28.5t-14.5 -68.5
q0 -27 9 -41t29 -14q31 0 45 28.5zM458.5 28.5q-32.5 36.5 -32.5 100.5q0 54 20 97t58.5 67.5t92.5 24.5q66 0 97.5 -36.5t31.5 -98.5q0 -55 -19.5 -98t-57.5 -68t-92 -25q-66 0 -98.5 36.5zM611 108q14 28 14 68q0 28 -8.5 42t-28.5 14q-30 0 -45 -29t-15 -68
q0 -28 9 -41.5t29 -13.5q31 0 45 28z" />
    <glyph glyph-name="ampersand" unicode="&#x26;" horiz-adv-x="679" 
d="M556 151q32 -19 68 -22l-29 -129q-85 0 -151 42q-41 -28 -87.5 -41.5t-102.5 -13.5q-75 0 -126 23.5t-76.5 63.5t-25.5 91q0 55 27 98.5t70 76.5t103 66q-16 45 -23.5 80t-7.5 63q0 57 29.5 96t81 59t119.5 20q89 0 140 -34t51 -101q0 -50 -29 -90t-73 -70t-111 -65
l49 -102q2 -4 5 -9.5t7 -12.5q28 40 77 119l110 -59q-48 -86 -95 -149zM356 471q55 29 84.5 55.5t29.5 57.5q0 21 -14 32.5t-41 11.5q-36 0 -55.5 -21.5t-19.5 -58.5q0 -32 16 -77zM215 128q22 -19 61 -19q40 0 79 22q-10 15 -21 37l-60 124q-39 -26 -60 -53t-21 -59
q0 -33 22 -52z" />
    <glyph glyph-name="quotesingle" unicode="'" horiz-adv-x="335" 
d="M180 706h158l-78 -282h-115z" />
    <glyph glyph-name="parenleft" unicode="(" horiz-adv-x="425" 
d="M117.5 -25q-13.5 83 -13.5 173q0 184 62 348t182 322h152q-128 -158 -194.5 -328t-66.5 -357q0 -164 49 -334h-131q-26 93 -39.5 176z" />
    <glyph glyph-name="parenright" unicode=")" horiz-adv-x="426" 
d="M331 641q14 -83 14 -172q0 -184 -62 -347.5t-182 -322.5h-153q128 158 195 328t67 357q0 164 -49 334h130q26 -94 40 -177z" />
    <glyph glyph-name="asterisk" unicode="*" horiz-adv-x="384" 
d="M100 480l96 61l-109 38l52 92l90 -74l2 116l104 -21l-43 -107l110 34l13 -106l-116 8l66 -95l-97 -43l-27 112l-70 -93z" />
    <glyph glyph-name="plus" unicode="+" horiz-adv-x="593" 
d="M533 233h-178l-36 -181h-127l37 181h-178l25 122h177l37 182h126l-36 -182h177z" />
    <glyph glyph-name="comma" unicode="," horiz-adv-x="336" 
d="M89 161h156l-163 -337h-120z" />
    <glyph glyph-name="hyphen" unicode="-" horiz-adv-x="410" 
d="M78 360h298l-27 -132h-298z" />
    <glyph glyph-name="period" unicode="." horiz-adv-x="326" 
d="M77.5 -5.5q-22.5 12.5 -35 34.5t-12.5 50t12.5 49.5t35 34t51.5 12.5t51 -12.5t34.5 -34t12.5 -49.5t-12.5 -50t-34.5 -34.5t-51 -12.5t-51.5 12.5z" />
    <glyph glyph-name="slash" unicode="/" horiz-adv-x="515" 
d="M414 724h168l-446 -774h-168z" />
    <glyph glyph-name="zero" unicode="0" horiz-adv-x="600" 
d="M91 49q-56 67 -56 184q0 70 15 148q20 101 62 178t108 121t155 44q119 0 175 -67t56 -184q0 -70 -15 -148q-19 -101 -61 -178t-108.5 -121t-155.5 -44q-119 0 -175 67zM365.5 184.5q35.5 59.5 55.5 156.5q16 78 16 134q0 52 -16 79t-55 27q-54 0 -90 -60t-55 -156
q-16 -78 -16 -134q0 -52 16 -79t55 -27q54 0 89.5 59.5z" />
    <glyph glyph-name="one" unicode="1" horiz-adv-x="600" 
d="M310 557h-148l60 149h280l-141 -706h-162z" />
    <glyph glyph-name="two" unicode="2" horiz-adv-x="600" 
d="M-31 3l356 339q36 35 59 60.5t37 53t14 54.5q0 35 -19 55t-60 20q-54 0 -81.5 -35t-37.5 -92h-159q23 124 96 195t199 71q116 0 174.5 -53t58.5 -146q0 -62 -26 -112t-77 -97q-91 -86 -194 -173h233l-28 -143h-546z" />
    <glyph glyph-name="three" unicode="3" horiz-adv-x="600" 
d="M564 429q-40 -45 -111 -64q53 -19 77.5 -56t24.5 -93q0 -71 -36.5 -124t-101.5 -81.5t-147 -28.5q-127 0 -183 52t-56 153q0 30 8 72h154q-5 -30 -5 -48q0 -45 21.5 -69.5t70.5 -24.5q34 0 58.5 14t37.5 38t13 55q0 46 -29 68t-86 22h-12l22 110h21q69 0 102 27t33 75
q0 36 -19.5 55.5t-59.5 19.5q-47 0 -74.5 -27.5t-35.5 -73.5h-157q22 109 94.5 166.5t187.5 57.5q77 0 128 -23t75.5 -64t24.5 -94q0 -69 -40 -114z" />
    <glyph glyph-name="four" unicode="4" horiz-adv-x="600" 
d="M514 283h84l-27 -137h-85l-29 -146h-163l29 146h-349l1 3l327 557h296zM351 283l73 368h-1l-206 -368h134z" />
    <glyph glyph-name="five" unicode="5" horiz-adv-x="600" 
d="M317 566l-41 -107q32 7 70 7q109 0 162 -56.5t53 -154.5q0 -80 -37.5 -142t-105 -96.5t-153.5 -34.5q-126 0 -183 53.5t-57 151.5q0 29 6 65h158q-4 -21 -4 -45q0 -44 20.5 -67.5t67.5 -23.5q37 0 63.5 16.5t40.5 44.5t14 63q0 64 -43 93t-129 29q-33 0 -70 -3t-66 -8
l130 355h420l-58 -140h-258z" />
    <glyph glyph-name="six" unicode="6" horiz-adv-x="600" 
d="M483.5 440q44.5 -27 68 -74t23.5 -104q0 -79 -37.5 -143t-103 -100.5t-147.5 -36.5q-131 0 -190 71t-59 194q0 129 42 238t123.5 174t194.5 65q69 0 119.5 -24t77.5 -70.5t27 -111.5h-156q-1 38 -21.5 59t-58.5 21q-65 0 -108.5 -56.5t-61.5 -144.5q31 34 72 52t90 18
q61 0 105.5 -27zM354 133.5q27 19.5 41 52t14 70.5q0 44 -20 69.5t-61 25.5q-36 0 -64 -19.5t-43 -51.5t-15 -68q0 -45 21 -71.5t63 -26.5q37 0 64 19.5z" />
    <glyph glyph-name="seven" unicode="7" horiz-adv-x="600" 
d="M400 557h-297l29 149h549l-430 -706h-200z" />
    <glyph glyph-name="eight" unicode="8" horiz-adv-x="600" 
d="M599.5 465.5q-19.5 -35.5 -53.5 -58.5t-78 -30q53 -19 78 -61.5t25 -100.5q0 -72 -39 -124.5t-106.5 -80.5t-150.5 -28q-89 0 -149 25t-89 70.5t-29 107.5q0 52 22.5 94.5t62.5 70.5t92 37q-44 18 -67.5 56.5t-23.5 88.5q0 60 36.5 103.5t98.5 66t135 22.5
q81 0 138.5 -21.5t87 -62t29.5 -96.5q0 -43 -19.5 -78.5zM304.5 602q-24.5 -13 -37.5 -36.5t-13 -52.5q0 -40 23.5 -61.5t67.5 -21.5q32 0 57 13t38.5 36.5t13.5 51.5q0 39 -23 61.5t-69 22.5q-33 0 -57.5 -13zM343.5 120.5q27.5 14.5 42.5 39.5t15 57q0 43 -25 69.5
t-75 26.5q-37 0 -64.5 -15.5t-42 -42t-14.5 -58.5q0 -43 25.5 -67t75.5 -24q35 0 62.5 14.5z" />
    <glyph glyph-name="nine" unicode="9" horiz-adv-x="600" 
d="M544.5 653q58.5 -71 58.5 -194q0 -129 -42 -238t-123.5 -174t-194.5 -65q-69 0 -119.5 24t-77.5 70.5t-27 111.5h156q1 -38 21.5 -59t58.5 -21q44 0 78.5 27t57.5 72t34 101q-31 -33 -72 -51t-90 -18q-61 0 -105.5 27t-68 74t-23.5 104q0 79 37.5 143t103 100.5
t147.5 36.5q132 0 190.5 -71zM377.5 374.5q27.5 19.5 42.5 51.5t15 68q0 45 -21 71.5t-63 26.5q-37 0 -64 -19.5t-41 -52t-14 -70.5q0 -44 20 -69.5t61 -25.5q37 0 64.5 19.5z" />
    <glyph glyph-name="colon" unicode=":" horiz-adv-x="327" 
d="M78.5 -5.5q-22.5 12.5 -35 34.5t-12.5 50t12.5 49.5t35 34t51.5 12.5t51 -12.5t34.5 -34t12.5 -49.5t-12.5 -50t-34.5 -34.5t-51 -12.5t-51.5 12.5zM144.5 328.5q-22.5 12.5 -35 34.5t-12.5 50t12.5 49.5t35 34t51.5 12.5t51 -12.5t34.5 -34t12.5 -49.5t-12.5 -50
t-34.5 -34.5t-51 -12.5t-51.5 12.5z" />
    <glyph glyph-name="semicolon" unicode=";" horiz-adv-x="368" 
d="M89 161h156l-163 -337h-120zM186.5 328.5q-22.5 12.5 -35 34.5t-12.5 50t12.5 49.5t35 34t51.5 12.5t51 -12.5t34.5 -34t12.5 -49.5t-12.5 -50t-34.5 -34.5t-51 -12.5t-51.5 12.5z" />
    <glyph glyph-name="less" unicode="&#x3c;" horiz-adv-x="593" 
d="M565 385l-378 -91l341 -91l-25 -126l-456 130l24 118h1l11 55l507 131z" />
    <glyph glyph-name="equal" unicode="=" horiz-adv-x="593" 
d="M97 455h481l-24 -122h-482zM57 255h481l-24 -122h-482z" />
    <glyph glyph-name="greater" unicode="&#x3e;" horiz-adv-x="593" 
d="M540 263l-11 -55l-508 -131l26 126l377 91l-341 91l25 126l456 -130z" />
    <glyph glyph-name="question" unicode="?" horiz-adv-x="537" 
d="M284.5 367q47.5 55 74.5 99t27 76q0 28 -15.5 43.5t-48.5 15.5q-38 0 -54.5 -21.5t-23.5 -61.5h-155q17 99 77 152.5t168 53.5q105 0 162.5 -47t57.5 -134q0 -42 -22 -87t-63.5 -96.5t-115.5 -132.5h-195q79 85 126.5 140zM169 -5.5q-22 12.5 -34.5 34.5t-12.5 50
t12.5 49.5t34.5 34t51 12.5t51 -12.5t34.5 -34t12.5 -49.5t-12.5 -50t-34.5 -34.5t-51 -12.5t-51 12.5z" />
    <glyph glyph-name="at" unicode="@" horiz-adv-x="849" 
d="M674.5 651.5q75.5 -38.5 113 -108t37.5 -161.5q0 -93 -36 -166t-104.5 -114.5t-162.5 -41.5h-65l11 53q-26 -27 -62 -41.5t-78 -14.5q-63 0 -94 32t-31 87q0 82 58 117t164 35h77q5 25 5 38q0 27 -11.5 39t-41.5 12t-44.5 -14t-19.5 -41h-139q11 73 66 111.5t147 38.5
q64 0 102.5 -16.5t55.5 -47.5t17 -79q0 -28 -8 -68l-32 -158q48 13 82 48.5t51.5 85.5t17.5 105q0 73 -29.5 128t-88 85t-143.5 30q-114 0 -196.5 -52.5t-125 -143.5t-42.5 -205q0 -127 70.5 -198t218.5 -71q34 0 66 3l-14 -69q-30 -2 -52 -2q-126 0 -207.5 42.5t-119.5 118
t-38 177.5q0 132 54.5 238t154 166.5t231.5 60.5q110 0 185.5 -38.5zM445 165.5q16 9.5 26 31t17 59.5h-57q-39 0 -60.5 -12.5t-21.5 -43.5q0 -22 12.5 -33t41.5 -11q26 0 42 9.5z" />
    <glyph glyph-name="A" unicode="A" horiz-adv-x="699" 
d="M463 137h-262l-67 -137h-179l360 706h251l78 -706h-169zM451 264l-28 319h-2l-157 -319h187z" />
    <glyph glyph-name="B" unicode="B" horiz-adv-x="632" 
d="M565 310.5q25 -39.5 25 -94.5q0 -66 -33.5 -115t-93 -75t-137.5 -26h-299l141 706h263q65 0 108.5 -20.5t64 -56.5t20.5 -83q0 -63 -37 -109t-101 -64q54 -23 79 -62.5zM414 450q30 24 30 66q0 37 -23.5 56t-72.5 19h-36l-34 -165h50q56 0 86 24zM378 143.5
q34 26.5 34 76.5q0 87 -110 87h-47l-38 -190h64q63 0 97 26.5z" />
    <glyph glyph-name="C" unicode="C" horiz-adv-x="721" 
d="M129 61q-70 79 -70 214q0 124 48 226.5t136.5 162.5t203.5 60q83 0 144.5 -30.5t94.5 -87t33 -132.5q0 -16 -3 -36h-170l1 16q0 61 -30 94.5t-87 33.5q-64 0 -108.5 -42.5t-67 -112t-22.5 -147.5q0 -72 32 -113.5t94 -41.5q60 0 94 32.5t50 94.5h182q-16 -81 -62.5 -142
t-116.5 -94.5t-154 -33.5q-152 0 -222 79z" />
    <glyph glyph-name="D" unicode="D" horiz-adv-x="722" 
d="M168 706h213q168 0 244.5 -76.5t76.5 -211.5q0 -121 -47.5 -215.5t-136.5 -148.5t-208 -54h-283zM289 135q79 0 132.5 34.5t80 95t26.5 138.5q0 81 -35 124.5t-118 43.5h-67l-87 -436h68z" />
    <glyph glyph-name="E" unicode="E" horiz-adv-x="571" 
d="M168 706h439l-26 -135h-273l-30 -145h270l-27 -136h-269l-31 -155h272l-27 -135h-439z" />
    <glyph glyph-name="F" unicode="F" horiz-adv-x="536" 
d="M168 706h417l-27 -135h-250l-30 -145h248l-26 -136h-248l-59 -290h-166z" />
    <glyph glyph-name="G" unicode="G" horiz-adv-x="725" 
d="M325.5 539.5q-46.5 -42.5 -70 -110.5t-23.5 -143q0 -78 30.5 -120t100.5 -42q126 0 160 142h-145l24 119h308l-16 -82q-18 -90 -59.5 -162t-114 -115.5t-175.5 -43.5q-93 0 -156.5 35t-96 102t-32.5 161q0 120 46 221.5t133.5 162t206.5 60.5q85 0 147.5 -31.5t95 -90.5
t29.5 -140h-167q0 60 -30.5 90t-83.5 30q-65 0 -111.5 -42.5z" />
    <glyph glyph-name="H" unicode="H" horiz-adv-x="734" 
d="M168 706h166l-55 -279h247l56 279h166l-141 -706h-166l57 287h-247l-58 -287h-166z" />
    <glyph glyph-name="I" unicode="I" horiz-adv-x="320" 
d="M168 706h166l-141 -706h-166z" />
    <glyph glyph-name="J" unicode="J" horiz-adv-x="384" 
d="M-34 2l30 149q14 -3 37 -3q39 0 63 10.5t38.5 34.5t22.5 67l90 446h166l-97 -488q-23 -113 -90 -167t-190 -54q-40 0 -70 5z" />
    <glyph glyph-name="K" unicode="K" horiz-adv-x="691" 
d="M405 364l231 -364h-191l-189 315l-63 -315h-166l141 706h166l-53 -266l249 266h205z" />
    <glyph glyph-name="L" unicode="L" horiz-adv-x="482" 
d="M168 706h166l-111 -561h223l-29 -145h-390z" />
    <glyph glyph-name="M" unicode="M" horiz-adv-x="901" 
d="M168 706h184l93 -438l268 438h202l-141 -706h-157l89 441l-269 -441h-73l-92 441l-88 -441h-157z" />
    <glyph glyph-name="N" unicode="N" horiz-adv-x="753" 
d="M168 706h165l181 -462l92 462h162l-141 -706h-166l-181 462l-92 -462h-161z" />
    <glyph glyph-name="O" unicode="O" horiz-adv-x="752" 
d="M130.5 59.5q-71.5 77.5 -71.5 212.5q0 123 45.5 226.5t131 164.5t200.5 61q153 0 225.5 -78.5t72.5 -211.5q0 -124 -45 -227t-130.5 -164t-201.5 -61q-155 0 -226.5 77.5zM470 168.5q46 44.5 69 114.5t23 144q0 73 -30 114t-99 41q-65 0 -111 -44t-68.5 -113.5
t-22.5 -144.5q0 -71 31.5 -113.5t97.5 -42.5q64 0 110 44.5z" />
    <glyph glyph-name="P" unicode="P" horiz-adv-x="613" 
d="M168 706h227q128 0 186 -48t58 -139q0 -74 -31.5 -129t-90 -85t-138.5 -30h-130l-56 -275h-166zM354 400q57 0 85.5 26t28.5 74q0 42 -26 61.5t-82 19.5h-50l-37 -181h81z" />
    <glyph glyph-name="Q" unicode="Q" horiz-adv-x="752" 
d="M710 265q-24 -80 -70 -142t-111 -98l56 -119l-130 -55l-55 133q-28 -2 -43 -2q-155 0 -226.5 77.5t-71.5 212.5q0 123 45.5 226.5t131 164.5t200.5 61q153 0 225.5 -78.5t72.5 -211.5q0 -89 -24 -169zM536.5 276.5q25.5 72.5 25.5 150.5q0 73 -30 114t-99 41
q-65 0 -111 -44t-68.5 -113.5t-22.5 -144.5q0 -66 27 -107.5t84 -47.5l-23 57l114 49l31 -67q47 40 72.5 112.5z" />
    <glyph glyph-name="R" unicode="R" horiz-adv-x="660" 
d="M596 360q-50 -60 -139 -77l143 -283h-175l-138 277h-38l-56 -277h-166l141 706h241q124 0 180.5 -51t56.5 -144q0 -91 -50 -151zM273 395h84q57 0 87.5 27.5t30.5 76.5q0 45 -24.5 63.5t-76.5 18.5h-64z" />
    <glyph glyph-name="S" unicode="S" horiz-adv-x="622" 
d="M86.5 38.5q-62.5 56.5 -62.5 154.5q0 15 1 24h184q-2 -16 -2 -22q0 -85 92 -85q48 0 75 21t27 56q0 24 -13 41.5t-34 30t-60 31.5l-46 23q-49 26 -79.5 51t-46.5 57.5t-16 77.5q0 69 35 120t98 78t144 27q77 0 130.5 -24.5t80 -69t26.5 -105.5q0 -17 -1 -26h-172
q2 20 2 28q0 34 -20.5 54t-61.5 20q-42 0 -65.5 -21t-23.5 -55q0 -23 12 -38.5t33 -27.5t65 -33l28 -13q59 -28 93.5 -52t54.5 -59t20 -87q0 -73 -38 -125.5t-107 -80t-158 -27.5q-132 0 -194.5 56.5z" />
    <glyph glyph-name="T" unicode="T" horiz-adv-x="549" 
d="M256 571h-176l26 135h519l-27 -135h-175l-115 -571h-166z" />
    <glyph glyph-name="U" unicode="U" horiz-adv-x="690" 
d="M122 35q-64 53 -64 155q0 44 11 96l84 420h166l-88 -442q-5 -24 -5 -53q0 -43 22.5 -64.5t73.5 -21.5q64 0 96 31.5t45 97.5l90 452h166l-97 -489q-23 -117 -98.5 -176t-207.5 -59q-130 0 -194 53z" />
    <glyph glyph-name="V" unicode="V" horiz-adv-x="681" 
d="M767 706l-393 -706h-166l-112 706h174l61 -500l261 500h175z" />
    <glyph glyph-name="W" unicode="W" horiz-adv-x="943" 
d="M1029 706l-327 -706h-174l-12 476l-202 -476h-170l-48 706h158l24 -467l193 467h174l13 -466l201 466h170z" />
    <glyph glyph-name="X" unicode="X" horiz-adv-x="706" 
d="M277 384l-160 322h177l94 -199l163 199h211l-291 -335l179 -371h-177l-116 240l-187 -240h-215z" />
    <glyph glyph-name="Y" unicode="Y" horiz-adv-x="612" 
d="M234 303l-138 403h165l83 -241l162 241h192l-298 -403l-61 -303h-166z" />
    <glyph glyph-name="Z" unicode="Z" horiz-adv-x="614" 
d="M367 567h-264l27 139h529l-393 -567h294l-28 -139h-560z" />
    <glyph glyph-name="bracketleft" unicode="[" horiz-adv-x="394" 
d="M244 818h237l-24 -120h-103l-156 -779h103l-24 -120h-237z" />
    <glyph glyph-name="backslash" unicode="\" horiz-adv-x="516" 
d="M281 -50l-158 774h147l158 -774h-147z" />
    <glyph glyph-name="bracketright" unicode="]" horiz-adv-x="394" 
d="M174 -201h-237l24 120h103l156 779h-103l24 120h237z" />
    <glyph glyph-name="asciicircum" unicode="^" horiz-adv-x="539" 
d="M379 375l-34 205l-115 -205h-165l194 331h202l63 -331h-145z" />
    <glyph glyph-name="underscore" unicode="_" horiz-adv-x="390" 
d="M-62 -61h389l-26 -132h-390z" />
    <glyph glyph-name="grave" unicode="`" horiz-adv-x="341" 
d="M225 570l-80 157h146l64 -157h-130z" />
    <glyph glyph-name="a" unicode="a" horiz-adv-x="583" 
d="M484 468.5q51 -44.5 51 -132.5q0 -17 -3 -38.5t-8 -47.5l-50 -250h-159l10 50q-60 -63 -158 -63q-76 0 -114 37.5t-38 102.5q0 97 72 137.5t196 40.5h93q4 21 4 38q0 31 -14.5 45.5t-50.5 14.5q-38 0 -56.5 -16.5t-24.5 -47.5h-162q15 84 78.5 129t167.5 45
q115 0 166 -44.5zM321 128.5q25 25.5 37 84.5h-71q-49 0 -75 -13t-26 -48q0 -25 14.5 -37t47.5 -12q48 0 73 25.5z" />
    <glyph glyph-name="b" unicode="b" horiz-adv-x="607" 
d="M573 293q0 -81 -31 -151t-88.5 -112.5t-132.5 -42.5q-54 0 -88.5 20t-51.5 62l-14 -69h-153l141 706h156l-49 -248q29 28 63 41.5t76 13.5q172 0 172 -220zM355 141q27 22 40 58.5t13 80.5q0 49 -18.5 75.5t-59.5 26.5q-82 0 -105 -100q-6 -32 -9.5 -51.5t-3.5 -29.5
q0 -40 19 -61t58 -21t66 22z" />
    <glyph glyph-name="c" unicode="c" horiz-adv-x="572" 
d="M131 15.5q-50 28.5 -73.5 78t-23.5 115.5q0 85 36.5 154.5t102.5 109.5t150 40q67 0 117 -21.5t77 -64t27 -102.5q0 -10 -1 -16h-168v4q0 33 -16 51t-46 18q-36 0 -61.5 -24.5t-38.5 -63.5t-13 -82q0 -45 16.5 -69t55.5 -24q31 0 52.5 21t26.5 52h175q-15 -66 -52.5 -112
t-92.5 -69.5t-124 -23.5q-76 0 -126 28.5z" />
    <glyph glyph-name="d" unicode="d" horiz-adv-x="607" 
d="M635 706l-141 -706h-153l9 46q-30 -31 -65.5 -45.5t-78.5 -14.5q-89 0 -130.5 59.5t-41.5 160.5q0 80 31 150.5t88.5 113t132.5 42.5q52 0 86 -18.5t52 -57.5l54 270h157zM345.5 143.5q26.5 25.5 36.5 74.5q6 32 9.5 51.5t3.5 28.5q0 40 -19.5 61.5t-57.5 21.5
q-39 0 -65.5 -22t-39.5 -59t-13 -81q0 -49 18 -75t59 -26q42 0 68.5 25.5z" />
    <glyph glyph-name="e" unicode="e" horiz-adv-x="581" 
d="M194 211v-4q0 -49 20 -75t64 -26q59 0 83 48h164q-17 -53 -54 -90.5t-89.5 -57t-114.5 -19.5q-78 0 -130 27.5t-77.5 77t-25.5 116.5q0 86 35.5 155.5t101.5 109.5t152 40q67 0 117.5 -25t78 -74t27.5 -119q0 -39 -8 -84h-344zM248 373.5q-26 -25.5 -40 -69.5h184v2
q0 46 -19.5 69.5t-58.5 23.5q-40 0 -66 -25.5z" />
    <glyph glyph-name="f" unicode="f" horiz-adv-x="354" 
d="M99 375h-57l24 124h58l13 68q16 81 65 118.5t137 37.5q49 0 92 -10l-26 -125q-21 7 -43 7q-31 0 -50 -16.5t-25 -48.5l-6 -31h104l-25 -124h-104l-75 -375h-157z" />
    <glyph glyph-name="g" unicode="g" horiz-adv-x="606" 
d="M592 499l-101 -504q-41 -209 -272 -209q-107 0 -167.5 39t-57.5 116h163q5 -18 22 -28t46 -10q88 0 108 104l7 35q-56 -49 -135 -49q-59 0 -97.5 27t-56.5 72t-18 99q0 89 31 162.5t88 116t132 42.5q54 0 89 -20.5t52 -62.5l14 70h153zM217 150.5q18 -26.5 60 -26.5
t68.5 24.5t35.5 71.5q6 31 9 49.5t3 28.5q0 40 -19.5 61.5t-57.5 21.5q-39 0 -65 -21.5t-39 -56.5t-13 -77q0 -49 18 -75.5z" />
    <glyph glyph-name="h" unicode="h" horiz-adv-x="592" 
d="M510 472.5q38 -40.5 38 -118.5q0 -25 -6 -57l-60 -297h-157l54 272q5 25 5 42q0 35 -15.5 51.5t-47.5 16.5q-73 0 -91 -84l-60 -298h-156l141 706h156l-51 -258q28 32 62 48.5t77 16.5q73 0 111 -40.5z" />
    <glyph glyph-name="i" unicode="i" horiz-adv-x="284" 
d="M179.5 581q-19.5 11 -31 29.5t-11.5 41.5t11.5 42t31 30t43.5 11t43.5 -11t31 -30t11.5 -42t-11.5 -41.5t-31 -29.5t-43.5 -11t-43.5 11zM113 499h157l-100 -499h-156z" />
    <glyph glyph-name="j" unicode="j" horiz-adv-x="284" 
d="M179.5 581q-19.5 11 -31 29.5t-11.5 41.5t11.5 42t31 30t43.5 11t43.5 -11t31 -30t11.5 -42t-11.5 -41.5t-31 -29.5t-43.5 -11t-43.5 11zM-106 -199l27 134q10 -2 27 -2q28 0 43 13t20 42l102 511h157l-110 -549q-16 -81 -61.5 -117.5t-128.5 -36.5q-36 0 -76 5z" />
    <glyph glyph-name="k" unicode="k" horiz-adv-x="558" 
d="M359 257l164 -257h-188l-124 206l-41 -206h-156l141 706h156l-74 -369l142 162h211z" />
    <glyph glyph-name="l" unicode="l" horiz-adv-x="284" 
d="M155 706h156l-141 -706h-156z" />
    <glyph glyph-name="m" unicode="m" horiz-adv-x="885" 
d="M805.5 475q36.5 -38 36.5 -110q0 -31 -7 -68l-60 -297h-156l53 272q6 23 6 42q0 68 -60 68q-34 0 -55.5 -21t-29.5 -63l-60 -298h-157l54 272q5 25 5 42q0 35 -14.5 51.5t-44.5 16.5q-68 0 -86 -84l-60 -298h-156l99 499h157l-11 -55q29 34 63 51.5t76 17.5
q54 0 88.5 -23.5t48.5 -69.5q32 46 71 69.5t90 23.5q73 0 109.5 -38z" />
    <glyph glyph-name="n" unicode="n" horiz-adv-x="592" 
d="M511 474q37 -39 37 -112q0 -33 -6 -65l-60 -297h-157l54 272q5 25 5 44q0 66 -63 66q-36 0 -59 -21t-32 -63l-60 -298h-156l99 499h157l-10 -51q29 34 64 49.5t79 15.5q71 0 108 -39z" />
    <glyph glyph-name="o" unicode="o" horiz-adv-x="588" 
d="M133 16.5q-50 29.5 -74 79.5t-24 113q0 88 35.5 157t102 108t157.5 39q76 0 126.5 -29t74 -78.5t23.5 -110.5q0 -90 -35.5 -159.5t-102.5 -109t-158 -39.5q-75 0 -125 29.5zM340 143q26 24 38.5 63t12.5 84q0 43 -18 67.5t-60 24.5q-38 0 -63.5 -24t-38.5 -62.5
t-13 -81.5q0 -46 18 -70.5t59 -24.5q39 0 65 24z" />
    <glyph glyph-name="p" unicode="p" horiz-adv-x="607" 
d="M531 453q42 -60 42 -160q0 -81 -31 -151t-88.5 -112.5t-132.5 -42.5q-52 0 -86 19t-52 58l-53 -264h-156l139 699h153l-9 -46q30 31 65.5 45.5t78.5 14.5q88 0 130 -60zM355 141q27 22 40 58.5t13 80.5q0 49 -18.5 75.5t-59.5 26.5q-82 0 -105 -100q-6 -32 -9.5 -51.5
t-3.5 -29.5q0 -40 19 -61t58 -21t66 22z" />
    <glyph glyph-name="q" unicode="q" horiz-adv-x="607" 
d="M594 499l-140 -699h-157l48 241q-29 -28 -63.5 -41.5t-75.5 -13.5q-88 0 -130 60t-42 161q0 80 31 150t88.5 112.5t132.5 42.5q54 0 89 -20.5t52 -62.5l14 70h153zM218 144q18 -26 59 -26q42 0 68.5 25.5t36.5 74.5q6 32 9.5 51.5t3.5 28.5q0 40 -19.5 61.5t-57.5 21.5
q-39 0 -65.5 -22t-39.5 -59t-13 -81q0 -49 18 -75z" />
    <glyph glyph-name="r" unicode="r" horiz-adv-x="405" 
d="M441 500l-28 -138q-10 2 -22 3.5t-24 1.5q-60 0 -99 -38.5t-54 -112.5l-44 -216h-156l99 499h150l-13 -64q56 72 142 72q26 0 49 -7z" />
    <glyph glyph-name="s" unicode="s" horiz-adv-x="499" 
d="M61.5 21.5q-51.5 38.5 -51.5 108.5q0 16 3 34h155q-3 -13 -3 -26q0 -47 56 -47q29 0 43.5 13t14.5 31q0 17 -10 29t-27.5 21t-47.5 21q-61 24 -92 56t-31 87q0 52 27.5 89t75.5 56t108 19q94 0 141.5 -34t47.5 -97q0 -8 -2 -28h-149q2 12 2 21q0 40 -47 40
q-25 0 -38 -11.5t-13 -28.5q0 -20 20.5 -34.5t70.5 -34.5q44 -17 72.5 -36.5t43.5 -47t15 -66.5q0 -55 -30 -94t-81.5 -59t-117.5 -20q-104 0 -155.5 38.5z" />
    <glyph glyph-name="t" unicode="t" horiz-adv-x="372" 
d="M91.5 20q-36.5 29 -36.5 95q0 31 9 73l37 187h-63l24 124h64l23 117h157l-23 -117h111l-25 -124h-111l-36 -177q-3 -16 -3 -28q0 -27 13 -39t40 -12q21 0 46 6l-26 -126q-46 -8 -86 -8q-78 0 -114.5 29z" />
    <glyph glyph-name="u" unicode="u" horiz-adv-x="592" 
d="M578 499l-100 -499h-157l10 49q-29 -32 -64 -47.5t-78 -15.5q-71 0 -108 39t-37 112q0 33 6 66l59 296h157l-54 -271q-5 -25 -5 -44q0 -66 64 -66q74 0 90 84l60 297h157z" />
    <glyph glyph-name="v" unicode="v" horiz-adv-x="557" 
d="M61 499h161l33 -317l161 317h180l-276 -499h-182z" />
    <glyph glyph-name="w" unicode="w" horiz-adv-x="829" 
d="M868 499l-272 -499h-153l-26 286l-134 -286h-151l-71 499h160l22 -295l147 295h130l30 -294l141 294h177z" />
    <glyph glyph-name="x" unicode="x" horiz-adv-x="583" 
d="M203 263l-140 236h170l75 -134l113 134h193l-237 -250l152 -249h-172l-77 142l-120 -142h-199z" />
    <glyph glyph-name="y" unicode="y" horiz-adv-x="559" 
d="M597 499l-410 -699h-168l118 202l-76 497h158l38 -319l164 319h176z" />
    <glyph glyph-name="z" unicode="z" horiz-adv-x="480" 
d="M237 126h203l-25 -126h-459l299 375h-202l25 124h446z" />
    <glyph glyph-name="braceleft" unicode="{" horiz-adv-x="402" 
d="M489 818l-23 -113h-10q-38 0 -60 -9.5t-33.5 -29.5t-18.5 -54l-40 -198q-10 -52 -37.5 -77.5t-77.5 -30.5q36 -8 53.5 -31.5t17.5 -66.5q0 -22 -6 -49l-32 -154q-4 -19 -4 -38q0 -29 17.5 -42t61.5 -13h11l-23 -113h-45q-76 0 -114 37.5t-38 102.5q0 26 6 53l32 166
q4 19 4 36q0 30 -18.5 42t-60.5 12l27 129q36 0 57.5 8.5t34 28t19.5 54.5l39 196q9 45 33.5 80t63.5 54.5t90 19.5h74z" />
    <glyph glyph-name="bar" unicode="|" horiz-adv-x="440" 
d="M239 756h164l-191 -957h-164z" />
    <glyph glyph-name="braceright" unicode="}" horiz-adv-x="403" 
d="M314 381q18 -12 61 -12l-27 -130q-35 0 -57 -8.5t-34.5 -28t-19.5 -53.5l-39 -196q-14 -70 -62.5 -112t-124.5 -42h-74l23 113h10q38 0 60 9.5t33.5 29.5t18.5 54l39 198q10 52 38 77.5t78 30.5q-36 8 -53.5 31t-17.5 66q0 22 6 49l32 155q4 19 4 38q0 29 -17.5 42
t-61.5 13h-11l23 113h45q76 0 114 -37.5t38 -102.5q0 -25 -6 -54l-32 -165q-4 -19 -4 -36q0 -30 18 -42z" />
    <glyph glyph-name="asciitilde" unicode="~" horiz-adv-x="593" 
d="M348.5 192q-16.5 6 -31.5 16t-28 20q-19 16 -31.5 23.5t-27.5 7.5q-20 0 -32.5 -18t-21.5 -53h-118q25 106 67.5 160t106.5 54q29 0 49.5 -11t45.5 -32q3 -2 15 -12t22.5 -14.5t20.5 -4.5q20 0 33 18t22 54h118q-27 -107 -68.5 -160.5t-104.5 -53.5q-20 0 -36.5 6z" />
    <glyph glyph-name="uni00A0" unicode="&#xa0;" horiz-adv-x="185" 
 />
    <glyph glyph-name="exclamdown" unicode="&#xa1;" horiz-adv-x="326" 
d="M249.5 511.5q22.5 -12.5 35 -34.5t12.5 -50t-12.5 -49.5t-35 -34t-51.5 -12.5t-51 12.5t-34.5 34t-12.5 49.5t12.5 50t34.5 34.5t51 12.5t51.5 -12.5zM160 -200h-174l119 479h127z" />
    <glyph glyph-name="cent" unicode="&#xa2;" horiz-adv-x="569" 
d="M406 414v5q0 25 -10 42.5t-29 25.5l-54 -266q28 7 46 27.5t23 48.5h162q-22 -95 -89 -148t-165 -57l-18 -92h-66l18 96q-85 14 -127 72.5t-42 145.5q0 83 34.5 151t97 109t143.5 45l17 87h66l-18 -90q80 -12 125 -60t45 -126q0 -10 -1 -16h-158zM254.5 453
q-21.5 -26 -32.5 -61.5t-11 -73.5q0 -73 43 -92l53 262q-31 -9 -52.5 -35z" />
    <glyph glyph-name="sterling" unicode="&#xa3;" horiz-adv-x="655" 
d="M504 462q2 22 2 33q0 49 -18 74t-61 25q-48 0 -72 -29.5t-36 -85.5l-16 -81h161l-15 -79h-162l-39 -197h63q71 0 106.5 35.5t48.5 102.5h154q-18 -90 -50 -146.5t-89.5 -85t-148.5 -28.5h-348l25 122h72l39 197h-72l16 79h72l20 103q15 73 47 122t88.5 75t141.5 26
q123 0 177.5 -51t54.5 -149q0 -25 -5 -62h-156z" />
    <glyph glyph-name="currency" unicode="&#xa4;" horiz-adv-x="591" 
d="M532 265.5q-24 -51.5 -67 -87.5l59 -104h-114l-32 56q-45 -13 -89 -13q-65 0 -112 26l-66 -69h-114l118 123q-19 26 -28.5 59t-9.5 70q0 61 24 113.5t68 89.5l-61 102h114l33 -56q42 14 89 14q64 0 111 -25l66 67h114l-119 -120q20 -27 30 -61.5t10 -72.5
q0 -60 -24 -111.5zM228.5 262q25.5 -28 75.5 -28q38 0 66.5 18t44 48.5t15.5 65.5q0 50 -25.5 78.5t-75.5 28.5q-38 0 -67 -18t-44 -48.5t-15 -66.5q0 -50 25.5 -78z" />
    <glyph glyph-name="yen" unicode="&#xa5;" horiz-adv-x="619" 
d="M424 346h153l-15 -73h-162l-13 -68h162l-15 -73h-162l-26 -132h-170l26 132h-164l15 73h164l13 68h-164l15 73h155l-137 360h165l77 -233l169 233h192z" />
    <glyph glyph-name="brokenbar" unicode="&#xa6;" horiz-adv-x="440" 
d="M239 756h164l-65 -328h-164zM114 128h164l-66 -329h-164z" />
    <glyph glyph-name="section" unicode="&#xa7;" horiz-adv-x="526" 
d="M389 551q1 5 1 16q0 50 -57 50q-33 0 -51.5 -17t-18.5 -45q0 -22 12.5 -37.5t26.5 -23.5t54 -28q49 -23 78 -45.5t44.5 -52t15.5 -72.5q0 -72 -37.5 -119.5t-103.5 -67.5q38 -25 58 -57t20 -79q0 -59 -31.5 -101.5t-86.5 -64.5t-124 -22q-108 0 -159 39t-51 115
q0 18 1 28h156q-1 -7 -1 -20q0 -26 13.5 -40t45.5 -14q39 0 57.5 19.5t18.5 51.5q0 23 -12 38.5t-30 25.5t-54 27q-46 21 -75 42t-45.5 51t-16.5 74q0 71 43.5 116.5t117.5 60.5q-42 29 -65 62t-23 81q0 55 30 96.5t81.5 63.5t114.5 22q101 0 153 -37.5t52 -109.5
q0 -17 -1 -26h-151zM206 301.5q-24 -20.5 -24 -53.5q0 -29 19.5 -46t55.5 -17q42 0 66 20.5t24 53.5q0 31 -19.5 47t-55.5 16q-42 0 -66 -20.5z" />
    <glyph glyph-name="dieresis" unicode="&#xa8;" horiz-adv-x="475" 
d="M170.5 579q-18.5 10 -29 27.5t-10.5 39.5t10.5 40t29 28.5t41.5 10.5t41.5 -10.5t29.5 -28.5t11 -40t-11 -39.5t-29.5 -27.5t-41.5 -10t-41.5 10zM379.5 579q-18.5 10 -29 27.5t-10.5 39.5t10.5 40t29 28.5t41.5 10.5t41.5 -10.5t29.5 -28.5t11 -40t-11 -39.5
t-29.5 -27.5t-41.5 -10t-41.5 10z" />
    <glyph glyph-name="copyright" unicode="&#xa9;" horiz-adv-x="808" 
d="M211.5 26q-73.5 44 -110.5 119t-37 168q0 112 51 206t141 149.5t202 55.5q106 0 180 -42t111.5 -115t37.5 -165q0 -115 -51 -211t-141 -152.5t-203 -56.5q-107 0 -180.5 44zM561.5 94.5q73.5 48.5 114 130.5t40.5 179q0 75 -29 132.5t-87 90.5t-142 33q-95 0 -169 -47
t-115 -126.5t-41 -174.5q0 -76 29.5 -136t88 -95t142.5 -35q95 0 168.5 48.5zM298 134q-45 25 -69.5 73t-24.5 116q0 75 31 138t87.5 100t130.5 37q61 0 105 -21.5t67.5 -61t23.5 -91.5q0 -14 -1 -21h-139q2 21 -5.5 39t-23 28t-37.5 10q-35 0 -58 -24.5t-33.5 -61.5
t-10.5 -75q0 -43 17 -65.5t50 -22.5q31 0 52 18.5t29 47.5h140q-11 -56 -43 -98.5t-79 -66t-102 -23.5q-62 0 -107 25z" />
    <glyph glyph-name="ordfeminine" unicode="&#xaa;" horiz-adv-x="417" 
d="M401 686.5q38 -30.5 38 -92.5q0 -25 -6 -55l-37 -182h-120l8 40q-47 -49 -111 -49q-53 0 -79.5 26t-26.5 73q0 124 183 124h66q4 16 4 27q0 18 -9.5 26.5t-33.5 8.5q-21 0 -31.5 -10t-13.5 -29h-126q11 60 54.5 91.5t118.5 31.5q84 0 122 -30.5zM280 453.5
q15 16.5 23 53.5h-46q-28 0 -43 -8t-15 -29q0 -33 38 -33q28 0 43 16.5z" />
    <glyph glyph-name="guillemotleft" unicode="&#xab;" horiz-adv-x="599" 
d="M30 294l171 160h169l-182 -169l108 -161h-153zM287 294l171 160h169l-182 -169l108 -161h-153z" />
    <glyph glyph-name="logicalnot" unicode="&#xac;" horiz-adv-x="593" 
d="M425 318h-356l25 122h481l-78 -388h-125z" />
    <glyph glyph-name="uni00AD" unicode="&#xad;" horiz-adv-x="410" 
d="M78 360h298l-27 -132h-298z" />
    <glyph glyph-name="registered" unicode="&#xae;" horiz-adv-x="488" 
d="M417.5 696.5q43.5 -23.5 65 -66t21.5 -98.5q0 -65 -27.5 -117t-77.5 -81.5t-116 -29.5q-64 0 -107.5 24t-65 66.5t-21.5 99.5q0 64 27.5 115.5t77.5 81t116 29.5q64 0 107.5 -23.5zM373.5 376.5q37.5 23.5 56.5 64t19 92.5q0 65 -34 101.5t-105 36.5q-53 0 -90.5 -23
t-56.5 -62.5t-19 -90.5q0 -66 34.5 -104t104.5 -38q53 0 90.5 23.5zM386 608q22 -16 22 -49q0 -24 -11.5 -40t-33.5 -22q22 -14 22 -43q0 -11 -2 -21l-7 -33h-73l7 34q2 10 2 17q0 12 -6.5 17.5t-21.5 5.5h-16l-15 -74h-73l45 224h93q46 0 68 -16zM327.5 534.5
q7.5 6.5 7.5 16.5q0 20 -27 20h-21l-9 -43h27q15 0 22.5 6.5z" />
    <glyph glyph-name="macron" unicode="&#xaf;" horiz-adv-x="405" 
d="M139 695h305l-20 -99h-305z" />
    <glyph glyph-name="degree" unicode="&#xb0;" horiz-adv-x="374" 
d="M165.5 436q-37.5 20 -58.5 55t-21 79t21 79.5t58.5 55t85.5 19.5t86 -19.5t59 -55t21 -79.5t-21.5 -79t-59 -55t-85.5 -20t-85.5 20zM292.5 529q15.5 15 15.5 41t-16 42t-40 16q-26 0 -41.5 -16t-15.5 -42t15.5 -41t41.5 -15q25 0 40.5 15z" />
    <glyph glyph-name="plusminus" unicode="&#xb1;" horiz-adv-x="593" 
d="M575 435l-26 -123h-178l-24 -123h-127l25 123h-177l25 123h177l24 121h126l-24 -121h179zM37 155h482l-26 -123h-481z" />
    <glyph glyph-name="twosuperior" unicode="&#xb2;" horiz-adv-x="388" 
d="M54 444l218 191q33 29 45.5 44.5t12.5 30.5t-11 23.5t-29 8.5q-24 0 -36.5 -14.5t-16.5 -34.5h-120q12 66 57 105t120 39q77 0 116.5 -29.5t39.5 -84.5q0 -31 -13.5 -56.5t-41.5 -48.5q-42 -35 -90 -72h117l-22 -108h-347z" />
    <glyph glyph-name="threesuperior" unicode="&#xb3;" horiz-adv-x="377" 
d="M397.5 605.5q13.5 -18.5 13.5 -48.5q0 -42 -22.5 -71t-63 -44t-93.5 -15q-151 0 -151 122q0 16 3 35l110 -1q-3 -9 -3 -18q0 -45 45 -45q25 0 39 12.5t14 33.5q0 18 -11.5 25.5t-33.5 7.5h-17l15 75h17q27 0 41 9.5t14 28.5q0 14 -10 23t-29 9q-42 0 -50 -47h-113
q14 68 59.5 104t120.5 36q69 0 106.5 -28.5t37.5 -78.5q0 -35 -21 -59.5t-59 -37.5q28 -9 41.5 -27.5z" />
    <glyph glyph-name="acute" unicode="&#xb4;" horiz-adv-x="342" 
d="M227 727h160l-129 -157h-144z" />
    <glyph glyph-name="mu" unicode="&#xb5;" horiz-adv-x="595" 
d="M581 499l-100 -499h-151l10 50q-55 -63 -134 -63q-30 0 -50 10q-3 -72 -17 -135l-12 -64h-153l139 701h153l-58 -288q-4 -20 -4 -39q0 -30 15 -43.5t47 -13.5q42 0 68 23.5t36 74.5l57 286h154z" />
    <glyph glyph-name="paragraph" unicode="&#xb6;" horiz-adv-x="739" 
d="M304 267h-23q-111 0 -160.5 51.5t-49.5 146.5q0 75 29 129.5t84.5 83t133.5 28.5h497l-26 -128h-67l-155 -779h-138l155 779h-80l-156 -779h-137z" />
    <glyph glyph-name="periodcentered" unicode="&#xb7;" horiz-adv-x="326" 
d="M121.5 216.5q-22.5 12.5 -35 34.5t-12.5 50t12.5 49.5t35 34t51.5 12.5t51 -12.5t34.5 -34t12.5 -49.5t-12.5 -50t-34.5 -34.5t-51 -12.5t-51.5 12.5z" />
    <glyph glyph-name="cedilla" unicode="&#xb8;" horiz-adv-x="351" 
d="M200.5 -65.5q22.5 -23.5 22.5 -60.5q0 -55 -44 -81.5t-117 -26.5q-30 0 -57 5.5t-48 15.5l30 72q33 -15 73 -15q27 0 42 8.5t15 24.5q0 15 -15 22.5t-48 7.5h-47l43 98h106l-19 -42q41 -5 63.5 -28.5z" />
    <glyph glyph-name="onesuperior" unicode="&#xb9;" horiz-adv-x="291" 
d="M185 716h-69l42 110h175l-78 -388h-125z" />
    <glyph glyph-name="ordmasculine" unicode="&#xba;" horiz-adv-x="419" 
d="M122.5 392q-41.5 44 -41.5 118q0 59 25.5 106t71.5 74t105 27q85 0 126.5 -44t41.5 -117q0 -58 -26 -105.5t-72 -75t-105 -27.5q-84 0 -125.5 44zM304.5 483q16.5 31 16.5 75q0 28 -9.5 42.5t-33.5 14.5q-33 0 -50 -31t-17 -75q0 -28 9.5 -42.5t33.5 -14.5q34 0 50.5 31z
" />
    <glyph glyph-name="guillemotright" unicode="&#xbb;" horiz-adv-x="599" 
d="M328 284l-171 -160h-169l182 170l-108 160h153zM585 284l-171 -160h-169l182 170l-108 160h153z" />
    <glyph glyph-name="onequarter" unicode="&#xbc;" horiz-adv-x="904" 
d="M161 596h-69l42 110h175l-78 -388h-125zM643 706h111l-549 -706h-110zM677 69h-236v2l200 317h218l-44 -218h58l-19 -101h-59l-14 -69h-118zM697 170l36 179l-102 -179h66z" />
    <glyph glyph-name="onehalf" unicode="&#xbd;" horiz-adv-x="883" 
d="M161 596h-69l42 110h175l-78 -388h-125zM643 706h111l-549 -706h-110zM460 6l218 191q33 29 45.5 44.5t12.5 30.5t-11 23.5t-29 8.5q-24 0 -36.5 -14.5t-16.5 -34.5h-120q12 66 57 105t120 39q77 0 116.5 -29.5t39.5 -84.5q0 -31 -13.5 -56.5t-41.5 -48.5
q-42 -35 -90 -72h117l-22 -108h-347z" />
    <glyph glyph-name="threequarters" unicode="&#xbe;" horiz-adv-x="979" 
d="M373.5 485.5q13.5 -18.5 13.5 -48.5q0 -42 -22.5 -71t-63 -44t-93.5 -15q-151 0 -151 122q0 16 3 35l110 -1q-3 -9 -3 -18q0 -45 45 -45q25 0 39 12.5t14 33.5q0 18 -11.5 25.5t-33.5 7.5h-17l15 75h17q27 0 41 9.5t14 28.5q0 14 -10 23t-29 9q-42 0 -50 -47h-113
q14 68 59.5 104t120.5 36q69 0 106.5 -28.5t37.5 -78.5q0 -35 -21 -59.5t-59 -37.5q28 -9 41.5 -27.5zM718 706h111l-549 -706h-110zM752 69h-236v2l200 317h218l-44 -218h58l-19 -101h-59l-14 -69h-118zM772 170l36 179l-102 -179h66z" />
    <glyph glyph-name="questiondown" unicode="&#xbf;" horiz-adv-x="537" 
d="M370 515.5q22 -12.5 34.5 -34.5t12.5 -50t-12.5 -49.5t-34.5 -34t-51 -12.5t-51 12.5t-34.5 34t-12.5 49.5t12.5 50t34.5 34.5t51 12.5t51 -12.5zM254.5 143q-47.5 -55 -74.5 -99t-27 -76q0 -28 16 -43.5t48 -15.5q38 0 54.5 21.5t23.5 61.5h155q-35 -206 -245 -206
q-105 0 -162.5 47t-57.5 134q0 42 22 87t63.5 96.5t115.5 132.5h195q-79 -85 -126.5 -140z" />
    <glyph glyph-name="Agrave" unicode="&#xc0;" horiz-adv-x="699" 
d="M463 137h-262l-67 -137h-179l360 706h251l78 -706h-169zM451 264l-28 319h-2l-157 -319h187zM413 772l-92 142h150l77 -142h-135z" />
    <glyph glyph-name="Aacute" unicode="&#xc1;" horiz-adv-x="699" 
d="M463 137h-262l-67 -137h-179l360 706h251l78 -706h-169zM451 264l-28 319h-2l-157 -319h187zM474 914h170l-129 -142h-155z" />
    <glyph glyph-name="Acircumflex" unicode="&#xc2;" horiz-adv-x="699" 
d="M463 137h-262l-67 -137h-179l360 706h251l78 -706h-169zM451 264l-28 319h-2l-157 -319h187zM393 914h178l74 -142h-134l-38 72l-67 -72h-146z" />
    <glyph glyph-name="Atilde" unicode="&#xc3;" horiz-adv-x="699" 
d="M463 137h-262l-67 -137h-179l360 706h251l78 -706h-169zM451 264l-28 319h-2l-157 -319h187zM499.5 775q-18.5 7 -38.5 19q-22 12 -35.5 17.5t-26.5 5.5q-36 0 -49 -48h-87q18 73 51.5 109.5t86.5 36.5q25 0 44 -7.5t38 -21.5q14 -10 26 -15t26 -5q19 0 31 11.5t22 37.5
h85q-17 -72 -49.5 -109.5t-82.5 -37.5q-23 0 -41.5 7z" />
    <glyph glyph-name="Adieresis" unicode="&#xc4;" horiz-adv-x="699" 
d="M463 137h-262l-67 -137h-179l360 706h251l78 -706h-169zM451 264l-28 319h-2l-157 -319h187zM317 780q-18 10 -28.5 27t-10.5 38q0 22 10.5 39t28.5 27t40 10t40 -10t28.5 -27t10.5 -39q0 -21 -10.5 -38t-28.5 -27t-40 -10t-40 10zM538 780q-18 10 -28 27t-10 38
q0 33 22.5 54.5t56.5 21.5q22 0 40 -10t28.5 -27t10.5 -39q0 -21 -10.5 -38t-28.5 -27t-40 -10q-23 0 -41 10z" />
    <glyph glyph-name="Aring" unicode="&#xc5;" horiz-adv-x="699" 
d="M463 137h-262l-67 -137h-179l360 706h251l78 -706h-169zM451 264l-28 319h-2l-157 -319h187zM389 753.5q-31 15.5 -47.5 44t-16.5 64.5q0 37 16.5 65t47 43.5t71.5 15.5t72 -15.5t48 -43.5t17 -65q0 -36 -17 -64.5t-48.5 -44t-71.5 -15.5t-71 15.5zM496.5 828
q13.5 13 13.5 34q0 22 -13.5 35.5t-36.5 13.5q-22 0 -35.5 -13.5t-13.5 -35.5q0 -21 13.5 -34t35.5 -13q23 0 36.5 13z" />
    <glyph glyph-name="AE" unicode="&#xc6;" horiz-adv-x="846" 
d="M602 571l-12 -145h233l-26 -136h-218l-13 -155h203l-27 -135h-356l13 139h-187l-72 -139h-185l388 706h540l-27 -135h-254zM411 265l30 311h-2l-161 -311h133z" />
    <glyph glyph-name="Ccedilla" unicode="&#xc7;" horiz-adv-x="721" 
d="M546 438l1 16q0 61 -30 94.5t-87 33.5q-64 0 -108.5 -42.5t-67 -112t-22.5 -147.5q0 -72 32 -113.5t94 -41.5q60 0 94 32.5t50 94.5h182q-14 -74 -54.5 -131.5t-100.5 -93t-134 -43.5l-10 -21q41 -5 63.5 -28.5t22.5 -60.5q0 -55 -44 -81.5t-117 -26.5q-30 0 -57 5.5
t-48 15.5l30 72q33 -15 73 -15q26 0 41.5 8.5t15.5 24.5q0 15 -15 22.5t-48 7.5h-47l35 79q-120 16 -175.5 92.5t-55.5 196.5q0 124 48 226.5t136.5 162.5t203.5 60q83 0 144.5 -30.5t94.5 -87t33 -132.5q0 -16 -3 -36h-170z" />
    <glyph glyph-name="Egrave" unicode="&#xc8;" horiz-adv-x="571" 
d="M168 706h439l-26 -135h-273l-30 -145h270l-27 -136h-269l-31 -155h272l-27 -135h-439zM352 772l-92 142h150l77 -142h-135z" />
    <glyph glyph-name="Eacute" unicode="&#xc9;" horiz-adv-x="571" 
d="M168 706h439l-26 -135h-273l-30 -145h270l-27 -136h-269l-31 -155h272l-27 -135h-439zM414 914h170l-129 -142h-155z" />
    <glyph glyph-name="Ecircumflex" unicode="&#xca;" horiz-adv-x="571" 
d="M168 706h439l-26 -135h-273l-30 -145h270l-27 -136h-269l-31 -155h272l-27 -135h-439zM333 914h178l74 -142h-134l-38 72l-67 -72h-146z" />
    <glyph glyph-name="Edieresis" unicode="&#xcb;" horiz-adv-x="571" 
d="M168 706h439l-26 -135h-273l-30 -145h270l-27 -136h-269l-31 -155h272l-27 -135h-439zM256 780q-18 10 -28.5 27t-10.5 38q0 22 10.5 39t28.5 27t40 10t40 -10t28.5 -27t10.5 -39q0 -21 -10.5 -38t-28.5 -27t-40 -10t-40 10zM477 780q-18 10 -28 27t-10 38
q0 33 22.5 54.5t56.5 21.5q22 0 40 -10t28.5 -27t10.5 -39q0 -21 -10.5 -38t-28.5 -27t-40 -10q-23 0 -41 10z" />
    <glyph glyph-name="Igrave" unicode="&#xcc;" horiz-adv-x="320" 
d="M168 706h166l-141 -706h-166zM223 772l-92 142h150l77 -142h-135z" />
    <glyph glyph-name="Iacute" unicode="&#xcd;" horiz-adv-x="320" 
d="M168 706h166l-141 -706h-166zM285 914h170l-129 -142h-155z" />
    <glyph glyph-name="Icircumflex" unicode="&#xce;" horiz-adv-x="320" 
d="M168 706h166l-141 -706h-166zM204 914h175l56 -142h-126l-26 73l-55 -73h-136z" />
    <glyph glyph-name="Idieresis" unicode="&#xcf;" horiz-adv-x="320" 
d="M168 706h166l-141 -706h-166zM153 781q-17 10 -26.5 27t-9.5 38t9.5 38.5t26.5 27.5t38 10t38 -10t27 -27.5t10 -38.5t-10 -38t-27 -27t-38 -10t-38 10zM313.5 792q-20.5 21 -20.5 53q0 33 20.5 55t52.5 22q21 0 38 -10t27 -27.5t10 -39.5q0 -21 -10 -38t-27 -26.5
t-38 -9.5q-32 0 -52.5 21z" />
    <glyph glyph-name="Eth" unicode="&#xd0;" horiz-adv-x="722" 
d="M625.5 629.5q76.5 -76.5 76.5 -211.5q0 -121 -47.5 -215.5t-136.5 -148.5t-208 -54h-283l61 305h-55l20 105h56l59 296h213q168 0 244.5 -76.5zM421.5 169.5q53.5 34.5 80 95t26.5 138.5q0 81 -35 124.5t-118 43.5h-67l-32 -161h143l-20 -105h-144l-34 -170h68
q79 0 132.5 34.5z" />
    <glyph glyph-name="Ntilde" unicode="&#xd1;" horiz-adv-x="753" 
d="M168 706h165l181 -462l92 462h162l-141 -706h-166l-181 462l-92 -462h-161zM516.5 775q-18.5 7 -38.5 19q-22 12 -35.5 17.5t-26.5 5.5q-36 0 -49 -48h-87q18 73 51.5 109.5t86.5 36.5q25 0 44 -7.5t38 -21.5q14 -10 26 -15t26 -5q19 0 31 11.5t22 37.5h85
q-17 -72 -49.5 -109.5t-82.5 -37.5q-23 0 -41.5 7z" />
    <glyph glyph-name="Ograve" unicode="&#xd2;" horiz-adv-x="752" 
d="M130.5 59.5q-71.5 77.5 -71.5 212.5q0 123 45.5 226.5t131 164.5t200.5 61q153 0 225.5 -78.5t72.5 -211.5q0 -124 -45 -227t-130.5 -164t-201.5 -61q-155 0 -226.5 77.5zM470 168.5q46 44.5 69 114.5t23 144q0 73 -30 114t-99 41q-65 0 -111 -44t-68.5 -113.5
t-22.5 -144.5q0 -71 31.5 -113.5t97.5 -42.5q64 0 110 44.5zM439 772l-92 142h150l77 -142h-135z" />
    <glyph glyph-name="Oacute" unicode="&#xd3;" horiz-adv-x="752" 
d="M130.5 59.5q-71.5 77.5 -71.5 212.5q0 123 45.5 226.5t131 164.5t200.5 61q153 0 225.5 -78.5t72.5 -211.5q0 -124 -45 -227t-130.5 -164t-201.5 -61q-155 0 -226.5 77.5zM470 168.5q46 44.5 69 114.5t23 144q0 73 -30 114t-99 41q-65 0 -111 -44t-68.5 -113.5
t-22.5 -144.5q0 -71 31.5 -113.5t97.5 -42.5q64 0 110 44.5zM500 914h170l-129 -142h-155z" />
    <glyph glyph-name="Ocircumflex" unicode="&#xd4;" horiz-adv-x="752" 
d="M130.5 59.5q-71.5 77.5 -71.5 212.5q0 123 45.5 226.5t131 164.5t200.5 61q153 0 225.5 -78.5t72.5 -211.5q0 -124 -45 -227t-130.5 -164t-201.5 -61q-155 0 -226.5 77.5zM470 168.5q46 44.5 69 114.5t23 144q0 73 -30 114t-99 41q-65 0 -111 -44t-68.5 -113.5
t-22.5 -144.5q0 -71 31.5 -113.5t97.5 -42.5q64 0 110 44.5zM419 914h178l74 -142h-134l-38 72l-67 -72h-146z" />
    <glyph glyph-name="Otilde" unicode="&#xd5;" horiz-adv-x="752" 
d="M130.5 59.5q-71.5 77.5 -71.5 212.5q0 123 45.5 226.5t131 164.5t200.5 61q153 0 225.5 -78.5t72.5 -211.5q0 -124 -45 -227t-130.5 -164t-201.5 -61q-155 0 -226.5 77.5zM470 168.5q46 44.5 69 114.5t23 144q0 73 -30 114t-99 41q-65 0 -111 -44t-68.5 -113.5
t-22.5 -144.5q0 -71 31.5 -113.5t97.5 -42.5q64 0 110 44.5zM525.5 775q-18.5 7 -38.5 19q-22 12 -35.5 17.5t-26.5 5.5q-36 0 -49 -48h-87q18 73 51.5 109.5t86.5 36.5q25 0 44 -7.5t38 -21.5q14 -10 26 -15t26 -5q19 0 31 11.5t22 37.5h85q-17 -72 -49.5 -109.5
t-82.5 -37.5q-23 0 -41.5 7z" />
    <glyph glyph-name="Odieresis" unicode="&#xd6;" horiz-adv-x="752" 
d="M130.5 59.5q-71.5 77.5 -71.5 212.5q0 123 45.5 226.5t131 164.5t200.5 61q153 0 225.5 -78.5t72.5 -211.5q0 -124 -45 -227t-130.5 -164t-201.5 -61q-155 0 -226.5 77.5zM470 168.5q46 44.5 69 114.5t23 144q0 73 -30 114t-99 41q-65 0 -111 -44t-68.5 -113.5
t-22.5 -144.5q0 -71 31.5 -113.5t97.5 -42.5q64 0 110 44.5zM343 780q-18 10 -28.5 27t-10.5 38q0 22 10.5 39t28.5 27t40 10t40 -10t28.5 -27t10.5 -39q0 -21 -10.5 -38t-28.5 -27t-40 -10t-40 10zM564 780q-18 10 -28 27t-10 38q0 33 22.5 54.5t56.5 21.5q22 0 40 -10
t28.5 -27t10.5 -39q0 -21 -10.5 -38t-28.5 -27t-40 -10q-23 0 -41 10z" />
    <glyph glyph-name="multiply" unicode="&#xd7;" horiz-adv-x="593" 
d="M392 287l108 -136l-94 -79l-109 136l-173 -145l-78 95l175 146l-109 136l95 79l108 -136l172 143l77 -95z" />
    <glyph glyph-name="Oslash" unicode="&#xd8;" horiz-adv-x="752" 
d="M706 579q28 -62 28 -145q0 -124 -45 -227t-130.5 -164t-201.5 -61q-155 0 -232 83l-71 -65h-113l144 128q-26 59 -26 144q0 123 45.5 226.5t131 164.5t200.5 61q156 0 230 -84l72 66h112zM322 538q-46 -44 -68.5 -113.5t-22.5 -144.5q0 -19 1 -28l307 279q-32 51 -106 51
q-65 0 -111 -44zM470 168.5q46 44.5 69 114.5t23 144q0 20 -1 29l-306 -279q32 -53 105 -53q64 0 110 44.5z" />
    <glyph glyph-name="Ugrave" unicode="&#xd9;" horiz-adv-x="690" 
d="M122 35q-64 53 -64 155q0 44 11 96l84 420h166l-88 -442q-5 -24 -5 -53q0 -43 22.5 -64.5t73.5 -21.5q64 0 96 31.5t45 97.5l90 452h166l-97 -489q-23 -117 -98.5 -176t-207.5 -59q-130 0 -194 53zM404 772l-92 142h150l77 -142h-135z" />
    <glyph glyph-name="Uacute" unicode="&#xda;" horiz-adv-x="690" 
d="M122 35q-64 53 -64 155q0 44 11 96l84 420h166l-88 -442q-5 -24 -5 -53q0 -43 22.5 -64.5t73.5 -21.5q64 0 96 31.5t45 97.5l90 452h166l-97 -489q-23 -117 -98.5 -176t-207.5 -59q-130 0 -194 53zM466 914h170l-129 -142h-155z" />
    <glyph glyph-name="Ucircumflex" unicode="&#xdb;" horiz-adv-x="690" 
d="M122 35q-64 53 -64 155q0 44 11 96l84 420h166l-88 -442q-5 -24 -5 -53q0 -43 22.5 -64.5t73.5 -21.5q64 0 96 31.5t45 97.5l90 452h166l-97 -489q-23 -117 -98.5 -176t-207.5 -59q-130 0 -194 53zM385 914h178l74 -142h-134l-38 72l-67 -72h-146z" />
    <glyph glyph-name="Udieresis" unicode="&#xdc;" horiz-adv-x="690" 
d="M122 35q-64 53 -64 155q0 44 11 96l84 420h166l-88 -442q-5 -24 -5 -53q0 -43 22.5 -64.5t73.5 -21.5q64 0 96 31.5t45 97.5l90 452h166l-97 -489q-23 -117 -98.5 -176t-207.5 -59q-130 0 -194 53zM309 780q-18 10 -28.5 27t-10.5 38q0 22 10.5 39t28.5 27t40 10t40 -10
t28.5 -27t10.5 -39q0 -21 -10.5 -38t-28.5 -27t-40 -10t-40 10zM530 780q-18 10 -28 27t-10 38q0 33 22.5 54.5t56.5 21.5q22 0 40 -10t28.5 -27t10.5 -39q0 -21 -10.5 -38t-28.5 -27t-40 -10q-23 0 -41 10z" />
    <glyph glyph-name="Yacute" unicode="&#xdd;" horiz-adv-x="612" 
d="M234 303l-138 403h165l83 -241l162 241h192l-298 -403l-61 -303h-166zM412 914h170l-129 -142h-155z" />
    <glyph glyph-name="Thorn" unicode="&#xde;" horiz-adv-x="613" 
d="M168 706h166l-20 -102h50q130 0 189.5 -54.5t59.5 -157.5q0 -83 -33.5 -145.5t-96 -96.5t-147.5 -34h-120l-23 -116h-166zM312 246q64 0 97 33.5t33 93.5q0 53 -27.5 77t-87.5 24h-39l-45 -228h69z" />
    <glyph glyph-name="germandbls" unicode="&#xdf;" horiz-adv-x="613" 
d="M549.5 332q20.5 -40 20.5 -94q0 -75 -37 -129t-104.5 -82t-157.5 -28q-28 0 -58 2l25 122h31q68 0 103 31t35 87q0 91 -111 91h-12l22 116h29q52 0 80 23.5t28 67.5q0 71 -70 71q-48 0 -70.5 -31t-33.5 -87l-99 -492h-156l102 509q20 101 83.5 158t184.5 57
q111 0 164 -47.5t53 -127.5q0 -58 -30 -98.5t-85 -57.5q43 -21 63.5 -61z" />
    <glyph glyph-name="agrave" unicode="&#xe0;" horiz-adv-x="583" 
d="M484 468.5q51 -44.5 51 -132.5q0 -17 -3 -38.5t-8 -47.5l-50 -250h-159l10 50q-60 -63 -158 -63q-76 0 -114 37.5t-38 102.5q0 97 72 137.5t196 40.5h93q4 21 4 38q0 31 -14.5 45.5t-50.5 14.5q-38 0 -56.5 -16.5t-24.5 -47.5h-162q15 84 78.5 129t167.5 45
q115 0 166 -44.5zM321 128.5q25 25.5 37 84.5h-71q-49 0 -75 -13t-26 -48q0 -25 14.5 -37t47.5 -12q48 0 73 25.5zM313 570l-80 157h146l64 -157h-130z" />
    <glyph glyph-name="aacute" unicode="&#xe1;" horiz-adv-x="583" 
d="M484 468.5q51 -44.5 51 -132.5q0 -17 -3 -38.5t-8 -47.5l-50 -250h-159l10 50q-60 -63 -158 -63q-76 0 -114 37.5t-38 102.5q0 97 72 137.5t196 40.5h93q4 21 4 38q0 31 -14.5 45.5t-50.5 14.5q-38 0 -56.5 -16.5t-24.5 -47.5h-162q15 84 78.5 129t167.5 45
q115 0 166 -44.5zM321 128.5q25 25.5 37 84.5h-71q-49 0 -75 -13t-26 -48q0 -25 14.5 -37t47.5 -12q48 0 73 25.5zM376 727h160l-129 -157h-144z" />
    <glyph glyph-name="acircumflex" unicode="&#xe2;" horiz-adv-x="583" 
d="M484 468.5q51 -44.5 51 -132.5q0 -17 -3 -38.5t-8 -47.5l-50 -250h-159l10 50q-60 -63 -158 -63q-76 0 -114 37.5t-38 102.5q0 97 72 137.5t196 40.5h93q4 21 4 38q0 31 -14.5 45.5t-50.5 14.5q-38 0 -56.5 -16.5t-24.5 -47.5h-162q15 84 78.5 129t167.5 45
q115 0 166 -44.5zM321 128.5q25 25.5 37 84.5h-71q-49 0 -75 -13t-26 -48q0 -25 14.5 -37t47.5 -12q48 0 73 25.5zM294 728h178l67 -158h-133l-36 88l-69 -88h-139z" />
    <glyph glyph-name="atilde" unicode="&#xe3;" horiz-adv-x="583" 
d="M484 468.5q51 -44.5 51 -132.5q0 -17 -3 -38.5t-8 -47.5l-50 -250h-159l10 50q-60 -63 -158 -63q-76 0 -114 37.5t-38 102.5q0 97 72 137.5t196 40.5h93q4 21 4 38q0 31 -14.5 45.5t-50.5 14.5q-38 0 -56.5 -16.5t-24.5 -47.5h-162q15 84 78.5 129t167.5 45
q115 0 166 -44.5zM321 128.5q25 25.5 37 84.5h-71q-49 0 -75 -13t-26 -48q0 -25 14.5 -37t47.5 -12q48 0 73 25.5zM357 596q-5 3 -16.5 11.5t-20.5 12.5t-17 4q-16 0 -26 -13t-16 -40h-93q17 80 49.5 119.5t83.5 39.5q23 0 40.5 -7.5t35.5 -21.5q20 -14 31 -20t23 -6
q17 0 27 12.5t17 40.5h93q-17 -80 -49.5 -119.5t-84.5 -39.5q-43 0 -77 27z" />
    <glyph glyph-name="adieresis" unicode="&#xe4;" horiz-adv-x="583" 
d="M484 468.5q51 -44.5 51 -132.5q0 -17 -3 -38.5t-8 -47.5l-50 -250h-159l10 50q-60 -63 -158 -63q-76 0 -114 37.5t-38 102.5q0 97 72 137.5t196 40.5h93q4 21 4 38q0 31 -14.5 45.5t-50.5 14.5q-38 0 -56.5 -16.5t-24.5 -47.5h-162q15 84 78.5 129t167.5 45
q115 0 166 -44.5zM321 128.5q25 25.5 37 84.5h-71q-49 0 -75 -13t-26 -48q0 -25 14.5 -37t47.5 -12q48 0 73 25.5zM221.5 579q-18.5 10 -29 27.5t-10.5 39.5t10.5 40t29 28.5t41.5 10.5t41.5 -10.5t29.5 -28.5t11 -40t-11 -39.5t-29.5 -27.5t-41.5 -10t-41.5 10zM430.5 579
q-18.5 10 -29 27.5t-10.5 39.5t10.5 40t29 28.5t41.5 10.5t41.5 -10.5t29.5 -28.5t11 -40t-11 -39.5t-29.5 -27.5t-41.5 -10t-41.5 10z" />
    <glyph glyph-name="aring" unicode="&#xe5;" horiz-adv-x="583" 
d="M484 468.5q51 -44.5 51 -132.5q0 -17 -3 -38.5t-8 -47.5l-50 -250h-159l10 50q-60 -63 -158 -63q-76 0 -114 37.5t-38 102.5q0 97 72 137.5t196 40.5h93q4 21 4 38q0 31 -14.5 45.5t-50.5 14.5q-38 0 -56.5 -16.5t-24.5 -47.5h-162q15 84 78.5 129t167.5 45
q115 0 166 -44.5zM321 128.5q25 25.5 37 84.5h-71q-49 0 -75 -13t-26 -48q0 -25 14.5 -37t47.5 -12q48 0 73 25.5zM292 564.5q-31 15.5 -47.5 44t-16.5 64.5q0 37 16.5 65t47 43.5t71.5 15.5t72 -15.5t48 -43.5t17 -65q0 -36 -17 -64.5t-48.5 -44t-71.5 -15.5t-71 15.5z
M399.5 639q13.5 13 13.5 34q0 22 -13.5 35.5t-36.5 13.5q-22 0 -35.5 -13.5t-13.5 -35.5q0 -21 13.5 -34t35.5 -13q23 0 36.5 13z" />
    <glyph glyph-name="ae" unicode="&#xe6;" horiz-adv-x="882" 
d="M515 213v-1q0 -53 17 -79.5t56 -26.5q54 0 73 48h165q-16 -53 -52 -90.5t-86.5 -57t-110.5 -19.5q-66 0 -111.5 23t-69.5 67q-75 -90 -209 -90q-87 0 -129.5 37.5t-42.5 106.5q0 94 73 134t195 40h93q4 21 4 38q0 31 -14.5 45.5t-49.5 14.5q-39 0 -57.5 -16.5
t-24.5 -47.5h-162q16 85 79.5 129.5t169.5 44.5q109 0 160 -48q67 48 155 48q63 0 110.5 -25t74 -74.5t26.5 -119.5q0 -38 -8 -81h-324zM564 373q-24 -26 -36 -68h165v1q0 45 -17.5 69t-51.5 24q-36 0 -60 -26zM322 130q25 27 36 84h-71q-49 0 -75 -12.5t-26 -46.5
q0 -52 65 -52q46 0 71 27z" />
    <glyph glyph-name="ccedilla" unicode="&#xe7;" horiz-adv-x="572" 
d="M375 309v4q0 33 -16 51t-46 18q-36 0 -61.5 -24.5t-38.5 -63.5t-13 -82q0 -45 16.5 -69t55.5 -24q31 0 52.5 21t26.5 52h175q-20 -85 -76 -136.5t-139 -64.5l-13 -28q41 -5 63.5 -28.5t22.5 -60.5q0 -55 -44 -81.5t-116 -26.5q-30 0 -57 5.5t-48 15.5l29 72
q33 -15 74 -15q26 0 41 8.5t15 24.5q0 15 -15 22.5t-47 7.5h-48l37 84q-87 14 -129 72t-42 146q0 85 36.5 154.5t102.5 109.5t150 40q67 0 117 -21.5t77 -64t27 -102.5q0 -10 -1 -16h-168z" />
    <glyph glyph-name="egrave" unicode="&#xe8;" horiz-adv-x="581" 
d="M194 211v-4q0 -49 20 -75t64 -26q59 0 83 48h164q-17 -53 -54 -90.5t-89.5 -57t-114.5 -19.5q-78 0 -130 27.5t-77.5 77t-25.5 116.5q0 86 35.5 155.5t101.5 109.5t152 40q67 0 117.5 -25t78 -74t27.5 -119q0 -39 -8 -84h-344zM248 373.5q-26 -25.5 -40 -69.5h184v2
q0 46 -19.5 69.5t-58.5 23.5q-40 0 -66 -25.5zM306 570l-80 157h146l64 -157h-130z" />
    <glyph glyph-name="eacute" unicode="&#xe9;" horiz-adv-x="581" 
d="M194 211v-4q0 -49 20 -75t64 -26q59 0 83 48h164q-17 -53 -54 -90.5t-89.5 -57t-114.5 -19.5q-78 0 -130 27.5t-77.5 77t-25.5 116.5q0 86 35.5 155.5t101.5 109.5t152 40q67 0 117.5 -25t78 -74t27.5 -119q0 -39 -8 -84h-344zM248 373.5q-26 -25.5 -40 -69.5h184v2
q0 46 -19.5 69.5t-58.5 23.5q-40 0 -66 -25.5zM369 727h160l-129 -157h-144z" />
    <glyph glyph-name="ecircumflex" unicode="&#xea;" horiz-adv-x="581" 
d="M194 211v-4q0 -49 20 -75t64 -26q59 0 83 48h164q-17 -53 -54 -90.5t-89.5 -57t-114.5 -19.5q-78 0 -130 27.5t-77.5 77t-25.5 116.5q0 86 35.5 155.5t101.5 109.5t152 40q67 0 117.5 -25t78 -74t27.5 -119q0 -39 -8 -84h-344zM248 373.5q-26 -25.5 -40 -69.5h184v2
q0 46 -19.5 69.5t-58.5 23.5q-40 0 -66 -25.5zM288 728h178l67 -158h-133l-36 88l-69 -88h-139z" />
    <glyph glyph-name="edieresis" unicode="&#xeb;" horiz-adv-x="581" 
d="M194 211v-4q0 -49 20 -75t64 -26q59 0 83 48h164q-17 -53 -54 -90.5t-89.5 -57t-114.5 -19.5q-78 0 -130 27.5t-77.5 77t-25.5 116.5q0 86 35.5 155.5t101.5 109.5t152 40q67 0 117.5 -25t78 -74t27.5 -119q0 -39 -8 -84h-344zM248 373.5q-26 -25.5 -40 -69.5h184v2
q0 46 -19.5 69.5t-58.5 23.5q-40 0 -66 -25.5zM214.5 579q-18.5 10 -29 27.5t-10.5 39.5t10.5 40t29 28.5t41.5 10.5t41.5 -10.5t29.5 -28.5t11 -40t-11 -39.5t-29.5 -27.5t-41.5 -10t-41.5 10zM423.5 579q-18.5 10 -29 27.5t-10.5 39.5t10.5 40t29 28.5t41.5 10.5
t41.5 -10.5t29.5 -28.5t11 -40t-11 -39.5t-29.5 -27.5t-41.5 -10t-41.5 10z" />
    <glyph glyph-name="igrave" unicode="&#xec;" horiz-adv-x="284" 
d="M113 499h157l-100 -499h-156zM170 570l-71 157h143l50 -157h-122z" />
    <glyph glyph-name="iacute" unicode="&#xed;" horiz-adv-x="284" 
d="M113 499h157l-100 -499h-156zM214 727h163l-114 -157h-142z" />
    <glyph glyph-name="icircumflex" unicode="&#xee;" horiz-adv-x="284" 
d="M113 499h157l-100 -499h-156zM163 728h150l42 -158h-109l-20 85l-55 -85h-115z" />
    <glyph glyph-name="idieresis" unicode="&#xef;" horiz-adv-x="284" 
d="M113 499h157l-100 -499h-156zM93.5 592.5q-17.5 18.5 -17.5 50.5q0 36 20 57.5t52 21.5q29 0 46.5 -19t17.5 -51q0 -35 -19.5 -56.5t-52.5 -21.5q-29 0 -46.5 18.5zM247.5 592.5q-17.5 18.5 -17.5 50.5q0 36 20 57.5t52 21.5q30 0 47 -19t17 -51q0 -35 -19.5 -56.5
t-52.5 -21.5q-29 0 -46.5 18.5z" />
    <glyph glyph-name="eth" unicode="&#xf0;" horiz-adv-x="595" 
d="M579 611l-81 -24q32 -70 48 -137t16 -136q0 -102 -33 -175t-99.5 -112.5t-163.5 -39.5q-119 0 -177 55t-58 157q0 71 32 132.5t88.5 98.5t127.5 37q80 0 125 -44q-15 59 -47 122l-222 -67l19 96l160 48q-34 54 -53 82v2h174q3 -6 9 -16t14 -25l140 42zM337 135.5
q27 20.5 40.5 53.5t13.5 72q0 43 -17.5 66.5t-59.5 23.5q-37 0 -63.5 -20t-40 -53t-13.5 -72q0 -43 17.5 -67t58.5 -24q37 0 64 20.5z" />
    <glyph glyph-name="ntilde" unicode="&#xf1;" horiz-adv-x="592" 
d="M511 474q37 -39 37 -112q0 -33 -6 -65l-60 -297h-157l54 272q5 25 5 44q0 66 -63 66q-36 0 -59 -21t-32 -63l-60 -298h-156l99 499h157l-10 -51q29 34 64 49.5t79 15.5q71 0 108 -39zM378 596q-5 3 -16.5 11.5t-20.5 12.5t-17 4q-16 0 -26 -13t-16 -40h-93
q17 80 49.5 119.5t83.5 39.5q23 0 40.5 -7.5t35.5 -21.5q20 -14 31 -20t23 -6q17 0 27 12.5t17 40.5h93q-17 -80 -49.5 -119.5t-84.5 -39.5q-43 0 -77 27z" />
    <glyph glyph-name="ograve" unicode="&#xf2;" horiz-adv-x="588" 
d="M133 16.5q-50 29.5 -74 79.5t-24 113q0 88 35.5 157t102 108t157.5 39q76 0 126.5 -29t74 -78.5t23.5 -110.5q0 -90 -35.5 -159.5t-102.5 -109t-158 -39.5q-75 0 -125 29.5zM340 143q26 24 38.5 63t12.5 84q0 43 -18 67.5t-60 24.5q-38 0 -63.5 -24t-38.5 -62.5
t-13 -81.5q0 -46 18 -70.5t59 -24.5q39 0 65 24zM318 570l-80 157h146l64 -157h-130z" />
    <glyph glyph-name="oacute" unicode="&#xf3;" horiz-adv-x="588" 
d="M133 16.5q-50 29.5 -74 79.5t-24 113q0 88 35.5 157t102 108t157.5 39q76 0 126.5 -29t74 -78.5t23.5 -110.5q0 -90 -35.5 -159.5t-102.5 -109t-158 -39.5q-75 0 -125 29.5zM340 143q26 24 38.5 63t12.5 84q0 43 -18 67.5t-60 24.5q-38 0 -63.5 -24t-38.5 -62.5
t-13 -81.5q0 -46 18 -70.5t59 -24.5q39 0 65 24zM381 727h160l-129 -157h-144z" />
    <glyph glyph-name="ocircumflex" unicode="&#xf4;" horiz-adv-x="588" 
d="M133 16.5q-50 29.5 -74 79.5t-24 113q0 88 35.5 157t102 108t157.5 39q76 0 126.5 -29t74 -78.5t23.5 -110.5q0 -90 -35.5 -159.5t-102.5 -109t-158 -39.5q-75 0 -125 29.5zM340 143q26 24 38.5 63t12.5 84q0 43 -18 67.5t-60 24.5q-38 0 -63.5 -24t-38.5 -62.5
t-13 -81.5q0 -46 18 -70.5t59 -24.5q39 0 65 24zM300 728h178l67 -158h-133l-36 88l-69 -88h-139z" />
    <glyph glyph-name="otilde" unicode="&#xf5;" horiz-adv-x="588" 
d="M133 16.5q-50 29.5 -74 79.5t-24 113q0 88 35.5 157t102 108t157.5 39q76 0 126.5 -29t74 -78.5t23.5 -110.5q0 -90 -35.5 -159.5t-102.5 -109t-158 -39.5q-75 0 -125 29.5zM340 143q26 24 38.5 63t12.5 84q0 43 -18 67.5t-60 24.5q-38 0 -63.5 -24t-38.5 -62.5
t-13 -81.5q0 -46 18 -70.5t59 -24.5q39 0 65 24zM362 596q-5 3 -16.5 11.5t-20.5 12.5t-17 4q-16 0 -26 -13t-16 -40h-93q17 80 49.5 119.5t83.5 39.5q23 0 40.5 -7.5t35.5 -21.5q20 -14 31 -20t23 -6q17 0 27 12.5t17 40.5h93q-17 -80 -49.5 -119.5t-84.5 -39.5
q-43 0 -77 27z" />
    <glyph glyph-name="odieresis" unicode="&#xf6;" horiz-adv-x="588" 
d="M133 16.5q-50 29.5 -74 79.5t-24 113q0 88 35.5 157t102 108t157.5 39q76 0 126.5 -29t74 -78.5t23.5 -110.5q0 -90 -35.5 -159.5t-102.5 -109t-158 -39.5q-75 0 -125 29.5zM340 143q26 24 38.5 63t12.5 84q0 43 -18 67.5t-60 24.5q-38 0 -63.5 -24t-38.5 -62.5
t-13 -81.5q0 -46 18 -70.5t59 -24.5q39 0 65 24zM226.5 579q-18.5 10 -29 27.5t-10.5 39.5t10.5 40t29 28.5t41.5 10.5t41.5 -10.5t29.5 -28.5t11 -40t-11 -39.5t-29.5 -27.5t-41.5 -10t-41.5 10zM435.5 579q-18.5 10 -29 27.5t-10.5 39.5t10.5 40t29 28.5t41.5 10.5
t41.5 -10.5t29.5 -28.5t11 -40t-11 -39.5t-29.5 -27.5t-41.5 -10t-41.5 10z" />
    <glyph glyph-name="divide" unicode="&#xf7;" horiz-adv-x="593" 
d="M290.5 432.5q-20.5 20.5 -20.5 53.5q0 32 20.5 52t54.5 20q31 0 51.5 -20t20.5 -52q0 -33 -20.5 -53.5t-51.5 -20.5q-34 0 -54.5 20.5zM77 355h481l-24 -122h-482zM214.5 50.5q-20.5 20.5 -20.5 52.5q0 33 20 52.5t54 19.5q32 0 52 -19.5t20 -52.5q0 -32 -20 -52.5
t-52 -20.5q-33 0 -53.5 20.5z" />
    <glyph glyph-name="oslash" unicode="&#xf8;" horiz-adv-x="588" 
d="M523 420q31 -53 31 -125q0 -90 -35.5 -159.5t-102.5 -109t-158 -39.5q-93 0 -150 46l-36 -33h-95l90 81q-32 52 -32 128q0 88 35.5 157t102 108t157.5 39q93 0 151 -45l34 31h96zM249.5 358q-25.5 -24 -38.5 -62.5t-13 -81.5v-14l172 162q-18 20 -57 20q-38 0 -63.5 -24z
M340 143q26 24 38.5 63t12.5 84v12l-172 -162q18 -21 56 -21q39 0 65 24z" />
    <glyph glyph-name="ugrave" unicode="&#xf9;" horiz-adv-x="592" 
d="M578 499l-100 -499h-157l10 49q-29 -32 -64 -47.5t-78 -15.5q-71 0 -108 39t-37 112q0 33 6 66l59 296h157l-54 -271q-5 -25 -5 -44q0 -66 64 -66q74 0 90 84l60 297h157zM310 570l-80 157h146l64 -157h-130z" />
    <glyph glyph-name="uacute" unicode="&#xfa;" horiz-adv-x="592" 
d="M578 499l-100 -499h-157l10 49q-29 -32 -64 -47.5t-78 -15.5q-71 0 -108 39t-37 112q0 33 6 66l59 296h157l-54 -271q-5 -25 -5 -44q0 -66 64 -66q74 0 90 84l60 297h157zM374 727h160l-129 -157h-144z" />
    <glyph glyph-name="ucircumflex" unicode="&#xfb;" horiz-adv-x="592" 
d="M578 499l-100 -499h-157l10 49q-29 -32 -64 -47.5t-78 -15.5q-71 0 -108 39t-37 112q0 33 6 66l59 296h157l-54 -271q-5 -25 -5 -44q0 -66 64 -66q74 0 90 84l60 297h157zM292 728h178l67 -158h-133l-36 88l-69 -88h-139z" />
    <glyph glyph-name="udieresis" unicode="&#xfc;" horiz-adv-x="592" 
d="M578 499l-100 -499h-157l10 49q-29 -32 -64 -47.5t-78 -15.5q-71 0 -108 39t-37 112q0 33 6 66l59 296h157l-54 -271q-5 -25 -5 -44q0 -66 64 -66q74 0 90 84l60 297h157zM219.5 579q-18.5 10 -29 27.5t-10.5 39.5t10.5 40t29 28.5t41.5 10.5t41.5 -10.5t29.5 -28.5
t11 -40t-11 -39.5t-29.5 -27.5t-41.5 -10t-41.5 10zM428.5 579q-18.5 10 -29 27.5t-10.5 39.5t10.5 40t29 28.5t41.5 10.5t41.5 -10.5t29.5 -28.5t11 -40t-11 -39.5t-29.5 -27.5t-41.5 -10t-41.5 10z" />
    <glyph glyph-name="yacute" unicode="&#xfd;" horiz-adv-x="559" 
d="M597 499l-410 -699h-168l118 202l-76 497h158l38 -319l164 319h176zM352 727h160l-129 -157h-144z" />
    <glyph glyph-name="thorn" unicode="&#xfe;" horiz-adv-x="607" 
d="M531 453q42 -60 42 -160q0 -81 -31 -151t-88.5 -112.5t-132.5 -42.5q-52 0 -86 19t-52 58l-53 -264h-156l181 906h156l-49 -248q29 28 63 41.5t76 13.5q88 0 130 -60zM355 141q27 22 40 58.5t13 80.5q0 49 -18.5 75.5t-59.5 26.5q-82 0 -105 -100q-6 -32 -9.5 -51.5
t-3.5 -29.5q0 -40 19 -61t58 -21t66 22z" />
    <glyph glyph-name="ydieresis" unicode="&#xff;" horiz-adv-x="559" 
d="M597 499l-410 -699h-168l118 202l-76 497h158l38 -319l164 319h176zM197.5 579q-18.5 10 -29 27.5t-10.5 39.5t10.5 40t29 28.5t41.5 10.5t41.5 -10.5t29.5 -28.5t11 -40t-11 -39.5t-29.5 -27.5t-41.5 -10t-41.5 10zM406.5 579q-18.5 10 -29 27.5t-10.5 39.5t10.5 40
t29 28.5t41.5 10.5t41.5 -10.5t29.5 -28.5t11 -40t-11 -39.5t-29.5 -27.5t-41.5 -10t-41.5 10z" />
    <glyph glyph-name="Amacron" unicode="&#x100;" horiz-adv-x="699" 
d="M463 137h-262l-67 -137h-179l360 706h251l78 -706h-169zM451 264l-28 319h-2l-157 -319h187zM321 894h314l-20 -100h-314z" />
    <glyph glyph-name="amacron" unicode="&#x101;" horiz-adv-x="583" 
d="M484 468.5q51 -44.5 51 -132.5q0 -17 -3 -38.5t-8 -47.5l-50 -250h-159l10 50q-60 -63 -158 -63q-76 0 -114 37.5t-38 102.5q0 97 72 137.5t196 40.5h93q4 21 4 38q0 31 -14.5 45.5t-50.5 14.5q-38 0 -56.5 -16.5t-24.5 -47.5h-162q15 84 78.5 129t167.5 45
q115 0 166 -44.5zM321 128.5q25 25.5 37 84.5h-71q-49 0 -75 -13t-26 -48q0 -25 14.5 -37t47.5 -12q48 0 73 25.5zM225 695h305l-20 -99h-305z" />
    <glyph glyph-name="Abreve" unicode="&#x102;" horiz-adv-x="699" 
d="M463 137h-262l-67 -137h-179l360 706h251l78 -706h-169zM451 264l-28 319h-2l-157 -319h187zM341 795.5q-38 30.5 -38 89.5q0 9 2 29h100v-12q0 -26 14.5 -38.5t42.5 -12.5q32 0 52 14.5t34 48.5h110q-19 -73 -71 -111t-134 -38q-74 0 -112 30.5z" />
    <glyph glyph-name="abreve" unicode="&#x103;" horiz-adv-x="583" 
d="M484 468.5q51 -44.5 51 -132.5q0 -17 -3 -38.5t-8 -47.5l-50 -250h-159l10 50q-60 -63 -158 -63q-76 0 -114 37.5t-38 102.5q0 97 72 137.5t196 40.5h93q4 21 4 38q0 31 -14.5 45.5t-50.5 14.5q-38 0 -56.5 -16.5t-24.5 -47.5h-162q15 84 78.5 129t167.5 45
q115 0 166 -44.5zM321 128.5q25 25.5 37 84.5h-71q-49 0 -75 -13t-26 -48q0 -25 14.5 -37t47.5 -12q48 0 73 25.5zM243 598.5q-40 36.5 -40 106.5q0 15 1 23h108q-1 -7 -1 -21q0 -30 13.5 -43.5t42.5 -13.5q33 0 53.5 18t33.5 60h113q-19 -81 -70.5 -123.5t-133.5 -42.5
q-80 0 -120 36.5z" />
    <glyph glyph-name="Aogonek" unicode="&#x104;" horiz-adv-x="699" 
d="M561 -114.5q10 -7.5 26 -7.5q21 0 35 5l-18 -88q-34 -9 -70 -9q-53 0 -82.5 22.5t-29.5 64.5q0 43 30 73.5t80 53.5h-57l-12 137h-262l-67 -137h-179l360 706h251l78 -706q-42 -25 -67.5 -47t-25.5 -46q0 -14 10 -21.5zM451 264l-28 319h-2l-157 -319h187z" />
    <glyph glyph-name="aogonek" unicode="&#x105;" horiz-adv-x="583" 
d="M484 468.5q51 -44.5 51 -132.5q0 -17 -3 -38.5t-8 -47.5l-50 -250q-42 -25 -67.5 -47t-25.5 -46q0 -14 9.5 -21.5t25.5 -7.5q22 0 36 5l-18 -88q-35 -9 -70 -9q-53 0 -83 22.5t-30 64.5t30 73t81 54h-47l10 50q-60 -63 -158 -63q-76 0 -114 37.5t-38 102.5q0 97 72 137.5
t196 40.5h93q4 21 4 38q0 31 -14.5 45.5t-50.5 14.5q-38 0 -56.5 -16.5t-24.5 -47.5h-162q15 84 78.5 129t167.5 45q115 0 166 -44.5zM321 128.5q25 25.5 37 84.5h-71q-49 0 -75 -13t-26 -48q0 -25 14.5 -37t47.5 -12q48 0 73 25.5z" />
    <glyph glyph-name="Cacute" unicode="&#x106;" horiz-adv-x="721" 
d="M129 61q-70 79 -70 214q0 124 48 226.5t136.5 162.5t203.5 60q83 0 144.5 -30.5t94.5 -87t33 -132.5q0 -16 -3 -36h-170l1 16q0 61 -30 94.5t-87 33.5q-64 0 -108.5 -42.5t-67 -112t-22.5 -147.5q0 -72 32 -113.5t94 -41.5q60 0 94 32.5t50 94.5h182q-16 -81 -62.5 -142
t-116.5 -94.5t-154 -33.5q-152 0 -222 79zM500 914h170l-129 -142h-155z" />
    <glyph glyph-name="cacute" unicode="&#x107;" horiz-adv-x="572" 
d="M131 15.5q-50 28.5 -73.5 78t-23.5 115.5q0 85 36.5 154.5t102.5 109.5t150 40q67 0 117 -21.5t77 -64t27 -102.5q0 -10 -1 -16h-168v4q0 33 -16 51t-46 18q-36 0 -61.5 -24.5t-38.5 -63.5t-13 -82q0 -45 16.5 -69t55.5 -24q31 0 52.5 21t26.5 52h175q-15 -66 -52.5 -112
t-92.5 -69.5t-124 -23.5q-76 0 -126 28.5zM373 727h160l-129 -157h-144z" />
    <glyph glyph-name="Ccircumflex" unicode="&#x108;" horiz-adv-x="721" 
d="M129 61q-70 79 -70 214q0 124 48 226.5t136.5 162.5t203.5 60q83 0 144.5 -30.5t94.5 -87t33 -132.5q0 -16 -3 -36h-170l1 16q0 61 -30 94.5t-87 33.5q-64 0 -108.5 -42.5t-67 -112t-22.5 -147.5q0 -72 32 -113.5t94 -41.5q60 0 94 32.5t50 94.5h182q-16 -81 -62.5 -142
t-116.5 -94.5t-154 -33.5q-152 0 -222 79zM420 914h178l74 -142h-134l-38 72l-67 -72h-146z" />
    <glyph glyph-name="ccircumflex" unicode="&#x109;" horiz-adv-x="572" 
d="M131 15.5q-50 28.5 -73.5 78t-23.5 115.5q0 85 36.5 154.5t102.5 109.5t150 40q67 0 117 -21.5t77 -64t27 -102.5q0 -10 -1 -16h-168v4q0 33 -16 51t-46 18q-36 0 -61.5 -24.5t-38.5 -63.5t-13 -82q0 -45 16.5 -69t55.5 -24q31 0 52.5 21t26.5 52h175q-15 -66 -52.5 -112
t-92.5 -69.5t-124 -23.5q-76 0 -126 28.5zM292 728h178l67 -158h-133l-36 88l-69 -88h-139z" />
    <glyph glyph-name="Cdotaccent" unicode="&#x10a;" horiz-adv-x="721" 
d="M129 61q-70 79 -70 214q0 124 48 226.5t136.5 162.5t203.5 60q83 0 144.5 -30.5t94.5 -87t33 -132.5q0 -16 -3 -36h-170l1 16q0 61 -30 94.5t-87 33.5q-64 0 -108.5 -42.5t-67 -112t-22.5 -147.5q0 -72 32 -113.5t94 -41.5q60 0 94 32.5t50 94.5h182q-16 -81 -62.5 -142
t-116.5 -94.5t-154 -33.5q-152 0 -222 79zM435.5 794.5q-23.5 22.5 -23.5 58.5q0 23 11 41t30 28t44 10q24 0 43 -10t29.5 -28t10.5 -41q0 -36 -23.5 -58.5t-59.5 -22.5q-38 0 -61.5 22.5z" />
    <glyph glyph-name="cdotaccent" unicode="&#x10b;" horiz-adv-x="572" 
d="M131 15.5q-50 28.5 -73.5 78t-23.5 115.5q0 85 36.5 154.5t102.5 109.5t150 40q67 0 117 -21.5t77 -64t27 -102.5q0 -10 -1 -16h-168v4q0 33 -16 51t-46 18q-36 0 -61.5 -24.5t-38.5 -63.5t-13 -82q0 -45 16.5 -69t55.5 -24q31 0 52.5 21t26.5 52h175q-15 -66 -52.5 -112
t-92.5 -69.5t-124 -23.5q-76 0 -126 28.5zM323.5 581q-19.5 11 -30.5 29.5t-11 41.5t11 42t30.5 30t44.5 11q24 0 43.5 -11t30.5 -30t11 -42t-11 -41.5t-30.5 -29.5t-43.5 -11q-25 0 -44.5 11z" />
    <glyph glyph-name="Ccaron" unicode="&#x10c;" horiz-adv-x="721" 
d="M129 61q-70 79 -70 214q0 124 48 226.5t136.5 162.5t203.5 60q83 0 144.5 -30.5t94.5 -87t33 -132.5q0 -16 -3 -36h-170l1 16q0 61 -30 94.5t-87 33.5q-64 0 -108.5 -42.5t-67 -112t-22.5 -147.5q0 -72 32 -113.5t94 -41.5q60 0 94 32.5t50 94.5h182q-16 -81 -62.5 -142
t-116.5 -94.5t-154 -33.5q-152 0 -222 79zM568 772h-178l-74 142h134l38 -72l67 72h146z" />
    <glyph glyph-name="ccaron" unicode="&#x10d;" horiz-adv-x="572" 
d="M131 15.5q-50 28.5 -73.5 78t-23.5 115.5q0 85 36.5 154.5t102.5 109.5t150 40q67 0 117 -21.5t77 -64t27 -102.5q0 -10 -1 -16h-168v4q0 33 -16 51t-46 18q-36 0 -61.5 -24.5t-38.5 -63.5t-13 -82q0 -45 16.5 -69t55.5 -24q31 0 52.5 21t26.5 52h175q-15 -66 -52.5 -112
t-92.5 -69.5t-124 -23.5q-76 0 -126 28.5zM441 570h-178l-67 158h133l36 -88l69 88h139z" />
    <glyph glyph-name="Dcaron" unicode="&#x10e;" horiz-adv-x="722" 
d="M168 706h213q168 0 244.5 -76.5t76.5 -211.5q0 -121 -47.5 -215.5t-136.5 -148.5t-208 -54h-283zM289 135q79 0 132.5 34.5t80 95t26.5 138.5q0 81 -35 124.5t-118 43.5h-67l-87 -436h68zM546 772h-178l-74 142h134l38 -72l67 72h146z" />
    <glyph glyph-name="dcaron" unicode="&#x10f;" horiz-adv-x="726" 
d="M635 706l-141 -706h-153l9 46q-30 -31 -65.5 -45.5t-78.5 -14.5q-89 0 -130.5 59.5t-41.5 160.5q0 80 31 150.5t88.5 113t132.5 42.5q52 0 86 -18.5t52 -57.5l54 270h157zM345.5 143.5q26.5 25.5 36.5 74.5q6 32 9.5 51.5t3.5 28.5q0 40 -19.5 61.5t-57.5 21.5
q-39 0 -65.5 -22t-39.5 -59t-13 -81q0 -49 18 -75t59 -26q42 0 68.5 25.5zM705 706h132l-74 -172h-115z" />
    <glyph glyph-name="Dcroat" unicode="&#x110;" horiz-adv-x="722" 
d="M625.5 629.5q76.5 -76.5 76.5 -211.5q0 -121 -47.5 -215.5t-136.5 -148.5t-208 -54h-283l61 305h-55l20 105h56l59 296h213q168 0 244.5 -76.5zM421.5 169.5q53.5 34.5 80 95t26.5 138.5q0 81 -35 124.5t-118 43.5h-67l-32 -161h143l-20 -105h-144l-34 -170h68
q79 0 132.5 34.5z" />
    <glyph glyph-name="dcroat" unicode="&#x111;" horiz-adv-x="607" 
d="M652 561h-46l-112 -561h-153l9 46q-30 -31 -65.5 -45.5t-78.5 -14.5q-89 0 -130.5 59.5t-41.5 160.5q0 80 31 150.5t88.5 113t132.5 42.5q52 0 86 -18.5t52 -57.5l25 125h-163l19 90h162l11 55h157l-11 -55h47zM345.5 143.5q26.5 25.5 36.5 74.5q6 32 9.5 51.5t3.5 28.5
q0 40 -19.5 61.5t-57.5 21.5q-39 0 -65.5 -22t-39.5 -59t-13 -81q0 -49 18 -75t59 -26q42 0 68.5 25.5z" />
    <glyph glyph-name="Emacron" unicode="&#x112;" horiz-adv-x="571" 
d="M168 706h439l-26 -135h-273l-30 -145h270l-27 -136h-269l-31 -155h272l-27 -135h-439zM260 894h314l-20 -100h-314z" />
    <glyph glyph-name="emacron" unicode="&#x113;" horiz-adv-x="581" 
d="M194 211v-4q0 -49 20 -75t64 -26q59 0 83 48h164q-17 -53 -54 -90.5t-89.5 -57t-114.5 -19.5q-78 0 -130 27.5t-77.5 77t-25.5 116.5q0 86 35.5 155.5t101.5 109.5t152 40q67 0 117.5 -25t78 -74t27.5 -119q0 -39 -8 -84h-344zM248 373.5q-26 -25.5 -40 -69.5h184v2
q0 46 -19.5 69.5t-58.5 23.5q-40 0 -66 -25.5zM219 695h305l-20 -99h-305z" />
    <glyph glyph-name="Ebreve" unicode="&#x114;" horiz-adv-x="571" 
d="M168 706h439l-26 -135h-273l-30 -145h270l-27 -136h-269l-31 -155h272l-27 -135h-439zM281 795.5q-38 30.5 -38 89.5q0 9 2 29h100v-12q0 -26 14.5 -38.5t42.5 -12.5q32 0 52 14.5t34 48.5h110q-19 -73 -71 -111t-134 -38q-74 0 -112 30.5z" />
    <glyph glyph-name="ebreve" unicode="&#x115;" horiz-adv-x="581" 
d="M194 211v-4q0 -49 20 -75t64 -26q59 0 83 48h164q-17 -53 -54 -90.5t-89.5 -57t-114.5 -19.5q-78 0 -130 27.5t-77.5 77t-25.5 116.5q0 86 35.5 155.5t101.5 109.5t152 40q67 0 117.5 -25t78 -74t27.5 -119q0 -39 -8 -84h-344zM248 373.5q-26 -25.5 -40 -69.5h184v2
q0 46 -19.5 69.5t-58.5 23.5q-40 0 -66 -25.5zM236 598.5q-40 36.5 -40 106.5q0 15 1 23h108q-1 -7 -1 -21q0 -30 13.5 -43.5t42.5 -13.5q33 0 53.5 18t33.5 60h113q-19 -81 -70.5 -123.5t-133.5 -42.5q-80 0 -120 36.5z" />
    <glyph glyph-name="Edotaccent" unicode="&#x116;" horiz-adv-x="571" 
d="M168 706h439l-26 -135h-273l-30 -145h270l-27 -136h-269l-31 -155h272l-27 -135h-439zM348.5 794.5q-23.5 22.5 -23.5 58.5q0 23 11 41t30 28t44 10q24 0 43 -10t29.5 -28t10.5 -41q0 -36 -23.5 -58.5t-59.5 -22.5q-38 0 -61.5 22.5z" />
    <glyph glyph-name="edotaccent" unicode="&#x117;" horiz-adv-x="581" 
d="M194 211v-4q0 -49 20 -75t64 -26q59 0 83 48h164q-17 -53 -54 -90.5t-89.5 -57t-114.5 -19.5q-78 0 -130 27.5t-77.5 77t-25.5 116.5q0 86 35.5 155.5t101.5 109.5t152 40q67 0 117.5 -25t78 -74t27.5 -119q0 -39 -8 -84h-344zM248 373.5q-26 -25.5 -40 -69.5h184v2
q0 46 -19.5 69.5t-58.5 23.5q-40 0 -66 -25.5zM319.5 581q-19.5 11 -30.5 29.5t-11 41.5t11 42t30.5 30t44.5 11q24 0 43.5 -11t30.5 -30t11 -42t-11 -41.5t-30.5 -29.5t-43.5 -11q-25 0 -44.5 11z" />
    <glyph glyph-name="Eogonek" unicode="&#x118;" horiz-adv-x="571" 
d="M308 571l-30 -145h270l-27 -136h-269l-31 -155h272l-27 -135q-42 -25 -67.5 -47t-25.5 -46q0 -14 10 -21.5t26 -7.5q21 0 35 5l-18 -88q-33 -9 -70 -9q-52 0 -82 22.5t-30 64.5q0 43 30 73.5t80 53.5h-327l141 706h439l-26 -135h-273z" />
    <glyph glyph-name="eogonek" unicode="&#x119;" horiz-adv-x="581" 
d="M194 211v-4q0 -101 84 -101q60 0 82 48h165q-15 -47 -47.5 -85t-75.5 -64q-92 -57 -92 -98q0 -14 9.5 -21.5t25.5 -7.5q21 0 36 5l-18 -88q-34 -9 -70 -9q-53 0 -83 22.5t-30 64.5q0 68 85 114q-78 0 -129.5 28t-76.5 77.5t-25 115.5q0 86 35.5 155.5t101.5 109.5t152 40
q67 0 117.5 -25t78 -74t27.5 -119q0 -39 -8 -84h-344zM248 373.5q-26 -25.5 -40 -69.5h184v2q0 46 -19.5 69.5t-58.5 23.5q-40 0 -66 -25.5z" />
    <glyph glyph-name="Ecaron" unicode="&#x11a;" horiz-adv-x="571" 
d="M168 706h439l-26 -135h-273l-30 -145h270l-27 -136h-269l-31 -155h272l-27 -135h-439zM481 772h-178l-74 142h134l38 -72l67 72h146z" />
    <glyph glyph-name="ecaron" unicode="&#x11b;" horiz-adv-x="581" 
d="M194 211v-4q0 -49 20 -75t64 -26q59 0 83 48h164q-17 -53 -54 -90.5t-89.5 -57t-114.5 -19.5q-78 0 -130 27.5t-77.5 77t-25.5 116.5q0 86 35.5 155.5t101.5 109.5t152 40q67 0 117.5 -25t78 -74t27.5 -119q0 -39 -8 -84h-344zM248 373.5q-26 -25.5 -40 -69.5h184v2
q0 46 -19.5 69.5t-58.5 23.5q-40 0 -66 -25.5zM437 570h-178l-67 158h133l36 -88l69 88h139z" />
    <glyph glyph-name="Gcircumflex" unicode="&#x11c;" horiz-adv-x="725" 
d="M325.5 539.5q-46.5 -42.5 -70 -110.5t-23.5 -143q0 -78 30.5 -120t100.5 -42q126 0 160 142h-145l24 119h308l-16 -82q-18 -90 -59.5 -162t-114 -115.5t-175.5 -43.5q-93 0 -156.5 35t-96 102t-32.5 161q0 120 46 221.5t133.5 162t206.5 60.5q85 0 147.5 -31.5t95 -90.5
t29.5 -140h-167q0 60 -30.5 90t-83.5 30q-65 0 -111.5 -42.5zM411 914h178l74 -142h-134l-38 72l-67 -72h-146z" />
    <glyph glyph-name="gcircumflex" unicode="&#x11d;" horiz-adv-x="606" 
d="M592 499l-101 -504q-41 -209 -272 -209q-107 0 -167.5 39t-57.5 116h163q5 -18 22 -28t46 -10q88 0 108 104l7 35q-56 -49 -135 -49q-59 0 -97.5 27t-56.5 72t-18 99q0 89 31 162.5t88 116t132 42.5q54 0 89 -20.5t52 -62.5l14 70h153zM217 150.5q18 -26.5 60 -26.5
t68.5 24.5t35.5 71.5q6 31 9 49.5t3 28.5q0 40 -19.5 61.5t-57.5 21.5q-39 0 -65 -21.5t-39 -56.5t-13 -77q0 -49 18 -75.5zM298 728h178l67 -158h-133l-36 88l-69 -88h-139z" />
    <glyph glyph-name="Gbreve" unicode="&#x11e;" horiz-adv-x="725" 
d="M325.5 539.5q-46.5 -42.5 -70 -110.5t-23.5 -143q0 -78 30.5 -120t100.5 -42q126 0 160 142h-145l24 119h308l-16 -82q-18 -90 -59.5 -162t-114 -115.5t-175.5 -43.5q-93 0 -156.5 35t-96 102t-32.5 161q0 120 46 221.5t133.5 162t206.5 60.5q85 0 147.5 -31.5t95 -90.5
t29.5 -140h-167q0 60 -30.5 90t-83.5 30q-65 0 -111.5 -42.5zM359 795.5q-38 30.5 -38 89.5q0 9 2 29h100v-12q0 -26 14.5 -38.5t42.5 -12.5q32 0 52 14.5t34 48.5h110q-19 -73 -71 -111t-134 -38q-74 0 -112 30.5z" />
    <glyph glyph-name="gbreve" unicode="&#x11f;" horiz-adv-x="606" 
d="M592 499l-101 -504q-41 -209 -272 -209q-107 0 -167.5 39t-57.5 116h163q5 -18 22 -28t46 -10q88 0 108 104l7 35q-56 -49 -135 -49q-59 0 -97.5 27t-56.5 72t-18 99q0 89 31 162.5t88 116t132 42.5q54 0 89 -20.5t52 -62.5l14 70h153zM217 150.5q18 -26.5 60 -26.5
t68.5 24.5t35.5 71.5q6 31 9 49.5t3 28.5q0 40 -19.5 61.5t-57.5 21.5q-39 0 -65 -21.5t-39 -56.5t-13 -77q0 -49 18 -75.5zM246 598.5q-40 36.5 -40 106.5q0 15 1 23h108q-1 -7 -1 -21q0 -30 13.5 -43.5t42.5 -13.5q33 0 53.5 18t33.5 60h113q-19 -81 -70.5 -123.5
t-133.5 -42.5q-80 0 -120 36.5z" />
    <glyph glyph-name="Gdotaccent" unicode="&#x120;" horiz-adv-x="725" 
d="M325.5 539.5q-46.5 -42.5 -70 -110.5t-23.5 -143q0 -78 30.5 -120t100.5 -42q126 0 160 142h-145l24 119h308l-16 -82q-18 -90 -59.5 -162t-114 -115.5t-175.5 -43.5q-93 0 -156.5 35t-96 102t-32.5 161q0 120 46 221.5t133.5 162t206.5 60.5q85 0 147.5 -31.5t95 -90.5
t29.5 -140h-167q0 60 -30.5 90t-83.5 30q-65 0 -111.5 -42.5zM427.5 794.5q-23.5 22.5 -23.5 58.5q0 23 11 41t30 28t44 10q24 0 43 -10t29.5 -28t10.5 -41q0 -36 -23.5 -58.5t-59.5 -22.5q-38 0 -61.5 22.5z" />
    <glyph glyph-name="gdotaccent" unicode="&#x121;" horiz-adv-x="606" 
d="M592 499l-101 -504q-41 -209 -272 -209q-107 0 -167.5 39t-57.5 116h163q5 -18 22 -28t46 -10q88 0 108 104l7 35q-56 -49 -135 -49q-59 0 -97.5 27t-56.5 72t-18 99q0 89 31 162.5t88 116t132 42.5q54 0 89 -20.5t52 -62.5l14 70h153zM217 150.5q18 -26.5 60 -26.5
t68.5 24.5t35.5 71.5q6 31 9 49.5t3 28.5q0 40 -19.5 61.5t-57.5 21.5q-39 0 -65 -21.5t-39 -56.5t-13 -77q0 -49 18 -75.5zM329.5 581q-19.5 11 -30.5 29.5t-11 41.5t11 42t30.5 30t44.5 11q24 0 43.5 -11t30.5 -30t11 -42t-11 -41.5t-30.5 -29.5t-43.5 -11q-25 0 -44.5 11
z" />
    <glyph glyph-name="Gcommaaccent" unicode="&#x122;" horiz-adv-x="725" 
d="M325.5 539.5q-46.5 -42.5 -70 -110.5t-23.5 -143q0 -78 30.5 -120t100.5 -42q126 0 160 142h-145l24 119h308l-16 -82q-18 -90 -59.5 -162t-114 -115.5t-175.5 -43.5q-93 0 -156.5 35t-96 102t-32.5 161q0 120 46 221.5t133.5 162t206.5 60.5q85 0 147.5 -31.5t95 -90.5
t29.5 -140h-167q0 60 -30.5 90t-83.5 30q-65 0 -111.5 -42.5zM237 -52h161l-86 -148h-143z" />
    <glyph glyph-name="gcommaaccent" unicode="&#x123;" horiz-adv-x="606" 
d="M592 499l-101 -504q-41 -209 -272 -209q-107 0 -167.5 39t-57.5 116h163q5 -18 22 -28t46 -10q88 0 108 104l7 35q-56 -49 -135 -49q-59 0 -97.5 27t-56.5 72t-18 99q0 89 31 162.5t88 116t132 42.5q54 0 89 -20.5t52 -62.5l14 70h153zM217 150.5q18 -26.5 60 -26.5
t68.5 24.5t35.5 71.5q6 31 9 49.5t3 28.5q0 40 -19.5 61.5t-57.5 21.5q-39 0 -65 -21.5t-39 -56.5t-13 -77q0 -49 18 -75.5zM409 570h-161l85 148h144z" />
    <glyph glyph-name="Hcircumflex" unicode="&#x124;" horiz-adv-x="734" 
d="M168 706h166l-55 -279h247l56 279h166l-141 -706h-166l57 287h-247l-58 -287h-166zM412 914h178l74 -142h-134l-38 72l-67 -72h-146z" />
    <glyph glyph-name="hcircumflex" unicode="&#x125;" horiz-adv-x="592" 
d="M510 472.5q38 -40.5 38 -118.5q0 -25 -6 -57l-60 -297h-157l54 272q5 25 5 42q0 35 -15.5 51.5t-47.5 16.5q-73 0 -91 -84l-60 -298h-156l141 706h156l-51 -258q28 32 62 48.5t77 16.5q73 0 111 -40.5zM342 914h178l74 -142h-134l-38 72l-67 -72h-146z" />
    <glyph glyph-name="Hbar" unicode="&#x126;" horiz-adv-x="734" 
d="M748 706l-141 -706h-166l57 287h-247l-58 -287h-166l141 706h166l-19 -94h248l19 94h166zM526 427l18 90h-247l-18 -90h247z" />
    <glyph glyph-name="hbar" unicode="&#x127;" horiz-adv-x="592" 
d="M510 472.5q38 -40.5 38 -118.5q0 -25 -6 -57l-60 -297h-157l54 272q5 25 5 42q0 35 -15.5 51.5t-47.5 16.5q-73 0 -91 -84l-60 -298h-156l112 561h-41l19 90h40l11 55h156l-11 -55h169l-18 -90h-169l-22 -113q28 32 62 48.5t77 16.5q73 0 111 -40.5z" />
    <glyph glyph-name="Itilde" unicode="&#x128;" horiz-adv-x="320" 
d="M168 706h166l-141 -706h-166zM294.5 775.5q-13.5 6.5 -26.5 18.5q-12 12 -21.5 18t-20.5 6q-13 0 -21.5 -11t-15.5 -36h-81q17 73 46 108t75 35q22 0 35.5 -7t26.5 -21q12 -12 18.5 -16t14.5 -4q15 0 23.5 11t17.5 37h84q-18 -77 -45.5 -111t-73.5 -34q-22 0 -35.5 6.5z
" />
    <glyph glyph-name="itilde" unicode="&#x129;" horiz-adv-x="284" 
d="M113 499h157l-100 -499h-156zM226 578.5q-15 9.5 -25 25.5q-8 11 -13 16t-13 5q-13 0 -20.5 -13.5t-12.5 -40.5h-85q12 55 27 89.5t37 52t53 17.5q25 0 38.5 -9t25.5 -26q7 -10 13 -15.5t13 -5.5q14 0 21.5 13t12.5 41h87q-13 -55 -28 -89.5t-37 -52t-54 -17.5
q-25 0 -40 9.5z" />
    <glyph glyph-name="Imacron" unicode="&#x12a;" horiz-adv-x="320" 
d="M168 706h166l-141 -706h-166zM154 893h268l-21 -100h-268z" />
    <glyph glyph-name="imacron" unicode="&#x12b;" horiz-adv-x="284" 
d="M113 499h157l-100 -499h-156zM103 695h255l-20 -99h-255z" />
    <glyph glyph-name="Ibreve" unicode="&#x12c;" horiz-adv-x="320" 
d="M168 706h166l-141 -706h-166zM170 793.5q-35 28.5 -35 83.5q0 11 4 37h103q-1 -8 -1 -20q0 -23 9 -32.5t30 -9.5q24 0 37.5 14t22.5 48h108q-14 -73 -58 -111t-116 -38q-69 0 -104 28.5z" />
    <glyph glyph-name="ibreve" unicode="&#x12d;" horiz-adv-x="284" 
d="M113 499h157l-100 -499h-156zM119 591q-31 30 -31 87q0 20 5 50h97q-5 -27 -5 -40q0 -21 8 -29.5t24 -8.5q26 0 42 17t25 61h99q-33 -167 -174 -167q-59 0 -90 30z" />
    <glyph glyph-name="Iogonek" unicode="&#x12e;" horiz-adv-x="320" 
d="M140.5 -52q-20.5 -25 -20.5 -48q0 -11 6.5 -16.5t18.5 -5.5t27 5l-18 -89q-30 -8 -61 -8q-48 0 -76 20t-28 58q0 39 27 74.5t70 61.5h-59l141 706h166l-141 -706q-32 -27 -52.5 -52z" />
    <glyph glyph-name="iogonek" unicode="&#x12f;" horiz-adv-x="284" 
d="M266.5 724q19.5 -11 31 -30t11.5 -42t-11.5 -41.5t-31 -29.5t-43.5 -11t-43.5 11t-31 29.5t-11.5 41.5t11.5 42t31 30t43.5 11t43.5 -11zM113 499h157l-100 -499q-32 -27 -52.5 -52t-20.5 -48q0 -11 6.5 -16.5t18.5 -5.5q14 0 27 5l-18 -89q-30 -8 -61 -8q-48 0 -76 20
t-28 58q0 39 27 74.5t70 61.5h-49z" />
    <glyph glyph-name="Idotaccent" unicode="&#x130;" horiz-adv-x="320" 
d="M168 706h166l-141 -706h-166zM220.5 794.5q-23.5 22.5 -23.5 58.5q0 23 11 41t30 28t44 10q24 0 43 -10t29.5 -28t10.5 -41q0 -36 -23.5 -58.5t-59.5 -22.5q-38 0 -61.5 22.5z" />
    <glyph glyph-name="dotlessi" unicode="&#x131;" horiz-adv-x="284" 
d="M113 499h157l-100 -499h-156z" />
    <glyph glyph-name="IJ" unicode="&#x132;" horiz-adv-x="704" 
d="M168 706h166l-141 -706h-166zM286 2l30 149q14 -3 37 -3q39 0 63 10.5t38.5 34.5t22.5 67l90 446h166l-97 -488q-23 -113 -90 -167t-190 -54q-40 0 -70 5z" />
    <glyph glyph-name="ij" unicode="&#x133;" horiz-adv-x="568" 
d="M179.5 581q-19.5 11 -31 29.5t-11.5 41.5t11.5 42t31 30t43.5 11t43.5 -11t31 -30t11.5 -42t-11.5 -41.5t-31 -29.5t-43.5 -11t-43.5 11zM113 499h157l-100 -499h-156zM463.5 581q-19.5 11 -31 29.5t-11.5 41.5t11.5 42t31 30t43.5 11t43.5 -11t31 -30t11.5 -42
t-11.5 -41.5t-31 -29.5t-43.5 -11t-43.5 11zM178 -199l27 134q10 -2 27 -2q28 0 43 13t20 42l102 511h157l-110 -549q-16 -81 -61.5 -117.5t-128.5 -36.5q-36 0 -76 5z" />
    <glyph glyph-name="Jcircumflex" unicode="&#x134;" horiz-adv-x="384" 
d="M-34 2l30 149q14 -3 37 -3q39 0 63 10.5t38.5 34.5t22.5 67l90 446h166l-97 -488q-23 -113 -90 -167t-190 -54q-40 0 -70 5zM283 914h175l56 -142h-126l-26 73l-55 -73h-136z" />
    <glyph glyph-name="jcircumflex" unicode="&#x135;" horiz-adv-x="284" 
d="M-106 -199l27 134q10 -2 27 -2q28 0 43 13t20 42l102 511h157l-110 -549q-16 -81 -61.5 -117.5t-128.5 -36.5q-36 0 -76 5zM163 728h150l42 -158h-109l-20 85l-55 -85h-115z" />
    <glyph glyph-name="Kcommaaccent" unicode="&#x136;" horiz-adv-x="691" 
d="M405 364l231 -364h-191l-189 315l-63 -315h-166l141 706h166l-53 -266l249 266h205zM229 -52h161l-86 -148h-143z" />
    <glyph glyph-name="kcommaaccent" unicode="&#x137;" horiz-adv-x="558" 
d="M359 257l164 -257h-188l-124 206l-41 -206h-156l141 706h156l-74 -369l142 162h211zM165 -52h161l-86 -148h-143z" />
    <glyph glyph-name="kgreenlandic" unicode="&#x138;" horiz-adv-x="558" 
d="M357 254l166 -254h-188l-124 206l-41 -206h-156l99 499h157l-33 -166l152 166h211z" />
    <glyph glyph-name="Lacute" unicode="&#x139;" horiz-adv-x="482" 
d="M168 706h166l-111 -561h223l-29 -145h-390zM292 914h170l-129 -142h-155z" />
    <glyph glyph-name="lacute" unicode="&#x13a;" horiz-adv-x="284" 
d="M155 706h156l-141 -706h-156zM267 914h170l-129 -142h-155z" />
    <glyph glyph-name="Lcommaaccent" unicode="&#x13b;" horiz-adv-x="482" 
d="M168 706h166l-111 -561h223l-29 -145h-390zM153 -52h161l-86 -148h-143z" />
    <glyph glyph-name="lcommaaccent" unicode="&#x13c;" horiz-adv-x="284" 
d="M155 706h156l-141 -706h-156zM2 -52h161l-86 -148h-143z" />
    <glyph glyph-name="Lcaron" unicode="&#x13d;" horiz-adv-x="482" 
d="M168 706h166l-111 -561h223l-29 -145h-390zM413 706h132l-74 -172h-115z" />
    <glyph glyph-name="lcaron" unicode="&#x13e;" horiz-adv-x="394" 
d="M155 706h156l-141 -706h-156zM374 706h132l-74 -172h-115z" />
    <glyph glyph-name="Ldot" unicode="&#x13f;" horiz-adv-x="575" 
d="M168 706h166l-111 -561h223l-29 -145h-390zM429.5 330.5q-22.5 12.5 -35 34.5t-12.5 50t12.5 49.5t35 34t51.5 12.5t51 -12.5t34.5 -34t12.5 -49.5t-12.5 -50t-34.5 -34.5t-51 -12.5t-51.5 12.5z" />
    <glyph glyph-name="ldot" unicode="&#x140;" horiz-adv-x="477" 
d="M155 706h156l-141 -706h-156zM346.5 251.5q-22.5 12.5 -35 34.5t-12.5 50t12.5 49.5t35 34t51.5 12.5t51 -12.5t34.5 -34t12.5 -49.5t-12.5 -50t-34.5 -34.5t-51 -12.5t-51.5 12.5z" />
    <glyph glyph-name="Lslash" unicode="&#x141;" horiz-adv-x="482" 
d="M446 145l-29 -145h-390l54 273l-62 -37l24 123l63 37l62 310h166l-45 -228l145 86l-26 -125l-144 -84l-41 -210h223z" />
    <glyph glyph-name="lslash" unicode="&#x142;" horiz-adv-x="300" 
d="M325 401l-76 -47l-71 -354h-156l55 275l-75 -42l25 129l76 44l60 300h156l-44 -221l75 46z" />
    <glyph glyph-name="Nacute" unicode="&#x143;" horiz-adv-x="753" 
d="M168 706h165l181 -462l92 462h162l-141 -706h-166l-181 462l-92 -462h-161zM491 914h170l-129 -142h-155z" />
    <glyph glyph-name="nacute" unicode="&#x144;" horiz-adv-x="592" 
d="M511 474q37 -39 37 -112q0 -33 -6 -65l-60 -297h-157l54 272q5 25 5 44q0 66 -63 66q-36 0 -59 -21t-32 -63l-60 -298h-156l99 499h157l-10 -51q29 34 64 49.5t79 15.5q71 0 108 -39zM397 727h160l-129 -157h-144z" />
    <glyph glyph-name="Ncommaaccent" unicode="&#x145;" horiz-adv-x="753" 
d="M168 706h165l181 -462l92 462h162l-141 -706h-166l-181 462l-92 -462h-161zM254 -52h161l-86 -148h-143z" />
    <glyph glyph-name="ncommaaccent" unicode="&#x146;" horiz-adv-x="592" 
d="M511 474q37 -39 37 -112q0 -33 -6 -65l-60 -297h-157l54 272q5 25 5 44q0 66 -63 66q-36 0 -59 -21t-32 -63l-60 -298h-156l99 499h157l-10 -51q29 34 64 49.5t79 15.5q71 0 108 -39zM161 -52h161l-86 -148h-143z" />
    <glyph glyph-name="Ncaron" unicode="&#x147;" horiz-adv-x="753" 
d="M168 706h165l181 -462l92 462h162l-141 -706h-166l-181 462l-92 -462h-161zM558 772h-178l-74 142h134l38 -72l67 72h146z" />
    <glyph glyph-name="ncaron" unicode="&#x148;" horiz-adv-x="592" 
d="M511 474q37 -39 37 -112q0 -33 -6 -65l-60 -297h-157l54 272q5 25 5 44q0 66 -63 66q-36 0 -59 -21t-32 -63l-60 -298h-156l99 499h157l-10 -51q29 34 64 49.5t79 15.5q71 0 108 -39zM465 570h-178l-67 158h133l36 -88l69 88h139z" />
    <glyph glyph-name="napostrophe" unicode="&#x149;" horiz-adv-x="777" 
d="M696 474q37 -39 37 -112q0 -33 -6 -65l-60 -297h-157l54 272q5 25 5 44q0 66 -63 66q-36 0 -59 -21t-32 -63l-60 -298h-156l99 499h157l-10 -51q29 34 64 49.5t79 15.5q71 0 108 -39zM189 706h169l-160 -282h-127z" />
    <glyph glyph-name="Eng" unicode="&#x14a;" horiz-adv-x="753" 
d="M768 706l-150 -745q-17 -87 -63.5 -126t-132.5 -39q-36 0 -76 5l26 128q10 -2 27 -2q27 0 42 13t21 41l6 27l-188 454l-92 -462h-161l141 706h165l184 -446l89 446h162z" />
    <glyph glyph-name="eng" unicode="&#x14b;" horiz-adv-x="592" 
d="M510 472.5q38 -40.5 38 -118.5q0 -25 -6 -57l-70 -347q-16 -81 -62 -117.5t-129 -36.5q-37 0 -75 5l27 134q11 -2 31 -2q25 0 39 12t19 38l57 289q5 25 5 42q0 35 -15.5 51.5t-47.5 16.5q-36 0 -59 -21t-32 -63l-60 -298h-156l99 499h157l-10 -51q28 32 62 48.5t77 16.5
q73 0 111 -40.5z" />
    <glyph glyph-name="Omacron" unicode="&#x14c;" horiz-adv-x="752" 
d="M130.5 59.5q-71.5 77.5 -71.5 212.5q0 123 45.5 226.5t131 164.5t200.5 61q153 0 225.5 -78.5t72.5 -211.5q0 -124 -45 -227t-130.5 -164t-201.5 -61q-155 0 -226.5 77.5zM470 168.5q46 44.5 69 114.5t23 144q0 73 -30 114t-99 41q-65 0 -111 -44t-68.5 -113.5
t-22.5 -144.5q0 -71 31.5 -113.5t97.5 -42.5q64 0 110 44.5zM347 894h314l-20 -100h-314z" />
    <glyph glyph-name="omacron" unicode="&#x14d;" horiz-adv-x="588" 
d="M133 16.5q-50 29.5 -74 79.5t-24 113q0 88 35.5 157t102 108t157.5 39q76 0 126.5 -29t74 -78.5t23.5 -110.5q0 -90 -35.5 -159.5t-102.5 -109t-158 -39.5q-75 0 -125 29.5zM340 143q26 24 38.5 63t12.5 84q0 43 -18 67.5t-60 24.5q-38 0 -63.5 -24t-38.5 -62.5
t-13 -81.5q0 -46 18 -70.5t59 -24.5q39 0 65 24zM231 695h305l-20 -99h-305z" />
    <glyph glyph-name="Obreve" unicode="&#x14e;" horiz-adv-x="752" 
d="M130.5 59.5q-71.5 77.5 -71.5 212.5q0 123 45.5 226.5t131 164.5t200.5 61q153 0 225.5 -78.5t72.5 -211.5q0 -124 -45 -227t-130.5 -164t-201.5 -61q-155 0 -226.5 77.5zM470 168.5q46 44.5 69 114.5t23 144q0 73 -30 114t-99 41q-65 0 -111 -44t-68.5 -113.5
t-22.5 -144.5q0 -71 31.5 -113.5t97.5 -42.5q64 0 110 44.5zM367 795.5q-38 30.5 -38 89.5q0 9 2 29h100v-12q0 -26 14.5 -38.5t42.5 -12.5q32 0 52 14.5t34 48.5h110q-19 -73 -71 -111t-134 -38q-74 0 -112 30.5z" />
    <glyph glyph-name="obreve" unicode="&#x14f;" horiz-adv-x="588" 
d="M133 16.5q-50 29.5 -74 79.5t-24 113q0 88 35.5 157t102 108t157.5 39q76 0 126.5 -29t74 -78.5t23.5 -110.5q0 -90 -35.5 -159.5t-102.5 -109t-158 -39.5q-75 0 -125 29.5zM340 143q26 24 38.5 63t12.5 84q0 43 -18 67.5t-60 24.5q-38 0 -63.5 -24t-38.5 -62.5
t-13 -81.5q0 -46 18 -70.5t59 -24.5q39 0 65 24zM248 598.5q-40 36.5 -40 106.5q0 15 1 23h108q-1 -7 -1 -21q0 -30 13.5 -43.5t42.5 -13.5q33 0 53.5 18t33.5 60h113q-19 -81 -70.5 -123.5t-133.5 -42.5q-80 0 -120 36.5z" />
    <glyph glyph-name="Ohungarumlaut" unicode="&#x150;" horiz-adv-x="752" 
d="M130.5 59.5q-71.5 77.5 -71.5 212.5q0 123 45.5 226.5t131 164.5t200.5 61q153 0 225.5 -78.5t72.5 -211.5q0 -124 -45 -227t-130.5 -164t-201.5 -61q-155 0 -226.5 77.5zM470 168.5q46 44.5 69 114.5t23 144q0 73 -30 114t-99 41q-65 0 -111 -44t-68.5 -113.5
t-22.5 -144.5q0 -71 31.5 -113.5t97.5 -42.5q64 0 110 44.5zM436 914h141l-137 -142h-117zM615 914h142l-137 -142h-117z" />
    <glyph glyph-name="ohungarumlaut" unicode="&#x151;" horiz-adv-x="588" 
d="M133 16.5q-50 29.5 -74 79.5t-24 113q0 88 35.5 157t102 108t157.5 39q76 0 126.5 -29t74 -78.5t23.5 -110.5q0 -90 -35.5 -159.5t-102.5 -109t-158 -39.5q-75 0 -125 29.5zM340 143q26 24 38.5 63t12.5 84q0 43 -18 67.5t-60 24.5q-38 0 -63.5 -24t-38.5 -62.5
t-13 -81.5q0 -46 18 -70.5t59 -24.5q39 0 65 24zM318 728h140l-143 -158h-113zM496 728h140l-142 -158h-113z" />
    <glyph glyph-name="OE" unicode="&#x152;" horiz-adv-x="1016" 
d="M753 571l-30 -145h270l-27 -136h-270l-30 -155h272l-27 -135h-410l6 30q-77 -48 -171 -48t-155.5 39t-90 107t-28.5 157q0 125 43.5 225t125.5 157t193 57q135 0 206 -77l12 59h410l-27 -135h-272zM455 163.5q44 39.5 66.5 105t22.5 141.5q0 80 -27.5 126t-95.5 46
q-60 0 -101.5 -43t-62 -112.5t-20.5 -148.5q0 -73 26 -113.5t88 -40.5q60 0 104 39.5z" />
    <glyph glyph-name="oe" unicode="&#x153;" horiz-adv-x="882" 
d="M839 211h-325q1 -53 17.5 -79t56.5 -26q52 0 73 48h164q-16 -53 -52 -90.5t-86 -57t-110 -19.5q-53 0 -93 16t-66 46q-35 -30 -79 -46t-97 -16q-70 0 -116.5 28t-69 75.5t-22.5 108.5q0 92 34 163t96.5 111t146.5 40q103 0 154 -61q34 29 77 45t93 16q63 0 110.5 -25
t74 -74.5t26.5 -119.5q0 -35 -7 -83zM560.5 373.5q-24.5 -25.5 -36.5 -69.5h168v3q0 92 -69 92q-38 0 -62.5 -25.5zM323 144.5q24 26.5 35.5 66.5t11.5 81q0 42 -14.5 66t-48.5 24q-36 0 -61 -25t-37 -63.5t-12 -79.5q0 -46 16 -71t50 -25q36 0 60 26.5z" />
    <glyph glyph-name="Racute" unicode="&#x154;" horiz-adv-x="660" 
d="M596 360q-50 -60 -139 -77l143 -283h-175l-138 277h-38l-56 -277h-166l141 706h241q124 0 180.5 -51t56.5 -144q0 -91 -50 -151zM273 395h84q57 0 87.5 27.5t30.5 76.5q0 45 -24.5 63.5t-76.5 18.5h-64zM445 914h170l-129 -142h-155z" />
    <glyph glyph-name="racute" unicode="&#x155;" horiz-adv-x="405" 
d="M441 500l-28 -138q-10 2 -22 3.5t-24 1.5q-60 0 -99 -38.5t-54 -112.5l-44 -216h-156l99 499h150l-13 -64q56 72 142 72q26 0 49 -7zM310 727h160l-129 -157h-144z" />
    <glyph glyph-name="Rcommaaccent" unicode="&#x156;" horiz-adv-x="660" 
d="M596 360q-50 -60 -139 -77l143 -283h-175l-138 277h-38l-56 -277h-166l141 706h241q124 0 180.5 -51t56.5 -144q0 -91 -50 -151zM273 395h84q57 0 87.5 27.5t30.5 76.5q0 45 -24.5 63.5t-76.5 18.5h-64zM226 -52h161l-86 -148h-143z" />
    <glyph glyph-name="rcommaaccent" unicode="&#x157;" horiz-adv-x="405" 
d="M441 500l-28 -138q-10 2 -22 3.5t-24 1.5q-60 0 -99 -38.5t-54 -112.5l-44 -216h-156l99 499h150l-13 -64q56 72 142 72q26 0 49 -7zM2 -52h161l-86 -148h-143z" />
    <glyph glyph-name="Rcaron" unicode="&#x158;" horiz-adv-x="660" 
d="M596 360q-50 -60 -139 -77l143 -283h-175l-138 277h-38l-56 -277h-166l141 706h241q124 0 180.5 -51t56.5 -144q0 -91 -50 -151zM273 395h84q57 0 87.5 27.5t30.5 76.5q0 45 -24.5 63.5t-76.5 18.5h-64zM513 772h-178l-74 142h134l38 -72l67 72h146z" />
    <glyph glyph-name="rcaron" unicode="&#x159;" horiz-adv-x="405" 
d="M441 500l-28 -138q-10 2 -22 3.5t-24 1.5q-60 0 -99 -38.5t-54 -112.5l-44 -216h-156l99 499h150l-13 -64q56 72 142 72q26 0 49 -7zM377 570h-178l-67 158h133l36 -88l69 88h139z" />
    <glyph glyph-name="Sacute" unicode="&#x15a;" horiz-adv-x="622" 
d="M86.5 38.5q-62.5 56.5 -62.5 154.5q0 15 1 24h184q-2 -16 -2 -22q0 -85 92 -85q48 0 75 21t27 56q0 24 -13 41.5t-34 30t-60 31.5l-46 23q-49 26 -79.5 51t-46.5 57.5t-16 77.5q0 69 35 120t98 78t144 27q77 0 130.5 -24.5t80 -69t26.5 -105.5q0 -17 -1 -26h-172
q2 20 2 28q0 34 -20.5 54t-61.5 20q-42 0 -65.5 -21t-23.5 -55q0 -23 12 -38.5t33 -27.5t65 -33l28 -13q59 -28 93.5 -52t54.5 -59t20 -87q0 -73 -38 -125.5t-107 -80t-158 -27.5q-132 0 -194.5 56.5zM425 914h170l-129 -142h-155z" />
    <glyph glyph-name="sacute" unicode="&#x15b;" horiz-adv-x="499" 
d="M61.5 21.5q-51.5 38.5 -51.5 108.5q0 16 3 34h155q-3 -13 -3 -26q0 -47 56 -47q29 0 43.5 13t14.5 31q0 17 -10 29t-27.5 21t-47.5 21q-61 24 -92 56t-31 87q0 52 27.5 89t75.5 56t108 19q94 0 141.5 -34t47.5 -97q0 -8 -2 -28h-149q2 12 2 21q0 40 -47 40
q-25 0 -38 -11.5t-13 -28.5q0 -20 20.5 -34.5t70.5 -34.5q44 -17 72.5 -36.5t43.5 -47t15 -66.5q0 -55 -30 -94t-81.5 -59t-117.5 -20q-104 0 -155.5 38.5zM327 727h160l-129 -157h-144z" />
    <glyph glyph-name="Scircumflex" unicode="&#x15c;" horiz-adv-x="622" 
d="M86.5 38.5q-62.5 56.5 -62.5 154.5q0 15 1 24h184q-2 -16 -2 -22q0 -85 92 -85q48 0 75 21t27 56q0 24 -13 41.5t-34 30t-60 31.5l-46 23q-49 26 -79.5 51t-46.5 57.5t-16 77.5q0 69 35 120t98 78t144 27q77 0 130.5 -24.5t80 -69t26.5 -105.5q0 -17 -1 -26h-172
q2 20 2 28q0 34 -20.5 54t-61.5 20q-42 0 -65.5 -21t-23.5 -55q0 -23 12 -38.5t33 -27.5t65 -33l28 -13q59 -28 93.5 -52t54.5 -59t20 -87q0 -73 -38 -125.5t-107 -80t-158 -27.5q-132 0 -194.5 56.5zM344 914h178l74 -142h-134l-38 72l-67 -72h-146z" />
    <glyph glyph-name="scircumflex" unicode="&#x15d;" horiz-adv-x="499" 
d="M61.5 21.5q-51.5 38.5 -51.5 108.5q0 16 3 34h155q-3 -13 -3 -26q0 -47 56 -47q29 0 43.5 13t14.5 31q0 17 -10 29t-27.5 21t-47.5 21q-61 24 -92 56t-31 87q0 52 27.5 89t75.5 56t108 19q94 0 141.5 -34t47.5 -97q0 -8 -2 -28h-149q2 12 2 21q0 40 -47 40
q-25 0 -38 -11.5t-13 -28.5q0 -20 20.5 -34.5t70.5 -34.5q44 -17 72.5 -36.5t43.5 -47t15 -66.5q0 -55 -30 -94t-81.5 -59t-117.5 -20q-104 0 -155.5 38.5zM245 728h178l67 -158h-133l-36 88l-69 -88h-139z" />
    <glyph glyph-name="Scedilla" unicode="&#x15e;" horiz-adv-x="622" 
d="M447 499q2 20 2 28q0 34 -20.5 54t-61.5 20q-42 0 -65.5 -21t-23.5 -55q0 -23 12 -38.5t33 -27.5t65 -33l28 -13q59 -28 93.5 -52t54.5 -59t20 -87q0 -64 -29.5 -112.5t-83.5 -78t-126 -38.5l-10 -23q41 -5 63 -28.5t22 -60.5q0 -55 -44 -81.5t-116 -26.5q-30 0 -57 5.5
t-48 15.5l29 72q33 -15 74 -15q26 0 41 8.5t15 24.5q0 15 -15 22.5t-47 7.5h-48l34 77q-110 9 -162 64t-52 145q0 15 1 24h184q-2 -16 -2 -22q0 -85 92 -85q48 0 75 21t27 56q0 24 -13 41.5t-34 30t-60 31.5l-46 23q-49 26 -79.5 51t-46.5 57.5t-16 77.5q0 69 35 120t98 78
t144 27q77 0 130.5 -24.5t80 -69t26.5 -105.5q0 -17 -1 -26h-172z" />
    <glyph glyph-name="scedilla" unicode="&#x15f;" horiz-adv-x="499" 
d="M320 354q2 12 2 21q0 40 -47 40q-25 0 -38 -11.5t-13 -28.5q0 -20 20.5 -34.5t70.5 -34.5q44 -17 72.5 -36.5t43.5 -47t15 -66.5q0 -49 -24 -85.5t-66 -58t-97 -27.5l-11 -22q41 -5 63.5 -28.5t22.5 -60.5q0 -55 -44 -81.5t-116 -26.5q-30 0 -57 5.5t-48 15.5l29 72
q33 -15 74 -15q26 0 41 8.5t15 24.5q0 15 -15 22.5t-47 7.5h-48l35 80q-72 11 -107.5 48t-35.5 95q0 16 3 34h155q-3 -13 -3 -26q0 -47 56 -47q29 0 43.5 13t14.5 31q0 17 -10 29t-27.5 21t-47.5 21q-61 24 -92 56t-31 87q0 52 27.5 89t75.5 56t108 19q94 0 141.5 -34
t47.5 -97q0 -8 -2 -28h-149z" />
    <glyph glyph-name="Scaron" unicode="&#x160;" horiz-adv-x="622" 
d="M86.5 38.5q-62.5 56.5 -62.5 154.5q0 15 1 24h184q-2 -16 -2 -22q0 -85 92 -85q48 0 75 21t27 56q0 24 -13 41.5t-34 30t-60 31.5l-46 23q-49 26 -79.5 51t-46.5 57.5t-16 77.5q0 69 35 120t98 78t144 27q77 0 130.5 -24.5t80 -69t26.5 -105.5q0 -17 -1 -26h-172
q2 20 2 28q0 34 -20.5 54t-61.5 20q-42 0 -65.5 -21t-23.5 -55q0 -23 12 -38.5t33 -27.5t65 -33l28 -13q59 -28 93.5 -52t54.5 -59t20 -87q0 -73 -38 -125.5t-107 -80t-158 -27.5q-132 0 -194.5 56.5zM492 772h-178l-74 142h134l38 -72l67 72h146z" />
    <glyph glyph-name="scaron" unicode="&#x161;" horiz-adv-x="499" 
d="M61.5 21.5q-51.5 38.5 -51.5 108.5q0 16 3 34h155q-3 -13 -3 -26q0 -47 56 -47q29 0 43.5 13t14.5 31q0 17 -10 29t-27.5 21t-47.5 21q-61 24 -92 56t-31 87q0 52 27.5 89t75.5 56t108 19q94 0 141.5 -34t47.5 -97q0 -8 -2 -28h-149q2 12 2 21q0 40 -47 40
q-25 0 -38 -11.5t-13 -28.5q0 -20 20.5 -34.5t70.5 -34.5q44 -17 72.5 -36.5t43.5 -47t15 -66.5q0 -55 -30 -94t-81.5 -59t-117.5 -20q-104 0 -155.5 38.5zM394 570h-178l-67 158h133l36 -88l69 88h139z" />
    <glyph glyph-name="uni0162" unicode="&#x162;" horiz-adv-x="549" 
d="M625 706l-27 -135h-175l-115 -571h-19l-17 -37q41 -5 63.5 -28.5t22.5 -60.5q0 -55 -44.5 -81.5t-116.5 -26.5q-30 0 -57 5.5t-48 15.5l29 72q33 -15 74 -15q26 0 41 8.5t15 24.5q0 15 -15 22.5t-47 7.5h-48l42 93h-41l114 571h-176l26 135h519z" />
    <glyph glyph-name="uni0163" unicode="&#x163;" horiz-adv-x="372" 
d="M222 198q-3 -16 -3 -28q0 -27 13 -39t40 -12q21 0 46 6l-26 -126q-38 -7 -70 -8l-13 -28q41 -5 63.5 -28.5t22.5 -60.5q0 -55 -44.5 -81.5t-116.5 -26.5q-30 0 -57 5.5t-48 15.5l29 72q33 -15 74 -15q26 0 41 8.5t15 24.5q0 15 -15 22.5t-47 7.5h-47l42 96
q-34 13 -50 40.5t-16 71.5q0 31 9 73l37 187h-63l24 124h64l23 117h157l-23 -117h111l-25 -124h-111z" />
    <glyph glyph-name="Tcaron" unicode="&#x164;" horiz-adv-x="549" 
d="M256 571h-176l26 135h519l-27 -135h-175l-115 -571h-166zM467 772h-178l-74 142h134l38 -72l67 72h146z" />
    <glyph glyph-name="tcaron" unicode="&#x165;" horiz-adv-x="422" 
d="M91.5 20q-36.5 29 -36.5 95q0 31 9 73l37 187h-63l24 124h64l23 117h157l-23 -117h111l-25 -124h-111l-36 -177q-3 -16 -3 -28q0 -27 13 -39t40 -12q21 0 46 6l-26 -126q-46 -8 -86 -8q-78 0 -114.5 29zM375 708h132l-74 -172h-115z" />
    <glyph glyph-name="Tbar" unicode="&#x166;" horiz-adv-x="549" 
d="M423 571l-29 -145h110l-21 -101h-110l-65 -325h-166l65 325h-112l21 101h111l29 145h-176l26 135h519l-27 -135h-175z" />
    <glyph glyph-name="tbar" unicode="&#x167;" horiz-adv-x="372" 
d="M258 375l-14 -67h113l-20 -97h-112l-3 -13q-3 -16 -3 -28q0 -27 13 -39t40 -12q21 0 46 6l-26 -126q-46 -8 -86 -8q-78 0 -114.5 29t-36.5 95q0 31 9 73l5 23h-64l19 97h64l13 67h-63l24 124h64l23 117h157l-23 -117h111l-25 -124h-111z" />
    <glyph glyph-name="Utilde" unicode="&#x168;" horiz-adv-x="690" 
d="M122 35q-64 53 -64 155q0 44 11 96l84 420h166l-88 -442q-5 -24 -5 -53q0 -43 22.5 -64.5t73.5 -21.5q64 0 96 31.5t45 97.5l90 452h166l-97 -489q-23 -117 -98.5 -176t-207.5 -59q-130 0 -194 53zM491.5 775q-18.5 7 -38.5 19q-22 12 -35.5 17.5t-26.5 5.5
q-36 0 -49 -48h-87q18 73 51.5 109.5t86.5 36.5q25 0 44 -7.5t38 -21.5q14 -10 26 -15t26 -5q19 0 31 11.5t22 37.5h85q-17 -72 -49.5 -109.5t-82.5 -37.5q-23 0 -41.5 7z" />
    <glyph glyph-name="utilde" unicode="&#x169;" horiz-adv-x="592" 
d="M578 499l-100 -499h-157l10 49q-29 -32 -64 -47.5t-78 -15.5q-71 0 -108 39t-37 112q0 33 6 66l59 296h157l-54 -271q-5 -25 -5 -44q0 -66 64 -66q74 0 90 84l60 297h157zM354 596q-5 3 -16.5 11.5t-20.5 12.5t-17 4q-16 0 -26 -13t-16 -40h-93q17 80 49.5 119.5
t83.5 39.5q23 0 40.5 -7.5t35.5 -21.5q20 -14 31 -20t23 -6q17 0 27 12.5t17 40.5h93q-17 -80 -49.5 -119.5t-84.5 -39.5q-43 0 -77 27z" />
    <glyph glyph-name="Umacron" unicode="&#x16a;" horiz-adv-x="690" 
d="M122 35q-64 53 -64 155q0 44 11 96l84 420h166l-88 -442q-5 -24 -5 -53q0 -43 22.5 -64.5t73.5 -21.5q64 0 96 31.5t45 97.5l90 452h166l-97 -489q-23 -117 -98.5 -176t-207.5 -59q-130 0 -194 53zM313 894h314l-20 -100h-314z" />
    <glyph glyph-name="umacron" unicode="&#x16b;" horiz-adv-x="592" 
d="M578 499l-100 -499h-157l10 49q-29 -32 -64 -47.5t-78 -15.5q-71 0 -108 39t-37 112q0 33 6 66l59 296h157l-54 -271q-5 -25 -5 -44q0 -66 64 -66q74 0 90 84l60 297h157zM223 695h305l-20 -99h-305z" />
    <glyph glyph-name="Ubreve" unicode="&#x16c;" horiz-adv-x="690" 
d="M122 35q-64 53 -64 155q0 44 11 96l84 420h166l-88 -442q-5 -24 -5 -53q0 -43 22.5 -64.5t73.5 -21.5q64 0 96 31.5t45 97.5l90 452h166l-97 -489q-23 -117 -98.5 -176t-207.5 -59q-130 0 -194 53zM333 795.5q-38 30.5 -38 89.5q0 9 2 29h100v-12q0 -26 14.5 -38.5
t42.5 -12.5q32 0 52 14.5t34 48.5h110q-19 -73 -71 -111t-134 -38q-74 0 -112 30.5z" />
    <glyph glyph-name="ubreve" unicode="&#x16d;" horiz-adv-x="592" 
d="M578 499l-100 -499h-157l10 49q-29 -32 -64 -47.5t-78 -15.5q-71 0 -108 39t-37 112q0 33 6 66l59 296h157l-54 -271q-5 -25 -5 -44q0 -66 64 -66q74 0 90 84l60 297h157zM240 598.5q-40 36.5 -40 106.5q0 15 1 23h108q-1 -7 -1 -21q0 -30 13.5 -43.5t42.5 -13.5
q33 0 53.5 18t33.5 60h113q-19 -81 -70.5 -123.5t-133.5 -42.5q-80 0 -120 36.5z" />
    <glyph glyph-name="Uring" unicode="&#x16e;" horiz-adv-x="690" 
d="M122 35q-64 53 -64 155q0 44 11 96l84 420h166l-88 -442q-5 -24 -5 -53q0 -43 22.5 -64.5t73.5 -21.5q64 0 96 31.5t45 97.5l90 452h166l-97 -489q-23 -117 -98.5 -176t-207.5 -59q-130 0 -194 53zM381 753.5q-31 15.5 -47.5 44t-16.5 64.5q0 37 16.5 65t47 43.5
t71.5 15.5t72 -15.5t48 -43.5t17 -65q0 -36 -17 -64.5t-48.5 -44t-71.5 -15.5t-71 15.5zM488.5 828q13.5 13 13.5 34q0 22 -13.5 35.5t-36.5 13.5q-22 0 -35.5 -13.5t-13.5 -35.5q0 -21 13.5 -34t35.5 -13q23 0 36.5 13z" />
    <glyph glyph-name="uring" unicode="&#x16f;" horiz-adv-x="592" 
d="M578 499l-100 -499h-157l10 49q-29 -32 -64 -47.5t-78 -15.5q-71 0 -108 39t-37 112q0 33 6 66l59 296h157l-54 -271q-5 -25 -5 -44q0 -66 64 -66q74 0 90 84l60 297h157zM289 564.5q-31 15.5 -47.5 44t-16.5 64.5q0 37 16.5 65t47 43.5t71.5 15.5t72 -15.5t48 -43.5
t17 -65q0 -36 -17 -64.5t-48.5 -44t-71.5 -15.5t-71 15.5zM396.5 639q13.5 13 13.5 34q0 22 -13.5 35.5t-36.5 13.5q-22 0 -35.5 -13.5t-13.5 -35.5q0 -21 13.5 -34t35.5 -13q23 0 36.5 13z" />
    <glyph glyph-name="Uhungarumlaut" unicode="&#x170;" horiz-adv-x="690" 
d="M122 35q-64 53 -64 155q0 44 11 96l84 420h166l-88 -442q-5 -24 -5 -53q0 -43 22.5 -64.5t73.5 -21.5q64 0 96 31.5t45 97.5l90 452h166l-97 -489q-23 -117 -98.5 -176t-207.5 -59q-130 0 -194 53zM402 914h141l-137 -142h-117zM581 914h142l-137 -142h-117z" />
    <glyph glyph-name="uhungarumlaut" unicode="&#x171;" horiz-adv-x="592" 
d="M578 499l-100 -499h-157l10 49q-29 -32 -64 -47.5t-78 -15.5q-71 0 -108 39t-37 112q0 33 6 66l59 296h157l-54 -271q-5 -25 -5 -44q0 -66 64 -66q74 0 90 84l60 297h157zM310 728h140l-143 -158h-113zM488 728h140l-142 -158h-113z" />
    <glyph glyph-name="Uogonek" unicode="&#x172;" horiz-adv-x="690" 
d="M719 706l-97 -489q-15 -75 -50.5 -125.5t-101.5 -89.5q-40 -25 -66 -48t-26 -47q0 -14 9.5 -21.5t25.5 -7.5q21 0 35 5l-17 -88q-35 -9 -71 -9q-52 0 -82 22.5t-30 64.5q0 35 20 61.5t55 47.5h-7q-130 0 -194 53t-64 155q0 44 11 96l84 420h166l-88 -442q-5 -24 -5 -53
q0 -43 22.5 -64.5t73.5 -21.5q64 0 96 31.5t45 97.5l90 452h166z" />
    <glyph glyph-name="uogonek" unicode="&#x173;" horiz-adv-x="592" 
d="M410 -47.5q-25 -21.5 -25 -45.5q0 -14 10 -21.5t26 -7.5q21 0 35 5l-18 -88q-33 -9 -70 -9q-52 0 -82 22.5t-30 64.5q0 43 30 73.5t80 53.5h-45l10 49q-29 -32 -64 -47.5t-78 -15.5q-71 0 -108 39t-37 112q0 33 6 66l59 296h157l-54 -271q-5 -25 -5 -44q0 -66 64 -66
q74 0 90 84l60 297h157l-100 -499q-43 -26 -68 -47.5z" />
    <glyph glyph-name="Wcircumflex" unicode="&#x174;" horiz-adv-x="943" 
d="M1029 706l-327 -706h-174l-12 476l-202 -476h-170l-48 706h158l24 -467l193 467h174l13 -466l201 466h170zM517 914h178l74 -142h-134l-38 72l-67 -72h-146z" />
    <glyph glyph-name="wcircumflex" unicode="&#x175;" horiz-adv-x="829" 
d="M868 499l-272 -499h-153l-26 286l-134 -286h-151l-71 499h160l22 -295l147 295h130l30 -294l141 294h177zM402 728h178l67 -158h-133l-36 88l-69 -88h-139z" />
    <glyph glyph-name="Ycircumflex" unicode="&#x176;" horiz-adv-x="612" 
d="M234 303l-138 403h165l83 -241l162 241h192l-298 -403l-61 -303h-166zM331 914h178l74 -142h-134l-38 72l-67 -72h-146z" />
    <glyph glyph-name="ycircumflex" unicode="&#x177;" horiz-adv-x="559" 
d="M597 499l-410 -699h-168l118 202l-76 497h158l38 -319l164 319h176zM271 728h178l67 -158h-133l-36 88l-69 -88h-139z" />
    <glyph glyph-name="Ydieresis" unicode="&#x178;" horiz-adv-x="612" 
d="M234 303l-138 403h165l83 -241l162 241h192l-298 -403l-61 -303h-166zM255 780q-18 10 -28.5 27t-10.5 38q0 22 10.5 39t28.5 27t40 10t40 -10t28.5 -27t10.5 -39q0 -21 -10.5 -38t-28.5 -27t-40 -10t-40 10zM476 780q-18 10 -28 27t-10 38q0 33 22.5 54.5t56.5 21.5
q22 0 40 -10t28.5 -27t10.5 -39q0 -21 -10.5 -38t-28.5 -27t-40 -10q-23 0 -41 10z" />
    <glyph glyph-name="Zacute" unicode="&#x179;" horiz-adv-x="614" 
d="M367 567h-264l27 139h529l-393 -567h294l-28 -139h-560zM404 914h170l-129 -142h-155z" />
    <glyph glyph-name="zacute" unicode="&#x17a;" horiz-adv-x="480" 
d="M237 126h203l-25 -126h-459l299 375h-202l25 124h446zM316 727h160l-129 -157h-144z" />
    <glyph glyph-name="Zdotaccent" unicode="&#x17b;" horiz-adv-x="614" 
d="M367 567h-264l27 139h529l-393 -567h294l-28 -139h-560zM339.5 794.5q-23.5 22.5 -23.5 58.5q0 23 11 41t30 28t44 10q24 0 43 -10t29.5 -28t10.5 -41q0 -36 -23.5 -58.5t-59.5 -22.5q-38 0 -61.5 22.5z" />
    <glyph glyph-name="zdotaccent" unicode="&#x17c;" horiz-adv-x="480" 
d="M237 126h203l-25 -126h-459l299 375h-202l25 124h446zM265.5 581q-19.5 11 -30.5 29.5t-11 41.5t11 42t30.5 30t44.5 11q24 0 43.5 -11t30.5 -30t11 -42t-11 -41.5t-30.5 -29.5t-43.5 -11q-25 0 -44.5 11z" />
    <glyph glyph-name="Zcaron" unicode="&#x17d;" horiz-adv-x="614" 
d="M367 567h-264l27 139h529l-393 -567h294l-28 -139h-560zM471 772h-178l-74 142h134l38 -72l67 72h146z" />
    <glyph glyph-name="zcaron" unicode="&#x17e;" horiz-adv-x="480" 
d="M237 126h203l-25 -126h-459l299 375h-202l25 124h446zM383 570h-178l-67 158h133l36 -88l69 88h139z" />
    <glyph glyph-name="Schwa" unicode="&#x18f;" horiz-adv-x="725" 
d="M580 686q64 -38 95 -105.5t31 -157.5q0 -123 -46.5 -223.5t-131.5 -159t-195 -58.5q-82 0 -143.5 33.5t-95.5 98.5t-34 158q0 57 11 122h463q1 10 1 29q0 74 -30.5 114.5t-96.5 40.5q-51 0 -86 -24.5t-54 -71.5h-177q23 77 71 131.5t114.5 82.5t143.5 28q96 0 160 -38z
M445 159.5q42 38.5 65 103.5h-285q0 -67 30 -104.5t90 -37.5q58 0 100 38.5z" />
    <glyph glyph-name="florin" unicode="&#x192;" horiz-adv-x="402" 
d="M5 -5.5q-22 2.5 -39 7.5l25 121q17 -6 38 -6q69 0 83 69l35 176h-104l16 79h104l25 126q16 82 66.5 119t143.5 37q44 0 81 -10l-25 -121q-7 3 -18.5 4.5t-21.5 1.5q-35 0 -54 -18.5t-27 -55.5l-17 -83h108l-16 -79h-108l-42 -215q-16 -81 -66.5 -118t-143.5 -37
q-21 0 -43 2.5z" />
    <glyph glyph-name="Aringacute" unicode="&#x1fa;" horiz-adv-x="699" 
d="M463 137h-262l-67 -137h-179l360 706h251l78 -706h-169zM451 264l-28 319h-2l-157 -319h187zM389 753.5q-31 15.5 -47.5 44t-16.5 64.5q0 37 16.5 65t47 43.5t71.5 15.5t72 -15.5t48 -43.5t17 -65q0 -36 -17 -64.5t-48.5 -44t-71.5 -15.5t-71 15.5zM496.5 828
q13.5 13 13.5 34q0 22 -13.5 35.5t-36.5 13.5q-22 0 -35.5 -13.5t-13.5 -35.5q0 -21 13.5 -34t35.5 -13q23 0 36.5 13zM530 1194h170l-129 -142h-155z" />
    <glyph glyph-name="aringacute" unicode="&#x1fb;" horiz-adv-x="583" 
d="M484 468.5q51 -44.5 51 -132.5q0 -17 -3 -38.5t-8 -47.5l-50 -250h-159l10 50q-60 -63 -158 -63q-76 0 -114 37.5t-38 102.5q0 97 72 137.5t196 40.5h93q4 21 4 38q0 31 -14.5 45.5t-50.5 14.5q-38 0 -56.5 -16.5t-24.5 -47.5h-162q15 84 78.5 129t167.5 45
q115 0 166 -44.5zM321 128.5q25 25.5 37 84.5h-71q-49 0 -75 -13t-26 -48q0 -25 14.5 -37t47.5 -12q48 0 73 25.5zM292 564.5q-31 15.5 -47.5 44t-16.5 64.5q0 37 16.5 65t47 43.5t71.5 15.5t72 -15.5t48 -43.5t17 -65q0 -36 -17 -64.5t-48.5 -44t-71.5 -15.5t-71 15.5z
M399.5 639q13.5 13 13.5 34q0 22 -13.5 35.5t-36.5 13.5q-22 0 -35.5 -13.5t-13.5 -35.5q0 -21 13.5 -34t35.5 -13q23 0 36.5 13zM436 1024h160l-129 -157h-144z" />
    <glyph glyph-name="AEacute" unicode="&#x1fc;" horiz-adv-x="846" 
d="M602 571l-12 -145h233l-26 -136h-218l-13 -155h203l-27 -135h-356l13 139h-187l-72 -139h-185l388 706h540l-27 -135h-254zM411 265l30 311h-2l-161 -311h133zM594 914h170l-129 -142h-155z" />
    <glyph glyph-name="aeacute" unicode="&#x1fd;" horiz-adv-x="882" 
d="M515 213v-1q0 -53 17 -79.5t56 -26.5q54 0 73 48h165q-16 -53 -52 -90.5t-86.5 -57t-110.5 -19.5q-66 0 -111.5 23t-69.5 67q-75 -90 -209 -90q-87 0 -129.5 37.5t-42.5 106.5q0 94 73 134t195 40h93q4 21 4 38q0 31 -14.5 45.5t-49.5 14.5q-39 0 -57.5 -16.5
t-24.5 -47.5h-162q16 85 79.5 129.5t169.5 44.5q109 0 160 -48q67 48 155 48q63 0 110.5 -25t74 -74.5t26.5 -119.5q0 -38 -8 -81h-324zM564 373q-24 -26 -36 -68h165v1q0 45 -17.5 69t-51.5 24q-36 0 -60 -26zM322 130q25 27 36 84h-71q-49 0 -75 -12.5t-26 -46.5
q0 -52 65 -52q46 0 71 27zM541 727h160l-129 -157h-144z" />
    <glyph glyph-name="Oslashacute" unicode="&#x1fe;" horiz-adv-x="752" 
d="M706 579q28 -62 28 -145q0 -124 -45 -227t-130.5 -164t-201.5 -61q-155 0 -232 83l-71 -65h-113l144 128q-26 59 -26 144q0 123 45.5 226.5t131 164.5t200.5 61q156 0 230 -84l72 66h112zM322 538q-46 -44 -68.5 -113.5t-22.5 -144.5q0 -19 1 -28l307 279q-32 51 -106 51
q-65 0 -111 -44zM470 168.5q46 44.5 69 114.5t23 144q0 20 -1 29l-306 -279q32 -53 105 -53q64 0 110 44.5zM500 914h170l-129 -142h-155z" />
    <glyph glyph-name="oslashacute" unicode="&#x1ff;" horiz-adv-x="588" 
d="M523 420q31 -53 31 -125q0 -90 -35.5 -159.5t-102.5 -109t-158 -39.5q-93 0 -150 46l-36 -33h-95l90 81q-32 52 -32 128q0 88 35.5 157t102 108t157.5 39q93 0 151 -45l34 31h96zM249.5 358q-25.5 -24 -38.5 -62.5t-13 -81.5v-14l172 162q-18 20 -57 20q-38 0 -63.5 -24z
M340 143q26 24 38.5 63t12.5 84v12l-172 -162q18 -21 56 -21q39 0 65 24zM381 727h160l-129 -157h-144z" />
    <glyph glyph-name="Scommaaccent" unicode="&#x218;" horiz-adv-x="622" 
d="M86.5 38.5q-62.5 56.5 -62.5 154.5q0 15 1 24h184q-2 -16 -2 -22q0 -85 92 -85q48 0 75 21t27 56q0 24 -13 41.5t-34 30t-60 31.5l-46 23q-49 26 -79.5 51t-46.5 57.5t-16 77.5q0 69 35 120t98 78t144 27q77 0 130.5 -24.5t80 -69t26.5 -105.5q0 -17 -1 -26h-172
q2 20 2 28q0 34 -20.5 54t-61.5 20q-42 0 -65.5 -21t-23.5 -55q0 -23 12 -38.5t33 -27.5t65 -33l28 -13q59 -28 93.5 -52t54.5 -59t20 -87q0 -73 -38 -125.5t-107 -80t-158 -27.5q-132 0 -194.5 56.5zM205 -52h161l-86 -148h-143z" />
    <glyph glyph-name="scommaaccent" unicode="&#x219;" horiz-adv-x="499" 
d="M61.5 21.5q-51.5 38.5 -51.5 108.5q0 16 3 34h155q-3 -13 -3 -26q0 -47 56 -47q29 0 43.5 13t14.5 31q0 17 -10 29t-27.5 21t-47.5 21q-61 24 -92 56t-31 87q0 52 27.5 89t75.5 56t108 19q94 0 141.5 -34t47.5 -97q0 -8 -2 -28h-149q2 12 2 21q0 40 -47 40
q-25 0 -38 -11.5t-13 -28.5q0 -20 20.5 -34.5t70.5 -34.5q44 -17 72.5 -36.5t43.5 -47t15 -66.5q0 -55 -30 -94t-81.5 -59t-117.5 -20q-104 0 -155.5 38.5zM119 -52h161l-86 -148h-143z" />
    <glyph glyph-name="uni021A" unicode="&#x21a;" horiz-adv-x="549" 
d="M256 571h-176l26 135h519l-27 -135h-175l-115 -571h-166zM142 -52h161l-86 -148h-143z" />
    <glyph glyph-name="uni021B" unicode="&#x21b;" horiz-adv-x="372" 
d="M91.5 20q-36.5 29 -36.5 95q0 31 9 73l37 187h-63l24 124h64l23 117h157l-23 -117h111l-25 -124h-111l-36 -177q-3 -16 -3 -28q0 -27 13 -39t40 -12q21 0 46 6l-26 -126q-46 -8 -86 -8q-78 0 -114.5 29zM79 -52h161l-86 -148h-143z" />
    <glyph glyph-name="dotlessj" unicode="&#x237;" horiz-adv-x="284" 
d="M-106 -199l27 134q10 -2 27 -2q28 0 43 13t20 42l102 511h157l-110 -549q-16 -81 -61.5 -117.5t-128.5 -36.5q-36 0 -76 5z" />
    <glyph glyph-name="schwa" unicode="&#x259;" horiz-adv-x="581" 
d="M444.5 484.5q52.5 -27.5 77.5 -76.5t25 -116q0 -86 -35.5 -156t-101 -110t-152.5 -40q-67 0 -117 25t-78 74.5t-28 119.5q0 37 8 84h344v3q0 50 -19.5 76t-63.5 26q-60 0 -83 -48h-165q17 52 54.5 89.5t90 57t113.5 19.5q78 0 130.5 -27.5zM333.5 126q26.5 26 40.5 70
h-185v-2q0 -46 20 -70t59 -24t65.5 26z" />
    <glyph glyph-name="circumflex" unicode="&#x2c6;" horiz-adv-x="477" 
d="M246 728h178l67 -158h-133l-36 88l-69 -88h-139z" />
    <glyph glyph-name="caron" unicode="&#x2c7;" horiz-adv-x="477" 
d="M391 570h-178l-67 158h133l36 -88l69 88h139z" />
    <glyph glyph-name="uni02C9" unicode="&#x2c9;" horiz-adv-x="405" 
d="M139 695h305l-20 -99h-305z" />
    <glyph glyph-name="breve" unicode="&#x2d8;" horiz-adv-x="463" 
d="M185 598.5q-40 36.5 -40 106.5q0 15 1 23h108q-1 -7 -1 -21q0 -30 13.5 -43.5t42.5 -13.5q33 0 53.5 18t33.5 60h113q-19 -81 -70.5 -123.5t-133.5 -42.5q-80 0 -120 36.5z" />
    <glyph glyph-name="dotaccent" unicode="&#x2d9;" horiz-adv-x="274" 
d="M173.5 581q-19.5 11 -30.5 29.5t-11 41.5t11 42t30.5 30t44.5 11q24 0 43.5 -11t30.5 -30t11 -42t-11 -41.5t-30.5 -29.5t-43.5 -11q-25 0 -44.5 11z" />
    <glyph glyph-name="ring" unicode="&#x2da;" horiz-adv-x="378" 
d="M202 564.5q-31 15.5 -47.5 44t-16.5 64.5q0 37 16.5 65t47 43.5t71.5 15.5t72 -15.5t48 -43.5t17 -65q0 -36 -17 -64.5t-48.5 -44t-71.5 -15.5t-71 15.5zM309.5 639q13.5 13 13.5 34q0 22 -13.5 35.5t-36.5 13.5q-22 0 -35.5 -13.5t-13.5 -35.5q0 -21 13.5 -34t35.5 -13
q23 0 36.5 13z" />
    <glyph glyph-name="ogonek" unicode="&#x2db;" horiz-adv-x="300" 
d="M7 -191.5q-30 22.5 -30 64.5q0 44 31 75t84 54l107 -2q-42 -26 -67 -47.5t-25 -45.5q0 -14 9.5 -21.5t25.5 -7.5q21 0 35 5l-17 -88q-35 -9 -71 -9q-52 0 -82 22.5z" />
    <glyph glyph-name="tilde" unicode="&#x2dc;" horiz-adv-x="468" 
d="M303 596q-5 3 -16.5 11.5t-20.5 12.5t-17 4q-16 0 -26 -13t-16 -40h-93q17 80 49.5 119.5t83.5 39.5q23 0 40.5 -7.5t35.5 -21.5q20 -14 31 -20t23 -6q17 0 27 12.5t17 40.5h93q-17 -80 -49.5 -119.5t-84.5 -39.5q-43 0 -77 27z" />
    <glyph glyph-name="hungarumlaut" unicode="&#x2dd;" horiz-adv-x="502" 
d="M230 728h140l-143 -158h-113zM408 728h140l-142 -158h-113z" />
    <glyph glyph-name="gravecomb" unicode="&#x300;" 
d="M-116 570l-80 157h146l64 -157h-130z" />
    <glyph glyph-name="acutecomb" unicode="&#x301;" 
d="M-115 727h160l-129 -157h-144z" />
    <glyph glyph-name="circumflexcomb" unicode="&#x302;" 
d="M-231 728h178l67 -158h-133l-36 88l-69 -88h-139z" />
    <glyph glyph-name="tildecomb" unicode="&#x303;" 
d="M-165 596q-5 3 -16.5 11.5t-20.5 12.5t-17 4q-16 0 -26 -13t-16 -40h-93q17 80 49.5 119.5t83.5 39.5q23 0 40.5 -7.5t35.5 -21.5q20 -14 31 -20t23 -6q17 0 27 12.5t17 40.5h93q-17 -80 -49.5 -119.5t-84.5 -39.5q-43 0 -77 27z" />
    <glyph glyph-name="macroncomb" unicode="&#x304;" 
d="M-266 695h305l-20 -99h-305z" />
    <glyph glyph-name="brevecomb" unicode="&#x306;" 
d="M-278 598.5q-40 36.5 -40 106.5q0 15 1 23h108q-1 -7 -1 -21q0 -30 13.5 -43.5t42.5 -13.5q33 0 53.5 18t33.5 60h113q-19 -81 -70.5 -123.5t-133.5 -42.5q-80 0 -120 36.5z" />
    <glyph glyph-name="dotaccentcomb" unicode="&#x307;" 
d="M-100.5 581q-19.5 11 -30.5 29.5t-11 41.5t11 42t30.5 30t44.5 11q24 0 43.5 -11t30.5 -30t11 -42t-11 -41.5t-30.5 -29.5t-43.5 -11q-25 0 -44.5 11z" />
    <glyph glyph-name="dieresiscomb" unicode="&#x308;" 
d="M-304.5 579q-18.5 10 -29 27.5t-10.5 39.5t10.5 40t29 28.5t41.5 10.5t41.5 -10.5t29.5 -28.5t11 -40t-11 -39.5t-29.5 -27.5t-41.5 -10t-41.5 10zM-95.5 579q-18.5 10 -29 27.5t-10.5 39.5t10.5 40t29 28.5t41.5 10.5t41.5 -10.5t29.5 -28.5t11 -40t-11 -39.5
t-29.5 -27.5t-41.5 -10t-41.5 10z" />
    <glyph glyph-name="ringcomb" unicode="&#x30a;" 
d="M-176 564.5q-31 15.5 -47.5 44t-16.5 64.5q0 37 16.5 65t47 43.5t71.5 15.5t72 -15.5t48 -43.5t17 -65q0 -36 -17 -64.5t-48.5 -44t-71.5 -15.5t-71 15.5zM-68.5 639q13.5 13 13.5 34q0 22 -13.5 35.5t-36.5 13.5q-22 0 -35.5 -13.5t-13.5 -35.5q0 -21 13.5 -34t35.5 -13
q23 0 36.5 13z" />
    <glyph glyph-name="hungarumlautcomb" unicode="&#x30b;" 
d="M-272 728h140l-143 -158h-113zM-94 728h140l-142 -158h-113z" />
    <glyph glyph-name="caroncomb" unicode="&#x30c;" 
d="M-86 570h-178l-67 158h133l36 -88l69 88h139z" />
    <glyph glyph-name="commaturnedabovecomb" unicode="&#x312;" 
d="M-24 570h-161l85 148h144z" />
    <glyph glyph-name="commaaccent" unicode="&#x326;" 
d="M-271 -52h161l-86 -148h-143z" />
    <glyph glyph-name="cedillacomb" unicode="&#x327;" 
d="M-150.5 -65.5q22.5 -23.5 22.5 -60.5q0 -55 -44 -81.5t-117 -26.5q-30 0 -57 5.5t-48 15.5l30 72q33 -15 73 -15q27 0 42 8.5t15 24.5q0 15 -15 22.5t-48 7.5h-47l43 98h106l-19 -42q41 -5 63.5 -28.5z" />
    <glyph glyph-name="ogonekcomb" unicode="&#x328;" 
d="M-293 -191.5q-30 22.5 -30 64.5q0 44 31 75t84 54l107 -2q-42 -26 -67 -47.5t-25 -45.5q0 -14 9.5 -21.5t25.5 -7.5q21 0 35 5l-17 -88q-35 -9 -71 -9q-52 0 -82 22.5z" />
    <glyph glyph-name="uni0335" unicode="&#x335;" 
d="M-356 385h332l-19 -98h-333z" />
    <glyph glyph-name="uni0336" unicode="&#x336;" 
d="M-254 676h339l-19 -95h-339z" />
    <glyph glyph-name="uni0337" unicode="&#x337;" 
d="M-97 437l153 94l-25 -130l-155 -96zM-267 362l154 90l-26 -133l-154 -86z" />
    <glyph glyph-name="uni0338" unicode="&#x338;" 
d="M-456 151l-1 -4l281 267v2l90 83h96l-168 -151l1 5l-281 -267l1 -2l-91 -84h-96z" />
    <glyph glyph-name="delta" unicode="&#x394;" horiz-adv-x="699" 
d="M644 0h-689l360 706h251zM469 129l-42 453h-2l-223 -453h267z" />
    <glyph glyph-name="delta" unicode="&#x3b4;" horiz-adv-x="699" 
d="M644 0h-689l360 706h251zM469 129l-42 453h-2l-223 -453h267z" />
    <glyph glyph-name="omega" unicode="&#x3a9;" horiz-adv-x="726" 
d="M35 123h138l12 62q-54 31 -79.5 85.5t-25.5 127.5q0 99 43.5 172.5t122.5 113.5t183 40q148 0 220 -66.5t72 -186.5q0 -71 -25 -131.5t-72 -104.5t-112 -67l-9 -45h139l-25 -123h-265l53 268q46 6 80 36t52 74.5t18 92.5q0 60 -32 93.5t-100 33.5q-55 0 -95 -26
t-60.5 -71.5t-20.5 -102.5q0 -52 20 -85t63 -45l-54 -268h-265z" />
    <glyph glyph-name="omega" unicode="&#x3c9;" horiz-adv-x="726" 
d="M35 123h138l12 62q-54 31 -79.5 85.5t-25.5 127.5q0 99 43.5 172.5t122.5 113.5t183 40q148 0 220 -66.5t72 -186.5q0 -71 -25 -131.5t-72 -104.5t-112 -67l-9 -45h139l-25 -123h-265l53 268q46 6 80 36t52 74.5t18 92.5q0 60 -32 93.5t-100 33.5q-55 0 -95 -26
t-60.5 -71.5t-20.5 -102.5q0 -52 20 -85t63 -45l-54 -268h-265z" />
    <glyph glyph-name="uni03BC" unicode="&#x3bc;" horiz-adv-x="595" 
d="M581 499l-100 -499h-151l10 50q-55 -63 -134 -63q-30 0 -50 10q-3 -72 -17 -135l-12 -64h-153l139 701h153l-58 -288q-4 -20 -4 -39q0 -30 15 -43.5t47 -13.5q42 0 68 23.5t36 74.5l57 286h154z" />
    <glyph glyph-name="pi" unicode="&#x3c0;" horiz-adv-x="708" 
d="M428.5 20q-36.5 29 -36.5 95q0 31 9 73l37 187h-114l-76 -375h-156l75 375h-87l25 124h595l-24 -124h-81l-35 -177q-4 -15 -4 -28q0 -27 13 -39t40 -12q10 0 16 1l-26 -125q-27 -4 -56 -4q-78 0 -114.5 29z" />
    <glyph glyph-name="Wgrave" unicode="&#x1e80;" horiz-adv-x="943" 
d="M1029 706l-327 -706h-174l-12 476l-202 -476h-170l-48 706h158l24 -467l193 467h174l13 -466l201 466h170zM536 772l-92 142h150l77 -142h-135z" />
    <glyph glyph-name="wgrave" unicode="&#x1e81;" horiz-adv-x="829" 
d="M868 499l-272 -499h-153l-26 286l-134 -286h-151l-71 499h160l22 -295l147 295h130l30 -294l141 294h177zM420 570l-80 157h146l64 -157h-130z" />
    <glyph glyph-name="Wacute" unicode="&#x1e82;" horiz-adv-x="943" 
d="M1029 706l-327 -706h-174l-12 476l-202 -476h-170l-48 706h158l24 -467l193 467h174l13 -466l201 466h170zM597 914h170l-129 -142h-155z" />
    <glyph glyph-name="wacute" unicode="&#x1e83;" horiz-adv-x="829" 
d="M868 499l-272 -499h-153l-26 286l-134 -286h-151l-71 499h160l22 -295l147 295h130l30 -294l141 294h177zM484 727h160l-129 -157h-144z" />
    <glyph glyph-name="Wdieresis" unicode="&#x1e84;" horiz-adv-x="943" 
d="M1029 706l-327 -706h-174l-12 476l-202 -476h-170l-48 706h158l24 -467l193 467h174l13 -466l201 466h170zM440 780q-18 10 -28.5 27t-10.5 38q0 22 10.5 39t28.5 27t40 10t40 -10t28.5 -27t10.5 -39q0 -21 -10.5 -38t-28.5 -27t-40 -10t-40 10zM661 780q-18 10 -28 27
t-10 38q0 33 22.5 54.5t56.5 21.5q22 0 40 -10t28.5 -27t10.5 -39q0 -21 -10.5 -38t-28.5 -27t-40 -10q-23 0 -41 10z" />
    <glyph glyph-name="wdieresis" unicode="&#x1e85;" horiz-adv-x="829" 
d="M868 499l-272 -499h-153l-26 286l-134 -286h-151l-71 499h160l22 -295l147 295h130l30 -294l141 294h177zM329.5 579q-18.5 10 -29 27.5t-10.5 39.5t10.5 40t29 28.5t41.5 10.5t41.5 -10.5t29.5 -28.5t11 -40t-11 -39.5t-29.5 -27.5t-41.5 -10t-41.5 10zM538.5 579
q-18.5 10 -29 27.5t-10.5 39.5t10.5 40t29 28.5t41.5 10.5t41.5 -10.5t29.5 -28.5t11 -40t-11 -39.5t-29.5 -27.5t-41.5 -10t-41.5 10z" />
    <glyph glyph-name="Germandbls" unicode="&#x1e9e;" horiz-adv-x="684" 
d="M726 701l-176 -298q49 -22 73.5 -63t24.5 -95q0 -74 -38 -130.5t-106 -87.5t-155 -31q-49 0 -94 8l28 136q20 -4 55 -4q70 0 105.5 29t35.5 80q0 40 -29.5 63.5t-84.5 23.5q-13 0 -20 -1v3l137 233h-175l-114 -567h-166l141 706h559z" />
    <glyph glyph-name="Ygrave" unicode="&#x1ef2;" horiz-adv-x="612" 
d="M234 303l-138 403h165l83 -241l162 241h192l-298 -403l-61 -303h-166zM351 772l-92 142h150l77 -142h-135z" />
    <glyph glyph-name="ygrave" unicode="&#x1ef3;" horiz-adv-x="559" 
d="M597 499l-410 -699h-168l118 202l-76 497h158l38 -319l164 319h176zM289 570l-80 157h146l64 -157h-130z" />
    <glyph glyph-name="uni2009" unicode="&#x2009;" horiz-adv-x="74" 
 />
    <glyph glyph-name="uni2011" unicode="&#x2011;" horiz-adv-x="600" 
d="M78 360h298l-27 -132h-298z" />
    <glyph glyph-name="endash" unicode="&#x2013;" horiz-adv-x="502" 
d="M79 362h389l-26 -132h-390z" />
    <glyph glyph-name="emdash" unicode="&#x2014;" horiz-adv-x="970" 
d="M79 362h857l-26 -132h-858z" />
    <glyph glyph-name="quoteleft" unicode="&#x2018;" horiz-adv-x="303" 
d="M240 424h-169l161 282h126z" />
    <glyph glyph-name="quoteright" unicode="&#x2019;" horiz-adv-x="303" 
d="M189 706h169l-160 -282h-127z" />
    <glyph glyph-name="quotesinglbase" unicode="&#x201a;" horiz-adv-x="303" 
d="M77 146h169l-160 -282h-127z" />
    <glyph glyph-name="quotedblleft" unicode="&#x201c;" horiz-adv-x="530" 
d="M240 424h-169l161 282h126zM467 424h-169l160 282h127z" />
    <glyph glyph-name="quotedblright" unicode="&#x201d;" horiz-adv-x="530" 
d="M416 706h169l-160 -282h-127zM189 706h169l-160 -282h-127z" />
    <glyph glyph-name="quotedblbase" unicode="&#x201e;" horiz-adv-x="530" 
d="M304 146h169l-160 -282h-127zM77 146h169l-160 -282h-127z" />
    <glyph glyph-name="dagger" unicode="&#x2020;" horiz-adv-x="445" 
d="M445 414h-109l-83 -414h-161l83 414h-110l29 141h109l30 151h161l-30 -151h109z" />
    <glyph glyph-name="daggerdbl" unicode="&#x2021;" horiz-adv-x="445" 
d="M338 428l-29 -150h109l-29 -141h-109l-27 -137h-161l27 137h-109l28 141h110l29 150h-109l29 141h109l27 137h161l-27 -137h109l-29 -141h-109z" />
    <glyph glyph-name="bullet" unicode="&#x2022;" horiz-adv-x="465" 
d="M178.5 230.5q-33.5 18.5 -52 52t-18.5 77.5q0 45 18 78t51.5 50.5t78.5 17.5q43 0 76 -18t51.5 -51t18.5 -77q0 -43 -18.5 -77t-51.5 -52.5t-76 -18.5q-44 0 -77.5 18.5z" />
    <glyph glyph-name="ellipsis" unicode="&#x2026;" horiz-adv-x="901" 
d="M364.5 -5.5q-22.5 12.5 -35 34.5t-12.5 50t12.5 49.5t35 34t51.5 12.5t51 -12.5t34.5 -34t12.5 -49.5t-12.5 -50t-34.5 -34.5t-51 -12.5t-51.5 12.5zM652.5 -5.5q-22.5 12.5 -35 34.5t-12.5 50t12.5 49.5t35 34t51.5 12.5t51 -12.5t34.5 -34t12.5 -49.5t-12.5 -50
t-34.5 -34.5t-51 -12.5t-51.5 12.5zM77.5 -5.5q-22.5 12.5 -35 34.5t-12.5 50t12.5 49.5t35 34t51.5 12.5t51 -12.5t34.5 -34t12.5 -49.5t-12.5 -50t-34.5 -34.5t-51 -12.5t-51.5 12.5z" />
    <glyph glyph-name="perthousand" unicode="&#x2030;" horiz-adv-x="1148" 
d="M127.5 425q-32.5 36 -32.5 100q0 55 19.5 98t58 67.5t92.5 24.5q66 0 97.5 -36.5t31.5 -99.5q0 -55 -19 -98t-57.5 -67.5t-92.5 -24.5q-65 0 -97.5 36zM652 706h122l-605 -706h-122zM279 504.5q14 28.5 14 67.5q0 29 -8.5 42.5t-28.5 13.5q-31 0 -45.5 -28.5t-14.5 -68.5
q0 -27 9 -41t29 -14q31 0 45 28.5zM458.5 28.5q-32.5 36.5 -32.5 100.5q0 54 20 97t58.5 67.5t92.5 24.5q66 0 97.5 -36.5t31.5 -98.5q0 -55 -19.5 -98t-57.5 -68t-92 -25q-66 0 -98.5 36.5zM827.5 28.5q-32.5 36.5 -32.5 100.5q0 54 20 97t58 67.5t92 24.5q66 0 98 -36.5
t32 -98.5q0 -55 -19.5 -98t-57.5 -68t-92 -25q-66 0 -98.5 36.5zM611 108q14 28 14 68q0 28 -8.5 42t-28.5 14q-30 0 -45 -29t-15 -68q0 -28 9 -41.5t29 -13.5q31 0 45 28zM979.5 108q14.5 28 14.5 68q0 56 -37 56q-31 0 -46 -29t-15 -68q0 -28 9 -41.5t29 -13.5
q31 0 45.5 28z" />
    <glyph glyph-name="guilsinglleft" unicode="&#x2039;" horiz-adv-x="343" 
d="M30 294l171 160h169l-182 -169l108 -161h-153z" />
    <glyph glyph-name="guilsinglright" unicode="&#x203a;" horiz-adv-x="343" 
d="M328 284l-171 -160h-169l182 170l-108 160h153z" />
    <glyph glyph-name="fraction" unicode="&#x2044;" horiz-adv-x="226" 
d="M352 706h111l-549 -706h-110z" />
    <glyph glyph-name="zero.superior" unicode="&#x2070;" horiz-adv-x="441" 
d="M154.5 470q-39.5 43 -39.5 119q0 31 7 69q17 83 66 131t131 48t121.5 -43t39.5 -119q0 -30 -7 -69q-15 -82 -64.5 -130.5t-131.5 -48.5q-83 0 -122.5 43zM323 556q15 23 24 62q6 30 6 56q0 30 -8.5 43.5t-30.5 13.5q-48 0 -65 -85q-6 -30 -6 -56q0 -30 8.5 -43.5
t30.5 -13.5q26 0 41 23z" />
    <glyph glyph-name="four.superior" unicode="&#x2074;" horiz-adv-x="430" 
d="M291 507h-236v2l200 317h218l-44 -218h58l-19 -101h-59l-14 -69h-118zM311 608l36 179l-102 -179h66z" />
    <glyph glyph-name="five.superior" unicode="&#x2075;" horiz-adv-x="394" 
d="M129 459.5q-40 32.5 -40 92.5q0 12 2 26l118 -1l-1 -14q0 -43 46 -43q24 0 37.5 13t13.5 33q0 30 -27.5 43.5t-82.5 13.5q-41 0 -78 -5l80 208h267l-34 -89h-152l-17 -45q15 3 35 3q69 0 102.5 -32.5t33.5 -88.5q0 -46 -23 -79t-64.5 -50.5t-96.5 -17.5q-79 0 -119 32.5z
" />
    <glyph glyph-name="six.superior" unicode="&#x2076;" horiz-adv-x="431" 
d="M432.5 661q32.5 -31 32.5 -83q0 -45 -24.5 -79.5t-67 -53t-94.5 -18.5q-90 0 -130 41.5t-40 117.5q0 72 26.5 129t77 89.5t119.5 32.5q50 0 84.5 -16t51 -44t17.5 -63h-115q-3 17 -13.5 25.5t-33.5 8.5q-33 0 -54 -23.5t-30 -62.5q41 30 99 30q62 0 94.5 -31zM319.5 532
q14.5 15 14.5 37q0 39 -44 39q-25 0 -40 -15t-15 -37q0 -19 11 -29t33 -10q26 0 40.5 15z" />
    <glyph glyph-name="seven.superior" unicode="&#x2077;" horiz-adv-x="378" 
d="M263 718h-146l21 108h343l-248 -388h-148z" />
    <glyph glyph-name="eight.superior" unicode="&#x2078;" horiz-adv-x="396" 
d="M449 692q-11 -20 -30.5 -33t-44.5 -17q28 -10 42 -32t14 -53q0 -42 -23 -71.5t-63 -44t-90 -14.5q-80 0 -124 30.5t-44 88.5q0 43 26 71.5t73 32.5q-27 11 -40.5 31.5t-13.5 47.5q0 32 21.5 56.5t59 38t84.5 13.5q50 0 87 -12.5t57 -35.5t20 -55q0 -22 -11 -42zM260 749
q-12 -12 -12 -33q0 -15 10 -23.5t32 -8.5q23 0 35.5 12t12.5 31q0 18 -11 26t-32 8q-23 0 -35 -12zM295.5 527q14.5 13 14.5 36q0 17 -12 26.5t-35 9.5q-24 0 -38 -12.5t-14 -35.5q0 -18 11.5 -27.5t33.5 -9.5q25 0 39.5 13z" />
    <glyph glyph-name="nine.superior" unicode="&#x2079;" horiz-adv-x="431" 
d="M458 795.5q40 -41.5 40 -117.5q0 -72 -26.5 -129t-77 -89.5t-119.5 -32.5q-50 0 -84 16t-50.5 44t-17.5 63h114q3 -17 13.5 -25.5t34.5 -8.5q33 0 54 24t30 63q-40 -31 -99 -31q-62 0 -94.5 31t-32.5 83q0 45 24.5 79.5t66.5 53t94 18.5q90 0 130 -41.5zM357.5 671
q14.5 15 14.5 37q0 19 -11 29t-33 10q-25 0 -40 -15t-15 -37q0 -39 45 -39q25 0 39.5 15z" />
    <glyph glyph-name="uni207A" unicode="&#x207a;" horiz-adv-x="361" 
d="M395 590h-104l-19 -95h-86l19 95h-103l18 86h103l19 95h86l-19 -95h103z" />
    <glyph glyph-name="uni207B" unicode="&#x207b;" horiz-adv-x="361" 
d="M120 676h292l-17 -86h-293z" />
    <glyph glyph-name="uni207C" unicode="&#x207c;" horiz-adv-x="359" 
d="M130 725h290l-15 -73h-290zM108 616h290l-16 -75h-290z" />
    <glyph glyph-name="uni207D" unicode="&#x207d;" horiz-adv-x="270" 
d="M144 458q-9 48 -9 101q0 98 34 181.5t101 166.5h108q-74 -88 -112.5 -175.5t-38.5 -186.5q0 -93 32 -187h-88q-18 52 -27 100z" />
    <glyph glyph-name="uni207E" unicode="&#x207e;" horiz-adv-x="270" 
d="M279.5 805.5q9.5 -47.5 9.5 -99.5q0 -98 -34.5 -181t-101.5 -167h-107q73 88 111.5 176t38.5 186q0 93 -32 187h88q18 -54 27.5 -101.5z" />
    <glyph glyph-name="n.superior" unicode="&#x207f;" horiz-adv-x="402" 
d="M411.5 726.5q23.5 -25.5 23.5 -72.5q0 -16 -4 -36l-35 -180h-117l33 163q2 12 2 17q0 18 -8 26t-26 8q-17 0 -27.5 -9t-14.5 -31l-35 -174h-118l61 305h113l-6 -30q20 19 42 29t49 10q44 0 67.5 -25.5z" />
    <glyph glyph-name="zero.inferior" unicode="&#x2080;" horiz-adv-x="441" 
d="M42.5 -88q-39.5 43 -39.5 119q0 31 7 69q17 83 66 131t131 48t121.5 -43t39.5 -119q0 -30 -7 -69q-15 -82 -64.5 -130.5t-131.5 -48.5q-83 0 -122.5 43zM211 -2q15 23 24 62q6 30 6 56q0 30 -8.5 43.5t-30.5 13.5q-48 0 -65 -85q-6 -30 -6 -56q0 -30 8.5 -43.5
t30.5 -13.5q26 0 41 23z" />
    <glyph glyph-name="one.inferior" unicode="&#x2081;" horiz-adv-x="291" 
d="M73 158h-69l42 110h175l-78 -388h-125z" />
    <glyph glyph-name="two.inferior" unicode="&#x2082;" horiz-adv-x="388" 
d="M-58 -114l218 191q33 29 45.5 44.5t12.5 30.5t-11 23.5t-29 8.5q-24 0 -36.5 -14.5t-16.5 -34.5h-120q12 66 57 105t120 39q77 0 116.5 -29.5t39.5 -84.5q0 -31 -13.5 -56.5t-41.5 -48.5q-42 -35 -90 -72h117l-22 -108h-347z" />
    <glyph glyph-name="three.inferior" unicode="&#x2083;" horiz-adv-x="377" 
d="M285.5 47.5q13.5 -18.5 13.5 -48.5q0 -42 -22.5 -71t-63 -44t-93.5 -15q-151 0 -151 122q0 16 3 35l110 -1q-3 -9 -3 -18q0 -45 45 -45q25 0 39 12.5t14 33.5q0 18 -11.5 25.5t-33.5 7.5h-17l15 75h17q27 0 41 9.5t14 28.5q0 14 -10 23t-29 9q-42 0 -50 -47h-113
q14 68 59.5 104t120.5 36q69 0 106.5 -28.5t37.5 -78.5q0 -35 -21 -59.5t-59 -37.5q28 -9 41.5 -27.5z" />
    <glyph glyph-name="four.inferior" unicode="&#x2084;" horiz-adv-x="430" 
d="M179 -51h-236v2l200 317h218l-44 -218h58l-19 -101h-59l-14 -69h-118zM199 50l36 179l-102 -179h66z" />
    <glyph glyph-name="five.inferior" unicode="&#x2085;" horiz-adv-x="394" 
d="M17 -98.5q-40 32.5 -40 92.5q0 12 2 26l118 -1l-1 -14q0 -43 46 -43q24 0 37.5 13t13.5 33q0 30 -27.5 43.5t-82.5 13.5q-41 0 -78 -5l80 208h267l-34 -89h-152l-17 -45q15 3 35 3q69 0 102.5 -32.5t33.5 -88.5q0 -46 -23 -79t-64.5 -50.5t-96.5 -17.5q-79 0 -119 32.5z
" />
    <glyph glyph-name="six.inferior" unicode="&#x2086;" horiz-adv-x="431" 
d="M320.5 103q32.5 -31 32.5 -83q0 -45 -24.5 -79.5t-67 -53t-94.5 -18.5q-90 0 -130 41.5t-40 117.5q0 72 26.5 129t77 89.5t119.5 32.5q50 0 84.5 -16t51 -44t17.5 -63h-115q-3 17 -13.5 25.5t-33.5 8.5q-33 0 -54 -23.5t-30 -62.5q41 30 99 30q62 0 94.5 -31zM207.5 -26
q14.5 15 14.5 37q0 39 -44 39q-25 0 -40 -15t-15 -37q0 -19 11 -29t33 -10q26 0 40.5 15z" />
    <glyph glyph-name="seven.inferior" unicode="&#x2087;" horiz-adv-x="378" 
d="M151 160h-146l21 108h343l-248 -388h-148z" />
    <glyph glyph-name="eight.inferior" unicode="&#x2088;" horiz-adv-x="396" 
d="M337 134q-11 -20 -30.5 -33t-44.5 -17q28 -10 42 -32t14 -53q0 -42 -23 -71.5t-63 -44t-90 -14.5q-80 0 -124 30.5t-44 88.5q0 43 26 71.5t73 32.5q-27 11 -40.5 31.5t-13.5 47.5q0 32 21.5 56.5t59 38t84.5 13.5q50 0 87 -12.5t57 -35.5t20 -55q0 -22 -11 -42zM148 191
q-12 -12 -12 -33q0 -15 10 -23.5t32 -8.5q23 0 35.5 12t12.5 31q0 18 -11 26t-32 8q-23 0 -35 -12zM183.5 -31q14.5 13 14.5 36q0 17 -12 26.5t-35 9.5q-24 0 -38 -12.5t-14 -35.5q0 -18 11.5 -27.5t33.5 -9.5q25 0 39.5 13z" />
    <glyph glyph-name="nine.inferior" unicode="&#x2089;" horiz-adv-x="431" 
d="M346 237.5q40 -41.5 40 -117.5q0 -72 -26.5 -129t-77 -89.5t-119.5 -32.5q-50 0 -84 16t-50.5 44t-17.5 63h114q3 -17 13.5 -25.5t34.5 -8.5q33 0 54 24t30 63q-40 -31 -99 -31q-62 0 -94.5 31t-32.5 83q0 45 24.5 79.5t66.5 53t94 18.5q90 0 130 -41.5zM245.5 113
q14.5 15 14.5 37q0 19 -11 29t-33 10q-25 0 -40 -15t-15 -37q0 -39 45 -39q25 0 39.5 15z" />
    <glyph glyph-name="uni208A" unicode="&#x208a;" horiz-adv-x="360" 
d="M283 32h-104l-19 -95h-86l19 95h-103l18 86h103l19 95h86l-19 -95h103z" />
    <glyph glyph-name="uni208B" unicode="&#x208b;" horiz-adv-x="360" 
d="M8 118h292l-17 -86h-293z" />
    <glyph glyph-name="uni208C" unicode="&#x208c;" horiz-adv-x="358" 
d="M18 167h290l-15 -73h-290zM-4 58h290l-16 -75h-290z" />
    <glyph glyph-name="uni208D" unicode="&#x208d;" horiz-adv-x="269" 
d="M32 -100q-9 48 -9 101q0 98 34 181.5t101 166.5h108q-74 -88 -112.5 -175.5t-38.5 -186.5q0 -93 32 -187h-88q-18 52 -27 100z" />
    <glyph glyph-name="uni208E" unicode="&#x208e;" horiz-adv-x="270" 
d="M167.5 247.5q9.5 -47.5 9.5 -99.5q0 -98 -34.5 -181t-101.5 -167h-107q73 88 111.5 176t38.5 186q0 93 -32 187h88q18 -54 27.5 -101.5z" />
    <glyph glyph-name="uni2099" unicode="&#x2099;" horiz-adv-x="402" 
d="M292.5 131.5q23.5 -25.5 23.5 -72.5q0 -16 -4 -36l-35 -180h-117l33 163q2 12 2 17q0 18 -8 26t-26 8q-17 0 -27.5 -9t-14.5 -31l-35 -174h-118l61 305h113l-6 -30q20 19 42 29t49 10q44 0 67.5 -25.5z" />
    <glyph glyph-name="Euro" unicode="&#x20ac;" horiz-adv-x="757" 
d="M582 438l1 16q0 61 -30 94.5t-87 33.5q-55 0 -96 -32.5t-67 -88.5h199l-14 -73h-208q-7 -28 -10 -64h205l-15 -72h-191q6 -60 37.5 -93.5t87.5 -33.5q60 0 94 32.5t50 94.5h182q-16 -81 -62.5 -142t-116.5 -94.5t-154 -33.5q-145 0 -215 72.5t-76 197.5h-62l15 72h48
q3 32 9 64h-44l14 73h50q28 78 79.5 137.5t122 92.5t155.5 33q83 0 144.5 -30.5t94.5 -87t33 -132.5q0 -16 -3 -36h-170z" />
    <glyph glyph-name="uni20B9" unicode="&#x20b9;" horiz-adv-x="680" 
d="M546 628q40 -43 46 -119h123l-16 -79h-110q-14 -80 -73.5 -127.5t-157.5 -51.5l178 -251h-181l-237 348h188q49 0 79 21.5t42 60.5h-329l16 79h319q-5 37 -27 56.5t-66 19.5h-211l24 121h601l-16 -78h-192z" />
    <glyph glyph-name="uni20BA" unicode="&#x20ba;" horiz-adv-x="620" 
d="M611 308q-21 -105 -58.5 -171.5t-104 -101.5t-172.5 -35h-221l49 244l-78 -32l18 89l78 33l16 80l-78 -33l18 89l77 33l41 203h164l-27 -138l185 78l-17 -88l-186 -78l-16 -80l186 78l-18 -90l-186 -78l-34 -172h29q79 0 121.5 45t58.5 125h155z" />
    <glyph glyph-name="uni20BC" unicode="&#x20bc;" horiz-adv-x="838" 
d="M734 540.5q49 -55.5 49 -143.5q0 -38 -9 -82l-63 -315h-156l69 347q3 15 3 31q0 38 -18 66t-55 34l-95 -478h-167l96 479q-49 -1 -80 -30t-42 -87l-71 -362h-166l74 385q21 107 100.5 165.5t210.5 58.5l19 97h167l-20 -99q105 -11 154 -66.5z" />
    <glyph glyph-name="uni2113" unicode="&#x2113;" horiz-adv-x="506" 
d="M487 675q41 -40 41 -125q0 -44 -10 -92q-23 -113 -96.5 -176.5t-200.5 -88.5q1 -41 25 -58t75 -17q46 0 94 15l-25 -129q-51 -13 -111 -13q-109 0 -164.5 46.5t-55.5 139.5q-17 -1 -52 -1l22 111q32 0 46 1l41 201q16 80 46.5 129.5t77.5 73t115 23.5q91 0 132 -40z
M368 507q3 24 3 42q0 32 -8 44.5t-25 12.5q-21 0 -34.5 -17.5t-22.5 -62.5l-42 -213q51 20 80.5 55.5t41.5 94.5q4 20 7 44z" />
    <glyph glyph-name="uni2117" unicode="&#x2117;" horiz-adv-x="808" 
d="M211.5 26q-73.5 44 -110.5 119t-37 168q0 112 51 206t141 149.5t202 55.5q106 0 180 -42t111.5 -115t37.5 -165q0 -115 -51 -211t-141 -152.5t-203 -56.5q-107 0 -180.5 44zM561.5 94.5q73.5 48.5 114 130.5t40.5 179q0 75 -29 132.5t-87 90.5t-142 33q-95 0 -169 -47
t-115 -126.5t-41 -174.5q0 -76 29.5 -136t88 -95t142.5 -35q95 0 168.5 48.5zM315 587h185q65 0 101.5 -33.5t36.5 -100.5q0 -49 -20 -86t-57.5 -58t-88.5 -21h-87l-34 -167h-130zM448 385q29 0 43 17t14 44q0 25 -12.5 34t-33.5 9h-34l-21 -104h44z" />
    <glyph glyph-name="trademark" unicode="&#x2122;" horiz-adv-x="694" 
d="M146 622h-63l17 84h225l-16 -84h-62l-45 -226h-101zM358 706h113l38 -171l107 171h123l-62 -310h-96l35 171l-108 -171h-43l-40 171l-34 -171h-95z" />
    <glyph glyph-name="Omega" unicode="&#x2126;" horiz-adv-x="726" 
d="M35 123h138l12 62q-54 31 -79.5 85.5t-25.5 127.5q0 99 43.5 172.5t122.5 113.5t183 40q148 0 220 -66.5t72 -186.5q0 -71 -25 -131.5t-72 -104.5t-112 -67l-9 -45h139l-25 -123h-265l53 268q46 6 80 36t52 74.5t18 92.5q0 60 -32 93.5t-100 33.5q-55 0 -95 -26
t-60.5 -71.5t-20.5 -102.5q0 -52 20 -85t63 -45l-54 -268h-265z" />
    <glyph glyph-name="estimated" unicode="&#x212e;" horiz-adv-x="858" 
d="M248 32.5q-87 43.5 -139.5 121.5t-52.5 176q0 96 51 174t138 122.5t190 44.5q102 0 188.5 -45t138 -124.5t51.5 -177.5h-608q-6 0 -8 -2.5t-2 -8.5v-197q47 -51 110 -78.5t130 -27.5q73 0 139 32.5t113 88.5h57q-56 -68 -138 -105t-171 -37q-100 0 -187 43.5zM666 347
q5 0 7 2.5t2 8.5v184q-44 51 -108 79.5t-132 28.5q-70 0 -133 -28.5t-107 -78.5v-185q0 -6 2 -8.5t8 -2.5h461z" />
    <glyph glyph-name="partialdiff" unicode="&#x2202;" horiz-adv-x="631" 
d="M573 649.5q61 -74.5 61 -205.5q0 -126 -44 -231.5t-126.5 -168t-191.5 -62.5q-85 0 -142 27.5t-84.5 76.5t-27.5 115q0 76 32 136.5t90.5 95t134.5 34.5q73 0 119.5 -27t66.5 -75q9 42 9 81q0 151 -106 151q-40 0 -68.5 -21.5t-41.5 -57.5h-160q21 64 61.5 110.5t96.5 71
t124 24.5q136 0 197 -74.5zM352 132q29 18 45 48t16 65q0 49 -24 77t-72 28q-39 0 -68 -18.5t-44.5 -50t-15.5 -68.5q0 -46 23.5 -72.5t71.5 -26.5q39 0 68 18z" />
    <glyph glyph-name="Delta" unicode="&#x2206;" horiz-adv-x="699" 
d="M644 0h-689l360 706h251zM469 129l-42 453h-2l-223 -453h267z" />
    <glyph glyph-name="product" unicode="&#x220f;" horiz-adv-x="742" 
d="M168 706h588l-181 -907h-167l154 769h-255l-154 -769h-166z" />
    <glyph glyph-name="summation" unicode="&#x2211;" horiz-adv-x="620" 
d="M263 272l-134 434h481l-27 -137h-234l91 -317l-206 -315h241l-27 -137h-506z" />
    <glyph glyph-name="minus" unicode="&#x2212;" horiz-adv-x="593" 
d="M77 355h481l-24 -122h-482z" />
    <glyph glyph-name="uni2215" unicode="&#x2215;" horiz-adv-x="593" 
d="M506 706h152l-425 -706h-152z" />
    <glyph glyph-name="uni2219" unicode="&#x2219;" horiz-adv-x="593" 
d="M269.5 284.5q-22.5 12.5 -35 34.5t-12.5 50t12.5 49.5t35 34t51.5 12.5t51 -12.5t34.5 -34t12.5 -49.5t-12.5 -50t-34.5 -34.5t-51 -12.5t-51.5 12.5z" />
    <glyph glyph-name="radical" unicode="&#x221a;" horiz-adv-x="741" 
d="M827 706l-475 -908h-175l-74 432l-103 -29l31 156l215 53l51 -403l347 699h183z" />
    <glyph glyph-name="infinity" unicode="&#x221e;" horiz-adv-x="830" 
d="M720 441.5q38 -24.5 56.5 -67t18.5 -97.5q0 -65 -29 -121t-81 -89.5t-117 -33.5q-61 0 -100.5 28t-66.5 77q-43 -49 -90 -77t-105 -28t-96.5 24.5t-56.5 67t-18 97.5q0 64 29.5 120.5t81 90t116.5 33.5q62 0 101.5 -27.5t68.5 -76.5q43 49 89 76.5t103 27.5
q58 0 96 -24.5zM289.5 192q26.5 22 56.5 63q-17 37 -35.5 55t-47.5 18q-25 0 -43.5 -13.5t-28 -35t-9.5 -44.5q0 -30 13.5 -47.5t38.5 -17.5q29 0 55.5 22zM611.5 184q17.5 14 27 36t9.5 44q0 29 -12.5 46.5t-39.5 17.5q-28 0 -54 -21.5t-54 -61.5q17 -37 35.5 -56t47.5 -19
q23 0 40.5 14z" />
    <glyph glyph-name="integral" unicode="&#x222b;" horiz-adv-x="399" 
d="M-90 -199l51 131q9 -1 22 -1q58 0 73 56l157 566q23 81 71 120t130 39q39 0 76 -8l-54 -135q-6 2 -15 2q-22 0 -37.5 -13.5t-22.5 -40.5l-158 -566q-23 -82 -70.5 -120t-130.5 -38q-53 0 -92 8z" />
    <glyph glyph-name="approxequal" unicode="&#x2248;" horiz-adv-x="593" 
d="M361 317q-19 7 -33 15t-18 10q-19 11 -31.5 16.5t-27.5 5.5q-20 0 -32 -13t-20 -39h-108q21 82 58 124t95 42q20 0 36.5 -4.5t31.5 -12t28 -15.5q18 -11 30.5 -16t27.5 -5q20 0 32.5 12.5t18.5 37.5h110q-22 -83 -59 -124t-95 -41q-25 0 -44 7zM329.5 115
q-16.5 5 -32 12.5t-27.5 14.5q-20 11 -32 16t-27 5q-19 0 -31.5 -13t-20.5 -38h-108q21 81 58.5 123t95.5 42q28 0 49 -8t47 -23q20 -12 31.5 -17t25.5 -5q39 0 51 51h110q-22 -83 -58.5 -124t-95.5 -41q-19 0 -35.5 5z" />
    <glyph glyph-name="notequal" unicode="&#x2260;" horiz-adv-x="593" 
d="M396 333l-67 -78h209l-24 -122h-276l-87 -102h-91l86 102h-114l25 122h180l67 78h-232l25 122h299l86 102h92l-86 -102h90l-24 -122h-158z" />
    <glyph glyph-name="lessequal" unicode="&#x2264;" horiz-adv-x="593" 
d="M573 430l-402 -64l377 -64l-26 -125l-462 94l20 95l18 95l501 95zM37 156h481l-24 -124h-481z" />
    <glyph glyph-name="greaterequal" unicode="&#x2265;" horiz-adv-x="593" 
d="M560 366l-18 -95l-500 -94l24 125l403 64l-377 64l25 126l463 -95zM37 156h482l-26 -124h-481z" />
    <glyph glyph-name="lozenge" unicode="&#x25ca;" horiz-adv-x="574" 
d="M555 253l-267 -454h-181l-86 454l267 453h181zM401 280l-44 269l-180 -323l42 -271z" />
    <glyph glyph-name="ff" unicode="&#xfb00;" horiz-adv-x="718" 
d="M99 375h-57l24 124h58l13 68q16 81 65 118.5t137 37.5q49 0 92 -10l-26 -125q-21 7 -43 7q-31 0 -50 -16.5t-25 -48.5l-6 -31h104l-25 -124h-104l-75 -375h-157zM463 375h-57l24 124h58l13 68q16 81 65 118.5t137 37.5q49 0 92 -10l-26 -125q-21 7 -43 7q-31 0 -50 -16.5
t-25 -48.5l-6 -31h104l-25 -124h-104l-75 -375h-157z" />
    <glyph glyph-name="fi" unicode="&#xfb01;" horiz-adv-x="638" 
d="M99 375h-57l24 124h58l13 68q16 81 65 118.5t137 37.5q49 0 92 -10l-26 -125q-21 7 -43 7q-31 0 -50 -16.5t-25 -48.5l-6 -31h104l-25 -124h-104l-75 -375h-157zM533.5 581q-19.5 11 -31 29.5t-11.5 41.5t11.5 42t31 30t43.5 11t43.5 -11t31 -30t11.5 -42t-11.5 -41.5
t-31 -29.5t-43.5 -11t-43.5 11zM467 499h157l-100 -499h-156z" />
    <glyph glyph-name="fl" unicode="&#xfb02;" horiz-adv-x="638" 
d="M99 375h-57l24 124h58l13 68q16 81 65 118.5t137 37.5q49 0 92 -10l-26 -125q-21 7 -43 7q-31 0 -50 -16.5t-25 -48.5l-6 -31h104l-25 -124h-104l-75 -375h-157zM509 706h156l-141 -706h-156z" />
    <glyph glyph-name="ffi" unicode="&#xfb03;" horiz-adv-x="1001" 
d="M99 375h-57l24 124h58l13 68q16 81 65 118.5t137 37.5q49 0 92 -10l-26 -125q-21 7 -43 7q-31 0 -50 -16.5t-25 -48.5l-6 -31h104l-25 -124h-104l-75 -375h-157zM463 375h-57l24 124h58l13 68q16 81 65 118.5t137 37.5q49 0 92 -10l-26 -125q-21 7 -43 7q-31 0 -50 -16.5
t-25 -48.5l-6 -31h104l-25 -124h-104l-75 -375h-157zM897.5 581q-19.5 11 -31 29.5t-11.5 41.5t11.5 42t31 30t43.5 11t43.5 -11t31 -30t11.5 -42t-11.5 -41.5t-31 -29.5t-43.5 -11t-43.5 11zM831 499h157l-100 -499h-156z" />
    <glyph glyph-name="ffl" unicode="&#xfb04;" horiz-adv-x="1001" 
d="M99 375h-57l24 124h58l13 68q16 81 65 118.5t137 37.5q49 0 92 -10l-26 -125q-21 7 -43 7q-31 0 -50 -16.5t-25 -48.5l-6 -31h104l-25 -124h-104l-75 -375h-157zM463 375h-57l24 124h58l13 68q16 81 65 118.5t137 37.5q49 0 92 -10l-26 -125q-21 7 -43 7q-31 0 -50 -16.5
t-25 -48.5l-6 -31h104l-25 -124h-104l-75 -375h-157zM873 706h156l-141 -706h-156z" />
    <glyph glyph-name="uniFEFF" unicode="&#xfeff;" 
 />
    <glyph glyph-name="uni00A40301" horiz-adv-x="384" 
d="M-34 2l30 149q14 -3 37 -3q39 0 63 10.5t38.5 34.5t22.5 67l90 446h166l-97 -488q-23 -113 -90 -167t-190 -54q-40 0 -70 5zM364 914h170l-129 -142h-155z" />
    <glyph glyph-name="M.ss01" horiz-adv-x="860" 
d="M168 706h191l99 -260l199 260h218l-141 -706h-162l101 506l-209 -271h-71l-104 271l-101 -506h-161z" />
    <glyph glyph-name="Q.ss02" horiz-adv-x="752" 
d="M707.5 256.5q-26.5 -83.5 -77.5 -146.5t-122 -96l42 -122l-153 -51l-41 141q-154 1 -225.5 78t-71.5 212q0 123 45.5 226.5t131 164.5t200.5 61q153 0 225.5 -78.5t72.5 -211.5q0 -94 -26.5 -177.5zM470 168.5q46 44.5 69 114.5t23 144q0 73 -30 114t-99 41
q-65 0 -111 -44t-68.5 -113.5t-22.5 -144.5q0 -71 31.5 -113.5t97.5 -42.5q64 0 110 44.5z" />
    <glyph glyph-name="Oslash.ss04" horiz-adv-x="752" 
d="M705 581q29 -62 29 -147q0 -124 -45 -227t-130.5 -164t-201.5 -61q-109 0 -180 41l-109 -113l-100 96l119 118q-28 62 -28 148q0 123 45.5 226.5t131 164.5t200.5 61q108 0 180 -42l108 113l100 -96zM470 168.5q46 44.5 69 114.5t23 144q0 73 -30 114t-99 41
q-65 0 -111 -44t-68.5 -113.5t-22.5 -144.5q0 -71 31.5 -113.5t97.5 -42.5q64 0 110 44.5z" />
    <glyph glyph-name="i.loclTRK" horiz-adv-x="284" 
d="M113 499h157l-100 -499h-156zM179.5 581q-19.5 11 -30.5 29.5t-11 41.5t11 42t30.5 30t44.5 11q24 0 43.5 -11t30.5 -30t11 -42t-11 -41.5t-30.5 -29.5t-43.5 -11q-25 0 -44.5 11z" />
    <glyph glyph-name="uni006A0301" horiz-adv-x="284" 
d="M-106 -199l27 134q10 -2 27 -2q28 0 43 13t20 42l102 511h157l-110 -549q-16 -81 -61.5 -117.5t-128.5 -36.5q-36 0 -76 5zM214 727h163l-114 -157h-142z" />
    <glyph glyph-name="oslash.ss04" horiz-adv-x="588" 
d="M526 414q28 -52 28 -119q0 -90 -35.5 -159.5t-102.5 -109t-158 -39.5q-56 0 -99 17l-71 -86l-100 83l76 85q-29 52 -29 123q0 88 35.5 157t102 108t157.5 39q57 0 100 -17l70 84l100 -82zM340 143q26 24 38.5 63t12.5 84q0 43 -18 67.5t-60 24.5q-38 0 -63.5 -24
t-38.5 -62.5t-13 -81.5q0 -46 18 -70.5t59 -24.5q39 0 65 24z" />
    <glyph glyph-name="f_i" horiz-adv-x="638" 
d="M99 375h-57l24 124h58l13 68q16 81 65 118.5t137 37.5q49 0 92 -10l-26 -125q-21 7 -43 7q-31 0 -50 -16.5t-25 -48.5l-6 -31h104l-25 -124h-104l-75 -375h-157zM533.5 581q-19.5 11 -31 29.5t-11.5 41.5t11.5 42t31 30t43.5 11t43.5 -11t31 -30t11.5 -42t-11.5 -41.5
t-31 -29.5t-43.5 -11t-43.5 11zM467 499h157l-100 -499h-156z" />
    <glyph glyph-name="f_l" horiz-adv-x="638" 
d="M99 375h-57l24 124h58l13 68q16 81 65 118.5t137 37.5q49 0 92 -10l-26 -125q-21 7 -43 7q-31 0 -50 -16.5t-25 -48.5l-6 -31h104l-25 -124h-104l-75 -375h-157zM509 706h156l-141 -706h-156z" />
    <glyph glyph-name="a.sc" horiz-adv-x="623" 
d="M399 101h-219l-50 -101h-175l303 590h243l67 -590h-159zM388 224l-24 245h-2l-121 -245h147z" />
    <glyph glyph-name="aacute.sc" horiz-adv-x="623" 
d="M399 101h-219l-50 -101h-175l303 590h243l67 -590h-159zM388 224l-24 245h-2l-121 -245h147zM417 817h160l-129 -157h-144z" />
    <glyph glyph-name="abreve.sc" horiz-adv-x="623" 
d="M399 101h-219l-50 -101h-175l303 590h243l67 -590h-159zM388 224l-24 245h-2l-121 -245h147zM283 688.5q-40 36.5 -40 106.5q0 15 1 23h108q-1 -7 -1 -21q0 -30 13.5 -43.5t42.5 -13.5q33 0 53.5 18t33.5 60h113q-19 -81 -70.5 -123.5t-133.5 -42.5q-80 0 -120 36.5z" />
    <glyph glyph-name="acircumflex.sc" horiz-adv-x="623" 
d="M399 101h-219l-50 -101h-175l303 590h243l67 -590h-159zM388 224l-24 245h-2l-121 -245h147zM335 818h178l67 -158h-133l-36 88l-69 -88h-139z" />
    <glyph glyph-name="adieresis.sc" horiz-adv-x="623" 
d="M399 101h-219l-50 -101h-175l303 590h243l67 -590h-159zM388 224l-24 245h-2l-121 -245h147zM262.5 669q-18.5 10 -29 27.5t-10.5 39.5t10.5 40t29 28.5t41.5 10.5t41.5 -10.5t29.5 -28.5t11 -40t-11 -39.5t-29.5 -27.5t-41.5 -10t-41.5 10zM471.5 669q-18.5 10 -29 27.5
t-10.5 39.5t10.5 40t29 28.5t41.5 10.5t41.5 -10.5t29.5 -28.5t11 -40t-11 -39.5t-29.5 -27.5t-41.5 -10t-41.5 10z" />
    <glyph glyph-name="agrave.sc" horiz-adv-x="623" 
d="M399 101h-219l-50 -101h-175l303 590h243l67 -590h-159zM388 224l-24 245h-2l-121 -245h147zM353 660l-80 157h146l64 -157h-130z" />
    <glyph glyph-name="amacron.sc" horiz-adv-x="623" 
d="M399 101h-219l-50 -101h-175l303 590h243l67 -590h-159zM388 224l-24 245h-2l-121 -245h147zM266 785h305l-20 -99h-305z" />
    <glyph glyph-name="aogonek.sc" horiz-adv-x="623" 
d="M485 -114.5q10 -7.5 26 -7.5q21 0 35 5l-18 -88q-34 -9 -70 -9q-53 0 -82.5 22.5t-29.5 64.5q0 43 30 73.5t80 53.5h-47l-10 101h-219l-50 -101h-175l303 590h243l67 -590q-42 -25 -67.5 -47t-25.5 -46q0 -14 10 -21.5zM388 224l-24 245h-2l-121 -245h147z" />
    <glyph glyph-name="aring.sc" horiz-adv-x="623" 
d="M399 101h-219l-50 -101h-175l303 590h243l67 -590h-159zM388 224l-24 245h-2l-121 -245h147zM332 654.5q-31 15.5 -47.5 44t-16.5 64.5q0 37 16.5 65t47 43.5t71.5 15.5t72 -15.5t48 -43.5t17 -65q0 -36 -17 -64.5t-48.5 -44t-71.5 -15.5t-71 15.5zM439.5 729
q13.5 13 13.5 34q0 22 -13.5 35.5t-36.5 13.5q-22 0 -35.5 -13.5t-13.5 -35.5q0 -21 13.5 -34t35.5 -13q23 0 36.5 13z" />
    <glyph glyph-name="aringacute.sc" horiz-adv-x="623" 
d="M399 101h-219l-50 -101h-175l303 590h243l67 -590h-159zM388 224l-24 245h-2l-121 -245h147zM332 654.5q-31 15.5 -47.5 44t-16.5 64.5q0 37 16.5 65t47 43.5t71.5 15.5t72 -15.5t48 -43.5t17 -65q0 -36 -17 -64.5t-48.5 -44t-71.5 -15.5t-71 15.5zM439.5 729
q13.5 13 13.5 34q0 22 -13.5 35.5t-36.5 13.5q-22 0 -35.5 -13.5t-13.5 -35.5q0 -21 13.5 -34t35.5 -13q23 0 36.5 13zM476 1114h160l-129 -157h-144z" />
    <glyph glyph-name="atilde.sc" horiz-adv-x="623" 
d="M399 101h-219l-50 -101h-175l303 590h243l67 -590h-159zM388 224l-24 245h-2l-121 -245h147zM398 686q-5 3 -16.5 11.5t-20.5 12.5t-17 4q-16 0 -26 -13t-16 -40h-93q17 80 49.5 119.5t83.5 39.5q23 0 40.5 -7.5t35.5 -21.5q20 -14 31 -20t23 -6q17 0 27 12.5t17 40.5h93
q-17 -80 -49.5 -119.5t-84.5 -39.5q-43 0 -77 27z" />
    <glyph glyph-name="ae.sc" horiz-adv-x="753" 
d="M529 457l-7 -92h196l-26 -133h-181l-7 -100h171l-27 -132h-318l9 103h-154l-53 -103h-177l324 590h487l-26 -133h-211zM350 225l22 236h-2l-122 -236h102z" />
    <glyph glyph-name="aeacute.sc" horiz-adv-x="753" 
d="M529 457l-7 -92h196l-26 -133h-181l-7 -100h171l-27 -132h-318l9 103h-154l-53 -103h-177l324 590h487l-26 -133h-211zM350 225l22 236h-2l-122 -236h102zM517 817h160l-129 -157h-144z" />
    <glyph glyph-name="b.sc" horiz-adv-x="579" 
d="M510.5 262q21.5 -28 21.5 -75q0 -62 -31 -104t-84.5 -62.5t-123.5 -20.5h-266l118 590h243q89 0 133 -35.5t44 -100.5q0 -59 -34 -95.5t-93 -51.5q51 -17 72.5 -45zM372.5 378q21.5 17 21.5 46t-19 43.5t-54 14.5h-37l-25 -121h48q44 0 65.5 17zM335 128.5
q28 18.5 28 57.5q0 34 -21.5 50t-66.5 16h-37l-29 -142h46q52 0 80 18.5z" />
    <glyph glyph-name="c.sc" horiz-adv-x="656" 
d="M169.5 18.5q-59.5 34.5 -88.5 95.5t-29 141q0 98 40 177.5t115 126t176 46.5q76 0 132 -28t86 -78.5t30 -116.5q0 -7 -2 -27h-169q1 10 1 24q0 38 -23 62.5t-66 24.5q-52 0 -86.5 -30.5t-50.5 -79.5t-16 -104q0 -61 26 -94.5t82 -33.5q89 1 113 87h171q-15 -69 -53 -120
t-98.5 -79t-142.5 -28q-88 0 -147.5 34.5z" />
    <glyph glyph-name="cacute.sc" horiz-adv-x="656" 
d="M169.5 18.5q-59.5 34.5 -88.5 95.5t-29 141q0 98 40 177.5t115 126t176 46.5q76 0 132 -28t86 -78.5t30 -116.5q0 -7 -2 -27h-169q1 10 1 24q0 38 -23 62.5t-66 24.5q-52 0 -86.5 -30.5t-50.5 -79.5t-16 -104q0 -61 26 -94.5t82 -33.5q89 1 113 87h171q-15 -69 -53 -120
t-98.5 -79t-142.5 -28q-88 0 -147.5 34.5zM431 817h160l-129 -157h-144z" />
    <glyph glyph-name="ccaron.sc" horiz-adv-x="656" 
d="M169.5 18.5q-59.5 34.5 -88.5 95.5t-29 141q0 98 40 177.5t115 126t176 46.5q76 0 132 -28t86 -78.5t30 -116.5q0 -7 -2 -27h-169q1 10 1 24q0 38 -23 62.5t-66 24.5q-52 0 -86.5 -30.5t-50.5 -79.5t-16 -104q0 -61 26 -94.5t82 -33.5q89 1 113 87h171q-15 -69 -53 -120
t-98.5 -79t-142.5 -28q-88 0 -147.5 34.5zM498 660h-178l-67 158h133l36 -88l69 88h139z" />
    <glyph glyph-name="ccedilla.sc" horiz-adv-x="656" 
d="M460 355q1 10 1 24q0 38 -23 62.5t-66 24.5q-52 0 -86.5 -30.5t-50.5 -79.5t-16 -104q0 -61 26 -94.5t82 -33.5q89 1 113 87h171q-20 -94 -82.5 -153t-162.5 -71l-11 -24q41 -5 63.5 -28.5t22.5 -60.5q0 -55 -44 -81.5t-117 -26.5q-30 0 -57 5.5t-48 15.5l30 72
q16 -7 35.5 -11t37.5 -4q27 0 42 8.5t15 24.5q0 15 -15 22.5t-48 7.5h-47l36 81q-104 16 -156.5 87t-52.5 180q0 98 40 177.5t115 126t176 46.5q76 0 132 -28t86 -78.5t30 -116.5q0 -7 -2 -27h-169z" />
    <glyph glyph-name="ccircumflex.sc" horiz-adv-x="656" 
d="M169.5 18.5q-59.5 34.5 -88.5 95.5t-29 141q0 98 40 177.5t115 126t176 46.5q76 0 132 -28t86 -78.5t30 -116.5q0 -7 -2 -27h-169q1 10 1 24q0 38 -23 62.5t-66 24.5q-52 0 -86.5 -30.5t-50.5 -79.5t-16 -104q0 -61 26 -94.5t82 -33.5q89 1 113 87h171q-15 -69 -53 -120
t-98.5 -79t-142.5 -28q-88 0 -147.5 34.5zM349 818h178l67 -158h-133l-36 88l-69 -88h-139z" />
    <glyph glyph-name="cdotaccent.sc" horiz-adv-x="656" 
d="M169.5 18.5q-59.5 34.5 -88.5 95.5t-29 141q0 98 40 177.5t115 126t176 46.5q76 0 132 -28t86 -78.5t30 -116.5q0 -7 -2 -27h-169q1 10 1 24q0 38 -23 62.5t-66 24.5q-52 0 -86.5 -30.5t-50.5 -79.5t-16 -104q0 -61 26 -94.5t82 -33.5q89 1 113 87h171q-15 -69 -53 -120
t-98.5 -79t-142.5 -28q-88 0 -147.5 34.5zM380.5 671q-19.5 11 -30.5 29.5t-11 41.5t11 42t30.5 30t44.5 11q24 0 43.5 -11t30.5 -30t11 -42t-11 -41.5t-30.5 -29.5t-43.5 -11q-25 0 -44.5 11z" />
    <glyph glyph-name="d.sc" horiz-adv-x="653" 
d="M145 590h198q136 0 207 -66t71 -188q0 -92 -41 -169t-118 -122t-179 -45h-256zM272 132q89 0 133 53.5t44 145.5q0 62 -33 94t-93 32h-44l-65 -325h58z" />
    <glyph glyph-name="eth.sc" horiz-adv-x="653" 
d="M550 524q71 -66 71 -188q0 -92 -41 -169t-118 -122t-179 -45h-256l51 255h-50l20 97h49l48 238h198q136 0 207 -66zM405 185.5q44 53.5 44 145.5q0 62 -33 94t-93 32h-44l-21 -105h123l-20 -97h-122l-25 -123h58q89 0 133 53.5z" />
    <glyph glyph-name="dcaron.sc" horiz-adv-x="653" 
d="M145 590h198q136 0 207 -66t71 -188q0 -92 -41 -169t-118 -122t-179 -45h-256zM272 132q89 0 133 53.5t44 145.5q0 62 -33 94t-93 32h-44l-65 -325h58zM485 660h-178l-67 158h133l36 -88l69 88h139z" />
    <glyph glyph-name="dcroat.sc" horiz-adv-x="653" 
d="M550 524q71 -66 71 -188q0 -92 -41 -169t-118 -122t-179 -45h-256l51 255h-50l20 97h49l48 238h198q136 0 207 -66zM405 185.5q44 53.5 44 145.5q0 62 -33 94t-93 32h-44l-21 -105h123l-20 -97h-122l-25 -123h58q89 0 133 53.5z" />
    <glyph glyph-name="e.sc" horiz-adv-x="520" 
d="M145 590h388l-27 -133h-227l-19 -93h225l-27 -132h-224l-20 -100h227l-26 -132h-388z" />
    <glyph glyph-name="eacute.sc" horiz-adv-x="520" 
d="M145 590h388l-27 -133h-227l-19 -93h225l-27 -132h-224l-20 -100h227l-26 -132h-388zM370 817h160l-129 -157h-144z" />
    <glyph glyph-name="ebreve.sc" horiz-adv-x="520" 
d="M145 590h388l-27 -133h-227l-19 -93h225l-27 -132h-224l-20 -100h227l-26 -132h-388zM236 688.5q-40 36.5 -40 106.5q0 15 1 23h108q-1 -7 -1 -21q0 -30 13.5 -43.5t42.5 -13.5q33 0 53.5 18t33.5 60h113q-19 -81 -70.5 -123.5t-133.5 -42.5q-80 0 -120 36.5z" />
    <glyph glyph-name="ecaron.sc" horiz-adv-x="520" 
d="M145 590h388l-27 -133h-227l-19 -93h225l-27 -132h-224l-20 -100h227l-26 -132h-388zM437 660h-178l-67 158h133l36 -88l69 88h139z" />
    <glyph glyph-name="ecircumflex.sc" horiz-adv-x="520" 
d="M145 590h388l-27 -133h-227l-19 -93h225l-27 -132h-224l-20 -100h227l-26 -132h-388zM288 818h178l67 -158h-133l-36 88l-69 -88h-139z" />
    <glyph glyph-name="edieresis.sc" horiz-adv-x="520" 
d="M145 590h388l-27 -133h-227l-19 -93h225l-27 -132h-224l-20 -100h227l-26 -132h-388zM215.5 669q-18.5 10 -29 27.5t-10.5 39.5t10.5 40t29 28.5t41.5 10.5t41.5 -10.5t29.5 -28.5t11 -40t-11 -39.5t-29.5 -27.5t-41.5 -10t-41.5 10zM424.5 669q-18.5 10 -29 27.5
t-10.5 39.5t10.5 40t29 28.5t41.5 10.5t41.5 -10.5t29.5 -28.5t11 -40t-11 -39.5t-29.5 -27.5t-41.5 -10t-41.5 10z" />
    <glyph glyph-name="edotaccent.sc" horiz-adv-x="520" 
d="M145 590h388l-27 -133h-227l-19 -93h225l-27 -132h-224l-20 -100h227l-26 -132h-388zM319.5 671q-19.5 11 -30.5 29.5t-11 41.5t11 42t30.5 30t44.5 11q24 0 43.5 -11t30.5 -30t11 -42t-11 -41.5t-30.5 -29.5t-43.5 -11q-25 0 -44.5 11z" />
    <glyph glyph-name="egrave.sc" horiz-adv-x="520" 
d="M145 590h388l-27 -133h-227l-19 -93h225l-27 -132h-224l-20 -100h227l-26 -132h-388zM307 660l-80 157h146l64 -157h-130z" />
    <glyph glyph-name="emacron.sc" horiz-adv-x="520" 
d="M145 590h388l-27 -133h-227l-19 -93h225l-27 -132h-224l-20 -100h227l-26 -132h-388zM219 785h305l-20 -99h-305z" />
    <glyph glyph-name="eogonek.sc" horiz-adv-x="520" 
d="M279 457l-19 -93h225l-27 -132h-224l-20 -100h227l-26 -132q-42 -25 -67.5 -47t-25.5 -46q0 -14 10 -21.5t26 -7.5q21 0 35 5l-18 -88q-33 -9 -70 -9q-52 0 -82 22.5t-30 64.5q0 43 30 73.5t80 53.5h-276l118 590h388l-27 -133h-227z" />
    <glyph glyph-name="uni0259.sc" horiz-adv-x="631" 
d="M491 573q55 -32 81.5 -89.5t26.5 -134.5q0 -101 -39.5 -184.5t-111.5 -132t-165 -48.5q-70 0 -123 28t-82 82.5t-29 132.5q0 50 10 107h374v15q0 115 -91 115q-35 0 -59 -17t-38 -48h-171q20 66 61 112.5t97.5 70t121.5 23.5q82 0 137 -32zM363.5 143q28.5 24 45.5 67
h-201q2 -44 24 -67.5t63 -23.5q40 0 68.5 24z" />
    <glyph glyph-name="f.sc" horiz-adv-x="484" 
d="M145 590h365l-26 -133h-205l-19 -93h203l-26 -132h-203l-47 -232h-160z" />
    <glyph glyph-name="g.sc" horiz-adv-x="643" 
d="M343 327h274l-10 -50q-28 -143 -99 -218t-199 -75q-85 0 -143.5 32.5t-87.5 90.5t-29 132q0 103 40.5 186.5t117 131.5t178.5 48q77 0 131 -28t81 -78t27 -116h-157q0 47 -23 71t-70 24q-53 0 -88.5 -31.5t-52.5 -85.5t-17 -121q0 -63 23.5 -97t84.5 -34q49 0 77.5 26
t39.5 77h-121z" />
    <glyph glyph-name="gbreve.sc" horiz-adv-x="643" 
d="M343 327h274l-10 -50q-28 -143 -99 -218t-199 -75q-85 0 -143.5 32.5t-87.5 90.5t-29 132q0 103 40.5 186.5t117 131.5t178.5 48q77 0 131 -28t81 -78t27 -116h-157q0 47 -23 71t-70 24q-53 0 -88.5 -31.5t-52.5 -85.5t-17 -121q0 -63 23.5 -97t84.5 -34q49 0 77.5 26
t39.5 77h-121zM304 688.5q-40 36.5 -40 106.5q0 15 1 23h108q-1 -7 -1 -21q0 -30 13.5 -43.5t42.5 -13.5q33 0 53.5 18t33.5 60h113q-19 -81 -70.5 -123.5t-133.5 -42.5q-80 0 -120 36.5z" />
    <glyph glyph-name="gcircumflex.sc" horiz-adv-x="643" 
d="M343 327h274l-10 -50q-28 -143 -99 -218t-199 -75q-85 0 -143.5 32.5t-87.5 90.5t-29 132q0 103 40.5 186.5t117 131.5t178.5 48q77 0 131 -28t81 -78t27 -116h-157q0 47 -23 71t-70 24q-53 0 -88.5 -31.5t-52.5 -85.5t-17 -121q0 -63 23.5 -97t84.5 -34q49 0 77.5 26
t39.5 77h-121zM356 818h178l67 -158h-133l-36 88l-69 -88h-139z" />
    <glyph glyph-name="uni0123.sc" horiz-adv-x="643" 
d="M343 327h274l-10 -50q-28 -143 -99 -218t-199 -75q-85 0 -143.5 32.5t-87.5 90.5t-29 132q0 103 40.5 186.5t117 131.5t178.5 48q77 0 131 -28t81 -78t27 -116h-157q0 47 -23 71t-70 24q-53 0 -88.5 -31.5t-52.5 -85.5t-17 -121q0 -63 23.5 -97t84.5 -34q49 0 77.5 26
t39.5 77h-121zM208 -52h161l-86 -148h-143z" />
    <glyph glyph-name="gdotaccent.sc" horiz-adv-x="643" 
d="M343 327h274l-10 -50q-28 -143 -99 -218t-199 -75q-85 0 -143.5 32.5t-87.5 90.5t-29 132q0 103 40.5 186.5t117 131.5t178.5 48q77 0 131 -28t81 -78t27 -116h-157q0 47 -23 71t-70 24q-53 0 -88.5 -31.5t-52.5 -85.5t-17 -121q0 -63 23.5 -97t84.5 -34q49 0 77.5 26
t39.5 77h-121zM387.5 671q-19.5 11 -30.5 29.5t-11 41.5t11 42t30.5 30t44.5 11q24 0 43.5 -11t30.5 -30t11 -42t-11 -41.5t-30.5 -29.5t-43.5 -11q-25 0 -44.5 11z" />
    <glyph glyph-name="h.sc" horiz-adv-x="672" 
d="M145 590h160l-45 -225h197l45 225h161l-118 -590h-160l45 228h-197l-46 -228h-160z" />
    <glyph glyph-name="hbar.sc" horiz-adv-x="672" 
d="M663 590l-118 -590h-160l45 228h-197l-46 -228h-160l118 590h160l-14 -69h197l14 69h161zM457 365l12 60h-197l-12 -60h197z" />
    <glyph glyph-name="hcircumflex.sc" horiz-adv-x="672" 
d="M145 590h160l-45 -225h197l45 225h161l-118 -590h-160l45 228h-197l-46 -228h-160zM360 818h178l67 -158h-133l-36 88l-69 -88h-139z" />
    <glyph glyph-name="i.sc" horiz-adv-x="314" 
d="M145 590h160l-118 -590h-160z" />
    <glyph glyph-name="dotlessi.sc" horiz-adv-x="314" 
d="M145 590h160l-118 -590h-160z" />
    <glyph glyph-name="iacute.sc" horiz-adv-x="314" 
d="M145 590h160l-118 -590h-160zM247 817h163l-114 -157h-142z" />
    <glyph glyph-name="ibreve.sc" horiz-adv-x="314" 
d="M145 590h160l-118 -590h-160zM152 681q-31 30 -31 87q0 20 5 50h97q-5 -27 -5 -40q0 -21 8 -29.5t24 -8.5q26 0 42 17t25 61h99q-33 -167 -174 -167q-59 0 -90 30z" />
    <glyph glyph-name="icircumflex.sc" horiz-adv-x="314" 
d="M145 590h160l-118 -590h-160zM196 818h150l42 -158h-109l-20 85l-55 -85h-115z" />
    <glyph glyph-name="idieresis.sc" horiz-adv-x="314" 
d="M145 590h160l-118 -590h-160zM127.5 682.5q-17.5 18.5 -17.5 50.5q0 36 20 57.5t52 21.5q29 0 46.5 -19t17.5 -51q0 -35 -19.5 -56.5t-52.5 -21.5q-29 0 -46.5 18.5zM281.5 682.5q-17.5 18.5 -17.5 50.5q0 36 20 57.5t52 21.5q30 0 47 -19t17 -51q0 -35 -19.5 -56.5
t-52.5 -21.5q-29 0 -46.5 18.5z" />
    <glyph glyph-name="i.sc.loclTRK" horiz-adv-x="314" 
d="M145 590h160l-118 -590h-160zM212.5 671q-19.5 11 -30.5 29.5t-11 41.5t11 42t30.5 30t44.5 11q24 0 43.5 -11t30.5 -30t11 -42t-11 -41.5t-30.5 -29.5t-43.5 -11q-25 0 -44.5 11z" />
    <glyph glyph-name="igrave.sc" horiz-adv-x="314" 
d="M145 590h160l-118 -590h-160zM203 660l-71 157h143l50 -157h-122z" />
    <glyph glyph-name="ij.sc" horiz-adv-x="666" 
d="M145 590h160l-118 -590h-160zM279 2l30 145q14 -2 26 -2q34 0 54 8t32 27t19 54l71 356h161l-78 -392q-21 -102 -81 -151.5t-172 -49.5q-35 0 -62 5z" />
    <glyph glyph-name="imacron.sc" horiz-adv-x="314" 
d="M145 590h160l-118 -590h-160zM136 785h255l-20 -99h-255z" />
    <glyph glyph-name="iogonek.sc" horiz-adv-x="314" 
d="M134.5 -52q-20.5 -25 -20.5 -48q0 -11 6.5 -16.5t18.5 -5.5q14 0 27 5l-18 -89q-30 -8 -60 -8q-49 0 -77 20t-28 58q0 39 27 74.5t70 61.5h-53l118 590h160l-118 -590q-32 -27 -52.5 -52z" />
    <glyph glyph-name="itilde.sc" horiz-adv-x="314" 
d="M145 590h160l-118 -590h-160zM259 668.5q-15 9.5 -25 25.5q-8 11 -13 16t-13 5q-13 0 -20.5 -13.5t-12.5 -40.5h-85q12 55 27 89.5t37 52t53 17.5q25 0 38.5 -9t25.5 -26q7 -10 13 -15.5t13 -5.5q14 0 21.5 13t12.5 41h87q-13 -55 -28 -89.5t-37 -52t-54 -17.5
q-25 0 -40 9.5z" />
    <glyph glyph-name="j.sc" horiz-adv-x="352" 
d="M-35 2l30 145q14 -2 26 -2q34 0 54 8t32 27t19 54l71 356h161l-78 -392q-21 -102 -81 -151.5t-172 -49.5q-35 0 -62 5z" />
    <glyph glyph-name="uni006A0301.sc" horiz-adv-x="352" 
d="M-35 2l30 145q14 -2 26 -2q34 0 54 8t32 27t19 54l71 356h161l-78 -392q-21 -102 -81 -151.5t-172 -49.5q-35 0 -62 5zM296 817h163l-114 -157h-142z" />
    <glyph glyph-name="jcircumflex.sc" horiz-adv-x="352" 
d="M-35 2l30 145q14 -2 26 -2q34 0 54 8t32 27t19 54l71 356h161l-78 -392q-21 -102 -81 -151.5t-172 -49.5q-35 0 -62 5zM245 818h150l42 -158h-109l-20 85l-55 -85h-115z" />
    <glyph glyph-name="k.sc" horiz-adv-x="625" 
d="M393 308l177 -308h-189l-140 272l-54 -272h-160l118 590h160l-44 -221l211 221h188z" />
    <glyph glyph-name="uni0137.sc" horiz-adv-x="625" 
d="M393 308l177 -308h-189l-140 272l-54 -272h-160l118 590h160l-44 -221l211 221h188zM202 -52h161l-86 -148h-143z" />
    <glyph glyph-name="kgreenlandic.sc" horiz-adv-x="625" 
d="M393 308l177 -308h-189l-140 272l-54 -272h-160l118 590h160l-44 -221l211 221h188z" />
    <glyph glyph-name="l.sc" horiz-adv-x="435" 
d="M145 590h160l-89 -448h182l-29 -142h-342z" />
    <glyph glyph-name="lacute.sc" horiz-adv-x="435" 
d="M145 590h160l-89 -448h182l-29 -142h-342zM289 817h160l-129 -157h-144z" />
    <glyph glyph-name="lcaron.sc" horiz-adv-x="435" 
d="M145 590h160l-89 -448h182l-29 -142h-342zM363 590h132l-74 -172h-115z" />
    <glyph glyph-name="uni013C.sc" horiz-adv-x="435" 
d="M145 590h160l-89 -448h182l-29 -142h-342zM112 -52h161l-86 -148h-143z" />
    <glyph glyph-name="ldot.sc" horiz-adv-x="521" 
d="M145 590h160l-89 -448h182l-29 -142h-342zM386.5 285.5q-22.5 12.5 -35 34.5t-12.5 50t12.5 49.5t35 34t51.5 12.5t51 -12.5t34.5 -34t12.5 -49.5t-12.5 -50t-34.5 -34.5t-51 -12.5t-51.5 12.5z" />
    <glyph glyph-name="lslash.sc" horiz-adv-x="435" 
d="M216 142h182l-29 -142h-342l43 214l-67 -40l24 123l67 40l51 253h160l-35 -175l148 87l-26 -124l-146 -86z" />
    <glyph glyph-name="m.sc" horiz-adv-x="817" 
d="M145 590h174l81 -327l211 327h197l-118 -590h-152l66 329l-211 -329h-70l-79 329l-66 -329h-151z" />
    <glyph glyph-name="n.sc" horiz-adv-x="687" 
d="M145 590h158l150 -349l70 349h155l-117 -590h-159l-150 350l-69 -350h-156z" />
    <glyph glyph-name="nacute.sc" horiz-adv-x="687" 
d="M145 590h158l150 -349l70 349h155l-117 -590h-159l-150 350l-69 -350h-156zM441 817h160l-129 -157h-144z" />
    <glyph glyph-name="napostrophe.sc" horiz-adv-x="904" 
d="M379 590h158l150 -349l70 349h155l-117 -590h-159l-150 350l-69 -350h-156zM189 706h169l-160 -282h-127z" />
    <glyph glyph-name="ncaron.sc" horiz-adv-x="687" 
d="M145 590h158l150 -349l70 349h155l-117 -590h-159l-150 350l-69 -350h-156zM508 660h-178l-67 158h133l36 -88l69 88h139z" />
    <glyph glyph-name="uni0146.sc" horiz-adv-x="687" 
d="M145 590h158l150 -349l70 349h155l-117 -590h-159l-150 350l-69 -350h-156zM208 -52h161l-86 -148h-143z" />
    <glyph glyph-name="eng.sc" horiz-adv-x="687" 
d="M678 590l-124 -623q-14 -72 -55.5 -105t-118.5 -33q-43 0 -75 4l26 126q12 -2 20 -2q23 0 36.5 10.5t17.5 30.5l1 6l-154 346l-69 -350h-156l118 590h158l152 -340l68 340h155z" />
    <glyph glyph-name="ntilde.sc" horiz-adv-x="687" 
d="M145 590h158l150 -349l70 349h155l-117 -590h-159l-150 350l-69 -350h-156zM422 686q-5 3 -16.5 11.5t-20.5 12.5t-17 4q-16 0 -26 -13t-16 -40h-93q17 80 49.5 119.5t83.5 39.5q23 0 40.5 -7.5t35.5 -21.5q20 -14 31 -20t23 -6q17 0 27 12.5t17 40.5h93
q-17 -80 -49.5 -119.5t-84.5 -39.5q-43 0 -77 27z" />
    <glyph glyph-name="o.sc" horiz-adv-x="673" 
d="M167 18.5q-58 34.5 -86.5 95.5t-28.5 141q0 98 39.5 177.5t113.5 126t174 46.5q87 0 145 -34.5t86 -95t28 -141.5q0 -98 -39 -177.5t-113 -126t-174 -46.5q-87 0 -145 34.5zM406.5 155.5q33.5 32.5 49.5 81.5t16 100q0 60 -25.5 94.5t-78.5 34.5q-51 0 -84.5 -32t-49 -81
t-15.5 -101q0 -61 25 -95t78 -34q51 0 84.5 32.5z" />
    <glyph glyph-name="oacute.sc" horiz-adv-x="673" 
d="M167 18.5q-58 34.5 -86.5 95.5t-28.5 141q0 98 39.5 177.5t113.5 126t174 46.5q87 0 145 -34.5t86 -95t28 -141.5q0 -98 -39 -177.5t-113 -126t-174 -46.5q-87 0 -145 34.5zM406.5 155.5q33.5 32.5 49.5 81.5t16 100q0 60 -25.5 94.5t-78.5 34.5q-51 0 -84.5 -32t-49 -81
t-15.5 -101q0 -61 25 -95t78 -34q51 0 84.5 32.5zM433 817h160l-129 -157h-144z" />
    <glyph glyph-name="obreve.sc" horiz-adv-x="673" 
d="M167 18.5q-58 34.5 -86.5 95.5t-28.5 141q0 98 39.5 177.5t113.5 126t174 46.5q87 0 145 -34.5t86 -95t28 -141.5q0 -98 -39 -177.5t-113 -126t-174 -46.5q-87 0 -145 34.5zM406.5 155.5q33.5 32.5 49.5 81.5t16 100q0 60 -25.5 94.5t-78.5 34.5q-51 0 -84.5 -32t-49 -81
t-15.5 -101q0 -61 25 -95t78 -34q51 0 84.5 32.5zM299 688.5q-40 36.5 -40 106.5q0 15 1 23h108q-1 -7 -1 -21q0 -30 13.5 -43.5t42.5 -13.5q33 0 53.5 18t33.5 60h113q-19 -81 -70.5 -123.5t-133.5 -42.5q-80 0 -120 36.5z" />
    <glyph glyph-name="ocircumflex.sc" horiz-adv-x="673" 
d="M167 18.5q-58 34.5 -86.5 95.5t-28.5 141q0 98 39.5 177.5t113.5 126t174 46.5q87 0 145 -34.5t86 -95t28 -141.5q0 -98 -39 -177.5t-113 -126t-174 -46.5q-87 0 -145 34.5zM406.5 155.5q33.5 32.5 49.5 81.5t16 100q0 60 -25.5 94.5t-78.5 34.5q-51 0 -84.5 -32t-49 -81
t-15.5 -101q0 -61 25 -95t78 -34q51 0 84.5 32.5zM351 818h178l67 -158h-133l-36 88l-69 -88h-139z" />
    <glyph glyph-name="odieresis.sc" horiz-adv-x="673" 
d="M167 18.5q-58 34.5 -86.5 95.5t-28.5 141q0 98 39.5 177.5t113.5 126t174 46.5q87 0 145 -34.5t86 -95t28 -141.5q0 -98 -39 -177.5t-113 -126t-174 -46.5q-87 0 -145 34.5zM406.5 155.5q33.5 32.5 49.5 81.5t16 100q0 60 -25.5 94.5t-78.5 34.5q-51 0 -84.5 -32t-49 -81
t-15.5 -101q0 -61 25 -95t78 -34q51 0 84.5 32.5zM278.5 669q-18.5 10 -29 27.5t-10.5 39.5t10.5 40t29 28.5t41.5 10.5t41.5 -10.5t29.5 -28.5t11 -40t-11 -39.5t-29.5 -27.5t-41.5 -10t-41.5 10zM487.5 669q-18.5 10 -29 27.5t-10.5 39.5t10.5 40t29 28.5t41.5 10.5
t41.5 -10.5t29.5 -28.5t11 -40t-11 -39.5t-29.5 -27.5t-41.5 -10t-41.5 10z" />
    <glyph glyph-name="ograve.sc" horiz-adv-x="673" 
d="M167 18.5q-58 34.5 -86.5 95.5t-28.5 141q0 98 39.5 177.5t113.5 126t174 46.5q87 0 145 -34.5t86 -95t28 -141.5q0 -98 -39 -177.5t-113 -126t-174 -46.5q-87 0 -145 34.5zM406.5 155.5q33.5 32.5 49.5 81.5t16 100q0 60 -25.5 94.5t-78.5 34.5q-51 0 -84.5 -32t-49 -81
t-15.5 -101q0 -61 25 -95t78 -34q51 0 84.5 32.5zM370 660l-80 157h146l64 -157h-130z" />
    <glyph glyph-name="ohungarumlaut.sc" horiz-adv-x="673" 
d="M167 18.5q-58 34.5 -86.5 95.5t-28.5 141q0 98 39.5 177.5t113.5 126t174 46.5q87 0 145 -34.5t86 -95t28 -141.5q0 -98 -39 -177.5t-113 -126t-174 -46.5q-87 0 -145 34.5zM406.5 155.5q33.5 32.5 49.5 81.5t16 100q0 60 -25.5 94.5t-78.5 34.5q-51 0 -84.5 -32t-49 -81
t-15.5 -101q0 -61 25 -95t78 -34q51 0 84.5 32.5zM369 818h140l-143 -158h-113zM547 818h140l-142 -158h-113z" />
    <glyph glyph-name="omacron.sc" horiz-adv-x="673" 
d="M167 18.5q-58 34.5 -86.5 95.5t-28.5 141q0 98 39.5 177.5t113.5 126t174 46.5q87 0 145 -34.5t86 -95t28 -141.5q0 -98 -39 -177.5t-113 -126t-174 -46.5q-87 0 -145 34.5zM406.5 155.5q33.5 32.5 49.5 81.5t16 100q0 60 -25.5 94.5t-78.5 34.5q-51 0 -84.5 -32t-49 -81
t-15.5 -101q0 -61 25 -95t78 -34q51 0 84.5 32.5zM282 785h305l-20 -99h-305z" />
    <glyph glyph-name="oslash.sc" horiz-adv-x="673" 
d="M604 487q34 -64 34 -153q0 -98 -39 -177.5t-113 -126t-174 -46.5q-115 0 -181 60l-48 -44h-109l112 102q-34 62 -34 153q0 98 39.5 177.5t113.5 126t174 46.5q115 0 181 -61l49 46h110zM283.5 434q-33.5 -32 -49 -81t-15.5 -101q0 -12 2 -30l223 212q-27 32 -76 32
q-51 0 -84.5 -32zM406.5 155.5q33.5 32.5 49.5 81.5t16 100q0 12 -2 30l-224 -212q24 -32 76 -32q51 0 84.5 32.5z" />
    <glyph glyph-name="oslashacute.sc" horiz-adv-x="673" 
d="M604 487q34 -64 34 -153q0 -98 -39 -177.5t-113 -126t-174 -46.5q-115 0 -181 60l-48 -44h-109l112 102q-34 62 -34 153q0 98 39.5 177.5t113.5 126t174 46.5q115 0 181 -61l49 46h110zM283.5 434q-33.5 -32 -49 -81t-15.5 -101q0 -12 2 -30l223 212q-27 32 -76 32
q-51 0 -84.5 -32zM406.5 155.5q33.5 32.5 49.5 81.5t16 100q0 12 -2 30l-224 -212q24 -32 76 -32q51 0 84.5 32.5zM433 817h160l-129 -157h-144z" />
    <glyph glyph-name="otilde.sc" horiz-adv-x="673" 
d="M167 18.5q-58 34.5 -86.5 95.5t-28.5 141q0 98 39.5 177.5t113.5 126t174 46.5q87 0 145 -34.5t86 -95t28 -141.5q0 -98 -39 -177.5t-113 -126t-174 -46.5q-87 0 -145 34.5zM406.5 155.5q33.5 32.5 49.5 81.5t16 100q0 60 -25.5 94.5t-78.5 34.5q-51 0 -84.5 -32t-49 -81
t-15.5 -101q0 -61 25 -95t78 -34q51 0 84.5 32.5zM414 686q-5 3 -16.5 11.5t-20.5 12.5t-17 4q-16 0 -26 -13t-16 -40h-93q17 80 49.5 119.5t83.5 39.5q23 0 40.5 -7.5t35.5 -21.5q20 -14 31 -20t23 -6q17 0 27 12.5t17 40.5h93q-17 -80 -49.5 -119.5t-84.5 -39.5
q-43 0 -77 27z" />
    <glyph glyph-name="oe.sc" horiz-adv-x="892" 
d="M652 457l-19 -92h225l-26 -133h-226l-19 -100h227l-26 -132h-358l4 25q-61 -33 -138 -33q-82 0 -136.5 33.5t-81 93t-26.5 137.5q0 95 38.5 173t111 123t169.5 45q54 0 95 -17.5t69 -50.5l12 61h359l-27 -133h-227zM396 155.5q34 32.5 50 82t16 99.5q0 60 -23 94.5
t-71 34.5q-51 0 -84.5 -32t-49 -81t-15.5 -101q0 -129 93 -129q50 0 84 32.5z" />
    <glyph glyph-name="p.sc" horiz-adv-x="556" 
d="M145 590h219q105 0 152.5 -43.5t47.5 -124.5q0 -61 -25 -107.5t-71 -72t-109 -25.5h-128l-44 -217h-160zM314 337q43 0 64.5 18.5t21.5 53.5q0 31 -19.5 45.5t-60.5 14.5h-39l-26 -132h59z" />
    <glyph glyph-name="thorn.sc" horiz-adv-x="556" 
d="M145 590h160l-16 -79h52q106 0 154.5 -48.5t48.5 -135.5q0 -70 -27.5 -123t-78.5 -82.5t-121 -29.5h-111l-19 -92h-160zM282 219q48 0 73 26.5t25 70.5q0 35 -20 51t-66 16h-30l-33 -164h51z" />
    <glyph glyph-name="q.sc" horiz-adv-x="673" 
d="M597 153q-41 -81 -116 -126l48 -101l-120 -54l-48 115q-24 -3 -49 -3q-87 0 -145 34.5t-86.5 95.5t-28.5 141q0 98 39.5 177.5t113.5 126t174 46.5q87 0 145 -34.5t86 -95t28 -141.5q0 -100 -41 -181zM415 164q28 31 42.5 78t14.5 95q0 60 -25.5 94.5t-78.5 34.5
q-51 0 -84.5 -32t-49 -81t-15.5 -101q0 -117 86 -128l-21 50l104 48z" />
    <glyph glyph-name="r.sc" horiz-adv-x="595" 
d="M527.5 293q-40.5 -51 -113.5 -67l121 -226h-166l-116 219h-22l-44 -219h-160l118 590h222q201 0 201 -168q0 -78 -40.5 -129zM254 332h57q46 0 69 20.5t23 58.5q0 32 -18.5 44.5t-58.5 12.5h-45z" />
    <glyph glyph-name="racute.sc" horiz-adv-x="595" 
d="M527.5 293q-40.5 -51 -113.5 -67l121 -226h-166l-116 219h-22l-44 -219h-160l118 590h222q201 0 201 -168q0 -78 -40.5 -129zM254 332h57q46 0 69 20.5t23 58.5q0 32 -18.5 44.5t-58.5 12.5h-45zM398 817h160l-129 -157h-144z" />
    <glyph glyph-name="rcaron.sc" horiz-adv-x="595" 
d="M527.5 293q-40.5 -51 -113.5 -67l121 -226h-166l-116 219h-22l-44 -219h-160l118 590h222q201 0 201 -168q0 -78 -40.5 -129zM254 332h57q46 0 69 20.5t23 58.5q0 32 -18.5 44.5t-58.5 12.5h-45zM465 660h-178l-67 158h133l36 -88l69 88h139z" />
    <glyph glyph-name="uni0157.sc" horiz-adv-x="595" 
d="M527.5 293q-40.5 -51 -113.5 -67l121 -226h-166l-116 219h-22l-44 -219h-160l118 590h222q201 0 201 -168q0 -78 -40.5 -129zM254 332h57q46 0 69 20.5t23 58.5q0 32 -18.5 44.5t-58.5 12.5h-45zM193 -52h161l-86 -148h-143z" />
    <glyph glyph-name="s.sc" horiz-adv-x="555" 
d="M116 4.5q-52 20.5 -77 56.5t-25 84q0 15 3 31h179q-1 -6 -1 -15q0 -25 15.5 -39t49.5 -14q33 0 52.5 13t19.5 37q0 18 -11.5 31.5t-37 27.5t-78.5 37q-61 27 -94 65t-33 95t33 100.5t89.5 67t125.5 23.5q104 0 157.5 -40.5t53.5 -111.5q0 -15 -3 -33h-167q2 14 2 19
q0 22 -15 34.5t-47 12.5q-28 0 -45.5 -12.5t-17.5 -32.5q0 -16 11 -27.5t33 -22t66 -27.5q53 -20 87 -43.5t52.5 -56t18.5 -78.5q0 -62 -35 -108t-95.5 -70t-136.5 -24q-77 0 -129 20.5z" />
    <glyph glyph-name="sacute.sc" horiz-adv-x="555" 
d="M116 4.5q-52 20.5 -77 56.5t-25 84q0 15 3 31h179q-1 -6 -1 -15q0 -25 15.5 -39t49.5 -14q33 0 52.5 13t19.5 37q0 18 -11.5 31.5t-37 27.5t-78.5 37q-61 27 -94 65t-33 95t33 100.5t89.5 67t125.5 23.5q104 0 157.5 -40.5t53.5 -111.5q0 -15 -3 -33h-167q2 14 2 19
q0 22 -15 34.5t-47 12.5q-28 0 -45.5 -12.5t-17.5 -32.5q0 -16 11 -27.5t33 -22t66 -27.5q53 -20 87 -43.5t52.5 -56t18.5 -78.5q0 -62 -35 -108t-95.5 -70t-136.5 -24q-77 0 -129 20.5zM365 817h160l-129 -157h-144z" />
    <glyph glyph-name="scaron.sc" horiz-adv-x="555" 
d="M116 4.5q-52 20.5 -77 56.5t-25 84q0 15 3 31h179q-1 -6 -1 -15q0 -25 15.5 -39t49.5 -14q33 0 52.5 13t19.5 37q0 18 -11.5 31.5t-37 27.5t-78.5 37q-61 27 -94 65t-33 95t33 100.5t89.5 67t125.5 23.5q104 0 157.5 -40.5t53.5 -111.5q0 -15 -3 -33h-167q2 14 2 19
q0 22 -15 34.5t-47 12.5q-28 0 -45.5 -12.5t-17.5 -32.5q0 -16 11 -27.5t33 -22t66 -27.5q53 -20 87 -43.5t52.5 -56t18.5 -78.5q0 -62 -35 -108t-95.5 -70t-136.5 -24q-77 0 -129 20.5zM432 660h-178l-67 158h133l36 -88l69 88h139z" />
    <glyph glyph-name="scedilla.sc" horiz-adv-x="555" 
d="M367 420q2 14 2 19q0 22 -15 34.5t-47 12.5q-28 0 -45.5 -12.5t-17.5 -32.5q0 -16 11 -27.5t33 -22t66 -27.5q53 -20 87 -43.5t52.5 -56t18.5 -78.5q0 -53 -25.5 -94t-70.5 -67t-104 -36l-12 -26q41 -5 63.5 -28.5t22.5 -60.5q0 -55 -44 -81.5t-116 -26.5
q-30 0 -57.5 5.5t-48.5 15.5l30 72q33 -15 74 -15q26 0 41 8.5t15 24.5q0 15 -15 22.5t-48 7.5h-47l34 79q-95 7 -142.5 49.5t-47.5 109.5q0 15 3 31h179q-1 -6 -1 -15q0 -25 15.5 -39t49.5 -14q33 0 52.5 13t19.5 37q0 18 -11.5 31.5t-37 27.5t-78.5 37q-61 27 -94 65
t-33 95t33 100.5t89.5 67t125.5 23.5q104 0 157.5 -40.5t53.5 -111.5q0 -15 -3 -33h-167z" />
    <glyph glyph-name="scircumflex.sc" horiz-adv-x="555" 
d="M116 4.5q-52 20.5 -77 56.5t-25 84q0 15 3 31h179q-1 -6 -1 -15q0 -25 15.5 -39t49.5 -14q33 0 52.5 13t19.5 37q0 18 -11.5 31.5t-37 27.5t-78.5 37q-61 27 -94 65t-33 95t33 100.5t89.5 67t125.5 23.5q104 0 157.5 -40.5t53.5 -111.5q0 -15 -3 -33h-167q2 14 2 19
q0 22 -15 34.5t-47 12.5q-28 0 -45.5 -12.5t-17.5 -32.5q0 -16 11 -27.5t33 -22t66 -27.5q53 -20 87 -43.5t52.5 -56t18.5 -78.5q0 -62 -35 -108t-95.5 -70t-136.5 -24q-77 0 -129 20.5zM284 818h178l67 -158h-133l-36 88l-69 -88h-139z" />
    <glyph glyph-name="uni0219.sc" horiz-adv-x="555" 
d="M116 4.5q-52 20.5 -77 56.5t-25 84q0 15 3 31h179q-1 -6 -1 -15q0 -25 15.5 -39t49.5 -14q33 0 52.5 13t19.5 37q0 18 -11.5 31.5t-37 27.5t-78.5 37q-61 27 -94 65t-33 95t33 100.5t89.5 67t125.5 23.5q104 0 157.5 -40.5t53.5 -111.5q0 -15 -3 -33h-167q2 14 2 19
q0 22 -15 34.5t-47 12.5q-28 0 -45.5 -12.5t-17.5 -32.5q0 -16 11 -27.5t33 -22t66 -27.5q53 -20 87 -43.5t52.5 -56t18.5 -78.5q0 -62 -35 -108t-95.5 -70t-136.5 -24q-77 0 -129 20.5zM171 -52h161l-86 -148h-143z" />
    <glyph glyph-name="germandbls.sc" horiz-adv-x="618" 
d="M632 585l-132 -246q39 -19 57 -54t18 -81q0 -61 -31.5 -108.5t-86 -73.5t-123.5 -26q-57 0 -99 9l27 132q19 -4 51 -4q49 0 74 19t25 54q0 65 -78 65q-14 0 -30 -2v3l97 181h-123l-91 -453h-160l118 590h488z" />
    <glyph glyph-name="t.sc" horiz-adv-x="481" 
d="M202 457h-145l26 133h450l-26 -133h-144l-92 -457h-161z" />
    <glyph glyph-name="tbar.sc" horiz-adv-x="481" 
d="M363 457l-20 -101h85l-19 -97h-86l-52 -259h-161l52 259h-86l20 97h86l20 101h-145l26 133h450l-26 -133h-144z" />
    <glyph glyph-name="tcaron.sc" horiz-adv-x="481" 
d="M202 457h-145l26 133h450l-26 -133h-144l-92 -457h-161zM413 660h-178l-67 158h133l36 -88l69 88h139z" />
    <glyph glyph-name="uni0163.sc" horiz-adv-x="481" 
d="M533 590l-26 -133h-144l-92 -457h-23l-17 -37q41 -5 63.5 -28.5t22.5 -60.5q0 -55 -44.5 -81.5t-116.5 -26.5q-30 0 -57 5.5t-48 15.5l30 72q15 -7 34.5 -11t38.5 -4q26 0 41.5 8.5t15.5 24.5q0 15 -15 22.5t-48 7.5h-47l41 93h-32l92 457h-145l26 133h450z" />
    <glyph glyph-name="uni021B.sc" horiz-adv-x="481" 
d="M202 457h-145l26 133h450l-26 -133h-144l-92 -457h-161zM101 -52h161l-86 -148h-143z" />
    <glyph glyph-name="u.sc" horiz-adv-x="629" 
d="M111 32.5q-58 48.5 -58 145.5q0 30 8 72l68 340h162l-70 -353q-6 -25 -6 -46q0 -34 18.5 -50.5t61.5 -16.5q49 0 72 23t33 70l75 373h160l-79 -395q-21 -105 -86 -158t-179 -53q-122 0 -180 48.5z" />
    <glyph glyph-name="uacute.sc" horiz-adv-x="629" 
d="M111 32.5q-58 48.5 -58 145.5q0 30 8 72l68 340h162l-70 -353q-6 -25 -6 -46q0 -34 18.5 -50.5t61.5 -16.5q49 0 72 23t33 70l75 373h160l-79 -395q-21 -105 -86 -158t-179 -53q-122 0 -180 48.5zM418 817h160l-129 -157h-144z" />
    <glyph glyph-name="ubreve.sc" horiz-adv-x="629" 
d="M111 32.5q-58 48.5 -58 145.5q0 30 8 72l68 340h162l-70 -353q-6 -25 -6 -46q0 -34 18.5 -50.5t61.5 -16.5q49 0 72 23t33 70l75 373h160l-79 -395q-21 -105 -86 -158t-179 -53q-122 0 -180 48.5zM284 688.5q-40 36.5 -40 106.5q0 15 1 23h108q-1 -7 -1 -21
q0 -30 13.5 -43.5t42.5 -13.5q33 0 53.5 18t33.5 60h113q-19 -81 -70.5 -123.5t-133.5 -42.5q-80 0 -120 36.5z" />
    <glyph glyph-name="ucircumflex.sc" horiz-adv-x="629" 
d="M111 32.5q-58 48.5 -58 145.5q0 30 8 72l68 340h162l-70 -353q-6 -25 -6 -46q0 -34 18.5 -50.5t61.5 -16.5q49 0 72 23t33 70l75 373h160l-79 -395q-21 -105 -86 -158t-179 -53q-122 0 -180 48.5zM336 818h178l67 -158h-133l-36 88l-69 -88h-139z" />
    <glyph glyph-name="udieresis.sc" horiz-adv-x="629" 
d="M111 32.5q-58 48.5 -58 145.5q0 30 8 72l68 340h162l-70 -353q-6 -25 -6 -46q0 -34 18.5 -50.5t61.5 -16.5q49 0 72 23t33 70l75 373h160l-79 -395q-21 -105 -86 -158t-179 -53q-122 0 -180 48.5zM263.5 669q-18.5 10 -29 27.5t-10.5 39.5t10.5 40t29 28.5t41.5 10.5
t41.5 -10.5t29.5 -28.5t11 -40t-11 -39.5t-29.5 -27.5t-41.5 -10t-41.5 10zM472.5 669q-18.5 10 -29 27.5t-10.5 39.5t10.5 40t29 28.5t41.5 10.5t41.5 -10.5t29.5 -28.5t11 -40t-11 -39.5t-29.5 -27.5t-41.5 -10t-41.5 10z" />
    <glyph glyph-name="ugrave.sc" horiz-adv-x="629" 
d="M111 32.5q-58 48.5 -58 145.5q0 30 8 72l68 340h162l-70 -353q-6 -25 -6 -46q0 -34 18.5 -50.5t61.5 -16.5q49 0 72 23t33 70l75 373h160l-79 -395q-21 -105 -86 -158t-179 -53q-122 0 -180 48.5zM355 660l-80 157h146l64 -157h-130z" />
    <glyph glyph-name="uhungarumlaut.sc" horiz-adv-x="629" 
d="M111 32.5q-58 48.5 -58 145.5q0 30 8 72l68 340h162l-70 -353q-6 -25 -6 -46q0 -34 18.5 -50.5t61.5 -16.5q49 0 72 23t33 70l75 373h160l-79 -395q-21 -105 -86 -158t-179 -53q-122 0 -180 48.5zM354 818h140l-143 -158h-113zM532 818h140l-142 -158h-113z" />
    <glyph glyph-name="umacron.sc" horiz-adv-x="629" 
d="M111 32.5q-58 48.5 -58 145.5q0 30 8 72l68 340h162l-70 -353q-6 -25 -6 -46q0 -34 18.5 -50.5t61.5 -16.5q49 0 72 23t33 70l75 373h160l-79 -395q-21 -105 -86 -158t-179 -53q-122 0 -180 48.5zM267 785h305l-20 -99h-305z" />
    <glyph glyph-name="uogonek.sc" horiz-adv-x="629" 
d="M635 590l-79 -395q-15 -72 -46.5 -116.5t-89.5 -78.5q-42 -26 -67 -47.5t-25 -45.5q0 -14 9.5 -21.5t25.5 -7.5q21 0 35 5l-17 -88q-35 -9 -71 -9q-52 0 -82 22.5t-30 64.5q0 65 79 111q-114 3 -169 51.5t-55 142.5q0 30 8 72l68 340h162l-70 -353q-6 -25 -6 -46
q0 -34 18.5 -50.5t61.5 -16.5q49 0 72 23t33 70l75 373h160z" />
    <glyph glyph-name="uring.sc" horiz-adv-x="629" 
d="M111 32.5q-58 48.5 -58 145.5q0 30 8 72l68 340h162l-70 -353q-6 -25 -6 -46q0 -34 18.5 -50.5t61.5 -16.5q49 0 72 23t33 70l75 373h160l-79 -395q-21 -105 -86 -158t-179 -53q-122 0 -180 48.5zM334 654.5q-31 15.5 -47.5 44t-16.5 64.5q0 37 16.5 65t47 43.5
t71.5 15.5t72 -15.5t48 -43.5t17 -65q0 -36 -17 -64.5t-48.5 -44t-71.5 -15.5t-71 15.5zM441.5 729q13.5 13 13.5 34q0 22 -13.5 35.5t-36.5 13.5q-22 0 -35.5 -13.5t-13.5 -35.5q0 -21 13.5 -34t35.5 -13q23 0 36.5 13z" />
    <glyph glyph-name="utilde.sc" horiz-adv-x="629" 
d="M111 32.5q-58 48.5 -58 145.5q0 30 8 72l68 340h162l-70 -353q-6 -25 -6 -46q0 -34 18.5 -50.5t61.5 -16.5q49 0 72 23t33 70l75 373h160l-79 -395q-21 -105 -86 -158t-179 -53q-122 0 -180 48.5zM399 686q-5 3 -16.5 11.5t-20.5 12.5t-17 4q-16 0 -26 -13t-16 -40h-93
q17 80 49.5 119.5t83.5 39.5q23 0 40.5 -7.5t35.5 -21.5q20 -14 31 -20t23 -6q17 0 27 12.5t17 40.5h93q-17 -80 -49.5 -119.5t-84.5 -39.5q-43 0 -77 27z" />
    <glyph glyph-name="v.sc" horiz-adv-x="605" 
d="M668 590l-335 -590h-160l-100 590h159l51 -392l208 392h177z" />
    <glyph glyph-name="w.sc" horiz-adv-x="829" 
d="M891 590l-277 -590h-166l-11 365l-156 -365h-165l-43 590h151l17 -353l152 353h167l9 -352l157 352h165z" />
    <glyph glyph-name="wacute.sc" horiz-adv-x="829" 
d="M891 590l-277 -590h-166l-11 365l-156 -365h-165l-43 590h151l17 -353l152 353h167l9 -352l157 352h165zM510 817h160l-129 -157h-144z" />
    <glyph glyph-name="wcircumflex.sc" horiz-adv-x="829" 
d="M891 590l-277 -590h-166l-11 365l-156 -365h-165l-43 590h151l17 -353l152 353h167l9 -352l157 352h165zM428 818h178l67 -158h-133l-36 88l-69 -88h-139z" />
    <glyph glyph-name="wdieresis.sc" horiz-adv-x="829" 
d="M891 590l-277 -590h-166l-11 365l-156 -365h-165l-43 590h151l17 -353l152 353h167l9 -352l157 352h165zM355.5 669q-18.5 10 -29 27.5t-10.5 39.5t10.5 40t29 28.5t41.5 10.5t41.5 -10.5t29.5 -28.5t11 -40t-11 -39.5t-29.5 -27.5t-41.5 -10t-41.5 10zM564.5 669
q-18.5 10 -29 27.5t-10.5 39.5t10.5 40t29 28.5t41.5 10.5t41.5 -10.5t29.5 -28.5t11 -40t-11 -39.5t-29.5 -27.5t-41.5 -10t-41.5 10z" />
    <glyph glyph-name="wgrave.sc" horiz-adv-x="829" 
d="M891 590l-277 -590h-166l-11 365l-156 -365h-165l-43 590h151l17 -353l152 353h167l9 -352l157 352h165zM447 660l-80 157h146l64 -157h-130z" />
    <glyph glyph-name="x.sc" horiz-adv-x="616" 
d="M222 311l-148 279h175l80 -159l104 159h203l-228 -294l153 -296h-174l-86 171l-118 -171h-206z" />
    <glyph glyph-name="y.sc" horiz-adv-x="543" 
d="M192 253l-119 337h160l59 -179l129 179h185l-254 -337l-51 -253h-160z" />
    <glyph glyph-name="yacute.sc" horiz-adv-x="543" 
d="M192 253l-119 337h160l59 -179l129 179h185l-254 -337l-51 -253h-160zM365 817h160l-129 -157h-144z" />
    <glyph glyph-name="ycircumflex.sc" horiz-adv-x="543" 
d="M192 253l-119 337h160l59 -179l129 179h185l-254 -337l-51 -253h-160zM283 818h178l67 -158h-133l-36 88l-69 -88h-139z" />
    <glyph glyph-name="ydieresis.sc" horiz-adv-x="543" 
d="M192 253l-119 337h160l59 -179l129 179h185l-254 -337l-51 -253h-160zM210.5 669q-18.5 10 -29 27.5t-10.5 39.5t10.5 40t29 28.5t41.5 10.5t41.5 -10.5t29.5 -28.5t11 -40t-11 -39.5t-29.5 -27.5t-41.5 -10t-41.5 10zM419.5 669q-18.5 10 -29 27.5t-10.5 39.5t10.5 40
t29 28.5t41.5 10.5t41.5 -10.5t29.5 -28.5t11 -40t-11 -39.5t-29.5 -27.5t-41.5 -10t-41.5 10z" />
    <glyph glyph-name="ygrave.sc" horiz-adv-x="543" 
d="M192 253l-119 337h160l59 -179l129 179h185l-254 -337l-51 -253h-160zM302 660l-80 157h146l64 -157h-130z" />
    <glyph glyph-name="z.sc" horiz-adv-x="548" 
d="M279 453h-216l27 137h467l-304 -454h241l-28 -136h-494z" />
    <glyph glyph-name="zacute.sc" horiz-adv-x="548" 
d="M279 453h-216l27 137h467l-304 -454h241l-28 -136h-494zM354 817h160l-129 -157h-144z" />
    <glyph glyph-name="zcaron.sc" horiz-adv-x="548" 
d="M279 453h-216l27 137h467l-304 -454h241l-28 -136h-494zM421 660h-178l-67 158h133l36 -88l69 88h139z" />
    <glyph glyph-name="zdotaccent.sc" horiz-adv-x="548" 
d="M279 453h-216l27 137h467l-304 -454h241l-28 -136h-494zM303.5 671q-19.5 11 -30.5 29.5t-11 41.5t11 42t30.5 30t44.5 11q24 0 43.5 -11t30.5 -30t11 -42t-11 -41.5t-30.5 -29.5t-43.5 -11q-25 0 -44.5 11z" />
    <glyph glyph-name="m.sc.ss01" horiz-adv-x="784" 
d="M145 590h181l80 -200l158 200h212l-118 -590h-157l79 393l-167 -210h-68l-84 210l-78 -393h-156z" />
    <glyph glyph-name="q.sc.ss02" horiz-adv-x="673" 
d="M617 200.5q-21 -62.5 -62 -110.5t-98 -75l35 -98l-148 -49l-35 116q-86 0 -143.5 34.5t-85.5 95.5t-28 141q0 98 39.5 177.5t113.5 126t174 46.5q87 0 145 -34.5t86 -95t28 -141.5q0 -71 -21 -133.5zM406.5 155.5q33.5 32.5 49.5 81.5t16 100q0 60 -25.5 94.5t-78.5 34.5
q-51 0 -84.5 -32t-49 -81t-15.5 -101q0 -61 25 -95t78 -34q51 0 84.5 32.5z" />
    <glyph glyph-name="oslash.sc.ss04" horiz-adv-x="673" 
d="M609 477q29 -58 29 -143q0 -98 -39 -177.5t-113 -126t-174 -46.5q-82 0 -139 31l-92 -102l-100 91l101 106q-30 62 -30 145q0 98 39.5 177.5t113.5 126t174 46.5q81 0 140 -31l95 103l99 -90zM406.5 155.5q33.5 32.5 49.5 81.5t16 100q0 60 -25.5 94.5t-78.5 34.5
q-51 0 -84.5 -32t-49 -81t-15.5 -101q0 -61 25 -95t78 -34q51 0 84.5 32.5z" />
    <glyph glyph-name="A.subs" horiz-adv-x="435" 
d="M229 -63h-138l-28 -57h-133l198 388h185l44 -388h-123zM220 32l-13 144h-1l-70 -144h84z" />
    <glyph glyph-name="B.subs" horiz-adv-x="410" 
d="M320 58q14 -21 14 -55q0 -62 -41.5 -92.5t-112.5 -30.5h-196l77 388h174q59 0 89.5 -18t30.5 -64q0 -39 -21.5 -62t-58.5 -32q31 -13 45 -34zM233 156q0 18 -11 26t-33 8h-21l-14 -72h25q54 0 54 38zM200 -29q15 13 15 35q0 19 -11.5 28.5t-38.5 9.5h-26l-17 -86h29
q34 0 49 13z" />
    <glyph glyph-name="C.subs" horiz-adv-x="447" 
d="M43 -84q-45 47 -45 135q0 65 25.5 117t74.5 81.5t118 29.5q54 0 93.5 -17t61 -49t21.5 -75q0 -12 -3 -27h-127q3 29 -11.5 45.5t-42.5 16.5t-46 -19t-26 -47t-8 -56q0 -40 15.5 -57.5t43.5 -17.5q24 0 39.5 11.5t20.5 32.5h126q-15 -71 -65.5 -111t-134.5 -40
q-85 0 -130 47z" />
    <glyph glyph-name="D.subs" horiz-adv-x="460" 
d="M61 268h139q101 0 146.5 -44t45.5 -129q0 -62 -28.5 -111t-81.5 -76.5t-123 -27.5h-175zM156 -19q53 0 79.5 32t26.5 80q0 75 -72 75h-26l-37 -187h29z" />
    <glyph glyph-name="E.subs" horiz-adv-x="366" 
d="M61 268h267l-18 -94h-145l-10 -51h143l-19 -94h-143l-10 -54h144l-19 -95h-267z" />
    <glyph glyph-name="F.subs" horiz-adv-x="341" 
d="M61 268h251l-19 -94h-128l-11 -58h126l-19 -94h-126l-28 -142h-123z" />
    <glyph glyph-name="G.subs" horiz-adv-x="455" 
d="M201 99h189l-9 -55q-14 -84 -67 -129.5t-140 -45.5t-133 46t-46 129q0 65 27.5 118.5t80.5 85t126 31.5q76 0 120.5 -37t44.5 -111h-124q0 25 -13 37.5t-39 12.5q-44 0 -68 -34.5t-24 -92.5q0 -43 15.5 -64t49.5 -21q29 0 44 14t22 39h-71z" />
    <glyph glyph-name="H.subs" horiz-adv-x="479" 
d="M61 268h123l-28 -141h116l29 141h123l-77 -388h-123l28 142h-117l-28 -142h-123z" />
    <glyph glyph-name="I.subs" horiz-adv-x="239" 
d="M61 268h123l-77 -388h-123z" />
    <glyph glyph-name="J.subs" horiz-adv-x="251" 
d="M-63 -119l23 112q3 -1 13 -1q23 0 36 5t20 17.5t12 35.5l43 218h124l-50 -254q-14 -68 -57.5 -102t-123.5 -34q-20 0 -40 3z" />
    <glyph glyph-name="K.subs" horiz-adv-x="456" 
d="M251 77l127 -197h-141l-99 158l-31 -158h-123l77 388h123l-27 -134l120 134h154z" />
    <glyph glyph-name="L.subs" horiz-adv-x="304" 
d="M61 268h123l-55 -279h111l-21 -109h-235z" />
    <glyph glyph-name="M.subs" horiz-adv-x="575" 
d="M61 268h127l56 -197l132 197h144l-77 -388h-116l40 201l-133 -201h-41l-54 201l-40 -201h-115z" />
    <glyph glyph-name="N.subs" horiz-adv-x="488" 
d="M61 268h120l92 -209l41 209h119l-77 -388h-121l-91 209l-41 -209h-119z" />
    <glyph glyph-name="O.subs" horiz-adv-x="466" 
d="M40.5 -81.5q-44.5 49.5 -44.5 131.5q0 64 28 116.5t79 82.5t116 30q91 0 135.5 -49t44.5 -131q0 -65 -28 -117.5t-79 -82.5t-116 -30q-91 0 -135.5 49.5zM232 -7.5q20 17.5 29.5 45.5t9.5 61q0 35 -13.5 54.5t-44.5 19.5q-29 0 -49 -17.5t-29.5 -46t-9.5 -62.5t13 -53
t44 -19q30 0 50 17.5z" />
    <glyph glyph-name="P.subs" horiz-adv-x="393" 
d="M61 268h143q148 0 148 -121q0 -66 -40.5 -100t-113.5 -34h-65l-26 -133h-123zM173 96q28 0 43 12t15 36q0 41 -47 41h-16l-18 -89h23z" />
    <glyph glyph-name="Q.subs" horiz-adv-x="466" 
d="M371 -17.5q-28 -52.5 -77 -82.5l27 -53l-86 -37l-26 61q-22 -2 -33 -2q-91 0 -135.5 49.5t-44.5 131.5q0 64 28 116.5t79 82.5t116 30q91 0 135.5 -49t44.5 -131q0 -64 -28 -116.5zM241 2q15 17 22.5 42.5t7.5 54.5q0 35 -13.5 54.5t-44.5 19.5q-29 0 -49 -17.5
t-29.5 -46t-9.5 -62.5q0 -29 9 -47t30 -23l-8 19l72 32z" />
    <glyph glyph-name="R.subs" horiz-adv-x="419" 
d="M330 71.5q-25 -35.5 -71 -49.5l78 -142h-127l-72 134h-4l-27 -134h-123l78 388h163q67 0 98.5 -29.5t31.5 -82.5q0 -49 -25 -84.5zM168 185l-19 -93h27q27 0 39.5 14t12.5 38q0 22 -11 31.5t-32 9.5h-17z" />
    <glyph glyph-name="S.subs" horiz-adv-x="387" 
d="M43 -118.5q-36 12.5 -54.5 35t-18.5 52.5q0 16 2 24h128v-2q0 -13 10 -20.5t29 -7.5q18 0 28 7.5t10 22.5q0 10 -6 17t-21.5 14.5t-47.5 20.5q-27 11 -46 22.5t-31.5 32.5t-12.5 52q0 41 23.5 69.5t63 43t89.5 14.5q70 0 108 -25t38 -69q0 -16 -2 -25h-124v5q0 11 -8 18
t-26 7q-17 0 -26 -7.5t-9 -19.5q0 -13 11.5 -20.5t33.5 -16.5t30 -12q31 -12 52 -25t35 -34.5t14 -53.5q0 -39 -21.5 -69t-63 -46.5t-100.5 -16.5q-51 0 -87 12.5z" />
    <glyph glyph-name="T.subs" horiz-adv-x="327" 
d="M86 168h-91l19 100h305l-20 -100h-90l-57 -288h-124z" />
    <glyph glyph-name="U.subs" horiz-adv-x="446" 
d="M0 2q0 23 6 50l43 216h124l-44 -221q-4 -15 -4 -30q0 -21 10.5 -31t35.5 -10q30 0 42.5 13.5t18.5 42.5l48 236h122l-50 -251q-15 -74 -61 -111t-130 -37q-161 0 -161 133z" />
    <glyph glyph-name="V.subs" horiz-adv-x="421" 
d="M420 268l-222 -388h-122l-69 388h122l30 -237l126 237h135z" />
    <glyph glyph-name="W.subs" horiz-adv-x="568" 
d="M567 268l-182 -388h-128l-4 214l-91 -214h-125l-30 388h116l10 -219l90 219h120l4 -215l94 215h126z" />
    <glyph glyph-name="X.subs" horiz-adv-x="441" 
d="M117 92l-92 176h132l42 -83l70 83h154l-162 -184l102 -204h-132l-54 105l-90 -105h-157z" />
    <glyph glyph-name="Y.subs" horiz-adv-x="376" 
d="M86 46l-79 222h121l33 -100l73 100h141l-166 -222l-33 -166h-124z" />
    <glyph glyph-name="Z.subs" horiz-adv-x="379" 
d="M136 164h-128l21 104h321l-193 -284h144l-20 -104h-339z" />
    <glyph glyph-name="a.subs" horiz-adv-x="394" 
d="M276 166q34 -28 34 -85q0 -22 -6 -52l-30 -149h-117l5 25q-36 -33 -93 -33q-50 0 -74.5 23t-24.5 64q0 61 48 86t128 25h49l2 17q0 14 -8.5 21t-26.5 7q-31 0 -36 -24h-121q11 50 52 76.5t108 26.5q77 0 111 -28zM163.5 -33.5q13.5 13.5 18.5 41.5h-36q-26 0 -37.5 -7.5
t-11.5 -23.5q0 -13 7 -18.5t21 -5.5q25 0 38.5 13.5z" />
    <glyph glyph-name="b.subs" horiz-adv-x="408" 
d="M312 158q27 -36 27 -96q0 -52 -19 -95.5t-55 -69t-84 -25.5q-33 0 -54 10.5t-33 32.5l-7 -35h-114l84 424h118l-27 -137q33 27 79 27q58 0 85 -36zM198.5 -8q15.5 22 15.5 57q0 23 -10 34t-32 11q-21 0 -33.5 -12.5t-17.5 -38.5q-6 -29 -6 -40q0 -16 9.5 -24.5t27.5 -8.5
q31 0 46.5 22z" />
    <glyph glyph-name="c.subs" horiz-adv-x="383" 
d="M20.5 -88.5q-37.5 39.5 -37.5 104.5q0 50 23.5 90.5t65 64t94.5 23.5q76 0 114 -34.5t38 -99.5h-128q0 17 -7.5 25.5t-24.5 8.5q-26 0 -39 -22t-13 -53q0 -24 8 -36.5t27 -12.5q14 0 24 8t12 19h128q-13 -60 -60 -92.5t-112 -32.5q-75 0 -112.5 39.5z" />
    <glyph glyph-name="d.subs" horiz-adv-x="409" 
d="M372 304l-85 -424h-115l4 21q-17 -16 -37 -23t-46 -7q-58 0 -85 36t-27 96q0 52 19 95.5t55 69t84 25.5q31 0 51.5 -9.5t33.5 -29.5l30 150h118zM116 -18.5q10 -11.5 32 -11.5q21 0 33.5 13t17.5 39q6 29 6 39q0 33 -37 33q-31 0 -46.5 -22t-15.5 -56q0 -23 10 -34.5z
" />
    <glyph glyph-name="e.subs" horiz-adv-x="386" 
d="M310 3h-208q1 -28 10 -40.5t31 -12.5q33 0 40 25h120q-8 -32 -32.5 -55.5t-60 -35.5t-75.5 -12q-78 0 -115.5 36.5t-37.5 101.5q0 53 23.5 94.5t66.5 65.5t98 24q68 0 107.5 -35.5t39.5 -104.5q0 -20 -7 -51zM131 102q-13 -13 -20 -34h90q-1 24 -10 35.5t-29 11.5
q-18 0 -31 -13z" />
    <glyph glyph-name="f.subs" horiz-adv-x="235" 
d="M13 90h-33l19 95h33l6 29q8 37 24 59.5t43.5 32.5t70.5 10q32 0 58 -7l-17 -84q-14 4 -27 4q-33 0 -39 -30l-3 -14h60l-19 -95h-60l-42 -210h-116z" />
    <glyph glyph-name="g.subs" horiz-adv-x="407" 
d="M346 185l-60 -304q-26 -130 -180 -130q-71 0 -112.5 25t-40.5 74h124q2 -10 11 -15.5t22 -5.5q24 0 38.5 13t19.5 36l5 24q-16 -13 -35.5 -19.5t-43.5 -6.5q-58 0 -85 36t-27 96q0 50 19 92.5t54.5 67.5t83.5 25q33 0 54 -10.5t33 -33.5l7 36h113zM117 -13.5
q10 -11.5 32 -11.5q21 0 33.5 13t17.5 39q5 25 5 34q0 33 -37 33q-31 0 -46 -20.5t-15 -52.5q0 -23 10 -34.5z" />
    <glyph glyph-name="h.subs" horiz-adv-x="402" 
d="M299.5 168.5q23.5 -25.5 23.5 -72.5q0 -16 -4 -36l-35 -180h-117l33 163q2 12 2 17q0 18 -8 26t-26 8q-17 0 -27.5 -9.5t-14.5 -30.5l-35 -174h-118l84 424h117l-28 -145q37 35 86 35q44 0 67.5 -25.5z" />
    <glyph glyph-name="i.subs" horiz-adv-x="212" 
d="M65.5 230.5q-17.5 16.5 -17.5 41.5t17.5 42t43.5 17t43.5 -17t17.5 -42t-17.5 -41.5t-43.5 -16.5t-43.5 16.5zM34 185h117l-61 -305h-117z" />
    <glyph glyph-name="j.subs" horiz-adv-x="212" 
d="M67.5 230.5q-17.5 16.5 -17.5 41.5t17.5 42t43.5 17t43.5 -17t17.5 -42t-17.5 -41.5t-43.5 -16.5t-43.5 16.5zM-96 -237l21 100q6 -2 19 -2t20.5 6t9.5 18l60 300h118l-65 -325q-11 -54 -41 -78t-86 -24q-29 0 -56 5z" />
    <glyph glyph-name="k.subs" horiz-adv-x="385" 
d="M222 32l100 -152h-143l-65 115l-23 -115h-118l84 424h118l-42 -210l82 91h154z" />
    <glyph glyph-name="l.subs" horiz-adv-x="212" 
d="M57 304h117l-84 -424h-117z" />
    <glyph glyph-name="m.subs" horiz-adv-x="584" 
d="M482.5 168.5q23.5 -25.5 23.5 -72.5q0 -16 -4 -36l-36 -180h-117l33 163q2 12 2 17q0 18 -7.5 26t-23.5 8t-25.5 -9t-14.5 -31l-34 -174h-117l33 163q2 12 2 17q0 18 -7.5 26t-23.5 8t-26 -9.5t-14 -30.5l-35 -174h-118l61 305h113l-6 -30q19 19 40.5 29t48.5 10
q31 0 51.5 -13t29.5 -39q23 26 47.5 39t56.5 13q44 0 67.5 -25.5z" />
    <glyph glyph-name="n.subs" horiz-adv-x="402" 
d="M299.5 168.5q23.5 -25.5 23.5 -72.5q0 -16 -4 -36l-35 -180h-117l33 163q2 12 2 17q0 18 -8 26t-26 8q-17 0 -27.5 -9t-14.5 -31l-35 -174h-118l61 305h113l-6 -30q20 19 42 29t49 10q44 0 67.5 -25.5z" />
    <glyph glyph-name="o.subs" horiz-adv-x="392" 
d="M50.5 -110q-34.5 18 -51.5 50t-17 73q0 52 23.5 93t65.5 64.5t97 23.5q78 0 116 -38t38 -102q0 -53 -23 -94.5t-65 -64.5t-98 -23q-51 0 -85.5 18zM186 -7.5q13 22.5 13 55.5q0 23 -8.5 34.5t-30.5 11.5q-28 0 -41 -22t-13 -54q0 -24 8.5 -36t30.5 -12q28 0 41 22.5z" />
    <glyph glyph-name="p.subs" horiz-adv-x="409" 
d="M313 158q27 -36 27 -96q0 -52 -19 -95.5t-55 -69t-84 -25.5q-31 0 -51.5 9t-32.5 30l-31 -152h-118l85 426h114l-5 -23q18 16 38.5 24t46.5 8q58 0 85 -36zM199.5 -8q15.5 22 15.5 57q0 23 -10 34t-32 11q-21 0 -33.5 -12.5t-17.5 -38.5q-6 -29 -6 -40q0 -16 9.5 -24.5
t27.5 -8.5q31 0 46.5 22z" />
    <glyph glyph-name="q.subs" horiz-adv-x="408" 
d="M346 185l-84 -426h-118l28 138q-32 -26 -79 -26q-58 0 -85 36t-27 96q0 52 19 95.5t55 69t84 25.5q33 0 54 -10.5t33 -33.5l7 36h113zM116 -18.5q10 -11.5 32 -11.5q21 0 33.5 13t17.5 39q6 29 6 39q0 33 -37 33q-31 0 -46.5 -22t-15.5 -56q0 -23 10 -34.5z" />
    <glyph glyph-name="r.subs" horiz-adv-x="282" 
d="M258 185l-21 -104q-9 3 -26 3q-80 0 -99 -102l-21 -102h-118l61 305h112l-8 -39q37 44 87 44q18 0 33 -5z" />
    <glyph glyph-name="s.subs" horiz-adv-x="335" 
d="M0.5 -106.5q-33.5 25.5 -33.5 70.5q0 10 1 15h116v-6q0 -12 5.5 -18t19.5 -6q21 0 21 16q0 10 -8 17t-29 15q-44 17 -66.5 38t-22.5 57q0 49 40 75.5t102 26.5q60 0 91 -22.5t31 -64.5v-11h-111v4q0 10 -5 15.5t-16 5.5q-8 0 -13.5 -4.5t-5.5 -11.5q0 -9 8.5 -14.5
t34.5 -15.5q48 -18 71.5 -40t23.5 -58t-20.5 -60.5t-55 -36.5t-78.5 -12q-67 0 -100.5 25.5z" />
    <glyph glyph-name="t.subs" horiz-adv-x="247" 
d="M17 -106q-25 20 -25 67q0 22 4 42l17 87h-36l19 95h37l14 70h117l-14 -70h63l-19 -95h-63l-16 -79l-2 -16q0 -14 7 -19.5t23 -5.5q10 0 27 3l-19 -94q-30 -5 -53 -5q-56 0 -81 20z" />
    <glyph glyph-name="u.subs" horiz-adv-x="402" 
d="M342 185l-61 -305h-113l6 30q-20 -19 -42 -29t-49 -10q-44 0 -67.5 25t-23.5 72q0 16 4 36l35 181h117l-33 -163q-2 -12 -2 -18q0 -18 8.5 -26t25.5 -8t27.5 10t14.5 31l35 174h118z" />
    <glyph glyph-name="v.subs" horiz-adv-x="371" 
d="M-5 185h119l18 -167l84 167h134l-170 -305h-137z" />
    <glyph glyph-name="w.subs" horiz-adv-x="548" 
d="M526 185l-171 -305h-112l-15 150l-74 -150h-111l-48 305h118l11 -153l81 153h95l19 -153l74 153h133z" />
    <glyph glyph-name="x.subs" horiz-adv-x="392" 
d="M88 42l-89 143h126l36 -66l58 66h152l-148 -151l92 -154h-124l-43 71l-64 -71h-150z" />
    <glyph glyph-name="y.subs" horiz-adv-x="369" 
d="M348 185l-251 -425h-129l72 122l-45 303h118l12 -175l89 175h134z" />
    <glyph glyph-name="z.subs" horiz-adv-x="317" 
d="M137 -26h113l-19 -94h-301l169 210h-114l19 95h296z" />
    <glyph glyph-name="A.sups" horiz-adv-x="435" 
d="M341 495h-138l-28 -57h-133l198 388h185l44 -388h-123zM332 590l-13 144h-1l-70 -144h84z" />
    <glyph glyph-name="B.sups" horiz-adv-x="410" 
d="M432 616q14 -21 14 -55q0 -62 -41.5 -92.5t-112.5 -30.5h-196l77 388h174q59 0 89.5 -18t30.5 -64q0 -39 -21.5 -62t-58.5 -32q31 -13 45 -34zM345 714q0 18 -11 26t-33 8h-21l-14 -72h25q54 0 54 38zM312 529q15 13 15 35q0 19 -11.5 28.5t-38.5 9.5h-26l-17 -86h29
q34 0 49 13z" />
    <glyph glyph-name="C.sups" horiz-adv-x="447" 
d="M155 474q-45 47 -45 135q0 65 25.5 117t74.5 81.5t118 29.5q54 0 93.5 -17t61 -49t21.5 -75q0 -12 -3 -27h-127q3 29 -11.5 45.5t-42.5 16.5t-46 -19t-26 -47t-8 -56q0 -40 15.5 -57.5t43.5 -17.5q24 0 39.5 11.5t20.5 32.5h126q-15 -71 -65.5 -111t-134.5 -40
q-85 0 -130 47z" />
    <glyph glyph-name="D.sups" horiz-adv-x="460" 
d="M173 826h139q101 0 146.5 -44t45.5 -129q0 -62 -28.5 -111t-81.5 -76.5t-123 -27.5h-175zM268 539q53 0 79.5 32t26.5 80q0 75 -72 75h-26l-37 -187h29z" />
    <glyph glyph-name="E.sups" horiz-adv-x="366" 
d="M173 826h267l-18 -94h-145l-10 -51h143l-19 -94h-143l-10 -54h144l-19 -95h-267z" />
    <glyph glyph-name="F.sups" horiz-adv-x="341" 
d="M173 826h251l-19 -94h-128l-11 -58h126l-19 -94h-126l-28 -142h-123z" />
    <glyph glyph-name="G.sups" horiz-adv-x="455" 
d="M313 657h189l-9 -55q-14 -84 -67 -129.5t-140 -45.5t-133 46t-46 129q0 65 27.5 118.5t80.5 85t126 31.5q76 0 120.5 -37t44.5 -111h-124q0 25 -13 37.5t-39 12.5q-44 0 -68 -34.5t-24 -92.5q0 -43 15.5 -64t49.5 -21q29 0 44 14t22 39h-71z" />
    <glyph glyph-name="H.sups" horiz-adv-x="479" 
d="M173 826h123l-28 -141h116l29 141h123l-77 -388h-123l28 142h-117l-28 -142h-123z" />
    <glyph glyph-name="I.sups" horiz-adv-x="239" 
d="M173 826h123l-77 -388h-123z" />
    <glyph glyph-name="J.sups" horiz-adv-x="251" 
d="M49 439l23 112q3 -1 13 -1q23 0 36 5t20 17.5t12 35.5l43 218h124l-50 -254q-14 -68 -57.5 -102t-123.5 -34q-20 0 -40 3z" />
    <glyph glyph-name="K.sups" horiz-adv-x="456" 
d="M363 635l127 -197h-141l-99 158l-31 -158h-123l77 388h123l-27 -134l120 134h154z" />
    <glyph glyph-name="L.sups" horiz-adv-x="304" 
d="M173 826h123l-55 -279h111l-21 -109h-235z" />
    <glyph glyph-name="M.sups" horiz-adv-x="575" 
d="M173 826h127l56 -197l132 197h144l-77 -388h-116l40 201l-133 -201h-41l-54 201l-40 -201h-115z" />
    <glyph glyph-name="N.sups" horiz-adv-x="488" 
d="M173 826h120l92 -209l41 209h119l-77 -388h-121l-91 209l-41 -209h-119z" />
    <glyph glyph-name="O.sups" horiz-adv-x="466" 
d="M152.5 476.5q-44.5 49.5 -44.5 131.5q0 64 28 116.5t79 82.5t116 30q91 0 135.5 -49t44.5 -131q0 -65 -28 -117.5t-79 -82.5t-116 -30q-91 0 -135.5 49.5zM344 550.5q20 17.5 29.5 45.5t9.5 61q0 35 -13.5 54.5t-44.5 19.5q-29 0 -49 -17.5t-29.5 -46t-9.5 -62.5t13 -53
t44 -19q30 0 50 17.5z" />
    <glyph glyph-name="P.sups" horiz-adv-x="393" 
d="M173 826h143q148 0 148 -121q0 -66 -40.5 -100t-113.5 -34h-65l-26 -133h-123zM285 654q28 0 43 12t15 36q0 41 -47 41h-16l-18 -89h23z" />
    <glyph glyph-name="Q.sups" horiz-adv-x="466" 
d="M483 540.5q-28 -52.5 -77 -82.5l27 -53l-86 -37l-26 61q-22 -2 -33 -2q-91 0 -135.5 49.5t-44.5 131.5q0 64 28 116.5t79 82.5t116 30q91 0 135.5 -49t44.5 -131q0 -64 -28 -116.5zM353 560q15 17 22.5 42.5t7.5 54.5q0 35 -13.5 54.5t-44.5 19.5q-29 0 -49 -17.5
t-29.5 -46t-9.5 -62.5q0 -29 9 -47t30 -23l-8 19l72 32z" />
    <glyph glyph-name="R.sups" horiz-adv-x="419" 
d="M442 629.5q-25 -35.5 -71 -49.5l78 -142h-127l-72 134h-4l-27 -134h-123l78 388h163q67 0 98.5 -29.5t31.5 -82.5q0 -49 -25 -84.5zM280 743l-19 -93h27q27 0 39.5 14t12.5 38q0 22 -11 31.5t-32 9.5h-17z" />
    <glyph glyph-name="S.sups" horiz-adv-x="387" 
d="M155 439.5q-36 12.5 -54.5 35t-18.5 52.5q0 16 2 24h128v-2q0 -13 10 -20.5t29 -7.5q18 0 28 7.5t10 22.5q0 10 -6 17t-21.5 14.5t-47.5 20.5q-27 11 -46 22.5t-31.5 32.5t-12.5 52q0 41 23.5 69.5t63 43t89.5 14.5q70 0 108 -25t38 -69q0 -16 -2 -25h-124v5q0 11 -8 18
t-26 7q-17 0 -26 -7.5t-9 -19.5q0 -13 11.5 -20.5t33.5 -16.5t30 -12q31 -12 52 -25t35 -34.5t14 -53.5q0 -39 -21.5 -69t-63 -46.5t-100.5 -16.5q-51 0 -87 12.5z" />
    <glyph glyph-name="T.sups" horiz-adv-x="327" 
d="M198 726h-91l19 100h305l-20 -100h-90l-57 -288h-124z" />
    <glyph glyph-name="U.sups" horiz-adv-x="446" 
d="M112 560q0 23 6 50l43 216h124l-44 -221q-4 -15 -4 -30q0 -21 10.5 -31t35.5 -10q30 0 42.5 13.5t18.5 42.5l48 236h122l-50 -251q-15 -74 -61 -111t-130 -37q-161 0 -161 133z" />
    <glyph glyph-name="V.sups" horiz-adv-x="421" 
d="M532 826l-222 -388h-122l-69 388h122l30 -237l126 237h135z" />
    <glyph glyph-name="W.sups" horiz-adv-x="568" 
d="M679 826l-182 -388h-128l-4 214l-91 -214h-125l-30 388h116l10 -219l90 219h120l4 -215l94 215h126z" />
    <glyph glyph-name="X.sups" horiz-adv-x="441" 
d="M229 650l-92 176h132l42 -83l70 83h154l-162 -184l102 -204h-132l-54 105l-90 -105h-157z" />
    <glyph glyph-name="Y.sups" horiz-adv-x="376" 
d="M198 604l-79 222h121l33 -100l73 100h141l-166 -222l-33 -166h-124z" />
    <glyph glyph-name="Z.sups" horiz-adv-x="379" 
d="M248 722h-128l21 104h321l-193 -284h144l-20 -104h-339z" />
    <glyph glyph-name="a.sups" horiz-adv-x="394" 
d="M388 724q34 -28 34 -85q0 -22 -6 -52l-30 -149h-117l5 25q-36 -33 -93 -33q-50 0 -74.5 23t-24.5 64q0 61 48 86t128 25h49l2 17q0 14 -8.5 21t-26.5 7q-31 0 -36 -24h-121q11 50 52 76.5t108 26.5q77 0 111 -28zM275.5 524.5q13.5 13.5 18.5 41.5h-36q-26 0 -37.5 -7.5
t-11.5 -23.5q0 -13 7 -18.5t21 -5.5q25 0 38.5 13.5z" />
    <glyph glyph-name="b.sups" horiz-adv-x="408" 
d="M424 716q27 -36 27 -96q0 -52 -19 -95.5t-55 -69t-84 -25.5q-33 0 -54 10.5t-33 32.5l-7 -35h-114l84 424h118l-27 -137q33 27 79 27q58 0 85 -36zM310.5 550q15.5 22 15.5 57q0 23 -10 34t-32 11q-21 0 -33.5 -12.5t-17.5 -38.5q-6 -29 -6 -40q0 -16 9.5 -24.5
t27.5 -8.5q31 0 46.5 22z" />
    <glyph glyph-name="c.sups" horiz-adv-x="383" 
d="M132.5 469.5q-37.5 39.5 -37.5 104.5q0 50 23.5 90.5t65 64t94.5 23.5q76 0 114 -34.5t38 -99.5h-128q0 17 -7.5 25.5t-24.5 8.5q-26 0 -39 -22t-13 -53q0 -24 8 -36.5t27 -12.5q14 0 24 8t12 19h128q-13 -60 -60 -92.5t-112 -32.5q-75 0 -112.5 39.5z" />
    <glyph glyph-name="d.sups" horiz-adv-x="409" 
d="M484 862l-85 -424h-115l4 21q-17 -16 -37 -23t-46 -7q-58 0 -85 36t-27 96q0 52 19 95.5t55 69t84 25.5q31 0 51.5 -9.5t33.5 -29.5l30 150h118zM228 539.5q10 -11.5 32 -11.5q21 0 33.5 13t17.5 39q6 29 6 39q0 33 -37 33q-31 0 -46.5 -22t-15.5 -56q0 -23 10 -34.5z
" />
    <glyph glyph-name="e.sups" horiz-adv-x="386" 
d="M422 561h-208q1 -28 10 -40.5t31 -12.5q33 0 40 25h120q-8 -32 -32.5 -55.5t-60 -35.5t-75.5 -12q-78 0 -115.5 36.5t-37.5 101.5q0 53 23.5 94.5t66.5 65.5t98 24q68 0 107.5 -35.5t39.5 -104.5q0 -20 -7 -51zM243 660q-13 -13 -20 -34h90q-1 24 -10 35.5t-29 11.5
q-18 0 -31 -13z" />
    <glyph glyph-name="f.sups" horiz-adv-x="235" 
d="M125 648h-33l19 95h33l6 29q8 37 24 59.5t43.5 32.5t70.5 10q32 0 58 -7l-17 -84q-14 4 -27 4q-33 0 -39 -30l-3 -14h60l-19 -95h-60l-42 -210h-116z" />
    <glyph glyph-name="g.sups" horiz-adv-x="407" 
d="M458 743l-60 -304q-26 -130 -180 -130q-71 0 -112.5 25t-40.5 74h124q2 -10 11 -15.5t22 -5.5q24 0 38.5 13t19.5 36l5 24q-16 -13 -35.5 -19.5t-43.5 -6.5q-58 0 -85 36t-27 96q0 50 19 92.5t54.5 67.5t83.5 25q33 0 54 -10.5t33 -33.5l7 36h113zM229 544.5
q10 -11.5 32 -11.5q21 0 33.5 13t17.5 39q5 25 5 34q0 33 -37 33q-31 0 -46 -20.5t-15 -52.5q0 -23 10 -34.5z" />
    <glyph glyph-name="h.sups" horiz-adv-x="402" 
d="M411.5 726.5q23.5 -25.5 23.5 -72.5q0 -16 -4 -36l-35 -180h-117l33 163q2 12 2 17q0 18 -8 26t-26 8q-17 0 -27.5 -9.5t-14.5 -30.5l-35 -174h-118l84 424h117l-28 -145q37 35 86 35q44 0 67.5 -25.5z" />
    <glyph glyph-name="i.sups" horiz-adv-x="212" 
d="M177.5 788.5q-17.5 16.5 -17.5 41.5t17.5 42t43.5 17t43.5 -17t17.5 -42t-17.5 -41.5t-43.5 -16.5t-43.5 16.5zM146 743h117l-61 -305h-117z" />
    <glyph glyph-name="j.sups" horiz-adv-x="212" 
d="M179.5 788.5q-17.5 16.5 -17.5 41.5t17.5 42t43.5 17t43.5 -17t17.5 -42t-17.5 -41.5t-43.5 -16.5t-43.5 16.5zM16 321l21 100q6 -2 19 -2t20.5 6t9.5 18l60 300h118l-65 -325q-11 -54 -41 -78t-86 -24q-29 0 -56 5z" />
    <glyph glyph-name="k.sups" horiz-adv-x="385" 
d="M334 590l100 -152h-143l-65 115l-23 -115h-118l84 424h118l-42 -210l82 91h154z" />
    <glyph glyph-name="l.sups" horiz-adv-x="212" 
d="M169 862h117l-84 -424h-117z" />
    <glyph glyph-name="m.sups" horiz-adv-x="584" 
d="M594.5 726.5q23.5 -25.5 23.5 -72.5q0 -16 -4 -36l-36 -180h-117l33 163q2 12 2 17q0 18 -7.5 26t-23.5 8t-25.5 -9t-14.5 -31l-34 -174h-117l33 163q2 12 2 17q0 18 -7.5 26t-23.5 8t-26 -9.5t-14 -30.5l-35 -174h-118l61 305h113l-6 -30q19 19 40.5 29t48.5 10
q31 0 51.5 -13t29.5 -39q23 26 47.5 39t56.5 13q44 0 67.5 -25.5z" />
    <glyph glyph-name="n.sups" horiz-adv-x="402" 
d="M411.5 726.5q23.5 -25.5 23.5 -72.5q0 -16 -4 -36l-35 -180h-117l33 163q2 12 2 17q0 18 -8 26t-26 8q-17 0 -27.5 -9t-14.5 -31l-35 -174h-118l61 305h113l-6 -30q20 19 42 29t49 10q44 0 67.5 -25.5z" />
    <glyph glyph-name="o.sups" horiz-adv-x="392" 
d="M162.5 448q-34.5 18 -51.5 50t-17 73q0 52 23.5 93t65.5 64.5t97 23.5q78 0 116 -38t38 -102q0 -53 -23 -94.5t-65 -64.5t-98 -23q-51 0 -85.5 18zM298 550.5q13 22.5 13 55.5q0 23 -8.5 34.5t-30.5 11.5q-28 0 -41 -22t-13 -54q0 -24 8.5 -36t30.5 -12q28 0 41 22.5z
" />
    <glyph glyph-name="p.sups" horiz-adv-x="409" 
d="M425 716q27 -36 27 -96q0 -52 -19 -95.5t-55 -69t-84 -25.5q-31 0 -51.5 9t-32.5 30l-31 -152h-118l85 426h114l-5 -23q18 16 38.5 24t46.5 8q58 0 85 -36zM311.5 550q15.5 22 15.5 57q0 23 -10 34t-32 11q-21 0 -33.5 -12.5t-17.5 -38.5q-6 -29 -6 -40q0 -16 9.5 -24.5
t27.5 -8.5q31 0 46.5 22z" />
    <glyph glyph-name="q.sups" horiz-adv-x="408" 
d="M458 743l-84 -426h-118l28 138q-32 -26 -79 -26q-58 0 -85 36t-27 96q0 52 19 95.5t55 69t84 25.5q33 0 54 -10.5t33 -33.5l7 36h113zM228 539.5q10 -11.5 32 -11.5q21 0 33.5 13t17.5 39q6 29 6 39q0 33 -37 33q-31 0 -46.5 -22t-15.5 -56q0 -23 10 -34.5z" />
    <glyph glyph-name="r.sups" horiz-adv-x="282" 
d="M370 743l-21 -104q-9 3 -26 3q-80 0 -99 -102l-21 -102h-118l61 305h112l-8 -39q37 44 87 44q18 0 33 -5z" />
    <glyph glyph-name="s.sups" horiz-adv-x="335" 
d="M112.5 451.5q-33.5 25.5 -33.5 70.5q0 10 1 15h116v-6q0 -12 5.5 -18t19.5 -6q21 0 21 16q0 10 -8 17t-29 15q-44 17 -66.5 38t-22.5 57q0 49 40 75.5t102 26.5q60 0 91 -22.5t31 -64.5v-11h-111v4q0 10 -5 15.5t-16 5.5q-8 0 -13.5 -4.5t-5.5 -11.5q0 -9 8.5 -14.5
t34.5 -15.5q48 -18 71.5 -40t23.5 -58t-20.5 -60.5t-55 -36.5t-78.5 -12q-67 0 -100.5 25.5z" />
    <glyph glyph-name="t.sups" horiz-adv-x="247" 
d="M129 452q-25 20 -25 67q0 22 4 42l17 87h-36l19 95h37l14 70h117l-14 -70h63l-19 -95h-63l-16 -79l-2 -16q0 -14 7 -19.5t23 -5.5q10 0 27 3l-19 -94q-30 -5 -53 -5q-56 0 -81 20z" />
    <glyph glyph-name="u.sups" horiz-adv-x="402" 
d="M454 743l-61 -305h-113l6 30q-20 -19 -42 -29t-49 -10q-44 0 -67.5 25t-23.5 72q0 16 4 36l35 181h117l-33 -163q-2 -12 -2 -18q0 -18 8.5 -26t25.5 -8t27.5 10t14.5 31l35 174h118z" />
    <glyph glyph-name="v.sups" horiz-adv-x="371" 
d="M107 743h119l18 -167l84 167h134l-170 -305h-137z" />
    <glyph glyph-name="w.sups" horiz-adv-x="548" 
d="M638 743l-171 -305h-112l-15 150l-74 -150h-111l-48 305h118l11 -153l81 153h95l19 -153l74 153h133z" />
    <glyph glyph-name="x.sups" horiz-adv-x="392" 
d="M200 600l-89 143h126l36 -66l58 66h152l-148 -151l92 -154h-124l-43 71l-64 -71h-150z" />
    <glyph glyph-name="y.sups" horiz-adv-x="369" 
d="M460 743l-251 -425h-129l72 122l-45 303h118l12 -175l89 175h134z" />
    <glyph glyph-name="z.sups" horiz-adv-x="317" 
d="M249 532h113l-19 -94h-301l169 210h-114l19 95h296z" />
    <glyph glyph-name="zero.lf" horiz-adv-x="683" 
d="M177.5 13.5q-58.5 31.5 -87.5 88t-29 131.5q0 70 15 148q20 101 62 178t108.5 121t155.5 44q86 0 144.5 -31.5t87.5 -88t29 -131.5q0 -70 -15 -148q-20 -101 -62 -178t-108.5 -121t-155.5 -44q-86 0 -144.5 31.5zM422 185q36 60 55 156q16 78 16 134q0 50 -25 78t-75 28
q-54 0 -89.5 -59.5t-55.5 -156.5q-16 -78 -16 -134q0 -50 25 -78t75 -28q54 0 90 60z" />
    <glyph glyph-name="one.lf" horiz-adv-x="397" 
d="M204 557h-114l61 149h245l-141 -706h-162z" />
    <glyph glyph-name="two.lf" horiz-adv-x="598" 
d="M-30 3l356 339q37 36 59.5 61.5t37 52.5t14.5 54q0 35 -19.5 55t-60.5 20q-54 0 -81.5 -35t-37.5 -92h-159q23 124 96 195t199 71q117 0 175 -53t58 -146q0 -62 -26 -112t-77 -97q-78 -75 -194 -173h233l-28 -143h-546z" />
    <glyph glyph-name="three.lf" horiz-adv-x="599" 
d="M560 429q-40 -45 -111 -64q53 -19 77.5 -56t24.5 -93q0 -71 -37.5 -124t-104 -81.5t-149.5 -28.5q-131 0 -188 52t-57 153q0 30 8 72h154q-5 -30 -5 -48q0 -45 22.5 -69.5t74.5 -24.5q36 0 62 14t39.5 38t13.5 55q0 46 -28.5 68t-85.5 22h-12l22 110h21q69 0 101.5 27
t32.5 75q0 36 -21 55.5t-64 19.5q-47 0 -74 -27.5t-36 -73.5h-156q22 109 94.5 166.5t187.5 57.5q79 0 131.5 -23t77.5 -64t25 -94q0 -69 -40 -114z" />
    <glyph glyph-name="four.lf" horiz-adv-x="679" 
d="M641 146h-96l-29 -146h-161l29 146h-401l1 3l365 557h308l-84 -423h95zM412 283l73 368h-1l-228 -368h156z" />
    <glyph glyph-name="five.lf" horiz-adv-x="598" 
d="M318 566l-41 -107q34 7 71 7q108 0 161 -56.5t53 -154.5q0 -80 -37.5 -142t-104.5 -96.5t-154 -34.5q-126 0 -183 53.5t-57 151.5q0 29 6 65h158q-4 -21 -4 -45q0 -44 20.5 -67.5t67.5 -23.5q37 0 64 16.5t41 44.5t14 63q0 64 -43.5 93t-129.5 29q-33 0 -69.5 -3
t-66.5 -8l130 355h420l-58 -140h-258z" />
    </font>
</defs>
</svg>
