<?xml version="1.0" standalone="no"?>
<!DOCTYPE svg PUBLIC "-//W3C//DTD SVG 1.1//EN" "http://www.w3.org/Graphics/SVG/1.1/DTD/svg11.dtd" >
<svg xmlns="http://www.w3.org/2000/svg" xmlns:xlink="http://www.w3.org/1999/xlink" version="1.1">
<metadata>
Created by FontForge 20170731 at Mon Apr  9 23:07:49 2018
 By Aleksey,,,
Copyright (c) 2018 Monotype Imaging Inc. All rights reserved.
</metadata>
<defs>
<font id="NeuePlak-ExtendedUltraLight" horiz-adv-x="0" >
  <font-face 
    font-family="Neue Plak Extended Ultra Light"
    font-weight="400"
    font-stretch="expanded"
    units-per-em="1000"
    panose-1="2 11 2 5 3 2 2 2 2 4"
    ascent="768"
    descent="-232"
    x-height="472"
    cap-height="706"
    bbox="-825 -220 1222 1099"
    underline-thickness="50"
    underline-position="-200"
    unicode-range="U+000D-FEFF"
  />
<missing-glyph horiz-adv-x="694" 
d="M79 706h536v-706h-536v706zM607 8v690h-520v-690h520z" />
    <glyph glyph-name=".notdef" horiz-adv-x="694" 
d="M79 706h536v-706h-536v706zM607 8v690h-520v-690h520z" />
    <glyph glyph-name=".null" 
 />
    <glyph glyph-name="nonmarkingreturn" horiz-adv-x="333" 
 />
    <glyph glyph-name="NULL" 
 />
    <glyph glyph-name="NULL" 
 />
    <glyph glyph-name="CR" unicode="&#xd;" horiz-adv-x="205" 
 />
    <glyph glyph-name="space" unicode=" " horiz-adv-x="205" 
 />
    <glyph glyph-name="exclam" unicode="!" horiz-adv-x="264" 
d="M128 706h8v-547h-8v547zM120.5 -2.5q-4.5 4.5 -4.5 12.5q0 7 4.5 11t11.5 4t11.5 -4t4.5 -11q0 -8 -4 -12.5t-12 -4.5q-7 0 -11.5 4.5z" />
    <glyph glyph-name="quotedbl" unicode="&#x22;" horiz-adv-x="329" 
d="M101 706h8v-290h-8v290zM221 706h8v-290h-8v290z" />
    <glyph glyph-name="numbersign" unicode="#" horiz-adv-x="777" 
d="M570 471l-49 -236h180l-2 -8h-180l-50 -242h-8l50 242h-299l-50 -242h-8l50 242h-179l2 8h179l48 236h-178l2 8h178l50 242h8l-50 -242h299l50 242h9l-50 -242h180l-2 -8h-180zM561 471h-299l-48 -236h299z" />
    <glyph glyph-name="dollar" unicode="$" horiz-adv-x="744" 
d="M682 179q0 -42 -15 -75q-26 -58 -97.5 -88.5t-181.5 -30.5h-9v-104h-8v104q-108 2 -181.5 37.5t-104.5 104.5q-23 52 -23 123h8q0 -71 22 -119q30 -68 102 -102t177 -36v364q-74 11 -126.5 23t-94.5 35.5t-59 60.5q-12 29 -12 60q0 36 14 66q25 56 94.5 87.5t172.5 31.5
h11v104h8v-104q92 -4 158 -38t95 -98q21 -48 21 -113h-8q0 63 -20 109q-29 63 -93.5 96t-152.5 36v-348q1 -1 4 -1q83 -12 135 -24t93 -35t58 -61q13 -27 13 -65zM154.5 422q40.5 -22 91 -33.5t125.5 -22.5v347h-11q-101 0 -168 -30t-92 -85q-13 -29 -13 -62q0 -17 2.5 -30
t8.5 -26q16 -36 56.5 -58zM674 179q0 34 -12 61q-16 37 -56.5 59.5t-92 34t-132.5 22.5h-2v-363h9q108 0 177.5 29t94.5 86q14 33 14 71z" />
    <glyph glyph-name="percent" unicode="%" horiz-adv-x="779" 
d="M103.5 429.5q-35.5 19.5 -52.5 56.5q-13 30 -13 75t13 74q16 37 52 57t87 20t87 -20t52 -57q14 -28 14 -74t-14 -75q-17 -37 -52.5 -56.5t-86.5 -19.5t-86.5 19.5zM683 706h10l-597 -706h-10zM272.5 436.5q33.5 18.5 49.5 53.5q13 27 13 71q0 42 -13 71q-16 35 -50 53.5
t-82 18.5t-82 -18.5t-50 -53.5q-12 -30 -12 -71q0 -42 12 -71q16 -35 50 -53.5t82 -18.5q49 0 82.5 18.5zM502 14q-36 20 -52 57q-14 28 -14 74t14 75q17 37 52.5 56.5t86.5 19.5t86.5 -19.5t52.5 -56.5q14 -33 14 -75q0 -43 -14 -74q-16 -37 -52 -57t-87 -20t-87 20z
M671 21q34 19 50 54q13 31 13 70t-13 71q-16 35 -50 53.5t-82 18.5q-49 0 -82.5 -18.5t-49.5 -53.5q-13 -29 -13 -71q0 -43 13 -70q16 -35 49.5 -54t82.5 -19q48 0 82 19z" />
    <glyph glyph-name="ampersand" unicode="&#x26;" horiz-adv-x="773" 
d="M738 0q-42 0 -82.5 18t-90.5 62q-44 -47 -105 -71t-147 -24q-79 0 -137 20.5t-89.5 60t-31.5 95.5q0 53 27 92.5t70.5 67.5t106.5 56q-59 62 -85 107t-26 92q0 45 23.5 77.5t68.5 50t108 17.5q58 0 100.5 -15.5t65.5 -45t23 -70.5q0 -48 -30.5 -83t-75 -59.5
t-119.5 -56.5l-39 -17l67 -66l198 -192l26 -25q35 39 64 90.5t61 125.5l7 -4q-34 -77 -62 -128t-63 -89q48 -43 87.5 -60.5t79.5 -17.5v-8zM182 486.5q26 -44.5 85 -105.5l42 18q74 31 117.5 54.5t73 57t29.5 79.5q0 38 -22 66t-62.5 42.5t-96.5 14.5q-91 0 -141.5 -36
t-50.5 -101q0 -45 26 -89.5zM455 16.5q59 23.5 104 69.5l-27 25l-199 192l-25 25q-8 8 -19 18.5t-24 24.5q-62 -28 -105 -55.5t-70 -65.5t-27 -89q0 -53 30.5 -90.5t87 -57.5t133.5 -20q82 0 141 23.5z" />
    <glyph glyph-name="quotesingle" unicode="'" horiz-adv-x="209" 
d="M101 706h8v-290h-8v290z" />
    <glyph glyph-name="parenleft" unicode="(" horiz-adv-x="343" 
d="M162.5 18.5q-43.5 119.5 -43.5 259.5q0 272 171 481h11q-85 -101 -129.5 -221.5t-44.5 -259.5t44.5 -259.5t129.5 -221.5h-11q-84 102 -127.5 221.5z" />
    <glyph glyph-name="parenright" unicode=")" horiz-adv-x="343" 
d="M42 -203q85 101 129.5 221.5t44.5 259.5t-44.5 259.5t-129.5 221.5h11q171 -209 171 -481q0 -140 -43.5 -259.5t-127.5 -221.5h-11z" />
    <glyph glyph-name="asterisk" unicode="*" horiz-adv-x="380" 
d="M89 406l95 131l-154 50l2 7l154 -50v162h8v-162l154 50l2 -7l-154 -50l96 -131l-6 -5l-96 132l-95 -132z" />
    <glyph glyph-name="plus" unicode="+" horiz-adv-x="609" 
d="M547 265h-239v-228h-8v228h-239v8h239v228h8v-228h239v-8z" />
    <glyph glyph-name="comma" unicode="," horiz-adv-x="284" 
d="M163 155h8l-76 -322h-8z" />
    <glyph glyph-name="hyphen" unicode="-" horiz-adv-x="445" 
d="M61 273h322v-8h-322v8z" />
    <glyph glyph-name="period" unicode="." horiz-adv-x="246" 
d="M111.5 -2.5q-4.5 4.5 -4.5 12.5q0 7 4.5 11t11.5 4t11.5 -4t4.5 -11q0 -8 -4 -12.5t-12 -4.5q-7 0 -11.5 4.5z" />
    <glyph glyph-name="slash" unicode="/" horiz-adv-x="483" 
d="M430 721h9l-386 -771h-9z" />
    <glyph glyph-name="zero" unicode="0" horiz-adv-x="759" 
d="M206.5 28.5q-71.5 43.5 -107.5 124.5q-37 83 -37 200t37 200q36 81 107.5 124.5t173.5 43.5q101 0 172.5 -44t107.5 -124q37 -83 37 -200t-37 -200q-36 -80 -107.5 -124t-172.5 -44q-102 0 -173.5 43.5zM548.5 35.5q69.5 42.5 104.5 121.5q36 81 36 196t-36 196
q-35 79 -104.5 121.5t-168.5 42.5t-168.5 -42.5t-105.5 -121.5q-36 -81 -36 -196t36 -196q36 -79 105.5 -121.5t168.5 -42.5t168.5 42.5z" />
    <glyph glyph-name="one" unicode="1" horiz-adv-x="310" 
d="M197 698h-165l3 8h170v-706h-8v698z" />
    <glyph glyph-name="two" unicode="2" horiz-adv-x="618" 
d="M50 3l332 266q63 50 98 88t50.5 73.5t15.5 77.5q0 48 -17 87q-25 54 -80.5 85.5t-136.5 31.5q-86 0 -143 -34.5t-83 -93.5q-22 -48 -22 -112h-8q0 67 23 116q27 61 86.5 96.5t146.5 35.5q84 0 141 -32.5t83 -88.5q18 -40 18 -91q0 -43 -15.5 -79.5t-51.5 -76t-100 -89.5
l-227 -181l-92 -74h496v-8h-514v3z" />
    <glyph glyph-name="three" unicode="3" horiz-adv-x="667" 
d="M604 190q0 -49 -16 -85q-26 -57 -90.5 -88t-160.5 -31q-99 0 -164 32t-95 99q-27 60 -27 149h8q0 -87 26 -145q29 -65 92 -96t160 -31q94 0 156.5 30t87.5 85q15 35 15 81q0 41 -14 74q-25 57 -94 82.5t-186 25.5h-28v8h28q215 0 260 100q13 29 13 65q0 35 -14 65
q-22 49 -78.5 76t-141.5 27q-93 0 -155.5 -30t-89.5 -92q-22 -47 -22 -119h-8q0 38 5.5 68t17.5 55q28 64 92 95t160 31q87 0 145.5 -28t81.5 -79q15 -30 15 -69q0 -40 -14 -69q-18 -42 -67 -67.5t-133 -32.5q92 -5 145 -32t75 -76q15 -34 15 -78z" />
    <glyph glyph-name="four" unicode="4" horiz-adv-x="619" 
d="M604 217h-126v-217h-8v217h-459v4l457 485h10v-481h126v-8zM470 225v471h-1l-442 -471h443z" />
    <glyph glyph-name="five" unicode="5" horiz-adv-x="640" 
d="M84 107q-23 54 -23 126h8q0 -70 22 -122q28 -60 83.5 -89t143.5 -29q86 0 146.5 31.5t86.5 89.5q20 43 20 99q0 52 -19 95q-28 62 -93 93.5t-157 31.5q-54 0 -105.5 -10.5t-108.5 -32.5l62 316h381l-3 -8h-371l-59 -296q101 39 204 39q94 0 161 -33t96 -96q20 -45 20 -99
q0 -59 -21 -103q-28 -61 -90 -93t-150 -32q-180 0 -234 122z" />
    <glyph glyph-name="six" unicode="6" horiz-adv-x="687" 
d="M629 221q0 -51 -20 -97q-19 -42 -54.5 -73t-85 -48.5t-107.5 -17.5q-94 0 -161 40.5t-103 119.5q-36 78 -36 202q0 129 38 214q35 78 101 119t161 41q119 0 185 -68q25 -24 41.5 -59t22.5 -75h-8q-14 82 -61 129q-32 32 -77.5 48.5t-102.5 16.5q-93 0 -157 -40t-98 -116
q-37 -83 -37 -211q0 -57 7.5 -101.5t22.5 -85.5q-7 28 -7 58q0 53 19 97q30 66 94.5 103.5t153.5 37.5q90 0 155.5 -36.5t94.5 -101.5q19 -44 19 -96zM621 221q0 52 -18 92q-29 63 -92.5 98.5t-150.5 35.5t-149.5 -36t-91.5 -101q-18 -39 -18 -94q0 -48 17 -88
q28 -62 92.5 -98.5t151.5 -36.5q85 0 148.5 36.5t91.5 98.5q19 41 19 93z" />
    <glyph glyph-name="seven" unicode="7" horiz-adv-x="539" 
d="M508 698h-485v8h498l-392 -706h-10z" />
    <glyph glyph-name="eight" unicode="8" horiz-adv-x="694" 
d="M632 184q0 -42 -15 -75q-27 -60 -99 -92t-171 -32t-170.5 32t-98.5 92q-15 33 -15 75q0 40 14 73q22 49 76.5 78.5t128.5 37.5q-66 7 -112.5 34t-66.5 71q-13 29 -13 66t14 67q23 52 86.5 81t156.5 29t156.5 -29t86.5 -81q14 -30 14 -67t-13 -66q-19 -44 -66 -71
t-113 -34q74 -8 128.5 -37.5t76.5 -78.5q15 -31 15 -73zM196.5 402.5q62.5 -25.5 150.5 -25.5t150.5 25.5t86.5 79.5q12 27 12 62q0 37 -13 63q-22 51 -83 78.5t-153 27.5q-91 0 -152.5 -28t-83.5 -78q-13 -29 -13 -63q0 -35 12 -62q24 -54 86.5 -79.5zM624 184q0 39 -14 69
q-26 57 -96 86.5t-167 29.5q-96 0 -166.5 -29.5t-95.5 -86.5q-14 -30 -14 -69q0 -42 14 -71q26 -58 96 -89t166 -31t166.5 30.5t96.5 89.5q14 33 14 71z" />
    <glyph glyph-name="nine" unicode="9" horiz-adv-x="687" 
d="M625 360q0 -130 -39 -214q-35 -78 -100.5 -119t-160.5 -41q-117 0 -186 67q-24 25 -40.5 60t-23.5 75h8q7 -39 22.5 -72t39.5 -57q32 -32 77.5 -48.5t102.5 -16.5q92 0 156 40t98 116q38 82 38 211q0 57 -7.5 101.5t-22.5 85.5q7 -28 7 -58q0 -52 -20 -97
q-29 -66 -93.5 -103.5t-154.5 -37.5t-155 36.5t-94 101.5q-20 43 -20 96q0 51 20 97q19 42 55 73t85 48t108 17q93 0 160.5 -40t102.5 -119q37 -80 37 -202zM586 491q0 49 -18 88q-28 62 -92 98t-152 36q-85 0 -148 -36t-92 -98q-19 -44 -19 -93q0 -27 5 -49t14 -43
q28 -63 91.5 -98.5t150.5 -35.5t149.5 36t91.5 101q19 41 19 94z" />
    <glyph glyph-name="colon" unicode=":" horiz-adv-x="246" 
d="M111.5 -2.5q-4.5 4.5 -4.5 12.5q0 7 4.5 11t11.5 4t11.5 -4t4.5 -11q0 -8 -4 -12.5t-12 -4.5q-7 0 -11.5 4.5zM111.5 394.5q-4.5 4.5 -4.5 12.5q0 7 4.5 11t11.5 4t11.5 -4t4.5 -11q0 -8 -4 -12.5t-12 -4.5q-7 0 -11.5 4.5z" />
    <glyph glyph-name="semicolon" unicode=";" horiz-adv-x="298" 
d="M163 155h8l-76 -322h-8zM163.5 394.5q-4.5 4.5 -4.5 12.5q0 7 4.5 11t11.5 4t11.5 -4t4.5 -11q0 -8 -4 -12.5t-12 -4.5q-7 0 -11.5 4.5z" />
    <glyph glyph-name="less" unicode="&#x3c;" horiz-adv-x="609" 
d="M547 453l-478 -184l478 -183v-9l-486 187v10l486 188v-9z" />
    <glyph glyph-name="equal" unicode="=" horiz-adv-x="609" 
d="M61 377h486v-8h-486v8zM61 169h486v-8h-486v8z" />
    <glyph glyph-name="greater" unicode="&#x3e;" horiz-adv-x="609" 
d="M547 274v-10l-486 -187v9l478 183l-478 184v9z" />
    <glyph glyph-name="question" unicode="?" horiz-adv-x="579" 
d="M430.5 362.5q49.5 70.5 65.5 109.5t16 78q0 73 -52.5 118t-166.5 45q-80 0 -132.5 -26t-75.5 -77q-18 -40 -18 -101h-8q0 33 4.5 58t14.5 47q48 107 215 107q118 0 172.5 -47t54.5 -124q0 -40 -16 -79.5t-64.5 -108.5t-153.5 -203h-11q106 133 155.5 203.5zM268 -2.5
q-4 4.5 -4 12.5q0 7 4.5 11t11.5 4t11.5 -4t4.5 -11q0 -8 -4 -12.5t-12 -4.5t-12 4.5z" />
    <glyph glyph-name="at" unicode="@" horiz-adv-x="930" 
d="M866.5 397q7.5 -38 7.5 -83q0 -77 -24 -133q-24 -53 -70.5 -81.5t-112.5 -28.5h-22v138q-14 -68 -71.5 -105.5t-150.5 -37.5q-123 0 -155 69q-9 23 -9 45q0 26 9 47q17 37 68.5 53.5t135.5 16.5h173v15q0 29 -3 48t-10 36q-19 43 -59.5 61t-107.5 18q-65 0 -107.5 -16.5
t-60.5 -56.5q-10 -22 -11 -53h-8q2 35 12 57q20 42 65 59.5t110 17.5q68 0 111.5 -19t62.5 -64q8 -18 11 -38t3 -50v-233h14q64 0 108 27.5t68 78.5q23 54 23 129q0 85 -29 152q-43 93 -139.5 143.5t-230.5 50.5q-133 0 -229 -51.5t-140 -149.5q-34 -76 -34 -177
q0 -100 34 -177q46 -102 147 -157t242 -55q46 0 86 6v-8q-40 -6 -86 -6q-143 0 -246.5 56t-149.5 160q-35 76 -35 181q0 53 8.5 97t26.5 84q45 99 142.5 152t233.5 53q90 0 165 -23t129.5 -67.5t82.5 -107.5q15 -35 22.5 -73zM552.5 100.5q53.5 26.5 76.5 78.5
q9 20 12.5 42.5t3.5 56.5v11h-173q-82 0 -131.5 -15.5t-65.5 -50.5q-8 -19 -8 -43q0 -22 8 -41q30 -65 148 -65q76 0 129.5 26.5z" />
    <glyph glyph-name="A" unicode="A" horiz-adv-x="681" 
d="M552 243h-424l-112 -243h-9l328 706h11l328 -706h-9zM548 251l-207 447h-2l-207 -447h416z" />
    <glyph glyph-name="B" unicode="B" horiz-adv-x="657" 
d="M600 182q0 -46 -16 -81q-22 -50 -78 -75.5t-142 -25.5h-277v706h256q80 0 133.5 -25.5t75.5 -74.5q14 -34 14 -75q0 -45 -15 -78q-17 -37 -54 -61t-94 -32q141 -10 182 -99q15 -33 15 -79zM95 362h251q76 0 126.5 24t71.5 71q14 31 14 74q0 39 -13 71q-22 48 -73 72
t-129 24h-248v-336zM592 182q0 44 -14 75q-22 49 -75.5 73t-134.5 24h-273v-346h269q84 0 138 24t75 73q15 32 15 77z" />
    <glyph glyph-name="C" unicode="C" horiz-adv-x="847" 
d="M221 35q-89 50 -131 142q-34 72 -34 176t34 176q42 92 131 142t217 50q86 0 155 -23.5t116 -65.5q37 -34 58 -80t25 -102h-8q-4 54 -24.5 99t-55.5 77q-46 41 -114 64t-152 23q-126 0 -213.5 -49t-127.5 -139q-33 -72 -33 -172t33 -172q40 -90 127.5 -139t213.5 -49
q87 0 154.5 22t112.5 63q38 36 58 82t24 106h8q-4 -62 -24.5 -109t-60.5 -85q-46 -42 -115.5 -64.5t-156.5 -22.5q-128 0 -217 50z" />
    <glyph glyph-name="D" unicode="D" horiz-adv-x="774" 
d="M87 706h262q127 0 213 -47t125 -134q32 -73 32 -172t-32 -172q-40 -87 -126 -134t-212 -47h-262v706zM349 8q125 0 208.5 46t122.5 131q31 71 31 168t-31 168q-38 85 -122 131t-209 46h-254v-690h254z" />
    <glyph glyph-name="E" unicode="E" horiz-adv-x="601" 
d="M87 706h458v-8h-450v-336h447v-8h-447v-346h450v-8h-458v706z" />
    <glyph glyph-name="F" unicode="F" horiz-adv-x="501" 
d="M87 706h369v-8h-361v-336h359v-8h-359v-354h-8v706z" />
    <glyph glyph-name="G" unicode="G" horiz-adv-x="863" 
d="M807 348v-16q0 -94 -31 -165q-40 -87 -126 -134.5t-212 -47.5q-128 0 -217 50t-131 142q-34 72 -34 176t34 176q42 93 131.5 142.5t221.5 49.5q84 0 152 -21.5t115 -63.5q37 -34 59 -80.5t27 -105.5h-8q-12 115 -84 180q-46 42 -112.5 62.5t-148.5 20.5
q-129 0 -217.5 -49t-128.5 -139q-33 -72 -33 -172t33 -172q40 -90 127.5 -139t213.5 -49q124 0 208.5 46.5t122.5 131.5q30 68 30 161v8h-308v8h316z" />
    <glyph glyph-name="H" unicode="H" horiz-adv-x="710" 
d="M87 706h8v-344h520v344h8v-706h-8v354h-520v-354h-8v706z" />
    <glyph glyph-name="I" unicode="I" horiz-adv-x="182" 
d="M87 706h8v-706h-8v706z" />
    <glyph glyph-name="J" unicode="J" horiz-adv-x="331" 
d="M13 0v8q27 -4 62 -4q57 0 92.5 17.5t52.5 55.5t17 99v530h8v-530q0 -95 -41 -137.5t-129 -42.5q-35 0 -62 4z" />
    <glyph glyph-name="K" unicode="K" horiz-adv-x="549" 
d="M526 0l-431 386v-386h-8v706h8v-315l380 315h13l-385 -317l435 -389h-12z" />
    <glyph glyph-name="L" unicode="L" horiz-adv-x="437" 
d="M87 706h8v-698h329v-8h-337v706z" />
    <glyph glyph-name="M" unicode="M" horiz-adv-x="902" 
d="M87 706h12l352 -694l351 694h13v-706h-8v697l-353 -697h-6l-353 697v-697h-8v706z" />
    <glyph glyph-name="N" unicode="N" horiz-adv-x="747" 
d="M87 706h9l556 -695v695h8v-706h-9l-556 695v-695h-8v706z" />
    <glyph glyph-name="O" unicode="O" horiz-adv-x="875" 
d="M219.5 35q-88.5 50 -129.5 141q-34 75 -34 177t34 177q41 91 129.5 141t218.5 50q129 0 217.5 -50t129.5 -141q34 -72 34 -177t-34 -177q-41 -91 -129.5 -141t-217.5 -50q-130 0 -218.5 50zM651 42q87 49 127 138q33 70 33 173t-33 173q-40 89 -127 138t-213 49
q-127 0 -214 -49t-127 -138q-33 -73 -33 -173t33 -173q40 -89 127 -138t214 -49q126 0 213 49z" />
    <glyph glyph-name="P" unicode="P" horiz-adv-x="629" 
d="M87 706h281q83 0 136 -23.5t75 -72.5q15 -33 15 -80t-15 -80q-22 -49 -75 -72.5t-136 -23.5h-273v-354h-8v706zM368 362q81 0 132 22.5t72 69.5q14 31 14 76t-14 76q-21 48 -72 70t-132 22h-273v-336h273z" />
    <glyph glyph-name="Q" unicode="Q" horiz-adv-x="875" 
d="M819 353q0 -105 -34 -177q-32 -70 -91.5 -116t-144.5 -64l120 -160l-6 -5l-122 163q-48 -9 -103 -9q-130 0 -218.5 50t-129.5 141q-34 75 -34 177t34 177q41 91 129.5 141t218.5 50q129 0 217.5 -50t129.5 -141q34 -72 34 -177zM811 353q0 103 -33 173q-40 89 -127 138
t-213 49q-127 0 -214 -49t-127 -138q-33 -73 -33 -173t33 -173q40 -89 127 -138t214 -49q49 0 97 8l-90 121l7 4l92 -123q84 17 143.5 62.5t90.5 114.5q33 70 33 173z" />
    <glyph glyph-name="R" unicode="R" horiz-adv-x="667" 
d="M281 354h-186v-354h-8v706h308q83 0 136 -23.5t75 -72.5q15 -33 15 -80t-15 -80q-22 -49 -75 -72.5t-136 -23.5h-103l372 -354h-12zM95 362h300q80 0 131.5 22.5t72.5 69.5q14 31 14 76t-14 76q-21 48 -72 70t-132 22h-300v-336z" />
    <glyph glyph-name="S" unicode="S" horiz-adv-x="732" 
d="M187.5 20.5q-76.5 35.5 -108.5 106.5q-12 26 -17.5 56t-5.5 67h8q0 -71 22 -119q31 -69 106 -103.5t190 -34.5q107 0 177 31.5t95 88.5q14 28 14 69q0 35 -11 58q-17 38 -59 61t-94.5 34.5t-131.5 21.5q-84 12 -133.5 22.5t-90.5 32.5t-58 58q-11 25 -11 57q0 36 14 67
q17 38 53 66.5t89 44.5t119 16q100 0 168 -35t98 -100q22 -48 22 -114h-8q0 64 -21 110q-29 64 -95 97.5t-164 33.5t-163.5 -33.5t-90.5 -89.5q-13 -31 -13 -63q0 -16 2.5 -28t7.5 -25q16 -35 55.5 -55.5t87.5 -31t132 -22.5q82 -11 135 -22.5t96.5 -35.5t61.5 -64
q11 -27 11 -61q0 -40 -15 -73q-27 -59 -99 -91.5t-180 -32.5q-118 0 -194.5 35.5z" />
    <glyph glyph-name="T" unicode="T" horiz-adv-x="538" 
d="M265 698h-252v8h512v-8h-252v-698h-8v698z" />
    <glyph glyph-name="U" unicode="U" horiz-adv-x="700" 
d="M147 46.5q-65 61.5 -65 194.5v465h8v-465q0 -86 27.5 -141t85 -81t147.5 -26q91 0 148 26t84.5 81t27.5 141v465h8v-465q0 -89 -28.5 -145.5t-87.5 -83.5t-152 -27q-138 0 -203 61.5z" />
    <glyph glyph-name="V" unicode="V" horiz-adv-x="680" 
d="M673 706l-328 -706h-10l-328 706h9l324 -698l324 698h9z" />
    <glyph glyph-name="W" unicode="W" horiz-adv-x="1035" 
d="M1028 706l-256 -706h-10l-244 696l-245 -696h-9l-257 706h8l253 -695l245 695h10l244 -696l253 696h8z" />
    <glyph glyph-name="X" unicode="X" horiz-adv-x="733" 
d="M360 372l-314 334h11l309 -329l311 329h11l-316 -334l350 -372h-11l-345 367l-344 -367h-11z" />
    <glyph glyph-name="Y" unicode="Y" horiz-adv-x="629" 
d="M311 303l-304 403h11l297 -395l296 395h11l-303 -403v-303h-8v303z" />
    <glyph glyph-name="Z" unicode="Z" horiz-adv-x="673" 
d="M605 698h-562v8h579l-583 -698h600v-8h-617z" />
    <glyph glyph-name="bracketleft" unicode="[" horiz-adv-x="355" 
d="M148 759h175v-8h-167v-946h167v-8h-175v962z" />
    <glyph glyph-name="backslash" unicode="\" horiz-adv-x="483" 
d="M430 -50l-386 771h9l386 -771h-9z" />
    <glyph glyph-name="bracketright" unicode="]" horiz-adv-x="355" 
d="M32 -203v8h166v946h-166v8h174v-962h-174z" />
    <glyph glyph-name="asciicircum" unicode="^" horiz-adv-x="454" 
d="M406 364l-179 336l-179 -336h-9l182 342h11l183 -342h-9z" />
    <glyph glyph-name="underscore" unicode="_" horiz-adv-x="533" 
d="M0 -121h534v-8h-534v8z" />
    <glyph glyph-name="grave" unicode="`" horiz-adv-x="235" 
d="M175 551l-125 155h10l125 -155h-10z" />
    <glyph glyph-name="a" unicode="a" horiz-adv-x="584" 
d="M510 277v-277h-8v162q-16 -83 -81.5 -129t-177.5 -46q-139 0 -177 81q-12 26 -12 57q0 16 3 28t9 26q20 39 78.5 57t169.5 18h188v23q0 62 -18 105q-20 47 -67.5 71t-128.5 24q-151 0 -189 -86q-14 -31 -14 -68h-8q0 39 15 72q40 90 197 90q81 0 130.5 -24.5t71.5 -74.5
q19 -45 19 -109zM395.5 28.5q59.5 33.5 85.5 93.5q12 24 16.5 50.5t4.5 66.5v7h-188q-109 0 -165.5 -16.5t-75.5 -54.5q-5 -14 -8 -25t-3 -25q0 -28 11 -53q17 -37 59.5 -57t110.5 -20q93 0 152.5 33.5z" />
    <glyph glyph-name="b" unicode="b" horiz-adv-x="637" 
d="M594 236q0 -64 -23 -116q-28 -62 -89.5 -97t-147.5 -35q-63 0 -114.5 19.5t-86 59t-46.5 97.5v-164h-8v706h8v-398q12 58 46.5 97.5t86 59.5t114.5 20q86 0 147.5 -35t89.5 -98q23 -52 23 -116zM586 236q0 62 -22 112q-27 61 -86.5 95t-143.5 34q-70 0 -126 -26.5
t-88.5 -79t-32.5 -128.5v-13q0 -76 32.5 -128.5t88 -79t126.5 -26.5q84 0 143.5 33.5t86.5 94.5q22 50 22 112z" />
    <glyph glyph-name="c" unicode="c" horiz-adv-x="580" 
d="M155 22.5q-61 34.5 -89 97.5q-23 49 -23 116q0 68 23 117q29 63 90 97.5t144 34.5q54 0 100 -15t78 -44q52 -47 58 -123h-8q-6 72 -56 117q-30 27 -74.5 42t-97.5 15q-81 0 -140 -33.5t-87 -94.5q-22 -47 -22 -113q0 -65 22 -112q28 -61 87 -94.5t140 -33.5
q54 0 98.5 14.5t75.5 42.5q49 44 55 117h8q-6 -74 -58 -123q-32 -29 -78 -44t-101 -15q-84 0 -145 34.5z" />
    <glyph glyph-name="d" unicode="d" horiz-adv-x="637" 
d="M558 706v-706h-8v168q-11 -59 -45.5 -99t-86.5 -60.5t-116 -20.5q-86 0 -147 35t-89 97q-23 49 -23 116t23 116q28 63 89 98t147 35q64 0 116 -20.5t86.5 -61t45.5 -99.5v402h8zM429 22.5q56 26.5 88.5 79t32.5 128.5v13q0 76 -32.5 128.5t-88.5 79t-127 26.5
q-83 0 -142.5 -34t-86.5 -95q-22 -47 -22 -112t22 -112q27 -61 86 -94.5t143 -33.5q71 0 127 26.5z" />
    <glyph glyph-name="e" unicode="e" horiz-adv-x="610" 
d="M557 174h8q-9 -74 -61 -123q-34 -31 -83.5 -47.5t-111.5 -16.5q-89 0 -152 35.5t-92 99.5q-22 48 -22 116q0 67 23 114q28 64 90 98.5t151 34.5q88 0 149 -33.5t88 -95.5q23 -49 23 -110h-516v-8q0 -66 22 -113q27 -61 88.5 -95.5t147.5 -34.5q60 0 108.5 16t81.5 46
q49 48 58 117zM51 254h508q-2 51 -22 98q-27 60 -86 92.5t-144 32.5q-86 0 -146.5 -33.5t-87.5 -95.5q-19 -39 -22 -94z" />
    <glyph glyph-name="f" unicode="f" horiz-adv-x="351" 
d="M132 464h-106v8h106v90q0 150 131 150q33 0 59 -6v-8q-26 6 -59 6q-61 0 -92 -34.5t-31 -107.5v-90h181v-8h-181v-464h-8v464z" />
    <glyph glyph-name="g" unicode="g" horiz-adv-x="637" 
d="M558 472v-464q0 -60 -21 -110q-26 -57 -84.5 -85t-142.5 -28q-63 0 -112.5 14.5t-81.5 44.5q-51 46 -51 123h8q0 -37 12.5 -67t36.5 -51q30 -28 78.5 -42t109.5 -14q82 0 138 26.5t82 82.5q20 46 20 106v161q-11 -59 -45.5 -99.5t-86.5 -61t-116 -20.5q-86 0 -147 35
t-89 97q-23 49 -23 116t23 116q28 63 89 98t147 35q64 0 116 -20.5t86.5 -61t45.5 -99.5v168h8zM429 22.5q56 26.5 88.5 79t32.5 128.5v13q0 76 -32.5 128.5t-88.5 79t-127 26.5q-83 0 -142.5 -34t-86.5 -95q-22 -47 -22 -112t22 -112q27 -61 86 -94.5t143 -33.5
q71 0 127 26.5z" />
    <glyph glyph-name="h" unicode="h" horiz-adv-x="591" 
d="M463.5 427.5q54.5 -57.5 54.5 -170.5v-257h-8v257q0 109 -52.5 164.5t-152.5 55.5q-69 0 -118 -26.5t-74.5 -76.5t-25.5 -120v-254h-8v706h8v-385q18 83 75.5 123.5t142.5 40.5q104 0 158.5 -57.5z" />
    <glyph glyph-name="i" unicode="i" horiz-adv-x="166" 
d="M71.5 620.5q-4.5 4.5 -4.5 11.5t4.5 11.5t11.5 4.5t11.5 -4.5t4.5 -11.5t-4.5 -11.5t-11.5 -4.5t-11.5 4.5zM79 472h8v-472h-8v472z" />
    <glyph glyph-name="j" unicode="j" horiz-adv-x="164" 
d="M68.5 620.5q-4.5 4.5 -4.5 11.5t4.5 11.5t11.5 4.5t11.5 -4.5t4.5 -11.5t-4.5 -11.5t-11.5 -4.5t-11.5 4.5zM-61 -203v8q21 -2 43 -2q50 0 72.5 24.5t22.5 80.5v564h8v-564q0 -59 -25 -86t-78 -27q-22 0 -43 2z" />
    <glyph glyph-name="k" unicode="k" horiz-adv-x="432" 
d="M416 0l-329 263v-263h-8v706h8v-436l296 202h14l-302 -205l334 -267h-13z" />
    <glyph glyph-name="l" unicode="l" horiz-adv-x="166" 
d="M79 706h8v-706h-8v706z" />
    <glyph glyph-name="m" unicode="m" horiz-adv-x="968" 
d="M798 459.5q47 -25.5 71.5 -74t24.5 -116.5v-269h-8v269q0 99 -52.5 153.5t-149.5 54.5q-61 0 -104.5 -23t-66.5 -67.5t-23 -106.5v-280h-8v269q0 99 -52.5 153.5t-148.5 54.5q-64 0 -107.5 -24.5t-65 -68.5t-21.5 -104v-280h-8v472h8v-130q17 73 68 108t126 35
q88 0 141 -44.5t64 -125.5q6 58 33.5 96t70 56t94.5 18q67 0 114 -25.5z" />
    <glyph glyph-name="n" unicode="n" horiz-adv-x="591" 
d="M463.5 427.5q54.5 -57.5 54.5 -170.5v-257h-8v257q0 109 -52.5 164.5t-152.5 55.5q-69 0 -118 -26.5t-74.5 -76.5t-25.5 -120v-254h-8v472h8v-151q18 83 75.5 123.5t142.5 40.5q104 0 158.5 -57.5z" />
    <glyph glyph-name="o" unicode="o" horiz-adv-x="613" 
d="M156 23q-62 35 -90 98q-23 49 -23 115q0 68 23 115q28 63 90 98.5t151 35.5t151 -35.5t90 -98.5q23 -51 23 -115q0 -63 -23 -115q-28 -63 -90.5 -98t-150.5 -35q-89 0 -151 35zM453.5 30q60.5 34 87.5 95q22 50 22 111q0 62 -22 111q-27 62 -87.5 96t-146.5 34
t-146.5 -34t-87.5 -96q-22 -45 -22 -111q0 -64 22 -111q27 -61 87.5 -95t146.5 -34t146.5 34z" />
    <glyph glyph-name="p" unicode="p" horiz-adv-x="637" 
d="M594 236q0 -64 -23 -116q-28 -62 -89.5 -97t-147.5 -35q-63 0 -114.5 19.5t-86 59.5t-46.5 98v-368h-8v675h8v-164q12 58 46.5 98t86 59.5t114.5 19.5q86 0 147.5 -35t89.5 -98q23 -52 23 -116zM586 236q0 62 -22 112q-27 61 -86.5 95t-143.5 34q-71 0 -126.5 -26.5
t-88 -79t-32.5 -128.5v-13q0 -76 32.5 -128.5t88 -79t126.5 -26.5q84 0 143.5 33.5t86.5 94.5q22 50 22 112z" />
    <glyph glyph-name="q" unicode="q" horiz-adv-x="637" 
d="M558 472v-675h-8v372q-11 -59 -45.5 -99.5t-86.5 -61t-116 -20.5q-86 0 -147 35t-89 97q-23 49 -23 116t23 116q28 63 89 98t147 35q64 0 116 -20.5t86.5 -61t45.5 -99.5v168h8zM429 22.5q56 26.5 88.5 79t32.5 128.5v13q0 76 -32.5 128.5t-88.5 79t-127 26.5
q-83 0 -142.5 -34t-86.5 -95q-22 -47 -22 -112t22 -112q27 -61 86 -94.5t143 -33.5q71 0 127 26.5z" />
    <glyph glyph-name="r" unicode="r" horiz-adv-x="322" 
d="M300 472v-8q-24 7 -58 7q-77 0 -116 -40t-39 -112v-319h-8v472h8v-97q12 49 51.5 76.5t103.5 27.5q34 0 58 -7z" />
    <glyph glyph-name="s" unicode="s" horiz-adv-x="513" 
d="M134 13q-51 26 -73 74q-8 17 -11.5 36t-3.5 44h8q0 -24 3.5 -42t10.5 -34q21 -46 70.5 -71t121.5 -25q74 0 122.5 22t66.5 61q10 20 10 48q0 21 -8 40q-11 23 -38.5 37t-62.5 21t-92 15q-55 8 -88 15.5t-58.5 22.5t-36.5 39q-8 21 -8 43q0 27 10 48q17 37 60 57.5
t108 20.5q69 0 117.5 -23.5t68.5 -68.5q14 -31 14 -70h-8q0 37 -13 66q-19 43 -65.5 65.5t-113.5 22.5q-62 0 -103.5 -19.5t-57.5 -54.5q-9 -19 -9 -44q0 -22 7 -39q10 -23 35 -37t57.5 -21.5t85.5 -14.5t91 -15t67 -23t40 -39q9 -21 9 -44q0 -28 -11 -52q-18 -41 -69 -64
t-127 -23q-75 0 -126 26z" />
    <glyph glyph-name="t" unicode="t" horiz-adv-x="376" 
d="M161 26.5q-33 36.5 -33 100.5v337h-102v8h102v120h8v-120h211v-8h-211v-337q0 -60 31 -94.5t90 -34.5q20 0 42 3t42 9v-8q-20 -6 -42.5 -9t-42.5 -3q-62 0 -95 36.5z" />
    <glyph glyph-name="u" unicode="u" horiz-adv-x="591" 
d="M512 472v-472h-8v151q-18 -83 -75.5 -123t-141.5 -40q-104 0 -158.5 57t-54.5 170v257h8v-257q0 -110 52 -164.5t153 -54.5q69 0 117.5 26.5t74 76t25.5 119.5v254h8z" />
    <glyph glyph-name="v" unicode="v" horiz-adv-x="522" 
d="M19 472h9l233 -464l232 464h9l-236 -472h-10z" />
    <glyph glyph-name="w" unicode="w" horiz-adv-x="790" 
d="M770 472l-198 -472h-10l-165 463l-166 -463h-10l-202 472h9l198 -463l166 463h10l165 -463l194 463h9z" />
    <glyph glyph-name="x" unicode="x" horiz-adv-x="501" 
d="M244 234l-232 238h11l227 -232l228 232h11l-233 -238l231 -234h-11l-226 229l-227 -229h-11z" />
    <glyph glyph-name="y" unicode="y" horiz-adv-x="531" 
d="M512 472l-256 -472l-111 -203h-9l116 211l-233 464h9l229 -455l246 455h9z" />
    <glyph glyph-name="z" unicode="z" horiz-adv-x="497" 
d="M475 8v-8h-461l437 464h-402v8h421l-437 -464h442z" />
    <glyph glyph-name="braceleft" unicode="{" horiz-adv-x="373" 
d="M181 334.5q-7 -26.5 -25.5 -40t-55.5 -16.5q37 -3 55.5 -16.5t25.5 -40t7 -75.5v-230q0 -52 25.5 -81.5t83.5 -29.5h44v-8h-44q-61 0 -89 32t-28 87v230q0 54 -7.5 79.5t-33 37t-79.5 11.5v8q54 0 79.5 11.5t33 37t7.5 79.5v230q0 55 28 87t89 32h44v-8h-44
q-58 0 -83.5 -29.5t-25.5 -81.5v-230q0 -49 -7 -75.5z" />
    <glyph glyph-name="bar" unicode="|" horiz-adv-x="321" 
d="M157 756h8v-959h-8v959z" />
    <glyph glyph-name="braceright" unicode="}" horiz-adv-x="373" 
d="M200.5 330.5q7.5 -25.5 33 -37t79.5 -11.5v-8q-54 0 -79.5 -11.5t-33 -37t-7.5 -79.5v-230q0 -55 -28.5 -87t-89.5 -32h-43v8h43q110 0 110 111v230q0 49 6.5 75.5t25 40t55.5 16.5q-37 3 -55.5 16.5t-25 40t-6.5 75.5v230q0 111 -110 111h-43v8h43q61 0 89.5 -32
t28.5 -87v-230q0 -54 7.5 -79.5z" />
    <glyph glyph-name="asciitilde" unicode="~" horiz-adv-x="609" 
d="M372 197q-21 11 -35 26t-37 44q-21 27 -35 42t-33.5 25.5t-44.5 10.5q-51 0 -77 -43t-30 -113h-8q3 73 31.5 118.5t83.5 45.5q27 0 48 -11t35.5 -26.5t36.5 -44.5q21 -26 35 -41t33.5 -25.5t44.5 -10.5q51 0 77 42.5t30 112.5h8q-3 -72 -31.5 -117.5t-83.5 -45.5
q-27 0 -48 11z" />
    <glyph glyph-name="uni00A0" unicode="&#xa0;" horiz-adv-x="205" 
 />
    <glyph glyph-name="exclamdown" unicode="&#xa1;" horiz-adv-x="264" 
d="M120.5 457.5q-4.5 4.5 -4.5 11.5t4.5 11.5t11.5 4.5q8 0 12 -4t4 -12q0 -7 -4 -11.5t-12 -4.5q-7 0 -11.5 4.5zM128 319h8v-522h-8v522z" />
    <glyph glyph-name="cent" unicode="&#xa2;" horiz-adv-x="580" 
d="M537 287q-6 -74 -58 -123q-31 -28 -76 -43t-99 -16v-105h-8v105q-82 1 -142 35.5t-88 96.5q-23 49 -23 116q0 68 23 117q28 63 88 97t142 35v104h8v-104q53 -1 97.5 -16t76.5 -43q52 -47 58 -123h-8q-6 72 -56 117q-29 27 -72.5 41.5t-95.5 15.5v-481q52 1 96 15.5
t74 41.5q49 44 55 117h8zM159 147q58 -33 137 -34v481q-79 -1 -137 -34t-86 -94q-22 -47 -22 -113q0 -65 22 -112q28 -61 86 -94z" />
    <glyph glyph-name="sterling" unicode="&#xa3;" horiz-adv-x="698" 
d="M645 250q-2 -84 -25 -137q-26 -58 -84.5 -85.5t-158.5 -27.5h-332v8h130v341h-130v8h130v81q0 54 6.5 95t21.5 73q26 58 78.5 86.5t134.5 28.5q79 0 127.5 -26.5t72.5 -79.5q24 -52 26 -143h-8q-2 88 -25 139q-23 52 -69.5 77t-123.5 25q-80 0 -130.5 -27.5t-75.5 -83.5
q-27 -60 -27 -164v-81h249v-8h-249v-341h194q98 0 154.5 26.5t81.5 82.5q22 51 24 133h8z" />
    <glyph glyph-name="currency" unicode="&#xa4;" horiz-adv-x="613" 
d="M479 195l92 -85h-11l-86 80q-65 -53 -167 -53q-51 0 -93.5 13.5t-73.5 38.5l-86 -79h-12l92 85q-30 27 -46 63q-19 39 -19 95t19 95q16 36 46 63l-92 86h12l87 -80q30 25 72.5 38.5t93.5 13.5q50 0 92.5 -13.5t73.5 -38.5l87 80h11l-92 -85q31 -28 47 -64q18 -40 18 -95
q0 -54 -18 -95q-17 -38 -47 -63zM175 175.5q55 -30.5 132 -30.5t131.5 30.5t80.5 86.5q17 40 17 91q0 52 -17 91q-26 56 -80.5 86.5t-131.5 30.5t-132 -30.5t-80 -86.5q-18 -37 -18 -91q0 -52 18 -91q25 -56 80 -86.5z" />
    <glyph glyph-name="yen" unicode="&#xa5;" horiz-adv-x="627" 
d="M320 330h243v-8h-245v-87h245v-8h-245v-227h-8v227h-246v8h246v87h-246v8h244l-302 376h11l297 -370l296 370h11z" />
    <glyph glyph-name="brokenbar" unicode="&#xa6;" horiz-adv-x="321" 
d="M157 756h8v-329h-8v329zM157 127h8v-330h-8v330z" />
    <glyph glyph-name="section" unicode="&#xa7;" horiz-adv-x="531" 
d="M361.5 57.5q32.5 -11.5 59.5 -30t39 -45.5t12 -56q0 -30 -12 -57q-18 -41 -68 -62.5t-123 -21.5q-74 0 -124 25t-71 72q-14 33 -14 78h8q0 -24 3 -41t10 -33q20 -45 68.5 -69t119.5 -24q72 0 119.5 20.5t64.5 59.5q11 24 11 53q0 30 -11 52q-12 26 -38 44t-57 29t-82 25
q-60 18 -95 30.5t-66 35t-46 55.5q-14 31 -14 70q0 17 3 30.5t9 28.5q20 43 71 65.5t121 22.5q42 0 78 -9l-73 23q-49 14 -82.5 26.5t-60 31.5t-38.5 46q-11 25 -11 54t10 52q17 38 62 58t110 20q72 0 121.5 -24t69.5 -69q14 -31 14 -69h-8q0 36 -13 65q-19 43 -66.5 66
t-117.5 23q-63 0 -106 -19t-59 -55q-9 -21 -9 -48q0 -29 10 -50q12 -26 37.5 -44t56.5 -30t81 -26q53 -15 88.5 -29t65.5 -35.5t44 -52.5q13 -31 13 -67t-12 -62q-21 -46 -73.5 -68t-121.5 -22q-42 0 -78 11q18 -7 41 -14t45 -13q52 -15 84.5 -26.5zM147 131.5
q50 -23.5 122 -23.5q68 0 118.5 21t69.5 65q11 24 11 58t-12 63q-21 45 -73 68t-124 23q-68 0 -117.5 -21.5t-67.5 -62.5q-11 -27 -11 -55q0 -40 13 -66q21 -46 71 -69.5z" />
    <glyph glyph-name="dieresis" unicode="&#xa8;" horiz-adv-x="337" 
d="M54.5 621.5q-4.5 4.5 -4.5 11.5t4.5 11.5t11.5 4.5t11.5 -4.5t4.5 -11.5t-4.5 -11.5t-11.5 -4.5t-11.5 4.5zM259.5 621.5q-4.5 4.5 -4.5 11.5t4.5 11.5t11.5 4.5t11.5 -4.5t4.5 -11.5t-4.5 -11.5t-11.5 -4.5t-11.5 4.5z" />
    <glyph glyph-name="copyright" unicode="&#xa9;" horiz-adv-x="903" 
d="M292.5 9.5q-72.5 24.5 -124 70t-79.5 108.5q-17 36 -25 76.5t-8 88.5t8 88.5t25 76.5q28 63 79.5 108.5t124 70t159.5 24.5t159 -24.5t123.5 -70t80.5 -108.5q16 -37 24 -77t8 -88t-8 -88t-24 -77q-29 -63 -80.5 -108.5t-123.5 -70t-159 -24.5t-159.5 24.5zM608 17
q70 24 121 68.5t79 106.5q31 69 31 161t-31 161q-28 62 -79 106.5t-121 68.5t-156 24t-156.5 -24t-121 -68.5t-78.5 -106.5q-32 -68 -32 -161t32 -161q28 -62 78.5 -106.5t121 -68.5t156.5 -24t156 24zM311.5 143.5q-58.5 32.5 -86.5 93.5q-22 50 -22 117t22 117
q28 60 86.5 92.5t142.5 32.5q57 0 102.5 -15t75.5 -42q27 -25 40.5 -56t15.5 -71h-8q-3 39 -15.5 68.5t-37.5 52.5q-30 26 -74.5 40.5t-98.5 14.5q-81 0 -138 -31.5t-83 -89.5q-22 -50 -22 -113q0 -64 22 -113q26 -59 83 -90.5t138 -31.5q56 0 100.5 14t74.5 41
q25 23 37.5 52.5t14.5 68.5h8q-2 -41 -15.5 -72t-39.5 -55q-30 -27 -76 -42t-104 -15q-84 0 -142.5 32.5z" />
    <glyph glyph-name="ordfeminine" unicode="&#xaa;" horiz-adv-x="410" 
d="M359 574v-200h-8v111q-12 -57 -58 -88.5t-125 -31.5q-48 0 -79 15t-43 42q-8 19 -8 41q0 18 8 36q14 31 56.5 46t120.5 15h128v14q0 43 -13 69q-14 32 -46.5 47.5t-88.5 15.5q-106 0 -132 -58q-9 -19 -9 -47h-8q0 30 10 51q28 62 139 62q58 0 93 -17t49 -50
q14 -28 14 -73zM336 460q8 18 11.5 36.5t3.5 46.5v9h-128q-75 0 -116 -14t-54 -43q-7 -14 -7 -32q0 -22 7 -37q12 -25 40.5 -39t74.5 -14q129 0 168 87z" />
    <glyph glyph-name="guillemotleft" unicode="&#xab;" horiz-adv-x="422" 
d="M29 269l191 157h13l-191 -157l191 -157h-13zM189 269l191 157h13l-191 -157l191 -157h-13z" />
    <glyph glyph-name="logicalnot" unicode="&#xac;" horiz-adv-x="609" 
d="M539 401h-478v8h486v-372h-8v364z" />
    <glyph glyph-name="uni00AD" unicode="&#xad;" horiz-adv-x="445" 
d="M61 273h322v-8h-322v8z" />
    <glyph glyph-name="registered" unicode="&#xae;" horiz-adv-x="500" 
d="M458 512q0 -51 -18 -92q-23 -52 -72 -80.5t-118 -28.5t-117.5 28.5t-71.5 80.5q-18 41 -18 92q0 53 18 92q23 52 71.5 80.5t117.5 28.5t118 -28.5t72 -80.5q18 -39 18 -92zM450 512q0 51 -17 88q-23 51 -69.5 78t-113.5 27q-66 0 -112.5 -27t-69.5 -78q-17 -37 -17 -88
t17 -88q23 -51 69.5 -78t112.5 -27q67 0 113.5 27t69.5 78q17 37 17 88zM345.5 523.5q-14.5 -14.5 -43.5 -19.5q28 -5 40.5 -22.5t12.5 -50.5v-44h-8v44q0 39 -18.5 54t-64.5 15h-114v-113h-8v250h120q49 0 73.5 -17t24.5 -53q0 -29 -14.5 -43.5zM329.5 521.5
q22.5 13.5 22.5 45.5t-22 47t-68 15h-112v-121h111q46 0 68.5 13.5z" />
    <glyph glyph-name="macron" unicode="&#xaf;" horiz-adv-x="423" 
d="M50 631h323v-8h-323v8z" />
    <glyph glyph-name="degree" unicode="&#xb0;" horiz-adv-x="292" 
d="M82 490.5q-28 15.5 -43.5 43t-15.5 63.5t15.5 64t43.5 44t64 16t64 -16t43.5 -44t15.5 -64t-15.5 -63.5t-43.5 -43t-64 -15.5t-64 15.5zM206 497.5q26 14.5 40.5 40t14.5 59.5t-14.5 60.5t-40.5 41t-60 14.5t-60 -14.5t-40.5 -41t-14.5 -60.5t14.5 -59.5t40.5 -40
t60 -14.5t60 14.5z" />
    <glyph glyph-name="plusminus" unicode="&#xb1;" horiz-adv-x="609" 
d="M547 310v-8h-238v-208h-8v208h-240v8h240v209h8v-209h238zM61 29h486v-8h-486v8z" />
    <glyph glyph-name="twosuperior" unicode="&#xb2;" horiz-adv-x="390" 
d="M40 441l198 147q37 28 57 48t28.5 39.5t8.5 42.5q0 24 -8 45q-15 31 -48.5 47t-78.5 16q-47 0 -81 -19t-49 -53q-6 -13 -8.5 -27t-2.5 -34h-8q0 21 2.5 35.5t9.5 29.5q16 36 52 56t85 20q47 0 83 -17t51 -50q9 -21 9 -49q0 -25 -9.5 -45.5t-30.5 -41.5t-58 -49l-183 -136
h288v-8h-307v3z" />
    <glyph glyph-name="threesuperior" unicode="&#xb3;" horiz-adv-x="421" 
d="M376 543q0 -23 -10 -46q-15 -34 -55.5 -50.5t-94.5 -16.5q-58 0 -102 21t-61 59q-12 29 -12 61h8q0 -32 11 -57q16 -36 57.5 -56t98.5 -20q52 0 90.5 15.5t52.5 47.5q9 20 9 42q0 20 -8 39q-28 59 -161 59h-12v8h12q124 0 149 55q7 18 7 33q0 19 -7 33q-12 27 -48 41.5
t-84 14.5q-55 0 -93.5 -17t-54.5 -53q-9 -21 -9 -48h-8q0 27 10 52q17 37 58 55.5t97 18.5q51 0 88.5 -16t51.5 -46q7 -17 7 -35t-8 -36q-10 -22 -36 -36.5t-65 -19.5q89 -9 113 -61q9 -19 9 -41z" />
    <glyph glyph-name="acute" unicode="&#xb4;" horiz-adv-x="235" 
d="M175 706h10l-125 -155h-10z" />
    <glyph glyph-name="mu" unicode="&#xb5;" horiz-adv-x="597" 
d="M518 472v-472h-8v151q-18 -84 -75.5 -124t-142.5 -40q-87 0 -139 39t-66 115v-151v-193h-8v675h8v-257q0 -110 52 -165t154 -55q69 0 117.5 26.5t74 76.5t25.5 120v254h8z" />
    <glyph glyph-name="paragraph" unicode="&#xb6;" horiz-adv-x="650" 
d="M368 325h-102q-88 0 -140.5 24t-73.5 73q-17 35 -17 94q0 57 17 94q21 48 73.5 72t140.5 24h371v-8h-94v-901h-8v901h-159v-901h-8v528z" />
    <glyph glyph-name="periodcentered" unicode="&#xb7;" horiz-adv-x="246" 
d="M111.5 257.5q-4.5 4.5 -4.5 12.5q0 7 4.5 11t11.5 4t11.5 -4t4.5 -11q0 -8 -4 -12.5t-12 -4.5q-7 0 -11.5 4.5z" />
    <glyph glyph-name="cedilla" unicode="&#xb8;" horiz-adv-x="275" 
d="M199.5 -90q25.5 -16 25.5 -51t-25.5 -52.5t-71.5 -17.5q-45 0 -78 13l2 8q35 -13 76 -13q43 0 66 15t23 47t-23 45.5t-73 13.5h-41l40 82h8l-36 -74h29q53 0 78.5 -16z" />
    <glyph glyph-name="onesuperior" unicode="&#xb9;" horiz-adv-x="221" 
d="M130 818h-104l2 8h110v-388h-8v380z" />
    <glyph glyph-name="ordmasculine" unicode="&#xba;" horiz-adv-x="430" 
d="M108.5 390.5q-43.5 24.5 -63.5 68.5q-15 33 -15 81t15 81q20 44 63.5 68.5t106.5 24.5t106.5 -24.5t63.5 -68.5q15 -33 15 -81t-15 -81q-20 -44 -63.5 -68.5t-106.5 -24.5t-106.5 24.5zM317 397.5q42 23.5 61 65.5q14 31 14 77t-14 77q-19 42 -61 65.5t-102 23.5
t-102 -23.5t-61 -65.5q-14 -31 -14 -77t14 -77q19 -42 61 -65.5t102 -23.5t102 23.5z" />
    <glyph glyph-name="guillemotright" unicode="&#xbb;" horiz-adv-x="422" 
d="M29 112l192 157l-192 157h13l192 -157l-192 -157h-13zM189 112l192 157l-192 157h13l192 -157l-192 -157h-13z" />
    <glyph glyph-name="onequarter" unicode="&#xbc;" horiz-adv-x="702" 
d="M130 698h-104l2 8h110v-388h-8v380zM561 706h9l-521 -706h-10zM608 120h-284v2l280 266h12v-260h74v-8h-74v-120h-8v120zM608 128v253l-268 -253h268z" />
    <glyph glyph-name="onehalf" unicode="&#xbd;" horiz-adv-x="755" 
d="M130 698h-104l2 8h110v-388h-8v380zM561 706h9l-521 -706h-10zM405 3l198 147q37 28 57 48t28.5 39.5t8.5 42.5q0 24 -8 45q-15 31 -48.5 47t-78.5 16q-47 0 -81 -19t-49 -53q-6 -13 -8.5 -27t-2.5 -34h-8q0 21 2.5 35.5t9.5 29.5q16 36 52 56t85 20q47 0 83 -17t51 -50
q9 -21 9 -49q0 -25 -9.5 -45.5t-30.5 -41.5t-58 -49l-183 -136h288v-8h-307v3z" />
    <glyph glyph-name="threequarters" unicode="&#xbe;" horiz-adv-x="906" 
d="M376 423q0 -23 -10 -46q-15 -34 -55.5 -50.5t-94.5 -16.5q-58 0 -102 21t-61 59q-12 29 -12 61h8q0 -32 11 -57q16 -36 57.5 -56t98.5 -20q52 0 90.5 15.5t52.5 47.5q9 20 9 42q0 20 -8 39q-28 59 -161 59h-12v8h12q124 0 149 55q7 18 7 33q0 19 -7 33q-12 27 -48 41.5
t-84 14.5q-55 0 -93.5 -17t-54.5 -53q-9 -21 -9 -48h-8q0 27 10 52q17 37 58 55.5t97 18.5q51 0 88.5 -16t51.5 -46q7 -17 7 -35t-8 -36q-10 -22 -36 -36.5t-65 -19.5q89 -9 113 -61q9 -19 9 -41zM765 706h9l-521 -706h-10zM812 120h-284v2l280 266h12v-260h74v-8h-74v-120
h-8v120zM812 128v253l-268 -253h268z" />
    <glyph glyph-name="questiondown" unicode="&#xbf;" horiz-adv-x="579" 
d="M287.5 457.5q-4.5 4.5 -4.5 11.5t4.5 11.5t12.5 4.5q7 0 11 -4.5t4 -11.5t-4 -11.5t-11 -4.5q-8 0 -12.5 4.5zM113.5 -171.5q-54.5 43.5 -54.5 115.5q0 40 16.5 78.5t65.5 105t153 191.5h10q-105 -124 -155 -192t-66 -106.5t-16 -76.5q0 -68 52.5 -109.5t166.5 -41.5
q81 0 133.5 25.5t74.5 76.5q18 40 18 101h8q0 -33 -4.5 -58t-14.5 -47q-46 -106 -215 -106q-118 0 -172.5 43.5z" />
    <glyph glyph-name="Agrave" unicode="&#xc0;" horiz-adv-x="681" 
d="M552 243h-424l-112 -243h-9l328 706h11l328 -706h-9zM548 251l-207 447h-2l-207 -447h416zM392 768l-180 126h13l180 -126h-13z" />
    <glyph glyph-name="Aacute" unicode="&#xc1;" horiz-adv-x="681" 
d="M552 243h-424l-112 -243h-9l328 706h11l328 -706h-9zM548 251l-207 447h-2l-207 -447h416zM456 894h13l-180 -126h-13z" />
    <glyph glyph-name="Acircumflex" unicode="&#xc2;" horiz-adv-x="681" 
d="M552 243h-424l-112 -243h-9l328 706h11l328 -706h-9zM548 251l-207 447h-2l-207 -447h416zM335 894h10l162 -126h-13l-154 120l-154 -120h-13z" />
    <glyph glyph-name="Atilde" unicode="&#xc3;" horiz-adv-x="681" 
d="M552 243h-424l-112 -243h-9l328 706h11l328 -706h-9zM548 251l-207 447h-2l-207 -447h416zM391.5 773q-15.5 8 -27 20t-28.5 33q-14 19 -25 30.5t-26 19.5t-35 8q-41 0 -62 -32.5t-23 -83.5h-8q2 56 25.5 90t67.5 34q21 0 37 -8t27.5 -20t28.5 -33q20 -28 38.5 -43
t46.5 -15q41 0 62.5 32t23.5 83h8q-2 -55 -26 -89t-68 -34q-21 0 -36.5 8z" />
    <glyph glyph-name="Adieresis" unicode="&#xc4;" horiz-adv-x="681" 
d="M552 243h-424l-112 -243h-9l328 706h11l328 -706h-9zM548 251l-207 447h-2l-207 -447h416zM203.5 820.5q-4.5 4.5 -4.5 11.5t4.5 11.5t11.5 4.5t11.5 -4.5t4.5 -11.5t-4.5 -11.5t-11.5 -4.5t-11.5 4.5zM451.5 820.5q-4.5 4.5 -4.5 11.5t4.5 11.5t11.5 4.5t11.5 -4.5
t4.5 -11.5t-4.5 -11.5t-11.5 -4.5t-11.5 4.5z" />
    <glyph glyph-name="Aring" unicode="&#xc5;" horiz-adv-x="681" 
d="M552 243h-424l-112 -243h-9l328 706h11l328 -706h-9zM548 251l-207 447h-2l-207 -447h416zM274.5 762q-24.5 23 -24.5 62q0 40 24.5 63.5t65.5 23.5t65.5 -24t24.5 -63q0 -38 -24.5 -61.5t-65.5 -23.5t-65.5 23zM399.5 768q22.5 21 22.5 56q0 36 -22.5 57.5t-59.5 21.5
q-38 0 -60 -21t-22 -58q0 -35 22 -56t60 -21q37 0 59.5 21z" />
    <glyph glyph-name="AE" unicode="&#xc6;" horiz-adv-x="876" 
d="M384 698l63 -336h369v-8h-367l65 -346h306v-8h-312l-46 243h-322l-124 -243h-9l361 706h452v-8h-436zM460 251l-85 447h-2l-229 -447h316z" />
    <glyph glyph-name="Ccedilla" unicode="&#xc7;" horiz-adv-x="847" 
d="M795 266q-4 -62 -24.5 -109t-60.5 -85q-46 -42 -115 -64.5t-156 -22.5l-35 -69h30q52 0 78 -16t26 -51t-25.5 -52t-71.5 -17q-25 0 -43 2.5t-36 9.5l2 8q18 -7 36 -9.5t41 -2.5q89 0 89 61q0 32 -23.5 45.5t-72.5 13.5h-42l39 77q-126 1 -213 51t-128 141q-34 72 -34 176
t34 176q42 92 131 142t217 50q86 0 155 -23.5t116 -65.5q37 -34 58 -80t25 -102h-8q-4 54 -24.5 99t-55.5 77q-46 41 -114 64t-152 23q-126 0 -213.5 -49t-127.5 -139q-33 -72 -33 -172t33 -172q40 -90 127.5 -139t213.5 -49q87 0 154.5 22t112.5 63q38 36 58 82t24 106h8z
" />
    <glyph glyph-name="Egrave" unicode="&#xc8;" horiz-adv-x="601" 
d="M87 706h458v-8h-450v-336h447v-8h-447v-346h450v-8h-458v706zM368 768l-180 126h13l180 -126h-13z" />
    <glyph glyph-name="Eacute" unicode="&#xc9;" horiz-adv-x="601" 
d="M87 706h458v-8h-450v-336h447v-8h-447v-346h450v-8h-458v706zM432 894h13l-180 -126h-13z" />
    <glyph glyph-name="Ecircumflex" unicode="&#xca;" horiz-adv-x="601" 
d="M87 706h458v-8h-450v-336h447v-8h-447v-346h450v-8h-458v706zM311 894h10l162 -126h-13l-154 120l-154 -120h-13z" />
    <glyph glyph-name="Edieresis" unicode="&#xcb;" horiz-adv-x="601" 
d="M87 706h458v-8h-450v-336h447v-8h-447v-346h450v-8h-458v706zM179.5 820.5q-4.5 4.5 -4.5 11.5t4.5 11.5t11.5 4.5t11.5 -4.5t4.5 -11.5t-4.5 -11.5t-11.5 -4.5t-11.5 4.5zM427.5 820.5q-4.5 4.5 -4.5 11.5t4.5 11.5t11.5 4.5t11.5 -4.5t4.5 -11.5t-4.5 -11.5t-11.5 -4.5
t-11.5 4.5z" />
    <glyph glyph-name="Igrave" unicode="&#xcc;" horiz-adv-x="182" 
d="M87 706h8v-706h-8v706zM143 768l-180 126h13l180 -126h-13z" />
    <glyph glyph-name="Iacute" unicode="&#xcd;" horiz-adv-x="182" 
d="M87 706h8v-706h-8v706zM207 894h13l-180 -126h-13z" />
    <glyph glyph-name="Icircumflex" unicode="&#xce;" horiz-adv-x="182" 
d="M87 706h8v-706h-8v706zM85 893h10l107 -125h-10l-102 119l-100 -119h-11z" />
    <glyph glyph-name="Idieresis" unicode="&#xcf;" horiz-adv-x="182" 
d="M87 706h8v-706h-8v706zM18 820q-4 4 -4 11q0 6 4 9.5t11 3.5q6 0 10 -3.5t4 -9.5q0 -7 -4 -11t-10 -4q-7 0 -11 4zM144 820q-4 4 -4 11q0 6 4 9.5t11 3.5q6 0 10 -3.5t4 -9.5q0 -7 -4 -11t-10 -4q-7 0 -11 4z" />
    <glyph glyph-name="Eth" unicode="&#xd0;" horiz-adv-x="774" 
d="M719 353q0 -99 -32 -172q-40 -87 -126 -134t-212 -47h-262v354h-72v8h72v344h262q127 0 213 -47t125 -134q32 -73 32 -172zM711 353q0 97 -31 168q-38 85 -122 131t-209 46h-254v-336h243v-8h-243v-346h254q125 0 208.5 46t122.5 131q31 71 31 168z" />
    <glyph glyph-name="Ntilde" unicode="&#xd1;" horiz-adv-x="747" 
d="M87 706h9l556 -695v695h8v-706h-9l-556 695v-695h-8v706zM425.5 773q-15.5 8 -27 20t-28.5 33q-14 19 -25 30.5t-26 19.5t-35 8q-41 0 -62 -32.5t-23 -83.5h-8q2 56 25.5 90t67.5 34q21 0 37 -8t27.5 -20t28.5 -33q20 -28 38.5 -43t46.5 -15q41 0 62.5 32t23.5 83h8
q-2 -55 -26 -89t-68 -34q-21 0 -36.5 8z" />
    <glyph glyph-name="Ograve" unicode="&#xd2;" horiz-adv-x="875" 
d="M219.5 35q-88.5 50 -129.5 141q-34 75 -34 177t34 177q41 91 129.5 141t218.5 50q129 0 217.5 -50t129.5 -141q34 -72 34 -177t-34 -177q-41 -91 -129.5 -141t-217.5 -50q-130 0 -218.5 50zM651 42q87 49 127 138q33 70 33 173t-33 173q-40 89 -127 138t-213 49
q-127 0 -214 -49t-127 -138q-33 -73 -33 -173t33 -173q40 -89 127 -138t214 -49q126 0 213 49zM489 768l-180 126h13l180 -126h-13z" />
    <glyph glyph-name="Oacute" unicode="&#xd3;" horiz-adv-x="875" 
d="M219.5 35q-88.5 50 -129.5 141q-34 75 -34 177t34 177q41 91 129.5 141t218.5 50q129 0 217.5 -50t129.5 -141q34 -72 34 -177t-34 -177q-41 -91 -129.5 -141t-217.5 -50q-130 0 -218.5 50zM651 42q87 49 127 138q33 70 33 173t-33 173q-40 89 -127 138t-213 49
q-127 0 -214 -49t-127 -138q-33 -73 -33 -173t33 -173q40 -89 127 -138t214 -49q126 0 213 49zM553 894h13l-180 -126h-13z" />
    <glyph glyph-name="Ocircumflex" unicode="&#xd4;" horiz-adv-x="875" 
d="M219.5 35q-88.5 50 -129.5 141q-34 75 -34 177t34 177q41 91 129.5 141t218.5 50q129 0 217.5 -50t129.5 -141q34 -72 34 -177t-34 -177q-41 -91 -129.5 -141t-217.5 -50q-130 0 -218.5 50zM651 42q87 49 127 138q33 70 33 173t-33 173q-40 89 -127 138t-213 49
q-127 0 -214 -49t-127 -138q-33 -73 -33 -173t33 -173q40 -89 127 -138t214 -49q126 0 213 49zM432 894h10l162 -126h-13l-154 120l-154 -120h-13z" />
    <glyph glyph-name="Otilde" unicode="&#xd5;" horiz-adv-x="875" 
d="M219.5 35q-88.5 50 -129.5 141q-34 75 -34 177t34 177q41 91 129.5 141t218.5 50q129 0 217.5 -50t129.5 -141q34 -72 34 -177t-34 -177q-41 -91 -129.5 -141t-217.5 -50q-130 0 -218.5 50zM651 42q87 49 127 138q33 70 33 173t-33 173q-40 89 -127 138t-213 49
q-127 0 -214 -49t-127 -138q-33 -73 -33 -173t33 -173q40 -89 127 -138t214 -49q126 0 213 49zM489.5 773q-15.5 8 -27 20t-28.5 33q-14 19 -25 30.5t-26 19.5t-35 8q-41 0 -62 -32.5t-23 -83.5h-8q2 56 25.5 90t67.5 34q21 0 37 -8t27.5 -20t28.5 -33q20 -28 38.5 -43
t46.5 -15q41 0 62.5 32t23.5 83h8q-2 -55 -26 -89t-68 -34q-21 0 -36.5 8z" />
    <glyph glyph-name="Odieresis" unicode="&#xd6;" horiz-adv-x="875" 
d="M219.5 35q-88.5 50 -129.5 141q-34 75 -34 177t34 177q41 91 129.5 141t218.5 50q129 0 217.5 -50t129.5 -141q34 -72 34 -177t-34 -177q-41 -91 -129.5 -141t-217.5 -50q-130 0 -218.5 50zM651 42q87 49 127 138q33 70 33 173t-33 173q-40 89 -127 138t-213 49
q-127 0 -214 -49t-127 -138q-33 -73 -33 -173t33 -173q40 -89 127 -138t214 -49q126 0 213 49zM300.5 820.5q-4.5 4.5 -4.5 11.5t4.5 11.5t11.5 4.5t11.5 -4.5t4.5 -11.5t-4.5 -11.5t-11.5 -4.5t-11.5 4.5zM548.5 820.5q-4.5 4.5 -4.5 11.5t4.5 11.5t11.5 4.5t11.5 -4.5
t4.5 -11.5t-4.5 -11.5t-11.5 -4.5t-11.5 4.5z" />
    <glyph glyph-name="multiply" unicode="&#xd7;" horiz-adv-x="609" 
d="M311 270l193 -194l-6 -6l-193 194l-194 -194l-6 6l194 194l-194 193l6 6l194 -193l193 193l6 -6z" />
    <glyph glyph-name="Oslash" unicode="&#xd8;" horiz-adv-x="875" 
d="M819 353q0 -105 -34 -177q-41 -91 -129.5 -141t-217.5 -50q-87 0 -156 23t-118 67l-77 -75h-11l82 81q-40 36 -68 95q-34 75 -34 177t34 177q41 91 129.5 141t218.5 50q87 0 156 -23t118 -67l76 75h12l-82 -81q43 -42 67 -95q34 -72 34 -177zM163 86l543 539
q-48 43 -115.5 65.5t-152.5 22.5q-127 0 -214 -49t-127 -138q-33 -73 -33 -173t33 -173q24 -53 66 -94zM811 353q0 103 -33 173q-24 53 -66 94l-542 -539q47 -43 115 -65.5t153 -22.5q126 0 213 49t127 138q33 70 33 173z" />
    <glyph glyph-name="Ugrave" unicode="&#xd9;" horiz-adv-x="700" 
d="M147 46.5q-65 61.5 -65 194.5v465h8v-465q0 -86 27.5 -141t85 -81t147.5 -26q91 0 148 26t84.5 81t27.5 141v465h8v-465q0 -89 -28.5 -145.5t-87.5 -83.5t-152 -27q-138 0 -203 61.5zM402 768l-180 126h13l180 -126h-13z" />
    <glyph glyph-name="Uacute" unicode="&#xda;" horiz-adv-x="700" 
d="M147 46.5q-65 61.5 -65 194.5v465h8v-465q0 -86 27.5 -141t85 -81t147.5 -26q91 0 148 26t84.5 81t27.5 141v465h8v-465q0 -89 -28.5 -145.5t-87.5 -83.5t-152 -27q-138 0 -203 61.5zM467 894h13l-180 -126h-13z" />
    <glyph glyph-name="Ucircumflex" unicode="&#xdb;" horiz-adv-x="700" 
d="M147 46.5q-65 61.5 -65 194.5v465h8v-465q0 -86 27.5 -141t85 -81t147.5 -26q91 0 148 26t84.5 81t27.5 141v465h8v-465q0 -89 -28.5 -145.5t-87.5 -83.5t-152 -27q-138 0 -203 61.5zM346 894h10l162 -126h-13l-154 120l-154 -120h-13z" />
    <glyph glyph-name="Udieresis" unicode="&#xdc;" horiz-adv-x="700" 
d="M147 46.5q-65 61.5 -65 194.5v465h8v-465q0 -86 27.5 -141t85 -81t147.5 -26q91 0 148 26t84.5 81t27.5 141v465h8v-465q0 -89 -28.5 -145.5t-87.5 -83.5t-152 -27q-138 0 -203 61.5zM213.5 820.5q-4.5 4.5 -4.5 11.5t4.5 11.5t11.5 4.5t11.5 -4.5t4.5 -11.5t-4.5 -11.5
t-11.5 -4.5t-11.5 4.5zM461.5 820.5q-4.5 4.5 -4.5 11.5t4.5 11.5t11.5 4.5t11.5 -4.5t4.5 -11.5t-4.5 -11.5t-11.5 -4.5t-11.5 4.5z" />
    <glyph glyph-name="Yacute" unicode="&#xdd;" horiz-adv-x="629" 
d="M311 303l-304 403h11l297 -395l296 395h11l-303 -403v-303h-8v303zM431 894h13l-180 -126h-13z" />
    <glyph glyph-name="Thorn" unicode="&#xde;" horiz-adv-x="629" 
d="M87 706h8v-148h243q97 0 155 -26t82 -78q19 -41 19 -99q0 -57 -19 -98q-24 -52 -82 -78t-155 -26h-243v-153h-8v706zM338 161q95 0 151 24.5t79 75.5q18 41 18 94q0 55 -18 95q-23 51 -79 75.5t-151 24.5h-243v-389h243z" />
    <glyph glyph-name="germandbls" unicode="&#xdf;" horiz-adv-x="589" 
d="M547 192q0 -45 -16 -80q-25 -55 -87.5 -84t-161.5 -29q-49 0 -94 3v8q45 -3 94 -3q97 0 157.5 28t84.5 81q15 32 15 76q0 43 -17 82q-25 54 -83 84t-140 30h-111v8h110q79 0 130.5 25.5t71.5 70.5q12 27 12 64q0 35 -13 64q-20 45 -69 69t-127 24q-77 0 -124.5 -26
t-69.5 -76t-22 -123v-488h-8v488q0 77 23 127q24 53 73.5 79.5t127.5 26.5q79 0 130.5 -25.5t72.5 -71.5q14 -29 14 -68t-13 -68q-18 -41 -60.5 -65.5t-103.5 -30.5q69 -7 116.5 -36.5t69.5 -77.5q18 -39 18 -86z" />
    <glyph glyph-name="agrave" unicode="&#xe0;" horiz-adv-x="584" 
d="M510 277v-277h-8v162q-16 -83 -81.5 -129t-177.5 -46q-139 0 -177 81q-12 26 -12 57q0 16 3 28t9 26q20 39 78.5 57t169.5 18h188v23q0 62 -18 105q-20 47 -67.5 71t-128.5 24q-151 0 -189 -86q-14 -31 -14 -68h-8q0 39 15 72q40 90 197 90q81 0 130.5 -24.5t71.5 -74.5
q19 -45 19 -109zM395.5 28.5q59.5 33.5 85.5 93.5q12 24 16.5 50.5t4.5 66.5v7h-188q-109 0 -165.5 -16.5t-75.5 -54.5q-5 -14 -8 -25t-3 -25q0 -28 11 -53q17 -37 59.5 -57t110.5 -20q93 0 152.5 33.5zM336 551l-125 155h10l125 -155h-10z" />
    <glyph glyph-name="aacute" unicode="&#xe1;" horiz-adv-x="584" 
d="M510 277v-277h-8v162q-16 -83 -81.5 -129t-177.5 -46q-139 0 -177 81q-12 26 -12 57q0 16 3 28t9 26q20 39 78.5 57t169.5 18h188v23q0 62 -18 105q-20 47 -67.5 71t-128.5 24q-151 0 -189 -86q-14 -31 -14 -68h-8q0 39 15 72q40 90 197 90q81 0 130.5 -24.5t71.5 -74.5
q19 -45 19 -109zM395.5 28.5q59.5 33.5 85.5 93.5q12 24 16.5 50.5t4.5 66.5v7h-188q-109 0 -165.5 -16.5t-75.5 -54.5q-5 -14 -8 -25t-3 -25q0 -28 11 -53q17 -37 59.5 -57t110.5 -20q93 0 152.5 33.5zM367 706h10l-125 -155h-10z" />
    <glyph glyph-name="acircumflex" unicode="&#xe2;" horiz-adv-x="584" 
d="M510 277v-277h-8v162q-16 -83 -81.5 -129t-177.5 -46q-139 0 -177 81q-12 26 -12 57q0 16 3 28t9 26q20 39 78.5 57t169.5 18h188v23q0 62 -18 105q-20 47 -67.5 71t-128.5 24q-151 0 -189 -86q-14 -31 -14 -68h-8q0 39 15 72q40 90 197 90q81 0 130.5 -24.5t71.5 -74.5
q19 -45 19 -109zM395.5 28.5q59.5 33.5 85.5 93.5q12 24 16.5 50.5t4.5 66.5v7h-188q-109 0 -165.5 -16.5t-75.5 -54.5q-5 -14 -8 -25t-3 -25q0 -28 11 -53q17 -37 59.5 -57t110.5 -20q93 0 152.5 33.5zM289 706h10l136 -155h-10l-131 149l-131 -149h-11z" />
    <glyph glyph-name="atilde" unicode="&#xe3;" horiz-adv-x="584" 
d="M510 277v-277h-8v162q-16 -83 -81.5 -129t-177.5 -46q-139 0 -177 81q-12 26 -12 57q0 16 3 28t9 26q20 39 78.5 57t169.5 18h188v23q0 62 -18 105q-20 47 -67.5 71t-128.5 24q-151 0 -189 -86q-14 -31 -14 -68h-8q0 39 15 72q40 90 197 90q81 0 130.5 -24.5t71.5 -74.5
q19 -45 19 -109zM395.5 28.5q59.5 33.5 85.5 93.5q12 24 16.5 50.5t4.5 66.5v7h-188q-109 0 -165.5 -16.5t-75.5 -54.5q-5 -14 -8 -25t-3 -25q0 -28 11 -53q17 -37 59.5 -57t110.5 -20q93 0 152.5 33.5zM344.5 557.5q-15.5 9.5 -27.5 26t-27 42.5q-14 26 -25 41.5
t-25.5 24.5t-33.5 9q-40 0 -57.5 -40t-19.5 -110h-8q2 76 21.5 117t63.5 41q21 0 37 -10t28 -26t27 -43q14 -26 25 -41t25 -24t33 -9q40 0 57.5 39.5t19.5 110.5h8q-2 -76 -21.5 -117t-63.5 -41q-21 0 -36.5 9.5z" />
    <glyph glyph-name="adieresis" unicode="&#xe4;" horiz-adv-x="584" 
d="M510 277v-277h-8v162q-16 -83 -81.5 -129t-177.5 -46q-139 0 -177 81q-12 26 -12 57q0 16 3 28t9 26q20 39 78.5 57t169.5 18h188v23q0 62 -18 105q-20 47 -67.5 71t-128.5 24q-151 0 -189 -86q-14 -31 -14 -68h-8q0 39 15 72q40 90 197 90q81 0 130.5 -24.5t71.5 -74.5
q19 -45 19 -109zM395.5 28.5q59.5 33.5 85.5 93.5q12 24 16.5 50.5t4.5 66.5v7h-188q-109 0 -165.5 -16.5t-75.5 -54.5q-5 -14 -8 -25t-3 -25q0 -28 11 -53q17 -37 59.5 -57t110.5 -20q93 0 152.5 33.5zM178.5 621.5q-4.5 4.5 -4.5 11.5t4.5 11.5t11.5 4.5t11.5 -4.5
t4.5 -11.5t-4.5 -11.5t-11.5 -4.5t-11.5 4.5zM383.5 621.5q-4.5 4.5 -4.5 11.5t4.5 11.5t11.5 4.5t11.5 -4.5t4.5 -11.5t-4.5 -11.5t-11.5 -4.5t-11.5 4.5z" />
    <glyph glyph-name="aring" unicode="&#xe5;" horiz-adv-x="584" 
d="M510 277v-277h-8v162q-16 -83 -81.5 -129t-177.5 -46q-139 0 -177 81q-12 26 -12 57q0 16 3 28t9 26q20 39 78.5 57t169.5 18h188v23q0 62 -18 105q-20 47 -67.5 71t-128.5 24q-151 0 -189 -86q-14 -31 -14 -68h-8q0 39 15 72q40 90 197 90q81 0 130.5 -24.5t71.5 -74.5
q19 -45 19 -109zM395.5 28.5q59.5 33.5 85.5 93.5q12 24 16.5 50.5t4.5 66.5v7h-188q-109 0 -165.5 -16.5t-75.5 -54.5q-5 -14 -8 -25t-3 -25q0 -28 11 -53q17 -37 59.5 -57t110.5 -20q93 0 152.5 33.5zM228.5 571q-24.5 23 -24.5 62q0 40 24.5 63.5t65.5 23.5t65.5 -24
t24.5 -63q0 -38 -24.5 -61.5t-65.5 -23.5t-65.5 23zM353.5 577q22.5 21 22.5 56q0 36 -22.5 57.5t-59.5 21.5q-38 0 -60 -21t-22 -58q0 -35 22 -56t60 -21q37 0 59.5 21z" />
    <glyph glyph-name="ae" unicode="&#xe6;" horiz-adv-x="1023" 
d="M971 176h8q-10 -81 -63 -129q-31 -29 -75 -43.5t-97 -14.5q-78 0 -135 33.5t-84 94.5q-14 31 -19 74q-11 -98 -78 -151t-190 -53q-65 0 -110 20.5t-63 60.5q-11 25 -11 53q0 26 10 51q22 48 85 66t165 18h188v29q0 57 -18 97q-21 47 -68.5 71t-126.5 24
q-78 0 -124.5 -21.5t-65.5 -64.5q-14 -31 -14 -68h-8q0 39 15 72q40 90 197 90q81 0 130.5 -24.5t71.5 -74.5q9 -18 12.5 -40.5t4.5 -50.5q6 40 19 68q26 59 81.5 91t132.5 32q78 0 133.5 -31.5t82.5 -90.5q22 -51 24 -116h-471v-11q0 -68 22 -116q26 -59 81 -91.5
t131 -32.5q51 0 94 14t73 42q50 45 60 123zM510 256h463q-3 58 -23 104q-26 57 -80 87.5t-129 30.5t-128 -30.5t-79 -88.5q-21 -43 -24 -103zM502 248h-188q-100 0 -161 -17t-82 -63q-9 -19 -9 -47q0 -26 10 -49q18 -39 61 -58t106 -19q94 0 154.5 33t87.5 94q12 25 16.5 52
t4.5 67v7z" />
    <glyph glyph-name="ccedilla" unicode="&#xe7;" horiz-adv-x="580" 
d="M537 170q-6 -74 -58 -123q-32 -29 -78 -44t-101 -15h-5l-34 -70h29q53 0 78.5 -16t25.5 -51t-25.5 -52t-71.5 -17q-24 0 -42.5 2.5t-35.5 9.5l2 8q17 -7 35 -9.5t41 -2.5q89 0 89 61q0 32 -23 45.5t-73 13.5h-41l38 78q-79 3 -136.5 37t-84.5 95q-23 49 -23 116
q0 68 23 117q29 63 90 97.5t144 34.5q54 0 100 -15t78 -44q52 -47 58 -123h-8q-6 72 -56 117q-30 27 -74.5 42t-97.5 15q-81 0 -140 -33.5t-87 -94.5q-22 -47 -22 -113q0 -65 22 -112q28 -61 87 -94.5t140 -33.5q54 0 98.5 14.5t75.5 42.5q49 44 55 117h8z" />
    <glyph glyph-name="egrave" unicode="&#xe8;" horiz-adv-x="610" 
d="M557 174h8q-9 -74 -61 -123q-34 -31 -83.5 -47.5t-111.5 -16.5q-89 0 -152 35.5t-92 99.5q-22 48 -22 116q0 67 23 114q28 64 90 98.5t151 34.5q88 0 149 -33.5t88 -95.5q23 -49 23 -110h-516v-8q0 -66 22 -113q27 -61 88.5 -95.5t147.5 -34.5q60 0 108.5 16t81.5 46
q49 48 58 117zM51 254h508q-2 51 -22 98q-27 60 -86 92.5t-144 32.5q-86 0 -146.5 -33.5t-87.5 -95.5q-19 -39 -22 -94zM350 551l-125 155h10l125 -155h-10z" />
    <glyph glyph-name="eacute" unicode="&#xe9;" horiz-adv-x="610" 
d="M557 174h8q-9 -74 -61 -123q-34 -31 -83.5 -47.5t-111.5 -16.5q-89 0 -152 35.5t-92 99.5q-22 48 -22 116q0 67 23 114q28 64 90 98.5t151 34.5q88 0 149 -33.5t88 -95.5q23 -49 23 -110h-516v-8q0 -66 22 -113q27 -61 88.5 -95.5t147.5 -34.5q60 0 108.5 16t81.5 46
q49 48 58 117zM51 254h508q-2 51 -22 98q-27 60 -86 92.5t-144 32.5q-86 0 -146.5 -33.5t-87.5 -95.5q-19 -39 -22 -94zM381 706h10l-125 -155h-10z" />
    <glyph glyph-name="ecircumflex" unicode="&#xea;" horiz-adv-x="610" 
d="M557 174h8q-9 -74 -61 -123q-34 -31 -83.5 -47.5t-111.5 -16.5q-89 0 -152 35.5t-92 99.5q-22 48 -22 116q0 67 23 114q28 64 90 98.5t151 34.5q88 0 149 -33.5t88 -95.5q23 -49 23 -110h-516v-8q0 -66 22 -113q27 -61 88.5 -95.5t147.5 -34.5q60 0 108.5 16t81.5 46
q49 48 58 117zM51 254h508q-2 51 -22 98q-27 60 -86 92.5t-144 32.5q-86 0 -146.5 -33.5t-87.5 -95.5q-19 -39 -22 -94zM303 706h10l136 -155h-10l-131 149l-131 -149h-11z" />
    <glyph glyph-name="edieresis" unicode="&#xeb;" horiz-adv-x="610" 
d="M557 174h8q-9 -74 -61 -123q-34 -31 -83.5 -47.5t-111.5 -16.5q-89 0 -152 35.5t-92 99.5q-22 48 -22 116q0 67 23 114q28 64 90 98.5t151 34.5q88 0 149 -33.5t88 -95.5q23 -49 23 -110h-516v-8q0 -66 22 -113q27 -61 88.5 -95.5t147.5 -34.5q60 0 108.5 16t81.5 46
q49 48 58 117zM51 254h508q-2 51 -22 98q-27 60 -86 92.5t-144 32.5q-86 0 -146.5 -33.5t-87.5 -95.5q-19 -39 -22 -94zM192.5 621.5q-4.5 4.5 -4.5 11.5t4.5 11.5t11.5 4.5t11.5 -4.5t4.5 -11.5t-4.5 -11.5t-11.5 -4.5t-11.5 4.5zM397.5 621.5q-4.5 4.5 -4.5 11.5t4.5 11.5
t11.5 4.5t11.5 -4.5t4.5 -11.5t-4.5 -11.5t-11.5 -4.5t-11.5 4.5z" />
    <glyph glyph-name="igrave" unicode="&#xec;" horiz-adv-x="166" 
d="M79 472h8v-472h-8v472zM100 551l-100 155h10l99 -155h-9z" />
    <glyph glyph-name="iacute" unicode="&#xed;" horiz-adv-x="166" 
d="M79 472h8v-472h-8v472zM157 706h9l-99 -155h-10z" />
    <glyph glyph-name="icircumflex" unicode="&#xee;" horiz-adv-x="166" 
d="M79 472h8v-472h-8v472zM78 706h10l99 -155h-9l-95 149l-94 -149h-10z" />
    <glyph glyph-name="idieresis" unicode="&#xef;" horiz-adv-x="166" 
d="M79 472h8v-472h-8v472zM10.5 621q-4.5 5 -4.5 12t4.5 11t11.5 4t11.5 -4t4.5 -11t-4.5 -12t-11.5 -5t-11.5 5zM132 620.5q-4 4.5 -4 12.5q0 7 4 11t11 4q8 0 12.5 -4t4.5 -11t-5 -12t-12 -5t-11 4.5z" />
    <glyph glyph-name="eth" unicode="&#xf0;" horiz-adv-x="612" 
d="M559 317q9 -36 9 -80q0 -70 -23 -121q-28 -62 -91 -95.5t-148 -33.5t-148.5 34.5t-91.5 95.5q-23 51 -23 117q0 67 21 112q29 65 93 99.5t149 34.5q78 0 138.5 -29.5t92.5 -86.5q-3 10 -12 29q-23 51 -66.5 106.5t-105.5 117.5l-233 -82v9l227 80q-41 40 -86 80v2h9
q50 -45 85 -80l144 51v-9l-138 -48q125 -125 170 -224q19 -43 28 -79zM560 237q0 64 -21 109q-28 62 -89.5 94t-143.5 32q-84 0 -145.5 -34t-89.5 -96q-20 -45 -20 -108q0 -68 22 -113q28 -60 89.5 -93t143.5 -33q83 0 143 32t89 93q22 45 22 117z" />
    <glyph glyph-name="ntilde" unicode="&#xf1;" horiz-adv-x="591" 
d="M463.5 427.5q54.5 -57.5 54.5 -170.5v-257h-8v257q0 109 -52.5 164.5t-152.5 55.5q-69 0 -118 -26.5t-74.5 -76.5t-25.5 -120v-254h-8v472h8v-151q18 83 75.5 123.5t142.5 40.5q104 0 158.5 -57.5zM349.5 557.5q-15.5 9.5 -27.5 26t-27 42.5q-14 26 -25 41.5t-25.5 24.5
t-33.5 9q-40 0 -57.5 -40t-19.5 -110h-8q2 76 21.5 117t63.5 41q21 0 37 -10t28 -26t27 -43q14 -26 25 -41t25 -24t33 -9q40 0 57.5 39.5t19.5 110.5h8q-2 -76 -21.5 -117t-63.5 -41q-21 0 -36.5 9.5z" />
    <glyph glyph-name="ograve" unicode="&#xf2;" horiz-adv-x="613" 
d="M156 23q-62 35 -90 98q-23 49 -23 115q0 68 23 115q28 63 90 98.5t151 35.5t151 -35.5t90 -98.5q23 -51 23 -115q0 -63 -23 -115q-28 -63 -90.5 -98t-150.5 -35q-89 0 -151 35zM453.5 30q60.5 34 87.5 95q22 50 22 111q0 62 -22 111q-27 62 -87.5 96t-146.5 34
t-146.5 -34t-87.5 -96q-22 -45 -22 -111q0 -64 22 -111q27 -61 87.5 -95t146.5 -34t146.5 34zM349 551l-125 155h10l125 -155h-10z" />
    <glyph glyph-name="oacute" unicode="&#xf3;" horiz-adv-x="613" 
d="M156 23q-62 35 -90 98q-23 49 -23 115q0 68 23 115q28 63 90 98.5t151 35.5t151 -35.5t90 -98.5q23 -51 23 -115q0 -63 -23 -115q-28 -63 -90.5 -98t-150.5 -35q-89 0 -151 35zM453.5 30q60.5 34 87.5 95q22 50 22 111q0 62 -22 111q-27 62 -87.5 96t-146.5 34
t-146.5 -34t-87.5 -96q-22 -45 -22 -111q0 -64 22 -111q27 -61 87.5 -95t146.5 -34t146.5 34zM380 706h10l-125 -155h-10z" />
    <glyph glyph-name="ocircumflex" unicode="&#xf4;" horiz-adv-x="613" 
d="M156 23q-62 35 -90 98q-23 49 -23 115q0 68 23 115q28 63 90 98.5t151 35.5t151 -35.5t90 -98.5q23 -51 23 -115q0 -63 -23 -115q-28 -63 -90.5 -98t-150.5 -35q-89 0 -151 35zM453.5 30q60.5 34 87.5 95q22 50 22 111q0 62 -22 111q-27 62 -87.5 96t-146.5 34
t-146.5 -34t-87.5 -96q-22 -45 -22 -111q0 -64 22 -111q27 -61 87.5 -95t146.5 -34t146.5 34zM302 706h10l136 -155h-10l-131 149l-131 -149h-11z" />
    <glyph glyph-name="otilde" unicode="&#xf5;" horiz-adv-x="613" 
d="M156 23q-62 35 -90 98q-23 49 -23 115q0 68 23 115q28 63 90 98.5t151 35.5t151 -35.5t90 -98.5q23 -51 23 -115q0 -63 -23 -115q-28 -63 -90.5 -98t-150.5 -35q-89 0 -151 35zM453.5 30q60.5 34 87.5 95q22 50 22 111q0 62 -22 111q-27 62 -87.5 96t-146.5 34
t-146.5 -34t-87.5 -96q-22 -45 -22 -111q0 -64 22 -111q27 -61 87.5 -95t146.5 -34t146.5 34zM357.5 557.5q-15.5 9.5 -27.5 26t-27 42.5q-14 26 -25 41.5t-25.5 24.5t-33.5 9q-40 0 -57.5 -40t-19.5 -110h-8q2 76 21.5 117t63.5 41q21 0 37 -10t28 -26t27 -43
q14 -26 25 -41t25 -24t33 -9q40 0 57.5 39.5t19.5 110.5h8q-2 -76 -21.5 -117t-63.5 -41q-21 0 -36.5 9.5z" />
    <glyph glyph-name="odieresis" unicode="&#xf6;" horiz-adv-x="613" 
d="M156 23q-62 35 -90 98q-23 49 -23 115q0 68 23 115q28 63 90 98.5t151 35.5t151 -35.5t90 -98.5q23 -51 23 -115q0 -63 -23 -115q-28 -63 -90.5 -98t-150.5 -35q-89 0 -151 35zM453.5 30q60.5 34 87.5 95q22 50 22 111q0 62 -22 111q-27 62 -87.5 96t-146.5 34
t-146.5 -34t-87.5 -96q-22 -45 -22 -111q0 -64 22 -111q27 -61 87.5 -95t146.5 -34t146.5 34zM191.5 621.5q-4.5 4.5 -4.5 11.5t4.5 11.5t11.5 4.5t11.5 -4.5t4.5 -11.5t-4.5 -11.5t-11.5 -4.5t-11.5 4.5zM396.5 621.5q-4.5 4.5 -4.5 11.5t4.5 11.5t11.5 4.5t11.5 -4.5
t4.5 -11.5t-4.5 -11.5t-11.5 -4.5t-11.5 4.5z" />
    <glyph glyph-name="divide" unicode="&#xf7;" horiz-adv-x="609" 
d="M292.5 473.5q-4.5 4.5 -4.5 11.5t4.5 11.5t11.5 4.5t11.5 -4.5t4.5 -11.5t-4.5 -11.5t-11.5 -4.5t-11.5 4.5zM61 273h486v-8h-486v8zM292.5 41.5q-4.5 4.5 -4.5 11.5t4.5 11.5t11.5 4.5t11.5 -4.5t4.5 -11.5t-4.5 -11.5t-11.5 -4.5t-11.5 4.5z" />
    <glyph glyph-name="oslash" unicode="&#xf8;" horiz-adv-x="613" 
d="M571 236q0 -63 -23 -115q-28 -63 -90.5 -98t-150.5 -35q-57 0 -102.5 14.5t-79.5 42.5l-45 -45h-11l50 50q-35 29 -53 71q-23 49 -23 115q0 68 23 115q28 63 90 98.5t151 35.5q56 0 102.5 -14.5t80.5 -42.5l43 44h11l-48 -49q35 -31 52 -72q23 -51 23 -115zM124 56
l360 366q-33 27 -77.5 41t-99.5 14q-86 0 -146.5 -34t-87.5 -96q-22 -45 -22 -111q0 -64 22 -111q18 -41 51 -69zM563 236q0 62 -22 111q-19 42 -51 70l-360 -366q33 -27 77.5 -41t99.5 -14q86 0 146.5 34t87.5 95q22 50 22 111z" />
    <glyph glyph-name="ugrave" unicode="&#xf9;" horiz-adv-x="591" 
d="M512 472v-472h-8v151q-18 -83 -75.5 -123t-141.5 -40q-104 0 -158.5 57t-54.5 170v257h8v-257q0 -110 52 -164.5t153 -54.5q69 0 117.5 26.5t74 76t25.5 119.5v254h8zM333 551l-125 155h10l125 -155h-10z" />
    <glyph glyph-name="uacute" unicode="&#xfa;" horiz-adv-x="591" 
d="M512 472v-472h-8v151q-18 -83 -75.5 -123t-141.5 -40q-104 0 -158.5 57t-54.5 170v257h8v-257q0 -110 52 -164.5t153 -54.5q69 0 117.5 26.5t74 76t25.5 119.5v254h8zM364 706h10l-125 -155h-10z" />
    <glyph glyph-name="ucircumflex" unicode="&#xfb;" horiz-adv-x="591" 
d="M512 472v-472h-8v151q-18 -83 -75.5 -123t-141.5 -40q-104 0 -158.5 57t-54.5 170v257h8v-257q0 -110 52 -164.5t153 -54.5q69 0 117.5 26.5t74 76t25.5 119.5v254h8zM287 706h10l136 -155h-10l-131 149l-131 -149h-11z" />
    <glyph glyph-name="udieresis" unicode="&#xfc;" horiz-adv-x="591" 
d="M512 472v-472h-8v151q-18 -83 -75.5 -123t-141.5 -40q-104 0 -158.5 57t-54.5 170v257h8v-257q0 -110 52 -164.5t153 -54.5q69 0 117.5 26.5t74 76t25.5 119.5v254h8zM176.5 621.5q-4.5 4.5 -4.5 11.5t4.5 11.5t11.5 4.5t11.5 -4.5t4.5 -11.5t-4.5 -11.5t-11.5 -4.5
t-11.5 4.5zM381.5 621.5q-4.5 4.5 -4.5 11.5t4.5 11.5t11.5 4.5t11.5 -4.5t4.5 -11.5t-4.5 -11.5t-11.5 -4.5t-11.5 4.5z" />
    <glyph glyph-name="yacute" unicode="&#xfd;" horiz-adv-x="531" 
d="M512 472l-256 -472l-111 -203h-9l116 211l-233 464h9l229 -455l246 455h9zM341 706h10l-125 -155h-10z" />
    <glyph glyph-name="thorn" unicode="&#xfe;" horiz-adv-x="637" 
d="M594 236q0 -64 -23 -116q-28 -62 -89.5 -97t-147.5 -35q-63 0 -114.5 19.5t-86 59.5t-46.5 98v-368h-8v909h8v-398q12 58 46.5 98t86 59.5t114.5 19.5q86 0 147.5 -35t89.5 -98q23 -52 23 -116zM586 236q0 62 -22 112q-27 61 -86.5 95t-143.5 34q-71 0 -126.5 -26.5
t-88 -79t-32.5 -128.5v-13q0 -76 32.5 -128.5t88 -79t126.5 -26.5q84 0 143.5 33.5t86.5 94.5q22 50 22 112z" />
    <glyph glyph-name="ydieresis" unicode="&#xff;" horiz-adv-x="531" 
d="M512 472l-256 -472l-111 -203h-9l116 211l-233 464h9l229 -455l246 455h9zM152.5 621.5q-4.5 4.5 -4.5 11.5t4.5 11.5t11.5 4.5t11.5 -4.5t4.5 -11.5t-4.5 -11.5t-11.5 -4.5t-11.5 4.5zM357.5 621.5q-4.5 4.5 -4.5 11.5t4.5 11.5t11.5 4.5t11.5 -4.5t4.5 -11.5
t-4.5 -11.5t-11.5 -4.5t-11.5 4.5z" />
    <glyph glyph-name="Amacron" unicode="&#x100;" horiz-adv-x="681" 
d="M552 243h-424l-112 -243h-9l328 706h11l328 -706h-9zM548 251l-207 447h-2l-207 -447h416zM178 835h324v-8h-324v8z" />
    <glyph glyph-name="amacron" unicode="&#x101;" horiz-adv-x="584" 
d="M510 277v-277h-8v162q-16 -83 -81.5 -129t-177.5 -46q-139 0 -177 81q-12 26 -12 57q0 16 3 28t9 26q20 39 78.5 57t169.5 18h188v23q0 62 -18 105q-20 47 -67.5 71t-128.5 24q-151 0 -189 -86q-14 -31 -14 -68h-8q0 39 15 72q40 90 197 90q81 0 130.5 -24.5t71.5 -74.5
q19 -45 19 -109zM395.5 28.5q59.5 33.5 85.5 93.5q12 24 16.5 50.5t4.5 66.5v7h-188q-109 0 -165.5 -16.5t-75.5 -54.5q-5 -14 -8 -25t-3 -25q0 -28 11 -53q17 -37 59.5 -57t110.5 -20q93 0 152.5 33.5zM132 631h323v-8h-323v8z" />
    <glyph glyph-name="Abreve" unicode="&#x102;" horiz-adv-x="681" 
d="M552 243h-424l-112 -243h-9l328 706h11l328 -706h-9zM548 251l-207 447h-2l-207 -447h416zM225.5 796q-36.5 33 -40.5 95h8q4 -60 38 -90t109 -30t109 30t38 90h8q-4 -62 -40.5 -95t-114.5 -33t-114.5 33z" />
    <glyph glyph-name="abreve" unicode="&#x103;" horiz-adv-x="584" 
d="M510 277v-277h-8v162q-16 -83 -81.5 -129t-177.5 -46q-139 0 -177 81q-12 26 -12 57q0 16 3 28t9 26q20 39 78.5 57t169.5 18h188v23q0 62 -18 105q-20 47 -67.5 71t-128.5 24q-151 0 -189 -86q-14 -31 -14 -68h-8q0 39 15 72q40 90 197 90q81 0 130.5 -24.5t71.5 -74.5
q19 -45 19 -109zM395.5 28.5q59.5 33.5 85.5 93.5q12 24 16.5 50.5t4.5 66.5v7h-188q-109 0 -165.5 -16.5t-75.5 -54.5q-5 -14 -8 -25t-3 -25q0 -28 11 -53q17 -37 59.5 -57t110.5 -20q93 0 152.5 33.5zM210 566.5q-31 17.5 -45.5 51.5t-17.5 88h8q3 -52 16.5 -84.5
t43 -48.5t78.5 -16q50 0 79.5 16t43 48.5t16.5 84.5h8q-3 -54 -17.5 -88t-45.5 -51.5t-84 -17.5q-52 0 -83 17.5z" />
    <glyph glyph-name="Aogonek" unicode="&#x104;" horiz-adv-x="681" 
d="M683 -192v-9q-27 -10 -53 -10q-38 0 -60 20t-22 55q0 26 13.5 47.5t35.5 40t67 51.5l-112 240h-424l-112 -243h-9l328 706h11l328 -706q-43 -30 -68 -50.5t-37.5 -41.5t-12.5 -44q0 -32 19.5 -49.5t53.5 -17.5q28 0 54 11zM548 251l-207 447h-2l-207 -447h416z" />
    <glyph glyph-name="aogonek" unicode="&#x105;" horiz-adv-x="584" 
d="M519 -192v-9q-26 -10 -53 -10q-38 0 -60 20t-22 55q0 26 13.5 47.5t36.5 41t68 51.5v158q-16 -83 -81.5 -129t-177.5 -46q-139 0 -177 81q-12 26 -12 57q0 16 3 28t9 26q20 39 78.5 57t169.5 18h188v23q0 62 -18 105q-20 47 -67.5 71t-128.5 24q-151 0 -189 -86
q-14 -31 -14 -68h-8q0 39 15 72q40 90 197 90q81 0 130.5 -24.5t71.5 -74.5q19 -45 19 -109v-277q-43 -30 -67.5 -51t-37.5 -41.5t-13 -43.5q0 -32 19.5 -49.5t53.5 -17.5q29 0 54 11zM395.5 28.5q59.5 33.5 85.5 93.5q12 24 16.5 50.5t4.5 66.5v7h-188q-109 0 -165.5 -16.5
t-75.5 -54.5q-5 -14 -8 -25t-3 -25q0 -28 11 -53q17 -37 59.5 -57t110.5 -20q93 0 152.5 33.5z" />
    <glyph glyph-name="Cacute" unicode="&#x106;" horiz-adv-x="847" 
d="M221 35q-89 50 -131 142q-34 72 -34 176t34 176q42 92 131 142t217 50q86 0 155 -23.5t116 -65.5q37 -34 58 -80t25 -102h-8q-4 54 -24.5 99t-55.5 77q-46 41 -114 64t-152 23q-126 0 -213.5 -49t-127.5 -139q-33 -72 -33 -172t33 -172q40 -90 127.5 -139t213.5 -49
q87 0 154.5 22t112.5 63q38 36 58 82t24 106h8q-4 -62 -24.5 -109t-60.5 -85q-46 -42 -115.5 -64.5t-156.5 -22.5q-128 0 -217 50zM553 894h13l-180 -126h-13z" />
    <glyph glyph-name="cacute" unicode="&#x107;" horiz-adv-x="580" 
d="M155 22.5q-61 34.5 -89 97.5q-23 49 -23 116q0 68 23 117q29 63 90 97.5t144 34.5q54 0 100 -15t78 -44q52 -47 58 -123h-8q-6 72 -56 117q-30 27 -74.5 42t-97.5 15q-81 0 -140 -33.5t-87 -94.5q-22 -47 -22 -113q0 -65 22 -112q28 -61 87 -94.5t140 -33.5
q54 0 98.5 14.5t75.5 42.5q49 44 55 117h8q-6 -74 -58 -123q-32 -29 -78 -44t-101 -15q-84 0 -145 34.5zM373 706h10l-125 -155h-10z" />
    <glyph glyph-name="Ccircumflex" unicode="&#x108;" horiz-adv-x="847" 
d="M221 35q-89 50 -131 142q-34 72 -34 176t34 176q42 92 131 142t217 50q86 0 155 -23.5t116 -65.5q37 -34 58 -80t25 -102h-8q-4 54 -24.5 99t-55.5 77q-46 41 -114 64t-152 23q-126 0 -213.5 -49t-127.5 -139q-33 -72 -33 -172t33 -172q40 -90 127.5 -139t213.5 -49
q87 0 154.5 22t112.5 63q38 36 58 82t24 106h8q-4 -62 -24.5 -109t-60.5 -85q-46 -42 -115.5 -64.5t-156.5 -22.5q-128 0 -217 50zM432 894h10l162 -126h-13l-154 120l-154 -120h-13z" />
    <glyph glyph-name="ccircumflex" unicode="&#x109;" horiz-adv-x="580" 
d="M155 22.5q-61 34.5 -89 97.5q-23 49 -23 116q0 68 23 117q29 63 90 97.5t144 34.5q54 0 100 -15t78 -44q52 -47 58 -123h-8q-6 72 -56 117q-30 27 -74.5 42t-97.5 15q-81 0 -140 -33.5t-87 -94.5q-22 -47 -22 -113q0 -65 22 -112q28 -61 87 -94.5t140 -33.5
q54 0 98.5 14.5t75.5 42.5q49 44 55 117h8q-6 -74 -58 -123q-32 -29 -78 -44t-101 -15q-84 0 -145 34.5zM296 706h10l136 -155h-10l-131 149l-131 -149h-11z" />
    <glyph glyph-name="Cdotaccent" unicode="&#x10a;" horiz-adv-x="847" 
d="M221 35q-89 50 -131 142q-34 72 -34 176t34 176q42 92 131 142t217 50q86 0 155 -23.5t116 -65.5q37 -34 58 -80t25 -102h-8q-4 54 -24.5 99t-55.5 77q-46 41 -114 64t-152 23q-126 0 -213.5 -49t-127.5 -139q-33 -72 -33 -172t33 -172q40 -90 127.5 -139t213.5 -49
q87 0 154.5 22t112.5 63q38 36 58 82t24 106h8q-4 -62 -24.5 -109t-60.5 -85q-46 -42 -115.5 -64.5t-156.5 -22.5q-128 0 -217 50zM425.5 819q-4.5 5 -4.5 12t4.5 11t11.5 4t11.5 -4t4.5 -11t-4.5 -12t-11.5 -5t-11.5 5z" />
    <glyph glyph-name="cdotaccent" unicode="&#x10b;" horiz-adv-x="580" 
d="M155 22.5q-61 34.5 -89 97.5q-23 49 -23 116q0 68 23 117q29 63 90 97.5t144 34.5q54 0 100 -15t78 -44q52 -47 58 -123h-8q-6 72 -56 117q-30 27 -74.5 42t-97.5 15q-81 0 -140 -33.5t-87 -94.5q-22 -47 -22 -113q0 -65 22 -112q28 -61 87 -94.5t140 -33.5
q54 0 98.5 14.5t75.5 42.5q49 44 55 117h8q-6 -74 -58 -123q-32 -29 -78 -44t-101 -15q-84 0 -145 34.5zM288.5 620.5q-4.5 4.5 -4.5 11.5t4.5 11.5t11.5 4.5t11.5 -4.5t4.5 -11.5t-4.5 -11.5t-11.5 -4.5t-11.5 4.5z" />
    <glyph glyph-name="Ccaron" unicode="&#x10c;" horiz-adv-x="847" 
d="M221 35q-89 50 -131 142q-34 72 -34 176t34 176q42 92 131 142t217 50q86 0 155 -23.5t116 -65.5q37 -34 58 -80t25 -102h-8q-4 54 -24.5 99t-55.5 77q-46 41 -114 64t-152 23q-126 0 -213.5 -49t-127.5 -139q-33 -72 -33 -172t33 -172q40 -90 127.5 -139t213.5 -49
q87 0 154.5 22t112.5 63q38 36 58 82t24 106h8q-4 -62 -24.5 -109t-60.5 -85q-46 -42 -115.5 -64.5t-156.5 -22.5q-128 0 -217 50zM442 768h-10l-162 126h13l154 -120l154 120h13z" />
    <glyph glyph-name="ccaron" unicode="&#x10d;" horiz-adv-x="580" 
d="M155 22.5q-61 34.5 -89 97.5q-23 49 -23 116q0 68 23 117q29 63 90 97.5t144 34.5q54 0 100 -15t78 -44q52 -47 58 -123h-8q-6 72 -56 117q-30 27 -74.5 42t-97.5 15q-81 0 -140 -33.5t-87 -94.5q-22 -47 -22 -113q0 -65 22 -112q28 -61 87 -94.5t140 -33.5
q54 0 98.5 14.5t75.5 42.5q49 44 55 117h8q-6 -74 -58 -123q-32 -29 -78 -44t-101 -15q-84 0 -145 34.5zM306 551h-10l-137 155h11l131 -149l131 149h10z" />
    <glyph glyph-name="Dcaron" unicode="&#x10e;" horiz-adv-x="774" 
d="M87 706h262q127 0 213 -47t125 -134q32 -73 32 -172t-32 -172q-40 -87 -126 -134t-212 -47h-262v706zM349 8q125 0 208.5 46t122.5 131q31 71 31 168t-31 168q-38 85 -122 131t-209 46h-254v-690h254zM353 768h-10l-162 126h13l154 -120l154 120h13z" />
    <glyph glyph-name="dcaron" unicode="&#x10f;" horiz-adv-x="659" 
d="M558 706v-706h-8v168q-11 -59 -45.5 -99t-86.5 -60.5t-116 -20.5q-86 0 -147 35t-89 97q-23 49 -23 116t23 116q28 63 89 98t147 35q64 0 116 -20.5t86.5 -61t45.5 -99.5v402h8zM429 22.5q56 26.5 88.5 79t32.5 128.5v13q0 76 -32.5 128.5t-88.5 79t-127 26.5
q-83 0 -142.5 -34t-86.5 -95q-22 -47 -22 -112t22 -112q27 -61 86 -94.5t143 -33.5q71 0 127 26.5zM658 706h8l-46 -168h-8z" />
    <glyph glyph-name="Dcroat" unicode="&#x110;" horiz-adv-x="774" 
d="M719 353q0 -99 -32 -172q-40 -87 -126 -134t-212 -47h-262v354h-72v8h72v344h262q127 0 213 -47t125 -134q32 -73 32 -172zM711 353q0 97 -31 168q-38 85 -122 131t-209 46h-254v-336h243v-8h-243v-346h254q125 0 208.5 46t122.5 131q31 71 31 168z" />
    <glyph glyph-name="dcroat" unicode="&#x111;" horiz-adv-x="637" 
d="M641 602h-83v-602h-8v168q-11 -59 -45.5 -99t-86.5 -60.5t-116 -20.5q-86 0 -147 35t-89 97q-23 49 -23 116t23 116q28 63 89 98t147 35q64 0 116 -20.5t86.5 -61t45.5 -99.5v298h-203v8h203v96h8v-96h83v-8zM429 22.5q56 26.5 88.5 79t32.5 128.5v13q0 76 -32.5 128.5
t-88.5 79t-127 26.5q-83 0 -142.5 -34t-86.5 -95q-22 -47 -22 -112t22 -112q27 -61 86 -94.5t143 -33.5q71 0 127 26.5z" />
    <glyph glyph-name="Emacron" unicode="&#x112;" horiz-adv-x="601" 
d="M87 706h458v-8h-450v-336h447v-8h-447v-346h450v-8h-458v706zM154 835h324v-8h-324v8z" />
    <glyph glyph-name="emacron" unicode="&#x113;" horiz-adv-x="610" 
d="M557 174h8q-9 -74 -61 -123q-34 -31 -83.5 -47.5t-111.5 -16.5q-89 0 -152 35.5t-92 99.5q-22 48 -22 116q0 67 23 114q28 64 90 98.5t151 34.5q88 0 149 -33.5t88 -95.5q23 -49 23 -110h-516v-8q0 -66 22 -113q27 -61 88.5 -95.5t147.5 -34.5q60 0 108.5 16t81.5 46
q49 48 58 117zM51 254h508q-2 51 -22 98q-27 60 -86 92.5t-144 32.5q-86 0 -146.5 -33.5t-87.5 -95.5q-19 -39 -22 -94zM146 631h323v-8h-323v8z" />
    <glyph glyph-name="Ebreve" unicode="&#x114;" horiz-adv-x="601" 
d="M87 706h458v-8h-450v-336h447v-8h-447v-346h450v-8h-458v706zM201.5 796q-36.5 33 -40.5 95h8q4 -60 38 -90t109 -30t109 30t38 90h8q-4 -62 -40.5 -95t-114.5 -33t-114.5 33z" />
    <glyph glyph-name="ebreve" unicode="&#x115;" horiz-adv-x="610" 
d="M557 174h8q-9 -74 -61 -123q-34 -31 -83.5 -47.5t-111.5 -16.5q-89 0 -152 35.5t-92 99.5q-22 48 -22 116q0 67 23 114q28 64 90 98.5t151 34.5q88 0 149 -33.5t88 -95.5q23 -49 23 -110h-516v-8q0 -66 22 -113q27 -61 88.5 -95.5t147.5 -34.5q60 0 108.5 16t81.5 46
q49 48 58 117zM51 254h508q-2 51 -22 98q-27 60 -86 92.5t-144 32.5q-86 0 -146.5 -33.5t-87.5 -95.5q-19 -39 -22 -94zM224 566.5q-31 17.5 -45.5 51.5t-17.5 88h8q3 -52 16.5 -84.5t43 -48.5t78.5 -16q50 0 79.5 16t43 48.5t16.5 84.5h8q-3 -54 -17.5 -88t-45.5 -51.5
t-84 -17.5q-52 0 -83 17.5z" />
    <glyph glyph-name="Edotaccent" unicode="&#x116;" horiz-adv-x="601" 
d="M87 706h458v-8h-450v-336h447v-8h-447v-346h450v-8h-458v706zM304.5 819q-4.5 5 -4.5 12t4.5 11t11.5 4t11.5 -4t4.5 -11t-4.5 -12t-11.5 -5t-11.5 5z" />
    <glyph glyph-name="edotaccent" unicode="&#x117;" horiz-adv-x="610" 
d="M557 174h8q-9 -74 -61 -123q-34 -31 -83.5 -47.5t-111.5 -16.5q-89 0 -152 35.5t-92 99.5q-22 48 -22 116q0 67 23 114q28 64 90 98.5t151 34.5q88 0 149 -33.5t88 -95.5q23 -49 23 -110h-516v-8q0 -66 22 -113q27 -61 88.5 -95.5t147.5 -34.5q60 0 108.5 16t81.5 46
q49 48 58 117zM51 254h508q-2 51 -22 98q-27 60 -86 92.5t-144 32.5q-86 0 -146.5 -33.5t-87.5 -95.5q-19 -39 -22 -94zM295.5 620.5q-4.5 4.5 -4.5 11.5t4.5 11.5t11.5 4.5t11.5 -4.5t4.5 -11.5t-4.5 -11.5t-11.5 -4.5t-11.5 4.5z" />
    <glyph glyph-name="Eogonek" unicode="&#x118;" horiz-adv-x="601" 
d="M554 -192v-9q-26 -10 -53 -10q-38 0 -60 20t-22 55q0 26 13 47t35 39.5t64 49.5h-444v706h458v-8h-450v-336h447v-8h-447v-346h450v-8q-43 -30 -67.5 -51t-37.5 -41.5t-13 -43.5q0 -32 19.5 -49.5t53.5 -17.5q29 0 54 11z" />
    <glyph glyph-name="eogonek" unicode="&#x119;" horiz-adv-x="610" 
d="M557 174h8q-7 -49 -30 -84t-69 -70q-51 -38 -77.5 -61t-40 -44.5t-13.5 -45.5q0 -34 19.5 -53t53.5 -19q29 0 54 11v-9q-26 -10 -53 -10q-38 0 -60 21.5t-22 58.5q0 27 13 48.5t34.5 41t66.5 53.5q-58 -25 -132 -25q-89 0 -152 35.5t-92 99.5q-22 48 -22 116q0 67 23 114
q28 64 90 98.5t151 34.5q88 0 149 -33.5t88 -95.5q23 -49 23 -110h-516v-8q0 -66 22 -113q27 -61 88.5 -95.5t147.5 -34.5q60 0 108.5 16t81.5 46q49 48 58 117zM51 254h508q-2 51 -22 98q-27 60 -86 92.5t-144 32.5q-86 0 -146.5 -33.5t-87.5 -95.5q-19 -39 -22 -94z" />
    <glyph glyph-name="Ecaron" unicode="&#x11a;" horiz-adv-x="601" 
d="M87 706h458v-8h-450v-336h447v-8h-447v-346h450v-8h-458v706zM321 768h-10l-162 126h13l154 -120l154 120h13z" />
    <glyph glyph-name="ecaron" unicode="&#x11b;" horiz-adv-x="610" 
d="M557 174h8q-9 -74 -61 -123q-34 -31 -83.5 -47.5t-111.5 -16.5q-89 0 -152 35.5t-92 99.5q-22 48 -22 116q0 67 23 114q28 64 90 98.5t151 34.5q88 0 149 -33.5t88 -95.5q23 -49 23 -110h-516v-8q0 -66 22 -113q27 -61 88.5 -95.5t147.5 -34.5q60 0 108.5 16t81.5 46
q49 48 58 117zM51 254h508q-2 51 -22 98q-27 60 -86 92.5t-144 32.5q-86 0 -146.5 -33.5t-87.5 -95.5q-19 -39 -22 -94zM313 551h-10l-137 155h11l131 -149l131 149h10z" />
    <glyph glyph-name="Gcircumflex" unicode="&#x11c;" horiz-adv-x="863" 
d="M807 348v-16q0 -94 -31 -165q-40 -87 -126 -134.5t-212 -47.5q-128 0 -217 50t-131 142q-34 72 -34 176t34 176q42 93 131.5 142.5t221.5 49.5q84 0 152 -21.5t115 -63.5q37 -34 59 -80.5t27 -105.5h-8q-12 115 -84 180q-46 42 -112.5 62.5t-148.5 20.5
q-129 0 -217.5 -49t-128.5 -139q-33 -72 -33 -172t33 -172q40 -90 127.5 -139t213.5 -49q124 0 208.5 46.5t122.5 131.5q30 68 30 161v8h-308v8h316zM433 894h10l162 -126h-13l-154 120l-154 -120h-13z" />
    <glyph glyph-name="gcircumflex" unicode="&#x11d;" horiz-adv-x="637" 
d="M558 472v-464q0 -60 -21 -110q-26 -57 -84.5 -85t-142.5 -28q-63 0 -112.5 14.5t-81.5 44.5q-51 46 -51 123h8q0 -37 12.5 -67t36.5 -51q30 -28 78.5 -42t109.5 -14q82 0 138 26.5t82 82.5q20 46 20 106v161q-11 -59 -45.5 -99.5t-86.5 -61t-116 -20.5q-86 0 -147 35
t-89 97q-23 49 -23 116t23 116q28 63 89 98t147 35q64 0 116 -20.5t86.5 -61t45.5 -99.5v168h8zM429 22.5q56 26.5 88.5 79t32.5 128.5v13q0 76 -32.5 128.5t-88.5 79t-127 26.5q-83 0 -142.5 -34t-86.5 -95q-22 -47 -22 -112t22 -112q27 -61 86 -94.5t143 -33.5
q71 0 127 26.5zM312 706h10l136 -155h-10l-131 149l-131 -149h-11z" />
    <glyph glyph-name="Gbreve" unicode="&#x11e;" horiz-adv-x="863" 
d="M807 348v-16q0 -94 -31 -165q-40 -87 -126 -134.5t-212 -47.5q-128 0 -217 50t-131 142q-34 72 -34 176t34 176q42 93 131.5 142.5t221.5 49.5q84 0 152 -21.5t115 -63.5q37 -34 59 -80.5t27 -105.5h-8q-12 115 -84 180q-46 42 -112.5 62.5t-148.5 20.5
q-129 0 -217.5 -49t-128.5 -139q-33 -72 -33 -172t33 -172q40 -90 127.5 -139t213.5 -49q124 0 208.5 46.5t122.5 131.5q30 68 30 161v8h-308v8h316zM323.5 796q-36.5 33 -40.5 95h8q4 -60 38 -90t109 -30t109 30t38 90h8q-4 -62 -40.5 -95t-114.5 -33t-114.5 33z" />
    <glyph glyph-name="gbreve" unicode="&#x11f;" horiz-adv-x="637" 
d="M558 472v-464q0 -60 -21 -110q-26 -57 -84.5 -85t-142.5 -28q-63 0 -112.5 14.5t-81.5 44.5q-51 46 -51 123h8q0 -37 12.5 -67t36.5 -51q30 -28 78.5 -42t109.5 -14q82 0 138 26.5t82 82.5q20 46 20 106v161q-11 -59 -45.5 -99.5t-86.5 -61t-116 -20.5q-86 0 -147 35
t-89 97q-23 49 -23 116t23 116q28 63 89 98t147 35q64 0 116 -20.5t86.5 -61t45.5 -99.5v168h8zM429 22.5q56 26.5 88.5 79t32.5 128.5v13q0 76 -32.5 128.5t-88.5 79t-127 26.5q-83 0 -142.5 -34t-86.5 -95q-22 -47 -22 -112t22 -112q27 -61 86 -94.5t143 -33.5
q71 0 127 26.5zM233 566.5q-31 17.5 -45.5 51.5t-17.5 88h8q3 -52 16.5 -84.5t43 -48.5t78.5 -16q50 0 79.5 16t43 48.5t16.5 84.5h8q-3 -54 -17.5 -88t-45.5 -51.5t-84 -17.5q-52 0 -83 17.5z" />
    <glyph glyph-name="Gdotaccent" unicode="&#x120;" horiz-adv-x="863" 
d="M807 348v-16q0 -94 -31 -165q-40 -87 -126 -134.5t-212 -47.5q-128 0 -217 50t-131 142q-34 72 -34 176t34 176q42 93 131.5 142.5t221.5 49.5q84 0 152 -21.5t115 -63.5q37 -34 59 -80.5t27 -105.5h-8q-12 115 -84 180q-46 42 -112.5 62.5t-148.5 20.5
q-129 0 -217.5 -49t-128.5 -139q-33 -72 -33 -172t33 -172q40 -90 127.5 -139t213.5 -49q124 0 208.5 46.5t122.5 131.5q30 68 30 161v8h-308v8h316zM426.5 819q-4.5 5 -4.5 12t4.5 11t11.5 4t11.5 -4t4.5 -11t-4.5 -12t-11.5 -5t-11.5 5z" />
    <glyph glyph-name="gdotaccent" unicode="&#x121;" horiz-adv-x="637" 
d="M558 472v-464q0 -60 -21 -110q-26 -57 -84.5 -85t-142.5 -28q-63 0 -112.5 14.5t-81.5 44.5q-51 46 -51 123h8q0 -37 12.5 -67t36.5 -51q30 -28 78.5 -42t109.5 -14q82 0 138 26.5t82 82.5q20 46 20 106v161q-11 -59 -45.5 -99.5t-86.5 -61t-116 -20.5q-86 0 -147 35
t-89 97q-23 49 -23 116t23 116q28 63 89 98t147 35q64 0 116 -20.5t86.5 -61t45.5 -99.5v168h8zM429 22.5q56 26.5 88.5 79t32.5 128.5v13q0 76 -32.5 128.5t-88.5 79t-127 26.5q-83 0 -142.5 -34t-86.5 -95q-22 -47 -22 -112t22 -112q27 -61 86 -94.5t143 -33.5
q71 0 127 26.5zM304.5 620.5q-4.5 4.5 -4.5 11.5t4.5 11.5t11.5 4.5t11.5 -4.5t4.5 -11.5t-4.5 -11.5t-11.5 -4.5t-11.5 4.5z" />
    <glyph glyph-name="Gcommaaccent" unicode="&#x122;" horiz-adv-x="863" 
d="M807 348v-16q0 -94 -31 -165q-40 -87 -126 -134.5t-212 -47.5q-128 0 -217 50t-131 142q-34 72 -34 176t34 176q42 93 131.5 142.5t221.5 49.5q84 0 152 -21.5t115 -63.5q37 -34 59 -80.5t27 -105.5h-8q-12 115 -84 180q-46 42 -112.5 62.5t-148.5 20.5
q-129 0 -217.5 -49t-128.5 -139q-33 -72 -33 -172t33 -172q40 -90 127.5 -139t213.5 -49q124 0 208.5 46.5t122.5 131.5q30 68 30 161v8h-308v8h316zM437 -52h8l-39 -151h-8z" />
    <glyph glyph-name="gcommaaccent" unicode="&#x123;" horiz-adv-x="637" 
d="M558 472v-464q0 -60 -21 -110q-26 -57 -84.5 -85t-142.5 -28q-63 0 -112.5 14.5t-81.5 44.5q-51 46 -51 123h8q0 -37 12.5 -67t36.5 -51q30 -28 78.5 -42t109.5 -14q82 0 138 26.5t82 82.5q20 46 20 106v161q-11 -59 -45.5 -99.5t-86.5 -61t-116 -20.5q-86 0 -147 35
t-89 97q-23 49 -23 116t23 116q28 63 89 98t147 35q64 0 116 -20.5t86.5 -61t45.5 -99.5v168h8zM429 22.5q56 26.5 88.5 79t32.5 128.5v13q0 76 -32.5 128.5t-88.5 79t-127 26.5q-83 0 -142.5 -34t-86.5 -95q-22 -47 -22 -112t22 -112q27 -61 86 -94.5t143 -33.5
q71 0 127 26.5zM306 553h-8l39 150h8z" />
    <glyph glyph-name="Hcircumflex" unicode="&#x124;" horiz-adv-x="710" 
d="M87 706h8v-344h520v344h8v-706h-8v354h-520v-354h-8v706zM350 894h10l162 -126h-13l-154 120l-154 -120h-13z" />
    <glyph glyph-name="hcircumflex" unicode="&#x125;" horiz-adv-x="591" 
d="M463.5 427.5q54.5 -57.5 54.5 -170.5v-257h-8v257q0 109 -52.5 164.5t-152.5 55.5q-69 0 -118 -26.5t-74.5 -76.5t-25.5 -120v-254h-8v706h8v-385q18 83 75.5 123.5t142.5 40.5q104 0 158.5 -57.5zM294 894h10l162 -126h-13l-154 120l-154 -120h-13z" />
    <glyph glyph-name="Hbar" unicode="&#x126;" horiz-adv-x="710" 
d="M623 706v-706h-8v354h-520v-354h-8v706h8v-152h520v152h8zM615 362v184h-520v-184h520z" />
    <glyph glyph-name="hbar" unicode="&#x127;" horiz-adv-x="591" 
d="M463.5 427.5q54.5 -57.5 54.5 -170.5v-257h-8v257q0 109 -52.5 164.5t-152.5 55.5q-69 0 -118 -26.5t-74.5 -76.5t-25.5 -120v-254h-8v602h-79v8h79v96h8v-96h207v-8h-207v-281q18 83 75.5 123.5t142.5 40.5q104 0 158.5 -57.5z" />
    <glyph glyph-name="Itilde" unicode="&#x128;" horiz-adv-x="182" 
d="M87 706h8v-706h-8v706zM117.5 782q-15.5 16 -30.5 45q-14 28 -28 42t-36 14q-65 0 -68 -115h-8q1 57 19 90t57 33q26 0 41 -15.5t30 -44.5q14 -28 28.5 -42.5t35.5 -14.5q35 0 50.5 31t17.5 85h8q-1 -58 -19 -91t-57 -33q-25 0 -40.5 16z" />
    <glyph glyph-name="itilde" unicode="&#x129;" horiz-adv-x="166" 
d="M79 472h8v-472h-8v472zM112.5 558q-10.5 10 -17.5 25.5t-16 42.5q-12 38 -23 56.5t-29 18.5q-26 0 -38 -37t-14 -113h-8q2 80 16 119t44 39q15 0 25.5 -10.5t17.5 -25.5t16 -43q9 -27 15 -41t15 -23.5t22 -9.5q26 0 38 37t14 113h8q-2 -80 -16 -119t-44 -39
q-15 0 -25.5 10z" />
    <glyph glyph-name="Imacron" unicode="&#x12a;" horiz-adv-x="182" 
d="M87 706h8v-706h-8v706zM-18 835h218v-8h-218v8z" />
    <glyph glyph-name="imacron" unicode="&#x12b;" horiz-adv-x="166" 
d="M79 472h8v-472h-8v472zM-25 631h216v-8h-216v8z" />
    <glyph glyph-name="Ibreve" unicode="&#x12c;" horiz-adv-x="182" 
d="M87 706h8v-706h-8v706zM8.5 795q-24.5 32 -26.5 96h8q2 -61 24 -90.5t77 -29.5t77 29.5t24 90.5h8q-2 -65 -26.5 -96.5t-82.5 -31.5t-82.5 32z" />
    <glyph glyph-name="ibreve" unicode="&#x12d;" horiz-adv-x="166" 
d="M79 472h8v-472h-8v472zM6 588q-24 38 -26 118h8q2 -51 11 -83.5t29.5 -48.5t54.5 -16q50 0 71.5 35.5t23.5 112.5h8q-2 -80 -25.5 -118t-77.5 -38q-53 0 -77 38z" />
    <glyph glyph-name="Iogonek" unicode="&#x12e;" horiz-adv-x="182" 
d="M132 -192v-9q-21 -10 -43 -10q-33 0 -52 19t-19 53q0 26 8 48t22 43t39 50v704h8v-706q-38 -45 -53.5 -74.5t-15.5 -64.5q0 -31 16.5 -47.5t45.5 -16.5q23 0 44 11z" />
    <glyph glyph-name="iogonek" unicode="&#x12f;" horiz-adv-x="166" 
d="M71.5 620.5q-4.5 4.5 -4.5 11.5t4.5 11.5t11.5 4.5t11.5 -4.5t4.5 -11.5t-4.5 -11.5t-11.5 -4.5t-11.5 4.5zM124 -192v-9q-21 -10 -43 -10q-33 0 -52 19t-19 53q0 26 8 48t22 43t39 50v470h8v-472q-38 -45 -53.5 -74.5t-15.5 -64.5q0 -31 16.5 -47.5t45.5 -16.5
q23 0 44 11z" />
    <glyph glyph-name="Idotaccent" unicode="&#x130;" horiz-adv-x="182" 
d="M87 706h8v-706h-8v706zM79.5 819q-4.5 5 -4.5 12t4.5 11t11.5 4t11.5 -4t4.5 -11t-4.5 -12t-11.5 -5t-11.5 5z" />
    <glyph glyph-name="dotlessi" unicode="&#x131;" horiz-adv-x="166" 
d="M79 472h8v-472h-8v472z" />
    <glyph glyph-name="IJ" unicode="&#x132;" horiz-adv-x="513" 
d="M87 706h8v-706h-8v706zM195 0v8q27 -4 62 -4q57 0 92.5 17.5t52.5 55.5t17 99v530h8v-530q0 -95 -41 -137.5t-129 -42.5q-35 0 -62 4z" />
    <glyph glyph-name="ij" unicode="&#x133;" horiz-adv-x="330" 
d="M71.5 620.5q-4.5 4.5 -4.5 11.5t4.5 11.5t11.5 4.5t11.5 -4.5t4.5 -11.5t-4.5 -11.5t-11.5 -4.5t-11.5 4.5zM79 472h8v-472h-8v472zM234.5 620.5q-4.5 4.5 -4.5 11.5t4.5 11.5t11.5 4.5t11.5 -4.5t4.5 -11.5t-4.5 -11.5t-11.5 -4.5t-11.5 4.5zM105 -203v8q21 -2 43 -2
q50 0 72.5 24.5t22.5 80.5v564h8v-564q0 -59 -25 -86t-78 -27q-22 0 -43 2z" />
    <glyph glyph-name="Jcircumflex" unicode="&#x134;" horiz-adv-x="331" 
d="M13 0v8q27 -4 62 -4q57 0 92.5 17.5t52.5 55.5t17 99v530h8v-530q0 -95 -41 -137.5t-129 -42.5q-35 0 -62 4zM235 893h10l107 -125h-10l-102 119l-100 -119h-11z" />
    <glyph glyph-name="jcircumflex" unicode="&#x135;" horiz-adv-x="164" 
d="M-61 -203v8q21 -2 43 -2q50 0 72.5 24.5t22.5 80.5v564h8v-564q0 -59 -25 -86t-78 -27q-22 0 -43 2zM75 706h10l99 -155h-9l-95 149l-94 -149h-10z" />
    <glyph glyph-name="Kcommaaccent" unicode="&#x136;" horiz-adv-x="549" 
d="M526 0l-431 386v-386h-8v706h8v-315l380 315h13l-385 -317l435 -389h-12zM294 -52h8l-39 -151h-8z" />
    <glyph glyph-name="kcommaaccent" unicode="&#x137;" horiz-adv-x="432" 
d="M416 0l-329 263v-263h-8v706h8v-436l296 202h14l-302 -205l334 -267h-13zM244 -52h8l-39 -151h-8z" />
    <glyph glyph-name="kgreenlandic" unicode="&#x138;" horiz-adv-x="433" 
d="M417 0l-329 263v-263h-9v472h9v-202l296 202h14l-302 -205l334 -267h-13z" />
    <glyph glyph-name="Lacute" unicode="&#x139;" horiz-adv-x="437" 
d="M87 706h8v-698h329v-8h-337v706zM207 894h13l-180 -126h-13z" />
    <glyph glyph-name="lacute" unicode="&#x13a;" horiz-adv-x="166" 
d="M79 706h8v-706h-8v706zM199 894h13l-180 -126h-13z" />
    <glyph glyph-name="Lcommaaccent" unicode="&#x13b;" horiz-adv-x="437" 
d="M87 706h8v-698h329v-8h-337v706zM256 -52h8l-39 -151h-8z" />
    <glyph glyph-name="lcommaaccent" unicode="&#x13c;" horiz-adv-x="166" 
d="M79 706h8v-706h-8v706zM81 -52h8l-39 -151h-8z" />
    <glyph glyph-name="Lcaron" unicode="&#x13d;" horiz-adv-x="437" 
d="M87 706h8v-698h329v-8h-337v706zM243 706h8l-46 -168h-8z" />
    <glyph glyph-name="lcaron" unicode="&#x13e;" horiz-adv-x="188" 
d="M79 706h8v-706h-8v706zM187 706h8l-46 -168h-8z" />
    <glyph glyph-name="Ldot" unicode="&#x13f;" horiz-adv-x="478" 
d="M87 706h8v-698h329v-8h-337v706zM313.5 356.5q-4.5 4.5 -4.5 12.5q0 7 4.5 11t11.5 4t11.5 -4t4.5 -11q0 -8 -4 -12.5t-12 -4.5q-7 0 -11.5 4.5z" />
    <glyph glyph-name="ldot" unicode="&#x140;" horiz-adv-x="240" 
d="M79 706h8v-706h-8v706zM191.5 356.5q-4.5 4.5 -4.5 12.5q0 7 4.5 11t11.5 4t11.5 -4t4.5 -11q0 -8 -4 -12.5t-12 -4.5q-7 0 -11.5 4.5z" />
    <glyph glyph-name="Lslash" unicode="&#x141;" horiz-adv-x="437" 
d="M424 8v-8h-337v347l-77 -48v9l77 49v349h8v-345l191 120v-9l-191 -120v-344h329z" />
    <glyph glyph-name="lslash" unicode="&#x142;" horiz-adv-x="166" 
d="M163 440l-76 -58v-382h-8v378l-77 -58v10l77 58v318h8v-314l76 58v-10z" />
    <glyph glyph-name="Nacute" unicode="&#x143;" horiz-adv-x="747" 
d="M87 706h9l556 -695v695h8v-706h-9l-556 695v-695h-8v706zM490 894h13l-180 -126h-13z" />
    <glyph glyph-name="nacute" unicode="&#x144;" horiz-adv-x="591" 
d="M463.5 427.5q54.5 -57.5 54.5 -170.5v-257h-8v257q0 109 -52.5 164.5t-152.5 55.5q-69 0 -118 -26.5t-74.5 -76.5t-25.5 -120v-254h-8v472h8v-151q18 83 75.5 123.5t142.5 40.5q104 0 158.5 -57.5zM372 706h10l-125 -155h-10z" />
    <glyph glyph-name="Ncommaaccent" unicode="&#x145;" horiz-adv-x="747" 
d="M87 706h9l556 -695v695h8v-706h-9l-556 695v-695h-8v706zM368 -52h8l-39 -151h-8z" />
    <glyph glyph-name="ncommaaccent" unicode="&#x146;" horiz-adv-x="591" 
d="M463.5 427.5q54.5 -57.5 54.5 -170.5v-257h-8v257q0 109 -52.5 164.5t-152.5 55.5q-69 0 -118 -26.5t-74.5 -76.5t-25.5 -120v-254h-8v472h8v-151q18 83 75.5 123.5t142.5 40.5q104 0 158.5 -57.5zM298 -52h8l-39 -151h-8z" />
    <glyph glyph-name="Ncaron" unicode="&#x147;" horiz-adv-x="747" 
d="M87 706h9l556 -695v695h8v-706h-9l-556 695v-695h-8v706zM379 768h-10l-162 126h13l154 -120l154 120h13z" />
    <glyph glyph-name="ncaron" unicode="&#x148;" horiz-adv-x="591" 
d="M463.5 427.5q54.5 -57.5 54.5 -170.5v-257h-8v257q0 109 -52.5 164.5t-152.5 55.5q-69 0 -118 -26.5t-74.5 -76.5t-25.5 -120v-254h-8v472h8v-151q18 83 75.5 123.5t142.5 40.5q104 0 158.5 -57.5zM304 551h-10l-137 155h11l131 -149l131 149h10z" />
    <glyph glyph-name="napostrophe" unicode="&#x149;" horiz-adv-x="703" 
d="M140 706h8l-79 -290h-8zM575.5 427.5q54.5 -57.5 54.5 -170.5v-257h-8v257q0 109 -52.5 164.5t-152.5 55.5q-69 0 -118 -26.5t-74.5 -76.5t-25.5 -120v-254h-8v472h8v-151q18 83 75.5 123.5t142.5 40.5q104 0 158.5 -57.5z" />
    <glyph glyph-name="Eng" unicode="&#x14a;" horiz-adv-x="747" 
d="M660 706v-798q0 -59 -25 -86t-78 -27q-16 0 -42 2v8q22 -2 41 -2q51 0 73.5 24.5t22.5 80.5v92l-557 694v-694h-8v706h9l556 -693v693h8z" />
    <glyph glyph-name="eng" unicode="&#x14b;" horiz-adv-x="591" 
d="M464 427.5q54 -57.5 54 -170.5v-349q0 -59 -25 -86t-78 -27q-16 0 -42 2v8q24 -2 42 -2q50 0 72.5 24.5t22.5 80.5v349q0 110 -52 165t-154 55q-68 0 -116.5 -26t-74.5 -76t-26 -121v-254h-8v472h8v-146q19 81 77 120t141 39q105 0 159 -57.5z" />
    <glyph glyph-name="Omacron" unicode="&#x14c;" horiz-adv-x="875" 
d="M219.5 35q-88.5 50 -129.5 141q-34 75 -34 177t34 177q41 91 129.5 141t218.5 50q129 0 217.5 -50t129.5 -141q34 -72 34 -177t-34 -177q-41 -91 -129.5 -141t-217.5 -50q-130 0 -218.5 50zM651 42q87 49 127 138q33 70 33 173t-33 173q-40 89 -127 138t-213 49
q-127 0 -214 -49t-127 -138q-33 -73 -33 -173t33 -173q40 -89 127 -138t214 -49q126 0 213 49zM275 835h324v-8h-324v8z" />
    <glyph glyph-name="omacron" unicode="&#x14d;" horiz-adv-x="613" 
d="M156 23q-62 35 -90 98q-23 49 -23 115q0 68 23 115q28 63 90 98.5t151 35.5t151 -35.5t90 -98.5q23 -51 23 -115q0 -63 -23 -115q-28 -63 -90.5 -98t-150.5 -35q-89 0 -151 35zM453.5 30q60.5 34 87.5 95q22 50 22 111q0 62 -22 111q-27 62 -87.5 96t-146.5 34
t-146.5 -34t-87.5 -96q-22 -45 -22 -111q0 -64 22 -111q27 -61 87.5 -95t146.5 -34t146.5 34zM145 631h323v-8h-323v8z" />
    <glyph glyph-name="Obreve" unicode="&#x14e;" horiz-adv-x="875" 
d="M219.5 35q-88.5 50 -129.5 141q-34 75 -34 177t34 177q41 91 129.5 141t218.5 50q129 0 217.5 -50t129.5 -141q34 -72 34 -177t-34 -177q-41 -91 -129.5 -141t-217.5 -50q-130 0 -218.5 50zM651 42q87 49 127 138q33 70 33 173t-33 173q-40 89 -127 138t-213 49
q-127 0 -214 -49t-127 -138q-33 -73 -33 -173t33 -173q40 -89 127 -138t214 -49q126 0 213 49zM323.5 796q-36.5 33 -40.5 95h8q4 -60 38 -90t109 -30t109 30t38 90h8q-4 -62 -40.5 -95t-114.5 -33t-114.5 33z" />
    <glyph glyph-name="obreve" unicode="&#x14f;" horiz-adv-x="613" 
d="M156 23q-62 35 -90 98q-23 49 -23 115q0 68 23 115q28 63 90 98.5t151 35.5t151 -35.5t90 -98.5q23 -51 23 -115q0 -63 -23 -115q-28 -63 -90.5 -98t-150.5 -35q-89 0 -151 35zM453.5 30q60.5 34 87.5 95q22 50 22 111q0 62 -22 111q-27 62 -87.5 96t-146.5 34
t-146.5 -34t-87.5 -96q-22 -45 -22 -111q0 -64 22 -111q27 -61 87.5 -95t146.5 -34t146.5 34zM223 566.5q-31 17.5 -45.5 51.5t-17.5 88h8q3 -52 16.5 -84.5t43 -48.5t78.5 -16q50 0 79.5 16t43 48.5t16.5 84.5h8q-3 -54 -17.5 -88t-45.5 -51.5t-84 -17.5q-52 0 -83 17.5z
" />
    <glyph glyph-name="Ohungarumlaut" unicode="&#x150;" horiz-adv-x="875" 
d="M219.5 35q-88.5 50 -129.5 141q-34 75 -34 177t34 177q41 91 129.5 141t218.5 50q129 0 217.5 -50t129.5 -141q34 -72 34 -177t-34 -177q-41 -91 -129.5 -141t-217.5 -50q-130 0 -218.5 50zM651 42q87 49 127 138q33 70 33 173t-33 173q-40 89 -127 138t-213 49
q-127 0 -214 -49t-127 -138q-33 -73 -33 -173t33 -173q40 -89 127 -138t214 -49q126 0 213 49zM501 894h12l-160 -126h-12zM644 894h12l-160 -126h-12z" />
    <glyph glyph-name="ohungarumlaut" unicode="&#x151;" horiz-adv-x="613" 
d="M156 23q-62 35 -90 98q-23 49 -23 115q0 68 23 115q28 63 90 98.5t151 35.5t151 -35.5t90 -98.5q23 -51 23 -115q0 -63 -23 -115q-28 -63 -90.5 -98t-150.5 -35q-89 0 -151 35zM453.5 30q60.5 34 87.5 95q22 50 22 111q0 62 -22 111q-27 62 -87.5 96t-146.5 34
t-146.5 -34t-87.5 -96q-22 -45 -22 -111q0 -64 22 -111q27 -61 87.5 -95t146.5 -34t146.5 34zM330 706h10l-134 -155h-10zM486 706h10l-134 -155h-10z" />
    <glyph glyph-name="OE" unicode="&#x152;" horiz-adv-x="1259" 
d="M754 698v-336h446v-8h-446v-346h449v-8h-457v262q-10 -57 -29 -98q-37 -84 -116 -131.5t-196 -47.5t-196.5 48.5t-117.5 133.5q-35 79 -35 186t35 186q38 85 117.5 133.5t196.5 48.5t196 -47.5t116 -131.5q19 -41 29 -98v262h457v-8h-449zM746 353q0 109 -36 185
q-36 82 -113.5 128.5t-191.5 46.5q-115 0 -192 -47.5t-115 -130.5q-34 -80 -34 -182t34 -182q38 -83 115 -130.5t192 -47.5q114 0 191.5 46.5t113.5 128.5q36 76 36 185z" />
    <glyph glyph-name="oe" unicode="&#x153;" horiz-adv-x="1038" 
d="M985 176h8q-9 -79 -63 -129q-31 -29 -75 -43.5t-97 -14.5q-78 0 -134.5 33.5t-83.5 94.5q-16 36 -20 79q-4 -45 -20 -82q-27 -60 -82.5 -92t-131.5 -32q-79 0 -135.5 33t-83.5 94q-24 53 -24 121q0 70 24 121q27 61 83.5 94t135.5 33q77 0 132 -32t82 -92q16 -37 20 -82
q5 47 21 83q27 60 82 91.5t133 31.5t133.5 -31.5t81.5 -90.5q24 -51 24 -120h-471v-7q0 -65 23 -116q26 -59 81 -91.5t130 -32.5q51 0 94 14t73 42q51 47 60 123zM516 238q0 68 -23 120q-26 58 -79.5 89t-127.5 31q-77 0 -131.5 -32t-80.5 -91q-23 -47 -23 -117
q0 -68 23 -117q26 -58 81 -90.5t131 -32.5q74 0 127.5 31t79.5 88q23 54 23 121zM524 252h463q-2 64 -23 108q-26 57 -79 87.5t-129 30.5t-129 -30.5t-79 -88.5q-21 -49 -24 -107z" />
    <glyph glyph-name="Racute" unicode="&#x154;" horiz-adv-x="667" 
d="M281 354h-186v-354h-8v706h308q83 0 136 -23.5t75 -72.5q15 -33 15 -80t-15 -80q-22 -49 -75 -72.5t-136 -23.5h-103l372 -354h-12zM95 362h300q80 0 131.5 22.5t72.5 69.5q14 31 14 76t-14 76q-21 48 -72 70t-132 22h-300v-336zM449 894h13l-180 -126h-13z" />
    <glyph glyph-name="racute" unicode="&#x155;" horiz-adv-x="322" 
d="M300 472v-8q-24 7 -58 7q-77 0 -116 -40t-39 -112v-319h-8v472h8v-97q12 49 51.5 76.5t103.5 27.5q34 0 58 -7zM259 706h10l-125 -155h-10z" />
    <glyph glyph-name="Rcommaaccent" unicode="&#x156;" horiz-adv-x="667" 
d="M281 354h-186v-354h-8v706h308q83 0 136 -23.5t75 -72.5q15 -33 15 -80t-15 -80q-22 -49 -75 -72.5t-136 -23.5h-103l372 -354h-12zM95 362h300q80 0 131.5 22.5t72.5 69.5q14 31 14 76t-14 76q-21 48 -72 70t-132 22h-300v-336zM343 -52h8l-39 -151h-8z" />
    <glyph glyph-name="rcommaaccent" unicode="&#x157;" horiz-adv-x="322" 
d="M300 472v-8q-24 7 -58 7q-77 0 -116 -40t-39 -112v-319h-8v472h8v-97q12 49 51.5 76.5t103.5 27.5q34 0 58 -7zM80 -52h8l-39 -151h-8z" />
    <glyph glyph-name="Rcaron" unicode="&#x158;" horiz-adv-x="667" 
d="M281 354h-186v-354h-8v706h308q83 0 136 -23.5t75 -72.5q15 -33 15 -80t-15 -80q-22 -49 -75 -72.5t-136 -23.5h-103l372 -354h-12zM95 362h300q80 0 131.5 22.5t72.5 69.5q14 31 14 76t-14 76q-21 48 -72 70t-132 22h-300v-336zM338 768h-10l-162 126h13l154 -120
l154 120h13z" />
    <glyph glyph-name="rcaron" unicode="&#x159;" horiz-adv-x="322" 
d="M300 472v-8q-24 7 -58 7q-77 0 -116 -40t-39 -112v-319h-8v472h8v-97q12 49 51.5 76.5t103.5 27.5q34 0 58 -7zM192 551h-10l-137 155h11l131 -149l131 149h10z" />
    <glyph glyph-name="Sacute" unicode="&#x15a;" horiz-adv-x="732" 
d="M187.5 20.5q-76.5 35.5 -108.5 106.5q-12 26 -17.5 56t-5.5 67h8q0 -71 22 -119q31 -69 106 -103.5t190 -34.5q107 0 177 31.5t95 88.5q14 28 14 69q0 35 -11 58q-17 38 -59 61t-94.5 34.5t-131.5 21.5q-84 12 -133.5 22.5t-90.5 32.5t-58 58q-11 25 -11 57q0 36 14 67
q17 38 53 66.5t89 44.5t119 16q100 0 168 -35t98 -100q22 -48 22 -114h-8q0 64 -21 110q-29 64 -95 97.5t-164 33.5t-163.5 -33.5t-90.5 -89.5q-13 -31 -13 -63q0 -16 2.5 -28t7.5 -25q16 -35 55.5 -55.5t87.5 -31t132 -22.5q82 -11 135 -22.5t96.5 -35.5t61.5 -64
q11 -27 11 -61q0 -40 -15 -73q-27 -59 -99 -91.5t-180 -32.5q-118 0 -194.5 35.5zM473 894h13l-180 -126h-13z" />
    <glyph glyph-name="sacute" unicode="&#x15b;" horiz-adv-x="513" 
d="M134 13q-51 26 -73 74q-8 17 -11.5 36t-3.5 44h8q0 -24 3.5 -42t10.5 -34q21 -46 70.5 -71t121.5 -25q74 0 122.5 22t66.5 61q10 20 10 48q0 21 -8 40q-11 23 -38.5 37t-62.5 21t-92 15q-55 8 -88 15.5t-58.5 22.5t-36.5 39q-8 21 -8 43q0 27 10 48q17 37 60 57.5
t108 20.5q69 0 117.5 -23.5t68.5 -68.5q14 -31 14 -70h-8q0 37 -13 66q-19 43 -65.5 65.5t-113.5 22.5q-62 0 -103.5 -19.5t-57.5 -54.5q-9 -19 -9 -44q0 -22 7 -39q10 -23 35 -37t57.5 -21.5t85.5 -14.5t91 -15t67 -23t40 -39q9 -21 9 -44q0 -28 -11 -52q-18 -41 -69 -64
t-127 -23q-75 0 -126 26zM336 706h10l-125 -155h-10z" />
    <glyph glyph-name="Scircumflex" unicode="&#x15c;" horiz-adv-x="732" 
d="M187.5 20.5q-76.5 35.5 -108.5 106.5q-12 26 -17.5 56t-5.5 67h8q0 -71 22 -119q31 -69 106 -103.5t190 -34.5q107 0 177 31.5t95 88.5q14 28 14 69q0 35 -11 58q-17 38 -59 61t-94.5 34.5t-131.5 21.5q-84 12 -133.5 22.5t-90.5 32.5t-58 58q-11 25 -11 57q0 36 14 67
q17 38 53 66.5t89 44.5t119 16q100 0 168 -35t98 -100q22 -48 22 -114h-8q0 64 -21 110q-29 64 -95 97.5t-164 33.5t-163.5 -33.5t-90.5 -89.5q-13 -31 -13 -63q0 -16 2.5 -28t7.5 -25q16 -35 55.5 -55.5t87.5 -31t132 -22.5q82 -11 135 -22.5t96.5 -35.5t61.5 -64
q11 -27 11 -61q0 -40 -15 -73q-27 -59 -99 -91.5t-180 -32.5q-118 0 -194.5 35.5zM352 894h10l162 -126h-13l-154 120l-154 -120h-13z" />
    <glyph glyph-name="scircumflex" unicode="&#x15d;" horiz-adv-x="513" 
d="M134 13q-51 26 -73 74q-8 17 -11.5 36t-3.5 44h8q0 -24 3.5 -42t10.5 -34q21 -46 70.5 -71t121.5 -25q74 0 122.5 22t66.5 61q10 20 10 48q0 21 -8 40q-11 23 -38.5 37t-62.5 21t-92 15q-55 8 -88 15.5t-58.5 22.5t-36.5 39q-8 21 -8 43q0 27 10 48q17 37 60 57.5
t108 20.5q69 0 117.5 -23.5t68.5 -68.5q14 -31 14 -70h-8q0 37 -13 66q-19 43 -65.5 65.5t-113.5 22.5q-62 0 -103.5 -19.5t-57.5 -54.5q-9 -19 -9 -44q0 -22 7 -39q10 -23 35 -37t57.5 -21.5t85.5 -14.5t91 -15t67 -23t40 -39q9 -21 9 -44q0 -28 -11 -52q-18 -41 -69 -64
t-127 -23q-75 0 -126 26zM259 706h10l136 -155h-10l-131 149l-131 -149h-11z" />
    <glyph glyph-name="Scedilla" unicode="&#x15e;" horiz-adv-x="732" 
d="M676 182q0 -40 -15 -73q-27 -59 -99 -91.5t-180 -32.5h-9l-35 -69h30q53 0 78.5 -16t25.5 -51t-25.5 -52t-71.5 -17q-24 0 -42.5 2.5t-35.5 9.5l2 8q17 -7 35 -9.5t41 -2.5q89 0 89 61q0 32 -23 45.5t-73 13.5h-41l38 77q-111 3 -183 38.5t-103 103.5q-12 26 -17.5 56
t-5.5 67h8q0 -71 22 -119q31 -69 106 -103.5t190 -34.5q107 0 177 31.5t95 88.5q14 28 14 69q0 35 -11 58q-17 38 -59 61t-94.5 34.5t-131.5 21.5q-84 12 -133.5 22.5t-90.5 32.5t-58 58q-11 25 -11 57q0 36 14 67q17 38 53 66.5t89 44.5t119 16q100 0 168 -35t98 -100
q22 -48 22 -114h-8q0 64 -21 110q-29 64 -95 97.5t-164 33.5t-163.5 -33.5t-90.5 -89.5q-13 -31 -13 -63q0 -16 2.5 -28t7.5 -25q16 -35 55.5 -55.5t87.5 -31t132 -22.5q82 -11 135 -22.5t96.5 -35.5t61.5 -64q11 -27 11 -61z" />
    <glyph glyph-name="scedilla" unicode="&#x15f;" horiz-adv-x="513" 
d="M467 126q0 -28 -11 -52q-17 -41 -66.5 -63.5t-122.5 -23.5l-35 -69h30q53 0 78.5 -16t25.5 -51t-25.5 -52t-71.5 -17q-24 0 -42.5 2.5t-35.5 9.5l2 8q17 -7 35 -9.5t41 -2.5q89 0 89 61q0 32 -23 45.5t-73 13.5h-41l38 77q-75 0 -125.5 26t-72.5 74q-8 17 -11.5 36
t-3.5 44h8q0 -24 3.5 -42t10.5 -34q21 -46 70.5 -71t121.5 -25q74 0 122.5 22t66.5 61q10 20 10 48q0 21 -8 40q-11 23 -38.5 37t-62.5 21t-92 15q-55 8 -88 15.5t-58.5 22.5t-36.5 39q-8 21 -8 43q0 27 10 48q17 37 60 57.5t108 20.5q69 0 117.5 -23.5t68.5 -68.5
q14 -31 14 -70h-8q0 37 -13 66q-19 43 -65.5 65.5t-113.5 22.5q-62 0 -103.5 -19.5t-57.5 -54.5q-9 -19 -9 -44q0 -22 7 -39q10 -23 35 -37t57.5 -21.5t85.5 -14.5t91 -15t67 -23t40 -39q9 -21 9 -44z" />
    <glyph glyph-name="Scaron" unicode="&#x160;" horiz-adv-x="732" 
d="M187.5 20.5q-76.5 35.5 -108.5 106.5q-12 26 -17.5 56t-5.5 67h8q0 -71 22 -119q31 -69 106 -103.5t190 -34.5q107 0 177 31.5t95 88.5q14 28 14 69q0 35 -11 58q-17 38 -59 61t-94.5 34.5t-131.5 21.5q-84 12 -133.5 22.5t-90.5 32.5t-58 58q-11 25 -11 57q0 36 14 67
q17 38 53 66.5t89 44.5t119 16q100 0 168 -35t98 -100q22 -48 22 -114h-8q0 64 -21 110q-29 64 -95 97.5t-164 33.5t-163.5 -33.5t-90.5 -89.5q-13 -31 -13 -63q0 -16 2.5 -28t7.5 -25q16 -35 55.5 -55.5t87.5 -31t132 -22.5q82 -11 135 -22.5t96.5 -35.5t61.5 -64
q11 -27 11 -61q0 -40 -15 -73q-27 -59 -99 -91.5t-180 -32.5q-118 0 -194.5 35.5zM362 768h-10l-162 126h13l154 -120l154 120h13z" />
    <glyph glyph-name="scaron" unicode="&#x161;" horiz-adv-x="513" 
d="M134 13q-51 26 -73 74q-8 17 -11.5 36t-3.5 44h8q0 -24 3.5 -42t10.5 -34q21 -46 70.5 -71t121.5 -25q74 0 122.5 22t66.5 61q10 20 10 48q0 21 -8 40q-11 23 -38.5 37t-62.5 21t-92 15q-55 8 -88 15.5t-58.5 22.5t-36.5 39q-8 21 -8 43q0 27 10 48q17 37 60 57.5
t108 20.5q69 0 117.5 -23.5t68.5 -68.5q14 -31 14 -70h-8q0 37 -13 66q-19 43 -65.5 65.5t-113.5 22.5q-62 0 -103.5 -19.5t-57.5 -54.5q-9 -19 -9 -44q0 -22 7 -39q10 -23 35 -37t57.5 -21.5t85.5 -14.5t91 -15t67 -23t40 -39q9 -21 9 -44q0 -28 -11 -52q-18 -41 -69 -64
t-127 -23q-75 0 -126 26zM269 551h-10l-137 155h11l131 -149l131 149h10z" />
    <glyph glyph-name="uni0162" unicode="&#x162;" horiz-adv-x="538" 
d="M265 698h-252v8h512v-8h-252v-698h-8v698zM344.5 -90q25.5 -16 25.5 -51t-25.5 -52.5t-71.5 -17.5q-45 0 -78 13l2 8q35 -13 76 -13q43 0 66 15t23 47t-23 45.5t-73 13.5h-41l40 82h8l-36 -74h29q53 0 78.5 -16z" />
    <glyph glyph-name="uni0163" unicode="&#x163;" horiz-adv-x="376" 
d="M136 464v-337q0 -60 31 -94.5t90 -34.5q20 0 42 3t42 9v-8q-20 -6 -42.5 -9t-42.5 -3q-10 0 -15 1l-35 -70h30q53 0 78.5 -16t25.5 -51t-25.5 -52t-71.5 -17q-24 0 -42.5 2.5t-35.5 9.5l2 8q17 -7 35 -9.5t41 -2.5q89 0 89 61q0 32 -23 45.5t-73 13.5h-41l38 78
q-51 7 -78 42.5t-27 93.5v337h-102v8h102v120h8v-120h211v-8h-211z" />
    <glyph glyph-name="Tcaron" unicode="&#x164;" horiz-adv-x="538" 
d="M265 698h-252v8h512v-8h-252v-698h-8v698zM274 768h-10l-162 126h13l154 -120l154 120h13z" />
    <glyph glyph-name="tcaron" unicode="&#x165;" horiz-adv-x="376" 
d="M161 26.5q-33 36.5 -33 100.5v337h-102v8h102v120h8v-120h211v-8h-211v-337q0 -60 31 -94.5t90 -34.5q20 0 42 3t42 9v-8q-20 -6 -42.5 -9t-42.5 -3q-62 0 -95 36.5zM265 706h8l-46 -168h-8z" />
    <glyph glyph-name="Tbar" unicode="&#x166;" horiz-adv-x="538" 
d="M273 698v-268h177v-8h-177v-422h-8v422h-177v8h177v268h-252v8h512v-8h-252z" />
    <glyph glyph-name="tbar" unicode="&#x167;" horiz-adv-x="376" 
d="M136 464v-183h210v-8h-210v-146q0 -60 31 -94.5t90 -34.5q20 0 42 3t42 9v-8q-20 -6 -42.5 -9t-42.5 -3q-62 0 -95 36.5t-33 100.5v146h-102v8h102v183h-102v8h102v120h8v-120h211v-8h-211z" />
    <glyph glyph-name="Utilde" unicode="&#x168;" horiz-adv-x="700" 
d="M147 46.5q-65 61.5 -65 194.5v465h8v-465q0 -86 27.5 -141t85 -81t147.5 -26q91 0 148 26t84.5 81t27.5 141v465h8v-465q0 -89 -28.5 -145.5t-87.5 -83.5t-152 -27q-138 0 -203 61.5zM402.5 773q-15.5 8 -27 20t-28.5 33q-14 19 -25 30.5t-26 19.5t-35 8q-41 0 -62 -32.5
t-23 -83.5h-8q2 56 25.5 90t67.5 34q21 0 37 -8t27.5 -20t28.5 -33q20 -28 38.5 -43t46.5 -15q41 0 62.5 32t23.5 83h8q-2 -55 -26 -89t-68 -34q-21 0 -36.5 8z" />
    <glyph glyph-name="utilde" unicode="&#x169;" horiz-adv-x="591" 
d="M512 472v-472h-8v151q-18 -83 -75.5 -123t-141.5 -40q-104 0 -158.5 57t-54.5 170v257h8v-257q0 -110 52 -164.5t153 -54.5q69 0 117.5 26.5t74 76t25.5 119.5v254h8zM341.5 557.5q-15.5 9.5 -27.5 26t-27 42.5q-14 26 -25 41.5t-25.5 24.5t-33.5 9q-40 0 -57.5 -40
t-19.5 -110h-8q2 76 21.5 117t63.5 41q21 0 37 -10t28 -26t27 -43q14 -26 25 -41t25 -24t33 -9q40 0 57.5 39.5t19.5 110.5h8q-2 -76 -21.5 -117t-63.5 -41q-21 0 -36.5 9.5z" />
    <glyph glyph-name="Umacron" unicode="&#x16a;" horiz-adv-x="700" 
d="M147 46.5q-65 61.5 -65 194.5v465h8v-465q0 -86 27.5 -141t85 -81t147.5 -26q91 0 148 26t84.5 81t27.5 141v465h8v-465q0 -89 -28.5 -145.5t-87.5 -83.5t-152 -27q-138 0 -203 61.5zM188 835h324v-8h-324v8z" />
    <glyph glyph-name="umacron" unicode="&#x16b;" horiz-adv-x="591" 
d="M512 472v-472h-8v151q-18 -83 -75.5 -123t-141.5 -40q-104 0 -158.5 57t-54.5 170v257h8v-257q0 -110 52 -164.5t153 -54.5q69 0 117.5 26.5t74 76t25.5 119.5v254h8zM130 631h323v-8h-323v8z" />
    <glyph glyph-name="Ubreve" unicode="&#x16c;" horiz-adv-x="700" 
d="M147 46.5q-65 61.5 -65 194.5v465h8v-465q0 -86 27.5 -141t85 -81t147.5 -26q91 0 148 26t84.5 81t27.5 141v465h8v-465q0 -89 -28.5 -145.5t-87.5 -83.5t-152 -27q-138 0 -203 61.5zM236.5 796q-36.5 33 -40.5 95h8q4 -60 38 -90t109 -30t109 30t38 90h8
q-4 -62 -40.5 -95t-114.5 -33t-114.5 33z" />
    <glyph glyph-name="ubreve" unicode="&#x16d;" horiz-adv-x="591" 
d="M512 472v-472h-8v151q-18 -83 -75.5 -123t-141.5 -40q-104 0 -158.5 57t-54.5 170v257h8v-257q0 -110 52 -164.5t153 -54.5q69 0 117.5 26.5t74 76t25.5 119.5v254h8zM207 566.5q-31 17.5 -45.5 51.5t-17.5 88h8q3 -52 16.5 -84.5t43 -48.5t78.5 -16q50 0 79.5 16
t43 48.5t16.5 84.5h8q-3 -54 -17.5 -88t-45.5 -51.5t-84 -17.5q-52 0 -83 17.5z" />
    <glyph glyph-name="Uring" unicode="&#x16e;" horiz-adv-x="700" 
d="M147 46.5q-65 61.5 -65 194.5v465h8v-465q0 -86 27.5 -141t85 -81t147.5 -26q91 0 148 26t84.5 81t27.5 141v465h8v-465q0 -89 -28.5 -145.5t-87.5 -83.5t-152 -27q-138 0 -203 61.5zM285.5 762q-24.5 23 -24.5 62q0 40 24.5 63.5t65.5 23.5t65.5 -24t24.5 -63
q0 -38 -24.5 -61.5t-65.5 -23.5t-65.5 23zM410.5 768q22.5 21 22.5 56q0 36 -22.5 57.5t-59.5 21.5q-38 0 -60 -21t-22 -58q0 -35 22 -56t60 -21q37 0 59.5 21z" />
    <glyph glyph-name="uring" unicode="&#x16f;" horiz-adv-x="591" 
d="M512 472v-472h-8v151q-18 -83 -75.5 -123t-141.5 -40q-104 0 -158.5 57t-54.5 170v257h8v-257q0 -110 52 -164.5t153 -54.5q69 0 117.5 26.5t74 76t25.5 119.5v254h8zM225.5 571q-24.5 23 -24.5 62q0 40 24.5 63.5t65.5 23.5t65.5 -24t24.5 -63q0 -38 -24.5 -61.5
t-65.5 -23.5t-65.5 23zM350.5 577q22.5 21 22.5 56q0 36 -22.5 57.5t-59.5 21.5q-38 0 -60 -21t-22 -58q0 -35 22 -56t60 -21q37 0 59.5 21z" />
    <glyph glyph-name="Uhungarumlaut" unicode="&#x170;" horiz-adv-x="700" 
d="M147 46.5q-65 61.5 -65 194.5v465h8v-465q0 -86 27.5 -141t85 -81t147.5 -26q91 0 148 26t84.5 81t27.5 141v465h8v-465q0 -89 -28.5 -145.5t-87.5 -83.5t-152 -27q-138 0 -203 61.5zM414 894h12l-160 -126h-12zM557 894h12l-160 -126h-12z" />
    <glyph glyph-name="uhungarumlaut" unicode="&#x171;" horiz-adv-x="591" 
d="M512 472v-472h-8v151q-18 -83 -75.5 -123t-141.5 -40q-104 0 -158.5 57t-54.5 170v257h8v-257q0 -110 52 -164.5t153 -54.5q69 0 117.5 26.5t74 76t25.5 119.5v254h8zM315 706h10l-134 -155h-10zM471 706h10l-134 -155h-10z" />
    <glyph glyph-name="Uogonek" unicode="&#x172;" horiz-adv-x="700" 
d="M618 706v-465q0 -60 -12.5 -102.5t-36.5 -72.5t-61 -56q-44 -32 -68 -53.5t-36.5 -42.5t-12.5 -45q0 -34 19.5 -53t53.5 -19q28 0 54 11v-9q-27 -10 -54 -10q-38 0 -59.5 21.5t-21.5 58.5q0 26 13 48t34.5 41.5t62.5 50.5q-52 -24 -143 -24q-138 0 -203 61.5t-65 194.5
v465h8v-465q0 -86 27.5 -141t85 -81t147.5 -26q91 0 148 26t84.5 81t27.5 141v465h8z" />
    <glyph glyph-name="uogonek" unicode="&#x173;" horiz-adv-x="591" 
d="M522 -192v-9q-27 -10 -54 -10q-38 0 -59.5 20t-21.5 55q0 26 13.5 47.5t36 41t67.5 51.5v147q-18 -83 -75.5 -123t-141.5 -40q-104 0 -158.5 57t-54.5 170v257h8v-257q0 -110 52 -164.5t153 -54.5q69 0 117.5 26.5t74 76t25.5 119.5v254h8v-472q-43 -30 -67.5 -51
t-37 -41.5t-12.5 -43.5q0 -32 19.5 -49.5t53.5 -17.5q28 0 54 11z" />
    <glyph glyph-name="Wcircumflex" unicode="&#x174;" horiz-adv-x="1035" 
d="M1028 706l-256 -706h-10l-244 696l-245 -696h-9l-257 706h8l253 -695l245 695h10l244 -696l253 696h8zM512 894h10l162 -126h-13l-154 120l-154 -120h-13z" />
    <glyph glyph-name="wcircumflex" unicode="&#x175;" horiz-adv-x="790" 
d="M770 472l-198 -472h-10l-165 463l-166 -463h-10l-202 472h9l198 -463l166 463h10l165 -463l194 463h9zM393 706h10l136 -155h-10l-131 149l-131 -149h-11z" />
    <glyph glyph-name="Ycircumflex" unicode="&#x176;" horiz-adv-x="629" 
d="M311 303l-304 403h11l297 -395l296 395h11l-303 -403v-303h-8v303zM310 894h10l162 -126h-13l-154 120l-154 -120h-13z" />
    <glyph glyph-name="ycircumflex" unicode="&#x177;" horiz-adv-x="531" 
d="M512 472l-256 -472l-111 -203h-9l116 211l-233 464h9l229 -455l246 455h9zM263 706h10l136 -155h-10l-131 149l-131 -149h-11z" />
    <glyph glyph-name="Ydieresis" unicode="&#x178;" horiz-adv-x="629" 
d="M311 303l-304 403h11l297 -395l296 395h11l-303 -403v-303h-8v303zM177.5 820.5q-4.5 4.5 -4.5 11.5t4.5 11.5t11.5 4.5t11.5 -4.5t4.5 -11.5t-4.5 -11.5t-11.5 -4.5t-11.5 4.5zM425.5 820.5q-4.5 4.5 -4.5 11.5t4.5 11.5t11.5 4.5t11.5 -4.5t4.5 -11.5t-4.5 -11.5
t-11.5 -4.5t-11.5 4.5z" />
    <glyph glyph-name="Zacute" unicode="&#x179;" horiz-adv-x="673" 
d="M605 698h-562v8h579l-583 -698h600v-8h-617zM448 894h13l-180 -126h-13z" />
    <glyph glyph-name="zacute" unicode="&#x17a;" horiz-adv-x="497" 
d="M475 8v-8h-461l437 464h-402v8h421l-437 -464h442zM326 706h10l-125 -155h-10z" />
    <glyph glyph-name="Zdotaccent" unicode="&#x17b;" horiz-adv-x="673" 
d="M605 698h-562v8h579l-583 -698h600v-8h-617zM320.5 819q-4.5 5 -4.5 12t4.5 11t11.5 4t11.5 -4t4.5 -11t-4.5 -12t-11.5 -5t-11.5 5z" />
    <glyph glyph-name="zdotaccent" unicode="&#x17c;" horiz-adv-x="497" 
d="M475 8v-8h-461l437 464h-402v8h421l-437 -464h442zM241.5 620.5q-4.5 4.5 -4.5 11.5t4.5 11.5t11.5 4.5t11.5 -4.5t4.5 -11.5t-4.5 -11.5t-11.5 -4.5t-11.5 4.5z" />
    <glyph glyph-name="Zcaron" unicode="&#x17d;" horiz-adv-x="673" 
d="M605 698h-562v8h579l-583 -698h600v-8h-617zM337 768h-10l-162 126h13l154 -120l154 120h13z" />
    <glyph glyph-name="zcaron" unicode="&#x17e;" horiz-adv-x="497" 
d="M475 8v-8h-461l437 464h-402v8h421l-437 -464h442zM258 551h-10l-137 155h11l131 -149l131 149h10z" />
    <glyph glyph-name="Schwa" unicode="&#x18f;" horiz-adv-x="863" 
d="M807 353q0 -102 -33 -176q-42 -92 -131 -142t-217 -50q-126 0 -212.5 47.5t-125.5 134.5q-32 70 -32 165v16h743v5q0 99 -32 172q-41 90 -129.5 139t-216.5 49q-83 0 -149.5 -20.5t-112.5 -62.5q-72 -65 -84 -180h-8q5 59 27 105.5t59 80.5q47 42 115 63.5t153 21.5
q131 0 220.5 -49.5t132.5 -142.5q33 -73 33 -176zM799 340h-735v-8q0 -95 31 -161q38 -85 122.5 -131.5t208.5 -46.5q125 0 212.5 49t128.5 139q31 69 32 159z" />
    <glyph glyph-name="florin" unicode="&#x192;" horiz-adv-x="428" 
d="M29 0v8q24 -6 58 -6q62 0 92.5 35t30.5 108v269h-180v8h180v140q0 150 131 150q34 0 59 -6v-8q-25 6 -59 6q-61 0 -92 -34.5t-31 -107.5v-140h180v-8h-180v-269q0 -151 -131 -151q-34 0 -58 6z" />
    <glyph glyph-name="Aringacute" unicode="&#x1fa;" horiz-adv-x="681" 
d="M552 243h-424l-112 -243h-9l328 706h11l328 -706h-9zM548 251l-207 447h-2l-207 -447h416zM274.5 762q-24.5 23 -24.5 62q0 40 24.5 63.5t65.5 23.5t65.5 -24t24.5 -63q0 -38 -24.5 -61.5t-65.5 -23.5t-65.5 23zM399.5 768q22.5 21 22.5 56q0 36 -22.5 57.5t-59.5 21.5
q-38 0 -60 -21t-22 -58q0 -35 22 -56t60 -21q37 0 59.5 21zM456 1099h13l-180 -126h-13z" />
    <glyph glyph-name="aringacute" unicode="&#x1fb;" horiz-adv-x="584" 
d="M510 277v-277h-8v162q-16 -83 -81.5 -129t-177.5 -46q-139 0 -177 81q-12 26 -12 57q0 16 3 28t9 26q20 39 78.5 57t169.5 18h188v23q0 62 -18 105q-20 47 -67.5 71t-128.5 24q-151 0 -189 -86q-14 -31 -14 -68h-8q0 39 15 72q40 90 197 90q81 0 130.5 -24.5t71.5 -74.5
q19 -45 19 -109zM395.5 28.5q59.5 33.5 85.5 93.5q12 24 16.5 50.5t4.5 66.5v7h-188q-109 0 -165.5 -16.5t-75.5 -54.5q-5 -14 -8 -25t-3 -25q0 -28 11 -53q17 -37 59.5 -57t110.5 -20q93 0 152.5 33.5zM228.5 571q-24.5 23 -24.5 62q0 40 24.5 63.5t65.5 23.5t65.5 -24
t24.5 -63q0 -38 -24.5 -61.5t-65.5 -23.5t-65.5 23zM353.5 577q22.5 21 22.5 56q0 36 -22.5 57.5t-59.5 21.5q-38 0 -60 -21t-22 -58q0 -35 22 -56t60 -21q37 0 59.5 21zM367 953h10l-125 -155h-10z" />
    <glyph glyph-name="AEacute" unicode="&#x1fc;" horiz-adv-x="876" 
d="M384 698l63 -336h369v-8h-367l65 -346h306v-8h-312l-46 243h-322l-124 -243h-9l361 706h452v-8h-436zM460 251l-85 447h-2l-229 -447h316zM610 894h13l-180 -126h-13z" />
    <glyph glyph-name="aeacute" unicode="&#x1fd;" horiz-adv-x="1023" 
d="M971 176h8q-10 -81 -63 -129q-31 -29 -75 -43.5t-97 -14.5q-78 0 -135 33.5t-84 94.5q-14 31 -19 74q-11 -98 -78 -151t-190 -53q-65 0 -110 20.5t-63 60.5q-11 25 -11 53q0 26 10 51q22 48 85 66t165 18h188v29q0 57 -18 97q-21 47 -68.5 71t-126.5 24
q-78 0 -124.5 -21.5t-65.5 -64.5q-14 -31 -14 -68h-8q0 39 15 72q40 90 197 90q81 0 130.5 -24.5t71.5 -74.5q9 -18 12.5 -40.5t4.5 -50.5q6 40 19 68q26 59 81.5 91t132.5 32q78 0 133.5 -31.5t82.5 -90.5q22 -51 24 -116h-471v-11q0 -68 22 -116q26 -59 81 -91.5
t131 -32.5q51 0 94 14t73 42q50 45 60 123zM510 256h463q-3 58 -23 104q-26 57 -80 87.5t-129 30.5t-128 -30.5t-79 -88.5q-21 -43 -24 -103zM502 248h-188q-100 0 -161 -17t-82 -63q-9 -19 -9 -47q0 -26 10 -49q18 -39 61 -58t106 -19q94 0 154.5 33t87.5 94q12 25 16.5 52
t4.5 67v7zM608 706h10l-125 -155h-10z" />
    <glyph glyph-name="Oslashacute" unicode="&#x1fe;" horiz-adv-x="875" 
d="M819 353q0 -105 -34 -177q-41 -91 -129.5 -141t-217.5 -50q-87 0 -156 23t-118 67l-77 -75h-11l82 81q-40 36 -68 95q-34 75 -34 177t34 177q41 91 129.5 141t218.5 50q87 0 156 -23t118 -67l76 75h12l-82 -81q43 -42 67 -95q34 -72 34 -177zM163 86l543 539
q-48 43 -115.5 65.5t-152.5 22.5q-127 0 -214 -49t-127 -138q-33 -73 -33 -173t33 -173q24 -53 66 -94zM811 353q0 103 -33 173q-24 53 -66 94l-542 -539q47 -43 115 -65.5t153 -22.5q126 0 213 49t127 138q33 70 33 173zM553 894h13l-180 -126h-13z" />
    <glyph glyph-name="oslashacute" unicode="&#x1ff;" horiz-adv-x="613" 
d="M571 236q0 -63 -23 -115q-28 -63 -90.5 -98t-150.5 -35q-57 0 -102.5 14.5t-79.5 42.5l-45 -45h-11l50 50q-35 29 -53 71q-23 49 -23 115q0 68 23 115q28 63 90 98.5t151 35.5q56 0 102.5 -14.5t80.5 -42.5l43 44h11l-48 -49q35 -31 52 -72q23 -51 23 -115zM124 56
l360 366q-33 27 -77.5 41t-99.5 14q-86 0 -146.5 -34t-87.5 -96q-22 -45 -22 -111q0 -64 22 -111q18 -41 51 -69zM563 236q0 62 -22 111q-19 42 -51 70l-360 -366q33 -27 77.5 -41t99.5 -14q86 0 146.5 34t87.5 95q22 50 22 111zM380 706h10l-125 -155h-10z" />
    <glyph glyph-name="Scommaaccent" unicode="&#x218;" horiz-adv-x="732" 
d="M187.5 20.5q-76.5 35.5 -108.5 106.5q-12 26 -17.5 56t-5.5 67h8q0 -71 22 -119q31 -69 106 -103.5t190 -34.5q107 0 177 31.5t95 88.5q14 28 14 69q0 35 -11 58q-17 38 -59 61t-94.5 34.5t-131.5 21.5q-84 12 -133.5 22.5t-90.5 32.5t-58 58q-11 25 -11 57q0 36 14 67
q17 38 53 66.5t89 44.5t119 16q100 0 168 -35t98 -100q22 -48 22 -114h-8q0 64 -21 110q-29 64 -95 97.5t-164 33.5t-163.5 -33.5t-90.5 -89.5q-13 -31 -13 -63q0 -16 2.5 -28t7.5 -25q16 -35 55.5 -55.5t87.5 -31t132 -22.5q82 -11 135 -22.5t96.5 -35.5t61.5 -64
q11 -27 11 -61q0 -40 -15 -73q-27 -59 -99 -91.5t-180 -32.5q-118 0 -194.5 35.5zM375 -62h8l-39 -151h-8z" />
    <glyph glyph-name="scommaaccent" unicode="&#x219;" horiz-adv-x="513" 
d="M134 13q-51 26 -73 74q-8 17 -11.5 36t-3.5 44h8q0 -24 3.5 -42t10.5 -34q21 -46 70.5 -71t121.5 -25q74 0 122.5 22t66.5 61q10 20 10 48q0 21 -8 40q-11 23 -38.5 37t-62.5 21t-92 15q-55 8 -88 15.5t-58.5 22.5t-36.5 39q-8 21 -8 43q0 27 10 48q17 37 60 57.5
t108 20.5q69 0 117.5 -23.5t68.5 -68.5q14 -31 14 -70h-8q0 37 -13 66q-19 43 -65.5 65.5t-113.5 22.5q-62 0 -103.5 -19.5t-57.5 -54.5q-9 -19 -9 -44q0 -22 7 -39q10 -23 35 -37t57.5 -21.5t85.5 -14.5t91 -15t67 -23t40 -39q9 -21 9 -44q0 -28 -11 -52q-18 -41 -69 -64
t-127 -23q-75 0 -126 26zM264 -60h8l-39 -151h-8z" />
    <glyph glyph-name="uni021A" unicode="&#x21a;" horiz-adv-x="538" 
d="M265 698h-252v8h512v-8h-252v-698h-8v698zM268 -52h8l-39 -151h-8z" />
    <glyph glyph-name="uni021B" unicode="&#x21b;" horiz-adv-x="376" 
d="M161 26.5q-33 36.5 -33 100.5v337h-102v8h102v120h8v-120h211v-8h-211v-337q0 -60 31 -94.5t90 -34.5q20 0 42 3t42 9v-8q-20 -6 -42.5 -9t-42.5 -3q-62 0 -95 36.5zM238 -57h8l-39 -151h-8z" />
    <glyph glyph-name="dotlessj" unicode="&#x237;" horiz-adv-x="164" 
d="M-61 -203v8q21 -2 43 -2q50 0 72.5 24.5t22.5 80.5v564h8v-564q0 -59 -25 -86t-78 -27q-22 0 -43 2z" />
    <glyph glyph-name="schwa" unicode="&#x259;" horiz-adv-x="610" 
d="M567 234q0 -67 -23 -114q-28 -63 -90.5 -97.5t-150.5 -34.5t-149 33.5t-88 95.5q-23 49 -23 110h516v7q0 66 -22 113q-27 62 -88.5 96t-147.5 34q-60 0 -109 -16t-81 -46q-49 -46 -58 -117h-8q9 74 61 123q34 31 83.5 47.5t111.5 16.5q89 0 152 -35.5t92 -99.5
q22 -48 22 -116zM559 219h-508q2 -53 22 -98q27 -61 85.5 -93t144.5 -32t146.5 33.5t87.5 94.5q19 39 22 95z" />
    <glyph glyph-name="circumflex" unicode="&#x2c6;" horiz-adv-x="383" 
d="M187 706h10l136 -155h-10l-131 149l-131 -149h-11z" />
    <glyph glyph-name="caron" unicode="&#x2c7;" horiz-adv-x="383" 
d="M197 551h-10l-137 155h11l131 -149l131 149h10z" />
    <glyph glyph-name="uni02C9" unicode="&#x2c9;" horiz-adv-x="423" 
d="M50 631h323v-8h-323v8z" />
    <glyph glyph-name="breve" unicode="&#x2d8;" horiz-adv-x="393" 
d="M113 566.5q-31 17.5 -45.5 51.5t-17.5 88h8q3 -52 16.5 -84.5t43 -48.5t78.5 -16q50 0 79.5 16t43 48.5t16.5 84.5h8q-3 -54 -17.5 -88t-45.5 -51.5t-84 -17.5q-52 0 -83 17.5z" />
    <glyph glyph-name="dotaccent" unicode="&#x2d9;" horiz-adv-x="132" 
d="M54.5 620.5q-4.5 4.5 -4.5 11.5t4.5 11.5t11.5 4.5t11.5 -4.5t4.5 -11.5t-4.5 -11.5t-11.5 -4.5t-11.5 4.5z" />
    <glyph glyph-name="ring" unicode="&#x2da;" horiz-adv-x="280" 
d="M74.5 571q-24.5 23 -24.5 62q0 40 24.5 63.5t65.5 23.5t65.5 -24t24.5 -63q0 -38 -24.5 -61.5t-65.5 -23.5t-65.5 23zM199.5 577q22.5 21 22.5 56q0 36 -22.5 57.5t-59.5 21.5q-38 0 -60 -21t-22 -58q0 -35 22 -56t60 -21q37 0 59.5 21z" />
    <glyph glyph-name="ogonek" unicode="&#x2db;" horiz-adv-x="235" 
d="M71.5 -191q-21.5 20 -21.5 55q0 27 14 48.5t36.5 40.5t70.5 54l4 -7q-43 -30 -67.5 -51t-37 -41.5t-12.5 -43.5q0 -32 19.5 -49.5t53.5 -17.5q28 0 54 11v-9q-27 -10 -54 -10q-38 0 -59.5 20z" />
    <glyph glyph-name="tilde" unicode="&#x2dc;" horiz-adv-x="445" 
d="M273.5 557.5q-15.5 9.5 -27.5 26t-27 42.5q-14 26 -25 41.5t-25.5 24.5t-33.5 9q-40 0 -57.5 -40t-19.5 -110h-8q2 76 21.5 117t63.5 41q21 0 37 -10t28 -26t27 -43q14 -26 25 -41t25 -24t33 -9q40 0 57.5 39.5t19.5 110.5h8q-2 -76 -21.5 -117t-63.5 -41
q-21 0 -36.5 9.5z" />
    <glyph glyph-name="hungarumlaut" unicode="&#x2dd;" horiz-adv-x="400" 
d="M184 706h10l-134 -155h-10zM340 706h10l-134 -155h-10z" />
    <glyph glyph-name="gravecomb" unicode="&#x300;" 
d="M-60 551l-125 155h10l125 -155h-10z" />
    <glyph glyph-name="acutecomb" unicode="&#x301;" 
d="M-60 706h10l-125 -155h-10z" />
    <glyph glyph-name="circumflexcomb" unicode="&#x302;" 
d="M-196 706h10l136 -155h-10l-131 149l-131 -149h-11z" />
    <glyph glyph-name="tildecomb" unicode="&#x303;" 
d="M-171.5 557.5q-15.5 9.5 -27.5 26t-27 42.5q-14 26 -25 41.5t-25.5 24.5t-33.5 9q-40 0 -57.5 -40t-19.5 -110h-8q2 76 21.5 117t63.5 41q21 0 37 -10t28 -26t27 -43q14 -26 25 -41t25 -24t33 -9q40 0 57.5 39.5t19.5 110.5h8q-2 -76 -21.5 -117t-63.5 -41
q-21 0 -36.5 9.5z" />
    <glyph glyph-name="macroncomb" unicode="&#x304;" 
d="M-373 631h323v-8h-323v8z" />
    <glyph glyph-name="brevecomb" unicode="&#x306;" 
d="M-280 566.5q-31 17.5 -45.5 51.5t-17.5 88h8q3 -52 16.5 -84.5t43 -48.5t78.5 -16q50 0 79.5 16t43 48.5t16.5 84.5h8q-3 -54 -17.5 -88t-45.5 -51.5t-84 -17.5q-52 0 -83 17.5z" />
    <glyph glyph-name="dotaccentcomb" unicode="&#x307;" 
d="M-77.5 620.5q-4.5 4.5 -4.5 11.5t4.5 11.5t11.5 4.5t11.5 -4.5t4.5 -11.5t-4.5 -11.5t-11.5 -4.5t-11.5 4.5z" />
    <glyph glyph-name="dieresiscomb" unicode="&#x308;" 
d="M-282.5 621.5q-4.5 4.5 -4.5 11.5t4.5 11.5t11.5 4.5t11.5 -4.5t4.5 -11.5t-4.5 -11.5t-11.5 -4.5t-11.5 4.5zM-77.5 621.5q-4.5 4.5 -4.5 11.5t4.5 11.5t11.5 4.5t11.5 -4.5t4.5 -11.5t-4.5 -11.5t-11.5 -4.5t-11.5 4.5z" />
    <glyph glyph-name="ringcomb" unicode="&#x30a;" 
d="M-205.5 571q-24.5 23 -24.5 62q0 40 24.5 63.5t65.5 23.5t65.5 -24t24.5 -63q0 -38 -24.5 -61.5t-65.5 -23.5t-65.5 23zM-80.5 577q22.5 21 22.5 56q0 36 -22.5 57.5t-59.5 21.5q-38 0 -60 -21t-22 -58q0 -35 22 -56t60 -21q37 0 59.5 21z" />
    <glyph glyph-name="hungarumlautcomb" unicode="&#x30b;" 
d="M-216 706h10l-134 -155h-10zM-60 706h10l-134 -155h-10z" />
    <glyph glyph-name="caroncomb" unicode="&#x30c;" 
d="M-186 551h-10l-137 155h11l131 -149l131 149h10z" />
    <glyph glyph-name="commaturnedabovecomb" unicode="&#x312;" 
d="M-89 553h-8l39 150h8z" />
    <glyph glyph-name="commaaccent" unicode="&#x326;" 
d="M-58 -52h8l-39 -151h-8z" />
    <glyph glyph-name="cedillacomb" unicode="&#x327;" 
d="M-75.5 -90q25.5 -16 25.5 -51t-25.5 -52.5t-71.5 -17.5q-45 0 -78 13l2 8q35 -13 76 -13q43 0 66 15t23 47t-23 45.5t-73 13.5h-41l40 82h8l-36 -74h29q53 0 78.5 -16z" />
    <glyph glyph-name="ogonekcomb" unicode="&#x328;" 
d="M-163.5 -191q-21.5 20 -21.5 55q0 27 14 48.5t36.5 40.5t70.5 54l4 -7q-43 -30 -67.5 -51t-37 -41.5t-12.5 -43.5q0 -32 19.5 -49.5t53.5 -17.5q28 0 54 11v-9q-27 -10 -54 -10q-38 0 -59.5 20z" />
    <glyph glyph-name="uni0335" unicode="&#x335;" 
d="M-371 310h321v-8h-321v8z" />
    <glyph glyph-name="uni0336" unicode="&#x336;" 
d="M-529 636h529v-8h-529v8z" />
    <glyph glyph-name="uni0337" unicode="&#x337;" 
d="M0 450v-10l-81 -61v2l-81 -61v10l81 61v-2z" />
    <glyph glyph-name="uni0338" unicode="&#x338;" 
d="M-465 51l2 2l365 372l2 1l45 46h11l-51 -52l-2 -1l-365 -372l-2 -2l-44 -45h-11z" />
    <glyph glyph-name="uni0394" unicode="&#x394;" horiz-adv-x="681" 
d="M674 0h-667l328 706h11zM661 8l-320 690h-2l-319 -690h641z" />
    <glyph glyph-name="uni03A9" unicode="&#x3a9;" horiz-adv-x="799" 
d="M632.5 186.5q-56.5 -40.5 -137.5 -55.5v-123h210v-8h-218v138q81 14 138.5 53.5t85.5 102.5q24 54 24 130q0 74 -24 128q-35 77 -116 119t-196 42q-114 0 -195 -42t-116 -119q-24 -54 -24 -128q0 -76 24 -130q28 -63 85.5 -102.5t138.5 -53.5v-138h-218v8h210v123
q-81 15 -138 56t-85 103q-25 58 -25 134q0 78 25 132q35 79 118 122t200 43t200 -43t119 -122q25 -54 25 -132q0 -76 -25 -134q-29 -63 -85.5 -103.5z" />
    <glyph glyph-name="uni03BC" unicode="&#x3bc;" horiz-adv-x="597" 
d="M518 472v-472h-8v151q-18 -84 -75.5 -124t-142.5 -40q-87 0 -139 39t-66 115v-151v-193h-8v675h8v-257q0 -110 52 -165t154 -55q69 0 117.5 26.5t74 76.5t25.5 120v254h8z" />
    <glyph glyph-name="pi" unicode="&#x3c0;" horiz-adv-x="802" 
d="M629.5 26.5q-31.5 36.5 -31.5 100.5v337h-398v-464h-8v464h-131v8h680v-8h-135v-337q0 -60 29.5 -94.5t85.5 -34.5q13 0 20 1v-8q-7 -1 -21 -1q-59 0 -90.5 36.5z" />
    <glyph glyph-name="Wgrave" unicode="&#x1e80;" horiz-adv-x="1035" 
d="M1028 706l-256 -706h-10l-244 696l-245 -696h-9l-257 706h8l253 -695l245 695h10l244 -696l253 696h8zM569 768l-180 126h13l180 -126h-13z" />
    <glyph glyph-name="wgrave" unicode="&#x1e81;" horiz-adv-x="790" 
d="M770 472l-198 -472h-10l-165 463l-166 -463h-10l-202 472h9l198 -463l166 463h10l165 -463l194 463h9zM439 551l-125 155h10l125 -155h-10z" />
    <glyph glyph-name="Wacute" unicode="&#x1e82;" horiz-adv-x="1035" 
d="M1028 706l-256 -706h-10l-244 696l-245 -696h-9l-257 706h8l253 -695l245 695h10l244 -696l253 696h8zM633 894h13l-180 -126h-13z" />
    <glyph glyph-name="wacute" unicode="&#x1e83;" horiz-adv-x="790" 
d="M770 472l-198 -472h-10l-165 463l-166 -463h-10l-202 472h9l198 -463l166 463h10l165 -463l194 463h9zM470 706h10l-125 -155h-10z" />
    <glyph glyph-name="Wdieresis" unicode="&#x1e84;" horiz-adv-x="1035" 
d="M1028 706l-256 -706h-10l-244 696l-245 -696h-9l-257 706h8l253 -695l245 695h10l244 -696l253 696h8zM380.5 820.5q-4.5 4.5 -4.5 11.5t4.5 11.5t11.5 4.5t11.5 -4.5t4.5 -11.5t-4.5 -11.5t-11.5 -4.5t-11.5 4.5zM628.5 820.5q-4.5 4.5 -4.5 11.5t4.5 11.5t11.5 4.5
t11.5 -4.5t4.5 -11.5t-4.5 -11.5t-11.5 -4.5t-11.5 4.5z" />
    <glyph glyph-name="wdieresis" unicode="&#x1e85;" horiz-adv-x="790" 
d="M770 472l-198 -472h-10l-165 463l-166 -463h-10l-202 472h9l198 -463l166 463h10l165 -463l194 463h9zM282.5 621.5q-4.5 4.5 -4.5 11.5t4.5 11.5t11.5 4.5t11.5 -4.5t4.5 -11.5t-4.5 -11.5t-11.5 -4.5t-11.5 4.5zM487.5 621.5q-4.5 4.5 -4.5 11.5t4.5 11.5t11.5 4.5
t11.5 -4.5t4.5 -11.5t-4.5 -11.5t-11.5 -4.5t-11.5 4.5z" />
    <glyph glyph-name="Germandbls" unicode="&#x1e9e;" horiz-adv-x="710" 
d="M655 192q0 -48 -16 -86q-25 -55 -87.5 -82.5t-158.5 -27.5q-82 0 -148 12v8q66 -12 148 -12q191 0 239 106q15 36 15 82q0 47 -15 81q-23 52 -80 77.5t-152 25.5q-29 0 -57 -2v2l244 322h-492v-698h-8v706h515v-2l-244 -321q13 1 42 1q192 0 239 -107q16 -35 16 -85z" />
    <glyph glyph-name="Ygrave" unicode="&#x1ef2;" horiz-adv-x="629" 
d="M311 303l-304 403h11l297 -395l296 395h11l-303 -403v-303h-8v303zM367 768l-180 126h13l180 -126h-13z" />
    <glyph glyph-name="ygrave" unicode="&#x1ef3;" horiz-adv-x="531" 
d="M512 472l-256 -472l-111 -203h-9l116 211l-233 464h9l229 -455l246 455h9zM310 551l-125 155h10l125 -155h-10z" />
    <glyph glyph-name="uni2009" unicode="&#x2009;" horiz-adv-x="82" 
 />
    <glyph glyph-name="uni2011" unicode="&#x2011;" horiz-adv-x="445" 
d="M61 273h322v-8h-322v8z" />
    <glyph glyph-name="endash" unicode="&#x2013;" horiz-adv-x="656" 
d="M61 273h534v-8h-534v8z" />
    <glyph glyph-name="emdash" unicode="&#x2014;" horiz-adv-x="1284" 
d="M61 273h1161v-8h-1161v8z" />
    <glyph glyph-name="quoteleft" unicode="&#x2018;" horiz-adv-x="209" 
d="M69 416h-8l79 290h8z" />
    <glyph glyph-name="quoteright" unicode="&#x2019;" horiz-adv-x="209" 
d="M140 706h8l-79 -290h-8z" />
    <glyph glyph-name="quotesinglbase" unicode="&#x201a;" horiz-adv-x="209" 
d="M140 146h8l-79 -290h-8z" />
    <glyph glyph-name="quotedblleft" unicode="&#x201c;" horiz-adv-x="329" 
d="M69 416h-8l79 290h8zM189 416h-8l79 290h8z" />
    <glyph glyph-name="quotedblright" unicode="&#x201d;" horiz-adv-x="329" 
d="M260 706h8l-79 -290h-8zM140 706h8l-79 -290h-8z" />
    <glyph glyph-name="quotedblbase" unicode="&#x201e;" horiz-adv-x="329" 
d="M260 146h8l-79 -290h-8zM140 146h8l-79 -290h-8z" />
    <glyph glyph-name="dagger" unicode="&#x2020;" horiz-adv-x="411" 
d="M380 510h-170v-510h-8v510h-171v8h171v188h8v-188h170v-8z" />
    <glyph glyph-name="daggerdbl" unicode="&#x2021;" horiz-adv-x="411" 
d="M210 510v-314h170v-8h-170v-188h-8v188h-171v8h171v314h-171v8h171v188h8v-188h170v-8h-170z" />
    <glyph glyph-name="bullet" unicode="&#x2022;" horiz-adv-x="424" 
d="M159.5 320.5q-19.5 19.5 -19.5 52.5q0 35 19.5 53.5t52.5 18.5q32 0 52 -19t20 -53q0 -33 -20 -52.5t-52 -19.5q-33 0 -52.5 19.5z" />
    <glyph glyph-name="ellipsis" unicode="&#x2026;" horiz-adv-x="566" 
d="M271.5 -2.5q-4.5 4.5 -4.5 12.5q0 7 4.5 11t11.5 4t11.5 -4t4.5 -11q0 -8 -4 -12.5t-12 -4.5q-7 0 -11.5 4.5zM431.5 -2.5q-4.5 4.5 -4.5 12.5q0 7 4.5 11t11.5 4t11.5 -4t4.5 -11q0 -8 -4 -12.5t-12 -4.5q-7 0 -11.5 4.5zM111.5 -2.5q-4.5 4.5 -4.5 12.5q0 7 4.5 11
t11.5 4t11.5 -4t4.5 -11q0 -8 -4 -12.5t-12 -4.5q-7 0 -11.5 4.5z" />
    <glyph glyph-name="perthousand" unicode="&#x2030;" horiz-adv-x="1144" 
d="M103.5 429.5q-35.5 19.5 -52.5 56.5q-13 30 -13 75t13 74q16 37 52 57t87 20t87 -20t52 -57q14 -28 14 -74t-14 -75q-17 -37 -52.5 -56.5t-86.5 -19.5t-86.5 19.5zM683 706h10l-597 -706h-10zM272.5 436.5q33.5 18.5 49.5 53.5q13 27 13 71q0 42 -13 71q-16 35 -50 53.5
t-82 18.5t-82 -18.5t-50 -53.5q-12 -30 -12 -71q0 -42 12 -71q16 -35 50 -53.5t82 -18.5q49 0 82.5 18.5zM502 14q-36 20 -52 57q-14 28 -14 74t14 75q17 37 52.5 56.5t86.5 19.5t86.5 -19.5t52.5 -56.5q14 -33 14 -75q0 -43 -14 -74q-16 -37 -52 -57t-87 -20t-87 20z
M866.5 14q-35.5 20 -51.5 57q-14 28 -14 74t14 75q16 37 51.5 56.5t86.5 19.5t87 -19.5t53 -56.5q13 -30 13 -75t-13 -74q-17 -38 -53 -57.5t-87 -19.5t-86.5 20zM671 21q34 19 50 54q13 31 13 70t-13 71q-16 35 -50 53.5t-82 18.5q-49 0 -82.5 -18.5t-49.5 -53.5
q-13 -29 -13 -71q0 -43 13 -70q16 -35 49.5 -54t82.5 -19q48 0 82 19zM1035 21q34 19 51 54q12 29 12 70t-12 71q-17 35 -50.5 53.5t-82.5 18.5q-48 0 -82 -18.5t-49 -53.5q-13 -29 -13 -71q0 -43 13 -70q15 -35 49 -54t82 -19t82 19z" />
    <glyph glyph-name="guilsinglleft" unicode="&#x2039;" horiz-adv-x="262" 
d="M29 269l191 157h13l-191 -157l191 -157h-13z" />
    <glyph glyph-name="guilsinglright" unicode="&#x203a;" horiz-adv-x="262" 
d="M29 112l192 157l-192 157h13l192 -157l-192 -157h-13z" />
    <glyph glyph-name="fraction" unicode="&#x2044;" horiz-adv-x="176" 
d="M344 706h9l-521 -706h-10z" />
    <glyph glyph-name="zero.superior" unicode="&#x2070;" horiz-adv-x="481" 
d="M135 454.5q-44 24.5 -65 71.5q-21 45 -21 106t21 106q21 47 65 71.5t106 24.5t106 -25t65 -71q20 -46 20 -106t-20 -106q-21 -46 -65 -71t-106 -25t-106 24.5zM342.5 461.5q42.5 23.5 62.5 68.5q19 42 19 102t-19 102q-20 45 -62.5 68.5t-101.5 23.5q-60 0 -102.5 -23.5
t-61.5 -68.5q-20 -41 -20 -102t20 -102q19 -45 61.5 -68.5t102.5 -23.5q59 0 101.5 23.5z" />
    <glyph glyph-name="four.superior" unicode="&#x2074;" horiz-adv-x="387" 
d="M293 558h-284v2l280 266h12v-260h74v-8h-74v-120h-8v120zM293 566v253l-268 -253h268z" />
    <glyph glyph-name="five.superior" unicode="&#x2075;" horiz-adv-x="407" 
d="M112.5 448.5q-37.5 18.5 -53.5 52.5q-10 20 -10 49h8q0 -27 9 -45q15 -32 50.5 -49.5t84.5 -17.5q50 0 86.5 18t52.5 51q9 21 9 49t-9 46q-16 35 -55 53.5t-94 18.5q-32 0 -62 -5.5t-63 -17.5l37 175h228l-2 -8h-219l-33 -155q53 19 114 19q58 0 99 -19.5t57 -56.5
q10 -21 10 -50q0 -30 -10 -53q-16 -35 -54.5 -54t-91.5 -19q-51 0 -88.5 18.5z" />
    <glyph glyph-name="six.superior" unicode="&#x2076;" horiz-adv-x="433" 
d="M388 560q0 -26 -11 -50q-17 -38 -58 -59t-93 -21q-59 0 -100.5 24.5t-60.5 68.5q-20 40 -20 106q0 67 20 110q21 46 61.5 70.5t99.5 24.5q75 0 113 -39q26 -26 35 -69h-8q-9 40 -33 64q-35 36 -107 36q-57 0 -95.5 -23.5t-58.5 -67.5q-19 -44 -19 -106q0 -42 10 -79v7
q0 29 10 49q18 39 58.5 61t93.5 22t94.5 -21t57.5 -58q11 -22 11 -50zM380 560q0 24 -10 46q-15 35 -54.5 55t-90.5 20t-90 -20.5t-55 -56.5q-9 -21 -9 -47q0 -25 9 -43q15 -35 55.5 -55.5t90.5 -20.5t89 20t55 56q10 22 10 46z" />
    <glyph glyph-name="seven.superior" unicode="&#x2077;" horiz-adv-x="334" 
d="M306 818h-287v8h301l-235 -388h-10z" />
    <glyph glyph-name="eight.superior" unicode="&#x2078;" horiz-adv-x="435" 
d="M389 541q0 -22 -8 -41q-16 -35 -60 -52.5t-103 -17.5t-103.5 17.5t-59.5 52.5q-9 18 -9 41q0 19 8 38q12 26 41.5 42.5t70.5 21.5q-35 5 -60.5 19.5t-35.5 37.5q-7 18 -7 37q0 20 7 37q14 30 54 45t94 15t93.5 -15t53.5 -45q8 -16 8 -37q0 -19 -7 -37
q-11 -23 -36.5 -37.5t-60.5 -19.5q41 -5 70.5 -21.5t41.5 -42.5q8 -19 8 -38zM128 660.5q37 -13.5 90 -13.5t90.5 13.5t50.5 43.5q6 15 6 33q0 16 -7 33q-13 28 -51 42t-89 14q-52 0 -90 -14t-51 -42q-6 -15 -6 -33t6 -33q14 -30 51 -43.5zM381 541q0 17 -7 34
q-15 33 -57.5 48.5t-98.5 15.5q-57 0 -99.5 -15.5t-57.5 -48.5q-7 -17 -7 -34q0 -19 8 -37q15 -34 57 -50t99 -16q56 0 98.5 16.5t57.5 49.5q7 15 7 37z" />
    <glyph glyph-name="nine.superior" unicode="&#x2079;" horiz-adv-x="433" 
d="M388 635q0 -67 -20 -110q-21 -46 -61.5 -70.5t-98.5 -24.5q-75 0 -114 39q-26 26 -34 69h8q7 -39 32 -64q36 -36 108 -36q56 0 94.5 23.5t58.5 67.5q19 44 19 106q0 42 -10 80v-8q0 -29 -10 -49q-17 -39 -58 -61t-94 -22t-94.5 21t-57.5 58q-10 23 -10 50q0 29 10 50
q17 38 58 59t93 21q59 0 100.5 -24.5t61.5 -68.5q19 -41 19 -106zM362 707q0 25 -9 43q-15 35 -55.5 55.5t-90.5 20.5t-89 -20t-55 -56q-9 -19 -9 -46q0 -26 9 -46q15 -35 54.5 -55t90.5 -20t90 20.5t55 56.5q9 21 9 47z" />
    <glyph glyph-name="uni207A" unicode="&#x207a;" horiz-adv-x="366" 
d="M329 628h-142v-124h-8v124h-142v8h142v124h8v-124h142v-8z" />
    <glyph glyph-name="uni207B" unicode="&#x207b;" horiz-adv-x="366" 
d="M37 636h292v-8h-292v8z" />
    <glyph glyph-name="uni207C" unicode="&#x207c;" horiz-adv-x="366" 
d="M37 693h292v-8h-292v8zM37 579h292v-8h-292v8z" />
    <glyph glyph-name="uni207D" unicode="&#x207d;" horiz-adv-x="208" 
d="M97 489.5q-26 65.5 -26 142.5t26 142.5t76 122.5h10q-51 -56 -77.5 -122.5t-26.5 -142.5q0 -150 104 -265h-10q-50 57 -76 122.5z" />
    <glyph glyph-name="uni207E" unicode="&#x207e;" horiz-adv-x="208" 
d="M25 367q104 115 104 265q0 76 -26.5 142.5t-77.5 122.5h10q50 -57 76 -122.5t26 -142.5t-26 -142.5t-76 -122.5h-10z" />
    <glyph glyph-name="n.superior" unicode="&#x207f;" horiz-adv-x="413" 
d="M324.5 672q37.5 -41 37.5 -118v-180h-8v180q0 73 -35.5 112t-104.5 39q-72 0 -111.5 -41t-39.5 -114v-176h-8v330h8v-95q14 52 54.5 78t96.5 26q73 0 110.5 -41z" />
    <glyph glyph-name="zero.inferior" unicode="&#x2080;" horiz-adv-x="481" 
d="M135 -103.5q-44 24.5 -65 71.5q-21 45 -21 106t21 106q21 47 65 71.5t106 24.5t106 -25t65 -71q20 -46 20 -106t-20 -106q-21 -46 -65 -71t-106 -25t-106 24.5zM342.5 -96.5q42.5 23.5 62.5 68.5q19 42 19 102t-19 102q-20 45 -62.5 68.5t-101.5 23.5q-60 0 -102.5 -23.5
t-61.5 -68.5q-20 -41 -20 -102t20 -102q19 -45 61.5 -68.5t102.5 -23.5q59 0 101.5 23.5z" />
    <glyph glyph-name="one.inferior" unicode="&#x2081;" horiz-adv-x="221" 
d="M130 260h-104l2 8h110v-388h-8v380z" />
    <glyph glyph-name="two.inferior" unicode="&#x2082;" horiz-adv-x="390" 
d="M40 -117l198 147q37 28 57 48t28.5 39.5t8.5 42.5q0 24 -8 45q-15 31 -48.5 47t-78.5 16q-47 0 -81 -19t-49 -53q-6 -13 -8.5 -27t-2.5 -34h-8q0 21 2.5 35.5t9.5 29.5q16 36 52 56t85 20q47 0 83 -17t51 -50q9 -21 9 -49q0 -25 -9.5 -45.5t-30.5 -41.5t-58 -49
l-183 -136h288v-8h-307v3z" />
    <glyph glyph-name="three.inferior" unicode="&#x2083;" horiz-adv-x="421" 
d="M376 -15q0 -23 -10 -46q-15 -34 -55.5 -50.5t-94.5 -16.5q-58 0 -102 21t-61 59q-12 29 -12 61h8q0 -32 11 -57q16 -36 57.5 -56t98.5 -20q52 0 90.5 15.5t52.5 47.5q9 20 9 42q0 20 -8 39q-28 59 -161 59h-12v8h12q124 0 149 55q7 18 7 33q0 19 -7 33q-12 27 -48 41.5
t-84 14.5q-55 0 -93.5 -17t-54.5 -53q-9 -21 -9 -48h-8q0 27 10 52q17 37 58 55.5t97 18.5q51 0 88.5 -16t51.5 -46q7 -17 7 -35t-8 -36q-10 -22 -36 -36.5t-65 -19.5q89 -9 113 -61q9 -19 9 -41z" />
    <glyph glyph-name="four.inferior" unicode="&#x2084;" horiz-adv-x="387" 
d="M293 0h-284v2l280 266h12v-260h74v-8h-74v-120h-8v120zM293 8v253l-268 -253h268z" />
    <glyph glyph-name="five.inferior" unicode="&#x2085;" horiz-adv-x="407" 
d="M112.5 -109.5q-37.5 18.5 -53.5 52.5q-10 20 -10 49h8q0 -27 9 -45q15 -32 50.5 -49.5t84.5 -17.5q50 0 86.5 18t52.5 51q9 21 9 49t-9 46q-16 35 -55 53.5t-94 18.5q-32 0 -62 -5.5t-63 -17.5l37 175h228l-2 -8h-219l-33 -155q53 19 114 19q58 0 99 -19.5t57 -56.5
q10 -21 10 -50q0 -30 -10 -53q-16 -35 -54.5 -54t-91.5 -19q-51 0 -88.5 18.5z" />
    <glyph glyph-name="six.inferior" unicode="&#x2086;" horiz-adv-x="433" 
d="M388 2q0 -26 -11 -50q-17 -38 -58 -59t-93 -21q-59 0 -100.5 24.5t-60.5 68.5q-20 40 -20 106q0 67 20 110q21 46 61.5 70.5t99.5 24.5q75 0 113 -39q26 -26 35 -69h-8q-9 40 -33 64q-35 36 -107 36q-57 0 -95.5 -23.5t-58.5 -67.5q-19 -44 -19 -106q0 -42 10 -79v7
q0 29 10 49q18 39 58.5 61t93.5 22t94.5 -21t57.5 -58q11 -22 11 -50zM380 2q0 24 -10 46q-15 35 -54.5 55t-90.5 20t-90 -20.5t-55 -56.5q-9 -21 -9 -47q0 -25 9 -43q15 -35 55.5 -55.5t90.5 -20.5t89 20t55 56q10 22 10 46z" />
    <glyph glyph-name="seven.inferior" unicode="&#x2087;" horiz-adv-x="334" 
d="M306 260h-287v8h301l-235 -388h-10z" />
    <glyph glyph-name="eight.inferior" unicode="&#x2088;" horiz-adv-x="435" 
d="M389 -17q0 -22 -8 -41q-16 -35 -60 -52.5t-103 -17.5t-103.5 17.5t-59.5 52.5q-9 18 -9 41q0 19 8 38q12 26 41.5 42.5t70.5 21.5q-35 5 -60.5 19.5t-35.5 37.5q-7 18 -7 37q0 20 7 37q14 30 54 45t94 15t93.5 -15t53.5 -45q8 -16 8 -37q0 -19 -7 -37
q-11 -23 -36.5 -37.5t-60.5 -19.5q41 -5 70.5 -21.5t41.5 -42.5q8 -19 8 -38zM128 102.5q37 -13.5 90 -13.5t90.5 13.5t50.5 43.5q6 15 6 33q0 16 -7 33q-13 28 -51 42t-89 14q-52 0 -90 -14t-51 -42q-6 -15 -6 -33t6 -33q14 -30 51 -43.5zM381 -17q0 17 -7 34
q-15 33 -57.5 48.5t-98.5 15.5q-57 0 -99.5 -15.5t-57.5 -48.5q-7 -17 -7 -34q0 -19 8 -37q15 -34 57 -50t99 -16q56 0 98.5 16.5t57.5 49.5q7 15 7 37z" />
    <glyph glyph-name="nine.inferior" unicode="&#x2089;" horiz-adv-x="433" 
d="M388 77q0 -67 -20 -110q-21 -46 -61.5 -70.5t-98.5 -24.5q-75 0 -114 39q-26 26 -34 69h8q7 -39 32 -64q36 -36 108 -36q56 0 94.5 23.5t58.5 67.5q19 44 19 106q0 42 -10 80v-8q0 -29 -10 -49q-17 -39 -58 -61t-94 -22t-94.5 21t-57.5 58q-10 23 -10 50q0 29 10 50
q17 38 58 59t93 21q59 0 100.5 -24.5t61.5 -68.5q19 -41 19 -106zM362 149q0 25 -9 43q-15 35 -55.5 55.5t-90.5 20.5t-89 -20t-55 -56q-9 -19 -9 -46q0 -26 9 -46q15 -35 54.5 -55t90.5 -20t90 20.5t55 56.5q9 21 9 47z" />
    <glyph glyph-name="uni208A" unicode="&#x208a;" horiz-adv-x="366" 
d="M329 70h-142v-124h-8v124h-142v8h142v124h8v-124h142v-8z" />
    <glyph glyph-name="uni208B" unicode="&#x208b;" horiz-adv-x="366" 
d="M37 78h292v-8h-292v8z" />
    <glyph glyph-name="uni208C" unicode="&#x208c;" horiz-adv-x="366" 
d="M37 135h292v-8h-292v8zM37 21h292v-8h-292v8z" />
    <glyph glyph-name="uni208D" unicode="&#x208d;" horiz-adv-x="208" 
d="M97 -68.5q-26 65.5 -26 142.5t26 142.5t76 122.5h10q-51 -56 -77.5 -122.5t-26.5 -142.5q0 -150 104 -265h-10q-50 57 -76 122.5z" />
    <glyph glyph-name="uni208E" unicode="&#x208e;" horiz-adv-x="208" 
d="M25 -191q104 115 104 265q0 76 -26.5 142.5t-77.5 122.5h10q50 -57 76 -122.5t26 -142.5t-26 -142.5t-76 -122.5h-10z" />
    <glyph glyph-name="uni2099" unicode="&#x2099;" horiz-adv-x="413" 
d="M324.5 129q37.5 -41 37.5 -118v-180h-8v180q0 73 -35.5 112t-104.5 39q-72 0 -111.5 -41t-39.5 -114v-176h-8v330h8v-95q14 52 54.5 78t96.5 26q73 0 110.5 -41z" />
    <glyph glyph-name="Euro" unicode="&#x20ac;" horiz-adv-x="886" 
d="M834 266q-4 -62 -24.5 -109t-60.5 -85q-46 -42 -115.5 -64.5t-156.5 -22.5q-128 0 -217 50t-131 142q-26 55 -32 129h-52v8h51q-1 13 -1 39q0 17 2 49h-52v8h53q6 64 31 119q42 92 131 142t217 50q86 0 155 -23.5t116 -65.5q37 -34 58 -80t25 -102h-8q-4 54 -24.5 99
t-55.5 77q-46 41 -114 64t-152 23q-126 0 -213.5 -49t-127.5 -139q-24 -51 -30 -115h450v-8h-451q-2 -32 -2 -49q0 -27 1 -39h452v-8h-451q6 -70 31 -125q40 -90 127.5 -139t213.5 -49q87 0 154.5 22t112.5 63q38 36 58 82t24 106h8z" />
    <glyph glyph-name="uni20B9" unicode="&#x20b9;" horiz-adv-x="673" 
d="M650 698h-265q56 -9 90 -30t50 -57q16 -38 16 -97v-1h109v-8h-109q-1 -53 -16 -89q-23 -50 -81 -72t-166 -22h-122l402 -322h-12l-413 330h145q106 0 162 21t78 69q13 31 15 85h-463v8h463v1q0 57 -15 93q-22 48 -78.5 69.5t-161.5 21.5h-208v8h580v-8z" />
    <glyph glyph-name="uni20BA" unicode="&#x20ba;" horiz-adv-x="666" 
d="M631 296q-3 -101 -30 -161q-32 -72 -101.5 -103.5t-186.5 -31.5h-145v280l-123 -48v9l123 47v91l-123 -48v9l123 47v319h8v-317l273 107v-9l-273 -106v-91l273 106v-8l-273 -106v-274h137q114 0 182 31t99 100q28 61 29 157h8z" />
    <glyph glyph-name="uni20BC" unicode="&#x20bc;" horiz-adv-x="897" 
d="M800 377.5q10 -53.5 10 -121.5v-256h-8v256q0 67 -10 119.5t-32 93.5q-38 73 -113.5 110.5t-194.5 37.5v-617h-8v617q-118 0 -193 -37.5t-114 -110.5q-22 -40 -32 -93t-10 -120v-256h-8v256q0 68 10 121.5t33 95.5q39 75 116.5 113.5t197.5 38.5v81h8v-81
q121 0 198.5 -38.5t116.5 -113.5q23 -42 33 -95.5z" />
    <glyph glyph-name="uni2113" unicode="&#x2113;" horiz-adv-x="401" 
d="M124.5 77q17.5 -39 48.5 -55.5t77 -16.5q55 0 104 25v-9q-49 -24 -104 -24q-49 0 -81 17.5t-51 58t-23 108.5q-29 -4 -72 -4v8q41 0 72 4q-1 12 -1 36v220q0 142 34 204t101 62q62 0 93.5 -49t31.5 -159q0 -144 -63 -223.5t-188 -97.5q4 -66 21.5 -105zM103 190
q121 18 182 95.5t61 217.5q0 107 -29.5 153.5t-87.5 46.5q-42 0 -70 -25t-42.5 -82t-14.5 -151v-220q0 -24 1 -35z" />
    <glyph glyph-name="uni2117" unicode="&#x2117;" horiz-adv-x="903" 
d="M292.5 9.5q-72.5 24.5 -124 70t-79.5 108.5q-17 36 -25 76.5t-8 88.5t8 88.5t25 76.5q28 63 79.5 108.5t124 70t159.5 24.5t159 -24.5t123.5 -70t80.5 -108.5q16 -37 24 -77t8 -88t-8 -88t-24 -77q-29 -63 -80.5 -108.5t-123.5 -70t-159 -24.5t-159.5 24.5zM608 17
q70 24 121 68.5t79 106.5q31 69 31 161t-31 161q-28 62 -79 106.5t-121 68.5t-156 24t-156.5 -24t-121 -68.5t-78.5 -106.5q-32 -68 -32 -161t32 -161q28 -62 78.5 -106.5t121 -68.5t156.5 -24t156 24zM337 587h131q112 0 140 -63q12 -25 12 -64q0 -20 -2.5 -35.5
t-9.5 -29.5q-27 -62 -140 -62h-123v-212h-8v466zM468 341q54 0 87 14t46 44q11 23 11 61q0 37 -11 60q-13 30 -46.5 44.5t-86.5 14.5h-123v-238h123z" />
    <glyph glyph-name="trademark" unicode="&#x2122;" horiz-adv-x="685" 
d="M126 698h-118v8h244v-8h-118v-302h-8v302zM291 706h12l159 -299l159 299h12v-310h-8v300l-160 -300h-6l-160 300v-300h-8v310z" />
    <glyph glyph-name="Omega" unicode="&#x2126;" horiz-adv-x="799" 
d="M632.5 186.5q-56.5 -40.5 -137.5 -55.5v-123h210v-8h-218v138q81 14 138.5 53.5t85.5 102.5q24 54 24 130q0 74 -24 128q-35 77 -116 119t-196 42q-114 0 -195 -42t-116 -119q-24 -54 -24 -128q0 -76 24 -130q28 -63 85.5 -102.5t138.5 -53.5v-138h-218v8h210v123
q-81 15 -138 56t-85 103q-25 58 -25 134q0 78 25 132q35 79 118 122t200 43t200 -43t119 -122q25 -54 25 -132q0 -76 -25 -134q-29 -63 -85.5 -103.5z" />
    <glyph glyph-name="estimated" unicode="&#x212e;" horiz-adv-x="858" 
d="M242 32.5q-87 43.5 -139.5 121.5t-52.5 176q0 96 51 174t138 122.5t190 44.5q102 0 188.5 -45t138 -124.5t51.5 -177.5h-608q-6 0 -8 -2.5t-2 -8.5v-197q47 -51 110 -78.5t130 -27.5q73 0 139 32.5t113 88.5h57q-56 -68 -138 -105t-171 -37q-100 0 -187 43.5zM660 347
q5 0 7 2.5t2 8.5v184q-44 51 -108 79.5t-132 28.5q-70 0 -133 -28.5t-107 -78.5v-185q0 -6 2 -8.5t8 -2.5h461z" />
    <glyph glyph-name="partialdiff" unicode="&#x2202;" horiz-adv-x="687" 
d="M625 347q0 -122 -37 -202q-35 -79 -102.5 -119.5t-160.5 -40.5q-58 0 -107.5 17.5t-85.5 48.5t-55 73q-20 46 -20 97q0 53 20 96q29 65 94.5 101.5t154.5 36.5q88 0 153.5 -38t94.5 -103q20 -46 20 -98q0 -30 -7 -57q15 41 22.5 85.5t7.5 102.5q0 126 -38 214
q-34 74 -94 113t-147 39q-56 0 -100.5 -16.5t-74.5 -47.5q-24 -24 -39.5 -57.5t-21.5 -72.5h-8q6 42 22.5 76.5t41.5 59.5q64 66 180 66q90 0 152 -40.5t96 -115.5q39 -90 39 -218zM476 29q64 36 92 99q18 39 18 88q0 53 -19 94q-28 64 -91.5 100.5t-149.5 36.5t-150 -35.5
t-92 -98.5q-19 -43 -19 -92t19 -93q29 -62 92.5 -98.5t148.5 -36.5q87 0 151 36z" />
    <glyph glyph-name="Delta" unicode="&#x2206;" horiz-adv-x="681" 
d="M674 0h-667l328 706h11zM661 8l-320 690h-2l-319 -690h641z" />
    <glyph glyph-name="product" unicode="&#x220f;" horiz-adv-x="710" 
d="M87 706h536v-909h-8v901h-520v-901h-8v909z" />
    <glyph glyph-name="summation" unicode="&#x2211;" horiz-adv-x="575" 
d="M383 266l-339 440h496v-8h-479l333 -432l-343 -461h515v-8h-532z" />
    <glyph glyph-name="minus" unicode="&#x2212;" horiz-adv-x="609" 
d="M61 273h486v-8h-486v8z" />
    <glyph glyph-name="uni2215" unicode="&#x2215;" horiz-adv-x="609" 
d="M484 706h9l-368 -706h-9z" />
    <glyph glyph-name="uni2219" unicode="&#x2219;" horiz-adv-x="609" 
d="M281 246q-9 9 -9 24q0 14 9 22.5t23 8.5q15 0 23.5 -8.5t8.5 -22.5q0 -16 -8.5 -24.5t-23.5 -8.5q-14 0 -23 9z" />
    <glyph glyph-name="radical" unicode="&#x221a;" horiz-adv-x="651" 
d="M644 706l-327 -921h-10l-202 434l-95 -35v9l99 36l203 -435l324 912h8z" />
    <glyph glyph-name="infinity" unicode="&#x221e;" horiz-adv-x="949" 
d="M906 237q0 -55 -19 -96q-21 -47 -64.5 -74t-103.5 -27q-59 0 -103 25.5t-74 63.5t-68 100q-38 -62 -68 -100t-73.5 -63.5t-102.5 -25.5q-61 0 -104 27t-65 74q-18 42 -18 96t18 96q22 47 65 74t104 27q59 0 102.5 -25.5t73.5 -64t68 -100.5q38 63 68 101t74 63.5
t103 25.5q60 0 103.5 -27t64.5 -74q19 -41 19 -96zM330.5 73.5q42.5 25.5 72 63t67.5 100.5q-39 63 -68 100.5t-72 63t-100 25.5q-58 0 -99.5 -26t-62.5 -71q-17 -42 -17 -92t17 -92q21 -45 62.5 -71t99.5 -26t100.5 25.5zM898 237q0 52 -18 92q-20 45 -61.5 71t-99.5 26
t-100.5 -25.5t-72 -63t-67.5 -100.5q37 -62 66.5 -100t72.5 -63.5t101 -25.5t99.5 26t61.5 71q18 41 18 92z" />
    <glyph glyph-name="integral" unicode="&#x222b;" horiz-adv-x="424" 
d="M0 -203l2 8q19 -2 41 -2q48 0 73 25t35 82l113 686q11 61 39 87t80 26q20 0 41 -3l-1 -8q-21 3 -41 3q-48 0 -74 -24.5t-36 -80.5l-113 -686q-10 -62 -38 -88.5t-79 -26.5q-22 0 -42 2z" />
    <glyph glyph-name="approxequal" unicode="&#x2248;" horiz-adv-x="609" 
d="M368.5 321q-19.5 7 -34 17.5t-33.5 27.5q-25 23 -48.5 34.5t-57.5 11.5q-47 0 -71.5 -26t-26.5 -68h-8q2 46 29 74t78 28q25 0 44.5 -6.5t34 -17t34.5 -27.5q19 -16 32 -25.5t31 -15.5t41 -6q48 0 72.5 26t27.5 69h8q-3 -46 -30 -74.5t-78 -28.5q-25 0 -44.5 7z
M368.5 125q-19.5 7 -34 17.5t-33.5 27.5q-25 23 -48.5 34.5t-57.5 11.5q-47 0 -71.5 -26t-26.5 -68h-8q2 46 29 74t78 28q25 0 44.5 -6.5t34 -17t34.5 -27.5q19 -16 32 -25.5t31 -15.5t41 -6q48 0 72.5 26t27.5 69h8q-3 -46 -30 -74.5t-78 -28.5q-25 0 -44.5 7z" />
    <glyph glyph-name="notequal" unicode="&#x2260;" horiz-adv-x="609" 
d="M368 370l-143 -201h322v-8h-327l-99 -140h-10l99 140h-149v8h154l143 201h-297v8h302l100 140h10l-100 -140h174v-8h-179z" />
    <glyph glyph-name="lessequal" unicode="&#x2264;" horiz-adv-x="609" 
d="M522 509l-479 -196l479 -195v-9l-486 199v10l486 200v-9zM36 29h486v-8h-486v8z" />
    <glyph glyph-name="greaterequal" unicode="&#x2265;" horiz-adv-x="609" 
d="M547 318v-10l-486 -199v9l479 195l-479 196v9zM61 29h486v-8h-486v8z" />
    <glyph glyph-name="lozenge" unicode="&#x25ca;" horiz-adv-x="531" 
d="M24 252l237 454h10l236 -454l-236 -455h-10zM498 252l-232 446l-233 -446l233 -447z" />
    <glyph glyph-name="ff" unicode="&#xfb00;" horiz-adv-x="702" 
d="M132 464h-106v8h106v90q0 150 131 150q33 0 59 -6v-8q-26 6 -59 6q-61 0 -92 -34.5t-31 -107.5v-90h181v-8h-181v-464h-8v464zM484 464h-106v8h106v90q0 150 131 150q33 0 59 -6v-8q-26 6 -59 6q-61 0 -92 -34.5t-31 -107.5v-90h181v-8h-181v-464h-8v464z" />
    <glyph glyph-name="fi" unicode="&#xfb01;" horiz-adv-x="517" 
d="M132 464h-106v8h106v90q0 150 131 150q33 0 59 -6v-8q-26 6 -59 6q-61 0 -92 -34.5t-31 -107.5v-90h181v-8h-181v-464h-8v464zM422.5 620.5q-4.5 4.5 -4.5 11.5t4.5 11.5t11.5 4.5t11.5 -4.5t4.5 -11.5t-4.5 -11.5t-11.5 -4.5t-11.5 4.5zM430 472h8v-472h-8v472z" />
    <glyph glyph-name="fl" unicode="&#xfb02;" horiz-adv-x="517" 
d="M132 464h-106v8h106v90q0 150 131 150q33 0 59 -6v-8q-26 6 -59 6q-61 0 -92 -34.5t-31 -107.5v-90h181v-8h-181v-464h-8v464zM430 706h8v-706h-8v706z" />
    <glyph glyph-name="ffi" unicode="&#xfb03;" horiz-adv-x="868" 
d="M132 464h-106v8h106v90q0 150 131 150q33 0 59 -6v-8q-26 6 -59 6q-61 0 -92 -34.5t-31 -107.5v-90h181v-8h-181v-464h-8v464zM484 464h-106v8h106v90q0 150 131 150q33 0 59 -6v-8q-26 6 -59 6q-61 0 -92 -34.5t-31 -107.5v-90h181v-8h-181v-464h-8v464zM773.5 620.5
q-4.5 4.5 -4.5 11.5t4.5 11.5t11.5 4.5t11.5 -4.5t4.5 -11.5t-4.5 -11.5t-11.5 -4.5t-11.5 4.5zM781 472h8v-472h-8v472z" />
    <glyph glyph-name="ffl" unicode="&#xfb04;" horiz-adv-x="868" 
d="M132 464h-106v8h106v90q0 150 131 150q33 0 59 -6v-8q-26 6 -59 6q-61 0 -92 -34.5t-31 -107.5v-90h181v-8h-181v-464h-8v464zM484 464h-106v8h106v90q0 150 131 150q33 0 59 -6v-8q-26 6 -59 6q-61 0 -92 -34.5t-31 -107.5v-90h181v-8h-181v-464h-8v464zM781 706h8v-706
h-8v706z" />
    <glyph glyph-name="uniFEFF" unicode="&#xfeff;" 
 />
    <glyph glyph-name="uni00A40301" horiz-adv-x="331" 
d="M13 0v8q27 -4 62 -4q57 0 92.5 17.5t52.5 55.5t17 99v530h8v-530q0 -95 -41 -137.5t-129 -42.5q-35 0 -62 4zM357 894h13l-180 -126h-13z" />
    <glyph glyph-name="M.ss01" horiz-adv-x="806" 
d="M87 706h10l306 -382l305 382h11v-706h-8v697l-306 -383h-5l-305 383v-697h-8v706z" />
    <glyph glyph-name="Q.ss02" horiz-adv-x="875" 
d="M819 353q0 -105 -34 -177q-31 -68 -88.5 -113.5t-138.5 -64.5l118 -164l-7 -4l-120 166q-53 -11 -111 -11q-130 0 -218.5 50t-129.5 141q-34 75 -34 177t34 177q41 91 129.5 141t218.5 50q129 0 217.5 -50t129.5 -141q34 -72 34 -177zM811 353q0 103 -33 173
q-40 89 -127 138t-213 49q-127 0 -214 -49t-127 -138q-33 -73 -33 -173t33 -173q40 -89 127 -138t214 -49q126 0 213 49t127 138q33 70 33 173z" />
    <glyph glyph-name="R.ss03" horiz-adv-x="683" 
d="M444 358q82 -7 118.5 -45.5t36.5 -115.5v-197h-8v197q0 56 -19 90.5t-62.5 50.5t-117.5 16h-297v-354h-8v706h312q164 0 207 -94q15 -33 15 -78q0 -46 -16 -81q-37 -82 -161 -95zM598 457q15 32 15 77q0 43 -14 74q-40 90 -200 90h-304v-336h294q167 0 209 95z" />
    <glyph glyph-name="Racute.ss03" horiz-adv-x="683" 
d="M444 358q82 -7 118.5 -45.5t36.5 -115.5v-197h-8v197q0 56 -19 90.5t-62.5 50.5t-117.5 16h-297v-354h-8v706h312q164 0 207 -94q15 -33 15 -78q0 -46 -16 -81q-37 -82 -161 -95zM598 457q15 32 15 77q0 43 -14 74q-40 90 -200 90h-304v-336h294q167 0 209 95zM460 894
h13l-180 -126h-13z" />
    <glyph glyph-name="Rcaron.ss03" horiz-adv-x="683" 
d="M444 358q82 -7 118.5 -45.5t36.5 -115.5v-197h-8v197q0 56 -19 90.5t-62.5 50.5t-117.5 16h-297v-354h-8v706h312q164 0 207 -94q15 -33 15 -78q0 -46 -16 -81q-37 -82 -161 -95zM598 457q15 32 15 77q0 43 -14 74q-40 90 -200 90h-304v-336h294q167 0 209 95zM349 768
h-10l-162 126h13l154 -120l154 120h13z" />
    <glyph glyph-name="uni0156.ss03" horiz-adv-x="683" 
d="M444 358q82 -7 118.5 -45.5t36.5 -115.5v-197h-8v197q0 56 -19 90.5t-62.5 50.5t-117.5 16h-297v-354h-8v706h312q164 0 207 -94q15 -33 15 -78q0 -46 -16 -81q-37 -82 -161 -95zM598 457q15 32 15 77q0 43 -14 74q-40 90 -200 90h-304v-336h294q167 0 209 95zM348 -52h8
l-39 -151h-8z" />
    <glyph glyph-name="Oslash.ss04" horiz-adv-x="875" 
d="M785 530q34 -72 34 -177t-34 -177q-41 -91 -129.5 -141t-217.5 -50q-87 0 -156 23t-118 67l-107 -105l-5 5l106 105q-42 39 -68 96q-34 75 -34 177t34 177q41 91 129.5 141t218.5 50q87 0 155.5 -23t117.5 -67l107 105l5 -5l-105 -106q43 -42 67 -95zM811 353
q0 103 -33 173q-40 89 -127 138t-213 49q-127 0 -214 -49t-127 -138q-33 -73 -33 -173t33 -173q40 -89 127 -138t214 -49q126 0 213 49t127 138q33 70 33 173z" />
    <glyph glyph-name="i.loclTRK" horiz-adv-x="166" 
d="M79 472h8v-472h-8v472zM71.5 620.5q-4.5 4.5 -4.5 11.5t4.5 11.5t11.5 4.5t11.5 -4.5t4.5 -11.5t-4.5 -11.5t-11.5 -4.5t-11.5 4.5z" />
    <glyph glyph-name="uni006A0301" horiz-adv-x="164" 
d="M-61 -203v8q21 -2 43 -2q50 0 72.5 24.5t22.5 80.5v564h8v-564q0 -59 -25 -86t-78 -27q-22 0 -43 2zM154 706h9l-99 -155h-10z" />
    <glyph glyph-name="oslash.ss04" horiz-adv-x="613" 
d="M571 236q0 -63 -23 -115q-28 -63 -90.5 -98t-150.5 -35q-111 0 -180 55l-65 -66l-5 6l63 65q-34 29 -54 73q-23 49 -23 115q0 68 23 115q28 63 90 98.5t151 35.5q55 0 101 -14t80 -41l63 64l5 -6l-62 -63q35 -32 54 -74q23 -51 23 -115zM563 236q0 62 -22 111
q-27 62 -87.5 96t-146.5 34t-146.5 -34t-87.5 -96q-22 -45 -22 -111q0 -64 22 -111q27 -61 87.5 -95t146.5 -34t146.5 34t87.5 95q22 50 22 111z" />
    <glyph glyph-name="r.ss05" horiz-adv-x="165" 
d="M79 472h8v-9q3 13 16 13q7 0 11.5 -4t4.5 -11t-4.5 -11.5t-11.5 -4.5q-5 0 -10 3q-4 -2 -5 -6t-1 -14v-428h-8v472z" />
    <glyph glyph-name="racute.ss05" horiz-adv-x="165" 
d="M79 472h8v-9q3 13 16 13q7 0 11.5 -4t4.5 -11t-4.5 -11.5t-11.5 -4.5q-5 0 -10 3q-4 -2 -5 -6t-1 -14v-428h-8v472zM173 706h9l-99 -155h-10z" />
    <glyph glyph-name="rcaron.ss05" horiz-adv-x="165" 
d="M79 472h8v-9q3 13 16 13q7 0 11.5 -4t4.5 -11t-4.5 -11.5t-11.5 -4.5q-5 0 -10 3q-4 -2 -5 -6t-1 -14v-428h-8v472zM5 706l94 -149l95 149h9l-99 -155h-10l-99 155h10z" />
    <glyph glyph-name="uni0157.ss05" horiz-adv-x="165" 
d="M79 472h8v-9q3 13 16 13q7 0 11.5 -4t4.5 -11t-4.5 -11.5t-11.5 -4.5q-5 0 -10 3q-4 -2 -5 -6t-1 -14v-428h-8v472zM71 -52h8l-39 -151h-8z" />
    <glyph glyph-name="f_i" horiz-adv-x="517" 
d="M132 464h-106v8h106v90q0 150 131 150q33 0 59 -6v-8q-26 6 -59 6q-61 0 -92 -34.5t-31 -107.5v-90h181v-8h-181v-464h-8v464zM422.5 620.5q-4.5 4.5 -4.5 11.5t4.5 11.5t11.5 4.5t11.5 -4.5t4.5 -11.5t-4.5 -11.5t-11.5 -4.5t-11.5 4.5zM430 472h8v-472h-8v472z" />
    <glyph glyph-name="f_l" horiz-adv-x="517" 
d="M132 464h-106v8h106v90q0 150 131 150q33 0 59 -6v-8q-26 6 -59 6q-61 0 -92 -34.5t-31 -107.5v-90h181v-8h-181v-464h-8v464zM430 706h8v-706h-8v706z" />
    <glyph glyph-name="zero.tf" horiz-adv-x="658" 
d="M183.5 25q-60.5 40 -94.5 114q-39 89 -39 214q0 126 39 214q34 74 94.5 114t145.5 40t145.5 -40t94.5 -114q39 -88 39 -214q0 -125 -39 -214q-34 -74 -94.5 -114t-145.5 -40t-145.5 40zM470 32q59 39 92 111q38 87 38 210t-38 210q-33 72 -92 111t-141 39t-141 -39
t-92 -111q-38 -87 -38 -210t38 -210q33 -72 92 -111t141 -39t141 39z" />
    <glyph glyph-name="one.tf" horiz-adv-x="658" 
d="M371 698h-181l3 8h186v-706h-8v698z" />
    <glyph glyph-name="two.tf" horiz-adv-x="658" 
d="M67 3l332 266q63 50 98 88t50.5 73.5t15.5 77.5q0 48 -17 87q-25 54 -80.5 85.5t-136.5 31.5q-86 0 -143 -34.5t-83 -93.5q-22 -48 -22 -112h-8q0 67 23 116q27 61 86.5 96.5t146.5 35.5q84 0 141 -32.5t83 -88.5q18 -40 18 -91q0 -43 -15.5 -79.5t-51.5 -76t-100 -89.5
l-227 -181l-92 -74h496v-8h-514v3z" />
    <glyph glyph-name="three.tf" horiz-adv-x="658" 
d="M603 190q0 -46 -17 -85q-26 -57 -90.5 -88t-159.5 -31q-99 0 -164.5 32t-95.5 99q-27 60 -27 149h8q0 -87 26 -145q29 -66 92.5 -96.5t160.5 -30.5q93 0 155.5 30t87.5 85q16 37 16 81q0 39 -15 74q-25 57 -94 82.5t-185 25.5h-29v8h29q214 0 259 100q13 29 13 65
q0 34 -13 65q-22 49 -79 76t-142 27q-190 0 -245 -122q-22 -50 -22 -119h-8q0 71 23 123q56 126 252 126q87 0 146 -28t82 -79q14 -31 14 -69q0 -40 -14 -69q-18 -42 -67 -67.5t-133 -32.5q92 -5 145 -32t75 -76q16 -37 16 -78z" />
    <glyph glyph-name="four.tf" horiz-adv-x="658" 
d="M639 217h-137v-217h-8v217h-471v4l468 485h11v-481h137v-8zM494 225v471h-1l-455 -471h456z" />
    <glyph glyph-name="five.tf" horiz-adv-x="658" 
d="M93 107q-23 54 -23 126h8q0 -70 22 -122q28 -60 83.5 -89t143.5 -29q86 0 146.5 31.5t86.5 89.5q20 43 20 99q0 52 -19 95q-28 62 -93 93.5t-157 31.5q-54 0 -105.5 -10.5t-108.5 -32.5l62 316h381l-3 -8h-371l-59 -296q101 39 204 39q94 0 161 -33t96 -96q20 -45 20 -99
q0 -59 -21 -103q-28 -61 -90 -93t-150 -32q-180 0 -234 122z" />
    <glyph glyph-name="six.tf" horiz-adv-x="658" 
d="M620 221q0 -51 -20 -97q-19 -42 -54.5 -73t-85 -48.5t-107.5 -17.5q-94 0 -161.5 40.5t-102.5 119.5q-36 78 -36 202q0 129 38 214q35 78 101 119t160 41q60 0 106.5 -17.5t79.5 -50.5q25 -24 41.5 -59t22.5 -75h-8q-7 39 -22.5 72t-38.5 57q-32 32 -77.5 48.5
t-103.5 16.5q-92 0 -156 -40t-98 -116q-37 -83 -37 -210q0 -59 7.5 -104t23.5 -87q-8 34 -8 60q0 51 19 98q19 43 55 74.5t85 49t108 17.5q89 0 155 -36.5t95 -101.5q19 -44 19 -96zM612 221q0 52 -18 92q-29 63 -93 98.5t-150 35.5t-149 -36.5t-92 -100.5q-18 -43 -18 -94
t17 -88q28 -63 92 -99t152 -36q85 0 148.5 36.5t91.5 98.5q19 41 19 93z" />
    <glyph glyph-name="seven.tf" horiz-adv-x="658" 
d="M589 698h-532v8h546l-400 -706h-10z" />
    <glyph glyph-name="eight.tf" horiz-adv-x="658" 
d="M614 184q0 -42 -15 -75q-27 -60 -99 -92t-171 -32t-170.5 32t-98.5 92q-15 33 -15 75q0 40 14 73q22 49 76.5 78.5t128.5 37.5q-66 7 -112.5 34t-66.5 71q-13 29 -13 66t14 67q23 52 86.5 81t156.5 29t156.5 -29t86.5 -81q14 -30 14 -67t-13 -66q-19 -44 -66 -71
t-113 -34q74 -8 128.5 -37.5t76.5 -78.5q15 -31 15 -73zM178.5 402.5q62.5 -25.5 150.5 -25.5t150.5 25.5t86.5 79.5q12 27 12 62q0 37 -13 63q-22 51 -83 78.5t-153 27.5q-91 0 -152.5 -28t-83.5 -78q-13 -29 -13 -63q0 -35 12 -62q24 -54 86.5 -79.5zM606 184q0 39 -14 69
q-26 57 -96 86.5t-167 29.5q-96 0 -166.5 -29.5t-95.5 -86.5q-14 -30 -14 -69q0 -42 14 -71q26 -58 96 -89t166 -31t166.5 30.5t96.5 89.5q14 33 14 71z" />
    <glyph glyph-name="nine.tf" horiz-adv-x="658" 
d="M605 359q0 -129 -38 -214q-35 -78 -101 -119t-160 -41q-60 0 -106.5 17.5t-79.5 50.5q-25 24 -41.5 59t-22.5 75h8q7 -39 22.5 -72t38.5 -57q32 -32 77.5 -48.5t103.5 -16.5q92 0 156 40t98 116q37 83 37 210q0 59 -7.5 104t-23.5 87q8 -34 8 -60q0 -50 -19 -98
q-19 -43 -55 -74.5t-85 -49t-108 -17.5q-89 0 -155 36.5t-95 101.5q-19 44 -19 96q0 51 20 97q19 42 54.5 73t85 48.5t107.5 17.5q94 0 161.5 -40.5t102.5 -119.5q36 -78 36 -202zM566 490q0 51 -17 88q-28 63 -92 99t-152 36q-85 0 -148.5 -36.5t-91.5 -98.5
q-19 -41 -19 -93q0 -51 18 -92q29 -63 93 -98.5t150 -35.5t149 36.5t92 100.5q18 43 18 94z" />
    <glyph glyph-name="zero.dnom" horiz-adv-x="481" 
d="M135 16.5q-44 24.5 -65 71.5q-21 45 -21 106t21 106q21 47 65 71.5t106 24.5t106 -25t65 -71q20 -46 20 -106t-20 -106q-21 -46 -65 -71t-106 -25t-106 24.5zM342.5 23.5q42.5 23.5 62.5 68.5q19 42 19 102t-19 102q-20 45 -62.5 68.5t-101.5 23.5q-60 0 -102.5 -23.5
t-61.5 -68.5q-20 -41 -20 -102t20 -102q19 -45 61.5 -68.5t102.5 -23.5q59 0 101.5 23.5z" />
    <glyph glyph-name="one.dnom" horiz-adv-x="221" 
d="M130 380h-104l2 8h110v-388h-8v380z" />
    <glyph glyph-name="two.dnom" horiz-adv-x="390" 
d="M40 3l198 147q37 28 57 48t28.5 39.5t8.5 42.5q0 24 -8 45q-15 31 -48.5 47t-78.5 16q-47 0 -81 -19t-49 -53q-6 -13 -8.5 -27t-2.5 -34h-8q0 21 2.5 35.5t9.5 29.5q16 36 52 56t85 20q47 0 83 -17t51 -50q9 -21 9 -49q0 -25 -9.5 -45.5t-30.5 -41.5t-58 -49l-183 -136
h288v-8h-307v3z" />
    <glyph glyph-name="three.dnom" horiz-adv-x="421" 
d="M376 105q0 -23 -10 -46q-15 -34 -55.5 -50.5t-94.5 -16.5q-58 0 -102 21t-61 59q-12 29 -12 61h8q0 -32 11 -57q16 -36 57.5 -56t98.5 -20q52 0 90.5 15.5t52.5 47.5q9 20 9 42q0 20 -8 39q-28 59 -161 59h-12v8h12q124 0 149 55q7 18 7 33q0 19 -7 33q-12 27 -48 41.5
t-84 14.5q-55 0 -93.5 -17t-54.5 -53q-9 -21 -9 -48h-8q0 27 10 52q17 37 58 55.5t97 18.5q51 0 88.5 -16t51.5 -46q7 -17 7 -35t-8 -36q-10 -22 -36 -36.5t-65 -19.5q89 -9 113 -61q9 -19 9 -41z" />
    <glyph glyph-name="four.dnom" horiz-adv-x="387" 
d="M293 120h-284v2l280 266h12v-260h74v-8h-74v-120h-8v120zM293 128v253l-268 -253h268z" />
    <glyph glyph-name="five.dnom" horiz-adv-x="407" 
d="M112.5 10.5q-37.5 18.5 -53.5 52.5q-10 20 -10 49h8q0 -27 9 -45q15 -32 50.5 -49.5t84.5 -17.5q50 0 86.5 18t52.5 51q9 21 9 49t-9 46q-16 35 -55 53.5t-94 18.5q-32 0 -62 -5.5t-63 -17.5l37 175h228l-2 -8h-219l-33 -155q53 19 114 19q58 0 99 -19.5t57 -56.5
q10 -21 10 -50q0 -30 -10 -53q-16 -35 -54.5 -54t-91.5 -19q-51 0 -88.5 18.5z" />
    <glyph glyph-name="six.dnom" horiz-adv-x="433" 
d="M388 122q0 -26 -11 -50q-17 -38 -58 -59t-93 -21q-59 0 -100.5 24.5t-60.5 68.5q-20 40 -20 106q0 67 20 110q21 46 61.5 70.5t99.5 24.5q75 0 113 -39q26 -26 35 -69h-8q-9 40 -33 64q-35 36 -107 36q-57 0 -95.5 -23.5t-58.5 -67.5q-19 -44 -19 -106q0 -42 10 -79v7
q0 29 10 49q18 39 58.5 61t93.5 22t94.5 -21t57.5 -58q11 -22 11 -50zM380 122q0 24 -10 46q-15 35 -54.5 55t-90.5 20t-90 -20.5t-55 -56.5q-9 -21 -9 -47q0 -25 9 -43q15 -35 55.5 -55.5t90.5 -20.5t89 20t55 56q10 22 10 46z" />
    <glyph glyph-name="seven.dnom" horiz-adv-x="334" 
d="M306 380h-287v8h301l-235 -388h-10z" />
    <glyph glyph-name="eight.dnom" horiz-adv-x="435" 
d="M389 103q0 -22 -8 -41q-16 -35 -60 -52.5t-103 -17.5t-103.5 17.5t-59.5 52.5q-9 18 -9 41q0 19 8 38q12 26 41.5 42.5t70.5 21.5q-35 5 -60.5 19.5t-35.5 37.5q-7 18 -7 37q0 20 7 37q14 30 54 45t94 15t93.5 -15t53.5 -45q8 -16 8 -37q0 -19 -7 -37
q-11 -23 -36.5 -37.5t-60.5 -19.5q41 -5 70.5 -21.5t41.5 -42.5q8 -19 8 -38zM128 222.5q37 -13.5 90 -13.5t90.5 13.5t50.5 43.5q6 15 6 33q0 16 -7 33q-13 28 -51 42t-89 14q-52 0 -90 -14t-51 -42q-6 -15 -6 -33t6 -33q14 -30 51 -43.5zM381 103q0 17 -7 34
q-15 33 -57.5 48.5t-98.5 15.5q-57 0 -99.5 -15.5t-57.5 -48.5q-7 -17 -7 -34q0 -19 8 -37q15 -34 57 -50t99 -16q56 0 98.5 16.5t57.5 49.5q7 15 7 37z" />
    <glyph glyph-name="nine.dnom" horiz-adv-x="433" 
d="M388 197q0 -67 -20 -110q-21 -46 -61.5 -70.5t-98.5 -24.5q-75 0 -114 39q-26 26 -34 69h8q7 -39 32 -64q36 -36 108 -36q56 0 94.5 23.5t58.5 67.5q19 44 19 106q0 42 -10 80v-8q0 -29 -10 -49q-17 -39 -58 -61t-94 -22t-94.5 21t-57.5 58q-10 23 -10 50q0 29 10 50
q17 38 58 59t93 21q59 0 100.5 -24.5t61.5 -68.5q19 -41 19 -106zM362 269q0 25 -9 43q-15 35 -55.5 55.5t-90.5 20.5t-89 -20t-55 -56q-9 -19 -9 -46q0 -26 9 -46q15 -35 54.5 -55t90.5 -20t90 20.5t55 56.5q9 21 9 47z" />
    <glyph glyph-name="zero.numr" horiz-adv-x="481" 
d="M135 334.5q-44 24.5 -65 71.5q-21 45 -21 106t21 106q21 47 65 71.5t106 24.5t106 -25t65 -71q20 -46 20 -106t-20 -106q-21 -46 -65 -71t-106 -25t-106 24.5zM342.5 341.5q42.5 23.5 62.5 68.5q19 42 19 102t-19 102q-20 45 -62.5 68.5t-101.5 23.5q-60 0 -102.5 -23.5
t-61.5 -68.5q-20 -41 -20 -102t20 -102q19 -45 61.5 -68.5t102.5 -23.5q59 0 101.5 23.5z" />
    <glyph glyph-name="one.numr" horiz-adv-x="221" 
d="M130 698h-104l2 8h110v-388h-8v380z" />
    <glyph glyph-name="two.numr" horiz-adv-x="390" 
d="M40 321l198 147q37 28 57 48t28.5 39.5t8.5 42.5q0 24 -8 45q-15 31 -48.5 47t-78.5 16q-47 0 -81 -19t-49 -53q-6 -13 -8.5 -27t-2.5 -34h-8q0 21 2.5 35.5t9.5 29.5q16 36 52 56t85 20q47 0 83 -17t51 -50q9 -21 9 -49q0 -25 -9.5 -45.5t-30.5 -41.5t-58 -49l-183 -136
h288v-8h-307v3z" />
    <glyph glyph-name="three.numr" horiz-adv-x="421" 
d="M376 423q0 -23 -10 -46q-15 -34 -55.5 -50.5t-94.5 -16.5q-58 0 -102 21t-61 59q-12 29 -12 61h8q0 -32 11 -57q16 -36 57.5 -56t98.5 -20q52 0 90.5 15.5t52.5 47.5q9 20 9 42q0 20 -8 39q-28 59 -161 59h-12v8h12q124 0 149 55q7 18 7 33q0 19 -7 33q-12 27 -48 41.5
t-84 14.5q-55 0 -93.5 -17t-54.5 -53q-9 -21 -9 -48h-8q0 27 10 52q17 37 58 55.5t97 18.5q51 0 88.5 -16t51.5 -46q7 -17 7 -35t-8 -36q-10 -22 -36 -36.5t-65 -19.5q89 -9 113 -61q9 -19 9 -41z" />
    <glyph glyph-name="four.numr" horiz-adv-x="387" 
d="M293 438h-284v2l280 266h12v-260h74v-8h-74v-120h-8v120zM293 446v253l-268 -253h268z" />
    <glyph glyph-name="five.numr" horiz-adv-x="407" 
d="M112.5 328.5q-37.5 18.5 -53.5 52.5q-10 20 -10 49h8q0 -27 9 -45q15 -32 50.5 -49.5t84.5 -17.5q50 0 86.5 18t52.5 51q9 21 9 49t-9 46q-16 35 -55 53.5t-94 18.5q-32 0 -62 -5.5t-63 -17.5l37 175h228l-2 -8h-219l-33 -155q53 19 114 19q58 0 99 -19.5t57 -56.5
q10 -21 10 -50q0 -30 -10 -53q-16 -35 -54.5 -54t-91.5 -19q-51 0 -88.5 18.5z" />
    <glyph glyph-name="six.numr" horiz-adv-x="433" 
d="M388 440q0 -26 -11 -50q-17 -38 -58 -59t-93 -21q-59 0 -100.5 24.5t-60.5 68.5q-20 40 -20 106q0 67 20 110q21 46 61.5 70.5t99.5 24.5q75 0 113 -39q26 -26 35 -69h-8q-9 40 -33 64q-35 36 -107 36q-57 0 -95.5 -23.5t-58.5 -67.5q-19 -44 -19 -106q0 -42 10 -79v7
q0 29 10 49q18 39 58.5 61t93.5 22t94.5 -21t57.5 -58q11 -22 11 -50zM380 440q0 24 -10 46q-15 35 -54.5 55t-90.5 20t-90 -20.5t-55 -56.5q-9 -21 -9 -47q0 -25 9 -43q15 -35 55.5 -55.5t90.5 -20.5t89 20t55 56q10 22 10 46z" />
    <glyph glyph-name="seven.numr" horiz-adv-x="334" 
d="M306 698h-287v8h301l-235 -388h-10z" />
    <glyph glyph-name="eight.numr" horiz-adv-x="435" 
d="M389 421q0 -22 -8 -41q-16 -35 -60 -52.5t-103 -17.5t-103.5 17.5t-59.5 52.5q-9 18 -9 41q0 19 8 38q12 26 41.5 42.5t70.5 21.5q-35 5 -60.5 19.5t-35.5 37.5q-7 18 -7 37q0 20 7 37q14 30 54 45t94 15t93.5 -15t53.5 -45q8 -16 8 -37q0 -19 -7 -37
q-11 -23 -36.5 -37.5t-60.5 -19.5q41 -5 70.5 -21.5t41.5 -42.5q8 -19 8 -38zM128 540.5q37 -13.5 90 -13.5t90.5 13.5t50.5 43.5q6 15 6 33q0 16 -7 33q-13 28 -51 42t-89 14q-52 0 -90 -14t-51 -42q-6 -15 -6 -33t6 -33q14 -30 51 -43.5zM381 421q0 17 -7 34
q-15 33 -57.5 48.5t-98.5 15.5q-57 0 -99.5 -15.5t-57.5 -48.5q-7 -17 -7 -34q0 -19 8 -37q15 -34 57 -50t99 -16q56 0 98.5 16.5t57.5 49.5q7 15 7 37z" />
    <glyph glyph-name="nine.numr" horiz-adv-x="433" 
d="M388 515q0 -67 -20 -110q-21 -46 -61.5 -70.5t-98.5 -24.5q-75 0 -114 39q-26 26 -34 69h8q7 -39 32 -64q36 -36 108 -36q56 0 94.5 23.5t58.5 67.5q19 44 19 106q0 42 -10 80v-8q0 -29 -10 -49q-17 -39 -58 -61t-94 -22t-94.5 21t-57.5 58q-10 23 -10 50q0 29 10 50
q17 38 58 59t93 21q59 0 100.5 -24.5t61.5 -68.5q19 -41 19 -106zM362 587q0 25 -9 43q-15 35 -55.5 55.5t-90.5 20.5t-89 -20t-55 -56q-9 -19 -9 -46q0 -26 9 -46q15 -35 54.5 -55t90.5 -20t90 20.5t55 56.5q9 21 9 47z" />
    <glyph glyph-name="colon.case" horiz-adv-x="246" 
d="M111.5 143.5q-4.5 4.5 -4.5 12.5q0 7 4.5 11t11.5 4t11.5 -4t4.5 -11q0 -8 -4 -12.5t-12 -4.5q-7 0 -11.5 4.5zM111.5 540.5q-4.5 4.5 -4.5 12.5q0 7 4.5 11t11.5 4t11.5 -4t4.5 -11q0 -8 -4 -12.5t-12 -4.5q-7 0 -11.5 4.5z" />
    <glyph glyph-name="semicolon.case" horiz-adv-x="298" 
d="M163 301h8l-76 -322h-8zM163.5 540.5q-4.5 4.5 -4.5 12.5q0 7 4.5 11t11.5 4t11.5 -4t4.5 -11q0 -8 -4 -12.5t-12 -4.5q-7 0 -11.5 4.5z" />
    <glyph glyph-name="exclamdown.case" horiz-adv-x="264" 
d="M144 704.5q4 -4.5 4 -12.5q0 -7 -4.5 -11t-11.5 -4t-11.5 4t-4.5 11q0 8 4 12.5t12 4.5t12 -4.5zM136 -4h-8v547h8v-547z" />
    <glyph glyph-name="questiondown.case" horiz-adv-x="579" 
d="M311 709.5q4 -4.5 4 -12.5q0 -7 -4.5 -11t-11.5 -4t-11.5 4t-4.5 11q0 8 4.5 12.5t11.5 4.5q8 0 12 -4.5zM148.5 344.5q-49.5 -70.5 -65.5 -109.5t-16 -78q0 -73 52.5 -118t166.5 -45q81 0 133 26t75 77q18 41 18 101h8q0 -33 -4.5 -58t-14.5 -47q-47 -107 -215 -107
q-118 0 -172.5 47t-54.5 124q0 41 16 80t64.5 108t154.5 203h10q-106 -133 -155.5 -203.5z" />
    <glyph glyph-name="periodcentered.case" horiz-adv-x="246" 
d="M111.5 360.5q-4.5 4.5 -4.5 12.5q0 7 4.5 11t11.5 4t11.5 -4t4.5 -11q0 -8 -4 -12.5t-12 -4.5q-7 0 -11.5 4.5z" />
    <glyph glyph-name="periodcentered.loclCAT.case" horiz-adv-x="41" 
d="M-123.5 356.5q-4.5 4.5 -4.5 12.5q0 7 4.5 11t11.5 4t11.5 -4t4.5 -11q0 -8 -4 -12.5t-12 -4.5q-7 0 -11.5 4.5z" />
    <glyph glyph-name="slash.case" horiz-adv-x="483" 
d="M447 755h9l-403 -805h-9z" />
    <glyph glyph-name="periodcentered.loclCAT" horiz-adv-x="74" 
d="M25.5 356.5q-4.5 4.5 -4.5 12.5q0 7 4.5 11t11.5 4t11.5 -4t4.5 -11q0 -8 -4 -12.5t-12 -4.5q-7 0 -11.5 4.5z" />
    <glyph glyph-name="parenleft.case" horiz-adv-x="343" 
d="M162.5 94q-43.5 119 -43.5 259t43.5 259.5t127.5 221.5h11q-85 -101 -129.5 -221.5t-44.5 -259.5t44.5 -259.5t129.5 -221.5h-11q-84 103 -127.5 222z" />
    <glyph glyph-name="parenright.case" horiz-adv-x="343" 
d="M42 -128q85 101 129.5 221.5t44.5 259.5t-44.5 259.5t-129.5 221.5h11q84 -102 127.5 -221.5t43.5 -259.5t-43.5 -259t-127.5 -222h-11z" />
    <glyph glyph-name="braceleft.case" horiz-adv-x="373" 
d="M181 409.5q-7 -26.5 -25.5 -40t-55.5 -16.5q37 -3 55.5 -16.5t25.5 -40t7 -75.5v-230q0 -52 25.5 -81.5t83.5 -29.5h44v-8h-44q-61 0 -89 32t-28 87v230q0 54 -7.5 80t-32.5 37t-80 11v8q54 0 79.5 11.5t33 37t7.5 79.5v230q0 56 28 87.5t89 31.5h44v-8h-44
q-109 0 -109 -111v-230q0 -49 -7 -75.5z" />
    <glyph glyph-name="braceright.case" horiz-adv-x="373" 
d="M200.5 405.5q7.5 -25.5 33 -37t79.5 -11.5v-8q-55 0 -80 -11t-32.5 -37t-7.5 -80v-230q0 -55 -28.5 -87t-89.5 -32h-43v8h43q110 0 110 111v230q0 49 6.5 75.5t25 40t55.5 16.5q-37 3 -55.5 16.5t-25 40t-6.5 75.5v230q0 111 -110 111h-43v8h43q62 0 90 -31.5t28 -87.5
v-230q0 -54 7.5 -79.5z" />
    <glyph glyph-name="bracketleft.case" horiz-adv-x="355" 
d="M148 834h175v-8h-167v-946h167v-8h-175v962z" />
    <glyph glyph-name="bracketright.case" horiz-adv-x="355" 
d="M32 -128v8h166v946h-166v8h174v-962h-174z" />
    <glyph glyph-name="hyphen.case" horiz-adv-x="445" 
d="M61 376h322v-8h-322v8z" />
    <glyph glyph-name="uni00AD.case" horiz-adv-x="445" 
d="M61 376h322v-8h-322v8z" />
    <glyph glyph-name="endash.case" horiz-adv-x="656" 
d="M61 376h534v-8h-534v8z" />
    <glyph glyph-name="emdash.case" horiz-adv-x="1284" 
d="M61 376h1161v-8h-1161v8z" />
    <glyph glyph-name="guillemotleft.case" horiz-adv-x="422" 
d="M29 372l191 157h13l-191 -157l191 -157h-13zM189 372l191 157h13l-191 -157l191 -157h-13z" />
    <glyph glyph-name="guillemotright.case" horiz-adv-x="422" 
d="M29 215l192 157l-192 157h13l192 -157l-192 -157h-13zM189 215l192 157l-192 157h13l192 -157l-192 -157h-13z" />
    <glyph glyph-name="guilsinglleft.case" horiz-adv-x="262" 
d="M29 372l191 157h13l-191 -157l191 -157h-13z" />
    <glyph glyph-name="guilsinglright.case" horiz-adv-x="262" 
d="M29 215l192 157l-192 157h13l192 -157l-192 -157h-13z" />
    <glyph glyph-name="cent.ss06" horiz-adv-x="580" 
d="M537 287q-3 -38 -18 -69t-40 -54q-31 -28 -75.5 -43t-98.5 -16v-105h-8v105q-83 1 -143 35.5t-88 96.5q-23 47 -23 116t23 116q28 63 88 97t143 35v105h8v-105q54 -1 98 -16t75 -43q26 -23 40.5 -54t17.5 -68h-8q-6 72 -56 117q-30 27 -74.5 41.5t-97.5 14.5
q-81 0 -140 -33t-87 -95q-22 -45 -22 -112t22 -112q28 -62 87 -95t140 -33q54 0 98.5 14.5t75.5 42.5q49 44 55 117h8z" />
    <glyph glyph-name="dollar.ss06" horiz-adv-x="744" 
d="M682 182q0 -40 -15 -73q-26 -59 -98.5 -91.5t-180.5 -32.5h-11v-105h-8v105q-110 3 -182 38.5t-102 103.5q-12 26 -17.5 56t-5.5 67h8q0 -71 22 -119q31 -69 106 -103.5t190 -34.5q107 0 177 31.5t95 88.5q14 31 14 69q0 31 -11 58q-17 38 -59.5 61t-95 34.5t-131.5 21.5
q-83 12 -132.5 22.5t-90.5 32.5t-58 58q-11 25 -11 57q0 39 14 67q17 38 52.5 66.5t89 44.5t119.5 16h7v95h8v-95q95 -3 158.5 -37.5t92.5 -97.5q21 -50 21 -114h-8q0 62 -20 110q-29 64 -95.5 97.5t-163.5 33.5q-98 0 -163.5 -33.5t-90.5 -89.5q-13 -27 -13 -63
q0 -16 2.5 -28t7.5 -25q16 -35 55.5 -55.5t87.5 -31t132 -22.5q82 -11 135 -22.5t96.5 -35.5t61.5 -64q11 -27 11 -61z" />
    <glyph glyph-name="paragraph.ss07" horiz-adv-x="650" 
d="M368 325h-102q-88 0 -140.5 24t-73.5 73q-17 35 -17 94q0 57 17 94q21 48 73.5 72t140.5 24h371v-8h-94v-901h-8v901h-159v-901h-8v528zM368 333v365h-102q-85 0 -135.5 -23t-71.5 -69q-16 -33 -16 -90q0 -58 16 -90q21 -47 71.5 -70t135.5 -23h102z" />
    <glyph glyph-name="caroncomb.alt" 
d="M-1 706h8l-46 -168h-8z" />
    <glyph glyph-name="uni0335.Eth" 
d="M-323 362h323v-8h-323v8z" />
    <glyph glyph-name="uni0335.Tbar" 
d="M-412 310h362v-8h-362v8z" />
    <glyph glyph-name="caron.alt" horiz-adv-x="154" 
d="M96 706h8l-46 -168h-8z" />
    <glyph glyph-name="uni0308.case" 
d="M-325.5 820.5q-4.5 4.5 -4.5 11.5t4.5 11.5t11.5 4.5t11.5 -4.5t4.5 -11.5t-4.5 -11.5t-11.5 -4.5t-11.5 4.5zM-77.5 820.5q-4.5 4.5 -4.5 11.5t4.5 11.5t11.5 4.5t11.5 -4.5t4.5 -11.5t-4.5 -11.5t-11.5 -4.5t-11.5 4.5z" />
    <glyph glyph-name="uni0307.case" 
d="M-77.5 819q-4.5 5 -4.5 12t4.5 11t11.5 4t11.5 -4t4.5 -11t-4.5 -12t-11.5 -5t-11.5 5z" />
    <glyph glyph-name="gravecomb.case" 
d="M-63 768l-180 126h13l180 -126h-13z" />
    <glyph glyph-name="acutecomb.case" 
d="M-63 894h13l-180 -126h-13z" />
    <glyph glyph-name="uni030B.case" 
d="M-205 894h12l-160 -126h-12zM-62 894h12l-160 -126h-12z" />
    <glyph glyph-name="uni0302.case" 
d="M-222 894h10l162 -126h-13l-154 120l-154 -120h-13z" />
    <glyph glyph-name="uni030C.case" 
d="M-212 768h-10l-162 126h13l154 -120l154 120h13z" />
    <glyph glyph-name="uni0306.case" 
d="M-319.5 796q-36.5 33 -40.5 95h8q4 -60 38 -90t109 -30t109 30t38 90h8q-4 -62 -40.5 -95t-114.5 -33t-114.5 33z" />
    <glyph glyph-name="uni030A.case" 
d="M-205.5 762q-24.5 23 -24.5 62q0 40 24.5 63.5t65.5 23.5t65.5 -24t24.5 -63q0 -38 -24.5 -61.5t-65.5 -23.5t-65.5 23zM-80.5 768q22.5 21 22.5 56q0 36 -22.5 57.5t-59.5 21.5q-38 0 -60 -21t-22 -58q0 -35 22 -56t60 -21q37 0 59.5 21z" />
    <glyph glyph-name="tildecomb.case" 
d="M-180.5 773q-15.5 8 -27 20t-28.5 33q-14 19 -25 30.5t-26 19.5t-35 8q-41 0 -62 -32.5t-23 -83.5h-8q2 56 25.5 90t67.5 34q21 0 37 -8t27.5 -20t28.5 -33q20 -28 38.5 -43t46.5 -15q41 0 62.5 32t23.5 83h8q-2 -55 -26 -89t-68 -34q-21 0 -36.5 8z" />
    <glyph glyph-name="uni0304.case" 
d="M-374 835h324v-8h-324v8z" />
    <glyph glyph-name="uni0337.case" 
d="M0 498v-9l-195 -123v1l-81 -51v10l81 51v-2z" />
    <glyph glyph-name="uni0338.case" 
d="M-679 84l549 545l79 77h11l-85 -84l-549 -545l-79 -77h-11z" />
    <glyph glyph-name="uni0308.narrow.case" 
d="M-201 820q-4 4 -4 11q0 6 4 9.5t11 3.5q6 0 10 -3.5t4 -9.5q0 -7 -4 -11t-10 -4q-7 0 -11 4zM-75 820q-4 4 -4 11q0 6 4 9.5t11 3.5q6 0 10 -3.5t4 -9.5q0 -7 -4 -11t-10 -4q-7 0 -11 4z" />
    <glyph glyph-name="uni0302.narrow.case" 
d="M-167 893h10l107 -125h-10l-102 119l-100 -119h-11z" />
    <glyph glyph-name="uni0306.narrow.case" 
d="M-241.5 795q-24.5 32 -26.5 96h8q2 -61 24 -90.5t77 -29.5t77 29.5t24 90.5h8q-2 -65 -26.5 -96.5t-82.5 -31.5t-82.5 32z" />
    <glyph glyph-name="tildecomb.narrow.case" 
d="M-166.5 782q-15.5 16 -30.5 45q-14 28 -28 42t-36 14q-65 0 -68 -115h-8q1 57 19 90t57 33q26 0 41 -15.5t30 -44.5q14 -28 28.5 -42.5t35.5 -14.5q35 0 50.5 31t17.5 85h8q-1 -58 -19 -91t-57 -33q-25 0 -40.5 16z" />
    <glyph glyph-name="uni0304.narrow.case" 
d="M-268 835h218v-8h-218v8z" />
    <glyph glyph-name="uni0335.dh" 
d="M-294 310h294v-8h-294v8z" />
    <glyph glyph-name="uni0307.i" 
d="M-77.5 620.5q-4.5 4.5 -4.5 11.5t4.5 11.5t11.5 4.5t11.5 -4.5t4.5 -11.5t-4.5 -11.5t-11.5 -4.5t-11.5 4.5z" />
    <glyph glyph-name="uni0308.narrow" 
d="M-199.5 621q-4.5 5 -4.5 12t4.5 11t11.5 4t11.5 -4t4.5 -11t-4.5 -12t-11.5 -5t-11.5 5zM-78 620.5q-4 4.5 -4 12.5q0 7 4 11t11 4q8 0 12.5 -4t4.5 -11t-5 -12t-12 -5t-11 4.5z" />
    <glyph glyph-name="gravecomb.narrow" 
d="M-59 551l-100 155h10l99 -155h-9z" />
    <glyph glyph-name="acutecomb.narrow" 
d="M-59 706h9l-99 -155h-10z" />
    <glyph glyph-name="uni0302.narrow" 
d="M-159 706h10l99 -155h-9l-95 149l-94 -149h-10z" />
    <glyph glyph-name="uni030C.narrow" 
d="M-248 706l94 -149l95 149h9l-99 -155h-10l-99 155h10z" />
    <glyph glyph-name="uni0306.narrow" 
d="M-230 588q-24 38 -26 118h8q2 -51 11 -83.5t29.5 -48.5t54.5 -16q50 0 71.5 35.5t23.5 112.5h8q-2 -80 -25.5 -118t-77.5 -38q-53 0 -77 38z" />
    <glyph glyph-name="tildecomb.narrow" 
d="M-135.5 558q-10.5 10 -17.5 25.5t-16 42.5q-12 38 -23 56.5t-29 18.5q-26 0 -38 -37t-14 -113h-8q2 80 16 119t44 39q15 0 25.5 -10.5t17.5 -25.5t16 -43q9 -27 15 -41t15 -23.5t22 -9.5q26 0 38 37t14 113h8q-2 -80 -16 -119t-44 -39q-15 0 -25.5 10z" />
    <glyph glyph-name="uni0304.narrow" 
d="M-266 631h216v-8h-216v8z" />
    <glyph glyph-name="uni0328.narrow" 
d="M-146 -192q-19 19 -19 53q0 27 8.5 49.5t23 43.5t41.5 53l4 -7q-38 -46 -53.5 -75.5t-15.5 -63.5q0 -31 16.5 -47.5t46.5 -16.5q22 0 44 11v-9q-23 -10 -44 -10q-33 0 -52 19z" />
    <glyph glyph-name="uni0338.ss04" 
d="M-129 426l67 69l5 -6l-67 -69zM-556 -17l67 69l5 -6l-66 -68z" />
    <glyph glyph-name="uni0338.case.ss04" 
d="M-169 627l110 109l6 -6l-111 -110zM-825 -25l111 110l4 -7l-110 -109z" />
    </font>
</defs>
</svg>
