<?xml version="1.0" standalone="no"?>
<!DOCTYPE svg PUBLIC "-//W3C//DTD SVG 1.1//EN" "http://www.w3.org/Graphics/SVG/1.1/DTD/svg11.dtd" >
<svg xmlns="http://www.w3.org/2000/svg" xmlns:xlink="http://www.w3.org/1999/xlink" version="1.1">
<metadata>
Created by FontForge 20170731 at Mon Apr  9 23:07:47 2018
 By Aleksey,,,
Copyright (c) 2018 Monotype Imaging Inc. All rights reserved.
</metadata>
<defs>
<font id="NeuePlak-ExtendedLight" horiz-adv-x="0" >
  <font-face 
    font-family="Neue Plak Extended Light"
    font-weight="400"
    font-stretch="expanded"
    units-per-em="1000"
    panose-1="2 11 4 5 3 2 2 2 2 4"
    ascent="767"
    descent="-233"
    x-height="480"
    cap-height="706"
    bbox="-833 -222 1220 1122"
    underline-thickness="50"
    underline-position="-200"
    unicode-range="U+000D-FEFF"
  />
<missing-glyph horiz-adv-x="725" 
d="M71 706h583v-706h-583v706zM597 52v602h-469v-602h469z" />
    <glyph glyph-name=".notdef" horiz-adv-x="725" 
d="M71 706h583v-706h-583v706zM597 52v602h-469v-602h469z" />
    <glyph glyph-name=".null" 
 />
    <glyph glyph-name="nonmarkingreturn" horiz-adv-x="333" 
 />
    <glyph glyph-name="NULL" 
 />
    <glyph glyph-name="NULL" 
 />
    <glyph glyph-name="CR" unicode="&#xd;" horiz-adv-x="205" 
 />
    <glyph glyph-name="space" unicode=" " horiz-adv-x="205" 
 />
    <glyph glyph-name="exclam" unicode="!" horiz-adv-x="284" 
d="M113 706h59l-7 -525h-46zM111.5 -0.5q-11.5 11.5 -11.5 30.5t11.5 30.5t30.5 11.5t30.5 -11.5t11.5 -30.5t-11.5 -30.5t-30.5 -11.5t-30.5 11.5z" />
    <glyph glyph-name="quotedbl" unicode="&#x22;" horiz-adv-x="383" 
d="M89 706h54l-5 -290h-43zM240 706h54l-5 -290h-43z" />
    <glyph glyph-name="numbersign" unicode="#" horiz-adv-x="812" 
d="M612 457l-42 -207h165l-11 -49h-164l-44 -217h-54l44 217h-265l-44 -217h-53l44 217h-163l11 49h162l41 207h-161l11 49h160l44 216h54l-44 -216h265l44 216h54l-44 -216h165l-10 -49h-165zM558 457h-265l-42 -207h265z" />
    <glyph glyph-name="dollar" unicode="$" horiz-adv-x="735" 
d="M683 185q0 -44 -15 -77q-27 -60 -98.5 -91t-179.5 -33v-97h-44v98q-105 4 -174 40.5t-98 101.5q-22 48 -22 115h59q0 -54 18 -93q23 -52 78 -81t139 -33v304q-71 12 -121 25.5t-88 38t-55 62.5q-13 29 -13 65q0 39 15 69q25 57 94 89t168 34v97h44v-98q92 -5 155.5 -40
t91.5 -96q21 -45 21 -106h-58q0 46 -16 84q-22 48 -71.5 76t-122.5 33v-286l11 -2q75 -13 125 -27t88 -38t55 -62q14 -33 14 -72zM180 443.5q30 -18.5 69.5 -29.5t96.5 -21v280q-81 -1 -135.5 -26t-72.5 -67q-9 -21 -9 -44q0 -26 9 -46q12 -28 42 -46.5zM624 180
q0 30 -10 51q-14 30 -46 49t-73.5 30t-104.5 22v-298q89 2 146.5 25.5t76.5 68.5q11 21 11 52z" />
    <glyph glyph-name="percent" unicode="%" horiz-adv-x="777" 
d="M97.5 429.5q-37.5 20.5 -53.5 57.5q-15 31 -15 74t15 73q16 37 53.5 58t93.5 21t93 -21t54 -58q14 -31 14 -73t-14 -74q-17 -37 -54 -57.5t-93 -20.5t-93.5 20.5zM648 706h57l-575 -706h-58zM295 504q11 22 11 57t-11 57q-23 53 -104 53q-41 0 -67 -14t-38 -39
q-10 -23 -10 -57t10 -57q23 -53 105 -53q81 0 104 53zM493.5 14q-37.5 21 -54.5 58q-14 31 -14 73t14 74q17 37 54.5 57.5t93.5 20.5t93 -20.5t54 -57.5q14 -32 14 -74t-14 -73q-17 -37 -54.5 -58t-92.5 -21q-56 0 -93.5 21zM653 49q26 14 38 39q10 20 10 57q0 38 -10 57
q-12 26 -38 40t-66 14q-81 0 -105 -54q-10 -20 -10 -57t10 -57q12 -25 38 -39t67 -14q40 0 66 14z" />
    <glyph glyph-name="ampersand" unicode="&#x26;" horiz-adv-x="779" 
d="M749 0q-53 0 -97 15t-89 51q-47 -40 -106 -60t-139 -20q-82 0 -142.5 21t-93 62t-32.5 99q0 51 25.5 91t66.5 68.5t99 56.5q-52 57 -74.5 100.5t-22.5 86.5q0 71 55 111t158 40q62 0 109 -16t73 -47.5t26 -75.5q0 -51 -33 -89t-79 -63t-129 -61q13 -12 23 -22.5t17 -17.5
l184 -182l13 -13q30 34 55 79t56 111l47 -21q-33 -69 -60.5 -117t-59.5 -85q38 -29 73.5 -41t76.5 -12v-49zM220 498.5q22 -38.5 70 -91.5q82 36 122 56.5t70 50.5t30 69q0 29 -18 51t-52.5 34t-81.5 12q-77 0 -119.5 -28t-42.5 -80q0 -35 22 -73.5zM436 51q49 16 88 48
l-13 13l-194 193l-42 43q-52 -24 -88 -48t-57.5 -56t-21.5 -72q0 -43 26.5 -74t74.5 -47t114 -16q64 0 113 16z" />
    <glyph glyph-name="quotesingle" unicode="'" horiz-adv-x="232" 
d="M89 706h54l-5 -290h-43z" />
    <glyph glyph-name="parenleft" unicode="(" horiz-adv-x="361" 
d="M149 24q-42 118 -42 258t41.5 258t122.5 227h57q-83 -106 -126 -226t-43 -259t43 -259t126 -226h-57q-80 109 -122 227z" />
    <glyph glyph-name="parenright" unicode=")" horiz-adv-x="361" 
d="M33 -203q83 106 126 226t43 259t-43 259t-126 226h57q81 -109 122.5 -227t41.5 -258t-42 -258t-122 -227h-57z" />
    <glyph glyph-name="asterisk" unicode="*" horiz-adv-x="397" 
d="M79 411l90 115l-140 39l14 45l137 -50l-5 146h47l-5 -146l137 50l14 -45l-140 -39l90 -115l-38 -28l-82 121l-81 -121z" />
    <glyph glyph-name="plus" unicode="+" horiz-adv-x="610" 
d="M552 252h-222v-212h-51v212h-221v49h221v212h51v-212h222v-49z" />
    <glyph glyph-name="comma" unicode="," horiz-adv-x="290" 
d="M145 157h53l-83 -328h-44z" />
    <glyph glyph-name="hyphen" unicode="-" horiz-adv-x="445" 
d="M58 303h329v-53h-329v53z" />
    <glyph glyph-name="period" unicode="." horiz-adv-x="275" 
d="M106.5 -0.5q-11.5 11.5 -11.5 30.5t11.5 30.5t30.5 11.5t30.5 -11.5t11.5 -30.5t-11.5 -30.5t-30.5 -11.5t-30.5 11.5z" />
    <glyph glyph-name="slash" unicode="/" horiz-adv-x="516" 
d="M423 722h57l-387 -772h-57z" />
    <glyph glyph-name="zero" unicode="0" horiz-adv-x="760" 
d="M197.5 29q-73.5 45 -109.5 126t-36 198t36 198t109.5 126t182.5 45q108 0 181.5 -45t109.5 -126q37 -80 37 -198t-37 -198q-36 -81 -109.5 -126t-181.5 -45q-109 0 -182.5 45zM528 72.5q59 36.5 89 103.5q32 71 32 177q0 107 -32 178q-30 66 -89 102.5t-148 36.5
t-148.5 -36.5t-89.5 -102.5q-31 -69 -31 -178q0 -108 31 -177q29 -67 88.5 -103.5t149.5 -36.5q89 0 148 36.5z" />
    <glyph glyph-name="one" unicode="1" horiz-adv-x="338" 
d="M187 654h-162l12 52h206v-706h-56v654z" />
    <glyph glyph-name="two" unicode="2" horiz-adv-x="631" 
d="M38 4l330 284q56 47 87.5 82t45.5 66.5t14 67.5q0 38 -14 71q-20 45 -67.5 70t-117.5 25q-75 0 -124 -28.5t-72 -79.5q-18 -42 -18 -96h-57q0 68 24 120q29 64 92 100t156 36q89 0 150 -33t89 -93q18 -43 18 -91q0 -43 -14 -79t-46 -72.5t-87 -83.5q-114 -99 -258 -219
h415v-51h-546v4z" />
    <glyph glyph-name="three" unicode="3" horiz-adv-x="673" 
d="M618 195q0 -49 -18 -88q-27 -59 -93.5 -91t-168.5 -32q-105 0 -172.5 34.5t-97.5 102.5q-26 58 -26 145h56q0 -73 22 -121q24 -55 77 -82.5t140 -27.5q81 0 134.5 24.5t73.5 71.5q14 30 14 66q0 32 -12 61q-23 48 -83.5 69.5t-158.5 21.5h-32v51h33q186 0 223 84
q10 21 10 50q0 30 -11 54q-18 42 -66.5 63t-122.5 21q-165 0 -210 -100q-17 -40 -17 -93h-56q0 66 21 112q29 64 96 97.5t168 33.5q92 0 154.5 -29t86.5 -82q15 -34 15 -75q0 -35 -13 -66q-17 -36 -51.5 -59.5t-90.5 -35.5q125 -20 160 -102q16 -33 16 -78z" />
    <glyph glyph-name="four" unicode="4" horiz-adv-x="655" 
d="M641 196h-121v-196h-57v196h-458v3l411 507h104v-460h121v-50zM463 246v435h-1l-352 -435h353z" />
    <glyph glyph-name="five" unicode="5" horiz-adv-x="647" 
d="M164.5 16.5q-61.5 32.5 -89.5 95.5q-24 51 -24 128h56q0 -59 20 -104q45 -101 194 -101q77 0 128 26.5t73 76.5q16 33 16 79t-16 83q-24 53 -83.5 80t-149.5 27q-108 0 -211 -35l64 334h410l-12 -51h-353l-43 -221q80 23 159 23q99 0 171 -33.5t102 -102.5
q21 -45 21 -101q0 -57 -21 -104q-28 -63 -93.5 -97.5t-161.5 -34.5q-95 0 -156.5 32.5z" />
    <glyph glyph-name="six" unicode="6" horiz-adv-x="699" 
d="M649 227q0 -54 -21 -99q-30 -67 -98 -105.5t-163 -38.5q-105 0 -174.5 42t-104.5 121q-36 81 -36 201q0 128 38 211q35 78 103 120.5t170 42.5q64 0 116 -18.5t87 -53.5q52 -53 65 -134h-57q-12 59 -49 96q-57 59 -163 59q-83 0 -138 -36t-84 -101q-32 -71 -32 -181
q0 -19 2 -53l9 24q29 63 95 100.5t160 37.5q93 0 159.5 -36.5t95.5 -100.5q20 -45 20 -98zM590 226q0 43 -15 77q-23 51 -76.5 80t-130.5 29q-81 0 -136.5 -31t-78.5 -83q-16 -35 -16 -77q0 -38 15 -71q23 -53 79 -84t136 -31q76 0 130 30.5t77 82.5q16 35 16 78z" />
    <glyph glyph-name="seven" unicode="7" horiz-adv-x="562" 
d="M462 654h-442v52h533l-381 -706h-66z" />
    <glyph glyph-name="eight" unicode="8" horiz-adv-x="703" 
d="M648 190q0 -42 -16 -77q-28 -62 -100.5 -95.5t-179.5 -33.5q-108 0 -180.5 33.5t-100.5 95.5q-16 35 -16 77q0 40 16 77q19 42 60 70t101 39q-51 11 -85.5 36t-50.5 60q-14 29 -14 68t14 68q24 54 90 84t166 30q99 0 164.5 -29.5t90.5 -84.5q14 -29 14 -68t-14 -68
q-16 -35 -50.5 -60t-84.5 -36q59 -11 100 -38.5t60 -69.5q16 -38 16 -78zM223.5 420q54.5 -22 128.5 -22q73 0 127.5 22t74.5 66q10 23 10 52q0 28 -10 48q-19 43 -73.5 65.5t-128.5 22.5q-75 0 -129.5 -22.5t-73.5 -65.5q-10 -20 -10 -48q0 -29 10 -52q20 -44 74.5 -66z
M588 191q0 32 -11 59q-21 47 -80.5 72.5t-144.5 25.5q-86 0 -145 -25.5t-81 -72.5q-11 -23 -11 -58q0 -30 11 -58q21 -48 81 -73.5t144 -25.5t144.5 25.5t81.5 74.5q11 27 11 56z" />
    <glyph glyph-name="nine" unicode="9" horiz-adv-x="699" 
d="M647 358q0 -123 -38 -211q-35 -78 -103 -120t-170 -42q-64 0 -116 18.5t-87 53.5q-26 26 -42.5 60t-22.5 74h57q11 -59 49 -96q57 -59 163 -59q83 0 138 35.5t84 100.5q32 72 32 182q0 19 -2 55q-6 -18 -10 -26q-29 -63 -95 -100.5t-159 -37.5t-159.5 36.5t-95.5 100.5
q-20 45 -20 98q0 54 21 99q30 67 98.5 105.5t162.5 38.5q104 0 173.5 -42.5t104.5 -121.5q37 -78 37 -201zM561 486q0 37 -14 71q-23 52 -79 83t-136 31q-77 0 -130.5 -30t-76.5 -82q-16 -35 -16 -78q0 -42 15 -77q23 -51 76.5 -80t130.5 -29q81 0 136.5 31t78.5 83
q15 36 15 77z" />
    <glyph glyph-name="colon" unicode=":" horiz-adv-x="275" 
d="M106.5 -0.5q-11.5 11.5 -11.5 30.5t11.5 30.5t30.5 11.5t30.5 -11.5t11.5 -30.5t-11.5 -30.5t-30.5 -11.5t-30.5 11.5zM106.5 378.5q-11.5 11.5 -11.5 30.5t11.5 30.5t30.5 11.5t30.5 -11.5t11.5 -30.5t-11.5 -30.5t-30.5 -11.5t-30.5 11.5z" />
    <glyph glyph-name="semicolon" unicode=";" horiz-adv-x="316" 
d="M145 157h53l-83 -328h-44zM148.5 378.5q-11.5 11.5 -11.5 30.5t11.5 30.5t30.5 11.5t30.5 -11.5t11.5 -30.5t-11.5 -30.5t-30.5 -11.5t-30.5 11.5z" />
    <glyph glyph-name="less" unicode="&#x3c;" horiz-adv-x="610" 
d="M551 437l-450 -160l450 -161v-52l-494 178v68l494 178v-51z" />
    <glyph glyph-name="equal" unicode="=" horiz-adv-x="610" 
d="M58 406h494v-49h-494v49zM58 196h494v-49h-494v49z" />
    <glyph glyph-name="greater" unicode="&#x3e;" horiz-adv-x="610" 
d="M552 310v-68l-494 -178v52l450 161l-450 160v51z" />
    <glyph glyph-name="question" unicode="?" horiz-adv-x="585" 
d="M399.5 371.5q46.5 65.5 62 101.5t15.5 71q0 60 -43.5 95t-138.5 35q-137 0 -174 -83q-7 -17 -10.5 -36.5t-3.5 -45.5h-56q0 31 4.5 55.5t14.5 45.5q24 54 81 83t145 29q119 0 178.5 -48t59.5 -130q0 -38 -15 -76t-58.5 -101t-138.5 -186h-67q98 125 144.5 190.5z
M253.5 -0.5q-11.5 11.5 -11.5 30.5t11.5 30.5t30.5 11.5t31 -11.5t12 -30.5t-12 -30.5t-31 -11.5t-30.5 11.5z" />
    <glyph glyph-name="at" unicode="@" horiz-adv-x="936" 
d="M890 321q0 -79 -26 -135q-25 -56 -76 -87t-128 -31h-39v82q-27 -41 -77.5 -63.5t-121.5 -22.5q-64 0 -105 19t-57 54q-10 23 -10 51q0 29 10 50q18 41 71.5 60t140.5 19h149v3q0 45 -11 71q-14 30 -48.5 44t-92.5 14q-59 0 -94 -13.5t-48 -41.5q-8 -20 -9 -41h-49
q0 33 12 58q18 41 66 61t122 20q76 0 121.5 -21t64.5 -64q16 -33 16 -97v-203q60 1 98.5 27t58.5 70q21 48 21 116q0 80 -28 140q-38 85 -128 132t-222 47q-134 0 -223 -49t-128 -137q-33 -70 -33 -169q0 -97 33 -167q42 -94 137.5 -146t236.5 -52q43 0 91 5v-36
q-44 -6 -91 -6q-155 0 -259.5 58t-151.5 161q-36 78 -36 182q0 103 36 184q45 99 143.5 154.5t245.5 55.5q145 0 244.5 -53.5t142.5 -148.5q31 -71 31 -154zM607 189q14 32 14 83v4h-148q-71 0 -111.5 -12t-53.5 -40q-7 -14 -7 -34q0 -19 7 -34q12 -25 43 -37t82 -12
q138 0 174 82z" />
    <glyph glyph-name="A" unicode="A" horiz-adv-x="720" 
d="M562 211h-404l-93 -211h-62l316 706h82l317 -706h-62zM540 262l-179 402h-2l-178 -402h359z" />
    <glyph glyph-name="B" unicode="B" horiz-adv-x="673" 
d="M623 188q0 -46 -15 -81q-49 -107 -237 -107h-292v706h279q85 0 140 -26.5t77 -76.5q15 -33 15 -76q0 -46 -15 -79q-14 -30 -41 -51.5t-67 -31.5q105 -19 140 -94q16 -35 16 -83zM136 384h210q69 0 112.5 20t61.5 58q12 27 12 61q0 31 -11 56q-35 77 -178 77h-207v-272z
M563 190q0 36 -12 63q-36 81 -185 81h-230v-284h227q76 0 123 19.5t65 59.5q12 26 12 61z" />
    <glyph glyph-name="C" unicode="C" horiz-adv-x="844" 
d="M211 35.5q-89 51.5 -130 141.5q-34 74 -34 176q0 101 34 176q40 90 130 141.5t224 51.5q86 0 157 -23t120 -67q39 -36 61 -84t25 -106h-59q-9 95 -72 152q-40 37 -99.5 55.5t-132.5 18.5q-115 0 -190 -42.5t-109 -117.5q-29 -65 -29 -155q0 -91 29 -155q34 -76 109 -118
t190 -42q75 0 135 18.5t100 55.5q31 28 49.5 68t21.5 90h59q-6 -125 -87 -198q-48 -44 -119 -66t-159 -22q-135 0 -224 51.5z" />
    <glyph glyph-name="D" unicode="D" horiz-adv-x="786" 
d="M79 706h284q127 0 215.5 -46.5t128.5 -136.5q33 -70 33 -170q0 -99 -33 -170q-40 -90 -128.5 -136.5t-215.5 -46.5h-284v706zM359 52q110 0 184.5 38t108.5 113q27 62 27 150q0 89 -27 150q-34 75 -108.5 113t-184.5 38h-223v-602h223z" />
    <glyph glyph-name="E" unicode="E" horiz-adv-x="609" 
d="M79 706h481v-51h-424v-271h421v-52h-421v-281h424v-51h-481v706z" />
    <glyph glyph-name="F" unicode="F" horiz-adv-x="511" 
d="M79 706h394v-52h-337v-271h335v-51h-335v-332h-57v706z" />
    <glyph glyph-name="G" unicode="G" horiz-adv-x="861" 
d="M814 363v-22q0 -98 -33 -173q-41 -89 -129 -136.5t-216 -47.5q-133 0 -224 51t-132 143q-33 73 -33 175t33 175q42 93 133.5 143.5t227.5 50.5q87 0 157 -21.5t119 -65.5q37 -34 60 -80.5t28 -102.5h-60q-12 92 -70 144q-39 36 -99.5 54t-134.5 18q-116 0 -193 -42
t-112 -118q-29 -64 -29 -155q0 -88 29 -155q34 -76 111 -118t191 -42q107 0 183.5 38.5t109.5 112.5q24 53 25 122h-281v52h339z" />
    <glyph glyph-name="H" unicode="H" horiz-adv-x="741" 
d="M79 706h57v-322h469v322h57v-706h-57v332h-469v-332h-57v706z" />
    <glyph glyph-name="I" unicode="I" horiz-adv-x="215" 
d="M79 706h57v-706h-57v706z" />
    <glyph glyph-name="J" unicode="J" horiz-adv-x="346" 
d="M11 0v52q24 -4 57 -4q53 0 84.5 15.5t46.5 49t15 89.5v504h57v-512q0 -104 -46.5 -151.5t-149.5 -47.5q-31 0 -64 5z" />
    <glyph glyph-name="K" unicode="K" horiz-adv-x="608" 
d="M525 0l-389 370v-370h-57v706h57v-303l342 303h77l-359 -318l406 -388h-77z" />
    <glyph glyph-name="L" unicode="L" horiz-adv-x="452" 
d="M79 706h57v-654h304v-52h-361v706z" />
    <glyph glyph-name="M" unicode="M" horiz-adv-x="932" 
d="M79 706h77l310 -619l310 619h76v-706h-55v632l-317 -632h-29l-316 632v-632h-56v706z" />
    <glyph glyph-name="N" unicode="N" horiz-adv-x="771" 
d="M79 706h72l485 -637v637h56v-706h-72l-484 636v-636h-57v706z" />
    <glyph glyph-name="O" unicode="O" horiz-adv-x="871" 
d="M213.5 34q-88.5 50 -129.5 137q-37 75 -37 182q0 102 34 177q41 90 130 141t224 51q136 0 225 -51t130 -141q34 -77 34 -177q0 -101 -35 -178q-41 -90 -130 -140.5t-224 -50.5q-133 0 -221.5 50zM625 80.5q75 42.5 109 117.5q30 66 30 155t-30 155q-34 75 -109 117.5
t-190 42.5t-190 -42.5t-109 -117.5q-29 -67 -29 -155t29 -155q34 -75 109 -117.5t190 -42.5t190 42.5z" />
    <glyph glyph-name="P" unicode="P" horiz-adv-x="646" 
d="M79 706h295q179 0 225 -102q17 -37 17 -87q0 -52 -17 -87q-23 -52 -79 -77t-146 -25h-238v-328h-57v706zM369 379q73 0 116 17.5t60 55.5q12 27 12 64q0 38 -12 66q-18 38 -61 55.5t-115 17.5h-233v-276h233z" />
    <glyph glyph-name="Q" unicode="Q" horiz-adv-x="871" 
d="M824 353q0 -101 -35 -178q-28 -61 -79 -105t-124 -66l104 -141l-45 -33l-116 161q-51 -7 -94 -7q-133 0 -221.5 50t-129.5 137q-37 75 -37 182q0 102 34 177q41 90 130 141t224 51q136 0 225 -51t130 -141q34 -77 34 -177zM764 353q0 89 -30 155q-34 75 -109 117.5
t-190 42.5t-190 -42.5t-109 -117.5q-29 -67 -29 -155t29 -155q34 -75 109 -117.5t190 -42.5q31 0 59 3l-64 89l43 29l79 -107q67 18 112.5 55.5t69.5 90.5q30 66 30 155z" />
    <glyph glyph-name="R" unicode="R" horiz-adv-x="686" 
d="M284 328h-148v-328h-57v706h316q180 0 226 -103q17 -39 17 -85q0 -47 -17 -87q-46 -103 -223 -103h-39l324 -328h-78zM136 379h253q74 0 117.5 18.5t60.5 56.5q12 27 12 63q0 37 -12 64q-17 38 -61 56t-117 18h-253v-276z" />
    <glyph glyph-name="S" unicode="S" horiz-adv-x="727" 
d="M177 20.5q-77 36.5 -108 105.5q-22 48 -22 116h60q0 -55 17 -93q26 -56 89 -85t163 -29q92 0 152 25.5t80 71.5q11 22 11 51q0 26 -10 49q-15 32 -51.5 52t-83 30.5t-123.5 23.5q-75 13 -125.5 26.5t-89.5 36.5t-56 60q-12 27 -12 63q0 38 15 71q17 38 55 67t93 44.5
t122 15.5q105 0 175 -35.5t100 -100.5q20 -46 20 -107h-58q-2 49 -17 86q-23 51 -79 78.5t-141 27.5q-83 0 -140 -26t-76 -70q-9 -22 -9 -46q0 -27 8 -43q13 -29 47.5 -47.5t77 -28t121.5 -23.5q80 -14 132 -27.5t93 -38.5t59 -65q14 -31 14 -69q0 -41 -16 -76
q-28 -61 -102.5 -94t-186.5 -33q-121 0 -198 36.5z" />
    <glyph glyph-name="T" unicode="T" horiz-adv-x="548" 
d="M246 654h-235v52h526v-52h-234v-654h-57v654z" />
    <glyph glyph-name="U" unicode="U" horiz-adv-x="723" 
d="M143 51q-71 67 -71 204v451h57v-449q0 -76 24.5 -124.5t75.5 -71.5t132 -23t132 23t75.5 71.5t24.5 124.5v449h57v-451q0 -138 -71 -204.5t-218 -66.5t-218 67z" />
    <glyph glyph-name="V" unicode="V" horiz-adv-x="714" 
d="M711 706l-322 -706h-63l-323 706h62l292 -647l292 647h62z" />
    <glyph glyph-name="W" unicode="W" horiz-adv-x="1064" 
d="M1061 706l-250 -706h-61l-218 637l-218 -637h-60l-251 706h59l223 -630l215 630h64l215 -630l223 630h59z" />
    <glyph glyph-name="X" unicode="X" horiz-adv-x="755" 
d="M340 372l-300 334h73l265 -294l264 294h74l-301 -334l334 -372h-74l-297 332l-298 -332h-75z" />
    <glyph glyph-name="Y" unicode="Y" horiz-adv-x="653" 
d="M299 304l-296 402h70l254 -348l254 348h70l-295 -402v-304h-57v304z" />
    <glyph glyph-name="Z" unicode="Z" horiz-adv-x="677" 
d="M529 654h-491v52h601l-509 -654h522v-52h-633z" />
    <glyph glyph-name="bracketleft" unicode="[" horiz-adv-x="369" 
d="M135 767h205v-44h-155v-882h155v-44h-205v970z" />
    <glyph glyph-name="backslash" unicode="\" horiz-adv-x="516" 
d="M423 -50l-387 772h57l387 -772h-57z" />
    <glyph glyph-name="bracketright" unicode="]" horiz-adv-x="369" 
d="M29 -203v44h156v882h-156v44h206v-970h-206z" />
    <glyph glyph-name="asciicircum" unicode="^" horiz-adv-x="490" 
d="M400 361l-154 305l-155 -305h-58l177 345h70l177 -345h-57z" />
    <glyph glyph-name="underscore" unicode="_" horiz-adv-x="534" 
d="M0 -98h534v-50h-534v50z" />
    <glyph glyph-name="grave" unicode="`" horiz-adv-x="286" 
d="M175 552l-125 158h66l120 -158h-61z" />
    <glyph glyph-name="a" unicode="a" horiz-adv-x="599" 
d="M533 285v-285h-54v92q-30 -51 -88.5 -78.5t-145.5 -27.5q-71 0 -119.5 20.5t-67.5 63.5q-12 26 -12 60q0 32 12 56q23 52 90 71.5t172 19.5h159v12q0 47 -14 81q-34 76 -168 76q-64 0 -106.5 -17.5t-58.5 -53.5q-10 -20 -10 -47h-54q0 36 15 69q21 49 75 73t138 24
q87 0 140.5 -25.5t76.5 -78.5q20 -43 20 -105zM384.5 60q53.5 26 76.5 77q18 39 18 90v6h-158q-85 0 -139.5 -14.5t-71.5 -51.5q-8 -16 -8 -35q0 -20 8 -38q14 -31 51.5 -45.5t92.5 -14.5q77 0 130.5 26z" />
    <glyph glyph-name="b" unicode="b" horiz-adv-x="650" 
d="M614 240q0 -64 -23 -118q-29 -64 -93 -99.5t-150 -35.5q-76 0 -134.5 27.5t-89.5 80.5v-95h-53v706h54v-320q32 53 90 80.5t133 27.5q87 0 150.5 -35.5t92.5 -100.5q23 -52 23 -118zM557 240q0 58 -19 97q-23 52 -75 79.5t-123 27.5q-62 0 -110.5 -22t-76.5 -66.5
t-28 -108.5v-14q0 -64 28 -108.5t76.5 -66.5t110.5 -22q71 0 123 27.5t75 79.5q19 41 19 97z" />
    <glyph glyph-name="c" unicode="c" horiz-adv-x="602" 
d="M152.5 23q-64.5 36 -93.5 100q-23 52 -23 117q0 66 23 117q30 65 94 101t155 36q61 0 111 -16.5t85 -48.5q56 -51 60 -127h-57q-3 28 -14.5 52t-30.5 41q-27 25 -66.5 37.5t-87.5 12.5q-73 0 -123 -28.5t-73 -79.5q-19 -42 -19 -97t19 -96q23 -51 73.5 -79.5t122.5 -28.5
q49 0 88.5 12.5t65.5 36.5q42 37 45 95h58q-4 -78 -59 -129q-35 -31 -85.5 -47.5t-112.5 -16.5q-91 0 -155.5 36z" />
    <glyph glyph-name="d" unicode="d" horiz-adv-x="650" 
d="M579 706v-706h-53v95q-31 -53 -89.5 -80.5t-134.5 -27.5q-86 0 -149.5 35.5t-92.5 99.5q-24 53 -24 118q0 67 24 118q29 65 92.5 100.5t149.5 35.5q75 0 133 -27t90 -80v319h54zM421 58q49 22 77 66.5t28 108.5v14q0 64 -28 108.5t-77 66.5t-111 22q-71 0 -122.5 -27.5
t-75.5 -79.5q-19 -43 -19 -97q0 -53 19 -97q24 -52 75.5 -79.5t122.5 -27.5q62 0 111 22z" />
    <glyph glyph-name="e" unicode="e" horiz-adv-x="626" 
d="M517 124.5q11 21.5 15 47.5h55q-10 -73 -61 -119q-36 -33 -89.5 -49.5t-118.5 -16.5q-96 0 -162.5 36.5t-96.5 101.5q-23 51 -23 115q0 66 24 117q29 65 95 101t159 36t158 -36t93 -100q24 -55 24 -126h-498q1 -49 18 -90q24 -51 77.5 -79.5t132.5 -28.5q52 0 96 13.5
t73 39.5q18 16 29 37.5zM93 276h441q-3 32 -16 65q-23 50 -75.5 77.5t-128.5 27.5q-78 0 -129.5 -28t-74.5 -80q-12 -26 -17 -62z" />
    <glyph glyph-name="f" unicode="f" horiz-adv-x="370" 
d="M121 433h-98v47h98v73q0 83 39.5 123t121.5 40q36 0 63 -8v-48q-28 7 -59 7q-111 0 -111 -117v-70h169v-47h-169v-433h-54v433z" />
    <glyph glyph-name="g" unicode="g" horiz-adv-x="649" 
d="M578 480v-460q0 -66 -22 -116q-27 -61 -88 -91t-152 -30q-66 0 -119 15.5t-88 46.5q-51 46 -52 121h57q0 -54 38 -87q26 -24 68 -36t95 -12q149 0 192 94q16 36 16 90v82q-31 -53 -89 -80.5t-133 -27.5q-86 0 -149 35t-92 99q-24 51 -24 118t24 118q29 65 92 100t149 35
q76 0 134 -28.5t89 -83.5v98h54zM418.5 60q48.5 22 76.5 66.5t28 107.5v14q0 64 -28 108t-76.5 66t-109.5 22q-71 0 -122.5 -27.5t-74.5 -78.5q-19 -43 -19 -97q0 -53 19 -96q23 -52 74.5 -79.5t122.5 -27.5q61 0 109.5 22z" />
    <glyph glyph-name="h" unicode="h" horiz-adv-x="610" 
d="M488.5 437q55.5 -57 55.5 -169v-268h-54v261q0 92 -43.5 137.5t-128.5 45.5q-93 0 -143 -51t-50 -145v-248h-54v706h54v-321q28 55 79.5 82t122.5 27q106 0 161.5 -57z" />
    <glyph glyph-name="i" unicode="i" horiz-adv-x="196" 
d="M67.5 604q-11.5 11 -11.5 29t12 29.5t30 11.5t30 -12t12 -29q0 -18 -12 -29t-30 -11q-19 0 -30.5 11zM71 480h54v-480h-54v480z" />
    <glyph glyph-name="j" unicode="j" horiz-adv-x="195" 
d="M66.5 604q-11.5 11 -11.5 29t12 29.5t30 11.5t30 -12t12 -29q0 -18 -12 -29t-30 -11q-19 0 -30.5 11zM-56 -205v50q22 -3 42 -3q44 0 64.5 21t20.5 68v549h53v-551q0 -71 -32 -103.5t-102 -32.5q-30 0 -46 2z" />
    <glyph glyph-name="k" unicode="k" horiz-adv-x="480" 
d="M408 0l-283 253v-253h-54v706h54v-421l253 195h80l-274 -211l302 -269h-78z" />
    <glyph glyph-name="l" unicode="l" horiz-adv-x="196" 
d="M71 706h54v-706h-54v706z" />
    <glyph glyph-name="m" unicode="m" horiz-adv-x="981" 
d="M862 436.5q53 -57.5 53 -168.5v-268h-54v262q0 91 -41 136.5t-120 45.5q-87 0 -133.5 -51t-46.5 -144v-249h-54v262q0 91 -41 136.5t-120 45.5q-87 0 -133.5 -51t-46.5 -144v-249h-54v480h54v-92q26 53 75 79.5t115 26.5q76 0 125 -33.5t68 -97.5q24 66 76 98.5t125 32.5
q100 0 153 -57.5z" />
    <glyph glyph-name="n" unicode="n" horiz-adv-x="610" 
d="M488.5 436.5q55.5 -57.5 55.5 -168.5v-268h-54v261q0 92 -43.5 137.5t-128.5 45.5q-93 0 -143 -51t-50 -145v-248h-54v480h54v-95q28 55 79.5 82t122.5 27q106 0 161.5 -57.5z" />
    <glyph glyph-name="o" unicode="o" horiz-adv-x="630" 
d="M154 23q-65 37 -94 102q-24 51 -24 115q0 63 24 115q29 65 94 102t161 37t161 -37t94 -102q24 -51 24 -115t-24 -115q-29 -65 -94 -102t-161 -37t-161 37zM443.5 64q51.5 29 74.5 80q19 42 19 96q0 55 -18 95q-23 51 -75.5 80.5t-128.5 29.5q-77 0 -129 -29t-74 -80
q-19 -41 -19 -96t19 -96q23 -51 74.5 -80t128.5 -29t128.5 29z" />
    <glyph glyph-name="p" unicode="p" horiz-adv-x="650" 
d="M614 240q0 -64 -23 -118q-29 -64 -93 -99.5t-150 -35.5q-76 0 -134 28t-89 82v-300h-54v683h53v-99q31 56 89.5 84.5t134.5 28.5q87 0 150.5 -35.5t92.5 -100.5q23 -52 23 -118zM557 240q0 58 -19 97q-23 52 -75 79.5t-123 27.5q-62 0 -110.5 -22t-76.5 -66.5t-28 -108.5
v-14q0 -64 28 -108.5t76.5 -66.5t110.5 -22q71 0 123 27.5t75 79.5q19 41 19 97z" />
    <glyph glyph-name="q" unicode="q" horiz-adv-x="650" 
d="M579 480v-683h-54v299q-31 -54 -89.5 -81.5t-133.5 -27.5q-86 0 -149.5 35.5t-92.5 99.5q-24 53 -24 118q0 67 24 118q29 65 92.5 100.5t149.5 35.5q76 0 134.5 -28.5t89.5 -83.5v98h53zM421 58q49 22 77 66.5t28 108.5v14q0 64 -28 108.5t-77 66.5t-111 22
q-71 0 -122.5 -27.5t-75.5 -79.5q-19 -43 -19 -97q0 -53 19 -97q24 -52 75.5 -79.5t122.5 -27.5q62 0 111 22z" />
    <glyph glyph-name="r" unicode="r" horiz-adv-x="355" 
d="M337 480v-51q-24 7 -60 7q-75 0 -113.5 -41t-38.5 -116v-279h-54v480h54v-75q20 39 58.5 60.5t95.5 21.5q34 0 58 -7z" />
    <glyph glyph-name="s" unicode="s" horiz-adv-x="521" 
d="M127.5 12q-52.5 26 -75.5 75q-14 35 -16 80h54q0 -32 12 -58q16 -37 57 -56.5t104 -19.5q64 0 104.5 16t54.5 46q7 14 7 34q0 16 -6 29q-9 21 -34 33t-54 17.5t-94 15.5q-72 12 -116 30t-60 56q-9 21 -9 47q0 30 10 51q18 40 67 63t120 23q77 0 127.5 -25.5t70.5 -70.5
q13 -29 13 -67h-53q0 28 -10 48q-15 33 -53.5 50.5t-95.5 17.5q-54 0 -88 -14.5t-46 -41.5q-6 -11 -6 -31q0 -18 5 -27q9 -20 33 -32t51.5 -17.5t83.5 -13.5q52 -8 88 -18t63.5 -27.5t39.5 -45.5q9 -21 9 -48q0 -31 -11 -54q-20 -44 -75 -67.5t-137 -23.5t-134.5 26z" />
    <glyph glyph-name="t" unicode="t" horiz-adv-x="392" 
d="M158 30.5q-38 40.5 -38 117.5v285h-96v47h96v120h54v-120h192v-47h-192v-280q0 -55 27 -84.5t79 -29.5q19 0 40 3t40 9v-49q-48 -12 -89 -12q-75 0 -113 40.5z" />
    <glyph glyph-name="u" unicode="u" horiz-adv-x="610" 
d="M539 480v-480h-53v95q-28 -55 -80 -82t-122 -27q-106 0 -162 57.5t-56 168.5v268h54v-261q0 -91 44 -137t129 -46q93 0 143 51.5t50 145.5v247h53z" />
    <glyph glyph-name="v" unicode="v" horiz-adv-x="549" 
d="M13 480h60l202 -422l201 422h60l-233 -480h-57z" />
    <glyph glyph-name="w" unicode="w" horiz-adv-x="834" 
d="M821 480l-199 -480h-57l-148 412l-148 -412h-56l-200 480h59l168 -418l150 418h55l149 -418l168 418h59z" />
    <glyph glyph-name="x" unicode="x" horiz-adv-x="529" 
d="M229 240l-226 240h71l190 -204l190 204h71l-225 -240l227 -240h-71l-192 204l-192 -204h-70z" />
    <glyph glyph-name="y" unicode="y" horiz-adv-x="560" 
d="M546 480l-249 -480l-106 -203h-59l111 212l-230 471h61l200 -415l212 415h60z" />
    <glyph glyph-name="z" unicode="z" horiz-adv-x="511" 
d="M492 48v-48h-481l371 433h-338v47h446l-369 -432h371z" />
    <glyph glyph-name="braceleft" unicode="{" horiz-adv-x="390" 
d="M208 341.5q-7 -26.5 -25 -41t-50 -18.5q33 -5 50.5 -19.5t24.5 -40.5t7 -71v-206q0 -51 24 -78t82 -27h40v-43h-55q-71 0 -105.5 36.5t-34.5 98.5v209q1 48 -7 72.5t-31.5 35t-72.5 10.5v46q50 0 73.5 10.5t31 34.5t6.5 73v209q0 62 34.5 98.5t105.5 36.5h55v-43h-40
q-58 0 -82 -27t-24 -78v-206q0 -45 -7 -71.5z" />
    <glyph glyph-name="bar" unicode="|" horiz-adv-x="336" 
d="M143 756h51v-959h-51v959z" />
    <glyph glyph-name="braceright" unicode="}" horiz-adv-x="390" 
d="M230.5 350q7.5 -24 31 -34.5t73.5 -10.5v-46q-49 0 -72.5 -10.5t-31.5 -35t-8 -72.5v-209q0 -62 -34.5 -98.5t-105.5 -36.5h-54v43h39q58 0 82.5 27t24.5 78v206q0 45 7 71t24.5 40.5t49.5 19.5q-32 4 -49.5 18.5t-24.5 41t-7 71.5v206q0 51 -24.5 78t-82.5 27h-39v43h54
q71 0 105.5 -36.5t34.5 -98.5v-209q0 -49 7.5 -73z" />
    <glyph glyph-name="asciitilde" unicode="~" horiz-adv-x="610" 
d="M366 195q-22 10 -38.5 24.5t-36.5 37.5q-20 22 -32.5 34.5t-28 20t-34.5 7.5q-75 0 -82 -132h-47q3 85 35 132.5t92 47.5q28 0 50 -10t38.5 -24.5t36.5 -37.5q19 -22 32 -34t28.5 -20t34.5 -8q75 0 82 132h46q-2 -85 -34 -132.5t-92 -47.5q-28 0 -50 10z" />
    <glyph glyph-name="uni00A0" unicode="&#xa0;" horiz-adv-x="205" 
 />
    <glyph glyph-name="exclamdown" unicode="&#xa1;" horiz-adv-x="284" 
d="M111.5 423q-11.5 11 -11.5 30t11.5 30.5t30.5 11.5t30.5 -11.5t11.5 -30.5t-11.5 -30t-30.5 -11t-30.5 11zM119 303h46l7 -506h-59z" />
    <glyph glyph-name="cent" unicode="&#xa2;" horiz-adv-x="604" 
d="M567 294q-3 -39 -18.5 -72t-41.5 -57q-33 -29 -78 -45.5t-99 -18.5v-101h-46v101q-82 4 -140 40t-85 96q-23 52 -23 117t23 117q27 60 85 95.5t140 39.5v100h46v-99q111 -6 175 -64q55 -51 61 -128h-58q-4 58 -45 95q-48 44 -134 48v-408q87 5 134 47q20 18 32 43t14 54
h58zM177.5 182q44.5 -28 107.5 -32v407q-64 -4 -108 -31.5t-65 -74.5q-19 -42 -19 -97q0 -56 19 -97q21 -47 65.5 -75z" />
    <glyph glyph-name="sterling" unicode="&#xa3;" horiz-adv-x="706" 
d="M663 254q-3 -89 -25 -138q-27 -59 -86 -87.5t-163 -28.5h-352v50h120v280h-120v44h120v66q0 52 6.5 91.5t21.5 71.5q27 59 83 89t148 30q87 0 139 -27t77 -82q24 -53 26 -142h-55q-2 38 -7 66.5t-15 50.5q-19 41 -59.5 62t-106.5 21q-71 0 -114 -23t-64 -69
q-12 -26 -17.5 -59.5t-5.5 -77.5v-68h248v-44h-248v-280h166q87 0 136 22t71 70q20 45 20 112h56z" />
    <glyph glyph-name="currency" unicode="&#xa4;" horiz-adv-x="630" 
d="M498 191l93 -92h-65l-65 65q-61 -36 -147 -36q-84 0 -146 35l-65 -64h-64l91 91q-29 27 -46 65q-20 45 -20 98t20 98q17 38 47 65l-92 92h64l65 -65q62 35 146 35q85 0 147 -35l65 65h65l-93 -93q28 -26 46 -64q20 -46 20 -98t-20 -97q-16 -35 -46 -65zM199.5 201
q46.5 -26 114.5 -26q69 0 115.5 26t67.5 73q15 35 15 79q0 45 -15 79q-21 47 -68 73t-115 26q-69 0 -115 -26t-68 -73q-15 -38 -15 -79q0 -44 15 -79q22 -47 68.5 -73z" />
    <glyph glyph-name="yen" unicode="&#xa5;" horiz-adv-x="650" 
d="M359 335h229v-43h-234v-61h234v-42h-234v-189h-58v189h-234v42h234v61h-234v43h228l-289 371h66l258 -331l259 331h65z" />
    <glyph glyph-name="brokenbar" unicode="&#xa6;" horiz-adv-x="336" 
d="M143 756h51v-329h-51v329zM143 127h51v-330h-51v330z" />
    <glyph glyph-name="section" unicode="&#xa7;" horiz-adv-x="537" 
d="M423.5 55.5q39.5 -22.5 55.5 -59.5q12 -24 12 -59q0 -31 -12 -62q-21 -45 -74.5 -68.5t-135.5 -23.5q-80 0 -132.5 25.5t-74.5 74.5q-15 33 -15 81h56q0 -34 11 -59q34 -75 157 -75q62 0 101 16t53 47q9 19 9 43q0 21 -9 43q-10 23 -32.5 38.5t-50.5 26t-81 26.5
q-57 17 -94 32t-66.5 37.5t-44.5 53.5q-13 31 -13 65t13 63q19 42 64.5 66t109.5 29q-62 18 -102.5 42t-57.5 61q-11 29 -11 55q0 33 12 58q19 43 68.5 65.5t121.5 22.5q77 0 129 -25.5t74 -72.5q14 -33 14 -70h-55q0 30 -10 51q-15 34 -54.5 53t-98.5 19q-53 0 -88.5 -15.5
t-48.5 -44.5q-8 -16 -8 -38t8 -40q10 -24 33.5 -40t48 -25.5t80.5 -27.5q54 -17 90.5 -32.5t64.5 -37.5t41 -52q13 -26 13 -65q0 -35 -13 -66q-18 -40 -61 -63.5t-102 -29.5q66 -20 105.5 -42.5zM167 154q44 -19 104 -19q61 0 103 18t58 54q9 21 9 48t-9 48q-17 37 -60.5 57
t-105.5 20q-60 0 -102.5 -19t-58.5 -54q-9 -21 -9 -47q0 -29 10 -49q17 -38 61 -57z" />
    <glyph glyph-name="dieresis" unicode="&#xa8;" horiz-adv-x="398" 
d="M61.5 603q-11.5 11 -11.5 29t11.5 29.5t30.5 11.5q17 0 29 -12t12 -29q0 -18 -11.5 -29t-29.5 -11q-19 0 -30.5 11zM276.5 603q-11.5 11 -11.5 29t11.5 29.5t30.5 11.5q17 0 29 -12t12 -29q0 -18 -11.5 -29t-29.5 -11q-19 0 -30.5 11z" />
    <glyph glyph-name="copyright" unicode="&#xa9;" horiz-adv-x="894" 
d="M217.5 38q-94.5 54 -137.5 149q-33 73 -33 166t33 165q28 63 79.5 109t124.5 70.5t163 24.5t163 -24.5t125 -70t80 -108.5q33 -73 33 -166t-33 -165q-43 -96 -138 -150t-230 -54t-229.5 54zM655.5 69q85.5 49 124.5 135q29 67 29 149q0 81 -29 150q-39 86 -125 134.5
t-207 48.5q-123 0 -209 -49t-125 -135q-28 -65 -28 -149q0 -85 29 -149q39 -86 124.5 -135t207.5 -49q123 0 208.5 49zM305 146q-59 33 -86 93q-22 49 -22 115q0 67 22 115q26 60 85.5 92.5t144.5 32.5q57 0 103.5 -15t78.5 -44q53 -50 56 -128h-48q-3 58 -42 96
q-25 24 -63.5 36t-84.5 12q-69 0 -117 -26.5t-69 -74.5q-18 -44 -18 -96q0 -53 19 -96q21 -49 68.5 -75.5t117.5 -26.5q48 0 86 12.5t63 37.5q19 19 29.5 41.5t11.5 51.5h49q-5 -80 -56 -127q-32 -30 -79 -44.5t-104 -14.5q-86 0 -145 33z" />
    <glyph glyph-name="ordfeminine" unicode="&#xaa;" horiz-adv-x="425" 
d="M378 568v-199h-45v61q-22 -35 -62 -53.5t-98 -18.5q-52 0 -85.5 15.5t-46.5 45.5q-9 22 -9 42q0 22 9 41q15 36 59.5 52t122.5 16h109v6q0 30 -10 51q-11 26 -38.5 38.5t-74.5 12.5q-87 0 -107 -45q-7 -14 -7 -34h-47q2 29 11 49q30 67 150 67q123 0 155 -73
q14 -29 14 -74zM332 535h-107q-61 0 -94.5 -11t-44.5 -33q-5 -11 -5 -27q0 -17 6 -29q10 -19 33 -28.5t61 -9.5q107 0 139 68q6 14 9 29t3 36v5z" />
    <glyph glyph-name="guillemotleft" unicode="&#xab;" horiz-adv-x="475" 
d="M24 274l174 160h70l-173 -160l173 -160h-70zM206 274l174 160h70l-173 -160l173 -160h-70z" />
    <glyph glyph-name="logicalnot" unicode="&#xac;" horiz-adv-x="610" 
d="M504 370h-446v48h494v-378h-48v330z" />
    <glyph glyph-name="uni00AD" unicode="&#xad;" horiz-adv-x="445" 
d="M58 303h329v-53h-329v53z" />
    <glyph glyph-name="registered" unicode="&#xae;" horiz-adv-x="505" 
d="M469 512q0 -52 -18 -93q-24 -53 -74.5 -82.5t-123.5 -29.5q-74 0 -124.5 29.5t-73.5 82.5q-19 39 -19 93t19 93q23 53 73.5 82.5t124.5 29.5q73 0 123.5 -29.5t74.5 -82.5q18 -40 18 -93zM439 512q0 46 -16 81q-20 45 -63 70t-107 25t-107 -25t-64 -70q-16 -35 -16 -81
t16 -81q21 -45 64 -70t107 -25t107 25t63 70q16 35 16 81zM352.5 524q-12.5 -15 -36.5 -20q24 -7 34.5 -23.5t10.5 -45.5v-49h-36v48q0 29 -16 41.5t-55 12.5h-73v-102h-36v252h115q54 0 79.5 -17.5t25.5 -55.5q0 -26 -12.5 -41zM310.5 530q18.5 10 18.5 34q0 22 -18 32
t-57 10h-73v-86h72q39 0 57.5 10z" />
    <glyph glyph-name="macron" unicode="&#xaf;" horiz-adv-x="430" 
d="M50 654h330v-47h-330v47z" />
    <glyph glyph-name="degree" unicode="&#xb0;" horiz-adv-x="335" 
d="M92.5 458.5q-32.5 17.5 -51 49.5t-18.5 73t18.5 73t51.5 50t75 18t74.5 -18t51 -50t18.5 -73t-18 -73t-51 -49.5t-75 -17.5q-43 0 -75.5 17.5zM217.5 498q21.5 12 33.5 33.5t12 49.5q0 29 -12 50.5t-33.5 33.5t-49.5 12q-43 0 -69 -26.5t-26 -69.5t26 -69t69 -26
q28 0 49.5 12z" />
    <glyph glyph-name="plusminus" unicode="&#xb1;" horiz-adv-x="610" 
d="M552 350v-48h-222v-185h-50v185h-222v48h222v182h50v-182h222zM58 70h494v-48h-494v48z" />
    <glyph glyph-name="twosuperior" unicode="&#xb2;" horiz-adv-x="402" 
d="M30 443l201 158q31 25 48.5 43t24.5 34.5t7 35.5q0 16 -7 33q-22 47 -101 47q-41 0 -68 -14.5t-39 -40.5q-9 -21 -9 -48h-50q0 19 3 34.5t10 31.5q17 38 57 58.5t97 20.5q55 0 93.5 -18t54.5 -53q10 -21 10 -50q0 -36 -18.5 -64.5t-64.5 -65.5l-134 -102h219v-45h-334v5z
" />
    <glyph glyph-name="threesuperior" unicode="&#xb3;" horiz-adv-x="427" 
d="M387 545q0 -25 -9 -46q-16 -35 -59.5 -53t-103.5 -18q-63 0 -107 21.5t-62 60.5q-13 29 -13 65h47q0 -26 9 -46q14 -29 46 -44.5t79 -15.5q45 0 75 12t41 36q6 14 6 31t-6 29q-11 25 -43.5 36t-86.5 11h-15v38h15q50 0 80 10t40 32q5 12 5 25q0 12 -5 24q-10 22 -37 33
t-68 11q-46 0 -76.5 -14t-42.5 -40q-7 -15 -7 -37h-46q0 31 10 52q17 38 60 58t104 20q56 0 95.5 -17t54.5 -49q7 -17 7 -39q0 -20 -6 -35q-18 -39 -77 -52q33 -6 55 -20.5t33 -36.5q8 -16 8 -42z" />
    <glyph glyph-name="acute" unicode="&#xb4;" horiz-adv-x="286" 
d="M170 710h66l-125 -158h-61z" />
    <glyph glyph-name="mu" unicode="&#xb5;" horiz-adv-x="615" 
d="M544 480v-480h-54v92q-28 -53 -79 -79.5t-120 -26.5q-60 0 -102.5 22.5t-66.5 65.5q3 -58 3 -119v-158h-54v683h54v-254q0 -95 44.5 -142.5t131.5 -47.5q91 0 140 51.5t49 145.5v247h54z" />
    <glyph glyph-name="paragraph" unicode="&#xb6;" horiz-adv-x="710" 
d="M366 300h-98q-87 0 -142.5 25.5t-79.5 79.5q-16 38 -16 98q0 62 17 100q24 53 79.5 78t143.5 25h428v-51h-87v-858h-54v858h-138v-858h-53v503z" />
    <glyph glyph-name="periodcentered" unicode="&#xb7;" horiz-adv-x="275" 
d="M106.5 245.5q-11.5 11.5 -11.5 30.5t11.5 30.5t30.5 11.5t30.5 -11.5t11.5 -30.5t-11.5 -30.5t-30.5 -11.5t-30.5 11.5z" />
    <glyph glyph-name="cedilla" unicode="&#xb8;" horiz-adv-x="311" 
d="M261 -131q0 -83 -121 -83q-48 0 -90 14l10 40q35 -13 78 -13q38 0 57.5 10t19.5 32q0 23 -20.5 34t-64.5 11h-54l40 93h49l-25 -57h3q118 0 118 -81z" />
    <glyph glyph-name="onesuperior" unicode="&#xb9;" horiz-adv-x="245" 
d="M120 782h-100l8 44h141v-388h-49v344z" />
    <glyph glyph-name="ordmasculine" unicode="&#xba;" horiz-adv-x="445" 
d="M109 384.5q-47 25.5 -67 71.5q-16 35 -16 81t16 81q20 46 67 71.5t114 25.5q66 0 113 -25.5t67 -71.5q17 -37 17 -81t-17 -81q-20 -46 -67 -71.5t-113 -25.5q-67 0 -114 25.5zM309 418.5q34 18.5 50 53.5q13 29 13 65q0 34 -13 65q-16 35 -50.5 53.5t-85.5 18.5
q-52 0 -86.5 -18.5t-50.5 -53.5q-12 -27 -12 -65q0 -39 13 -65q15 -35 49.5 -53.5t86.5 -18.5t86 18.5z" />
    <glyph glyph-name="guillemotright" unicode="&#xbb;" horiz-adv-x="475" 
d="M25 114l173 160l-173 160h70l174 -160l-174 -160h-70zM207 114l174 160l-174 160h70l174 -160l-174 -160h-70z" />
    <glyph glyph-name="onequarter" unicode="&#xbc;" horiz-adv-x="780" 
d="M120 662h-100l8 44h141v-388h-49v344zM567 706h55l-510 -706h-54zM649 101h-281v2l237 285h93v-244h71v-43h-71v-101h-49v101zM649 144v227l-191 -227h191z" />
    <glyph glyph-name="onehalf" unicode="&#xbd;" horiz-adv-x="827" 
d="M120 662h-100l8 44h141v-388h-49v344zM567 706h55l-510 -706h-54zM455 5l201 158q31 25 48.5 43t24.5 34.5t7 35.5q0 16 -7 33q-22 47 -101 47q-41 0 -68 -14.5t-39 -40.5q-9 -21 -9 -48h-50q0 19 3 34.5t10 31.5q17 38 57 58.5t97 20.5q55 0 93.5 -18t54.5 -53
q10 -21 10 -50q0 -36 -18.5 -64.5t-64.5 -65.5l-134 -102h219v-45h-334v5z" />
    <glyph glyph-name="threequarters" unicode="&#xbe;" horiz-adv-x="962" 
d="M387 425q0 -25 -9 -46q-16 -35 -59.5 -53t-103.5 -18q-63 0 -107 21.5t-62 60.5q-13 29 -13 65h47q0 -26 9 -46q14 -29 46 -44.5t79 -15.5q45 0 75 12t41 36q6 14 6 31t-6 29q-11 25 -43.5 36t-86.5 11h-15v38h15q50 0 80 10t40 32q5 12 5 25q0 12 -5 24q-10 22 -37 33
t-68 11q-46 0 -76.5 -14t-42.5 -40q-7 -15 -7 -37h-46q0 31 10 52q17 38 60 58t104 20q56 0 95.5 -17t54.5 -49q7 -17 7 -39q0 -20 -6 -35q-18 -39 -77 -52q33 -6 55 -20.5t33 -36.5q8 -16 8 -42zM748 706h55l-510 -706h-54zM831 101h-281v2l237 285h93v-244h71v-43h-71
v-101h-49v101zM831 144v227l-191 -227h191z" />
    <glyph glyph-name="questiondown" unicode="&#xbf;" horiz-adv-x="585" 
d="M270.5 427q-11.5 11 -11.5 30t11.5 30.5t30.5 11.5t30.5 -11.5t11.5 -30.5t-11.5 -30t-30.5 -11t-30.5 11zM110.5 -171q-59.5 45 -59.5 123q0 38 15 74t58.5 96.5t138.5 180.5h68q-99 -121 -145.5 -184t-62 -97.5t-15.5 -67.5q0 -56 43.5 -89t138.5 -33q69 0 112 21
t62 62q7 17 10.5 36t3.5 45h56q0 -31 -4.5 -55t-14.5 -46q-24 -54 -81 -82.5t-145 -28.5q-119 0 -178.5 45z" />
    <glyph glyph-name="Agrave" unicode="&#xc0;" horiz-adv-x="720" 
d="M562 211h-404l-93 -211h-62l316 706h82l317 -706h-62zM540 262l-179 402h-2l-178 -402h359zM374 765l-168 133h78l164 -133h-74z" />
    <glyph glyph-name="Aacute" unicode="&#xc1;" horiz-adv-x="720" 
d="M562 211h-404l-93 -211h-62l316 706h82l317 -706h-62zM540 262l-179 402h-2l-178 -402h359zM436 898h78l-168 -133h-74z" />
    <glyph glyph-name="Acircumflex" unicode="&#xc2;" horiz-adv-x="720" 
d="M562 211h-404l-93 -211h-62l316 706h82l317 -706h-62zM540 262l-179 402h-2l-178 -402h359zM324 898h72l155 -133h-74l-117 100l-117 -100h-74z" />
    <glyph glyph-name="Atilde" unicode="&#xc3;" horiz-adv-x="720" 
d="M562 211h-404l-93 -211h-62l316 706h82l317 -706h-62zM540 262l-179 402h-2l-178 -402h359zM396.5 772.5q-21.5 11.5 -48.5 37.5q-3 3 -18 17t-28.5 20t-27.5 6q-59 0 -64 -89h-48q3 63 31 98.5t80 35.5q29 0 51 -12t49 -37q3 -3 18 -17t28.5 -20t27.5 -6q30 0 45.5 24
t17.5 65h48q-2 -63 -29.5 -98.5t-79.5 -35.5q-31 0 -52.5 11.5z" />
    <glyph glyph-name="Adieresis" unicode="&#xc4;" horiz-adv-x="720" 
d="M562 211h-404l-93 -211h-62l316 706h82l317 -706h-62zM540 262l-179 402h-2l-178 -402h359zM204.5 803q-11.5 11 -11.5 29q0 17 11.5 28.5t30.5 11.5q17 0 29 -11.5t12 -28.5q0 -18 -11.5 -29t-29.5 -11q-19 0 -30.5 11zM453.5 803q-11.5 11 -11.5 29q0 17 11.5 28.5
t29.5 11.5t30 -11.5t12 -28.5q0 -18 -12 -29t-30 -11t-29.5 11z" />
    <glyph glyph-name="Aring" unicode="&#xc5;" horiz-adv-x="720" 
d="M562 211h-404l-93 -211h-62l316 706h82l317 -706h-62zM540 262l-179 402h-2l-178 -402h359zM281.5 757q-29.5 27 -29.5 73t29.5 73t78.5 27t78.5 -27t29.5 -73t-29.5 -73t-78.5 -27t-78.5 27zM409 785q18 17 18 45q0 29 -18 46t-49 17t-49 -17t-18 -46q0 -28 18 -45
t49 -17t49 17z" />
    <glyph glyph-name="AE" unicode="&#xc6;" horiz-adv-x="907" 
d="M446 655l53 -272h354v-51h-344l54 -281h294v-51h-343l-40 212h-306l-103 -212h-62l348 706h506v-51h-411zM464 263l-76 398h-2l-193 -398h271z" />
    <glyph glyph-name="Ccedilla" unicode="&#xc7;" horiz-adv-x="844" 
d="M800 270q-6 -125 -87 -198q-46 -42 -112 -64t-149 -24l-18 -41h4q58 0 88 -20.5t30 -61.5q0 -83 -121 -83q-49 0 -90 15l10 39q35 -13 78 -13q37 0 57 10t20 33t-21 33.5t-64 10.5h-54l33 79q-122 6 -203.5 56.5t-119.5 135.5q-34 74 -34 176q0 101 34 176
q40 90 130 141.5t224 51.5q86 0 157 -23t120 -67q39 -36 61 -84t25 -106h-59q-9 95 -72 152q-40 37 -99.5 55.5t-132.5 18.5q-115 0 -190 -42.5t-109 -117.5q-29 -65 -29 -155q0 -91 29 -155q34 -76 109 -118t190 -42q75 0 135 18.5t100 55.5q31 28 49.5 68t21.5 90h59z" />
    <glyph glyph-name="Egrave" unicode="&#xc8;" horiz-adv-x="609" 
d="M79 706h481v-51h-424v-271h421v-52h-421v-281h424v-51h-481v706zM335 765l-168 133h78l164 -133h-74z" />
    <glyph glyph-name="Eacute" unicode="&#xc9;" horiz-adv-x="609" 
d="M79 706h481v-51h-424v-271h421v-52h-421v-281h424v-51h-481v706zM397 898h78l-168 -133h-74z" />
    <glyph glyph-name="Ecircumflex" unicode="&#xca;" horiz-adv-x="609" 
d="M79 706h481v-51h-424v-271h421v-52h-421v-281h424v-51h-481v706zM285 898h72l155 -133h-74l-117 100l-117 -100h-74z" />
    <glyph glyph-name="Edieresis" unicode="&#xcb;" horiz-adv-x="609" 
d="M79 706h481v-51h-424v-271h421v-52h-421v-281h424v-51h-481v706zM165.5 803q-11.5 11 -11.5 29q0 17 11.5 28.5t30.5 11.5q17 0 29 -11.5t12 -28.5q0 -18 -11.5 -29t-29.5 -11q-19 0 -30.5 11zM414.5 803q-11.5 11 -11.5 29q0 17 11.5 28.5t29.5 11.5t30 -11.5t12 -28.5
q0 -18 -12 -29t-30 -11t-29.5 11z" />
    <glyph glyph-name="Igrave" unicode="&#xcc;" horiz-adv-x="215" 
d="M79 706h57v-706h-57v706zM121 765l-168 133h78l164 -133h-74z" />
    <glyph glyph-name="Iacute" unicode="&#xcd;" horiz-adv-x="215" 
d="M79 706h57v-706h-57v706zM184 898h78l-168 -133h-74z" />
    <glyph glyph-name="Icircumflex" unicode="&#xce;" horiz-adv-x="215" 
d="M79 706h57v-706h-57v706zM72 897h68l105 -132h-61l-78 98l-76 -98h-62z" />
    <glyph glyph-name="Idieresis" unicode="&#xcf;" horiz-adv-x="215" 
d="M79 706h57v-706h-57v706zM10 802.5q-11 10.5 -11 27.5t11 28t28 11q16 0 27 -11t11 -28q0 -16 -11 -27t-27 -11q-17 0 -28 10.5zM151.5 802q-10.5 11 -10.5 27q0 17 11 28.5t27 11.5q17 0 28 -11.5t11 -28.5q0 -16 -11 -27t-28 -11t-27.5 11z" />
    <glyph glyph-name="Eth" unicode="&#xd0;" horiz-adv-x="786" 
d="M740 353q0 -99 -33 -170q-40 -90 -128.5 -136.5t-215.5 -46.5h-284v334h-69v47h69v325h284q127 0 215.5 -46.5t128.5 -136.5q33 -70 33 -170zM679 353q0 89 -27 150q-34 75 -108.5 113t-184.5 38h-223v-273h224v-47h-224v-282h223q110 0 184.5 38t108.5 113q27 62 27 150
z" />
    <glyph glyph-name="Ntilde" unicode="&#xd1;" horiz-adv-x="771" 
d="M79 706h72l485 -637v637h56v-706h-72l-484 636v-636h-57v706zM423.5 772.5q-21.5 11.5 -48.5 37.5q-3 3 -18 17t-28.5 20t-27.5 6q-59 0 -64 -89h-48q3 63 31 98.5t80 35.5q29 0 51 -12t49 -37q3 -3 18 -17t28.5 -20t27.5 -6q30 0 45.5 24t17.5 65h48q-2 -63 -29.5 -98.5
t-79.5 -35.5q-31 0 -52.5 11.5z" />
    <glyph glyph-name="Ograve" unicode="&#xd2;" horiz-adv-x="871" 
d="M213.5 34q-88.5 50 -129.5 137q-37 75 -37 182q0 102 34 177q41 90 130 141t224 51q136 0 225 -51t130 -141q34 -77 34 -177q0 -101 -35 -178q-41 -90 -130 -140.5t-224 -50.5q-133 0 -221.5 50zM625 80.5q75 42.5 109 117.5q30 66 30 155t-30 155q-34 75 -109 117.5
t-190 42.5t-190 -42.5t-109 -117.5q-29 -67 -29 -155t29 -155q34 -75 109 -117.5t190 -42.5t190 42.5zM449 765l-168 133h78l164 -133h-74z" />
    <glyph glyph-name="Oacute" unicode="&#xd3;" horiz-adv-x="871" 
d="M213.5 34q-88.5 50 -129.5 137q-37 75 -37 182q0 102 34 177q41 90 130 141t224 51q136 0 225 -51t130 -141q34 -77 34 -177q0 -101 -35 -178q-41 -90 -130 -140.5t-224 -50.5q-133 0 -221.5 50zM625 80.5q75 42.5 109 117.5q30 66 30 155t-30 155q-34 75 -109 117.5
t-190 42.5t-190 -42.5t-109 -117.5q-29 -67 -29 -155t29 -155q34 -75 109 -117.5t190 -42.5t190 42.5zM511 898h78l-168 -133h-74z" />
    <glyph glyph-name="Ocircumflex" unicode="&#xd4;" horiz-adv-x="871" 
d="M213.5 34q-88.5 50 -129.5 137q-37 75 -37 182q0 102 34 177q41 90 130 141t224 51q136 0 225 -51t130 -141q34 -77 34 -177q0 -101 -35 -178q-41 -90 -130 -140.5t-224 -50.5q-133 0 -221.5 50zM625 80.5q75 42.5 109 117.5q30 66 30 155t-30 155q-34 75 -109 117.5
t-190 42.5t-190 -42.5t-109 -117.5q-29 -67 -29 -155t29 -155q34 -75 109 -117.5t190 -42.5t190 42.5zM399 898h72l155 -133h-74l-117 100l-117 -100h-74z" />
    <glyph glyph-name="Otilde" unicode="&#xd5;" horiz-adv-x="871" 
d="M213.5 34q-88.5 50 -129.5 137q-37 75 -37 182q0 102 34 177q41 90 130 141t224 51q136 0 225 -51t130 -141q34 -77 34 -177q0 -101 -35 -178q-41 -90 -130 -140.5t-224 -50.5q-133 0 -221.5 50zM625 80.5q75 42.5 109 117.5q30 66 30 155t-30 155q-34 75 -109 117.5
t-190 42.5t-190 -42.5t-109 -117.5q-29 -67 -29 -155t29 -155q34 -75 109 -117.5t190 -42.5t190 42.5zM471.5 772.5q-21.5 11.5 -48.5 37.5q-3 3 -18 17t-28.5 20t-27.5 6q-59 0 -64 -89h-48q3 63 31 98.5t80 35.5q29 0 51 -12t49 -37q3 -3 18 -17t28.5 -20t27.5 -6
q30 0 45.5 24t17.5 65h48q-2 -63 -29.5 -98.5t-79.5 -35.5q-31 0 -52.5 11.5z" />
    <glyph glyph-name="Odieresis" unicode="&#xd6;" horiz-adv-x="871" 
d="M213.5 34q-88.5 50 -129.5 137q-37 75 -37 182q0 102 34 177q41 90 130 141t224 51q136 0 225 -51t130 -141q34 -77 34 -177q0 -101 -35 -178q-41 -90 -130 -140.5t-224 -50.5q-133 0 -221.5 50zM625 80.5q75 42.5 109 117.5q30 66 30 155t-30 155q-34 75 -109 117.5
t-190 42.5t-190 -42.5t-109 -117.5q-29 -67 -29 -155t29 -155q34 -75 109 -117.5t190 -42.5t190 42.5zM279.5 803q-11.5 11 -11.5 29q0 17 11.5 28.5t30.5 11.5q17 0 29 -11.5t12 -28.5q0 -18 -11.5 -29t-29.5 -11q-19 0 -30.5 11zM528.5 803q-11.5 11 -11.5 29
q0 17 11.5 28.5t29.5 11.5t30 -11.5t12 -28.5q0 -18 -12 -29t-30 -11t-29.5 11z" />
    <glyph glyph-name="multiply" unicode="&#xd7;" horiz-adv-x="610" 
d="M340 277l176 -177l-34 -34l-176 177l-177 -177l-34 34l177 177l-177 176l34 34l177 -176l176 176l34 -34z" />
    <glyph glyph-name="Oslash" unicode="&#xd8;" horiz-adv-x="871" 
d="M790 530q34 -77 34 -177q0 -101 -35 -178q-41 -90 -130 -140.5t-224 -50.5q-84 0 -150 20t-114 58l-63 -62h-70l97 94q-31 34 -51 77q-37 75 -37 182q0 102 34 177q41 90 130 141t224 51q83 0 149.5 -20t115.5 -57l62 61h69l-95 -94q32 -35 54 -82zM107 353
q0 -88 29 -155q19 -39 41 -64l480 471q-84 63 -222 63q-115 0 -190 -42.5t-109 -117.5q-29 -67 -29 -155zM764 353q0 89 -30 155q-18 37 -42 64l-479 -471q86 -63 222 -63q115 0 190 42.5t109 117.5q30 66 30 155z" />
    <glyph glyph-name="Ugrave" unicode="&#xd9;" horiz-adv-x="723" 
d="M143 51q-71 67 -71 204v451h57v-449q0 -76 24.5 -124.5t75.5 -71.5t132 -23t132 23t75.5 71.5t24.5 124.5v449h57v-451q0 -138 -71 -204.5t-218 -66.5t-218 67zM375 765l-168 133h78l164 -133h-74z" />
    <glyph glyph-name="Uacute" unicode="&#xda;" horiz-adv-x="723" 
d="M143 51q-71 67 -71 204v451h57v-449q0 -76 24.5 -124.5t75.5 -71.5t132 -23t132 23t75.5 71.5t24.5 124.5v449h57v-451q0 -138 -71 -204.5t-218 -66.5t-218 67zM438 898h78l-168 -133h-74z" />
    <glyph glyph-name="Ucircumflex" unicode="&#xdb;" horiz-adv-x="723" 
d="M143 51q-71 67 -71 204v451h57v-449q0 -76 24.5 -124.5t75.5 -71.5t132 -23t132 23t75.5 71.5t24.5 124.5v449h57v-451q0 -138 -71 -204.5t-218 -66.5t-218 67zM326 898h72l155 -133h-74l-117 100l-117 -100h-74z" />
    <glyph glyph-name="Udieresis" unicode="&#xdc;" horiz-adv-x="723" 
d="M143 51q-71 67 -71 204v451h57v-449q0 -76 24.5 -124.5t75.5 -71.5t132 -23t132 23t75.5 71.5t24.5 124.5v449h57v-451q0 -138 -71 -204.5t-218 -66.5t-218 67zM205.5 803q-11.5 11 -11.5 29q0 17 11.5 28.5t30.5 11.5q17 0 29 -11.5t12 -28.5q0 -18 -11.5 -29t-29.5 -11
q-19 0 -30.5 11zM454.5 803q-11.5 11 -11.5 29q0 17 11.5 28.5t29.5 11.5t30 -11.5t12 -28.5q0 -18 -12 -29t-30 -11t-29.5 11z" />
    <glyph glyph-name="Yacute" unicode="&#xdd;" horiz-adv-x="653" 
d="M299 304l-296 402h70l254 -348l254 348h70l-295 -402v-304h-57v304zM404 898h78l-168 -133h-74z" />
    <glyph glyph-name="Thorn" unicode="&#xde;" horiz-adv-x="646" 
d="M79 706h57v-135h213q100 0 161 -28t87 -85q19 -42 19 -103t-19 -102q-26 -57 -87 -85t-161 -28h-213v-140h-57v706zM344 191q82 0 130.5 21t68.5 63q14 34 14 80q0 47 -14 81q-20 42 -68 62.5t-131 20.5h-208v-328h208z" />
    <glyph glyph-name="germandbls" unicode="&#xdf;" horiz-adv-x="610" 
d="M574 200q0 -48 -17 -87q-27 -59 -93.5 -87t-166.5 -28q-44 0 -86 3v49q39 -3 82 -3q84 0 137.5 21t73.5 66q13 31 13 67q0 41 -14 74q-22 48 -73.5 71t-126.5 23h-91v48h89q146 0 180 75q10 23 10 55q0 30 -11 55q-17 36 -59 54t-102 18q-69 0 -112.5 -21.5t-63.5 -66.5
q-18 -42 -18 -102v-484h-54v482q0 73 23 125q52 115 225 115q79 0 134.5 -25.5t78.5 -75.5q14 -33 14 -72q0 -40 -14 -71q-29 -65 -118 -83q52 -11 87.5 -37t53.5 -66q19 -38 19 -92z" />
    <glyph glyph-name="agrave" unicode="&#xe0;" horiz-adv-x="599" 
d="M533 285v-285h-54v92q-30 -51 -88.5 -78.5t-145.5 -27.5q-71 0 -119.5 20.5t-67.5 63.5q-12 26 -12 60q0 32 12 56q23 52 90 71.5t172 19.5h159v12q0 47 -14 81q-34 76 -168 76q-64 0 -106.5 -17.5t-58.5 -53.5q-10 -20 -10 -47h-54q0 36 15 69q21 49 75 73t138 24
q87 0 140.5 -25.5t76.5 -78.5q20 -43 20 -105zM384.5 60q53.5 26 76.5 77q18 39 18 90v6h-158q-85 0 -139.5 -14.5t-71.5 -51.5q-8 -16 -8 -35q0 -20 8 -38q14 -31 51.5 -45.5t92.5 -14.5q77 0 130.5 26zM313 552l-125 158h66l120 -158h-61z" />
    <glyph glyph-name="aacute" unicode="&#xe1;" horiz-adv-x="599" 
d="M533 285v-285h-54v92q-30 -51 -88.5 -78.5t-145.5 -27.5q-71 0 -119.5 20.5t-67.5 63.5q-12 26 -12 60q0 32 12 56q23 52 90 71.5t172 19.5h159v12q0 47 -14 81q-34 76 -168 76q-64 0 -106.5 -17.5t-58.5 -53.5q-10 -20 -10 -47h-54q0 36 15 69q21 49 75 73t138 24
q87 0 140.5 -25.5t76.5 -78.5q20 -43 20 -105zM384.5 60q53.5 26 76.5 77q18 39 18 90v6h-158q-85 0 -139.5 -14.5t-71.5 -51.5q-8 -16 -8 -35q0 -20 8 -38q14 -31 51.5 -45.5t92.5 -14.5q77 0 130.5 26zM352 710h66l-125 -158h-61z" />
    <glyph glyph-name="acircumflex" unicode="&#xe2;" horiz-adv-x="599" 
d="M533 285v-285h-54v92q-30 -51 -88.5 -78.5t-145.5 -27.5q-71 0 -119.5 20.5t-67.5 63.5q-12 26 -12 60q0 32 12 56q23 52 90 71.5t172 19.5h159v12q0 47 -14 81q-34 76 -168 76q-64 0 -106.5 -17.5t-58.5 -53.5q-10 -20 -10 -47h-54q0 36 15 69q21 49 75 73t138 24
q87 0 140.5 -25.5t76.5 -78.5q20 -43 20 -105zM384.5 60q53.5 26 76.5 77q18 39 18 90v6h-158q-85 0 -139.5 -14.5t-71.5 -51.5q-8 -16 -8 -35q0 -20 8 -38q14 -31 51.5 -45.5t92.5 -14.5q77 0 130.5 26zM268 710h70l130 -158h-64l-101 124l-101 -124h-64z" />
    <glyph glyph-name="atilde" unicode="&#xe3;" horiz-adv-x="599" 
d="M533 285v-285h-54v92q-30 -51 -88.5 -78.5t-145.5 -27.5q-71 0 -119.5 20.5t-67.5 63.5q-12 26 -12 60q0 32 12 56q23 52 90 71.5t172 19.5h159v12q0 47 -14 81q-34 76 -168 76q-64 0 -106.5 -17.5t-58.5 -53.5q-10 -20 -10 -47h-54q0 36 15 69q21 49 75 73t138 24
q87 0 140.5 -25.5t76.5 -78.5q20 -43 20 -105zM384.5 60q53.5 26 76.5 77q18 39 18 90v6h-158q-85 0 -139.5 -14.5t-71.5 -51.5q-8 -16 -8 -35q0 -20 8 -38q14 -31 51.5 -45.5t92.5 -14.5q77 0 130.5 26zM336 563q-21 14 -45 48q-3 4 -17 23t-27 27.5t-27 8.5
q-30 0 -43 -30.5t-15 -88.5h-46q3 79 26.5 120.5t75.5 41.5q31 0 51.5 -14.5t46.5 -48.5q11 -16 22.5 -30t22.5 -21t25 -7q31 0 43 29.5t15 88.5h46q-3 -80 -26 -120.5t-76 -40.5q-31 0 -52 14z" />
    <glyph glyph-name="adieresis" unicode="&#xe4;" horiz-adv-x="599" 
d="M533 285v-285h-54v92q-30 -51 -88.5 -78.5t-145.5 -27.5q-71 0 -119.5 20.5t-67.5 63.5q-12 26 -12 60q0 32 12 56q23 52 90 71.5t172 19.5h159v12q0 47 -14 81q-34 76 -168 76q-64 0 -106.5 -17.5t-58.5 -53.5q-10 -20 -10 -47h-54q0 36 15 69q21 49 75 73t138 24
q87 0 140.5 -25.5t76.5 -78.5q20 -43 20 -105zM384.5 60q53.5 26 76.5 77q18 39 18 90v6h-158q-85 0 -139.5 -14.5t-71.5 -51.5q-8 -16 -8 -35q0 -20 8 -38q14 -31 51.5 -45.5t92.5 -14.5q77 0 130.5 26zM163.5 603q-11.5 11 -11.5 29t11.5 29.5t30.5 11.5q17 0 29 -12
t12 -29q0 -18 -11.5 -29t-29.5 -11q-19 0 -30.5 11zM378.5 603q-11.5 11 -11.5 29t11.5 29.5t30.5 11.5q17 0 29 -12t12 -29q0 -18 -11.5 -29t-29.5 -11q-19 0 -30.5 11z" />
    <glyph glyph-name="aring" unicode="&#xe5;" horiz-adv-x="599" 
d="M533 285v-285h-54v92q-30 -51 -88.5 -78.5t-145.5 -27.5q-71 0 -119.5 20.5t-67.5 63.5q-12 26 -12 60q0 32 12 56q23 52 90 71.5t172 19.5h159v12q0 47 -14 81q-34 76 -168 76q-64 0 -106.5 -17.5t-58.5 -53.5q-10 -20 -10 -47h-54q0 36 15 69q21 49 75 73t138 24
q87 0 140.5 -25.5t76.5 -78.5q20 -43 20 -105zM384.5 60q53.5 26 76.5 77q18 39 18 90v6h-158q-85 0 -139.5 -14.5t-71.5 -51.5q-8 -16 -8 -35q0 -20 8 -38q14 -31 51.5 -45.5t92.5 -14.5q77 0 130.5 26zM224.5 568q-29.5 27 -29.5 73t29.5 73t78.5 27t78.5 -27t29.5 -73
t-29.5 -73t-78.5 -27t-78.5 27zM352 596q18 17 18 45q0 29 -18 46t-49 17t-49 -17t-18 -46q0 -28 18 -45t49 -17t49 17z" />
    <glyph glyph-name="ae" unicode="&#xe6;" horiz-adv-x="1021" 
d="M927 172h55q-10 -78 -61 -126q-33 -30 -79.5 -45t-103.5 -15q-86 0 -145 34.5t-87 96.5q-1 2 -2 4.5t-2 5.5q-27 -68 -90.5 -104.5t-166.5 -36.5q-71 0 -119.5 20.5t-67.5 63.5q-12 26 -12 60q0 33 12 58q23 51 89.5 70.5t172.5 19.5h159v14q0 45 -14 78q-34 76 -168 76
q-64 0 -106.5 -17.5t-58.5 -53.5q-10 -20 -10 -47h-54q0 36 15 69q21 48 76.5 72.5t136.5 24.5q87 0 140 -25t76 -78l3 -8q30 53 85 82t132 29q86 0 142.5 -34.5t84.5 -96.5q25 -56 25 -129h-451q2 -55 19 -96q22 -50 69.5 -77.5t116.5 -27.5q44 0 82 12.5t63 35.5
q36 35 44 91zM535 278h394q-3 37 -17 70q-22 47 -67.5 72.5t-112.5 25.5t-112 -26t-67 -73q-13 -27 -18 -69zM479 235h-158q-88 0 -141 -14t-70 -52q-8 -18 -8 -37q0 -20 8 -38q14 -31 51.5 -45.5t92.5 -14.5q77 0 130.5 26t76.5 76q18 39 18 95v4z" />
    <glyph glyph-name="ccedilla" unicode="&#xe7;" horiz-adv-x="602" 
d="M565 180q-4 -78 -59 -129q-33 -29 -80 -45.5t-103 -18.5l-19 -43h4q118 0 118 -81q0 -83 -121 -83q-52 0 -90 14l9 40q39 -14 79 -14q77 0 77 43q0 23 -20.5 34t-64.5 11h-55l35 80q-79 7 -134 42t-82 93q-23 52 -23 117q0 66 23 117q30 65 94 101t155 36q61 0 111 -16.5
t85 -48.5q56 -51 60 -127h-57q-3 28 -14.5 52t-30.5 41q-27 25 -66.5 37.5t-87.5 12.5q-73 0 -123 -28.5t-73 -79.5q-19 -42 -19 -97t19 -96q23 -51 73.5 -79.5t122.5 -28.5q49 0 88.5 12.5t65.5 36.5q42 37 45 95h58z" />
    <glyph glyph-name="egrave" unicode="&#xe8;" horiz-adv-x="626" 
d="M517 124.5q11 21.5 15 47.5h55q-10 -73 -61 -119q-36 -33 -89.5 -49.5t-118.5 -16.5q-96 0 -162.5 36.5t-96.5 101.5q-23 51 -23 115q0 66 24 117q29 65 95 101t159 36t158 -36t93 -100q24 -55 24 -126h-498q1 -49 18 -90q24 -51 77.5 -79.5t132.5 -28.5q52 0 96 13.5
t73 39.5q18 16 29 37.5zM93 276h441q-3 32 -16 65q-23 50 -75.5 77.5t-128.5 27.5q-78 0 -129.5 -28t-74.5 -80q-12 -26 -17 -62zM325 552l-125 158h66l120 -158h-61z" />
    <glyph glyph-name="eacute" unicode="&#xe9;" horiz-adv-x="626" 
d="M517 124.5q11 21.5 15 47.5h55q-10 -73 -61 -119q-36 -33 -89.5 -49.5t-118.5 -16.5q-96 0 -162.5 36.5t-96.5 101.5q-23 51 -23 115q0 66 24 117q29 65 95 101t159 36t158 -36t93 -100q24 -55 24 -126h-498q1 -49 18 -90q24 -51 77.5 -79.5t132.5 -28.5q52 0 96 13.5
t73 39.5q18 16 29 37.5zM93 276h441q-3 32 -16 65q-23 50 -75.5 77.5t-128.5 27.5q-78 0 -129.5 -28t-74.5 -80q-12 -26 -17 -62zM364 710h66l-125 -158h-61z" />
    <glyph glyph-name="ecircumflex" unicode="&#xea;" horiz-adv-x="626" 
d="M517 124.5q11 21.5 15 47.5h55q-10 -73 -61 -119q-36 -33 -89.5 -49.5t-118.5 -16.5q-96 0 -162.5 36.5t-96.5 101.5q-23 51 -23 115q0 66 24 117q29 65 95 101t159 36t158 -36t93 -100q24 -55 24 -126h-498q1 -49 18 -90q24 -51 77.5 -79.5t132.5 -28.5q52 0 96 13.5
t73 39.5q18 16 29 37.5zM93 276h441q-3 32 -16 65q-23 50 -75.5 77.5t-128.5 27.5q-78 0 -129.5 -28t-74.5 -80q-12 -26 -17 -62zM280 710h70l130 -158h-64l-101 124l-101 -124h-64z" />
    <glyph glyph-name="edieresis" unicode="&#xeb;" horiz-adv-x="626" 
d="M517 124.5q11 21.5 15 47.5h55q-10 -73 -61 -119q-36 -33 -89.5 -49.5t-118.5 -16.5q-96 0 -162.5 36.5t-96.5 101.5q-23 51 -23 115q0 66 24 117q29 65 95 101t159 36t158 -36t93 -100q24 -55 24 -126h-498q1 -49 18 -90q24 -51 77.5 -79.5t132.5 -28.5q52 0 96 13.5
t73 39.5q18 16 29 37.5zM93 276h441q-3 32 -16 65q-23 50 -75.5 77.5t-128.5 27.5q-78 0 -129.5 -28t-74.5 -80q-12 -26 -17 -62zM175.5 603q-11.5 11 -11.5 29t11.5 29.5t30.5 11.5q17 0 29 -12t12 -29q0 -18 -11.5 -29t-29.5 -11q-19 0 -30.5 11zM390.5 603
q-11.5 11 -11.5 29t11.5 29.5t30.5 11.5q17 0 29 -12t12 -29q0 -18 -11.5 -29t-29.5 -11q-19 0 -30.5 11z" />
    <glyph glyph-name="igrave" unicode="&#xec;" horiz-adv-x="196" 
d="M71 480h54v-480h-54v480zM88 552l-105 158h62l100 -158h-57z" />
    <glyph glyph-name="iacute" unicode="&#xed;" horiz-adv-x="196" 
d="M71 480h54v-480h-54v480zM151 710h62l-105 -158h-57z" />
    <glyph glyph-name="icircumflex" unicode="&#xee;" horiz-adv-x="196" 
d="M71 480h54v-480h-54v480zM67 710h63l97 -158h-56l-72 119l-73 -119h-56z" />
    <glyph glyph-name="idieresis" unicode="&#xef;" horiz-adv-x="196" 
d="M71 480h54v-480h-54v480zM-1 603q-11 11 -11 29t11 29t30 11q17 0 28.5 -11t11.5 -29t-11.5 -29t-28.5 -11q-19 0 -30 11zM139 603q-11 11 -11 29t11 29t29 11t29 -11t11 -29t-11 -29t-29 -11t-29 11z" />
    <glyph glyph-name="eth" unicode="&#xf0;" horiz-adv-x="632" 
d="M584 328.5q9 -38.5 9 -84.5q0 -73 -23 -122q-30 -65 -95 -100t-163 -35q-94 0 -159.5 35.5t-94.5 98.5q-22 52 -22 111q0 62 23 114q28 62 92 97t156 35q60 0 109 -17t82 -50q-38 75 -139 180l-242 -77v46l208 65q-56 54 -84 79v2h69q27 -24 51 -48l17 -16l150 47v-45
l-116 -37q101 -104 144 -197q19 -43 28 -81.5zM536 236q0 51 -17 91q-23 51 -75.5 78t-129.5 27t-128.5 -27.5t-74.5 -78.5q-18 -40 -18 -92q0 -53 19 -92q23 -51 75 -78.5t127 -27.5q78 0 129.5 27.5t74.5 77.5q18 41 18 95z" />
    <glyph glyph-name="ntilde" unicode="&#xf1;" horiz-adv-x="610" 
d="M488.5 436.5q55.5 -57.5 55.5 -168.5v-268h-54v261q0 92 -43.5 137.5t-128.5 45.5q-93 0 -143 -51t-50 -145v-248h-54v480h54v-95q28 55 79.5 82t122.5 27q106 0 161.5 -57.5zM341 563q-21 14 -45 48q-3 4 -17 23t-27 27.5t-27 8.5q-30 0 -43 -30.5t-15 -88.5h-46
q3 79 26.5 120.5t75.5 41.5q31 0 51.5 -14.5t46.5 -48.5q11 -16 22.5 -30t22.5 -21t25 -7q31 0 43 29.5t15 88.5h46q-3 -80 -26 -120.5t-76 -40.5q-31 0 -52 14z" />
    <glyph glyph-name="ograve" unicode="&#xf2;" horiz-adv-x="630" 
d="M154 23q-65 37 -94 102q-24 51 -24 115q0 63 24 115q29 65 94 102t161 37t161 -37t94 -102q24 -51 24 -115t-24 -115q-29 -65 -94 -102t-161 -37t-161 37zM443.5 64q51.5 29 74.5 80q19 42 19 96q0 55 -18 95q-23 51 -75.5 80.5t-128.5 29.5q-77 0 -129 -29t-74 -80
q-19 -41 -19 -96t19 -96q23 -51 74.5 -80t128.5 -29t128.5 29zM325 552l-125 158h66l120 -158h-61z" />
    <glyph glyph-name="oacute" unicode="&#xf3;" horiz-adv-x="630" 
d="M154 23q-65 37 -94 102q-24 51 -24 115q0 63 24 115q29 65 94 102t161 37t161 -37t94 -102q24 -51 24 -115t-24 -115q-29 -65 -94 -102t-161 -37t-161 37zM443.5 64q51.5 29 74.5 80q19 42 19 96q0 55 -18 95q-23 51 -75.5 80.5t-128.5 29.5q-77 0 -129 -29t-74 -80
q-19 -41 -19 -96t19 -96q23 -51 74.5 -80t128.5 -29t128.5 29zM364 710h66l-125 -158h-61z" />
    <glyph glyph-name="ocircumflex" unicode="&#xf4;" horiz-adv-x="630" 
d="M154 23q-65 37 -94 102q-24 51 -24 115q0 63 24 115q29 65 94 102t161 37t161 -37t94 -102q24 -51 24 -115t-24 -115q-29 -65 -94 -102t-161 -37t-161 37zM443.5 64q51.5 29 74.5 80q19 42 19 96q0 55 -18 95q-23 51 -75.5 80.5t-128.5 29.5q-77 0 -129 -29t-74 -80
q-19 -41 -19 -96t19 -96q23 -51 74.5 -80t128.5 -29t128.5 29zM280 710h70l130 -158h-64l-101 124l-101 -124h-64z" />
    <glyph glyph-name="otilde" unicode="&#xf5;" horiz-adv-x="630" 
d="M154 23q-65 37 -94 102q-24 51 -24 115q0 63 24 115q29 65 94 102t161 37t161 -37t94 -102q24 -51 24 -115t-24 -115q-29 -65 -94 -102t-161 -37t-161 37zM443.5 64q51.5 29 74.5 80q19 42 19 96q0 55 -18 95q-23 51 -75.5 80.5t-128.5 29.5q-77 0 -129 -29t-74 -80
q-19 -41 -19 -96t19 -96q23 -51 74.5 -80t128.5 -29t128.5 29zM348 563q-21 14 -45 48q-3 4 -17 23t-27 27.5t-27 8.5q-30 0 -43 -30.5t-15 -88.5h-46q3 79 26.5 120.5t75.5 41.5q31 0 51.5 -14.5t46.5 -48.5q11 -16 22.5 -30t22.5 -21t25 -7q31 0 43 29.5t15 88.5h46
q-3 -80 -26 -120.5t-76 -40.5q-31 0 -52 14z" />
    <glyph glyph-name="odieresis" unicode="&#xf6;" horiz-adv-x="630" 
d="M154 23q-65 37 -94 102q-24 51 -24 115q0 63 24 115q29 65 94 102t161 37t161 -37t94 -102q24 -51 24 -115t-24 -115q-29 -65 -94 -102t-161 -37t-161 37zM443.5 64q51.5 29 74.5 80q19 42 19 96q0 55 -18 95q-23 51 -75.5 80.5t-128.5 29.5q-77 0 -129 -29t-74 -80
q-19 -41 -19 -96t19 -96q23 -51 74.5 -80t128.5 -29t128.5 29zM175.5 603q-11.5 11 -11.5 29t11.5 29.5t30.5 11.5q17 0 29 -12t12 -29q0 -18 -11.5 -29t-29.5 -11q-19 0 -30.5 11zM390.5 603q-11.5 11 -11.5 29t11.5 29.5t30.5 11.5q17 0 29 -12t12 -29q0 -18 -11.5 -29
t-29.5 -11q-19 0 -30.5 11z" />
    <glyph glyph-name="divide" unicode="&#xf7;" horiz-adv-x="610" 
d="M276 460.5q-11 10.5 -11 28.5q0 19 11 29.5t29 10.5t29.5 -11t11.5 -29t-11.5 -28.5t-29.5 -10.5t-29 10.5zM58 301h494v-49h-494v49zM276 35q-11 11 -11 29t11 29t29 11t29.5 -11t11.5 -29t-11.5 -29t-29.5 -11t-29 11z" />
    <glyph glyph-name="oslash" unicode="&#xf8;" horiz-adv-x="630" 
d="M594 240q0 -64 -24 -115q-29 -65 -94 -102t-161 -37q-106 0 -176 46l-33 -32h-61l60 60q-28 28 -45 65q-24 51 -24 115q0 63 24 115q29 65 94 102t161 37q106 0 176 -46l32 32h61l-59 -59q29 -29 45 -66q24 -51 24 -115zM112 144q12 -26 32 -48l309 314q-56 35 -138 35
q-77 0 -129 -29t-74 -80q-19 -41 -19 -96t19 -96zM537 240q0 55 -18 95q-12 27 -33 48l-309 -313q56 -35 138 -35q77 0 128.5 29t74.5 80q19 42 19 96z" />
    <glyph glyph-name="ugrave" unicode="&#xf9;" horiz-adv-x="610" 
d="M539 480v-480h-53v95q-28 -55 -80 -82t-122 -27q-106 0 -162 57.5t-56 168.5v268h54v-261q0 -91 44 -137t129 -46q93 0 143 51.5t50 145.5v247h53zM311 552l-125 158h66l120 -158h-61z" />
    <glyph glyph-name="uacute" unicode="&#xfa;" horiz-adv-x="610" 
d="M539 480v-480h-53v95q-28 -55 -80 -82t-122 -27q-106 0 -162 57.5t-56 168.5v268h54v-261q0 -91 44 -137t129 -46q93 0 143 51.5t50 145.5v247h53zM350 710h66l-125 -158h-61z" />
    <glyph glyph-name="ucircumflex" unicode="&#xfb;" horiz-adv-x="610" 
d="M539 480v-480h-53v95q-28 -55 -80 -82t-122 -27q-106 0 -162 57.5t-56 168.5v268h54v-261q0 -91 44 -137t129 -46q93 0 143 51.5t50 145.5v247h53zM266 710h70l130 -158h-64l-101 124l-101 -124h-64z" />
    <glyph glyph-name="udieresis" unicode="&#xfc;" horiz-adv-x="610" 
d="M539 480v-480h-53v95q-28 -55 -80 -82t-122 -27q-106 0 -162 57.5t-56 168.5v268h54v-261q0 -91 44 -137t129 -46q93 0 143 51.5t50 145.5v247h53zM161.5 603q-11.5 11 -11.5 29t11.5 29.5t30.5 11.5q17 0 29 -12t12 -29q0 -18 -11.5 -29t-29.5 -11q-19 0 -30.5 11z
M376.5 603q-11.5 11 -11.5 29t11.5 29.5t30.5 11.5q17 0 29 -12t12 -29q0 -18 -11.5 -29t-29.5 -11q-19 0 -30.5 11z" />
    <glyph glyph-name="yacute" unicode="&#xfd;" horiz-adv-x="560" 
d="M546 480l-249 -480l-106 -203h-59l111 212l-230 471h61l200 -415l212 415h60zM329 710h66l-125 -158h-61z" />
    <glyph glyph-name="thorn" unicode="&#xfe;" horiz-adv-x="650" 
d="M614 240q0 -64 -23 -118q-29 -64 -93 -99.5t-150 -35.5q-76 0 -134 28t-89 82v-300h-54v909h54v-323q31 55 89 83t134 28q87 0 150.5 -35.5t92.5 -100.5q23 -52 23 -118zM557 240q0 58 -19 97q-23 52 -75 79.5t-123 27.5q-62 0 -110.5 -22t-76.5 -66.5t-28 -108.5v-14
q0 -64 28 -108.5t76.5 -66.5t110.5 -22q71 0 123 27.5t75 79.5q19 41 19 97z" />
    <glyph glyph-name="ydieresis" unicode="&#xff;" horiz-adv-x="560" 
d="M546 480l-249 -480l-106 -203h-59l111 212l-230 471h61l200 -415l212 415h60zM140.5 603q-11.5 11 -11.5 29t11.5 29.5t30.5 11.5q17 0 29 -12t12 -29q0 -18 -11.5 -29t-29.5 -11q-19 0 -30.5 11zM355.5 603q-11.5 11 -11.5 29t11.5 29.5t30.5 11.5q17 0 29 -12t12 -29
q0 -18 -11.5 -29t-29.5 -11q-19 0 -30.5 11z" />
    <glyph glyph-name="Amacron" unicode="&#x100;" horiz-adv-x="720" 
d="M562 211h-404l-93 -211h-62l316 706h82l317 -706h-62zM540 262l-179 402h-2l-178 -402h359zM193 854h335v-48h-335v48z" />
    <glyph glyph-name="amacron" unicode="&#x101;" horiz-adv-x="599" 
d="M533 285v-285h-54v92q-30 -51 -88.5 -78.5t-145.5 -27.5q-71 0 -119.5 20.5t-67.5 63.5q-12 26 -12 60q0 32 12 56q23 52 90 71.5t172 19.5h159v12q0 47 -14 81q-34 76 -168 76q-64 0 -106.5 -17.5t-58.5 -53.5q-10 -20 -10 -47h-54q0 36 15 69q21 49 75 73t138 24
q87 0 140.5 -25.5t76.5 -78.5q20 -43 20 -105zM384.5 60q53.5 26 76.5 77q18 39 18 90v6h-158q-85 0 -139.5 -14.5t-71.5 -51.5q-8 -16 -8 -35q0 -20 8 -38q14 -31 51.5 -45.5t92.5 -14.5q77 0 130.5 26zM138 654h330v-47h-330v47z" />
    <glyph glyph-name="Abreve" unicode="&#x102;" horiz-adv-x="720" 
d="M562 211h-404l-93 -211h-62l316 706h82l317 -706h-62zM540 262l-179 402h-2l-178 -402h359zM236.5 796.5q-41.5 35.5 -45.5 101.5h48q5 -47 33.5 -71t88.5 -24t88.5 24t32.5 71h48q-3 -66 -44.5 -101.5t-124.5 -35.5t-124.5 35.5z" />
    <glyph glyph-name="abreve" unicode="&#x103;" horiz-adv-x="599" 
d="M533 285v-285h-54v92q-30 -51 -88.5 -78.5t-145.5 -27.5q-71 0 -119.5 20.5t-67.5 63.5q-12 26 -12 60q0 32 12 56q23 52 90 71.5t172 19.5h159v12q0 47 -14 81q-34 76 -168 76q-64 0 -106.5 -17.5t-58.5 -53.5q-10 -20 -10 -47h-54q0 36 15 69q21 49 75 73t138 24
q87 0 140.5 -25.5t76.5 -78.5q20 -43 20 -105zM384.5 60q53.5 26 76.5 77q18 39 18 90v6h-158q-85 0 -139.5 -14.5t-71.5 -51.5q-8 -16 -8 -35q0 -20 8 -38q14 -31 51.5 -45.5t92.5 -14.5q77 0 130.5 26zM181.5 589q-38.5 40 -42.5 121h48q4 -62 30 -91t86 -29q41 0 66 13
t37 39.5t15 67.5h47q-4 -81 -42.5 -121t-122.5 -40q-83 0 -121.5 40z" />
    <glyph glyph-name="Aogonek" unicode="&#x104;" horiz-adv-x="720" 
d="M725 -158v-44q-31 -11 -64 -11q-45 0 -72.5 21.5t-27.5 61.5q0 36 24 67t71 64l-94 210h-404l-93 -211h-62l316 706h82l317 -706q-57 -38 -81.5 -65.5t-24.5 -58.5q0 -23 14.5 -34.5t40.5 -11.5q33 0 58 12zM540 262l-179 402h-2l-178 -402h359z" />
    <glyph glyph-name="aogonek" unicode="&#x105;" horiz-adv-x="599" 
d="M540 -158v-44q-31 -11 -64 -11q-45 0 -72.5 21.5t-27.5 61.5q0 38 25.5 69.5t77.5 67.5v85q-30 -51 -88.5 -78.5t-145.5 -27.5q-71 0 -119.5 20.5t-67.5 63.5q-12 26 -12 60q0 32 12 56q23 52 90 71.5t172 19.5h159v12q0 47 -14 81q-34 76 -168 76q-64 0 -106.5 -17.5
t-58.5 -53.5q-10 -20 -10 -47h-54q0 36 15 69q21 49 75 73t138 24q87 0 140.5 -25.5t76.5 -78.5q20 -43 20 -105v-285q-57 -38 -81.5 -65.5t-24.5 -58.5q0 -23 14.5 -34.5t40.5 -11.5q33 0 58 12zM384.5 60q53.5 26 76.5 77q18 39 18 90v6h-158q-85 0 -139.5 -14.5
t-71.5 -51.5q-8 -16 -8 -35q0 -20 8 -38q14 -31 51.5 -45.5t92.5 -14.5q77 0 130.5 26z" />
    <glyph glyph-name="Cacute" unicode="&#x106;" horiz-adv-x="844" 
d="M211 35.5q-89 51.5 -130 141.5q-34 74 -34 176q0 101 34 176q40 90 130 141.5t224 51.5q86 0 157 -23t120 -67q39 -36 61 -84t25 -106h-59q-9 95 -72 152q-40 37 -99.5 55.5t-132.5 18.5q-115 0 -190 -42.5t-109 -117.5q-29 -65 -29 -155q0 -91 29 -155q34 -76 109 -118
t190 -42q75 0 135 18.5t100 55.5q31 28 49.5 68t21.5 90h59q-6 -125 -87 -198q-48 -44 -119 -66t-159 -22q-135 0 -224 51.5zM512 898h78l-168 -133h-74z" />
    <glyph glyph-name="cacute" unicode="&#x107;" horiz-adv-x="602" 
d="M152.5 23q-64.5 36 -93.5 100q-23 52 -23 117q0 66 23 117q30 65 94 101t155 36q61 0 111 -16.5t85 -48.5q56 -51 60 -127h-57q-3 28 -14.5 52t-30.5 41q-27 25 -66.5 37.5t-87.5 12.5q-73 0 -123 -28.5t-73 -79.5q-19 -42 -19 -97t19 -96q23 -51 73.5 -79.5t122.5 -28.5
q49 0 88.5 12.5t65.5 36.5q42 37 45 95h58q-4 -78 -59 -129q-35 -31 -85.5 -47.5t-112.5 -16.5q-91 0 -155.5 36zM358 710h66l-125 -158h-61z" />
    <glyph glyph-name="Ccircumflex" unicode="&#x108;" horiz-adv-x="844" 
d="M211 35.5q-89 51.5 -130 141.5q-34 74 -34 176q0 101 34 176q40 90 130 141.5t224 51.5q86 0 157 -23t120 -67q39 -36 61 -84t25 -106h-59q-9 95 -72 152q-40 37 -99.5 55.5t-132.5 18.5q-115 0 -190 -42.5t-109 -117.5q-29 -65 -29 -155q0 -91 29 -155q34 -76 109 -118
t190 -42q75 0 135 18.5t100 55.5q31 28 49.5 68t21.5 90h59q-6 -125 -87 -198q-48 -44 -119 -66t-159 -22q-135 0 -224 51.5zM399 898h72l155 -133h-74l-117 100l-117 -100h-74z" />
    <glyph glyph-name="ccircumflex" unicode="&#x109;" horiz-adv-x="602" 
d="M152.5 23q-64.5 36 -93.5 100q-23 52 -23 117q0 66 23 117q30 65 94 101t155 36q61 0 111 -16.5t85 -48.5q56 -51 60 -127h-57q-3 28 -14.5 52t-30.5 41q-27 25 -66.5 37.5t-87.5 12.5q-73 0 -123 -28.5t-73 -79.5q-19 -42 -19 -97t19 -96q23 -51 73.5 -79.5t122.5 -28.5
q49 0 88.5 12.5t65.5 36.5q42 37 45 95h58q-4 -78 -59 -129q-35 -31 -85.5 -47.5t-112.5 -16.5q-91 0 -155.5 36zM274 710h70l130 -158h-64l-101 124l-101 -124h-64z" />
    <glyph glyph-name="Cdotaccent" unicode="&#x10a;" horiz-adv-x="844" 
d="M211 35.5q-89 51.5 -130 141.5q-34 74 -34 176q0 101 34 176q40 90 130 141.5t224 51.5q86 0 157 -23t120 -67q39 -36 61 -84t25 -106h-59q-9 95 -72 152q-40 37 -99.5 55.5t-132.5 18.5q-115 0 -190 -42.5t-109 -117.5q-29 -65 -29 -155q0 -91 29 -155q34 -76 109 -118
t190 -42q75 0 135 18.5t100 55.5q31 28 49.5 68t21.5 90h59q-6 -125 -87 -198q-48 -44 -119 -66t-159 -22q-135 0 -224 51.5zM405 802.5q-12 11.5 -12 29.5t12 29.5t31 11.5q18 0 30 -11.5t12 -29.5t-12 -29.5t-30 -11.5q-19 0 -31 11.5z" />
    <glyph glyph-name="cdotaccent" unicode="&#x10b;" horiz-adv-x="602" 
d="M152.5 23q-64.5 36 -93.5 100q-23 52 -23 117q0 66 23 117q30 65 94 101t155 36q61 0 111 -16.5t85 -48.5q56 -51 60 -127h-57q-3 28 -14.5 52t-30.5 41q-27 25 -66.5 37.5t-87.5 12.5q-73 0 -123 -28.5t-73 -79.5q-19 -42 -19 -97t19 -96q23 -51 73.5 -79.5t122.5 -28.5
q49 0 88.5 12.5t65.5 36.5q42 37 45 95h58q-4 -78 -59 -129q-35 -31 -85.5 -47.5t-112.5 -16.5q-91 0 -155.5 36zM278.5 604q-11.5 11 -11.5 29t11.5 29.5t30.5 11.5q18 0 30 -11.5t12 -29.5t-12 -29t-30 -11q-19 0 -30.5 11z" />
    <glyph glyph-name="Ccaron" unicode="&#x10c;" horiz-adv-x="844" 
d="M211 35.5q-89 51.5 -130 141.5q-34 74 -34 176q0 101 34 176q40 90 130 141.5t224 51.5q86 0 157 -23t120 -67q39 -36 61 -84t25 -106h-59q-9 95 -72 152q-40 37 -99.5 55.5t-132.5 18.5q-115 0 -190 -42.5t-109 -117.5q-29 -65 -29 -155q0 -91 29 -155q34 -76 109 -118
t190 -42q75 0 135 18.5t100 55.5q31 28 49.5 68t21.5 90h59q-6 -125 -87 -198q-48 -44 -119 -66t-159 -22q-135 0 -224 51.5zM471 765h-72l-155 133h74l117 -100l117 100h74z" />
    <glyph glyph-name="ccaron" unicode="&#x10d;" horiz-adv-x="602" 
d="M152.5 23q-64.5 36 -93.5 100q-23 52 -23 117q0 66 23 117q30 65 94 101t155 36q61 0 111 -16.5t85 -48.5q56 -51 60 -127h-57q-3 28 -14.5 52t-30.5 41q-27 25 -66.5 37.5t-87.5 12.5q-73 0 -123 -28.5t-73 -79.5q-19 -42 -19 -97t19 -96q23 -51 73.5 -79.5t122.5 -28.5
q49 0 88.5 12.5t65.5 36.5q42 37 45 95h58q-4 -78 -59 -129q-35 -31 -85.5 -47.5t-112.5 -16.5q-91 0 -155.5 36zM343 552h-69l-130 158h64l101 -124l101 124h64z" />
    <glyph glyph-name="Dcaron" unicode="&#x10e;" horiz-adv-x="786" 
d="M79 706h284q127 0 215.5 -46.5t128.5 -136.5q33 -70 33 -170q0 -99 -33 -170q-40 -90 -128.5 -136.5t-215.5 -46.5h-284v706zM359 52q110 0 184.5 38t108.5 113q27 62 27 150q0 89 -27 150q-34 75 -108.5 113t-184.5 38h-223v-602h223zM399 765h-72l-155 133h74l117 -100
l117 100h74z" />
    <glyph glyph-name="dcaron" unicode="&#x10f;" horiz-adv-x="711" 
d="M579 706v-706h-53v95q-31 -53 -89.5 -80.5t-134.5 -27.5q-86 0 -149.5 35.5t-92.5 99.5q-24 53 -24 118q0 67 24 118q29 65 92.5 100.5t149.5 35.5q75 0 133 -27t90 -80v319h54zM421 58q49 22 77 66.5t28 108.5v14q0 64 -28 108.5t-77 66.5t-111 22q-71 0 -122.5 -27.5
t-75.5 -79.5q-19 -43 -19 -97q0 -53 19 -97q24 -52 75.5 -79.5t122.5 -27.5q62 0 111 22zM668 706h54l-48 -169h-47z" />
    <glyph glyph-name="Dcroat" unicode="&#x110;" horiz-adv-x="786" 
d="M740 353q0 -99 -33 -170q-40 -90 -128.5 -136.5t-215.5 -46.5h-284v334h-69v47h69v325h284q127 0 215.5 -46.5t128.5 -136.5q33 -70 33 -170zM679 353q0 89 -27 150q-34 75 -108.5 113t-184.5 38h-223v-273h224v-47h-224v-282h223q110 0 184.5 38t108.5 113q27 62 27 150
z" />
    <glyph glyph-name="dcroat" unicode="&#x111;" horiz-adv-x="650" 
d="M654 584h-75v-584h-53v95q-31 -53 -89.5 -80.5t-134.5 -27.5q-86 0 -149.5 35.5t-92.5 99.5q-24 53 -24 118q0 67 24 118q29 65 92.5 100.5t149.5 35.5q75 0 133 -27t90 -80v197h-200v45h200v77h54v-77h75v-45zM421 58q49 22 77 66.5t28 108.5v14q0 64 -28 108.5
t-77 66.5t-111 22q-71 0 -122.5 -27.5t-75.5 -79.5q-19 -43 -19 -97q0 -53 19 -97q24 -52 75.5 -79.5t122.5 -27.5q62 0 111 22z" />
    <glyph glyph-name="Emacron" unicode="&#x112;" horiz-adv-x="609" 
d="M79 706h481v-51h-424v-271h421v-52h-421v-281h424v-51h-481v706zM154 854h335v-48h-335v48z" />
    <glyph glyph-name="emacron" unicode="&#x113;" horiz-adv-x="626" 
d="M517 124.5q11 21.5 15 47.5h55q-10 -73 -61 -119q-36 -33 -89.5 -49.5t-118.5 -16.5q-96 0 -162.5 36.5t-96.5 101.5q-23 51 -23 115q0 66 24 117q29 65 95 101t159 36t158 -36t93 -100q24 -55 24 -126h-498q1 -49 18 -90q24 -51 77.5 -79.5t132.5 -28.5q52 0 96 13.5
t73 39.5q18 16 29 37.5zM93 276h441q-3 32 -16 65q-23 50 -75.5 77.5t-128.5 27.5q-78 0 -129.5 -28t-74.5 -80q-12 -26 -17 -62zM150 654h330v-47h-330v47z" />
    <glyph glyph-name="Ebreve" unicode="&#x114;" horiz-adv-x="609" 
d="M79 706h481v-51h-424v-271h421v-52h-421v-281h424v-51h-481v706zM197.5 796.5q-41.5 35.5 -45.5 101.5h48q5 -47 33.5 -71t88.5 -24t88.5 24t32.5 71h48q-3 -66 -44.5 -101.5t-124.5 -35.5t-124.5 35.5z" />
    <glyph glyph-name="ebreve" unicode="&#x115;" horiz-adv-x="626" 
d="M517 124.5q11 21.5 15 47.5h55q-10 -73 -61 -119q-36 -33 -89.5 -49.5t-118.5 -16.5q-96 0 -162.5 36.5t-96.5 101.5q-23 51 -23 115q0 66 24 117q29 65 95 101t159 36t158 -36t93 -100q24 -55 24 -126h-498q1 -49 18 -90q24 -51 77.5 -79.5t132.5 -28.5q52 0 96 13.5
t73 39.5q18 16 29 37.5zM93 276h441q-3 32 -16 65q-23 50 -75.5 77.5t-128.5 27.5q-78 0 -129.5 -28t-74.5 -80q-12 -26 -17 -62zM193.5 589q-38.5 40 -42.5 121h48q4 -62 30 -91t86 -29q41 0 66 13t37 39.5t15 67.5h47q-4 -81 -42.5 -121t-122.5 -40q-83 0 -121.5 40z" />
    <glyph glyph-name="Edotaccent" unicode="&#x116;" horiz-adv-x="609" 
d="M79 706h481v-51h-424v-271h421v-52h-421v-281h424v-51h-481v706zM291 802.5q-12 11.5 -12 29.5t12 29.5t31 11.5q18 0 30 -11.5t12 -29.5t-12 -29.5t-30 -11.5q-19 0 -31 11.5z" />
    <glyph glyph-name="edotaccent" unicode="&#x117;" horiz-adv-x="626" 
d="M517 124.5q11 21.5 15 47.5h55q-10 -73 -61 -119q-36 -33 -89.5 -49.5t-118.5 -16.5q-96 0 -162.5 36.5t-96.5 101.5q-23 51 -23 115q0 66 24 117q29 65 95 101t159 36t158 -36t93 -100q24 -55 24 -126h-498q1 -49 18 -90q24 -51 77.5 -79.5t132.5 -28.5q52 0 96 13.5
t73 39.5q18 16 29 37.5zM93 276h441q-3 32 -16 65q-23 50 -75.5 77.5t-128.5 27.5q-78 0 -129.5 -28t-74.5 -80q-12 -26 -17 -62zM284.5 604q-11.5 11 -11.5 29t11.5 29.5t30.5 11.5q18 0 30 -11.5t12 -29.5t-12 -29t-30 -11q-19 0 -30.5 11z" />
    <glyph glyph-name="Eogonek" unicode="&#x118;" horiz-adv-x="609" 
d="M567 -158v-44q-31 -11 -64 -11q-45 0 -72.5 21.5t-27.5 61.5q0 36 23 66.5t70 63.5h-417v706h481v-51h-424v-271h421v-52h-421v-281h424v-51q-57 -38 -81.5 -65.5t-24.5 -58.5q0 -23 14.5 -34.5t40.5 -11.5q33 0 58 12z" />
    <glyph glyph-name="eogonek" unicode="&#x119;" horiz-adv-x="626" 
d="M517 124.5q11 21.5 15 47.5h55q-7 -46 -32 -83t-76 -77q-38 -30 -60 -50.5t-33 -40t-11 -41.5q0 -25 14.5 -38t40.5 -13q30 0 58 12v-43q-31 -11 -63 -11q-46 0 -73 23t-27 65q0 33 18 61t54 58q-35 -7 -79 -7q-96 0 -162.5 36.5t-96.5 101.5q-23 51 -23 115q0 66 24 117
q29 65 95 101t159 36t158 -36t93 -100q24 -55 24 -126h-498q1 -49 18 -90q24 -51 77.5 -79.5t132.5 -28.5q52 0 96 13.5t73 39.5q18 16 29 37.5zM93 276h441q-3 32 -16 65q-23 50 -75.5 77.5t-128.5 27.5q-78 0 -129.5 -28t-74.5 -80q-12 -26 -17 -62z" />
    <glyph glyph-name="Ecaron" unicode="&#x11a;" horiz-adv-x="609" 
d="M79 706h481v-51h-424v-271h421v-52h-421v-281h424v-51h-481v706zM357 765h-72l-155 133h74l117 -100l117 100h74z" />
    <glyph glyph-name="ecaron" unicode="&#x11b;" horiz-adv-x="626" 
d="M517 124.5q11 21.5 15 47.5h55q-10 -73 -61 -119q-36 -33 -89.5 -49.5t-118.5 -16.5q-96 0 -162.5 36.5t-96.5 101.5q-23 51 -23 115q0 66 24 117q29 65 95 101t159 36t158 -36t93 -100q24 -55 24 -126h-498q1 -49 18 -90q24 -51 77.5 -79.5t132.5 -28.5q52 0 96 13.5
t73 39.5q18 16 29 37.5zM93 276h441q-3 32 -16 65q-23 50 -75.5 77.5t-128.5 27.5q-78 0 -129.5 -28t-74.5 -80q-12 -26 -17 -62zM349 552h-69l-130 158h64l101 -124l101 124h64z" />
    <glyph glyph-name="Gcircumflex" unicode="&#x11c;" horiz-adv-x="861" 
d="M814 363v-22q0 -98 -33 -173q-41 -89 -129 -136.5t-216 -47.5q-133 0 -224 51t-132 143q-33 73 -33 175t33 175q42 93 133.5 143.5t227.5 50.5q87 0 157 -21.5t119 -65.5q37 -34 60 -80.5t28 -102.5h-60q-12 92 -70 144q-39 36 -99.5 54t-134.5 18q-116 0 -193 -42
t-112 -118q-29 -64 -29 -155q0 -88 29 -155q34 -76 111 -118t191 -42q107 0 183.5 38.5t109.5 112.5q24 53 25 122h-281v52h339zM402 898h72l155 -133h-74l-117 100l-117 -100h-74z" />
    <glyph glyph-name="gcircumflex" unicode="&#x11d;" horiz-adv-x="649" 
d="M578 480v-460q0 -66 -22 -116q-27 -61 -88 -91t-152 -30q-66 0 -119 15.5t-88 46.5q-51 46 -52 121h57q0 -54 38 -87q26 -24 68 -36t95 -12q149 0 192 94q16 36 16 90v82q-31 -53 -89 -80.5t-133 -27.5q-86 0 -149 35t-92 99q-24 51 -24 118t24 118q29 65 92 100t149 35
q76 0 134 -28.5t89 -83.5v98h54zM418.5 60q48.5 22 76.5 66.5t28 107.5v14q0 64 -28 108t-76.5 66t-109.5 22q-71 0 -122.5 -27.5t-74.5 -78.5q-19 -43 -19 -97q0 -53 19 -96q23 -52 74.5 -79.5t122.5 -27.5q61 0 109.5 22zM286 710h70l130 -158h-64l-101 124l-101 -124h-64
z" />
    <glyph glyph-name="Gbreve" unicode="&#x11e;" horiz-adv-x="861" 
d="M814 363v-22q0 -98 -33 -173q-41 -89 -129 -136.5t-216 -47.5q-133 0 -224 51t-132 143q-33 73 -33 175t33 175q42 93 133.5 143.5t227.5 50.5q87 0 157 -21.5t119 -65.5q37 -34 60 -80.5t28 -102.5h-60q-12 92 -70 144q-39 36 -99.5 54t-134.5 18q-116 0 -193 -42
t-112 -118q-29 -64 -29 -155q0 -88 29 -155q34 -76 111 -118t191 -42q107 0 183.5 38.5t109.5 112.5q24 53 25 122h-281v52h339zM313.5 796.5q-41.5 35.5 -45.5 101.5h48q5 -47 33.5 -71t88.5 -24t88.5 24t32.5 71h48q-3 -66 -44.5 -101.5t-124.5 -35.5t-124.5 35.5z" />
    <glyph glyph-name="gbreve" unicode="&#x11f;" horiz-adv-x="649" 
d="M578 480v-460q0 -66 -22 -116q-27 -61 -88 -91t-152 -30q-66 0 -119 15.5t-88 46.5q-51 46 -52 121h57q0 -54 38 -87q26 -24 68 -36t95 -12q149 0 192 94q16 36 16 90v82q-31 -53 -89 -80.5t-133 -27.5q-86 0 -149 35t-92 99q-24 51 -24 118t24 118q29 65 92 100t149 35
q76 0 134 -28.5t89 -83.5v98h54zM418.5 60q48.5 22 76.5 66.5t28 107.5v14q0 64 -28 108t-76.5 66t-109.5 22q-71 0 -122.5 -27.5t-74.5 -78.5q-19 -43 -19 -97q0 -53 19 -96q23 -52 74.5 -79.5t122.5 -27.5q61 0 109.5 22zM198.5 589q-38.5 40 -42.5 121h48q4 -62 30 -91
t86 -29q41 0 66 13t37 39.5t15 67.5h47q-4 -81 -42.5 -121t-122.5 -40q-83 0 -121.5 40z" />
    <glyph glyph-name="Gdotaccent" unicode="&#x120;" horiz-adv-x="861" 
d="M814 363v-22q0 -98 -33 -173q-41 -89 -129 -136.5t-216 -47.5q-133 0 -224 51t-132 143q-33 73 -33 175t33 175q42 93 133.5 143.5t227.5 50.5q87 0 157 -21.5t119 -65.5q37 -34 60 -80.5t28 -102.5h-60q-12 92 -70 144q-39 36 -99.5 54t-134.5 18q-116 0 -193 -42
t-112 -118q-29 -64 -29 -155q0 -88 29 -155q34 -76 111 -118t191 -42q107 0 183.5 38.5t109.5 112.5q24 53 25 122h-281v52h339zM407 802.5q-12 11.5 -12 29.5t12 29.5t31 11.5q18 0 30 -11.5t12 -29.5t-12 -29.5t-30 -11.5q-19 0 -31 11.5z" />
    <glyph glyph-name="gdotaccent" unicode="&#x121;" horiz-adv-x="649" 
d="M578 480v-460q0 -66 -22 -116q-27 -61 -88 -91t-152 -30q-66 0 -119 15.5t-88 46.5q-51 46 -52 121h57q0 -54 38 -87q26 -24 68 -36t95 -12q149 0 192 94q16 36 16 90v82q-31 -53 -89 -80.5t-133 -27.5q-86 0 -149 35t-92 99q-24 51 -24 118t24 118q29 65 92 100t149 35
q76 0 134 -28.5t89 -83.5v98h54zM418.5 60q48.5 22 76.5 66.5t28 107.5v14q0 64 -28 108t-76.5 66t-109.5 22q-71 0 -122.5 -27.5t-74.5 -78.5q-19 -43 -19 -97q0 -53 19 -96q23 -52 74.5 -79.5t122.5 -27.5q61 0 109.5 22zM290.5 604q-11.5 11 -11.5 29t11.5 29.5
t30.5 11.5q18 0 30 -11.5t12 -29.5t-12 -29t-30 -11q-19 0 -30.5 11z" />
    <glyph glyph-name="Gcommaaccent" unicode="&#x122;" horiz-adv-x="861" 
d="M814 363v-22q0 -98 -33 -173q-41 -89 -129 -136.5t-216 -47.5q-133 0 -224 51t-132 143q-33 73 -33 175t33 175q42 93 133.5 143.5t227.5 50.5q87 0 157 -21.5t119 -65.5q37 -34 60 -80.5t28 -102.5h-60q-12 92 -70 144q-39 36 -99.5 54t-134.5 18q-116 0 -193 -42
t-112 -118q-29 -64 -29 -155q0 -88 29 -155q34 -76 111 -118t191 -42q107 0 183.5 38.5t109.5 112.5q24 53 25 122h-281v52h339zM412 -53h56l-43 -150h-50z" />
    <glyph glyph-name="gcommaaccent" unicode="&#x123;" horiz-adv-x="649" 
d="M578 480v-460q0 -66 -22 -116q-27 -61 -88 -91t-152 -30q-66 0 -119 15.5t-88 46.5q-51 46 -52 121h57q0 -54 38 -87q26 -24 68 -36t95 -12q149 0 192 94q16 36 16 90v82q-31 -53 -89 -80.5t-133 -27.5q-86 0 -149 35t-92 99q-24 51 -24 118t24 118q29 65 92 100t149 35
q76 0 134 -28.5t89 -83.5v98h54zM418.5 60q48.5 22 76.5 66.5t28 107.5v14q0 64 -28 108t-76.5 66t-109.5 22q-71 0 -122.5 -27.5t-74.5 -78.5q-19 -43 -19 -97q0 -53 19 -96q23 -52 74.5 -79.5t122.5 -27.5q61 0 109.5 22zM331 557h-56l43 150h50z" />
    <glyph glyph-name="Hcircumflex" unicode="&#x124;" horiz-adv-x="741" 
d="M79 706h57v-322h469v322h57v-706h-57v332h-469v-332h-57v706zM335 898h72l155 -133h-74l-117 100l-117 -100h-74z" />
    <glyph glyph-name="hcircumflex" unicode="&#x125;" horiz-adv-x="610" 
d="M488.5 437q55.5 -57 55.5 -169v-268h-54v261q0 92 -43.5 137.5t-128.5 45.5q-93 0 -143 -51t-50 -145v-248h-54v706h54v-321q28 55 79.5 82t122.5 27q106 0 161.5 -57zM263 898h72l155 -133h-74l-117 100l-117 -100h-74z" />
    <glyph glyph-name="Hbar" unicode="&#x126;" horiz-adv-x="741" 
d="M662 706v-706h-57v332h-469v-332h-57v706h57v-128h469v128h57zM605 384v148h-469v-148h469z" />
    <glyph glyph-name="hbar" unicode="&#x127;" horiz-adv-x="610" 
d="M488.5 437q55.5 -57 55.5 -169v-268h-54v261q0 92 -43.5 137.5t-128.5 45.5q-93 0 -143 -51t-50 -145v-248h-54v584h-72v45h72v77h54v-77h203v-45h-203v-199q28 55 79.5 82t122.5 27q106 0 161.5 -57z" />
    <glyph glyph-name="Itilde" unicode="&#x128;" horiz-adv-x="215" 
d="M79 706h57v-706h-57v706zM140.5 768.5q-14.5 6.5 -24.5 16.5t-24 28q-15 21 -26.5 31t-26.5 10q-23 0 -33.5 -23.5t-12.5 -65.5h-43q2 62 23 97t65 35q19 0 33.5 -6.5t24.5 -16.5t24 -28q17 -22 27.5 -31.5t25.5 -9.5q23 0 33.5 23.5t11.5 66.5h44q-2 -63 -23.5 -98
t-64.5 -35q-19 0 -33.5 6.5z" />
    <glyph glyph-name="itilde" unicode="&#x129;" horiz-adv-x="196" 
d="M71 480h54v-480h-54v480zM112.5 564q-15.5 15 -30.5 51q-2 4 -9.5 21.5t-15 25.5t-16.5 8q-19 0 -26.5 -28t-9.5 -91h-43q2 56 9.5 91.5t24 53t44.5 17.5q26 0 41 -15.5t31 -51.5q12 -29 20 -41.5t21 -12.5q19 0 26.5 27.5t9.5 90.5h43q-2 -56 -10 -91t-24.5 -52.5
t-43.5 -17.5q-26 0 -41.5 15z" />
    <glyph glyph-name="Imacron" unicode="&#x12a;" horiz-adv-x="215" 
d="M79 706h57v-706h-57v706zM-15 853h244v-47h-244v47z" />
    <glyph glyph-name="imacron" unicode="&#x12b;" horiz-adv-x="196" 
d="M71 480h54v-480h-54v480zM-19 654h234v-47h-234v47z" />
    <glyph glyph-name="Ibreve" unicode="&#x12c;" horiz-adv-x="215" 
d="M79 706h57v-706h-57v706zM12 794q-31 34 -33 103h48q2 -49 20.5 -72t60.5 -23q41 0 60 23.5t21 71.5h47q-2 -69 -32.5 -103t-95.5 -34t-96 34z" />
    <glyph glyph-name="ibreve" unicode="&#x12d;" horiz-adv-x="196" 
d="M71 480h54v-480h-54v480zM6 589q-30 40 -32 121h47q2 -63 19.5 -91t57.5 -28q28 0 45 12.5t24.5 38.5t8.5 68h47q-3 -82 -32.5 -121.5t-92.5 -39.5q-62 0 -92 40z" />
    <glyph glyph-name="Iogonek" unicode="&#x12e;" horiz-adv-x="215" 
d="M158 -158v-44q-27 -11 -54 -11q-41 0 -65 21.5t-24 61.5q0 36 16 66.5t48 64.5v705h57v-706q-37 -38 -53.5 -66t-16.5 -58q0 -23 12.5 -34.5t34.5 -11.5q24 0 45 12z" />
    <glyph glyph-name="iogonek" unicode="&#x12f;" horiz-adv-x="196" 
d="M67.5 604q-11.5 11 -11.5 29t12 29.5t30 11.5t30 -12t12 -29q0 -18 -12 -29t-30 -11q-19 0 -30.5 11zM147 -158v-44q-27 -11 -54 -11q-41 0 -65.5 21.5t-24.5 61.5q0 36 17 67.5t51 66.5v476h54v-480q-38 -38 -54.5 -66t-16.5 -58q0 -23 13 -34.5t35 -11.5q24 0 45 12z
" />
    <glyph glyph-name="Idotaccent" unicode="&#x130;" horiz-adv-x="215" 
d="M79 706h57v-706h-57v706zM77 802.5q-12 11.5 -12 29.5t12 29.5t31 11.5q18 0 30 -11.5t12 -29.5t-12 -29.5t-30 -11.5q-19 0 -31 11.5z" />
    <glyph glyph-name="dotlessi" unicode="&#x131;" horiz-adv-x="196" 
d="M71 480h54v-480h-54v480z" />
    <glyph glyph-name="IJ" unicode="&#x132;" horiz-adv-x="562" 
d="M79 706h57v-706h-57v706zM226 0v52q24 -4 57 -4q53 0 84.5 15.5t46.5 49t15 89.5v504h57v-512q0 -104 -46.5 -151.5t-149.5 -47.5q-31 0 -64 5z" />
    <glyph glyph-name="ij" unicode="&#x133;" horiz-adv-x="391" 
d="M67.5 604q-11.5 11 -11.5 29t12 29.5t30 11.5t30 -12t12 -29q0 -18 -12 -29t-30 -11q-19 0 -30.5 11zM71 480h54v-480h-54v480zM262.5 604q-11.5 11 -11.5 29t12 29.5t30 11.5t30 -12t12 -29q0 -18 -12 -29t-30 -11q-19 0 -30.5 11zM140 -205v50q22 -3 42 -3
q44 0 64.5 21t20.5 68v549h53v-551q0 -71 -32 -103.5t-102 -32.5q-30 0 -46 2z" />
    <glyph glyph-name="Jcircumflex" unicode="&#x134;" horiz-adv-x="346" 
d="M11 0v52q24 -4 57 -4q53 0 84.5 15.5t46.5 49t15 89.5v504h57v-512q0 -104 -46.5 -151.5t-149.5 -47.5q-31 0 -64 5zM208 897h68l105 -132h-61l-78 98l-76 -98h-62z" />
    <glyph glyph-name="jcircumflex" unicode="&#x135;" horiz-adv-x="195" 
d="M-56 -205v50q22 -3 42 -3q44 0 64.5 21t20.5 68v549h53v-551q0 -71 -32 -103.5t-102 -32.5q-30 0 -46 2zM66 710h63l97 -158h-56l-72 119l-73 -119h-56z" />
    <glyph glyph-name="Kcommaaccent" unicode="&#x136;" horiz-adv-x="608" 
d="M525 0l-389 370v-370h-57v706h57v-303l342 303h77l-359 -318l406 -388h-77zM293 -53h56l-43 -150h-50z" />
    <glyph glyph-name="kcommaaccent" unicode="&#x137;" horiz-adv-x="480" 
d="M408 0l-283 253v-253h-54v706h54v-421l253 195h80l-274 -211l302 -269h-78zM239 -53h56l-43 -150h-50z" />
    <glyph glyph-name="kgreenlandic" unicode="&#x138;" horiz-adv-x="481" 
d="M408 0l-283 253v-253h-54v480h54v-195l253 195h80l-275 -211l304 -269h-79z" />
    <glyph glyph-name="Lacute" unicode="&#x139;" horiz-adv-x="452" 
d="M79 706h57v-654h304v-52h-361v706zM187 898h78l-168 -133h-74z" />
    <glyph glyph-name="lacute" unicode="&#x13a;" horiz-adv-x="196" 
d="M71 706h54v-706h-54v706zM174 898h78l-168 -133h-74z" />
    <glyph glyph-name="Lcommaaccent" unicode="&#x13b;" horiz-adv-x="452" 
d="M79 706h57v-654h304v-52h-361v706zM237 -53h56l-43 -150h-50z" />
    <glyph glyph-name="lcommaaccent" unicode="&#x13c;" horiz-adv-x="196" 
d="M71 706h54v-706h-54v706zM72 -53h56l-43 -150h-50z" />
    <glyph glyph-name="Lcaron" unicode="&#x13d;" horiz-adv-x="452" 
d="M79 706h57v-654h304v-52h-361v706zM261 706h54l-48 -169h-47z" />
    <glyph glyph-name="lcaron" unicode="&#x13e;" horiz-adv-x="257" 
d="M71 706h54v-706h-54v706zM214 706h54l-48 -169h-47z" />
    <glyph glyph-name="Ldot" unicode="&#x13f;" horiz-adv-x="502" 
d="M79 706h57v-654h304v-52h-361v706zM325.5 353.5q-11.5 11.5 -11.5 30.5t11.5 30.5t30.5 11.5t30.5 -11.5t11.5 -30.5t-11.5 -30.5t-30.5 -11.5t-30.5 11.5z" />
    <glyph glyph-name="ldot" unicode="&#x140;" horiz-adv-x="310" 
d="M71 706h54v-706h-54v706zM222.5 339.5q-11.5 11.5 -11.5 30.5t11.5 30.5t30.5 11.5t30.5 -11.5t11.5 -30.5t-11.5 -30.5t-30.5 -11.5t-30.5 11.5z" />
    <glyph glyph-name="Lslash" unicode="&#x141;" horiz-adv-x="452" 
d="M440 52v-52h-361v325l-73 -44v50l73 44v331h57v-302l179 110v-51l-179 -110v-301h304z" />
    <glyph glyph-name="lslash" unicode="&#x142;" horiz-adv-x="198" 
d="M200 429l-75 -55v-374h-53v344l-75 -53v52l75 54v309h53v-279l75 54v-52z" />
    <glyph glyph-name="Nacute" unicode="&#x143;" horiz-adv-x="771" 
d="M79 706h72l485 -637v637h56v-706h-72l-484 636v-636h-57v706zM464 898h78l-168 -133h-74z" />
    <glyph glyph-name="nacute" unicode="&#x144;" horiz-adv-x="610" 
d="M488.5 436.5q55.5 -57.5 55.5 -168.5v-268h-54v261q0 92 -43.5 137.5t-128.5 45.5q-93 0 -143 -51t-50 -145v-248h-54v480h54v-95q28 55 79.5 82t122.5 27q106 0 161.5 -57.5zM358 710h66l-125 -158h-61z" />
    <glyph glyph-name="Ncommaaccent" unicode="&#x145;" horiz-adv-x="771" 
d="M79 706h72l485 -637v637h56v-706h-72l-484 636v-636h-57v706zM354 -53h56l-43 -150h-50z" />
    <glyph glyph-name="ncommaaccent" unicode="&#x146;" horiz-adv-x="610" 
d="M488.5 436.5q55.5 -57.5 55.5 -168.5v-268h-54v261q0 92 -43.5 137.5t-128.5 45.5q-93 0 -143 -51t-50 -145v-248h-54v480h54v-95q28 55 79.5 82t122.5 27q106 0 161.5 -57.5zM295 -53h56l-43 -150h-50z" />
    <glyph glyph-name="Ncaron" unicode="&#x147;" horiz-adv-x="771" 
d="M79 706h72l485 -637v637h56v-706h-72l-484 636v-636h-57v706zM424 765h-72l-155 133h74l117 -100l117 100h74z" />
    <glyph glyph-name="ncaron" unicode="&#x148;" horiz-adv-x="610" 
d="M488.5 436.5q55.5 -57.5 55.5 -168.5v-268h-54v261q0 92 -43.5 137.5t-128.5 45.5q-93 0 -143 -51t-50 -145v-248h-54v480h54v-95q28 55 79.5 82t122.5 27q106 0 161.5 -57.5zM342 552h-69l-130 158h64l101 -124l101 124h64z" />
    <glyph glyph-name="napostrophe" unicode="&#x149;" horiz-adv-x="747" 
d="M125 706h59l-88 -290h-45zM625.5 436.5q55.5 -57.5 55.5 -168.5v-268h-54v261q0 92 -43.5 137.5t-128.5 45.5q-93 0 -143 -51t-50 -145v-248h-54v480h54v-95q28 55 79.5 82t122.5 27q106 0 161.5 -57.5z" />
    <glyph glyph-name="Eng" unicode="&#x14a;" horiz-adv-x="771" 
d="M692 706v-779q0 -69 -31.5 -101t-101.5 -32q-29 0 -49 3v52q24 -4 40 -4q45 0 65.5 21t20.5 67v69l-500 634v-636h-57v706h72l485 -615v615h56z" />
    <glyph glyph-name="eng" unicode="&#x14b;" horiz-adv-x="610" 
d="M489 437q55 -57 55 -167v-341q0 -71 -32 -103.5t-102 -32.5q-22 0 -46 3v50q23 -3 41 -3q44 0 64.5 21t20.5 68v329q0 92 -43.5 137.5t-128.5 45.5q-93 0 -143 -51t-50 -145v-248h-54v480h54v-95q28 55 80 82t123 27q106 0 161 -57z" />
    <glyph glyph-name="Omacron" unicode="&#x14c;" horiz-adv-x="871" 
d="M213.5 34q-88.5 50 -129.5 137q-37 75 -37 182q0 102 34 177q41 90 130 141t224 51q136 0 225 -51t130 -141q34 -77 34 -177q0 -101 -35 -178q-41 -90 -130 -140.5t-224 -50.5q-133 0 -221.5 50zM625 80.5q75 42.5 109 117.5q30 66 30 155t-30 155q-34 75 -109 117.5
t-190 42.5t-190 -42.5t-109 -117.5q-29 -67 -29 -155t29 -155q34 -75 109 -117.5t190 -42.5t190 42.5zM268 854h335v-48h-335v48z" />
    <glyph glyph-name="omacron" unicode="&#x14d;" horiz-adv-x="630" 
d="M154 23q-65 37 -94 102q-24 51 -24 115q0 63 24 115q29 65 94 102t161 37t161 -37t94 -102q24 -51 24 -115t-24 -115q-29 -65 -94 -102t-161 -37t-161 37zM443.5 64q51.5 29 74.5 80q19 42 19 96q0 55 -18 95q-23 51 -75.5 80.5t-128.5 29.5q-77 0 -129 -29t-74 -80
q-19 -41 -19 -96t19 -96q23 -51 74.5 -80t128.5 -29t128.5 29zM150 654h330v-47h-330v47z" />
    <glyph glyph-name="Obreve" unicode="&#x14e;" horiz-adv-x="871" 
d="M213.5 34q-88.5 50 -129.5 137q-37 75 -37 182q0 102 34 177q41 90 130 141t224 51q136 0 225 -51t130 -141q34 -77 34 -177q0 -101 -35 -178q-41 -90 -130 -140.5t-224 -50.5q-133 0 -221.5 50zM625 80.5q75 42.5 109 117.5q30 66 30 155t-30 155q-34 75 -109 117.5
t-190 42.5t-190 -42.5t-109 -117.5q-29 -67 -29 -155t29 -155q34 -75 109 -117.5t190 -42.5t190 42.5zM311.5 796.5q-41.5 35.5 -45.5 101.5h48q5 -47 33.5 -71t88.5 -24t88.5 24t32.5 71h48q-3 -66 -44.5 -101.5t-124.5 -35.5t-124.5 35.5z" />
    <glyph glyph-name="obreve" unicode="&#x14f;" horiz-adv-x="630" 
d="M154 23q-65 37 -94 102q-24 51 -24 115q0 63 24 115q29 65 94 102t161 37t161 -37t94 -102q24 -51 24 -115t-24 -115q-29 -65 -94 -102t-161 -37t-161 37zM443.5 64q51.5 29 74.5 80q19 42 19 96q0 55 -18 95q-23 51 -75.5 80.5t-128.5 29.5q-77 0 -129 -29t-74 -80
q-19 -41 -19 -96t19 -96q23 -51 74.5 -80t128.5 -29t128.5 29zM192.5 589q-38.5 40 -42.5 121h48q4 -62 30 -91t86 -29q41 0 66 13t37 39.5t15 67.5h47q-4 -81 -42.5 -121t-122.5 -40q-83 0 -121.5 40z" />
    <glyph glyph-name="Ohungarumlaut" unicode="&#x150;" horiz-adv-x="871" 
d="M213.5 34q-88.5 50 -129.5 137q-37 75 -37 182q0 102 34 177q41 90 130 141t224 51q136 0 225 -51t130 -141q34 -77 34 -177q0 -101 -35 -178q-41 -90 -130 -140.5t-224 -50.5q-133 0 -221.5 50zM625 80.5q75 42.5 109 117.5q30 66 30 155t-30 155q-34 75 -109 117.5
t-190 42.5t-190 -42.5t-109 -117.5q-29 -67 -29 -155t29 -155q34 -75 109 -117.5t190 -42.5t190 42.5zM447 898h69l-152 -133h-63zM612 898h68l-151 -133h-63z" />
    <glyph glyph-name="ohungarumlaut" unicode="&#x151;" horiz-adv-x="630" 
d="M154 23q-65 37 -94 102q-24 51 -24 115q0 63 24 115q29 65 94 102t161 37t161 -37t94 -102q24 -51 24 -115t-24 -115q-29 -65 -94 -102t-161 -37t-161 37zM443.5 64q51.5 29 74.5 80q19 42 19 96q0 55 -18 95q-23 51 -75.5 80.5t-128.5 29.5q-77 0 -129 -29t-74 -80
q-19 -41 -19 -96t19 -96q23 -51 74.5 -80t128.5 -29t128.5 29zM303 710h61l-134 -158h-55zM477 710h61l-135 -158h-55z" />
    <glyph glyph-name="OE" unicode="&#x152;" horiz-adv-x="1232" 
d="M759 655v-271h421v-52h-421v-281h424v-51h-481v133q-41 -71 -115.5 -110t-181.5 -39q-120 0 -202 48.5t-121 134.5q-35 79 -35 186q0 108 35 185q39 86 121 135t203 49q107 0 181 -39t115 -110v133h481v-51h-424zM573.5 78.5q67.5 40.5 99.5 112.5q31 69 31 162t-31 162
q-32 72 -99.5 112.5t-167.5 40.5q-98 0 -166.5 -39.5t-101.5 -111.5q-31 -68 -31 -164t31 -164q33 -72 101.5 -111.5t166.5 -39.5q100 0 167.5 40.5z" />
    <glyph glyph-name="oe" unicode="&#x153;" horiz-adv-x="1034" 
d="M940 172h56q-10 -64 -48 -106q-32 -39 -82 -59.5t-114 -20.5q-87 0 -146 34.5t-86 96.5q-27 -61 -85 -95.5t-143 -34.5q-86 0 -145 35t-86 97q-25 53 -25 121t25 121q27 62 86 97.5t145 35.5q85 0 142.5 -34t85.5 -95q28 61 85.5 95t140.5 34q85 0 142 -34.5t85 -96.5
q23 -52 25 -129h-452q1 -53 20 -96q22 -50 69.5 -77.5t115.5 -27.5q51 0 90.5 16.5t64.5 46.5q28 33 34 76zM548 279h394q-5 42 -17 69q-21 47 -67 73t-112 26q-67 0 -112.5 -26.5t-67.5 -73.5q-13 -30 -18 -68zM490 240q0 61 -20 104q-22 47 -67 74t-111 27q-67 0 -112 -27
t-67 -75q-19 -42 -19 -103q0 -59 19 -103q22 -48 67.5 -75t111.5 -27t111.5 27t66.5 73q20 44 20 105z" />
    <glyph glyph-name="Racute" unicode="&#x154;" horiz-adv-x="686" 
d="M284 328h-148v-328h-57v706h316q180 0 226 -103q17 -39 17 -85q0 -47 -17 -87q-46 -103 -223 -103h-39l324 -328h-78zM136 379h253q74 0 117.5 18.5t60.5 56.5q12 27 12 63q0 37 -12 64q-17 38 -61 56t-117 18h-253v-276zM414 898h78l-168 -133h-74z" />
    <glyph glyph-name="racute" unicode="&#x155;" horiz-adv-x="355" 
d="M337 480v-51q-24 7 -60 7q-75 0 -113.5 -41t-38.5 -116v-279h-54v480h54v-75q20 39 58.5 60.5t95.5 21.5q34 0 58 -7zM250 710h66l-125 -158h-61z" />
    <glyph glyph-name="Rcommaaccent" unicode="&#x156;" horiz-adv-x="686" 
d="M284 328h-148v-328h-57v706h316q180 0 226 -103q17 -39 17 -85q0 -47 -17 -87q-46 -103 -223 -103h-39l324 -328h-78zM136 379h253q74 0 117.5 18.5t60.5 56.5q12 27 12 63q0 37 -12 64q-17 38 -61 56t-117 18h-253v-276zM327 -53h56l-43 -150h-50z" />
    <glyph glyph-name="rcommaaccent" unicode="&#x157;" horiz-adv-x="355" 
d="M337 480v-51q-24 7 -60 7q-75 0 -113.5 -41t-38.5 -116v-279h-54v480h54v-75q20 39 58.5 60.5t95.5 21.5q34 0 58 -7zM70 -53h56l-43 -150h-50z" />
    <glyph glyph-name="Rcaron" unicode="&#x158;" horiz-adv-x="686" 
d="M284 328h-148v-328h-57v706h316q180 0 226 -103q17 -39 17 -85q0 -47 -17 -87q-46 -103 -223 -103h-39l324 -328h-78zM136 379h253q74 0 117.5 18.5t60.5 56.5q12 27 12 63q0 37 -12 64q-17 38 -61 56t-117 18h-253v-276zM374 765h-72l-155 133h74l117 -100l117 100h74z
" />
    <glyph glyph-name="rcaron" unicode="&#x159;" horiz-adv-x="355" 
d="M337 480v-51q-24 7 -60 7q-75 0 -113.5 -41t-38.5 -116v-279h-54v480h54v-75q20 39 58.5 60.5t95.5 21.5q34 0 58 -7zM234 552h-69l-130 158h64l101 -124l101 124h64z" />
    <glyph glyph-name="Sacute" unicode="&#x15a;" horiz-adv-x="727" 
d="M177 20.5q-77 36.5 -108 105.5q-22 48 -22 116h60q0 -55 17 -93q26 -56 89 -85t163 -29q92 0 152 25.5t80 71.5q11 22 11 51q0 26 -10 49q-15 32 -51.5 52t-83 30.5t-123.5 23.5q-75 13 -125.5 26.5t-89.5 36.5t-56 60q-12 27 -12 63q0 38 15 71q17 38 55 67t93 44.5
t122 15.5q105 0 175 -35.5t100 -100.5q20 -46 20 -107h-58q-2 49 -17 86q-23 51 -79 78.5t-141 27.5q-83 0 -140 -26t-76 -70q-9 -22 -9 -46q0 -27 8 -43q13 -29 47.5 -47.5t77 -28t121.5 -23.5q80 -14 132 -27.5t93 -38.5t59 -65q14 -31 14 -69q0 -41 -16 -76
q-28 -61 -102.5 -94t-186.5 -33q-121 0 -198 36.5zM434 898h78l-168 -133h-74z" />
    <glyph glyph-name="sacute" unicode="&#x15b;" horiz-adv-x="521" 
d="M127.5 12q-52.5 26 -75.5 75q-14 35 -16 80h54q0 -32 12 -58q16 -37 57 -56.5t104 -19.5q64 0 104.5 16t54.5 46q7 14 7 34q0 16 -6 29q-9 21 -34 33t-54 17.5t-94 15.5q-72 12 -116 30t-60 56q-9 21 -9 47q0 30 10 51q18 40 67 63t120 23q77 0 127.5 -25.5t70.5 -70.5
q13 -29 13 -67h-53q0 28 -10 48q-15 33 -53.5 50.5t-95.5 17.5q-54 0 -88 -14.5t-46 -41.5q-6 -11 -6 -31q0 -18 5 -27q9 -20 33 -32t51.5 -17.5t83.5 -13.5q52 -8 88 -18t63.5 -27.5t39.5 -45.5q9 -21 9 -48q0 -31 -11 -54q-20 -44 -75 -67.5t-137 -23.5t-134.5 26z
M315 710h66l-125 -158h-61z" />
    <glyph glyph-name="Scircumflex" unicode="&#x15c;" horiz-adv-x="727" 
d="M177 20.5q-77 36.5 -108 105.5q-22 48 -22 116h60q0 -55 17 -93q26 -56 89 -85t163 -29q92 0 152 25.5t80 71.5q11 22 11 51q0 26 -10 49q-15 32 -51.5 52t-83 30.5t-123.5 23.5q-75 13 -125.5 26.5t-89.5 36.5t-56 60q-12 27 -12 63q0 38 15 71q17 38 55 67t93 44.5
t122 15.5q105 0 175 -35.5t100 -100.5q20 -46 20 -107h-58q-2 49 -17 86q-23 51 -79 78.5t-141 27.5q-83 0 -140 -26t-76 -70q-9 -22 -9 -46q0 -27 8 -43q13 -29 47.5 -47.5t77 -28t121.5 -23.5q80 -14 132 -27.5t93 -38.5t59 -65q14 -31 14 -69q0 -41 -16 -76
q-28 -61 -102.5 -94t-186.5 -33q-121 0 -198 36.5zM323 898h72l155 -133h-74l-117 100l-117 -100h-74z" />
    <glyph glyph-name="scircumflex" unicode="&#x15d;" horiz-adv-x="521" 
d="M127.5 12q-52.5 26 -75.5 75q-14 35 -16 80h54q0 -32 12 -58q16 -37 57 -56.5t104 -19.5q64 0 104.5 16t54.5 46q7 14 7 34q0 16 -6 29q-9 21 -34 33t-54 17.5t-94 15.5q-72 12 -116 30t-60 56q-9 21 -9 47q0 30 10 51q18 40 67 63t120 23q77 0 127.5 -25.5t70.5 -70.5
q13 -29 13 -67h-53q0 28 -10 48q-15 33 -53.5 50.5t-95.5 17.5q-54 0 -88 -14.5t-46 -41.5q-6 -11 -6 -31q0 -18 5 -27q9 -20 33 -32t51.5 -17.5t83.5 -13.5q52 -8 88 -18t63.5 -27.5t39.5 -45.5q9 -21 9 -48q0 -31 -11 -54q-20 -44 -75 -67.5t-137 -23.5t-134.5 26z
M231 710h70l130 -158h-64l-101 124l-101 -124h-64z" />
    <glyph glyph-name="Scedilla" unicode="&#x15e;" horiz-adv-x="727" 
d="M680 187q0 -41 -16 -76q-27 -59 -98 -92t-179 -35l-18 -41h4q58 0 88 -20.5t30 -61.5q0 -83 -121 -83q-49 0 -90 15l9 39q36 -13 79 -13q37 0 57 10t20 33t-21 33.5t-64 10.5h-55l34 79q-106 5 -173.5 41t-96.5 100q-22 48 -22 116h60q0 -55 17 -93q26 -56 89 -85
t163 -29q92 0 152 25.5t80 71.5q11 22 11 51q0 26 -10 49q-15 32 -51.5 52t-83 30.5t-123.5 23.5q-75 13 -125.5 26.5t-89.5 36.5t-56 60q-12 27 -12 63q0 38 15 71q17 38 55 67t93 44.5t122 15.5q105 0 175 -35.5t100 -100.5q20 -46 20 -107h-58q-2 49 -17 86
q-23 51 -79 78.5t-141 27.5q-83 0 -140 -26t-76 -70q-9 -22 -9 -46q0 -27 8 -43q13 -29 47.5 -47.5t77 -28t121.5 -23.5q80 -14 132 -27.5t93 -38.5t59 -65q14 -31 14 -69z" />
    <glyph glyph-name="scedilla" unicode="&#x15f;" horiz-adv-x="521" 
d="M485 131q0 -31 -11 -54q-19 -41 -67 -64t-120 -26l-19 -43h4q118 0 118 -81q0 -83 -121 -83q-52 0 -90 14l10 40q37 -14 78 -14q77 0 77 43q0 23 -20.5 34t-64.5 11h-54l34 79q-72 3 -119 28.5t-68 71.5q-14 35 -16 80h54q0 -32 12 -58q16 -37 57 -56.5t104 -19.5
q64 0 104.5 16t54.5 46q7 14 7 34q0 16 -6 29q-9 21 -34 33t-54 17.5t-94 15.5q-72 12 -116 30t-60 56q-9 21 -9 47q0 30 10 51q18 40 67 63t120 23q77 0 127.5 -25.5t70.5 -70.5q13 -29 13 -67h-53q0 28 -10 48q-15 33 -53.5 50.5t-95.5 17.5q-54 0 -88 -14.5t-46 -41.5
q-6 -11 -6 -31q0 -18 5 -27q9 -20 33 -32t51.5 -17.5t83.5 -13.5q52 -8 88 -18t63.5 -27.5t39.5 -45.5q9 -21 9 -48z" />
    <glyph glyph-name="Scaron" unicode="&#x160;" horiz-adv-x="727" 
d="M177 20.5q-77 36.5 -108 105.5q-22 48 -22 116h60q0 -55 17 -93q26 -56 89 -85t163 -29q92 0 152 25.5t80 71.5q11 22 11 51q0 26 -10 49q-15 32 -51.5 52t-83 30.5t-123.5 23.5q-75 13 -125.5 26.5t-89.5 36.5t-56 60q-12 27 -12 63q0 38 15 71q17 38 55 67t93 44.5
t122 15.5q105 0 175 -35.5t100 -100.5q20 -46 20 -107h-58q-2 49 -17 86q-23 51 -79 78.5t-141 27.5q-83 0 -140 -26t-76 -70q-9 -22 -9 -46q0 -27 8 -43q13 -29 47.5 -47.5t77 -28t121.5 -23.5q80 -14 132 -27.5t93 -38.5t59 -65q14 -31 14 -69q0 -41 -16 -76
q-28 -61 -102.5 -94t-186.5 -33q-121 0 -198 36.5zM390 765h-72l-155 133h74l117 -100l117 100h74z" />
    <glyph glyph-name="scaron" unicode="&#x161;" horiz-adv-x="521" 
d="M127.5 12q-52.5 26 -75.5 75q-14 35 -16 80h54q0 -32 12 -58q16 -37 57 -56.5t104 -19.5q64 0 104.5 16t54.5 46q7 14 7 34q0 16 -6 29q-9 21 -34 33t-54 17.5t-94 15.5q-72 12 -116 30t-60 56q-9 21 -9 47q0 30 10 51q18 40 67 63t120 23q77 0 127.5 -25.5t70.5 -70.5
q13 -29 13 -67h-53q0 28 -10 48q-15 33 -53.5 50.5t-95.5 17.5q-54 0 -88 -14.5t-46 -41.5q-6 -11 -6 -31q0 -18 5 -27q9 -20 33 -32t51.5 -17.5t83.5 -13.5q52 -8 88 -18t63.5 -27.5t39.5 -45.5q9 -21 9 -48q0 -31 -11 -54q-20 -44 -75 -67.5t-137 -23.5t-134.5 26z
M300 552h-69l-130 158h64l101 -124l101 124h64z" />
    <glyph glyph-name="uni0162" unicode="&#x162;" horiz-adv-x="548" 
d="M295 0l-22 -50h4q117 0 117 -81q0 -83 -120 -83q-49 0 -91 14l10 40q36 -13 79 -13q37 0 57 10t20 32q0 23 -21 34t-64 11h-55l38 86h-1v654h-235v52h526v-52h-234v-654h-8z" />
    <glyph glyph-name="uni0163" unicode="&#x163;" horiz-adv-x="392" 
d="M367 -136q0 -82 -121 -82q-52 0 -90 14l10 40q37 -14 78 -14q77 0 77 43q0 23 -20.5 33.5t-64.5 10.5h-54l37 87q-49 13 -74 51.5t-25 100.5v285h-96v47h96v120h54v-120h192v-47h-192v-280q0 -55 27 -84.5t79 -29.5q19 0 40 3t40 9v-49q-48 -12 -89 -12h-6l-19 -44h3
q118 0 118 -82z" />
    <glyph glyph-name="Tcaron" unicode="&#x164;" horiz-adv-x="548" 
d="M246 654h-235v52h526v-52h-234v-654h-57v654zM310 765h-72l-155 133h74l117 -100l117 100h74z" />
    <glyph glyph-name="tcaron" unicode="&#x165;" horiz-adv-x="410" 
d="M158 30.5q-38 40.5 -38 117.5v285h-96v47h96v120h54v-120h192v-47h-192v-280q0 -55 27 -84.5t79 -29.5q19 0 40 3t40 9v-49q-48 -12 -89 -12q-75 0 -113 40.5zM283 706h54l-48 -169h-47z" />
    <glyph glyph-name="Tbar" unicode="&#x166;" horiz-adv-x="548" 
d="M303 654v-221h165v-46h-165v-387h-57v387h-166v46h166v221h-235v52h526v-52h-234z" />
    <glyph glyph-name="tbar" unicode="&#x167;" horiz-adv-x="392" 
d="M174 433v-138h190v-44h-190v-98q0 -55 27 -84.5t79 -29.5q19 0 40 3t40 9v-49q-48 -12 -89 -12q-75 0 -113 40.5t-38 117.5v103h-97v44h97v138h-96v47h96v120h54v-120h192v-47h-192z" />
    <glyph glyph-name="Utilde" unicode="&#x168;" horiz-adv-x="723" 
d="M143 51q-71 67 -71 204v451h57v-449q0 -76 24.5 -124.5t75.5 -71.5t132 -23t132 23t75.5 71.5t24.5 124.5v449h57v-451q0 -138 -71 -204.5t-218 -66.5t-218 67zM397.5 772.5q-21.5 11.5 -48.5 37.5q-3 3 -18 17t-28.5 20t-27.5 6q-59 0 -64 -89h-48q3 63 31 98.5t80 35.5
q29 0 51 -12t49 -37q3 -3 18 -17t28.5 -20t27.5 -6q30 0 45.5 24t17.5 65h48q-2 -63 -29.5 -98.5t-79.5 -35.5q-31 0 -52.5 11.5z" />
    <glyph glyph-name="utilde" unicode="&#x169;" horiz-adv-x="610" 
d="M539 480v-480h-53v95q-28 -55 -80 -82t-122 -27q-106 0 -162 57.5t-56 168.5v268h54v-261q0 -91 44 -137t129 -46q93 0 143 51.5t50 145.5v247h53zM334 563q-21 14 -45 48q-3 4 -17 23t-27 27.5t-27 8.5q-30 0 -43 -30.5t-15 -88.5h-46q3 79 26.5 120.5t75.5 41.5
q31 0 51.5 -14.5t46.5 -48.5q11 -16 22.5 -30t22.5 -21t25 -7q31 0 43 29.5t15 88.5h46q-3 -80 -26 -120.5t-76 -40.5q-31 0 -52 14z" />
    <glyph glyph-name="Umacron" unicode="&#x16a;" horiz-adv-x="723" 
d="M143 51q-71 67 -71 204v451h57v-449q0 -76 24.5 -124.5t75.5 -71.5t132 -23t132 23t75.5 71.5t24.5 124.5v449h57v-451q0 -138 -71 -204.5t-218 -66.5t-218 67zM194 854h335v-48h-335v48z" />
    <glyph glyph-name="umacron" unicode="&#x16b;" horiz-adv-x="610" 
d="M539 480v-480h-53v95q-28 -55 -80 -82t-122 -27q-106 0 -162 57.5t-56 168.5v268h54v-261q0 -91 44 -137t129 -46q93 0 143 51.5t50 145.5v247h53zM136 654h330v-47h-330v47z" />
    <glyph glyph-name="Ubreve" unicode="&#x16c;" horiz-adv-x="723" 
d="M143 51q-71 67 -71 204v451h57v-449q0 -76 24.5 -124.5t75.5 -71.5t132 -23t132 23t75.5 71.5t24.5 124.5v449h57v-451q0 -138 -71 -204.5t-218 -66.5t-218 67zM237.5 796.5q-41.5 35.5 -45.5 101.5h48q5 -47 33.5 -71t88.5 -24t88.5 24t32.5 71h48q-3 -66 -44.5 -101.5
t-124.5 -35.5t-124.5 35.5z" />
    <glyph glyph-name="ubreve" unicode="&#x16d;" horiz-adv-x="610" 
d="M539 480v-480h-53v95q-28 -55 -80 -82t-122 -27q-106 0 -162 57.5t-56 168.5v268h54v-261q0 -91 44 -137t129 -46q93 0 143 51.5t50 145.5v247h53zM179.5 589q-38.5 40 -42.5 121h48q4 -62 30 -91t86 -29q41 0 66 13t37 39.5t15 67.5h47q-4 -81 -42.5 -121t-122.5 -40
q-83 0 -121.5 40z" />
    <glyph glyph-name="Uring" unicode="&#x16e;" horiz-adv-x="723" 
d="M143 51q-71 67 -71 204v451h57v-449q0 -76 24.5 -124.5t75.5 -71.5t132 -23t132 23t75.5 71.5t24.5 124.5v449h57v-451q0 -138 -71 -204.5t-218 -66.5t-218 67zM282.5 757q-29.5 27 -29.5 73t29.5 73t78.5 27t78.5 -27t29.5 -73t-29.5 -73t-78.5 -27t-78.5 27zM410 785
q18 17 18 45q0 29 -18 46t-49 17t-49 -17t-18 -46q0 -28 18 -45t49 -17t49 17z" />
    <glyph glyph-name="uring" unicode="&#x16f;" horiz-adv-x="610" 
d="M539 480v-480h-53v95q-28 -55 -80 -82t-122 -27q-106 0 -162 57.5t-56 168.5v268h54v-261q0 -91 44 -137t129 -46q93 0 143 51.5t50 145.5v247h53zM222.5 568q-29.5 27 -29.5 73t29.5 73t78.5 27t78.5 -27t29.5 -73t-29.5 -73t-78.5 -27t-78.5 27zM350 596q18 17 18 45
q0 29 -18 46t-49 17t-49 -17t-18 -46q0 -28 18 -45t49 -17t49 17z" />
    <glyph glyph-name="Uhungarumlaut" unicode="&#x170;" horiz-adv-x="723" 
d="M143 51q-71 67 -71 204v451h57v-449q0 -76 24.5 -124.5t75.5 -71.5t132 -23t132 23t75.5 71.5t24.5 124.5v449h57v-451q0 -138 -71 -204.5t-218 -66.5t-218 67zM373 898h69l-152 -133h-63zM538 898h68l-151 -133h-63z" />
    <glyph glyph-name="uhungarumlaut" unicode="&#x171;" horiz-adv-x="610" 
d="M539 480v-480h-53v95q-28 -55 -80 -82t-122 -27q-106 0 -162 57.5t-56 168.5v268h54v-261q0 -91 44 -137t129 -46q93 0 143 51.5t50 145.5v247h53zM290 710h61l-134 -158h-55zM464 710h61l-135 -158h-55z" />
    <glyph glyph-name="Uogonek" unicode="&#x172;" horiz-adv-x="723" 
d="M650 706v-451q0 -63 -14 -108t-40 -77t-67 -60q-56 -40 -81 -69t-25 -61q0 -25 14.5 -38t40.5 -13q30 0 58 12v-43q-31 -11 -63 -11q-46 0 -73.5 23t-27.5 66q0 32 17 58.5t51 55.5q-36 -6 -79 -6q-147 0 -218 67t-71 204v451h57v-449q0 -76 24.5 -124.5t75.5 -71.5
t132 -23t132 23t75.5 71.5t24.5 124.5v449h57z" />
    <glyph glyph-name="uogonek" unicode="&#x173;" horiz-adv-x="610" 
d="M547 -158v-44q-31 -11 -64 -11q-45 0 -72.5 21.5t-27.5 61.5q0 38 25.5 69.5t77.5 67.5v88q-28 -55 -80 -82t-122 -27q-106 0 -162 57.5t-56 168.5v268h54v-261q0 -91 44 -137t129 -46q93 0 143 51.5t50 145.5v247h53v-480q-56 -38 -80.5 -65.5t-24.5 -58.5
q0 -23 14.5 -34.5t40.5 -11.5q31 0 58 12z" />
    <glyph glyph-name="Wcircumflex" unicode="&#x174;" horiz-adv-x="1064" 
d="M1061 706l-250 -706h-61l-218 637l-218 -637h-60l-251 706h59l223 -630l215 630h64l215 -630l223 630h59zM496 898h72l155 -133h-74l-117 100l-117 -100h-74z" />
    <glyph glyph-name="wcircumflex" unicode="&#x175;" horiz-adv-x="834" 
d="M821 480l-199 -480h-57l-148 412l-148 -412h-56l-200 480h59l168 -418l150 418h55l149 -418l168 418h59zM382 710h70l130 -158h-64l-101 124l-101 -124h-64z" />
    <glyph glyph-name="Ycircumflex" unicode="&#x176;" horiz-adv-x="653" 
d="M299 304l-296 402h70l254 -348l254 348h70l-295 -402v-304h-57v304zM292 898h72l155 -133h-74l-117 100l-117 -100h-74z" />
    <glyph glyph-name="ycircumflex" unicode="&#x177;" horiz-adv-x="560" 
d="M546 480l-249 -480l-106 -203h-59l111 212l-230 471h61l200 -415l212 415h60zM244 710h70l130 -158h-64l-101 124l-101 -124h-64z" />
    <glyph glyph-name="Ydieresis" unicode="&#x178;" horiz-adv-x="653" 
d="M299 304l-296 402h70l254 -348l254 348h70l-295 -402v-304h-57v304zM171.5 803q-11.5 11 -11.5 29q0 17 11.5 28.5t30.5 11.5q17 0 29 -11.5t12 -28.5q0 -18 -11.5 -29t-29.5 -11q-19 0 -30.5 11zM420.5 803q-11.5 11 -11.5 29q0 17 11.5 28.5t29.5 11.5t30 -11.5
t12 -28.5q0 -18 -12 -29t-30 -11t-29.5 11z" />
    <glyph glyph-name="Zacute" unicode="&#x179;" horiz-adv-x="677" 
d="M529 654h-491v52h601l-509 -654h522v-52h-633zM410 898h78l-168 -133h-74z" />
    <glyph glyph-name="zacute" unicode="&#x17a;" horiz-adv-x="511" 
d="M492 48v-48h-481l371 433h-338v47h446l-369 -432h371zM311 710h66l-125 -158h-61z" />
    <glyph glyph-name="Zdotaccent" unicode="&#x17b;" horiz-adv-x="677" 
d="M529 654h-491v52h601l-509 -654h522v-52h-633zM304 802.5q-12 11.5 -12 29.5t12 29.5t31 11.5q18 0 30 -11.5t12 -29.5t-12 -29.5t-30 -11.5q-19 0 -31 11.5z" />
    <glyph glyph-name="zdotaccent" unicode="&#x17c;" horiz-adv-x="511" 
d="M492 48v-48h-481l371 433h-338v47h446l-369 -432h371zM231.5 604q-11.5 11 -11.5 29t11.5 29.5t30.5 11.5q18 0 30 -11.5t12 -29.5t-12 -29t-30 -11q-19 0 -30.5 11z" />
    <glyph glyph-name="Zcaron" unicode="&#x17d;" horiz-adv-x="677" 
d="M529 654h-491v52h601l-509 -654h522v-52h-633zM370 765h-72l-155 133h74l117 -100l117 100h74z" />
    <glyph glyph-name="zcaron" unicode="&#x17e;" horiz-adv-x="511" 
d="M492 48v-48h-481l371 433h-338v47h446l-369 -432h371zM296 552h-69l-130 158h64l101 -124l101 124h64z" />
    <glyph glyph-name="Schwa" unicode="&#x18f;" horiz-adv-x="861" 
d="M814 353q0 -101 -33 -175q-42 -92 -132.5 -143t-224.5 -51q-128 0 -216 47.5t-128 136.5q-33 75 -33 173v22h707q-2 86 -29 145q-35 76 -112.5 118t-192.5 42q-74 0 -134.5 -18t-99.5 -54q-60 -53 -70 -144h-60q5 56 28 102.5t60 80.5q48 44 118.5 65.5t157.5 21.5
q136 0 227.5 -50.5t132.5 -143.5q34 -72 34 -175zM614 80q77 42 111 118q23 54 27 113h-647q2 -72 25 -122q33 -74 109.5 -112.5t183.5 -38.5q114 0 191 42z" />
    <glyph glyph-name="florin" unicode="&#x192;" horiz-adv-x="444" 
d="M25 0v49q28 -7 59 -7q55 0 83 29.5t28 91.5v224h-168v44h168v117q0 86 38.5 127t117.5 41q35 0 68 -7v-49q-27 6 -60 6q-56 0 -83 -29.5t-27 -91.5v-114h169v-44h-169v-227q0 -86 -38.5 -127t-118.5 -41q-31 0 -67 8z" />
    <glyph glyph-name="Aringacute" unicode="&#x1fa;" horiz-adv-x="720" 
d="M562 211h-404l-93 -211h-62l316 706h82l317 -706h-62zM540 262l-179 402h-2l-178 -402h359zM281.5 757q-29.5 27 -29.5 73t29.5 73t78.5 27t78.5 -27t29.5 -73t-29.5 -73t-78.5 -27t-78.5 27zM409 785q18 17 18 45q0 29 -18 46t-49 17t-49 -17t-18 -46q0 -28 18 -45
t49 -17t49 17zM436 1122h78l-168 -133h-74z" />
    <glyph glyph-name="aringacute" unicode="&#x1fb;" horiz-adv-x="599" 
d="M533 285v-285h-54v92q-30 -51 -88.5 -78.5t-145.5 -27.5q-71 0 -119.5 20.5t-67.5 63.5q-12 26 -12 60q0 32 12 56q23 52 90 71.5t172 19.5h159v12q0 47 -14 81q-34 76 -168 76q-64 0 -106.5 -17.5t-58.5 -53.5q-10 -20 -10 -47h-54q0 36 15 69q21 49 75 73t138 24
q87 0 140.5 -25.5t76.5 -78.5q20 -43 20 -105zM384.5 60q53.5 26 76.5 77q18 39 18 90v6h-158q-85 0 -139.5 -14.5t-71.5 -51.5q-8 -16 -8 -35q0 -20 8 -38q14 -31 51.5 -45.5t92.5 -14.5q77 0 130.5 26zM224.5 568q-29.5 27 -29.5 73t29.5 73t78.5 27t78.5 -27t29.5 -73
t-29.5 -73t-78.5 -27t-78.5 27zM352 596q18 17 18 45q0 29 -18 46t-49 17t-49 -17t-18 -46q0 -28 18 -45t49 -17t49 17zM352 971h66l-125 -158h-61z" />
    <glyph glyph-name="AEacute" unicode="&#x1fc;" horiz-adv-x="907" 
d="M446 655l53 -272h354v-51h-344l54 -281h294v-51h-343l-40 212h-306l-103 -212h-62l348 706h506v-51h-411zM464 263l-76 398h-2l-193 -398h271zM580 898h78l-168 -133h-74z" />
    <glyph glyph-name="aeacute" unicode="&#x1fd;" horiz-adv-x="1021" 
d="M927 172h55q-10 -78 -61 -126q-33 -30 -79.5 -45t-103.5 -15q-86 0 -145 34.5t-87 96.5q-1 2 -2 4.5t-2 5.5q-27 -68 -90.5 -104.5t-166.5 -36.5q-71 0 -119.5 20.5t-67.5 63.5q-12 26 -12 60q0 33 12 58q23 51 89.5 70.5t172.5 19.5h159v14q0 45 -14 78q-34 76 -168 76
q-64 0 -106.5 -17.5t-58.5 -53.5q-10 -20 -10 -47h-54q0 36 15 69q21 48 76.5 72.5t136.5 24.5q87 0 140 -25t76 -78l3 -8q30 53 85 82t132 29q86 0 142.5 -34.5t84.5 -96.5q25 -56 25 -129h-451q2 -55 19 -96q22 -50 69.5 -77.5t116.5 -27.5q44 0 82 12.5t63 35.5
q36 35 44 91zM535 278h394q-3 37 -17 70q-22 47 -67.5 72.5t-112.5 25.5t-112 -26t-67 -73q-13 -27 -18 -69zM479 235h-158q-88 0 -141 -14t-70 -52q-8 -18 -8 -37q0 -20 8 -38q14 -31 51.5 -45.5t92.5 -14.5q77 0 130.5 26t76.5 76q18 39 18 95v4zM579 710h66l-125 -158
h-61z" />
    <glyph glyph-name="Oslashacute" unicode="&#x1fe;" horiz-adv-x="871" 
d="M790 530q34 -77 34 -177q0 -101 -35 -178q-41 -90 -130 -140.5t-224 -50.5q-84 0 -150 20t-114 58l-63 -62h-70l97 94q-31 34 -51 77q-37 75 -37 182q0 102 34 177q41 90 130 141t224 51q83 0 149.5 -20t115.5 -57l62 61h69l-95 -94q32 -35 54 -82zM107 353
q0 -88 29 -155q19 -39 41 -64l480 471q-84 63 -222 63q-115 0 -190 -42.5t-109 -117.5q-29 -67 -29 -155zM764 353q0 89 -30 155q-18 37 -42 64l-479 -471q86 -63 222 -63q115 0 190 42.5t109 117.5q30 66 30 155zM511 898h78l-168 -133h-74z" />
    <glyph glyph-name="oslashacute" unicode="&#x1ff;" horiz-adv-x="630" 
d="M594 240q0 -64 -24 -115q-29 -65 -94 -102t-161 -37q-106 0 -176 46l-33 -32h-61l60 60q-28 28 -45 65q-24 51 -24 115q0 63 24 115q29 65 94 102t161 37q106 0 176 -46l32 32h61l-59 -59q29 -29 45 -66q24 -51 24 -115zM112 144q12 -26 32 -48l309 314q-56 35 -138 35
q-77 0 -129 -29t-74 -80q-19 -41 -19 -96t19 -96zM537 240q0 55 -18 95q-12 27 -33 48l-309 -313q56 -35 138 -35q77 0 128.5 29t74.5 80q19 42 19 96zM364 710h66l-125 -158h-61z" />
    <glyph glyph-name="Scommaaccent" unicode="&#x218;" horiz-adv-x="727" 
d="M177 20.5q-77 36.5 -108 105.5q-22 48 -22 116h60q0 -55 17 -93q26 -56 89 -85t163 -29q92 0 152 25.5t80 71.5q11 22 11 51q0 26 -10 49q-15 32 -51.5 52t-83 30.5t-123.5 23.5q-75 13 -125.5 26.5t-89.5 36.5t-56 60q-12 27 -12 63q0 38 15 71q17 38 55 67t93 44.5
t122 15.5q105 0 175 -35.5t100 -100.5q20 -46 20 -107h-58q-2 49 -17 86q-23 51 -79 78.5t-141 27.5q-83 0 -140 -26t-76 -70q-9 -22 -9 -46q0 -27 8 -43q13 -29 47.5 -47.5t77 -28t121.5 -23.5q80 -14 132 -27.5t93 -38.5t59 -65q14 -31 14 -69q0 -41 -16 -76
q-28 -61 -102.5 -94t-186.5 -33q-121 0 -198 36.5zM349 -61h56l-43 -150h-50z" />
    <glyph glyph-name="scommaaccent" unicode="&#x219;" horiz-adv-x="521" 
d="M127.5 12q-52.5 26 -75.5 75q-14 35 -16 80h54q0 -32 12 -58q16 -37 57 -56.5t104 -19.5q64 0 104.5 16t54.5 46q7 14 7 34q0 16 -6 29q-9 21 -34 33t-54 17.5t-94 15.5q-72 12 -116 30t-60 56q-9 21 -9 47q0 30 10 51q18 40 67 63t120 23q77 0 127.5 -25.5t70.5 -70.5
q13 -29 13 -67h-53q0 28 -10 48q-15 33 -53.5 50.5t-95.5 17.5q-54 0 -88 -14.5t-46 -41.5q-6 -11 -6 -31q0 -18 5 -27q9 -20 33 -32t51.5 -17.5t83.5 -13.5q52 -8 88 -18t63.5 -27.5t39.5 -45.5q9 -21 9 -48q0 -31 -11 -54q-20 -44 -75 -67.5t-137 -23.5t-134.5 26z
M243 -59h56l-43 -150h-50z" />
    <glyph glyph-name="uni021A" unicode="&#x21a;" horiz-adv-x="548" 
d="M246 654h-235v52h526v-52h-234v-654h-57v654zM247 -53h56l-43 -150h-50z" />
    <glyph glyph-name="uni021B" unicode="&#x21b;" horiz-adv-x="392" 
d="M158 30.5q-38 40.5 -38 117.5v285h-96v47h96v120h54v-120h192v-47h-192v-280q0 -55 27 -84.5t79 -29.5q19 0 40 3t40 9v-49q-48 -12 -89 -12q-75 0 -113 40.5zM220 -57h56l-43 -150h-50z" />
    <glyph glyph-name="dotlessj" unicode="&#x237;" horiz-adv-x="195" 
d="M-56 -205v50q22 -3 42 -3q44 0 64.5 21t20.5 68v549h53v-551q0 -71 -32 -103.5t-102 -32.5q-30 0 -46 2z" />
    <glyph glyph-name="schwa" unicode="&#x259;" horiz-adv-x="626" 
d="M589 241q0 -70 -23 -117q-29 -65 -95 -101.5t-159 -36.5t-158 36.5t-93 100.5q-24 54 -25 125h499q-1 51 -18 90q-24 52 -77.5 80t-132.5 28q-52 0 -96 -13t-73 -39q-38 -35 -44 -86h-55q10 73 61 119q36 33 89.5 50t118.5 17q96 0 162.5 -37t95.5 -102q23 -47 23 -114z
M533 204h-441q3 -34 16 -65q23 -50 75 -77.5t128 -27.5q78 0 130 28t75 80q12 26 17 62z" />
    <glyph glyph-name="circumflex" unicode="&#x2c6;" horiz-adv-x="430" 
d="M180 710h70l130 -158h-64l-101 124l-101 -124h-64z" />
    <glyph glyph-name="caron" unicode="&#x2c7;" horiz-adv-x="430" 
d="M249 552h-69l-130 158h64l101 -124l101 124h64z" />
    <glyph glyph-name="uni02C9" unicode="&#x2c9;" horiz-adv-x="430" 
d="M50 654h330v-47h-330v47z" />
    <glyph glyph-name="breve" unicode="&#x2d8;" horiz-adv-x="429" 
d="M92.5 589q-38.5 40 -42.5 121h48q4 -62 30 -91t86 -29q41 0 66 13t37 39.5t15 67.5h47q-4 -81 -42.5 -121t-122.5 -40q-83 0 -121.5 40z" />
    <glyph glyph-name="dotaccent" unicode="&#x2d9;" horiz-adv-x="184" 
d="M61.5 604q-11.5 11 -11.5 29t11.5 29.5t30.5 11.5q18 0 30 -11.5t12 -29.5t-12 -29t-30 -11q-19 0 -30.5 11z" />
    <glyph glyph-name="ring" unicode="&#x2da;" horiz-adv-x="316" 
d="M79.5 568q-29.5 27 -29.5 73t29.5 73t78.5 27t78.5 -27t29.5 -73t-29.5 -73t-78.5 -27t-78.5 27zM207 596q18 17 18 45q0 29 -18 46t-49 17t-49 -17t-18 -46q0 -28 18 -45t49 -17t49 17z" />
    <glyph glyph-name="ogonek" unicode="&#x2db;" horiz-adv-x="264" 
d="M77.5 -191.5q-27.5 21.5 -27.5 61.5q0 39 27.5 72t84.5 71l44 -13q-56 -38 -80.5 -65.5t-24.5 -58.5q0 -23 14.5 -34.5t40.5 -11.5q31 0 58 12v-44q-31 -11 -64 -11q-45 0 -72.5 21.5z" />
    <glyph glyph-name="tilde" unicode="&#x2dc;" horiz-adv-x="474" 
d="M270 563q-21 14 -45 48q-3 4 -17 23t-27 27.5t-27 8.5q-30 0 -43 -30.5t-15 -88.5h-46q3 79 26.5 120.5t75.5 41.5q31 0 51.5 -14.5t46.5 -48.5q11 -16 22.5 -30t22.5 -21t25 -7q31 0 43 29.5t15 88.5h46q-3 -80 -26 -120.5t-76 -40.5q-31 0 -52 14z" />
    <glyph glyph-name="hungarumlaut" unicode="&#x2dd;" horiz-adv-x="463" 
d="M178 710h61l-134 -158h-55zM352 710h61l-135 -158h-55z" />
    <glyph glyph-name="gravecomb" unicode="&#x300;" 
d="M-111 552l-125 158h66l120 -158h-61z" />
    <glyph glyph-name="acutecomb" unicode="&#x301;" 
d="M-116 710h66l-125 -158h-61z" />
    <glyph glyph-name="circumflexcomb" unicode="&#x302;" 
d="M-250 710h70l130 -158h-64l-101 124l-101 -124h-64z" />
    <glyph glyph-name="tildecomb" unicode="&#x303;" 
d="M-204 563q-21 14 -45 48q-3 4 -17 23t-27 27.5t-27 8.5q-30 0 -43 -30.5t-15 -88.5h-46q3 79 26.5 120.5t75.5 41.5q31 0 51.5 -14.5t46.5 -48.5q11 -16 22.5 -30t22.5 -21t25 -7q31 0 43 29.5t15 88.5h46q-3 -80 -26 -120.5t-76 -40.5q-31 0 -52 14z" />
    <glyph glyph-name="macroncomb" unicode="&#x304;" 
d="M-380 654h330v-47h-330v47z" />
    <glyph glyph-name="brevecomb" unicode="&#x306;" 
d="M-336.5 589q-38.5 40 -42.5 121h48q4 -62 30 -91t86 -29q41 0 66 13t37 39.5t15 67.5h47q-4 -81 -42.5 -121t-122.5 -40q-83 0 -121.5 40z" />
    <glyph glyph-name="dotaccentcomb" unicode="&#x307;" 
d="M-122.5 604q-11.5 11 -11.5 29t11.5 29.5t30.5 11.5q18 0 30 -11.5t12 -29.5t-12 -29t-30 -11q-19 0 -30.5 11z" />
    <glyph glyph-name="dieresiscomb" unicode="&#x308;" 
d="M-336.5 603q-11.5 11 -11.5 29t11.5 29.5t30.5 11.5q17 0 29 -12t12 -29q0 -18 -11.5 -29t-29.5 -11q-19 0 -30.5 11zM-121.5 603q-11.5 11 -11.5 29t11.5 29.5t30.5 11.5q17 0 29 -12t12 -29q0 -18 -11.5 -29t-29.5 -11q-19 0 -30.5 11z" />
    <glyph glyph-name="ringcomb" unicode="&#x30a;" 
d="M-236.5 568q-29.5 27 -29.5 73t29.5 73t78.5 27t78.5 -27t29.5 -73t-29.5 -73t-78.5 -27t-78.5 27zM-109 596q18 17 18 45q0 29 -18 46t-49 17t-49 -17t-18 -46q0 -28 18 -45t49 -17t49 17z" />
    <glyph glyph-name="hungarumlautcomb" unicode="&#x30b;" 
d="M-285 710h61l-134 -158h-55zM-111 710h61l-135 -158h-55z" />
    <glyph glyph-name="caroncomb" unicode="&#x30c;" 
d="M-181 552h-69l-130 158h64l101 -124l101 124h64z" />
    <glyph glyph-name="commaturnedabovecomb" unicode="&#x312;" 
d="M-87 557h-56l43 150h50z" />
    <glyph glyph-name="commaaccent" unicode="&#x326;" 
d="M-106 -53h56l-43 -150h-50z" />
    <glyph glyph-name="cedillacomb" unicode="&#x327;" 
d="M-50 -131q0 -83 -121 -83q-48 0 -90 14l10 40q35 -13 78 -13q38 0 57.5 10t19.5 32q0 23 -20.5 34t-64.5 11h-54l40 93h49l-25 -57h3q118 0 118 -81z" />
    <glyph glyph-name="ogonekcomb" unicode="&#x328;" 
d="M-186.5 -191.5q-27.5 21.5 -27.5 61.5q0 39 27.5 72t84.5 71l44 -13q-56 -38 -80.5 -65.5t-24.5 -58.5q0 -23 14.5 -34.5t40.5 -11.5q31 0 58 12v-44q-31 -11 -64 -11q-45 0 -72.5 21.5z" />
    <glyph glyph-name="uni0335" unicode="&#x335;" 
d="M-391 327h341v-44h-341v44z" />
    <glyph glyph-name="uni0336" unicode="&#x336;" 
d="M-498 653h498v-45h-498v45z" />
    <glyph glyph-name="uni0337" unicode="&#x337;" 
d="M0 481v-52l-102 -74v8l-101 -72v52l101 73v-8z" />
    <glyph glyph-name="uni0338" unicode="&#x338;" 
d="M-494 85h3l343 348h1l46 47h61l-89 -89h-1l-343 -348l-2 -1l-43 -42h-61z" />
    <glyph glyph-name="uni0394" unicode="&#x394;" horiz-adv-x="720" 
d="M718 0h-715l316 706h82zM633 51l-272 612h-2l-271 -612h545z" />
    <glyph glyph-name="uni03A9" unicode="&#x3a9;" horiz-adv-x="794" 
d="M647 201q-50 -39 -122 -56v-94h187v-51h-239v186q72 13 121 46.5t72 84.5q22 47 22 112q0 58 -21 104q-29 65 -98.5 100.5t-171.5 35.5t-172 -36t-99 -100q-20 -48 -20 -104q0 -64 21 -112q24 -51 72.5 -84.5t121.5 -46.5v-186h-239v51h187v94q-72 17 -122 55.5t-74 94.5
q-26 56 -26 133q0 74 25 128q36 79 120 122.5t205 43.5t205 -43.5t120 -122.5q25 -58 25 -128q0 -74 -26 -132q-24 -56 -74 -95z" />
    <glyph glyph-name="uni03BC" unicode="&#x3bc;" horiz-adv-x="615" 
d="M544 480v-480h-54v92q-28 -53 -79 -79.5t-120 -26.5q-60 0 -102.5 22.5t-66.5 65.5q3 -58 3 -119v-158h-54v683h54v-254q0 -95 44.5 -142.5t131.5 -47.5q91 0 140 51.5t49 145.5v247h54z" />
    <glyph glyph-name="pi" unicode="&#x3c0;" horiz-adv-x="795" 
d="M600 30.5q-38 40.5 -38 117.5v285h-331v-433h-54v433h-119v47h678v-47h-120v-280q0 -55 27 -84.5t79 -29.5q9 0 14 1v-48q-14 -2 -22 -2q-76 0 -114 40.5z" />
    <glyph glyph-name="Wgrave" unicode="&#x1e80;" horiz-adv-x="1064" 
d="M1061 706l-250 -706h-61l-218 637l-218 -637h-60l-251 706h59l223 -630l215 630h64l215 -630l223 630h59zM546 765l-168 133h78l164 -133h-74z" />
    <glyph glyph-name="wgrave" unicode="&#x1e81;" horiz-adv-x="834" 
d="M821 480l-199 -480h-57l-148 412l-148 -412h-56l-200 480h59l168 -418l150 418h55l149 -418l168 418h59zM427 552l-125 158h66l120 -158h-61z" />
    <glyph glyph-name="Wacute" unicode="&#x1e82;" horiz-adv-x="1064" 
d="M1061 706l-250 -706h-61l-218 637l-218 -637h-60l-251 706h59l223 -630l215 630h64l215 -630l223 630h59zM608 898h78l-168 -133h-74z" />
    <glyph glyph-name="wacute" unicode="&#x1e83;" horiz-adv-x="834" 
d="M821 480l-199 -480h-57l-148 412l-148 -412h-56l-200 480h59l168 -418l150 418h55l149 -418l168 418h59zM466 710h66l-125 -158h-61z" />
    <glyph glyph-name="Wdieresis" unicode="&#x1e84;" horiz-adv-x="1064" 
d="M1061 706l-250 -706h-61l-218 637l-218 -637h-60l-251 706h59l223 -630l215 630h64l215 -630l223 630h59zM376.5 803q-11.5 11 -11.5 29q0 17 11.5 28.5t30.5 11.5q17 0 29 -11.5t12 -28.5q0 -18 -11.5 -29t-29.5 -11q-19 0 -30.5 11zM625.5 803q-11.5 11 -11.5 29
q0 17 11.5 28.5t29.5 11.5t30 -11.5t12 -28.5q0 -18 -12 -29t-30 -11t-29.5 11z" />
    <glyph glyph-name="wdieresis" unicode="&#x1e85;" horiz-adv-x="834" 
d="M821 480l-199 -480h-57l-148 412l-148 -412h-56l-200 480h59l168 -418l150 418h55l149 -418l168 418h59zM277.5 603q-11.5 11 -11.5 29t11.5 29.5t30.5 11.5q17 0 29 -12t12 -29q0 -18 -11.5 -29t-29.5 -11q-19 0 -30.5 11zM492.5 603q-11.5 11 -11.5 29t11.5 29.5
t30.5 11.5q17 0 29 -12t12 -29q0 -18 -11.5 -29t-29.5 -11q-19 0 -30.5 11z" />
    <glyph glyph-name="Germandbls" unicode="&#x1e9e;" horiz-adv-x="731" 
d="M684 203q0 -52 -18 -90q-27 -60 -94 -88.5t-168 -28.5q-77 0 -136 10v55q60 -11 132 -11q171 0 211 88q13 27 13 66q0 40 -13 67q-39 86 -205 86q-44 0 -59 -2v2l193 297h-404v-654h-57v706h558l1 -3l-194 -296q85 -3 141.5 -31t80.5 -82q18 -39 18 -91z" />
    <glyph glyph-name="Ygrave" unicode="&#x1ef2;" horiz-adv-x="653" 
d="M299 304l-296 402h70l254 -348l254 348h70l-295 -402v-304h-57v304zM341 765l-168 133h78l164 -133h-74z" />
    <glyph glyph-name="ygrave" unicode="&#x1ef3;" horiz-adv-x="560" 
d="M546 480l-249 -480l-106 -203h-59l111 212l-230 471h61l200 -415l212 415h60zM290 552l-125 158h66l120 -158h-61z" />
    <glyph glyph-name="uni2009" unicode="&#x2009;" horiz-adv-x="82" 
 />
    <glyph glyph-name="uni2011" unicode="&#x2011;" horiz-adv-x="445" 
d="M58 303h329v-53h-329v53z" />
    <glyph glyph-name="endash" unicode="&#x2013;" horiz-adv-x="650" 
d="M58 301h534v-50h-534v50z" />
    <glyph glyph-name="emdash" unicode="&#x2014;" horiz-adv-x="1278" 
d="M58 301h1162v-50h-1162v50z" />
    <glyph glyph-name="quoteleft" unicode="&#x2018;" horiz-adv-x="235" 
d="M109 416h-58l88 290h45z" />
    <glyph glyph-name="quoteright" unicode="&#x2019;" horiz-adv-x="235" 
d="M125 706h59l-88 -290h-45z" />
    <glyph glyph-name="quotesinglbase" unicode="&#x201a;" horiz-adv-x="235" 
d="M125 146h59l-88 -290h-45z" />
    <glyph glyph-name="quotedblleft" unicode="&#x201c;" horiz-adv-x="386" 
d="M109 416h-58l88 290h45zM261 416h-59l88 290h45z" />
    <glyph glyph-name="quotedblright" unicode="&#x201d;" horiz-adv-x="386" 
d="M276 706h59l-88 -290h-45zM125 706h59l-88 -290h-45z" />
    <glyph glyph-name="quotedblbase" unicode="&#x201e;" horiz-adv-x="386" 
d="M276 146h59l-88 -290h-45zM125 146h59l-88 -290h-45z" />
    <glyph glyph-name="dagger" unicode="&#x2020;" horiz-adv-x="433" 
d="M407 478h-162v-478h-56v478h-162v50h162v178h56v-178h162v-50z" />
    <glyph glyph-name="daggerdbl" unicode="&#x2021;" horiz-adv-x="433" 
d="M245 485v-263h162v-51h-162v-171h-56v171h-162v51h162v263h-162v51h162v170h56v-170h162v-51h-162z" />
    <glyph glyph-name="bullet" unicode="&#x2022;" horiz-adv-x="437" 
d="M150 298.5q-26 26.5 -26 69.5q0 45 25.5 70t68.5 25t69.5 -25.5t26.5 -69.5q0 -43 -26.5 -69.5t-69.5 -26.5q-42 0 -68 26.5z" />
    <glyph glyph-name="ellipsis" unicode="&#x2026;" horiz-adv-x="656" 
d="M296.5 -0.5q-11.5 11.5 -11.5 30.5t11.5 30.5t30.5 11.5t30.5 -11.5t11.5 -30.5t-11.5 -30.5t-30.5 -11.5t-30.5 11.5zM487.5 -0.5q-11.5 11.5 -11.5 30.5t11.5 30.5t30.5 11.5t30.5 -11.5t11.5 -30.5t-11.5 -30.5t-30.5 -11.5t-30.5 11.5zM106.5 -0.5
q-11.5 11.5 -11.5 30.5t11.5 30.5t30.5 11.5t30.5 -11.5t11.5 -30.5t-11.5 -30.5t-30.5 -11.5t-30.5 11.5z" />
    <glyph glyph-name="perthousand" unicode="&#x2030;" horiz-adv-x="1146" 
d="M97.5 429.5q-37.5 20.5 -53.5 57.5q-15 31 -15 74t15 73q16 37 53.5 58t93.5 21t93 -21t54 -58q14 -31 14 -73t-14 -74q-17 -37 -54 -57.5t-93 -20.5t-93.5 20.5zM648 706h57l-575 -706h-58zM295 504q11 22 11 57t-11 57q-23 53 -104 53q-41 0 -67 -14t-38 -39
q-10 -23 -10 -57t10 -57q23 -53 105 -53q81 0 104 53zM493.5 14q-37.5 21 -54.5 58q-14 31 -14 73t14 74q17 37 54.5 57.5t93.5 20.5t93 -20.5t54 -57.5q14 -32 14 -74t-14 -73q-17 -37 -54.5 -58t-92.5 -21q-56 0 -93.5 21zM862.5 14q-37.5 21 -54.5 58q-14 31 -14 73
t14 74q17 37 54 57.5t93 20.5t93.5 -20.5t53.5 -57.5q15 -34 15 -74t-15 -73q-16 -37 -53.5 -58t-93.5 -21q-55 0 -92.5 21zM653 49q26 14 38 39q10 20 10 57q0 38 -10 57q-12 26 -38 40t-66 14q-81 0 -105 -54q-10 -20 -10 -57t10 -57q12 -25 38 -39t67 -14q40 0 66 14z
M1022 49q26 14 38 39q10 23 10 57q0 36 -10 57q-25 54 -105 54t-105 -54q-10 -23 -10 -57t10 -57q26 -53 105 -53q41 0 67 14z" />
    <glyph glyph-name="guilsinglleft" unicode="&#x2039;" horiz-adv-x="293" 
d="M24 274l174 160h70l-173 -160l173 -160h-70z" />
    <glyph glyph-name="guilsinglright" unicode="&#x203a;" horiz-adv-x="293" 
d="M25 114l173 160l-173 160h70l174 -160l-174 -160h-70z" />
    <glyph glyph-name="fraction" unicode="&#x2044;" horiz-adv-x="189" 
d="M322 706h55l-510 -706h-54z" />
    <glyph glyph-name="zero.superior" unicode="&#x2070;" horiz-adv-x="483" 
d="M128.5 454q-45.5 26 -67.5 74q-20 45 -20 104t20 104q22 48 67.5 74t113.5 26q67 0 112.5 -26t67.5 -74q20 -45 20 -104t-20 -104q-22 -48 -67.5 -74t-112.5 -26q-68 0 -113.5 26zM377 545q15 36 15 87t-15 87q-35 73 -135 73q-102 0 -135 -73q-16 -35 -16 -87t16 -87
q33 -73 135 -73q100 0 135 73z" />
    <glyph glyph-name="four.superior" unicode="&#x2074;" horiz-adv-x="416" 
d="M285 539h-281v2l237 285h93v-244h71v-43h-71v-101h-49v101zM285 582v227l-191 -227h191z" />
    <glyph glyph-name="five.superior" unicode="&#x2075;" horiz-adv-x="415" 
d="M107.5 449q-39.5 20 -56.5 56q-11 25 -11 54h48q0 -22 7 -37q11 -25 39.5 -38.5t71.5 -13.5t71.5 13.5t39.5 39.5q8 18 8 37t-8 37q-13 29 -49.5 43.5t-89.5 14.5q-64 0 -122 -18l39 189h252l-7 -41h-205l-23 -103q42 10 86 10q64 0 107 -21t60 -59q10 -21 10 -51
q0 -29 -11 -54q-17 -37 -58 -57.5t-100 -20.5t-98.5 20z" />
    <glyph glyph-name="six.superior" unicode="&#x2076;" horiz-adv-x="448" 
d="M409 562q0 -27 -11 -51q-17 -39 -60.5 -60.5t-105.5 -21.5q-130 0 -176 96q-19 42 -19 103q0 66 21 109q21 47 64.5 73t109.5 26q42 0 75 -11t54 -32q27 -27 36 -71h-49q-6 27 -22 43q-30 31 -93 31q-98 0 -132 -75q-16 -36 -16 -88q0 -14 1 -21v1q17 37 58 59t97 22
q58 0 99 -21.5t58 -59.5q11 -24 11 -51zM357 561q0 22 -7 37q-13 28 -43.5 42.5t-73.5 14.5q-44 0 -76 -16.5t-45 -44.5q-8 -18 -8 -34q0 -19 7 -32q12 -28 44.5 -43.5t76.5 -15.5q45 0 75.5 14t42.5 41q7 15 7 37z" />
    <glyph glyph-name="seven.superior" unicode="&#x2077;" horiz-adv-x="352" 
d="M263 782h-247v44h328l-225 -388h-56z" />
    <glyph glyph-name="eight.superior" unicode="&#x2078;" horiz-adv-x="442" 
d="M402 546q0 -21 -8 -42q-16 -36 -61.5 -55.5t-111.5 -19.5t-111.5 19.5t-61.5 55.5q-8 21 -8 42q0 23 8 39q11 22 34 38t56 23q-27 6 -46.5 19.5t-27.5 32.5q-7 19 -7 35q0 22 8 37q15 32 55.5 48.5t100.5 16.5t100.5 -16.5t55.5 -48.5q8 -18 8 -37q0 -18 -8 -36
q-17 -38 -73 -52q33 -7 56 -22.5t34 -37.5q8 -16 8 -39zM148.5 674.5q29.5 -11.5 72.5 -11.5t72.5 11.5t39.5 33.5q5 12 5 23q0 12 -5 24q-10 21 -39 32t-73 11t-73 -11.5t-39 -32.5q-5 -7 -5 -23q0 -11 5 -23q10 -22 39.5 -33.5zM352 547q0 13 -5 26q-11 25 -44.5 37.5
t-81.5 12.5q-49 0 -82 -12.5t-44 -37.5q-6 -12 -6 -26t6 -26q11 -26 44 -38.5t82 -12.5q48 0 81.5 13t44.5 38q5 13 5 26z" />
    <glyph glyph-name="nine.superior" unicode="&#x2079;" horiz-adv-x="448" 
d="M411 636q0 -66 -21 -109q-21 -47 -64.5 -73t-109.5 -26q-41 0 -74 11t-55 32q-28 29 -35 71h48q6 -27 22 -43q30 -31 94 -31q50 0 83 19.5t49 55.5t16 88q0 14 -1 21v-1q-17 -37 -58.5 -59t-97.5 -22q-57 0 -98 21.5t-58 59.5q-11 21 -11 51t11 51q17 39 60.5 60.5
t104.5 21.5q68 0 111.5 -25t64.5 -71q19 -42 19 -103zM344 704q0 19 -6 32q-12 27 -45 43t-77 16q-45 0 -75.5 -14t-41.5 -41q-8 -18 -8 -37t8 -37q12 -27 42.5 -42t73.5 -15q45 0 77 16.5t45 44.5q7 15 7 34z" />
    <glyph glyph-name="uni207A" unicode="&#x207a;" horiz-adv-x="367" 
d="M332 616h-128v-117h-40v117h-129v39h129v113h40v-113h128v-39z" />
    <glyph glyph-name="uni207B" unicode="&#x207b;" horiz-adv-x="367" 
d="M35 655h297v-39h-297v39z" />
    <glyph glyph-name="uni207C" unicode="&#x207c;" horiz-adv-x="367" 
d="M35 709h297v-37h-297v37zM35 595h297v-37h-297v37z" />
    <glyph glyph-name="uni207D" unicode="&#x207d;" horiz-adv-x="227" 
d="M88.5 489.5q-24.5 64.5 -24.5 142.5t24.5 142.5t72.5 125.5h46q-49 -59 -74.5 -125t-25.5 -143q0 -76 25.5 -142t74.5 -125h-46q-48 60 -72.5 124.5z" />
    <glyph glyph-name="uni207E" unicode="&#x207e;" horiz-adv-x="227" 
d="M20 365q49 59 74.5 125t25.5 142q0 77 -25.5 143t-74.5 125h46q48 -61 72 -125.5t24 -142.5t-24 -142.5t-72 -124.5h-46z" />
    <glyph glyph-name="n.superior" unicode="&#x207f;" horiz-adv-x="432" 
d="M347.5 676.5q39.5 -39.5 39.5 -117.5v-190h-46v183q0 61 -29 92.5t-87 31.5q-61 0 -96 -34.5t-35 -96.5v-176h-46v338h46v-66q19 37 54.5 56t84.5 19q75 0 114.5 -39.5z" />
    <glyph glyph-name="zero.inferior" unicode="&#x2080;" horiz-adv-x="483" 
d="M128.5 -104q-45.5 26 -67.5 74q-20 45 -20 104t20 104q22 48 67.5 74t113.5 26q67 0 112.5 -26t67.5 -74q20 -45 20 -104t-20 -104q-22 -48 -67.5 -74t-112.5 -26q-68 0 -113.5 26zM377 -13q15 36 15 87t-15 87q-35 73 -135 73q-102 0 -135 -73q-16 -35 -16 -87t16 -87
q33 -73 135 -73q100 0 135 73z" />
    <glyph glyph-name="one.inferior" unicode="&#x2081;" horiz-adv-x="245" 
d="M120 224h-100l8 44h141v-388h-49v344z" />
    <glyph glyph-name="two.inferior" unicode="&#x2082;" horiz-adv-x="402" 
d="M30 -115l201 158q31 25 48.5 43t24.5 34.5t7 35.5q0 16 -7 33q-22 47 -101 47q-41 0 -68 -14.5t-39 -40.5q-9 -21 -9 -48h-50q0 19 3 34.5t10 31.5q17 38 57 58.5t97 20.5q55 0 93.5 -18t54.5 -53q10 -21 10 -50q0 -36 -18.5 -64.5t-64.5 -65.5l-134 -102h219v-45h-334v5
z" />
    <glyph glyph-name="three.inferior" unicode="&#x2083;" horiz-adv-x="427" 
d="M387 -13q0 -25 -9 -46q-16 -35 -59.5 -53t-103.5 -18q-63 0 -107 21.5t-62 60.5q-13 29 -13 65h47q0 -26 9 -46q14 -29 46 -44.5t79 -15.5q45 0 75 12t41 36q6 14 6 31t-6 29q-11 25 -43.5 36t-86.5 11h-15v38h15q50 0 80 10t40 32q5 12 5 25q0 12 -5 24q-10 22 -37 33
t-68 11q-46 0 -76.5 -14t-42.5 -40q-7 -15 -7 -37h-46q0 31 10 52q17 38 60 58t104 20q56 0 95.5 -17t54.5 -49q7 -17 7 -39q0 -20 -6 -35q-18 -39 -77 -52q33 -6 55 -20.5t33 -36.5q8 -16 8 -42z" />
    <glyph glyph-name="four.inferior" unicode="&#x2084;" horiz-adv-x="416" 
d="M285 -19h-281v2l237 285h93v-244h71v-43h-71v-101h-49v101zM285 24v227l-191 -227h191z" />
    <glyph glyph-name="five.inferior" unicode="&#x2085;" horiz-adv-x="415" 
d="M107.5 -109q-39.5 20 -56.5 56q-11 25 -11 54h48q0 -22 7 -37q11 -25 39.5 -38.5t71.5 -13.5t71.5 13.5t39.5 39.5q8 18 8 37t-8 37q-13 29 -49.5 43.5t-89.5 14.5q-64 0 -122 -18l39 189h252l-7 -41h-205l-23 -103q42 10 86 10q64 0 107 -21t60 -59q10 -21 10 -51
q0 -29 -11 -54q-17 -37 -58 -57.5t-100 -20.5t-98.5 20z" />
    <glyph glyph-name="six.inferior" unicode="&#x2086;" horiz-adv-x="448" 
d="M409 4q0 -27 -11 -51q-17 -39 -60.5 -60.5t-105.5 -21.5q-130 0 -176 96q-19 42 -19 103q0 66 21 109q21 47 64.5 73t109.5 26q42 0 75 -11t54 -32q27 -27 36 -71h-49q-6 27 -22 43q-30 31 -93 31q-98 0 -132 -75q-16 -36 -16 -88q0 -14 1 -21v1q17 37 58 59t97 22
q58 0 99 -21.5t58 -59.5q11 -24 11 -51zM357 3q0 22 -7 37q-13 28 -43.5 42.5t-73.5 14.5q-44 0 -76 -16.5t-45 -44.5q-8 -18 -8 -34q0 -19 7 -32q12 -28 44.5 -43.5t76.5 -15.5q45 0 75.5 14t42.5 41q7 15 7 37z" />
    <glyph glyph-name="seven.inferior" unicode="&#x2087;" horiz-adv-x="352" 
d="M263 224h-247v44h328l-225 -388h-56z" />
    <glyph glyph-name="eight.inferior" unicode="&#x2088;" horiz-adv-x="442" 
d="M402 -12q0 -21 -8 -42q-16 -36 -61.5 -55.5t-111.5 -19.5t-111.5 19.5t-61.5 55.5q-8 21 -8 42q0 23 8 39q11 22 34 38t56 23q-27 6 -46.5 19.5t-27.5 32.5q-7 19 -7 35q0 22 8 37q15 32 55.5 48.5t100.5 16.5t100.5 -16.5t55.5 -48.5q8 -18 8 -37q0 -18 -8 -36
q-17 -38 -73 -52q33 -7 56 -22.5t34 -37.5q8 -16 8 -39zM148.5 116.5q29.5 -11.5 72.5 -11.5t72.5 11.5t39.5 33.5q5 12 5 23q0 12 -5 24q-10 21 -39 32t-73 11t-73 -11.5t-39 -32.5q-5 -7 -5 -23q0 -11 5 -23q10 -22 39.5 -33.5zM352 -11q0 13 -5 26q-11 25 -44.5 37.5
t-81.5 12.5q-49 0 -82 -12.5t-44 -37.5q-6 -12 -6 -26t6 -26q11 -26 44 -38.5t82 -12.5q48 0 81.5 13t44.5 38q5 13 5 26z" />
    <glyph glyph-name="nine.inferior" unicode="&#x2089;" horiz-adv-x="448" 
d="M411 78q0 -66 -21 -109q-21 -47 -64.5 -73t-109.5 -26q-41 0 -74 11t-55 32q-28 29 -35 71h48q6 -27 22 -43q30 -31 94 -31q50 0 83 19.5t49 55.5t16 88q0 14 -1 21v-1q-17 -37 -58.5 -59t-97.5 -22q-57 0 -98 21.5t-58 59.5q-11 21 -11 51t11 51q17 39 60.5 60.5
t104.5 21.5q68 0 111.5 -25t64.5 -71q19 -42 19 -103zM344 146q0 19 -6 32q-12 27 -45 43t-77 16q-45 0 -75.5 -14t-41.5 -41q-8 -18 -8 -37t8 -37q12 -27 42.5 -42t73.5 -15q45 0 77 16.5t45 44.5q7 15 7 34z" />
    <glyph glyph-name="uni208A" unicode="&#x208a;" horiz-adv-x="367" 
d="M332 58h-128v-117h-40v117h-129v39h129v113h40v-113h128v-39z" />
    <glyph glyph-name="uni208B" unicode="&#x208b;" horiz-adv-x="367" 
d="M35 97h297v-39h-297v39z" />
    <glyph glyph-name="uni208C" unicode="&#x208c;" horiz-adv-x="367" 
d="M35 151h297v-37h-297v37zM35 37h297v-37h-297v37z" />
    <glyph glyph-name="uni208D" unicode="&#x208d;" horiz-adv-x="227" 
d="M88.5 -68.5q-24.5 64.5 -24.5 142.5t24.5 142.5t72.5 125.5h46q-49 -59 -74.5 -125t-25.5 -143q0 -76 25.5 -142t74.5 -125h-46q-48 60 -72.5 124.5z" />
    <glyph glyph-name="uni208E" unicode="&#x208e;" horiz-adv-x="227" 
d="M20 -193q49 59 74.5 125t25.5 142q0 77 -25.5 143t-74.5 125h46q48 -61 72 -125.5t24 -142.5t-24 -142.5t-72 -124.5h-46z" />
    <glyph glyph-name="uni2099" unicode="&#x2099;" horiz-adv-x="432" 
d="M347.5 134.5q39.5 -39.5 39.5 -117.5v-190h-46v183q0 61 -29 92.5t-87 31.5q-61 0 -96 -34.5t-35 -96.5v-176h-46v338h46v-66q19 37 54.5 56t84.5 19q75 0 114.5 -39.5z" />
    <glyph glyph-name="Euro" unicode="&#x20ac;" horiz-adv-x="886" 
d="M843 270q-3 -63 -25.5 -112.5t-62.5 -85.5q-47 -44 -118 -66t-159 -22q-135 0 -224.5 51.5t-130.5 141.5q-20 45 -28 100h-58v44h53q-1 11 -1 32q0 25 1 37h-53v44h58q9 54 28 95q41 90 131 141.5t224 51.5q86 0 156.5 -22.5t120.5 -67.5q38 -36 60 -84t26 -106h-60
q-7 93 -71 152q-41 37 -100 55.5t-132 18.5q-115 0 -190 -42.5t-109 -117.5q-14 -32 -22 -74h397v-44h-403q-1 -12 -1 -37q0 -21 1 -32h403v-44h-398q8 -46 23 -79q33 -75 108.5 -117.5t190.5 -42.5q75 0 134.5 18.5t99.5 55.5q65 57 72 158h59z" />
    <glyph glyph-name="uni20B9" unicode="&#x20b9;" horiz-adv-x="687" 
d="M457.5 316q-60.5 -25 -167.5 -25h-44l334 -291h-79l-384 336h154q97 0 148 18.5t70 60.5q11 24 13 62h-438v44h438q-2 40 -14 63q-18 42 -66.5 59.5t-139.5 17.5h-219v45h605v-44h-181q37 -22 56 -62q16 -33 17 -79h109v-44h-109q-3 -47 -18 -81q-24 -55 -84.5 -80z" />
    <glyph glyph-name="uni20BA" unicode="&#x20ba;" horiz-adv-x="677" 
d="M647 305q-3 -102 -31 -165q-32 -72 -103.5 -106t-191.5 -34h-169v258l-115 -44v45l115 44v75l-115 -43v45l115 44v282h56v-264l259 102v-45l-259 -102v-75l259 101v-45l-259 -101v-226h109q103 0 162.5 27.5t85.5 86.5q25 53 25 140h57z" />
    <glyph glyph-name="uni20BC" unicode="&#x20bc;" horiz-adv-x="920" 
d="M828 403q12 -53 12 -123v-280h-56v281q0 60 -10 106t-33 81q-34 54 -96 81t-157 27v-576h-57v576q-95 0 -157 -27.5t-96 -81.5q-22 -35 -32 -80.5t-10 -105.5v-281h-57v280q0 70 12 123.5t39 93.5q40 65 113.5 97.5t187.5 32.5v79h57v-79q114 0 188 -33t114 -97
q26 -41 38 -94z" />
    <glyph glyph-name="uni2113" unicode="&#x2113;" horiz-adv-x="443" 
d="M164 101q16 -31 43.5 -44.5t69.5 -13.5q61 0 112 27v-51q-27 -12 -57.5 -18t-60.5 -6q-85 0 -130 43t-53 140q-32 -3 -67 -3v45q35 0 65 3v2v218q0 97 18 156t53.5 86t90.5 27q78 0 115.5 -50t37.5 -161q0 -139 -63.5 -217t-194.5 -100q5 -52 21 -83zM141 230
q107 21 156.5 86.5t49.5 184.5q0 90 -25 127.5t-75 37.5q-35 0 -58.5 -20t-35.5 -66t-12 -122v-224v-4z" />
    <glyph glyph-name="uni2117" unicode="&#x2117;" horiz-adv-x="894" 
d="M217.5 38q-94.5 54 -137.5 149q-33 73 -33 166t33 165q28 63 79.5 109t124.5 70.5t163 24.5t163 -24.5t125 -70t80 -108.5q33 -73 33 -166t-33 -165q-43 -96 -138 -150t-230 -54t-229.5 54zM655.5 69q85.5 49 124.5 135q29 67 29 149q0 81 -29 150q-39 86 -125 134.5
t-207 48.5q-123 0 -209 -49t-125 -135q-28 -65 -28 -149q0 -85 29 -149q39 -86 124.5 -135t207.5 -49q123 0 208.5 49zM316 584h153q61 0 97.5 -17t51.5 -52q12 -28 12 -67q0 -38 -12 -67q-15 -35 -51.5 -52t-97.5 -17h-108v-189h-45v461zM462 352q47 0 74 12t38 37
q9 18 9 47t-9 48q-11 24 -38 36t-74 12h-101v-192h101z" />
    <glyph glyph-name="trademark" unicode="&#x2122;" horiz-adv-x="719" 
d="M113 669h-106v37h255v-37h-107v-273h-42v273zM296 706h53l135 -262l135 262h53v-310h-39v261l-134 -261h-31l-133 261v-261h-39v310z" />
    <glyph glyph-name="Omega" unicode="&#x2126;" horiz-adv-x="794" 
d="M647 201q-50 -39 -122 -56v-94h187v-51h-239v186q72 13 121 46.5t72 84.5q22 47 22 112q0 58 -21 104q-29 65 -98.5 100.5t-171.5 35.5t-172 -36t-99 -100q-20 -48 -20 -104q0 -64 21 -112q24 -51 72.5 -84.5t121.5 -46.5v-186h-239v51h187v94q-72 17 -122 55.5t-74 94.5
q-26 56 -26 133q0 74 25 128q36 79 120 122.5t205 43.5t205 -43.5t120 -122.5q25 -58 25 -128q0 -74 -26 -132q-24 -56 -74 -95z" />
    <glyph glyph-name="estimated" unicode="&#x212e;" horiz-adv-x="852" 
d="M239 32.5q-87 43.5 -139.5 121.5t-52.5 176q0 96 51 174t138 122.5t190 44.5q102 0 188.5 -45t138 -124.5t51.5 -177.5h-608q-6 0 -8 -2.5t-2 -8.5v-197q47 -51 110 -78.5t130 -27.5q73 0 139 32.5t113 88.5h57q-56 -68 -138 -105t-171 -37q-100 0 -187 43.5zM657 347
q5 0 7 2.5t2 8.5v184q-44 51 -108 79.5t-132 28.5q-70 0 -133 -28.5t-107 -78.5v-185q0 -6 2 -8.5t8 -2.5h461z" />
    <glyph glyph-name="partialdiff" unicode="&#x2202;" horiz-adv-x="700" 
d="M648 350q0 -120 -36 -201q-36 -80 -106.5 -122.5t-173.5 -42.5q-96 0 -164 38t-98 104q-20 46 -20 98q0 53 20 98q29 65 96 102t161 37q91 0 156 -36.5t94 -100.5q5 -10 11 -32q3 30 3 62q0 111 -33 186q-28 63 -80 97t-129 34q-56 0 -98.5 -18.5t-69.5 -53.5
q-28 -34 -39 -83h-58q10 65 51 114q34 45 88.5 68.5t125.5 23.5q97 0 162 -41.5t98 -117.5q39 -84 39 -213zM561 220q0 45 -16 78q-24 53 -78.5 83.5t-132.5 30.5q-77 0 -131 -29t-77 -81q-16 -33 -16 -77q0 -41 16 -78q24 -51 78 -81t130 -30q79 0 134 29.5t78 80.5
q15 33 15 74z" />
    <glyph glyph-name="Delta" unicode="&#x2206;" horiz-adv-x="720" 
d="M718 0h-715l316 706h82zM633 51l-272 612h-2l-271 -612h545z" />
    <glyph glyph-name="product" unicode="&#x220f;" horiz-adv-x="742" 
d="M79 706h584v-909h-58v856h-467v-856h-59v909z" />
    <glyph glyph-name="summation" unicode="&#x2211;" horiz-adv-x="600" 
d="M358 269l-324 437h533v-51h-423l285 -386l-299 -420h463v-52h-568z" />
    <glyph glyph-name="minus" unicode="&#x2212;" horiz-adv-x="610" 
d="M58 301h494v-49h-494v49z" />
    <glyph glyph-name="uni2215" unicode="&#x2215;" horiz-adv-x="610" 
d="M455 706h54l-355 -706h-55z" />
    <glyph glyph-name="uni2219" unicode="&#x2219;" horiz-adv-x="610" 
d="M261.5 225q-20.5 20 -20.5 54t20.5 54t54.5 20q33 0 54 -20.5t21 -53.5q0 -34 -21 -54t-54 -20q-34 0 -54.5 20z" />
    <glyph glyph-name="radical" unicode="&#x221a;" horiz-adv-x="686" 
d="M683 706l-311 -920h-72l-189 426l-101 -34v56l135 42l190 -435l289 865h59z" />
    <glyph glyph-name="infinity" unicode="&#x221e;" horiz-adv-x="938" 
d="M901 240q0 -56 -19 -97q-23 -49 -68 -77.5t-109 -28.5q-57 0 -99.5 22t-73.5 56.5t-64 85.5q-33 -51 -63.5 -85.5t-73 -56.5t-98.5 -22q-65 0 -110 28.5t-68 77.5q-19 44 -19 97t19 97q22 50 67.5 78t110.5 28q54 0 96 -21.5t73.5 -56t66.5 -86.5q33 52 63.5 86t73.5 56
t99 22q65 0 110 -28.5t67 -77.5q19 -41 19 -97zM319.5 104.5q35.5 20.5 62 52.5t57.5 83q-33 52 -58.5 83.5t-61 52t-82.5 20.5q-49 0 -83.5 -21.5t-51.5 -59.5q-14 -31 -14 -75q0 -42 15 -75q16 -38 50.5 -59.5t83.5 -21.5q47 0 82.5 20.5zM850 240q0 44 -15 75
q-16 38 -50.5 59.5t-83.5 21.5q-48 0 -84 -20.5t-62 -52.5t-57 -83q32 -52 58 -83.5t62 -52t83 -20.5q48 0 82.5 21.5t52.5 59.5q14 34 14 75z" />
    <glyph glyph-name="integral" unicode="&#x222b;" horiz-adv-x="450" 
d="M0 -203l11 50q27 -3 40 -3q42 0 65 21.5t32 71.5l103 638q13 73 48.5 104t99.5 31q22 0 51 -4l-11 -50q-18 2 -37 2q-42 0 -65 -21t-31 -70l-103 -638q-13 -73 -48 -104.5t-99 -31.5q-25 0 -56 4z" />
    <glyph glyph-name="approxequal" unicode="&#x2248;" horiz-adv-x="610" 
d="M350 325.5q-25 11.5 -55 33.5q-29 20 -47.5 29t-43.5 9q-38 0 -57.5 -21.5t-21.5 -58.5h-44q2 57 31.5 90.5t87.5 33.5q35 0 59.5 -11t55.5 -33q26 -19 45.5 -28.5t46.5 -9.5q71 0 78 78h44q-3 -59 -32.5 -91t-86.5 -32q-35 0 -60 11.5zM350 123.5q-25 11.5 -55 33.5
q-27 19 -46.5 28.5t-44.5 9.5q-38 0 -57.5 -21.5t-21.5 -57.5h-44q2 57 31.5 90t87.5 33q35 0 60.5 -11t54.5 -33q26 -19 45.5 -28.5t46.5 -9.5q71 0 78 78h44q-3 -59 -32.5 -91t-86.5 -32q-35 0 -60 11.5z" />
    <glyph glyph-name="notequal" unicode="&#x2260;" horiz-adv-x="610" 
d="M384 357l-112 -161h280v-49h-310l-87 -126h-52l87 126h-132v49h163l112 161h-275v49h305l87 126h52l-88 -126h138v-49h-168z" />
    <glyph glyph-name="lessequal" unicode="&#x2264;" horiz-adv-x="610" 
d="M532 478l-458 -151l458 -152v-51l-494 167v71l494 168v-52zM38 70h494v-47h-494v47z" />
    <glyph glyph-name="greaterequal" unicode="&#x2265;" horiz-adv-x="610" 
d="M552 362v-71l-494 -167v51l458 152l-458 151v52zM58 70h494v-47h-494v47z" />
    <glyph glyph-name="lozenge" unicode="&#x25ca;" horiz-adv-x="571" 
d="M22 252l233 454h61l232 -454l-232 -455h-61zM490 252l-205 403l-205 -403l205 -404z" />
    <glyph glyph-name="ff" unicode="&#xfb00;" horiz-adv-x="743" 
d="M121 433h-98v47h98v73q0 83 39.5 123t121.5 40q36 0 63 -8v-48q-28 7 -59 7q-111 0 -111 -117v-70h169v-47h-169v-433h-54v433zM494 433h-98v47h98v73q0 83 39.5 123t121.5 40q36 0 63 -8v-48q-28 7 -59 7q-111 0 -111 -117v-70h169v-47h-169v-433h-54v433z" />
    <glyph glyph-name="fi" unicode="&#xfb01;" horiz-adv-x="566" 
d="M121 433h-98v47h98v73q0 83 39.5 123t121.5 40q36 0 63 -8v-48q-28 7 -59 7q-111 0 -111 -117v-70h169v-47h-169v-433h-54v433zM437.5 604q-11.5 11 -11.5 29t12 29.5t30 11.5t30 -12t12 -29q0 -18 -12 -29t-30 -11q-19 0 -30.5 11zM441 480h54v-480h-54v480z" />
    <glyph glyph-name="fl" unicode="&#xfb02;" horiz-adv-x="566" 
d="M121 433h-98v47h98v73q0 83 39.5 123t121.5 40q36 0 63 -8v-48q-28 7 -59 7q-111 0 -111 -117v-70h169v-47h-169v-433h-54v433zM441 706h54v-706h-54v706z" />
    <glyph glyph-name="ffi" unicode="&#xfb03;" horiz-adv-x="939" 
d="M121 433h-98v47h98v73q0 83 39.5 123t121.5 40q36 0 63 -8v-48q-28 7 -59 7q-111 0 -111 -117v-70h169v-47h-169v-433h-54v433zM494 433h-98v47h98v73q0 83 39.5 123t121.5 40q36 0 63 -8v-48q-28 7 -59 7q-111 0 -111 -117v-70h169v-47h-169v-433h-54v433zM810.5 604
q-11.5 11 -11.5 29t12 29.5t30 11.5t30 -12t12 -29q0 -18 -12 -29t-30 -11q-19 0 -30.5 11zM814 480h54v-480h-54v480z" />
    <glyph glyph-name="ffl" unicode="&#xfb04;" horiz-adv-x="939" 
d="M121 433h-98v47h98v73q0 83 39.5 123t121.5 40q36 0 63 -8v-48q-28 7 -59 7q-111 0 -111 -117v-70h169v-47h-169v-433h-54v433zM494 433h-98v47h98v73q0 83 39.5 123t121.5 40q36 0 63 -8v-48q-28 7 -59 7q-111 0 -111 -117v-70h169v-47h-169v-433h-54v433zM814 706h54
v-706h-54v706z" />
    <glyph glyph-name="uniFEFF" unicode="&#xfeff;" 
 />
    <glyph glyph-name="uni00A40301" horiz-adv-x="346" 
d="M11 0v52q24 -4 57 -4q53 0 84.5 15.5t46.5 49t15 89.5v504h57v-512q0 -104 -46.5 -151.5t-149.5 -47.5q-31 0 -64 5zM319 898h78l-168 -133h-74z" />
    <glyph glyph-name="M.ss01" horiz-adv-x="840" 
d="M79 706h73l268 -351l267 351h74v-706h-56v641l-272 -357h-26l-272 357v-641h-56v706z" />
    <glyph glyph-name="Q.ss02" horiz-adv-x="871" 
d="M824 353q0 -101 -35 -178q-27 -60 -76.5 -103.5t-120.5 -65.5l107 -154l-50 -27l-113 167q-50 -8 -101 -8q-133 0 -221.5 50t-129.5 137q-37 75 -37 182q0 102 34 177q41 90 130 141t224 51q136 0 225 -51t130 -141q34 -77 34 -177zM764 353q0 89 -30 155
q-34 75 -109 117.5t-190 42.5t-190 -42.5t-109 -117.5q-29 -67 -29 -155t29 -155q34 -75 109 -117.5t190 -42.5t190 42.5t109 117.5q30 66 30 155z" />
    <glyph glyph-name="R.ss03" horiz-adv-x="694" 
d="M501 354q61 -15 88 -55.5t27 -110.5v-188h-57v185q0 51 -17 82t-55.5 46.5t-103.5 15.5h-247v-329h-57v706h322q174 0 220 -101q16 -37 16 -82q0 -43 -16 -80q-32 -68 -120 -89zM579 522q0 34 -12 59q-17 38 -60.5 56.5t-115.5 18.5h-255v-277h248q75 0 120 20t63 59
q12 27 12 64z" />
    <glyph glyph-name="Racute.ss03" horiz-adv-x="694" 
d="M501 354q61 -15 88 -55.5t27 -110.5v-188h-57v185q0 51 -17 82t-55.5 46.5t-103.5 15.5h-247v-329h-57v706h322q174 0 220 -101q16 -37 16 -82q0 -43 -16 -80q-32 -68 -120 -89zM579 522q0 34 -12 59q-17 38 -60.5 56.5t-115.5 18.5h-255v-277h248q75 0 120 20t63 59
q12 27 12 64zM426 898h78l-168 -133h-74z" />
    <glyph glyph-name="Rcaron.ss03" horiz-adv-x="694" 
d="M501 354q61 -15 88 -55.5t27 -110.5v-188h-57v185q0 51 -17 82t-55.5 46.5t-103.5 15.5h-247v-329h-57v706h322q174 0 220 -101q16 -37 16 -82q0 -43 -16 -80q-32 -68 -120 -89zM579 522q0 34 -12 59q-17 38 -60.5 56.5t-115.5 18.5h-255v-277h248q75 0 120 20t63 59
q12 27 12 64zM385 765h-72l-155 133h74l117 -100l117 100h74z" />
    <glyph glyph-name="uni0156.ss03" horiz-adv-x="694" 
d="M501 354q61 -15 88 -55.5t27 -110.5v-188h-57v185q0 51 -17 82t-55.5 46.5t-103.5 15.5h-247v-329h-57v706h322q174 0 220 -101q16 -37 16 -82q0 -43 -16 -80q-32 -68 -120 -89zM579 522q0 34 -12 59q-17 38 -60.5 56.5t-115.5 18.5h-255v-277h248q75 0 120 20t63 59
q12 27 12 64zM327 -53h56l-43 -150h-50z" />
    <glyph glyph-name="Oslash.ss04" horiz-adv-x="871" 
d="M790 530q34 -77 34 -177q0 -101 -35 -178q-41 -90 -130 -140.5t-224 -50.5q-158 0 -257 72l-99 -103l-42 37l100 103q-34 35 -53 78q-37 75 -37 182q0 102 34 177q41 90 130 141t224 51q160 0 257 -72l100 103l41 -37l-99 -102q35 -39 56 -84zM764 353q0 89 -30 155
q-34 75 -109 117.5t-190 42.5t-190 -42.5t-109 -117.5q-29 -67 -29 -155t29 -155q34 -75 109 -117.5t190 -42.5t190 42.5t109 117.5q30 66 30 155z" />
    <glyph glyph-name="i.loclTRK" horiz-adv-x="196" 
d="M71 480h54v-480h-54v480zM67.5 604q-11.5 11 -11.5 29t11.5 29.5t30.5 11.5q18 0 30 -12t12 -29q0 -18 -12 -29t-30 -11q-19 0 -30.5 11z" />
    <glyph glyph-name="uni006A0301" horiz-adv-x="195" 
d="M-56 -205v50q22 -3 42 -3q44 0 64.5 21t20.5 68v549h53v-551q0 -71 -32 -103.5t-102 -32.5q-30 0 -46 2zM150 710h62l-105 -158h-57z" />
    <glyph glyph-name="oslash.ss04" horiz-adv-x="630" 
d="M594 240q0 -64 -24 -115q-29 -65 -94 -102t-161 -37q-98 0 -165 39l-62 -71l-41 32l62 70q-33 32 -49 69q-24 51 -24 115q0 63 24 115q29 65 94 102t161 37q99 0 166 -39l60 70l42 -32l-61 -69q33 -33 48 -69q24 -51 24 -115zM537 240q0 55 -18 95q-23 51 -75.5 80.5
t-128.5 29.5q-77 0 -129 -29t-74 -80q-19 -41 -19 -96t19 -96q23 -51 74.5 -80t128.5 -29t128.5 29t74.5 80q19 42 19 96z" />
    <glyph glyph-name="r.ss05" horiz-adv-x="238" 
d="M71 480h54v-19q7 14 16.5 20t23.5 6q19 0 29.5 -10.5t10.5 -27.5t-10.5 -28t-27.5 -11q-11 0 -19.5 4t-13.5 12q-5 -2 -7 -8t-2 -20v-398h-54v480z" />
    <glyph glyph-name="racute.ss05" horiz-adv-x="238" 
d="M71 480h54v-19q7 14 16.5 20t23.5 6q19 0 29.5 -10.5t10.5 -27.5t-10.5 -28t-27.5 -11q-11 0 -19.5 4t-13.5 12q-5 -2 -7 -8t-2 -20v-398h-54v480zM188 710h62l-105 -158h-57z" />
    <glyph glyph-name="rcaron.ss05" horiz-adv-x="238" 
d="M71 480h54v-19q7 14 16.5 20t23.5 6q19 0 29.5 -10.5t10.5 -27.5t-10.5 -28t-27.5 -11q-11 0 -19.5 4t-13.5 12q-5 -2 -7 -8t-2 -20v-398h-54v480zM62 710l73 -120l72 120h56l-97 -158h-63l-97 158h56z" />
    <glyph glyph-name="uni0157.ss05" horiz-adv-x="238" 
d="M71 480h54v-19q7 14 16.5 20t23.5 6q19 0 29.5 -10.5t10.5 -27.5t-10.5 -28t-27.5 -11q-11 0 -19.5 4t-13.5 12q-5 -2 -7 -8t-2 -20v-398h-54v480zM63 -53h56l-43 -150h-50z" />
    <glyph glyph-name="f_i" horiz-adv-x="566" 
d="M121 433h-98v47h98v73q0 83 39.5 123t121.5 40q36 0 63 -8v-48q-28 7 -59 7q-111 0 -111 -117v-70h169v-47h-169v-433h-54v433zM437.5 604q-11.5 11 -11.5 29t12 29.5t30 11.5t30 -12t12 -29q0 -18 -12 -29t-30 -11q-19 0 -30.5 11zM441 480h54v-480h-54v480z" />
    <glyph glyph-name="f_l" horiz-adv-x="566" 
d="M121 433h-98v47h98v73q0 83 39.5 123t121.5 40q36 0 63 -8v-48q-28 7 -59 7q-111 0 -111 -117v-70h169v-47h-169v-433h-54v433zM441 706h54v-706h-54v706z" />
    <glyph glyph-name="zero.tf" horiz-adv-x="674" 
d="M179.5 26q-63.5 42 -96.5 116q-39 87 -39 211t39 211q33 74 96.5 116t156.5 42q94 0 157 -41.5t97 -116.5q39 -87 39 -211t-39 -211q-34 -75 -97 -116.5t-157 -41.5q-93 0 -156.5 42zM460 69.5q50 33.5 76 92.5q33 73 33 191t-33 191q-26 59 -76 92.5t-124 33.5
t-123.5 -33.5t-75.5 -92.5q-33 -73 -33 -191t33 -191q26 -59 75.5 -92.5t123.5 -33.5t124 33.5z" />
    <glyph glyph-name="one.tf" horiz-adv-x="674" 
d="M352 654h-176l12 52h220v-706h-56v654z" />
    <glyph glyph-name="two.tf" horiz-adv-x="674" 
d="M56 4l330 284q56 47 87.5 82t45.5 66.5t14 67.5q0 38 -14 71q-20 45 -67.5 70t-117.5 25q-75 0 -124 -28.5t-72 -79.5q-18 -42 -18 -96h-57q0 68 24 120q29 64 92 100t156 36q89 0 150 -33t89 -93q18 -43 18 -91q0 -43 -14 -79t-46 -72.5t-87 -83.5q-114 -99 -258 -219
h415v-51h-546v4z" />
    <glyph glyph-name="three.tf" horiz-adv-x="674" 
d="M620 195q0 -48 -17 -88q-27 -59 -93.5 -91t-168.5 -32q-105 0 -172.5 34.5t-97.5 102.5q-26 58 -26 145h56q0 -73 22 -121q24 -54 77 -81.5t139 -27.5q81 0 135 24.5t74 70.5q13 27 13 66q0 36 -12 61q-22 48 -82.5 69.5t-158.5 21.5h-32v51h33q186 0 223 84q10 21 10 50
q0 30 -11 54q-19 41 -67.5 62t-121.5 21q-166 0 -210 -99q-17 -40 -17 -93h-57q0 63 22 112q28 64 95.5 97.5t168.5 33.5q92 0 154.5 -29t86.5 -82q14 -36 14 -75q0 -37 -12 -66q-17 -36 -51.5 -59.5t-90.5 -35.5q125 -21 160 -102q15 -34 15 -78z" />
    <glyph glyph-name="four.tf" horiz-adv-x="674" 
d="M656 196h-128v-196h-56v196h-460v3l412 507h104v-460h128v-50zM472 246v436h-1l-353 -436h354z" />
    <glyph glyph-name="five.tf" horiz-adv-x="674" 
d="M177.5 16.5q-61.5 32.5 -89.5 95.5q-24 51 -24 128h56q0 -59 20 -104q45 -101 194 -101q77 0 128 26.5t73 76.5q16 33 16 79t-16 83q-24 53 -83.5 80t-149.5 27q-108 0 -211 -35l64 334h410l-12 -51h-353l-43 -221q80 23 159 23q99 0 171 -33.5t102 -102.5
q21 -45 21 -101q0 -57 -21 -104q-28 -63 -93.5 -97.5t-161.5 -34.5q-95 0 -156.5 32.5z" />
    <glyph glyph-name="six.tf" horiz-adv-x="674" 
d="M641 227q0 -54 -21 -99q-30 -67 -98 -105.5t-161 -38.5q-105 0 -173.5 42t-104.5 121q-37 83 -37 201q0 126 39 211q34 78 102 120.5t169 42.5q64 0 115.5 -18.5t86.5 -53.5q53 -55 65 -134h-56q-12 59 -49 96q-28 28 -69.5 43t-93.5 15q-82 0 -137 -36t-83 -100
q-33 -73 -33 -181q0 -30 3 -57q2 10 10 28q29 63 94.5 100.5t158.5 37.5q92 0 158 -36.5t95 -100.5q20 -45 20 -98zM582 226q0 43 -15 77q-23 50 -76.5 79t-128.5 29q-80 0 -135.5 -30.5t-78.5 -82.5q-16 -35 -16 -77q0 -38 15 -71q23 -52 78.5 -83t133.5 -31q76 0 130 31
t77 82q16 35 16 77z" />
    <glyph glyph-name="seven.tf" horiz-adv-x="674" 
d="M537 654h-481v52h574l-387 -706h-65z" />
    <glyph glyph-name="eight.tf" horiz-adv-x="674" 
d="M635 190q0 -42 -16 -77q-28 -62 -100.5 -95.5t-179.5 -33.5q-108 0 -180.5 33.5t-100.5 95.5q-16 35 -16 77q0 40 16 77q19 42 60 70t101 39q-51 11 -85.5 36t-50.5 60q-14 29 -14 68t14 68q24 54 90 84t166 30q99 0 164.5 -29.5t90.5 -84.5q14 -29 14 -68t-14 -68
q-16 -35 -50.5 -60t-84.5 -36q59 -11 100 -38.5t60 -69.5q16 -38 16 -78zM210.5 420q54.5 -22 128.5 -22q73 0 127.5 22t74.5 66q10 23 10 52q0 28 -10 48q-19 43 -73.5 65.5t-128.5 22.5q-75 0 -129.5 -22.5t-73.5 -65.5q-10 -20 -10 -48q0 -29 10 -52q20 -44 74.5 -66z
M575 191q0 32 -11 59q-21 47 -80.5 72.5t-144.5 25.5q-86 0 -145 -25.5t-81 -72.5q-11 -23 -11 -58q0 -30 11 -58q21 -48 81 -73.5t144 -25.5t144.5 25.5t81.5 74.5q11 27 11 56z" />
    <glyph glyph-name="nine.tf" horiz-adv-x="674" 
d="M628 358q0 -126 -39 -211q-34 -78 -102 -120.5t-169 -42.5q-64 0 -115.5 18.5t-86.5 53.5q-53 55 -65 134h56q12 -59 49 -96q28 -28 69.5 -43t93.5 -15q82 0 137 36t83 100q33 73 33 181q0 30 -3 57q-2 -10 -10 -28q-29 -63 -94.5 -100.5t-158.5 -37.5q-92 0 -158 36.5
t-95 100.5q-20 45 -20 98q0 54 21 99q30 67 98 105.5t161 38.5q105 0 173.5 -42t104.5 -121q37 -83 37 -201zM542 485q0 38 -15 71q-23 52 -78.5 83t-133.5 31q-76 0 -130 -31t-77 -82q-16 -35 -16 -77t15 -77q23 -50 76.5 -79t128.5 -29q80 0 135.5 30.5t78.5 82.5
q16 35 16 77z" />
    <glyph glyph-name="zero.dnom" horiz-adv-x="483" 
d="M128.5 16q-45.5 26 -67.5 74q-20 45 -20 104t20 104q22 48 67.5 74t113.5 26q67 0 112.5 -26t67.5 -74q20 -45 20 -104t-20 -104q-22 -48 -67.5 -74t-112.5 -26q-68 0 -113.5 26zM377 107q15 36 15 87t-15 87q-35 73 -135 73q-102 0 -135 -73q-16 -35 -16 -87t16 -87
q33 -73 135 -73q100 0 135 73z" />
    <glyph glyph-name="one.dnom" horiz-adv-x="245" 
d="M120 344h-100l8 44h141v-388h-49v344z" />
    <glyph glyph-name="two.dnom" horiz-adv-x="402" 
d="M30 5l201 158q31 25 48.5 43t24.5 34.5t7 35.5q0 16 -7 33q-22 47 -101 47q-41 0 -68 -14.5t-39 -40.5q-9 -21 -9 -48h-50q0 19 3 34.5t10 31.5q17 38 57 58.5t97 20.5q55 0 93.5 -18t54.5 -53q10 -21 10 -50q0 -36 -18.5 -64.5t-64.5 -65.5l-134 -102h219v-45h-334v5z
" />
    <glyph glyph-name="three.dnom" horiz-adv-x="427" 
d="M387 107q0 -25 -9 -46q-16 -35 -59.5 -53t-103.5 -18q-63 0 -107 21.5t-62 60.5q-13 29 -13 65h47q0 -26 9 -46q14 -29 46 -44.5t79 -15.5q45 0 75 12t41 36q6 14 6 31t-6 29q-11 25 -43.5 36t-86.5 11h-15v38h15q50 0 80 10t40 32q5 12 5 25q0 12 -5 24q-10 22 -37 33
t-68 11q-46 0 -76.5 -14t-42.5 -40q-7 -15 -7 -37h-46q0 31 10 52q17 38 60 58t104 20q56 0 95.5 -17t54.5 -49q7 -17 7 -39q0 -20 -6 -35q-18 -39 -77 -52q33 -6 55 -20.5t33 -36.5q8 -16 8 -42z" />
    <glyph glyph-name="four.dnom" horiz-adv-x="416" 
d="M285 101h-281v2l237 285h93v-244h71v-43h-71v-101h-49v101zM285 144v227l-191 -227h191z" />
    <glyph glyph-name="five.dnom" horiz-adv-x="415" 
d="M107.5 11q-39.5 20 -56.5 56q-11 25 -11 54h48q0 -22 7 -37q11 -25 39.5 -38.5t71.5 -13.5t71.5 13.5t39.5 39.5q8 18 8 37t-8 37q-13 29 -49.5 43.5t-89.5 14.5q-64 0 -122 -18l39 189h252l-7 -41h-205l-23 -103q42 10 86 10q64 0 107 -21t60 -59q10 -21 10 -51
q0 -29 -11 -54q-17 -37 -58 -57.5t-100 -20.5t-98.5 20z" />
    <glyph glyph-name="six.dnom" horiz-adv-x="448" 
d="M409 124q0 -27 -11 -51q-17 -39 -60.5 -60.5t-105.5 -21.5q-130 0 -176 96q-19 42 -19 103q0 66 21 109q21 47 64.5 73t109.5 26q42 0 75 -11t54 -32q27 -27 36 -71h-49q-6 27 -22 43q-30 31 -93 31q-98 0 -132 -75q-16 -36 -16 -88q0 -14 1 -21v1q17 37 58 59t97 22
q58 0 99 -21.5t58 -59.5q11 -24 11 -51zM357 123q0 22 -7 37q-13 28 -43.5 42.5t-73.5 14.5q-44 0 -76 -16.5t-45 -44.5q-8 -18 -8 -34q0 -19 7 -32q12 -28 44.5 -43.5t76.5 -15.5q45 0 75.5 14t42.5 41q7 15 7 37z" />
    <glyph glyph-name="seven.dnom" horiz-adv-x="352" 
d="M263 344h-247v44h328l-225 -388h-56z" />
    <glyph glyph-name="eight.dnom" horiz-adv-x="442" 
d="M402 108q0 -21 -8 -42q-16 -36 -61.5 -55.5t-111.5 -19.5t-111.5 19.5t-61.5 55.5q-8 21 -8 42q0 23 8 39q11 22 34 38t56 23q-27 6 -46.5 19.5t-27.5 32.5q-7 19 -7 35q0 22 8 37q15 32 55.5 48.5t100.5 16.5t100.5 -16.5t55.5 -48.5q8 -18 8 -37q0 -18 -8 -36
q-17 -38 -73 -52q33 -7 56 -22.5t34 -37.5q8 -16 8 -39zM148.5 236.5q29.5 -11.5 72.5 -11.5t72.5 11.5t39.5 33.5q5 12 5 23q0 12 -5 24q-10 21 -39 32t-73 11t-73 -11.5t-39 -32.5q-5 -7 -5 -23q0 -11 5 -23q10 -22 39.5 -33.5zM352 109q0 13 -5 26q-11 25 -44.5 37.5
t-81.5 12.5q-49 0 -82 -12.5t-44 -37.5q-6 -12 -6 -26t6 -26q11 -26 44 -38.5t82 -12.5q48 0 81.5 13t44.5 38q5 13 5 26z" />
    <glyph glyph-name="nine.dnom" horiz-adv-x="448" 
d="M411 198q0 -66 -21 -109q-21 -47 -64.5 -73t-109.5 -26q-41 0 -74 11t-55 32q-28 29 -35 71h48q6 -27 22 -43q30 -31 94 -31q50 0 83 19.5t49 55.5t16 88q0 14 -1 21v-1q-17 -37 -58.5 -59t-97.5 -22q-57 0 -98 21.5t-58 59.5q-11 21 -11 51t11 51q17 39 60.5 60.5
t104.5 21.5q68 0 111.5 -25t64.5 -71q19 -42 19 -103zM344 266q0 19 -6 32q-12 27 -45 43t-77 16q-45 0 -75.5 -14t-41.5 -41q-8 -18 -8 -37t8 -37q12 -27 42.5 -42t73.5 -15q45 0 77 16.5t45 44.5q7 15 7 34z" />
    <glyph glyph-name="zero.numr" horiz-adv-x="483" 
d="M128.5 334q-45.5 26 -67.5 74q-20 45 -20 104t20 104q22 48 67.5 74t113.5 26q67 0 112.5 -26t67.5 -74q20 -45 20 -104t-20 -104q-22 -48 -67.5 -74t-112.5 -26q-68 0 -113.5 26zM377 425q15 36 15 87t-15 87q-35 73 -135 73q-102 0 -135 -73q-16 -35 -16 -87t16 -87
q33 -73 135 -73q100 0 135 73z" />
    <glyph glyph-name="one.numr" horiz-adv-x="245" 
d="M120 662h-100l8 44h141v-388h-49v344z" />
    <glyph glyph-name="two.numr" horiz-adv-x="402" 
d="M30 323l201 158q31 25 48.5 43t24.5 34.5t7 35.5q0 16 -7 33q-22 47 -101 47q-41 0 -68 -14.5t-39 -40.5q-9 -21 -9 -48h-50q0 19 3 34.5t10 31.5q17 38 57 58.5t97 20.5q55 0 93.5 -18t54.5 -53q10 -21 10 -50q0 -36 -18.5 -64.5t-64.5 -65.5l-134 -102h219v-45h-334v5z
" />
    <glyph glyph-name="three.numr" horiz-adv-x="427" 
d="M387 425q0 -25 -9 -46q-16 -35 -59.5 -53t-103.5 -18q-63 0 -107 21.5t-62 60.5q-13 29 -13 65h47q0 -26 9 -46q14 -29 46 -44.5t79 -15.5q45 0 75 12t41 36q6 14 6 31t-6 29q-11 25 -43.5 36t-86.5 11h-15v38h15q50 0 80 10t40 32q5 12 5 25q0 12 -5 24q-10 22 -37 33
t-68 11q-46 0 -76.5 -14t-42.5 -40q-7 -15 -7 -37h-46q0 31 10 52q17 38 60 58t104 20q56 0 95.5 -17t54.5 -49q7 -17 7 -39q0 -20 -6 -35q-18 -39 -77 -52q33 -6 55 -20.5t33 -36.5q8 -16 8 -42z" />
    <glyph glyph-name="four.numr" horiz-adv-x="416" 
d="M285 419h-281v2l237 285h93v-244h71v-43h-71v-101h-49v101zM285 462v227l-191 -227h191z" />
    <glyph glyph-name="five.numr" horiz-adv-x="415" 
d="M107.5 329q-39.5 20 -56.5 56q-11 25 -11 54h48q0 -22 7 -37q11 -25 39.5 -38.5t71.5 -13.5t71.5 13.5t39.5 39.5q8 18 8 37t-8 37q-13 29 -49.5 43.5t-89.5 14.5q-64 0 -122 -18l39 189h252l-7 -41h-205l-23 -103q42 10 86 10q64 0 107 -21t60 -59q10 -21 10 -51
q0 -29 -11 -54q-17 -37 -58 -57.5t-100 -20.5t-98.5 20z" />
    <glyph glyph-name="six.numr" horiz-adv-x="448" 
d="M409 442q0 -27 -11 -51q-17 -39 -60.5 -60.5t-105.5 -21.5q-130 0 -176 96q-19 42 -19 103q0 66 21 109q21 47 64.5 73t109.5 26q42 0 75 -11t54 -32q27 -27 36 -71h-49q-6 27 -22 43q-30 31 -93 31q-98 0 -132 -75q-16 -36 -16 -88q0 -14 1 -21v1q17 37 58 59t97 22
q58 0 99 -21.5t58 -59.5q11 -24 11 -51zM357 441q0 22 -7 37q-13 28 -43.5 42.5t-73.5 14.5q-44 0 -76 -16.5t-45 -44.5q-8 -18 -8 -34q0 -19 7 -32q12 -28 44.5 -43.5t76.5 -15.5q45 0 75.5 14t42.5 41q7 15 7 37z" />
    <glyph glyph-name="seven.numr" horiz-adv-x="352" 
d="M263 662h-247v44h328l-225 -388h-56z" />
    <glyph glyph-name="eight.numr" horiz-adv-x="442" 
d="M402 426q0 -21 -8 -42q-16 -36 -61.5 -55.5t-111.5 -19.5t-111.5 19.5t-61.5 55.5q-8 21 -8 42q0 23 8 39q11 22 34 38t56 23q-27 6 -46.5 19.5t-27.5 32.5q-7 19 -7 35q0 22 8 37q15 32 55.5 48.5t100.5 16.5t100.5 -16.5t55.5 -48.5q8 -18 8 -37q0 -18 -8 -36
q-17 -38 -73 -52q33 -7 56 -22.5t34 -37.5q8 -16 8 -39zM148.5 554.5q29.5 -11.5 72.5 -11.5t72.5 11.5t39.5 33.5q5 12 5 23q0 12 -5 24q-10 21 -39 32t-73 11t-73 -11.5t-39 -32.5q-5 -7 -5 -23q0 -11 5 -23q10 -22 39.5 -33.5zM352 427q0 13 -5 26q-11 25 -44.5 37.5
t-81.5 12.5q-49 0 -82 -12.5t-44 -37.5q-6 -12 -6 -26t6 -26q11 -26 44 -38.5t82 -12.5q48 0 81.5 13t44.5 38q5 13 5 26z" />
    <glyph glyph-name="nine.numr" horiz-adv-x="448" 
d="M411 516q0 -66 -21 -109q-21 -47 -64.5 -73t-109.5 -26q-41 0 -74 11t-55 32q-28 29 -35 71h48q6 -27 22 -43q30 -31 94 -31q50 0 83 19.5t49 55.5t16 88q0 14 -1 21v-1q-17 -37 -58.5 -59t-97.5 -22q-57 0 -98 21.5t-58 59.5q-11 21 -11 51t11 51q17 39 60.5 60.5
t104.5 21.5q68 0 111.5 -25t64.5 -71q19 -42 19 -103zM344 584q0 19 -6 32q-12 27 -45 43t-77 16q-45 0 -75.5 -14t-41.5 -41q-8 -18 -8 -37t8 -37q12 -27 42.5 -42t73.5 -15q45 0 77 16.5t45 44.5q7 15 7 34z" />
    <glyph glyph-name="colon.case" horiz-adv-x="275" 
d="M106.5 133.5q-11.5 11.5 -11.5 30.5t11.5 30.5t30.5 11.5t30.5 -11.5t11.5 -30.5t-11.5 -30.5t-30.5 -11.5t-30.5 11.5zM106.5 512.5q-11.5 11.5 -11.5 30.5t11.5 30.5t30.5 11.5t30.5 -11.5t11.5 -30.5t-11.5 -30.5t-30.5 -11.5t-30.5 11.5z" />
    <glyph glyph-name="semicolon.case" horiz-adv-x="316" 
d="M145 291h53l-83 -328h-44zM148.5 512.5q-11.5 11.5 -11.5 30.5t11.5 30.5t30.5 11.5t30.5 -11.5t11.5 -30.5t-11.5 -30.5t-30.5 -11.5t-30.5 11.5z" />
    <glyph glyph-name="exclamdown.case" horiz-adv-x="284" 
d="M172.5 702.5q11.5 -11.5 11.5 -30.5t-11.5 -30.5t-30.5 -11.5t-30.5 11.5t-11.5 30.5t11.5 30.5t30.5 11.5t30.5 -11.5zM171 -4h-58l6 525h46z" />
    <glyph glyph-name="questiondown.case" horiz-adv-x="585" 
d="M331.5 707.5q11.5 -11.5 11.5 -30.5t-11.5 -30.5t-30.5 -11.5t-30.5 11.5t-11.5 30.5t11.5 30.5t30.5 11.5t30.5 -11.5zM185.5 335.5q-46.5 -65.5 -62 -101.5t-15.5 -71q0 -60 43.5 -95t138.5 -35q137 0 174 83q7 17 10.5 36.5t3.5 45.5h56q0 -32 -4 -56t-14 -45
q-24 -54 -81.5 -83t-145.5 -29q-119 0 -178.5 48t-59.5 130q0 38 15.5 75.5t58.5 100.5t138 187h68q-99 -125 -145.5 -190.5z" />
    <glyph glyph-name="periodcentered.case" horiz-adv-x="275" 
d="M106.5 340.5q-11.5 11.5 -11.5 30.5t11.5 30.5t30.5 11.5t30.5 -11.5t11.5 -30.5t-11.5 -30.5t-30.5 -11.5t-30.5 11.5z" />
    <glyph glyph-name="periodcentered.loclCAT.case" horiz-adv-x="51" 
d="M-126.5 353.5q-11.5 11.5 -11.5 30.5t11.5 30.5t30.5 11.5t30.5 -11.5t11.5 -30.5t-11.5 -30.5t-30.5 -11.5t-30.5 11.5z" />
    <glyph glyph-name="slash.case" horiz-adv-x="516" 
d="M439 756h57l-403 -806h-57z" />
    <glyph glyph-name="periodcentered.loclCAT" horiz-adv-x="114" 
d="M26.5 339.5q-11.5 11.5 -11.5 30.5t11.5 30.5t30.5 11.5t30.5 -11.5t11.5 -30.5t-11.5 -30.5t-30.5 -11.5t-30.5 11.5z" />
    <glyph glyph-name="parenleft.case" horiz-adv-x="362" 
d="M148.5 95q-41.5 118 -41.5 258q0 141 41.5 259t122.5 227h57q-82 -107 -125 -227t-43 -259t43 -258.5t125 -225.5h-57q-81 108 -122.5 226z" />
    <glyph glyph-name="parenright.case" horiz-adv-x="362" 
d="M34 -131q82 106 125 225.5t43 258.5t-43 259t-125 227h56q81 -108 122.5 -226t41.5 -260q0 -141 -41.5 -258.5t-122.5 -225.5h-56z" />
    <glyph glyph-name="braceleft.case" horiz-adv-x="390" 
d="M208.5 414q-6.5 -27 -23.5 -41.5t-48 -19.5q31 -5 48 -19.5t23.5 -41t6.5 -70.5v-206q0 -51 24 -78t82 -27h40v-42h-55q-71 0 -105.5 36t-34.5 98v209q1 49 -7 73t-31.5 34.5t-72.5 10.5v47q50 0 73.5 10.5t31 34.5t6.5 73v209q0 62 35 98.5t105 36.5h55v-43h-40
q-58 0 -82 -27t-24 -78v-206q0 -44 -6.5 -71z" />
    <glyph glyph-name="braceright.case" horiz-adv-x="390" 
d="M230.5 422q7.5 -24 31 -34.5t73.5 -10.5v-47q-49 0 -72.5 -10.5t-31.5 -34.5t-8 -73v-209q0 -62 -34.5 -98t-105.5 -36h-54v42h39q58 0 82.5 27t24.5 78v206q0 44 6.5 70.5t23.5 41t48 19.5q-31 5 -48 19.5t-23.5 41.5t-6.5 71v206q0 51 -24.5 78t-82.5 27h-39v43h54
q71 0 105.5 -36.5t34.5 -98.5v-209q0 -49 7.5 -73z" />
    <glyph glyph-name="bracketleft.case" horiz-adv-x="371" 
d="M135 839h207v-44h-157v-882h157v-44h-207v970z" />
    <glyph glyph-name="bracketright.case" horiz-adv-x="371" 
d="M29 -131v44h157v882h-157v44h207v-970h-207z" />
    <glyph glyph-name="hyphen.case" horiz-adv-x="445" 
d="M58 398h329v-53h-329v53z" />
    <glyph glyph-name="uni00AD.case" horiz-adv-x="445" 
d="M58 398h329v-53h-329v53z" />
    <glyph glyph-name="endash.case" horiz-adv-x="650" 
d="M58 396h534v-50h-534v50z" />
    <glyph glyph-name="emdash.case" horiz-adv-x="1278" 
d="M58 396h1162v-50h-1162v50z" />
    <glyph glyph-name="guillemotleft.case" horiz-adv-x="475" 
d="M24 369l174 160h70l-173 -160l173 -160h-70zM206 369l174 160h70l-173 -160l173 -160h-70z" />
    <glyph glyph-name="guillemotright.case" horiz-adv-x="475" 
d="M25 209l173 160l-173 160h70l174 -160l-174 -160h-70zM207 209l174 160l-174 160h70l174 -160l-174 -160h-70z" />
    <glyph glyph-name="guilsinglleft.case" horiz-adv-x="293" 
d="M24 369l174 160h70l-173 -160l173 -160h-70z" />
    <glyph glyph-name="guilsinglright.case" horiz-adv-x="293" 
d="M25 209l173 160l-173 160h70l174 -160l-174 -160h-70z" />
    <glyph glyph-name="cent.ss06" horiz-adv-x="602" 
d="M565 293q-2 -39 -17 -72t-42 -57q-31 -28 -75.5 -44.5t-97.5 -19.5v-100h-47v100q-82 4 -141 39.5t-86 96.5q-23 52 -23 117t23 117q28 61 86.5 96.5t140.5 39.5v100h47v-100q53 -3 96.5 -19.5t74.5 -44.5q56 -51 60 -127h-57q-3 28 -14.5 52t-30.5 41q-27 25 -66.5 37.5
t-87.5 12.5q-73 0 -123 -28.5t-73 -79.5q-19 -42 -19 -97t19 -96q23 -51 73.5 -79.5t122.5 -28.5q49 0 88.5 12.5t65.5 36.5q20 17 32 41.5t13 53.5h58z" />
    <glyph glyph-name="dollar.ss06" horiz-adv-x="736" 
d="M684 187q0 -43 -15 -76q-27 -59 -98 -92t-177 -35v-102h-48v103q-107 4 -175 40t-97 101q-22 48 -22 116h59q0 -52 18 -93q25 -56 88.5 -85t162.5 -29q92 0 152.5 25.5t80.5 71.5q10 23 10 51t-9 49q-15 32 -51.5 52t-83.5 31t-124 23q-75 13 -125.5 26.5t-89.5 36.5
t-55 60q-13 29 -13 63q0 36 16 71q25 56 93 90t163 37v95h48v-96q91 -6 152.5 -41t88.5 -94q20 -46 20 -107h-59q0 48 -16 86q-23 51 -79 78.5t-141 27.5q-83 0 -140 -26t-76 -70q-9 -22 -9 -46q0 -27 8 -43q13 -29 47.5 -47.5t77 -28t121.5 -23.5q80 -14 132 -27.5
t93 -38.5t59 -65q13 -29 13 -69z" />
    <glyph glyph-name="paragraph.ss07" horiz-adv-x="710" 
d="M366 300h-97q-88 0 -143 25.5t-79 79.5q-17 37 -17 98q0 62 17 100q24 53 80 78t144 25h428v-50h-88v-859h-53v859h-139v-859h-53v503zM366 350v306h-92q-70 0 -113.5 -18.5t-61.5 -58.5q-14 -33 -14 -76q0 -44 14 -75q19 -41 62.5 -59.5t112.5 -18.5h92z" />
    <glyph glyph-name="caroncomb.alt" 
d="M-43 706h54l-48 -169h-47z" />
    <glyph glyph-name="uni0335.Eth" 
d="M-350 381h350v-47h-350v47z" />
    <glyph glyph-name="uni0335.Tbar" 
d="M-437 338h387v-46h-387v46z" />
    <glyph glyph-name="caron.alt" horiz-adv-x="195" 
d="M91 706h54l-48 -169h-47z" />
    <glyph glyph-name="uni0308.case" 
d="M-369.5 803q-11.5 11 -11.5 29q0 17 11.5 28.5t30.5 11.5q17 0 29 -11.5t12 -28.5q0 -18 -11.5 -29t-29.5 -11q-19 0 -30.5 11zM-120.5 803q-11.5 11 -11.5 29q0 17 11.5 28.5t29.5 11.5t30 -11.5t12 -28.5q0 -18 -12 -29t-30 -11t-29.5 11z" />
    <glyph glyph-name="uni0307.case" 
d="M-123 802.5q-12 11.5 -12 29.5t12 29.5t31 11.5q18 0 30 -11.5t12 -29.5t-12 -29.5t-30 -11.5q-19 0 -31 11.5z" />
    <glyph glyph-name="gravecomb.case" 
d="M-124 765l-168 133h78l164 -133h-74z" />
    <glyph glyph-name="acutecomb.case" 
d="M-128 898h78l-168 -133h-74z" />
    <glyph glyph-name="uni030B.case" 
d="M-283 898h69l-152 -133h-63zM-118 898h68l-151 -133h-63z" />
    <glyph glyph-name="uni0302.case" 
d="M-277 898h72l155 -133h-74l-117 100l-117 -100h-74z" />
    <glyph glyph-name="uni030C.case" 
d="M-205 765h-72l-155 133h74l117 -100l117 100h74z" />
    <glyph glyph-name="uni0306.case" 
d="M-343.5 796.5q-41.5 35.5 -45.5 101.5h48q5 -47 33.5 -71t88.5 -24t88.5 24t32.5 71h48q-3 -66 -44.5 -101.5t-124.5 -35.5t-124.5 35.5z" />
    <glyph glyph-name="uni030A.case" 
d="M-236.5 757q-29.5 27 -29.5 73t29.5 73t78.5 27t78.5 -27t29.5 -73t-29.5 -73t-78.5 -27t-78.5 27zM-109 785q18 17 18 45q0 29 -18 46t-49 17t-49 -17t-18 -46q0 -28 18 -45t49 -17t49 17z" />
    <glyph glyph-name="tildecomb.case" 
d="M-211.5 772.5q-21.5 11.5 -48.5 37.5q-3 3 -18 17t-28.5 20t-27.5 6q-59 0 -64 -89h-48q3 63 31 98.5t80 35.5q29 0 51 -12t49 -37q3 -3 18 -17t28.5 -20t27.5 -6q30 0 45.5 24t17.5 65h48q-2 -63 -29.5 -98.5t-79.5 -35.5q-31 0 -52.5 11.5z" />
    <glyph glyph-name="uni0304.case" 
d="M-385 854h335v-48h-335v48z" />
    <glyph glyph-name="uni0337.case" 
d="M0 527v-51l-207 -128v6l-102 -61v51l102 62v-6z" />
    <glyph glyph-name="uni0338.case" 
d="M-714 116l4 2l517 507l4 2l80 79h69l-122 -119l-4 -2l-522 -513l-4 -2l-71 -70h-70z" />
    <glyph glyph-name="uni0308.narrow.case" 
d="M-258 802.5q-11 10.5 -11 27.5t11 28t28 11q16 0 27 -11t11 -28q0 -16 -11 -27t-27 -11q-17 0 -28 10.5zM-116.5 802q-10.5 11 -10.5 27q0 17 11 28.5t27 11.5q17 0 28 -11.5t11 -28.5q0 -16 -11 -27t-28 -11t-27.5 11z" />
    <glyph glyph-name="uni0302.narrow.case" 
d="M-223 897h68l105 -132h-61l-78 98l-76 -98h-62z" />
    <glyph glyph-name="uni0306.narrow.case" 
d="M-274 794q-31 34 -33 103h48q2 -49 20.5 -72t60.5 -23q41 0 60 23.5t21 71.5h47q-2 -69 -32.5 -103t-95.5 -34t-96 34z" />
    <glyph glyph-name="tildecomb.narrow.case" 
d="M-171.5 768.5q-14.5 6.5 -24.5 16.5t-24 28q-15 21 -26.5 31t-26.5 10q-23 0 -33.5 -23.5t-12.5 -65.5h-43q2 62 23 97t65 35q19 0 33.5 -6.5t24.5 -16.5t24 -28q17 -22 27.5 -31.5t25.5 -9.5q23 0 33.5 23.5t11.5 66.5h44q-2 -63 -23.5 -98t-64.5 -35q-19 0 -33.5 6.5z
" />
    <glyph glyph-name="uni0304.narrow.case" 
d="M-294 853h244v-47h-244v47z" />
    <glyph glyph-name="uni0335.dh" 
d="M-329 326h329v-45h-329v45z" />
    <glyph glyph-name="uni0307.i" 
d="M-122.5 604q-11.5 11 -11.5 29t11.5 29.5t30.5 11.5q18 0 30 -12t12 -29q0 -18 -12 -29t-30 -11q-19 0 -30.5 11z" />
    <glyph glyph-name="uni0308.narrow" 
d="M-259 603q-11 11 -11 29t11 29t30 11q17 0 28.5 -11t11.5 -29t-11.5 -29t-28.5 -11q-19 0 -30 11zM-119 603q-11 11 -11 29t11 29t29 11t29 -11t11 -29t-11 -29t-29 -11t-29 11z" />
    <glyph glyph-name="gravecomb.narrow" 
d="M-107 552l-105 158h62l100 -158h-57z" />
    <glyph glyph-name="acutecomb.narrow" 
d="M-112 710h62l-105 -158h-57z" />
    <glyph glyph-name="uni0302.narrow" 
d="M-210 710h63l97 -158h-56l-72 119l-73 -119h-56z" />
    <glyph glyph-name="uni030C.narrow" 
d="M-252 710l73 -120l72 120h56l-97 -158h-63l-97 158h56z" />
    <glyph glyph-name="uni0306.narrow" 
d="M-267 589q-30 40 -32 121h47q2 -63 19.5 -91t57.5 -28q28 0 45 12.5t24.5 38.5t8.5 68h47q-3 -82 -32.5 -121.5t-92.5 -39.5q-62 0 -92 40z" />
    <glyph glyph-name="tildecomb.narrow" 
d="M-169.5 564q-15.5 15 -30.5 51q-2 4 -9.5 21.5t-15 25.5t-16.5 8q-19 0 -26.5 -28t-9.5 -91h-43q2 56 9.5 91.5t24 53t44.5 17.5q26 0 41 -15.5t31 -51.5q12 -29 20 -41.5t21 -12.5q19 0 26.5 27.5t9.5 90.5h43q-2 -56 -10 -91t-24.5 -52.5t-43.5 -17.5q-26 0 -41.5 15z
" />
    <glyph glyph-name="uni0304.narrow" 
d="M-284 654h234v-47h-234v47z" />
    <glyph glyph-name="uni0328.narrow" 
d="M-169.5 -191.5q-24.5 21.5 -24.5 61.5q0 39 19 72.5t58 70.5l45 -13q-38 -38 -54.5 -66t-16.5 -58q0 -23 13 -34.5t35 -11.5q12 0 22.5 2.5t22.5 9.5v-44q-27 -11 -54 -11q-41 0 -65.5 21.5z" />
    <glyph glyph-name="uni0338.ss04" 
d="M-161 443l72 84l42 -32l-91 -103zM-583 -12l88 100l23 -51l-69 -81z" />
    <glyph glyph-name="uni0338.case.ss04" 
d="M-180 640l111 114l41 -37l-128 -131zM-824 -10l131 135l24 -54l-113 -118z" />
    </font>
</defs>
</svg>
