<?xml version="1.0" standalone="no"?>
<!DOCTYPE svg PUBLIC "-//W3C//DTD SVG 1.1//EN" "http://www.w3.org/Graphics/SVG/1.1/DTD/svg11.dtd" >
<svg xmlns="http://www.w3.org/2000/svg" xmlns:xlink="http://www.w3.org/1999/xlink" version="1.1">
<metadata>
Created by FontForge 20170731 at Mon Apr  9 23:07:36 2018
 By Aleksey,,,
Copyright (c) 2018 Monotype Imaging Inc. All rights reserved.
</metadata>
<defs>
<font id="NeuePlak-Black" horiz-adv-x="0" >
  <font-face 
    font-family="Neue Plak Black"
    font-weight="400"
    font-stretch="normal"
    units-per-em="1000"
    panose-1="2 11 10 4 3 2 2 2 2 4"
    ascent="770"
    descent="-230"
    x-height="499"
    cap-height="706"
    bbox="-848 -221 1013 1171"
    underline-thickness="50"
    underline-position="-200"
    unicode-range="U+000D-FEFF"
  />
<missing-glyph horiz-adv-x="702" 
d="M41 706h620v-706h-620v706zM480 150v406h-258v-406h258z" />
    <glyph glyph-name=".notdef" horiz-adv-x="702" 
d="M41 706h620v-706h-620v706zM480 150v406h-258v-406h258z" />
    <glyph glyph-name=".null" 
 />
    <glyph glyph-name="nonmarkingreturn" horiz-adv-x="333" 
 />
    <glyph glyph-name="NULL" 
 />
    <glyph glyph-name="NULL" 
 />
    <glyph glyph-name="CR" unicode="&#xd;" horiz-adv-x="180" 
 />
    <glyph glyph-name="space" unicode=" " horiz-adv-x="180" 
 />
    <glyph glyph-name="exclam" unicode="!" horiz-adv-x="326" 
d="M72 706h183l-26 -474h-133zM113 -7q-22 12 -34.5 33.5t-12.5 49.5q0 43 27 69t71 26q43 0 69.5 -26t26.5 -69t-26.5 -69t-69.5 -26q-29 0 -51 12z" />
    <glyph glyph-name="quotedbl" unicode="&#x22;" horiz-adv-x="495" 
d="M55 706h165l-22 -284h-120zM274 706h165l-22 -284h-120z" />
    <glyph glyph-name="numbersign" unicode="#" horiz-adv-x="768" 
d="M615 419l-24 -132h110l-25 -138h-109l-29 -168h-148l29 168h-141l-29 -168h-149l29 168h-109l25 138h108l23 132h-109l25 137h108l29 169h148l-29 -169h141l29 169h150l-30 -169h110l-24 -137h-109zM465 419h-141l-22 -132h141z" />
    <glyph glyph-name="dollar" unicode="$" horiz-adv-x="637" 
d="M612 259.5q5 -20.5 5 -47.5q0 -51 -20 -96q-27 -59 -90.5 -93.5t-153.5 -40.5v-72h-72v72q-92 6 -153.5 41.5t-87.5 93.5q-19 42 -19 99h194q2 -33 9 -50q16 -35 61 -46v171l-23 6l-41 12q-68 21 -108.5 47t-59.5 68q-17 41 -17 83q0 44 18 87q25 56 84 89.5t143 40.5v72
h73v-72q82 -6 139.5 -38.5t82.5 -88.5q9 -22 13.5 -45t5.5 -52h-181q0 25 -8 46q-15 33 -57 44v-150l55 -16q79 -24 126.5 -51t66.5 -72q10 -21 15 -41.5zM243.5 477.5q16.5 -10.5 42.5 -19.5v135q-26 -4 -43.5 -14.5t-24.5 -26.5q-4 -9 -4 -23q0 -13 6 -27
q7 -14 23.5 -24.5zM426 190q0 15 -7 31q-8 16 -25.5 28t-45.5 23v-155q26 3 44.5 13.5t26.5 27.5q7 14 7 32z" />
    <glyph glyph-name="percent" unicode="%" horiz-adv-x="694" 
d="M82 425q-35 18 -51 53q-16 36 -16 83q0 24 4 43.5t12 39.5q16 35 51 53t85 18q51 0 85 -18t50 -53q9 -20 13 -39t4 -44q0 -48 -17 -83q-16 -35 -50 -53t-85 -18q-50 0 -85 18zM534 706h118l-492 -706h-118zM191.5 502.5q9.5 5.5 13.5 14.5q4 7 5 18t1 26q0 32 -6 44
q-4 10 -13.5 15t-24.5 5q-16 0 -24.5 -4.5t-13.5 -15.5q-6 -13 -6 -44q0 -15 1 -26t5 -18q10 -20 38 -20q15 0 24.5 5.5zM442.5 10q-35.5 18 -51.5 53q-8 18 -11.5 38t-3.5 45t3.5 44.5t11.5 37.5q16 36 51.5 54t85.5 18t84.5 -18t50.5 -54q8 -19 12 -38.5t4 -43.5
q0 -25 -4 -44.5t-12 -38.5q-16 -35 -50.5 -53t-84.5 -18t-85.5 18zM551.5 86.5q9.5 5.5 14.5 15.5q3 8 4.5 17.5t1.5 26.5q0 29 -7 44q-5 10 -13.5 15t-23.5 5q-30 0 -39 -20q-6 -13 -6 -44q0 -17 1.5 -26.5t4.5 -17.5q10 -21 39 -21q14 0 23.5 5.5z" />
    <glyph glyph-name="ampersand" unicode="&#x26;" horiz-adv-x="692" 
d="M666 0q-105 0 -183 43q-41 -27 -90.5 -40.5t-110.5 -13.5q-84 0 -142 25t-87 68.5t-29 99.5q0 70 43 120.5t117 94.5q-35 52 -50 90t-15 75q0 48 23.5 84.5t74 57.5t126.5 21q101 0 161.5 -38.5t60.5 -117.5q0 -42 -23.5 -76t-59.5 -60.5t-91 -58.5l93 -127q23 40 55 107
l126 -53q-37 -86 -73 -142q35 -13 74 -13v-146zM289 525.5q9 -22.5 30 -53.5q42 26 64.5 50t22.5 52q0 23 -15 37.5t-44 14.5q-32 0 -49.5 -16t-17.5 -43q0 -19 9 -41.5zM233 138q27 -21 74 -21q42 0 73 18l-5 7l-113 150q-56 -46 -56 -96q0 -37 27 -58z" />
    <glyph glyph-name="quotesingle" unicode="'" horiz-adv-x="275" 
d="M55 706h165l-22 -284h-120z" />
    <glyph glyph-name="parenleft" unicode="(" horiz-adv-x="370" 
d="M131.5 -46.5q-30.5 74.5 -47 158t-16.5 181.5t16.5 182t46.5 158.5t77 155.5h148q-70 -120 -106 -238.5t-36 -257.5t36 -258t106 -237h-148q-46 81 -76.5 155.5z" />
    <glyph glyph-name="parenright" unicode=")" horiz-adv-x="370" 
d="M14 -202q70 118 106 237t36 258t-36 257.5t-106 238.5h148q47 -81 77 -155.5t46.5 -158.5t16.5 -182t-16.5 -181.5t-47 -158t-76.5 -155.5h-148z" />
    <glyph glyph-name="asterisk" unicode="*" horiz-adv-x="405" 
d="M62 444l85 81l-117 15l35 107l104 -58l-23 117h113l-23 -117l104 58l35 -107l-117 -15l86 -81l-92 -66l-49 108l-51 -108z" />
    <glyph glyph-name="plus" unicode="+" horiz-adv-x="576" 
d="M533 231h-179v-180h-131v180h-180v127h180v181h131v-181h179v-127z" />
    <glyph glyph-name="comma" unicode="," horiz-adv-x="291" 
d="M91 161h158l-105 -338h-120z" />
    <glyph glyph-name="hyphen" unicode="-" horiz-adv-x="398" 
d="M43 364h312v-138h-312v138z" />
    <glyph glyph-name="period" unicode="." horiz-adv-x="337" 
d="M118 -7q-22 12 -34.5 33.5t-12.5 49.5q0 43 27 69t71 26q43 0 69.5 -26t26.5 -69t-26.5 -69t-69.5 -26q-29 0 -51 12z" />
    <glyph glyph-name="slash" unicode="/" horiz-adv-x="534" 
d="M346 725h164l-322 -775h-165z" />
    <glyph glyph-name="zero" unicode="0" horiz-adv-x="680" 
d="M170.5 21q-69.5 40 -103.5 120q-18 42 -27 93.5t-9 118.5t9 118.5t27 93.5q34 80 103.5 120t169.5 40q99 0 168.5 -40t103.5 -120q18 -42 27.5 -94t9.5 -118t-9.5 -118t-27.5 -94q-34 -80 -103.5 -120t-168.5 -40q-100 0 -169.5 40zM443 194q10 21 13 56t3 103t-3 103
t-13 57q-27 59 -103 59q-77 0 -104 -59q-9 -22 -12.5 -58t-3.5 -102t3.5 -101.5t12.5 -57.5q27 -59 104 -59q76 0 103 59z" />
    <glyph glyph-name="one" unicode="1" horiz-adv-x="365" 
d="M130 548h-123l33 158h266v-706h-176v548z" />
    <glyph glyph-name="two" unicode="2" horiz-adv-x="592" 
d="M0 3l295 345q46 53 64.5 84.5t18.5 63.5q0 21 -8 37q-9 22 -30 33t-51 11q-64 0 -86 -49q-13 -27 -13 -73h-173q0 80 25 136q30 67 94 100.5t157 33.5q91 0 156 -33t95 -98q19 -44 19 -100q0 -50 -18.5 -90.5t-59.5 -85.5q-68 -75 -165 -166h251v-152h-571v3z" />
    <glyph glyph-name="three" unicode="3" horiz-adv-x="612" 
d="M583 198q0 -49 -18 -90q-59 -127 -263 -127q-99 0 -166 32t-94 95q-26 59 -26 154h170q-1 -54 14 -86q23 -53 95 -53q35 0 59.5 12.5t34.5 36.5q9 20 9 44q0 26 -10 46q-13 27 -42 38t-72 11h-25v116h25q85 0 107 46q7 15 7 36q0 23 -8 42q-19 43 -86 43q-34 0 -56.5 -12
t-33.5 -35q-7 -17 -9 -46h-168q0 57 19 98q28 63 96.5 94.5t161.5 31.5q94 0 157 -32t89 -89q16 -38 16 -80q0 -39 -13 -66q-14 -31 -39 -52.5t-65 -34.5q90 -24 119 -90q15 -36 15 -83z" />
    <glyph glyph-name="four" unicode="4" horiz-adv-x="685" 
d="M673 143h-97v-143h-176v143h-415v2l266 561h325v-417h97v-146zM400 289v359h-1l-158 -359h159z" />
    <glyph glyph-name="five" unicode="5" horiz-adv-x="605" 
d="M47 112q-26 60 -26 144h174q0 -52 13 -82q23 -51 90 -51q33 0 56 13.5t34 38.5q10 23 10 52q0 32 -11 56q-18 40 -67.5 57t-127.5 17q-34 0 -71 -2.5t-67 -7.5l61 359h443l-33 -149h-268l-19 -100q49 11 95 11q82 0 141 -31.5t86 -91.5q23 -51 23 -116t-23 -114
q-29 -65 -94 -99.5t-160 -34.5q-199 0 -259 131z" />
    <glyph glyph-name="six" unicode="6" horiz-adv-x="667" 
d="M641 240q0 -66 -22 -114q-32 -70 -102.5 -107.5t-167.5 -37.5q-107 0 -176.5 41.5t-105.5 121.5q-36 81 -36 201q0 130 39 214q36 81 106.5 123.5t173.5 42.5q68 0 123 -19t92 -57q53 -53 65 -133h-173q-7 27 -25 45q-30 30 -83 30q-85 0 -118 -76q-22 -47 -22 -126
q30 38 79.5 58.5t112.5 20.5q79 0 136 -30.5t83 -88.5q21 -48 21 -109zM457 233q0 29 -11 56q-12 27 -37.5 41t-62.5 14q-38 0 -64.5 -15t-38.5 -43q-11 -23 -11 -54q0 -32 10 -53q12 -28 38.5 -43t64.5 -15q37 0 63 14t38 42q11 25 11 56z" />
    <glyph glyph-name="seven" unicode="7" horiz-adv-x="580" 
d="M321 548h-301v158h564l-312 -706h-201z" />
    <glyph glyph-name="eight" unicode="8" horiz-adv-x="648" 
d="M619 203q0 -26 -4 -47t-13 -42q-29 -64 -100 -98.5t-178 -34.5t-178 35t-100 98q-9 21 -13 42t-4 47q0 47 17 84q17 36 47.5 61t73.5 35q-37 10 -64.5 31.5t-40.5 51.5q-14 31 -14 69t14 71q26 58 95 88.5t167 30.5q97 0 166 -30.5t96 -88.5q14 -33 14 -71t-14 -69
q-14 -30 -41 -51.5t-63 -31.5q87 -21 119 -94q18 -39 18 -86zM226 521q0 -22 7 -39q11 -24 34.5 -36.5t56.5 -12.5t56.5 12.5t34.5 36.5q7 15 7 39t-8 41q-10 22 -33 34.5t-57 12.5t-57 -12.5t-33 -34.5q-8 -17 -8 -41zM431 186.5q2 9.5 2 24.5q0 24 -9 45q-12 26 -38 40
t-62 14q-37 0 -62.5 -14t-37.5 -40q-9 -19 -9 -44q0 -15 2 -25t7 -20q12 -26 38 -39.5t62 -13.5t62 13.5t38 39.5q5 10 7 19.5z" />
    <glyph glyph-name="nine" unicode="9" horiz-adv-x="667" 
d="M636 362q0 -128 -38 -214q-36 -81 -106.5 -123t-173.5 -42q-68 0 -123 19t-93 56q-52 52 -65 134h173q7 -27 26 -46q29 -29 82 -29q85 0 118 75q22 48 22 126q-30 -38 -79.5 -58t-112.5 -20q-79 0 -136 30.5t-83 88.5q-21 47 -21 109q0 64 23 113q31 71 101.5 108.5
t167.5 37.5q210 0 282 -164q36 -81 36 -201zM435 476q0 32 -10 53q-12 28 -38.5 43t-63.5 15t-63 -14.5t-39 -41.5q-10 -23 -10 -56t10 -56q12 -27 38 -41.5t62 -14.5q38 0 64.5 15.5t39.5 43.5q10 24 10 54z" />
    <glyph glyph-name="colon" unicode=":" horiz-adv-x="337" 
d="M118 -7q-22 12 -34.5 33.5t-12.5 49.5q0 43 27 69t71 26q43 0 69.5 -26t26.5 -69t-26.5 -69t-69.5 -26q-29 0 -51 12zM118 325q-22 12 -34.5 33.5t-12.5 49.5q0 43 27 69t71 26q43 0 69.5 -26t26.5 -69t-26.5 -69t-69.5 -26q-29 0 -51 12z" />
    <glyph glyph-name="semicolon" unicode=";" horiz-adv-x="342" 
d="M91 161h158l-105 -338h-120zM123 325q-22 12 -34.5 33.5t-12.5 49.5q0 43 27 69t71 26q43 0 69.5 -26t26.5 -69t-26.5 -69t-69.5 -26q-29 0 -51 12z" />
    <glyph glyph-name="less" unicode="&#x3c;" horiz-adv-x="576" 
d="M533 386l-359 -91l359 -92v-130l-491 134v175l491 134v-130z" />
    <glyph glyph-name="equal" unicode="=" horiz-adv-x="576" 
d="M43 460h490v-127h-490v127zM43 256h490v-127h-490v127z" />
    <glyph glyph-name="greater" unicode="&#x3e;" horiz-adv-x="576" 
d="M533 382v-175l-490 -134v130l359 92l-359 91v130z" />
    <glyph glyph-name="question" unicode="?" horiz-adv-x="545" 
d="M281.5 400q31.5 52 43.5 81t12 54q0 63 -70 63q-26 0 -42 -8.5t-24 -26.5q-4 -10 -5.5 -20t-1.5 -26h-164q0 30 4 53t13 43q25 55 83 83.5t145 28.5q74 0 128 -21.5t83 -63t29 -99.5q0 -32 -12 -64t-41.5 -83t-100.5 -162h-185q74 116 105.5 168zM213 -8
q-22 12 -34.5 33.5t-12.5 49.5q0 44 26.5 70t70.5 26t70.5 -26t26.5 -70q0 -28 -12 -49.5t-34 -33.5t-51 -12q-28 0 -50 12z" />
    <glyph glyph-name="at" unicode="@" horiz-adv-x="856" 
d="M828 340q0 -45 -6.5 -80.5t-20.5 -66.5q-30 -66 -88 -99.5t-151 -33.5h-64v56q-22 -27 -58.5 -42.5t-83.5 -15.5q-51 0 -87.5 19.5t-51.5 53.5q-11 27 -11 60t12 60q17 41 67.5 60.5t145.5 19.5h62v4q0 20 -1 34.5t-5 22.5q-12 24 -57 24q-42 0 -56 -24q-5 -11 -5 -30
h-147q0 37 12 64q21 44 73 66t127 22t120.5 -20.5t65.5 -60.5q9 -20 12 -48.5t3 -70.5v-171q65 16 93 83q20 43 20 111q0 79 -25 133q-34 75 -109 115.5t-181 40.5q-112 0 -185 -42t-108 -121q-32 -70 -32 -169q0 -52 8 -94t24 -77q37 -83 119 -126t200 -43q41 0 89 5v-70
q-43 -6 -90 -6q-145 0 -244 53t-146 155q-40 88 -40 198q0 59 10.5 107.5t31.5 93.5q44 96 136.5 149t228.5 53q132 0 226.5 -50t136.5 -146q30 -69 30 -156zM494 257h-54q-31 0 -50.5 -5.5t-27.5 -20.5q-4 -11 -4 -23q0 -15 4 -24q7 -12 20.5 -17.5t34.5 -5.5q26 0 44 8
t25 25q5 11 6.5 22.5t1.5 33.5v7z" />
    <glyph glyph-name="A" unicode="A" horiz-adv-x="726" 
d="M501 133h-276l-41 -133h-188l232 706h270l232 -706h-188zM459 269l-95 306h-2l-95 -306h192z" />
    <glyph glyph-name="B" unicode="B" horiz-adv-x="630" 
d="M604 199q0 -50 -17 -87q-24 -55 -82 -83.5t-142 -28.5h-313v706h316q75 0 125 -25.5t71 -72.5q8 -18 12 -36t4 -40t-3.5 -39t-10.5 -33q-24 -58 -101 -81q48 -14 78.5 -37.5t46.5 -58.5q16 -33 16 -84zM230 423h59q72 0 91 42q4 10 6 19.5t2 23.5q0 12 -2 21t-6 18
q-19 42 -92 42h-58v-166zM409 211q0 22 -9 43q-11 25 -38 36.5t-69 11.5h-63v-183h62q43 0 70 11.5t38 36.5q9 20 9 44z" />
    <glyph glyph-name="C" unicode="C" horiz-adv-x="738" 
d="M185 28.5q-82 47.5 -122 138.5q-35 79 -35 186t35 186q40 89 122 137.5t198 48.5q71 0 131.5 -21.5t105.5 -61.5q42 -38 65.5 -91t24.5 -114h-192q-3 60 -41 95q-19 17 -43 25t-58 8q-49 0 -83 -20t-51 -59q-11 -25 -15.5 -55.5t-4.5 -76.5q0 -48 4.5 -79.5t14.5 -55.5
q36 -78 136 -78q68 0 104 35q17 15 27.5 37.5t11.5 49.5h193q-1 -59 -24 -110t-64 -87q-45 -41 -107.5 -63t-134.5 -22q-116 0 -198 47.5z" />
    <glyph glyph-name="D" unicode="D" horiz-adv-x="722" 
d="M50 706h298q116 0 195.5 -45t116.5 -129q17 -36 25 -80t8 -99t-8 -99t-25 -80q-37 -84 -116.5 -129t-195.5 -45h-298v706zM319 154q64 0 104 22t59 65q10 21 14 48t4 64t-4 64.5t-14 48.5q-20 43 -59.5 64.5t-103.5 21.5h-88v-398h88z" />
    <glyph glyph-name="E" unicode="E" horiz-adv-x="550" 
d="M50 706h468v-148h-287v-129h284v-142h-284v-139h287v-148h-468v706z" />
    <glyph glyph-name="F" unicode="F" horiz-adv-x="474" 
d="M50 706h399v-149h-218v-128h216v-146h-216v-283h-181v706z" />
    <glyph glyph-name="G" unicode="G" horiz-adv-x="746" 
d="M718 388v-46q0 -108 -37 -189q-38 -86 -113 -129t-184 -43q-117 0 -199 48.5t-123 137.5q-34 79 -34 186q0 105 35 186q41 90 123 138t198 48q74 0 135.5 -20.5t104.5 -60.5q38 -35 61 -82.5t27 -101.5h-187q-8 50 -38 76q-18 17 -44.5 25.5t-60.5 8.5q-102 0 -140 -81
q-11 -26 -16 -56.5t-5 -79.5q0 -48 5 -78.5t16 -56.5q37 -82 147 -82q50 0 84.5 18t50.5 53q11 24 12 55h-156v126h338z" />
    <glyph glyph-name="H" unicode="H" horiz-adv-x="720" 
d="M50 706h181v-276h258v276h181v-706h-181v281h-258v-281h-181v706z" />
    <glyph glyph-name="I" unicode="I" horiz-adv-x="281" 
d="M50 706h181v-706h-181v706z" />
    <glyph glyph-name="J" unicode="J" horiz-adv-x="347" 
d="M7 0v160q17 -3 36 -3q32 0 50 9t26 29.5t8 56.5v454h181v-487q0 -76 -23.5 -125t-73.5 -73.5t-131 -24.5q-41 0 -73 4z" />
    <glyph glyph-name="K" unicode="K" horiz-adv-x="691" 
d="M474 0l-243 315v-315h-181v706h181v-257l211 257h214l-269 -317l310 -389h-223z" />
    <glyph glyph-name="L" unicode="L" horiz-adv-x="427" 
d="M50 706h181v-550h189v-156h-370v706z" />
    <glyph glyph-name="M" unicode="M" horiz-adv-x="891" 
d="M50 706h210l186 -425l186 425h209v-706h-171v429l-185 -429h-79l-185 429v-429h-171v706z" />
    <glyph glyph-name="N" unicode="N" horiz-adv-x="736" 
d="M50 706h181l279 -436v436h176v-706h-183l-277 435v-435h-176v706z" />
    <glyph glyph-name="O" unicode="O" horiz-adv-x="764" 
d="M193.5 24q-78.5 43 -118.5 123q-23 41 -35 93.5t-12 112.5q0 105 36 188q39 88 121 136t197 48t196.5 -47.5t120.5 -134.5q36 -85 36 -190q0 -108 -37 -191q-39 -87 -120 -134t-196 -47q-110 0 -188.5 43zM469.5 163q34.5 22 52.5 63q11 25 16 55t5 72t-4.5 72t-15.5 56
q-40 84 -141 84q-103 0 -141 -84q-11 -25 -15.5 -54.5t-4.5 -73.5q0 -42 5 -72t16 -55q38 -85 140 -85q53 0 87.5 22z" />
    <glyph glyph-name="P" unicode="P" horiz-adv-x="609" 
d="M50 706h308q85 0 139.5 -25.5t78.5 -80.5q20 -48 20 -112q0 -58 -20 -106q-25 -55 -79.5 -83t-138.5 -28h-127v-271h-181v706zM307 402q37 0 61 9.5t34 30.5q8 21 8 45t-8 45q-10 21 -33.5 30t-62.5 9h-75v-169h76z" />
    <glyph glyph-name="Q" unicode="Q" horiz-adv-x="764" 
d="M735 353q0 -108 -37 -191q-47 -102 -149 -149l69 -100l-129 -82l-93 150h-14q-110 0 -188.5 43t-118.5 123q-23 41 -35 93.5t-12 112.5q0 105 36 188q39 88 121 136t197 48t196.5 -47.5t120.5 -134.5q36 -85 36 -190zM452 154q48 20 70 72q11 25 16 55t5 72t-4.5 72
t-15.5 56q-40 84 -141 84q-103 0 -141 -84q-11 -25 -15.5 -54.5t-4.5 -73.5q0 -42 5 -72t16 -55q30 -67 98 -81l80 55z" />
    <glyph glyph-name="R" unicode="R" horiz-adv-x="641" 
d="M258 282h-27v-282h-181v706h313q168 0 218 -109q19 -44 19 -103q0 -29 -5 -56t-14 -48q-34 -84 -132 -102l205 -288h-205zM231 402h79q38 0 62 10t34 31q9 18 9 45q0 26 -9 44q-10 21 -34 30t-62 9h-79v-169z" />
    <glyph glyph-name="S" unicode="S" horiz-adv-x="634" 
d="M137 17.5q-70 36.5 -99 99.5q-19 42 -19 99h199q0 -33 9 -51q21 -49 94 -49q33 0 56 11t33 31q6 13 6 32q0 18 -6 31q-8 19 -28 32t-46 21.5t-67 19.5q-9 2 -49 14q-62 18 -105.5 46.5t-63.5 72.5q-16 35 -16 81q0 44 18 87q27 61 95.5 95.5t164.5 34.5q93 0 159 -33
t94 -95q10 -23 14.5 -45.5t4.5 -51.5h-188q0 17 -2 29t-7 23q-19 42 -82 42q-31 0 -52 -10t-29 -28q-5 -11 -5 -26q0 -16 5 -27q7 -16 24.5 -27t41.5 -18.5t63 -17.5q37 -10 47 -13q77 -21 126.5 -49t70.5 -77q17 -39 17 -89q0 -52 -19 -96q-30 -65 -103.5 -100t-178.5 -35
q-107 0 -177 36.5z" />
    <glyph glyph-name="T" unicode="T" horiz-adv-x="498" 
d="M159 557h-152v149h484v-149h-151v-557h-181v557z" />
    <glyph glyph-name="U" unicode="U" horiz-adv-x="681" 
d="M168.5 10q-66.5 29 -98.5 89t-32 153v454h181v-442q0 -63 29.5 -95t90.5 -32q63 0 93 32t30 95v442h181v-454q0 -94 -32.5 -153.5t-99.5 -88.5t-172 -29q-104 0 -170.5 29z" />
    <glyph glyph-name="V" unicode="V" horiz-adv-x="706" 
d="M710 706l-265 -706h-183l-266 706h192l165 -487l166 487h191z" />
    <glyph glyph-name="W" unicode="W" horiz-adv-x="983" 
d="M987 706l-195 -706h-188l-112 465l-112 -465h-185l-199 706h181l114 -449l107 449h190l106 -448l113 448h180z" />
    <glyph glyph-name="X" unicode="X" horiz-adv-x="729" 
d="M255 378l-230 328h212l128 -195l128 195h212l-230 -331l260 -375h-214l-156 236l-156 -236h-216z" />
    <glyph glyph-name="Y" unicode="Y" horiz-adv-x="632" 
d="M226 304l-230 402h196l124 -231l124 231h196l-229 -402v-304h-181v304z" />
    <glyph glyph-name="Z" unicode="Z" horiz-adv-x="610" 
d="M304 557h-282v149h563l-296 -557h308v-149h-592z" />
    <glyph glyph-name="bracketleft" unicode="[" horiz-adv-x="353" 
d="M85 789h251v-126h-109v-739h109v-126h-251v991z" />
    <glyph glyph-name="backslash" unicode="\" horiz-adv-x="534" 
d="M346 -50l-323 775h165l322 -775h-164z" />
    <glyph glyph-name="bracketright" unicode="]" horiz-adv-x="353" 
d="M17 -202v126h109v739h-109v126h251v-991h-251z" />
    <glyph glyph-name="asciicircum" unicode="^" horiz-adv-x="516" 
d="M337 370l-78 206l-79 -206h-163l137 336h209l136 -336h-162z" />
    <glyph glyph-name="underscore" unicode="_" horiz-adv-x="424" 
d="M0 -56h424v-138h-424v138z" />
    <glyph glyph-name="grave" unicode="`" horiz-adv-x="357" 
d="M159 551l-109 159h164l93 -159h-148z" />
    <glyph glyph-name="a" unicode="a" horiz-adv-x="563" 
d="M526 287v-287h-167v59q-26 -36 -66 -54.5t-99 -18.5q-60 0 -102.5 21.5t-60.5 62.5q-14 28 -14 71q0 40 12 68q25 55 89 75.5t166 20.5h75v8q0 22 -1.5 33t-6.5 21q-15 33 -69 33q-29 0 -46 -7.5t-25 -24.5q-3 -7 -4 -14t-2 -16h-170q1 40 15 70q24 53 83.5 79.5
t146.5 26.5q91 0 145.5 -25t79.5 -79q21 -49 21 -123zM350 150q5 10 7 22t2 33v7h-64q-41 0 -65.5 -6.5t-32.5 -24.5q-5 -10 -5 -22q0 -14 5 -24q14 -30 66 -30q67 0 87 45z" />
    <glyph glyph-name="b" unicode="b" horiz-adv-x="599" 
d="M579 250q0 -82 -27 -144q-27 -58 -76.5 -89t-117.5 -31q-51 0 -89 18.5t-65 55.5v-60h-163v706h167v-261q27 35 64 52t86 17q68 0 118 -31.5t76 -89.5q27 -62 27 -143zM401 250q0 51 -12 78q-11 25 -33 37.5t-53 12.5q-47 0 -72 -29t-25 -85v-29q0 -56 25 -85t72 -29
q31 0 53 12.5t33 37.5q12 29 12 79z" />
    <glyph glyph-name="c" unicode="c" horiz-adv-x="572" 
d="M137.5 20.5q-63.5 34.5 -93.5 101.5q-25 56 -25 128q0 71 25 127q30 66 93.5 101.5t150.5 35.5q61 0 111.5 -17t86.5 -49q60 -54 66 -143h-181q-3 33 -25 54q-10 9 -24.5 14t-32.5 5q-27 0 -47 -11.5t-30 -33.5q-7 -15 -9.5 -34t-2.5 -49t2.5 -49t9.5 -34
q10 -22 30 -33.5t47 -11.5q38 0 57 18q11 10 17.5 25t6.5 31h181q-5 -89 -65 -144q-35 -32 -85.5 -49t-112.5 -17q-87 0 -150.5 34.5z" />
    <glyph glyph-name="d" unicode="d" horiz-adv-x="599" 
d="M557 706v-706h-163v59q-27 -37 -65 -55t-88 -18q-68 0 -118 31.5t-76 88.5q-28 61 -28 144q0 79 28 143q26 58 76 89.5t118 31.5q99 0 150 -69v261h166zM392 264q0 55 -24.5 84.5t-71.5 29.5q-32 0 -54 -12.5t-33 -37.5q-12 -27 -12 -78q0 -50 12 -79q11 -25 33 -37.5
t54 -12.5q47 0 71.5 29.5t24.5 84.5v29z" />
    <glyph glyph-name="e" unicode="e" horiz-adv-x="577" 
d="M378 146.5q5 10.5 7 21.5h169q-6 -71 -57 -117q-36 -33 -87.5 -49t-112.5 -16q-92 0 -158 35.5t-96 102.5q-24 54 -24 127q0 39 6 68.5t18 56.5q29 66 92 102t151 36q89 0 152.5 -37t93.5 -103q16 -35 21 -71t5 -94h-370q3 -36 12 -53q21 -48 94 -48q46 0 70 21
q9 7 14 17.5zM233.5 383.5q-22.5 -12.5 -33.5 -36.5q-5 -10 -7.5 -19.5t-3.5 -23.5h199q-1 14 -3 23.5t-7 19.5q-22 49 -89 49q-33 0 -55.5 -12.5z" />
    <glyph glyph-name="f" unicode="f" horiz-adv-x="365" 
d="M73 369h-61v130h61v45q0 63 20.5 102.5t65 58.5t115.5 19q20 0 41.5 -2.5t38.5 -6.5v-132q-19 8 -49 8q-32 0 -48.5 -16t-16.5 -47v-29h111v-130h-111v-369h-167v369z" />
    <glyph glyph-name="g" unicode="g" horiz-adv-x="597" 
d="M556 499v-471q0 -74 -24 -126q-53 -118 -238 -118q-137 0 -208 63q-25 22 -39 50t-20 65h175q3 -22 19 -36q24 -21 72 -21q69 0 88 45q9 18 9 46v70q-26 -35 -64 -53.5t-91 -18.5q-67 0 -115.5 30.5t-74.5 87.5q-13 31 -19.5 65t-6.5 77t6.5 77t19.5 64q26 57 74.5 88
t115.5 31q104 0 157 -75v60h164zM365.5 153.5q24.5 28.5 24.5 82.5v30q0 55 -24.5 84t-70.5 29q-31 0 -53 -12.5t-33 -36.5q-7 -15 -9.5 -33t-2.5 -43q0 -29 2.5 -47t9.5 -34q11 -23 33 -35.5t53 -12.5q46 0 70.5 28.5z" />
    <glyph glyph-name="h" unicode="h" horiz-adv-x="574" 
d="M491.5 464q46.5 -50 46.5 -143v-321h-167v285q0 49 -19 71t-59 22q-42 0 -63.5 -24.5t-21.5 -73.5v-280h-167v706h167v-269q53 77 153 77q84 0 130.5 -50z" />
    <glyph glyph-name="i" unicode="i" horiz-adv-x="249" 
d="M80 561.5q-20 10.5 -31.5 29.5t-11.5 43t11.5 43t31.5 29.5t45 10.5t45 -10.5t31.5 -29.5t11.5 -43t-11.5 -43t-31.5 -29.5t-45 -10.5t-45 10.5zM41 499h167v-499h-167v499z" />
    <glyph glyph-name="j" unicode="j" horiz-adv-x="257" 
d="M87 561.5q-20 10.5 -31.5 29.5t-11.5 43t11.5 43t31.5 29.5t45 10.5t44.5 -10.5t31 -29.5t11.5 -43t-11.5 -43t-31 -29.5t-44.5 -10.5t-45 10.5zM-33 -203v142q19 -3 33 -3q26 0 38 12.5t12 38.5v512h166v-529q0 -62 -18.5 -101t-57.5 -57.5t-102 -18.5q-42 0 -71 4z" />
    <glyph glyph-name="k" unicode="k" horiz-adv-x="563" 
d="M363 0l-155 208v-208h-167v706h167v-370l139 163h207l-201 -225l223 -274h-213z" />
    <glyph glyph-name="l" unicode="l" horiz-adv-x="249" 
d="M41 706h167v-706h-167v706z" />
    <glyph glyph-name="m" unicode="m" horiz-adv-x="883" 
d="M803 464q44 -50 44 -143v-321h-167v286q0 48 -18 70t-56 22q-39 0 -59 -25t-20 -73v-280h-166v286q0 48 -18.5 70t-56.5 22t-58 -24.5t-20 -73.5v-280h-167v499h167v-60q24 35 63 55t91 20q56 0 94.5 -21t56.5 -64q28 43 68 64t95 21q83 0 127 -50z" />
    <glyph glyph-name="n" unicode="n" horiz-adv-x="574" 
d="M491.5 464q46.5 -50 46.5 -143v-321h-167v285q0 49 -19 71t-59 22q-42 0 -63.5 -24.5t-21.5 -73.5v-280h-167v499h167v-62q53 77 153 77q84 0 130.5 -50z" />
    <glyph glyph-name="o" unicode="o" horiz-adv-x="586" 
d="M137.5 22.5q-64.5 36.5 -94.5 103.5q-24 54 -24 124q0 69 24 123q30 67 94.5 104t155.5 37t155 -36.5t94 -103.5q25 -53 25 -124q0 -72 -25 -125q-30 -66 -94 -102.5t-155 -36.5t-155.5 36.5zM377 168q7 15 9.5 34.5t2.5 47.5q0 56 -12 81q-21 47 -84 47q-62 0 -84 -47
q-12 -28 -12 -81q0 -52 12 -82q22 -47 84 -47t84 47z" />
    <glyph glyph-name="p" unicode="p" horiz-adv-x="599" 
d="M579 250q0 -82 -27 -144q-27 -57 -76.5 -88.5t-117.5 -31.5q-99 0 -150 69v-257h-167v701h163v-60q53 75 154 75q68 0 117.5 -31.5t76.5 -89.5q27 -62 27 -143zM401 250q0 51 -12 78q-11 25 -33 37.5t-53 12.5q-47 0 -72 -29t-25 -85v-27q0 -56 25 -85t72 -29
q31 0 53 12.5t33 37.5q12 27 12 77z" />
    <glyph glyph-name="q" unicode="q" horiz-adv-x="599" 
d="M557 499v-701h-166v258q-27 -36 -64 -53t-86 -17q-68 0 -118 31.5t-76 88.5q-28 61 -28 144q0 82 28 143q26 58 76 89.5t118 31.5q50 0 88 -18.5t65 -55.5v59h163zM367.5 152.5q24.5 29.5 24.5 84.5v27q0 55 -24.5 84.5t-71.5 29.5q-32 0 -54 -12.5t-33 -37.5
q-12 -27 -12 -78q0 -50 12 -77q11 -25 33 -37.5t54 -12.5q47 0 71.5 29.5z" />
    <glyph glyph-name="r" unicode="r" horiz-adv-x="406" 
d="M41 499h166v-45q19 31 41.5 45t52.5 14q45 0 71.5 -26.5t26.5 -70.5q0 -28 -12 -50t-34 -34.5t-50 -12.5q-26 0 -47 12.5t-31 32.5q-11 -5 -14 -14t-3 -35v-315h-167v499z" />
    <glyph glyph-name="s" unicode="s" horiz-adv-x="499" 
d="M112 7.5q-55 25.5 -77 75.5q-16 35 -16 81h164q0 -25 7 -39q7 -16 21.5 -24t37.5 -8q20 0 33.5 6t18.5 18q4 8 4 19t-4 18q-6 13 -20 21t-37 15t-49 13q-54 14 -91.5 35t-55.5 60q-11 27 -11 57q0 36 13 65q20 46 73 70t126 24t124.5 -23t72.5 -69q14 -31 14 -70h-158
q0 21 -6 34q-13 27 -50 27q-17 0 -28.5 -5.5t-16.5 -15.5q-3 -7 -3 -16q0 -10 3 -16q6 -13 22 -21.5t39.5 -15.5t47.5 -13q61 -16 100.5 -38t57.5 -61q11 -23 11 -59q0 -40 -13 -69q-23 -51 -81 -76t-138 -25t-135 25.5z" />
    <glyph glyph-name="t" unicode="t" horiz-adv-x="377" 
d="M151 8q-37 17 -54.5 54t-17.5 100v207h-67v130h67v119h167v-119h117v-130h-117v-178q0 -37 14.5 -52t46.5 -15q25 0 52 7v-129q-53 -11 -110 -11q-61 0 -98 17z" />
    <glyph glyph-name="u" unicode="u" horiz-adv-x="574" 
d="M533 499v-499h-167v61q-27 -37 -64.5 -56.5t-88.5 -19.5q-84 0 -130.5 50t-46.5 143v321h167v-285q0 -49 19 -71t59 -22q85 0 85 98v280h167z" />
    <glyph glyph-name="v" unicode="v" horiz-adv-x="552" 
d="M-4 500h179l101 -311l102 311h178l-187 -500h-186z" />
    <glyph glyph-name="w" unicode="w" horiz-adv-x="854" 
d="M859 500l-180 -500h-168l-84 288l-84 -288h-170l-177 500h177l83 -294l91 294h157l92 -292l84 292h179z" />
    <glyph glyph-name="x" unicode="x" horiz-adv-x="579" 
d="M189 257l-189 242h198l91 -134l93 134h197l-188 -242l196 -257h-196l-102 145l-101 -145h-195z" />
    <glyph glyph-name="y" unicode="y" horiz-adv-x="553" 
d="M557 499l-201 -499l-81 -202h-167l82 204l-194 497h180l103 -319l103 319h175z" />
    <glyph glyph-name="z" unicode="z" horiz-adv-x="490" 
d="M262 131h216v-131h-478l236 369h-213v130h464z" />
    <glyph glyph-name="braceleft" unicode="{" horiz-adv-x="402" 
d="M254.5 330.5q-22.5 -29.5 -70.5 -37.5q49 -8 71 -37.5t22 -88.5v-156q0 -35 7.5 -54.5t28 -29.5t58.5 -10h14v-119h-69q-57 0 -96 22.5t-58 62t-19 91.5v161q0 35 -8.5 54.5t-28.5 28t-56 8.5v135q36 0 56 8.5t28.5 28t8.5 54.5v160q0 53 19 92.5t58 62t96 22.5h69v-119
h-14q-38 0 -58.5 -10t-28 -29.5t-7.5 -54.5v-156q0 -60 -22.5 -89.5z" />
    <glyph glyph-name="bar" unicode="|" horiz-adv-x="349" 
d="M90 756h168v-958h-168v958z" />
    <glyph glyph-name="braceright" unicode="}" horiz-adv-x="402" 
d="M267.5 397.5q8.5 -19.5 28.5 -28t56 -8.5v-135q-36 0 -56 -8.5t-28.5 -28t-8.5 -54.5v-161q0 -52 -19 -91.5t-58 -62t-96 -22.5h-69v119h14q38 0 58.5 10t28.5 30t8 54v156q0 60 22 89t70 37q-48 8 -70 37.5t-22 89.5v156q0 34 -8 54t-28.5 30t-58.5 10h-14v119h69
q57 0 96 -22.5t58 -62t19 -92.5v-160q0 -35 8.5 -54.5z" />
    <glyph glyph-name="asciitilde" unicode="~" horiz-adv-x="576" 
d="M348 190q-19 6 -36.5 16t-32.5 20q-25 17 -37.5 23.5t-27.5 6.5q-20 0 -30 -17.5t-12 -52.5h-117q5 109 37.5 163.5t98.5 54.5q30 0 53.5 -11t54.5 -31q4 -2 18 -11.5t25.5 -14t21.5 -4.5q20 0 30 17.5t12 52.5h116q-5 -109 -37.5 -163.5t-97.5 -54.5q-20 0 -39 6z" />
    <glyph glyph-name="uni00A0" unicode="&#xa0;" horiz-adv-x="180" 
 />
    <glyph glyph-name="exclamdown" unicode="&#xa1;" horiz-adv-x="326" 
d="M113 337q-22 12 -34.5 33.5t-12.5 49.5q0 43 27 69t71 26q43 0 69.5 -26t26.5 -69q0 -28 -12 -49.5t-34 -33.5t-50 -12q-29 0 -51 12zM97 266h133l24 -468h-183z" />
    <glyph glyph-name="cent" unicode="&#xa2;" horiz-adv-x="574" 
d="M371.5 268.5q6.5 14.5 7.5 31.5h175q-4 -88 -65 -144q-30 -27 -71.5 -43t-90.5 -21v-92h-73v92q-75 6 -129.5 40.5t-80.5 93.5q-25 56 -25 128q0 71 25 127q27 59 81 93.5t129 41.5v90h73v-90q49 -4 90.5 -20t71.5 -44q30 -27 46.5 -63t18.5 -79h-175q-3 36 -24 54
q-13 11 -32 16v-252q17 4 31 15q11 11 17.5 25.5zM258 228v252q-35 -11 -51 -44q-7 -15 -9.5 -33.5t-2.5 -48.5t2.5 -49t9.5 -33q16 -33 51 -44z" />
    <glyph glyph-name="sterling" unicode="&#xa3;" horiz-adv-x="663" 
d="M636 262q0 -90 -24 -147q-26 -58 -81.5 -86.5t-144.5 -28.5h-363v131h75v188h-75v83h75v49q0 92 27 152q28 62 89.5 92t158.5 30q93 0 151 -28.5t85 -88.5q26 -58 26 -144h-170q0 51 -13 81q-21 43 -79 43q-59 0 -80 -46q-14 -31 -14 -85v-55h201v-83h-201v-188h64
q45 0 71.5 12.5t39.5 40.5q13 29 13 78h169z" />
    <glyph glyph-name="currency" unicode="&#xa4;" horiz-adv-x="601" 
d="M487 184l90 -114h-123l-47 60q-51 -19 -108 -19q-55 0 -106 19l-47 -60h-122l89 113q-25 26 -42 62q-22 47 -22 108q0 60 22 109q16 34 43 63l-90 110h123l47 -59q45 19 105 19q59 0 108 -19l46 59h124l-91 -112q27 -28 42 -62q22 -49 22 -108q0 -61 -22 -108
q-18 -38 -41 -61zM236 252.5q26 -15.5 63 -15.5q38 0 64.5 15.5t39.5 44.5q10 21 10 56t-10 56q-14 29 -40.5 44.5t-63.5 15.5t-63.5 -15.5t-39.5 -44.5q-10 -21 -10 -56q0 -32 11 -56q13 -29 39 -44.5z" />
    <glyph glyph-name="yen" unicode="&#xa5;" horiz-adv-x="616" 
d="M410 346h161v-76h-170v-36h170v-77h-170v-157h-183v157h-172v77h172v36h-172v76h162l-220 360h200l123 -225l126 225h192z" />
    <glyph glyph-name="brokenbar" unicode="&#xa6;" horiz-adv-x="349" 
d="M90 756h168v-328h-168v328zM90 128h168v-330h-168v330z" />
    <glyph glyph-name="section" unicode="&#xa7;" horiz-adv-x="526" 
d="M502 -38q0 -44 -15 -75q-23 -51 -82.5 -77t-143.5 -26q-82 0 -140 25t-82 76q-8 16 -11.5 36t-3.5 49h170q0 -26 7 -40q8 -16 22.5 -23.5t38.5 -7.5q23 0 38 6.5t22 21.5q5 10 5 27t-7 31q-9 20 -34.5 34t-75.5 32q-46 17 -75.5 31t-54 35.5t-39.5 51.5q-15 33 -15 74
q0 34 14 67q27 58 106 83q-33 17 -58 40t-37 49q-14 30 -14 67q0 39 14 72q23 51 81 77.5t135 26.5q75 0 130 -25t79 -75q15 -32 15 -76h-164q0 19 -6 32q-7 14 -21.5 21.5t-35.5 7.5q-20 0 -34.5 -7t-20.5 -20q-5 -12 -5 -22q0 -7 1.5 -13t4.5 -12q7 -15 22 -26t38.5 -21.5
t47.5 -19.5q42 -15 72.5 -30t56 -37.5t39.5 -53.5q15 -30 15 -83q0 -39 -14 -70q-23 -51 -87 -77q64 -33 88 -87q14 -31 14 -69zM182 255q0 -16 6 -28q8 -18 28.5 -28t48.5 -10q27 0 46 9.5t27 26.5q6 16 6 29q0 15 -6 27q-8 19 -27.5 28.5t-47.5 9.5q-27 0 -47 -10t-28 -28
q-6 -12 -6 -26z" />
    <glyph glyph-name="dieresis" unicode="&#xa8;" horiz-adv-x="486" 
d="M91 561.5q-19 10.5 -30 28.5t-11 41t11 41.5t30 29t43 10.5t43.5 -10.5t30.5 -29t11 -41.5t-11 -41t-30.5 -28.5t-43.5 -10.5t-43 10.5zM308 560.5q-19 10.5 -30 29t-11 41.5t11 41.5t30 29t43 10.5t43.5 -10.5t30.5 -29t11 -41.5t-11 -41.5t-30.5 -29t-43.5 -10.5
t-43 10.5z" />
    <glyph glyph-name="copyright" unicode="&#xa9;" horiz-adv-x="804" 
d="M193 34.5q-88 53.5 -130 146.5q-35 76 -35 172q0 95 35 171q28 62 77 107t116 69.5t147 24.5q77 0 143.5 -23.5t116.5 -68t78 -106.5q34 -77 34 -174q0 -95 -34 -172q-28 -61 -76.5 -106t-115.5 -69.5t-146 -24.5q-122 0 -210 53.5zM570 91q69 43 104 122q25 56 25 137
q0 88 -27 148q-35 77 -104 118.5t-164 41.5q-98 0 -169 -43t-106 -121q-26 -58 -26 -140t28 -141q35 -78 103.5 -121.5t167.5 -43.5t168 43zM276.5 142q-54.5 31 -81.5 92q-23 49 -23 119q0 69 23 120q26 59 81 91t128 32q49 0 89.5 -14.5t70.5 -41.5q29 -27 44.5 -61.5
t15.5 -74.5h-144q-2 23 -14 40q-19 31 -65 31q-51 0 -72 -44q-6 -13 -8.5 -30.5t-2.5 -46.5q0 -25 2.5 -43.5t9.5 -32.5q20 -44 73 -44q44 0 65 32q6 10 8.5 18.5t3.5 19.5h146q0 -42 -15.5 -77.5t-44.5 -61.5q-62 -54 -160 -54q-75 0 -129.5 31z" />
    <glyph glyph-name="ordfeminine" unicode="&#xaa;" horiz-adv-x="404" 
d="M378 557v-201h-130v40q-40 -50 -114 -50q-41 0 -71 14.5t-42 43.5q-9 19 -9 47t10 51q17 38 60 53.5t117 15.5h49v3q0 15 -1 23.5t-4 14.5q-9 19 -42 19q-30 0 -40 -18q0 -1 -2 -6.5t-2 -12.5h-132q0 27 11 51q32 73 165 73q64 0 104 -18t58 -57q15 -36 15 -86zM243 463
q3 7 4 15t1 20v7h-41q-23 0 -36.5 -4t-19.5 -15q-3 -7 -3 -16t4 -14q8 -18 40 -18q39 0 51 25z" />
    <glyph glyph-name="guillemotleft" unicode="&#xab;" horiz-adv-x="585" 
d="M12 289l148 166h166l-148 -166l148 -165h-166zM258 289l148 166h166l-148 -166l148 -165h-166z" />
    <glyph glyph-name="logicalnot" unicode="&#xac;" horiz-adv-x="576" 
d="M403 314h-360v127h490v-391h-130v264z" />
    <glyph glyph-name="uni00AD" unicode="&#xad;" horiz-adv-x="398" 
d="M43 364h312v-138h-312v138z" />
    <glyph glyph-name="registered" unicode="&#xae;" horiz-adv-x="460" 
d="M436.5 565q4.5 -23 4.5 -53t-4.5 -53t-14.5 -44q-23 -51 -73 -79.5t-119 -28.5t-119 28.5t-73 79.5q-10 22 -14.5 45t-4.5 52t4.5 51.5t14.5 44.5q23 52 73 80.5t119 28.5t119 -28.5t73 -79.5q10 -21 14.5 -44zM384 512q0 25 -3.5 44t-10.5 35q-34 75 -140 75
q-107 0 -139 -75q-7 -16 -10.5 -35t-3.5 -44q0 -49 14 -78q32 -76 139 -76q106 0 140 76q14 29 14 78zM302 500q31 -13 31 -53v-46h-76v42q0 16 -6.5 23.5t-23.5 7.5h-20v-73h-75v223h117q86 0 86 -68q0 -42 -33 -56zM252.5 533q6.5 5 6.5 16t-6.5 16t-21.5 5h-24v-42h23
q16 0 22.5 5z" />
    <glyph glyph-name="macron" unicode="&#xaf;" horiz-adv-x="419" 
d="M50 682h319v-106h-319v106z" />
    <glyph glyph-name="degree" unicode="&#xb0;" horiz-adv-x="385" 
d="M103 425.5q-39 20.5 -60.5 57t-21.5 82.5t21.5 82.5t60.5 57t89 20.5t89.5 -20.5t61 -57t21.5 -82.5t-21.5 -82.5t-61 -57t-89.5 -20.5t-89 20.5zM234.5 523q15.5 15 15.5 42t-15.5 42.5t-41.5 15.5q-27 0 -43 -15.5t-16 -42.5t16 -42t43 -15q26 0 41.5 15z" />
    <glyph glyph-name="plusminus" unicode="&#xb1;" horiz-adv-x="576" 
d="M533 439v-127h-179v-121h-132v121h-179v127h179v119h132v-119h179zM43 158h490v-127h-490v127z" />
    <glyph glyph-name="twosuperior" unicode="&#xb2;" horiz-adv-x="378" 
d="M0 444l185 192q26 27 35.5 41t9.5 29q0 7 -4 15q-9 19 -38 19q-31 0 -43 -23q-5 -11 -5 -25h-126q0 36 13 65q36 81 161 81q59 0 100.5 -18.5t58.5 -56.5q11 -25 11 -55q0 -26 -10 -46.5t-31 -41.5q-23 -23 -82 -71h127v-111h-362v6z" />
    <glyph glyph-name="threesuperior" unicode="&#xb3;" horiz-adv-x="384" 
d="M363 547q0 -25 -9 -45q-17 -38 -60.5 -57t-107.5 -19q-60 0 -101 18.5t-58 56.5q-14 32 -14 83h116q0 -23 6 -38q11 -23 46 -23q36 0 45 19q4 8 4 20q0 10 -4 18q-5 10 -18 14.5t-35 4.5h-14v75h15q40 0 49 20q3 6 3 16q0 9 -4 16q-8 17 -38 17q-32 0 -43 -21
q-2 -6 -3 -11.5t-1 -12.5h-117q0 33 11 60q17 40 60.5 60t100.5 20q55 0 96 -18.5t56 -53.5q9 -19 9 -44q0 -20 -7 -35q-15 -32 -57 -47q49 -12 65 -47q9 -19 9 -46z" />
    <glyph glyph-name="acute" unicode="&#xb4;" horiz-adv-x="357" 
d="M143 710h164l-109 -159h-148z" />
    <glyph glyph-name="mu" unicode="&#xb5;" horiz-adv-x="579" 
d="M538 499v-499h-165v64q-23 -38 -57 -58t-78 -20q-19 0 -41 5q10 -70 10 -135v-58h-166v701h167v-283q0 -51 18.5 -73t58.5 -22q86 0 86 99v279h167z" />
    <glyph glyph-name="paragraph" unicode="&#xb6;" horiz-adv-x="766" 
d="M308 255h-61q-164 0 -214 113q-11 22 -15.5 49t-4.5 64t4.5 64t15.5 50q25 55 80.5 83t140.5 28h505v-137h-70v-771h-151v771h-81v-771h-149v457z" />
    <glyph glyph-name="periodcentered" unicode="&#xb7;" horiz-adv-x="337" 
d="M118 212q-22 12 -34.5 33.5t-12.5 49.5q0 43 27 69t71 26q43 0 69.5 -26t26.5 -69t-26.5 -69t-69.5 -26q-29 0 -51 12z" />
    <glyph glyph-name="cedilla" unicode="&#xb8;" horiz-adv-x="365" 
d="M287.5 -43q27.5 -26 27.5 -69q0 -58 -41 -82.5t-117 -24.5q-61 0 -107 17l17 77q36 -13 76 -13q28 0 43 7t15 24q0 16 -14.5 23.5t-45.5 7.5h-62l24 99h113l-10 -40h5q49 0 76.5 -26z" />
    <glyph glyph-name="onesuperior" unicode="&#xb9;" horiz-adv-x="258" 
d="M79 714h-74l21 112h185v-388h-132v276z" />
    <glyph glyph-name="ordmasculine" unicode="&#xba;" horiz-adv-x="419" 
d="M99 372q-47 25 -68 72q-17 39 -17 88t17 88q22 47 68.5 72.5t110.5 25.5t110 -25t68 -73q18 -37 18 -88q0 -50 -18 -88q-21 -47 -67.5 -72t-110.5 -25t-111 25zM260 481q8 18 8 51t-8 52q-12 28 -50 28t-50 -28q-8 -18 -8 -52q0 -33 8 -51q12 -29 50 -29t50 29z" />
    <glyph glyph-name="guillemotright" unicode="&#xbb;" horiz-adv-x="585" 
d="M12 124l148 165l-148 166h167l148 -166l-148 -165h-167zM258 124l148 165l-148 166h167l148 -166l-148 -165h-167z" />
    <glyph glyph-name="onequarter" unicode="&#xbc;" horiz-adv-x="852" 
d="M79 594h-74l21 112h185v-388h-132v276zM530 706h105l-440 -706h-106zM658 68h-246v2l146 318h223v-217h62v-103h-62v-68h-123v68zM658 171v177l-72 -177h72z" />
    <glyph glyph-name="onehalf" unicode="&#xbd;" horiz-adv-x="819" 
d="M79 594h-74l21 112h185v-388h-132v276zM530 706h105l-440 -706h-106zM441 6l185 192q26 27 35.5 41t9.5 29q0 7 -4 15q-9 19 -38 19q-31 0 -43 -23q-5 -11 -5 -25h-126q0 36 13 65q36 81 161 81q59 0 100.5 -18.5t58.5 -56.5q11 -25 11 -55q0 -26 -10 -46.5t-31 -41.5
q-23 -23 -82 -71h127v-111h-362v6z" />
    <glyph glyph-name="threequarters" unicode="&#xbe;" horiz-adv-x="967" 
d="M363 427q0 -25 -9 -45q-17 -38 -60.5 -57t-107.5 -19q-60 0 -101 18.5t-58 56.5q-14 32 -14 83h116q0 -23 6 -38q11 -23 46 -23q36 0 45 19q4 8 4 20q0 10 -4 18q-5 10 -18 14.5t-35 4.5h-14v75h15q40 0 49 20q3 6 3 16q0 9 -4 16q-8 17 -38 17q-32 0 -43 -21
q-2 -6 -3 -11.5t-1 -12.5h-117q0 33 11 60q17 40 60.5 60t100.5 20q55 0 96 -18.5t56 -53.5q9 -19 9 -44q0 -20 -7 -35q-15 -32 -57 -47q49 -12 65 -47q9 -19 9 -46zM645 706h105l-440 -706h-106zM772 68h-246v2l146 318h223v-217h62v-103h-62v-68h-123v68zM772 171v177
l-72 -177h72z" />
    <glyph glyph-name="questiondown" unicode="&#xbf;" horiz-adv-x="545" 
d="M233 338q-22 12 -34.5 33.5t-12.5 49.5q0 43 27 69t71 26q43 0 69.5 -26t26.5 -69t-26.5 -69t-69.5 -26q-29 0 -51 12zM142 -194q-54 21 -83 61t-29 97q0 31 12 62t42 80.5t100 156.5h184q-78 -118 -107.5 -165t-41.5 -75t-12 -52q0 -59 70 -59q50 0 67 35q7 18 7 46h163
q0 -30 -3.5 -53t-12.5 -43q-26 -55 -84 -83.5t-144 -28.5q-74 0 -128 21z" />
    <glyph glyph-name="Agrave" unicode="&#xc0;" horiz-adv-x="726" 
d="M501 133h-276l-41 -133h-188l232 706h270l232 -706h-188zM459 269l-95 306h-2l-95 -306h192zM307 753l-115 145h171l100 -145h-156z" />
    <glyph glyph-name="Aacute" unicode="&#xc1;" horiz-adv-x="726" 
d="M501 133h-276l-41 -133h-188l232 706h270l232 -706h-188zM459 269l-95 306h-2l-95 -306h192zM362 898h172l-115 -145h-156z" />
    <glyph glyph-name="Acircumflex" unicode="&#xc2;" horiz-adv-x="726" 
d="M501 133h-276l-41 -133h-188l232 706h270l232 -706h-188zM459 269l-95 306h-2l-95 -306h192zM267 898h193l108 -145h-150l-55 72l-55 -72h-149z" />
    <glyph glyph-name="Atilde" unicode="&#xc3;" horiz-adv-x="726" 
d="M501 133h-276l-41 -133h-188l232 706h270l232 -706h-188zM459 269l-95 306h-2l-95 -306h192zM404 755.5q-21 6.5 -42 18.5q-5 2 -21 9.5t-27.5 11t-21.5 3.5q-18 0 -27 -12.5t-11 -34.5h-91q4 74 32 111.5t84 37.5q25 0 43 -7t47 -22q17 -10 30 -15t28 -5q18 0 27 11
t14 37h94q-3 -73 -31 -111.5t-82 -38.5q-24 0 -45 6.5z" />
    <glyph glyph-name="Adieresis" unicode="&#xc4;" horiz-adv-x="726" 
d="M501 133h-276l-41 -133h-188l232 706h270l232 -706h-188zM459 269l-95 306h-2l-95 -306h192zM205 761.5q-19 10.5 -29.5 28t-10.5 39.5q0 23 10.5 41t29.5 28t42 10t42 -10t30 -28t11 -41q0 -22 -11 -39.5t-30 -28t-42 -10.5t-42 10.5zM435 761.5q-19 10.5 -29.5 28
t-10.5 39.5q0 23 10.5 41t29.5 28t42 10t42 -10t30 -28t11 -41q0 -22 -11 -39.5t-30 -28t-42 -10.5t-42 10.5z" />
    <glyph glyph-name="Aring" unicode="&#xc5;" horiz-adv-x="726" 
d="M501 133h-276l-41 -133h-188l232 706h270l232 -706h-188zM459 269l-95 306h-2l-95 -306h192zM289.5 743q-31.5 16 -49 45t-17.5 66q0 38 17.5 66.5t49 44t72.5 15.5q42 0 74 -16t49.5 -44.5t17.5 -65.5t-17.5 -66t-50 -45t-73.5 -16t-72.5 16zM399 819q14 13 14 35
t-13.5 35.5t-37.5 13.5q-22 0 -35.5 -13.5t-13.5 -35.5t13.5 -35t35.5 -13q23 0 37 13z" />
    <glyph glyph-name="AE" unicode="&#xc6;" horiz-adv-x="864" 
d="M561 558l18 -129h250v-142h-231l19 -139h215v-148h-379l-16 134h-205l-46 -134h-190l265 706h571v-148h-271zM420 270l-36 298h-2l-103 -298h141z" />
    <glyph glyph-name="Ccedilla" unicode="&#xc7;" horiz-adv-x="738" 
d="M713 263q-1 -59 -24 -110t-64 -87q-39 -35 -90.5 -56.5t-110.5 -26.5l-1 -1h6q49 0 76 -26t27 -69q0 -58 -41 -83t-116 -25q-57 0 -108 18l18 77q34 -14 76 -14q57 0 57 32q0 16 -14 23t-46 7h-62l16 64q-89 13 -152 59t-97 122q-35 79 -35 186t35 186q40 89 122 137.5
t198 48.5q71 0 131.5 -21.5t105.5 -61.5q42 -38 65.5 -91t24.5 -114h-192q-3 60 -41 95q-19 17 -43 25t-58 8q-49 0 -83 -20t-51 -59q-11 -25 -15.5 -55.5t-4.5 -76.5q0 -48 4.5 -79.5t14.5 -55.5q36 -78 136 -78q68 0 104 35q17 15 27.5 37.5t11.5 49.5h193z" />
    <glyph glyph-name="Egrave" unicode="&#xc8;" horiz-adv-x="550" 
d="M50 706h468v-148h-287v-129h284v-142h-284v-139h287v-148h-468v706zM230 753l-115 145h171l100 -145h-156z" />
    <glyph glyph-name="Eacute" unicode="&#xc9;" horiz-adv-x="550" 
d="M50 706h468v-148h-287v-129h284v-142h-284v-139h287v-148h-468v706zM285 898h172l-115 -145h-156z" />
    <glyph glyph-name="Ecircumflex" unicode="&#xca;" horiz-adv-x="550" 
d="M50 706h468v-148h-287v-129h284v-142h-284v-139h287v-148h-468v706zM190 898h193l108 -145h-150l-55 72l-55 -72h-149z" />
    <glyph glyph-name="Edieresis" unicode="&#xcb;" horiz-adv-x="550" 
d="M50 706h468v-148h-287v-129h284v-142h-284v-139h287v-148h-468v706zM129 761.5q-19 10.5 -29.5 28t-10.5 39.5q0 23 10.5 41t29.5 28t42 10t42 -10t30 -28t11 -41q0 -22 -11 -39.5t-30 -28t-42 -10.5t-42 10.5zM359 761.5q-19 10.5 -29.5 28t-10.5 39.5q0 23 10.5 41
t29.5 28t42 10t42 -10t30 -28t11 -41q0 -22 -11 -39.5t-30 -28t-42 -10.5t-42 10.5z" />
    <glyph glyph-name="Igrave" unicode="&#xcc;" horiz-adv-x="281" 
d="M50 706h181v-706h-181v706zM85 753l-115 145h171l100 -145h-156z" />
    <glyph glyph-name="Iacute" unicode="&#xcd;" horiz-adv-x="281" 
d="M50 706h181v-706h-181v706zM139 898h172l-115 -145h-156z" />
    <glyph glyph-name="Icircumflex" unicode="&#xce;" horiz-adv-x="281" 
d="M50 706h181v-706h-181v706zM46 898h188l88 -145h-140l-41 73l-41 -73h-141z" />
    <glyph glyph-name="Idieresis" unicode="&#xcf;" horiz-adv-x="281" 
d="M50 706h181v-706h-181v706zM10.5 761.5q-17.5 10.5 -27.5 28.5t-10 39q0 22 10 40t27.5 28.5t39.5 10.5t40 -10.5t28 -28.5t10 -40q0 -21 -10 -39t-28 -28.5t-40 -10.5t-39.5 10.5zM192.5 761.5q-17.5 10.5 -27.5 28t-10 39.5t10 40t27.5 28.5t39.5 10.5t39.5 -10.5
t28 -28.5t10.5 -40t-10.5 -39.5t-28 -28t-39.5 -10.5t-39.5 10.5z" />
    <glyph glyph-name="Eth" unicode="&#xd0;" horiz-adv-x="722" 
d="M685 452q8 -44 8 -99t-8 -99t-25 -80q-37 -84 -116.5 -129t-195.5 -45h-298v303h-54v108h54v295h298q116 0 195.5 -45t116.5 -129q17 -36 25 -80zM496 289q4 27 4 64t-4 64.5t-14 48.5q-20 43 -59.5 64.5t-103.5 21.5h-88v-141h146v-108h-146v-149h88q64 0 104 22t59 65
q10 21 14 48z" />
    <glyph glyph-name="Ntilde" unicode="&#xd1;" horiz-adv-x="736" 
d="M50 706h181l279 -436v436h176v-706h-183l-277 435v-435h-176v706zM411 755.5q-21 6.5 -42 18.5q-5 2 -21 9.5t-27.5 11t-21.5 3.5q-18 0 -27 -12.5t-11 -34.5h-91q4 74 32 111.5t84 37.5q25 0 43 -7t47 -22q17 -10 30 -15t28 -5q18 0 27 11t14 37h94q-3 -73 -31 -111.5
t-82 -38.5q-24 0 -45 6.5z" />
    <glyph glyph-name="Ograve" unicode="&#xd2;" horiz-adv-x="764" 
d="M193.5 24q-78.5 43 -118.5 123q-23 41 -35 93.5t-12 112.5q0 105 36 188q39 88 121 136t197 48t196.5 -47.5t120.5 -134.5q36 -85 36 -190q0 -108 -37 -191q-39 -87 -120 -134t-196 -47q-110 0 -188.5 43zM469.5 163q34.5 22 52.5 63q11 25 16 55t5 72t-4.5 72t-15.5 56
q-40 84 -141 84q-103 0 -141 -84q-11 -25 -15.5 -54.5t-4.5 -73.5q0 -42 5 -72t16 -55q38 -85 140 -85q53 0 87.5 22zM327 753l-115 145h171l100 -145h-156z" />
    <glyph glyph-name="Oacute" unicode="&#xd3;" horiz-adv-x="764" 
d="M193.5 24q-78.5 43 -118.5 123q-23 41 -35 93.5t-12 112.5q0 105 36 188q39 88 121 136t197 48t196.5 -47.5t120.5 -134.5q36 -85 36 -190q0 -108 -37 -191q-39 -87 -120 -134t-196 -47q-110 0 -188.5 43zM469.5 163q34.5 22 52.5 63q11 25 16 55t5 72t-4.5 72t-15.5 56
q-40 84 -141 84q-103 0 -141 -84q-11 -25 -15.5 -54.5t-4.5 -73.5q0 -42 5 -72t16 -55q38 -85 140 -85q53 0 87.5 22zM381 898h172l-115 -145h-156z" />
    <glyph glyph-name="Ocircumflex" unicode="&#xd4;" horiz-adv-x="764" 
d="M193.5 24q-78.5 43 -118.5 123q-23 41 -35 93.5t-12 112.5q0 105 36 188q39 88 121 136t197 48t196.5 -47.5t120.5 -134.5q36 -85 36 -190q0 -108 -37 -191q-39 -87 -120 -134t-196 -47q-110 0 -188.5 43zM469.5 163q34.5 22 52.5 63q11 25 16 55t5 72t-4.5 72t-15.5 56
q-40 84 -141 84q-103 0 -141 -84q-11 -25 -15.5 -54.5t-4.5 -73.5q0 -42 5 -72t16 -55q38 -85 140 -85q53 0 87.5 22zM286 898h193l108 -145h-150l-55 72l-55 -72h-149z" />
    <glyph glyph-name="Otilde" unicode="&#xd5;" horiz-adv-x="764" 
d="M193.5 24q-78.5 43 -118.5 123q-23 41 -35 93.5t-12 112.5q0 105 36 188q39 88 121 136t197 48t196.5 -47.5t120.5 -134.5q36 -85 36 -190q0 -108 -37 -191q-39 -87 -120 -134t-196 -47q-110 0 -188.5 43zM469.5 163q34.5 22 52.5 63q11 25 16 55t5 72t-4.5 72t-15.5 56
q-40 84 -141 84q-103 0 -141 -84q-11 -25 -15.5 -54.5t-4.5 -73.5q0 -42 5 -72t16 -55q38 -85 140 -85q53 0 87.5 22zM423 755.5q-21 6.5 -42 18.5q-5 2 -21 9.5t-27.5 11t-21.5 3.5q-18 0 -27 -12.5t-11 -34.5h-91q4 74 32 111.5t84 37.5q25 0 43 -7t47 -22q17 -10 30 -15
t28 -5q18 0 27 11t14 37h94q-3 -73 -31 -111.5t-82 -38.5q-24 0 -45 6.5z" />
    <glyph glyph-name="Odieresis" unicode="&#xd6;" horiz-adv-x="764" 
d="M193.5 24q-78.5 43 -118.5 123q-23 41 -35 93.5t-12 112.5q0 105 36 188q39 88 121 136t197 48t196.5 -47.5t120.5 -134.5q36 -85 36 -190q0 -108 -37 -191q-39 -87 -120 -134t-196 -47q-110 0 -188.5 43zM469.5 163q34.5 22 52.5 63q11 25 16 55t5 72t-4.5 72t-15.5 56
q-40 84 -141 84q-103 0 -141 -84q-11 -25 -15.5 -54.5t-4.5 -73.5q0 -42 5 -72t16 -55q38 -85 140 -85q53 0 87.5 22zM225 761.5q-19 10.5 -29.5 28t-10.5 39.5q0 23 10.5 41t29.5 28t42 10t42 -10t30 -28t11 -41q0 -22 -11 -39.5t-30 -28t-42 -10.5t-42 10.5zM455 761.5
q-19 10.5 -29.5 28t-10.5 39.5q0 23 10.5 41t29.5 28t42 10t42 -10t30 -28t11 -41q0 -22 -11 -39.5t-30 -28t-42 -10.5t-42 10.5z" />
    <glyph glyph-name="multiply" unicode="&#xd7;" horiz-adv-x="576" 
d="M377 295l141 -141l-89 -89l-141 141l-141 -141l-88 89l141 141l-141 141l88 88l141 -141l141 141l89 -88z" />
    <glyph glyph-name="Oslash" unicode="&#xd8;" horiz-adv-x="764" 
d="M699 543q36 -85 36 -190q0 -108 -37 -191q-39 -87 -120 -134t-196 -47q-73 0 -132.5 19t-103.5 56l-55 -56h-112l114 116q-11 16 -18 31q-23 41 -35 93.5t-12 112.5q0 105 36 188q39 88 121 136t197 48q73 0 132.5 -19.5t104.5 -56.5l54 57h114l-114 -116q17 -26 26 -47z
M225.5 426.5q-4.5 -29.5 -4.5 -73.5q0 -64 11 -101l260 273q-40 40 -110 40q-103 0 -141 -84q-11 -25 -15.5 -54.5zM538 281q5 30 5 72q0 61 -10 100l-260 -273q41 -39 109 -39q53 0 87.5 22t52.5 63q11 25 16 55z" />
    <glyph glyph-name="Ugrave" unicode="&#xd9;" horiz-adv-x="681" 
d="M168.5 10q-66.5 29 -98.5 89t-32 153v454h181v-442q0 -63 29.5 -95t90.5 -32q63 0 93 32t30 95v442h181v-454q0 -94 -32.5 -153.5t-99.5 -88.5t-172 -29q-104 0 -170.5 29zM285 753l-115 145h171l100 -145h-156z" />
    <glyph glyph-name="Uacute" unicode="&#xda;" horiz-adv-x="681" 
d="M168.5 10q-66.5 29 -98.5 89t-32 153v454h181v-442q0 -63 29.5 -95t90.5 -32q63 0 93 32t30 95v442h181v-454q0 -94 -32.5 -153.5t-99.5 -88.5t-172 -29q-104 0 -170.5 29zM339 898h172l-115 -145h-156z" />
    <glyph glyph-name="Ucircumflex" unicode="&#xdb;" horiz-adv-x="681" 
d="M168.5 10q-66.5 29 -98.5 89t-32 153v454h181v-442q0 -63 29.5 -95t90.5 -32q63 0 93 32t30 95v442h181v-454q0 -94 -32.5 -153.5t-99.5 -88.5t-172 -29q-104 0 -170.5 29zM245 898h193l108 -145h-150l-55 72l-55 -72h-149z" />
    <glyph glyph-name="Udieresis" unicode="&#xdc;" horiz-adv-x="681" 
d="M168.5 10q-66.5 29 -98.5 89t-32 153v454h181v-442q0 -63 29.5 -95t90.5 -32q63 0 93 32t30 95v442h181v-454q0 -94 -32.5 -153.5t-99.5 -88.5t-172 -29q-104 0 -170.5 29zM183 761.5q-19 10.5 -29.5 28t-10.5 39.5q0 23 10.5 41t29.5 28t42 10t42 -10t30 -28t11 -41
q0 -22 -11 -39.5t-30 -28t-42 -10.5t-42 10.5zM413 761.5q-19 10.5 -29.5 28t-10.5 39.5q0 23 10.5 41t29.5 28t42 10t42 -10t30 -28t11 -41q0 -22 -11 -39.5t-30 -28t-42 -10.5t-42 10.5z" />
    <glyph glyph-name="Yacute" unicode="&#xdd;" horiz-adv-x="632" 
d="M226 304l-230 402h196l124 -231l124 231h196l-229 -402v-304h-181v304zM318 898h172l-115 -145h-156z" />
    <glyph glyph-name="Thorn" unicode="&#xde;" horiz-adv-x="610" 
d="M50 706h181v-109h109q181 0 233 -118q23 -50 23 -124t-23 -123q-53 -119 -233 -119h-109v-113h-181v706zM296 252q42 0 67.5 11.5t36.5 36.5q10 21 10 55q0 35 -10 55q-22 49 -104 49h-65v-207h65z" />
    <glyph glyph-name="germandbls" unicode="&#xdf;" horiz-adv-x="598" 
d="M578 214q0 -57 -18 -98q-25 -57 -86.5 -87t-159.5 -30q-29 0 -63 2v116q7 -1 25 -1q45 0 73 13t41 41q11 22 11 58q0 32 -11 57q-25 55 -111 55h-25v110h21q42 0 65 11t34 34q6 17 6 36q0 22 -7 36q-18 40 -74 40q-30 0 -50 -11t-30 -35q-11 -25 -11 -71v-490h-167v477
q0 73 23 127q28 61 85.5 91t150.5 30q92 0 149.5 -28.5t81.5 -81.5q15 -33 15 -74q0 -38 -13 -69q-24 -51 -78 -69q74 -22 105 -92q18 -42 18 -97z" />
    <glyph glyph-name="agrave" unicode="&#xe0;" horiz-adv-x="563" 
d="M526 287v-287h-167v59q-26 -36 -66 -54.5t-99 -18.5q-60 0 -102.5 21.5t-60.5 62.5q-14 28 -14 71q0 40 12 68q25 55 89 75.5t166 20.5h75v8q0 22 -1.5 33t-6.5 21q-15 33 -69 33q-29 0 -46 -7.5t-25 -24.5q-3 -7 -4 -14t-2 -16h-170q1 40 15 70q24 53 83.5 79.5
t146.5 26.5q91 0 145.5 -25t79.5 -79q21 -49 21 -123zM350 150q5 10 7 22t2 33v7h-64q-41 0 -65.5 -6.5t-32.5 -24.5q-5 -10 -5 -22q0 -14 5 -24q14 -30 66 -30q67 0 87 45zM233 551l-109 159h164l93 -159h-148z" />
    <glyph glyph-name="aacute" unicode="&#xe1;" horiz-adv-x="563" 
d="M526 287v-287h-167v59q-26 -36 -66 -54.5t-99 -18.5q-60 0 -102.5 21.5t-60.5 62.5q-14 28 -14 71q0 40 12 68q25 55 89 75.5t166 20.5h75v8q0 22 -1.5 33t-6.5 21q-15 33 -69 33q-29 0 -46 -7.5t-25 -24.5q-3 -7 -4 -14t-2 -16h-170q1 40 15 70q24 53 83.5 79.5
t146.5 26.5q91 0 145.5 -25t79.5 -79q21 -49 21 -123zM350 150q5 10 7 22t2 33v7h-64q-41 0 -65.5 -6.5t-32.5 -24.5q-5 -10 -5 -22q0 -14 5 -24q14 -30 66 -30q67 0 87 45zM282 710h164l-109 -159h-148z" />
    <glyph glyph-name="acircumflex" unicode="&#xe2;" horiz-adv-x="563" 
d="M526 287v-287h-167v59q-26 -36 -66 -54.5t-99 -18.5q-60 0 -102.5 21.5t-60.5 62.5q-14 28 -14 71q0 40 12 68q25 55 89 75.5t166 20.5h75v8q0 22 -1.5 33t-6.5 21q-15 33 -69 33q-29 0 -46 -7.5t-25 -24.5q-3 -7 -4 -14t-2 -16h-170q1 40 15 70q24 53 83.5 79.5
t146.5 26.5q91 0 145.5 -25t79.5 -79q21 -49 21 -123zM350 150q5 10 7 22t2 33v7h-64q-41 0 -65.5 -6.5t-32.5 -24.5q-5 -10 -5 -22q0 -14 5 -24q14 -30 66 -30q67 0 87 45zM190 710h192l102 -159h-146l-52 86l-53 -86h-146z" />
    <glyph glyph-name="atilde" unicode="&#xe3;" horiz-adv-x="563" 
d="M526 287v-287h-167v59q-26 -36 -66 -54.5t-99 -18.5q-60 0 -102.5 21.5t-60.5 62.5q-14 28 -14 71q0 40 12 68q25 55 89 75.5t166 20.5h75v8q0 22 -1.5 33t-6.5 21q-15 33 -69 33q-29 0 -46 -7.5t-25 -24.5q-3 -7 -4 -14t-2 -16h-170q1 40 15 70q24 53 83.5 79.5
t146.5 26.5q91 0 145.5 -25t79.5 -79q21 -49 21 -123zM350 150q5 10 7 22t2 33v7h-64q-41 0 -65.5 -6.5t-32.5 -24.5q-5 -10 -5 -22q0 -14 5 -24q14 -30 66 -30q67 0 87 45zM283 577q-6 3 -19 11t-23 12t-19 4q-17 0 -25 -13t-10 -40h-93q3 83 29.5 123t79.5 40
q23 0 43 -7.5t43 -21.5q21 -13 34 -19.5t26 -6.5q17 0 24.5 13t9.5 40h94q-2 -84 -28 -123.5t-80 -39.5q-43 0 -86 28z" />
    <glyph glyph-name="adieresis" unicode="&#xe4;" horiz-adv-x="563" 
d="M526 287v-287h-167v59q-26 -36 -66 -54.5t-99 -18.5q-60 0 -102.5 21.5t-60.5 62.5q-14 28 -14 71q0 40 12 68q25 55 89 75.5t166 20.5h75v8q0 22 -1.5 33t-6.5 21q-15 33 -69 33q-29 0 -46 -7.5t-25 -24.5q-3 -7 -4 -14t-2 -16h-170q1 40 15 70q24 53 83.5 79.5
t146.5 26.5q91 0 145.5 -25t79.5 -79q21 -49 21 -123zM350 150q5 10 7 22t2 33v7h-64q-41 0 -65.5 -6.5t-32.5 -24.5q-5 -10 -5 -22q0 -14 5 -24q14 -30 66 -30q67 0 87 45zM133 561.5q-19 10.5 -30 28.5t-11 41t11 41.5t30 29t43 10.5t43.5 -10.5t30.5 -29t11 -41.5
t-11 -41t-30.5 -28.5t-43.5 -10.5t-43 10.5zM350 560.5q-19 10.5 -30 29t-11 41.5t11 41.5t30 29t43 10.5t43.5 -10.5t30.5 -29t11 -41.5t-11 -41.5t-30.5 -29t-43.5 -10.5t-43 10.5z" />
    <glyph glyph-name="aring" unicode="&#xe5;" horiz-adv-x="563" 
d="M526 287v-287h-167v59q-26 -36 -66 -54.5t-99 -18.5q-60 0 -102.5 21.5t-60.5 62.5q-14 28 -14 71q0 40 12 68q25 55 89 75.5t166 20.5h75v8q0 22 -1.5 33t-6.5 21q-15 33 -69 33q-29 0 -46 -7.5t-25 -24.5q-3 -7 -4 -14t-2 -16h-170q1 40 15 70q24 53 83.5 79.5
t146.5 26.5q91 0 145.5 -25t79.5 -79q21 -49 21 -123zM350 150q5 10 7 22t2 33v7h-64q-41 0 -65.5 -6.5t-32.5 -24.5q-5 -10 -5 -22q0 -14 5 -24q14 -30 66 -30q67 0 87 45zM211.5 555q-31.5 16 -49 45t-17.5 66q0 38 17.5 66.5t49 44t72.5 15.5q42 0 74 -16t49.5 -44.5
t17.5 -65.5t-17.5 -66t-50 -45t-73.5 -16t-72.5 16zM321 631q14 13 14 35t-13.5 35.5t-37.5 13.5q-22 0 -35.5 -13.5t-13.5 -35.5t13.5 -35t35.5 -13q23 0 37 13z" />
    <glyph glyph-name="ae" unicode="&#xe6;" horiz-adv-x="886" 
d="M691 168h173q-4 -37 -18.5 -68t-38.5 -53q-34 -30 -82.5 -45.5t-104.5 -15.5q-68 0 -119.5 21.5t-84.5 63.5q-35 -42 -83.5 -63.5t-117.5 -21.5q-70 0 -117.5 21.5t-67.5 65.5q-13 29 -13 68q0 40 12 68q24 54 88.5 75t166.5 21h75v6q0 23 -1.5 34.5t-6.5 21.5
q-15 33 -69 33q-29 0 -46 -7.5t-25 -24.5q-3 -7 -4 -14t-2 -16h-170q1 40 15 70q23 53 83 79.5t147 26.5q63 0 105 -11t70 -36q59 47 153 47q86 0 144.5 -36t88.5 -100q15 -33 20.5 -73t5.5 -96h-341q3 -34 12 -57q10 -22 29.5 -33t49.5 -11q35 0 54 18q17 14 20 42z
M538 352q-5 -12 -7.5 -22.5t-3.5 -25.5h168q-1 14 -3.5 26t-6.5 22q-21 44 -74 44t-73 -44zM359 212h-64q-42 0 -66 -6t-32 -24q-5 -12 -5 -23t5 -24q14 -30 67 -30q33 0 54.5 10.5t30.5 31.5q5 12 7.5 24.5t2.5 33.5v7z" />
    <glyph glyph-name="ccedilla" unicode="&#xe7;" horiz-adv-x="572" 
d="M363.5 165q6.5 15 6.5 31h181q-5 -89 -65 -144q-60 -53 -156 -64l-1 -6h5q49 0 76 -26t27 -69q0 -58 -41 -82.5t-116 -24.5q-62 0 -107 18l17 77q34 -14 76 -14q28 0 42.5 7t14.5 24q0 16 -14 23.5t-45 7.5h-63l17 69q-62 12 -106 44.5t-68 85.5q-25 56 -25 128
q0 71 25 127q30 66 93.5 101.5t150.5 35.5q61 0 111.5 -17t86.5 -49q60 -54 66 -143h-181q-3 33 -25 54q-10 9 -24.5 14t-32.5 5q-27 0 -47 -11.5t-30 -33.5q-7 -15 -9.5 -34t-2.5 -49t2.5 -49t9.5 -34q10 -22 30 -33.5t47 -11.5q38 0 57 18q11 10 17.5 25z" />
    <glyph glyph-name="egrave" unicode="&#xe8;" horiz-adv-x="577" 
d="M378 146.5q5 10.5 7 21.5h169q-6 -71 -57 -117q-36 -33 -87.5 -49t-112.5 -16q-92 0 -158 35.5t-96 102.5q-24 54 -24 127q0 39 6 68.5t18 56.5q29 66 92 102t151 36q89 0 152.5 -37t93.5 -103q16 -35 21 -71t5 -94h-370q3 -36 12 -53q21 -48 94 -48q46 0 70 21
q9 7 14 17.5zM233.5 383.5q-22.5 -12.5 -33.5 -36.5q-5 -10 -7.5 -19.5t-3.5 -23.5h199q-1 14 -3 23.5t-7 19.5q-22 49 -89 49q-33 0 -55.5 -12.5zM237 551l-109 159h164l93 -159h-148z" />
    <glyph glyph-name="eacute" unicode="&#xe9;" horiz-adv-x="577" 
d="M378 146.5q5 10.5 7 21.5h169q-6 -71 -57 -117q-36 -33 -87.5 -49t-112.5 -16q-92 0 -158 35.5t-96 102.5q-24 54 -24 127q0 39 6 68.5t18 56.5q29 66 92 102t151 36q89 0 152.5 -37t93.5 -103q16 -35 21 -71t5 -94h-370q3 -36 12 -53q21 -48 94 -48q46 0 70 21
q9 7 14 17.5zM233.5 383.5q-22.5 -12.5 -33.5 -36.5q-5 -10 -7.5 -19.5t-3.5 -23.5h199q-1 14 -3 23.5t-7 19.5q-22 49 -89 49q-33 0 -55.5 -12.5zM286 710h164l-109 -159h-148z" />
    <glyph glyph-name="ecircumflex" unicode="&#xea;" horiz-adv-x="577" 
d="M378 146.5q5 10.5 7 21.5h169q-6 -71 -57 -117q-36 -33 -87.5 -49t-112.5 -16q-92 0 -158 35.5t-96 102.5q-24 54 -24 127q0 39 6 68.5t18 56.5q29 66 92 102t151 36q89 0 152.5 -37t93.5 -103q16 -35 21 -71t5 -94h-370q3 -36 12 -53q21 -48 94 -48q46 0 70 21
q9 7 14 17.5zM233.5 383.5q-22.5 -12.5 -33.5 -36.5q-5 -10 -7.5 -19.5t-3.5 -23.5h199q-1 14 -3 23.5t-7 19.5q-22 49 -89 49q-33 0 -55.5 -12.5zM194 710h192l102 -159h-146l-52 86l-53 -86h-146z" />
    <glyph glyph-name="edieresis" unicode="&#xeb;" horiz-adv-x="577" 
d="M378 146.5q5 10.5 7 21.5h169q-6 -71 -57 -117q-36 -33 -87.5 -49t-112.5 -16q-92 0 -158 35.5t-96 102.5q-24 54 -24 127q0 39 6 68.5t18 56.5q29 66 92 102t151 36q89 0 152.5 -37t93.5 -103q16 -35 21 -71t5 -94h-370q3 -36 12 -53q21 -48 94 -48q46 0 70 21
q9 7 14 17.5zM233.5 383.5q-22.5 -12.5 -33.5 -36.5q-5 -10 -7.5 -19.5t-3.5 -23.5h199q-1 14 -3 23.5t-7 19.5q-22 49 -89 49q-33 0 -55.5 -12.5zM136 561.5q-19 10.5 -30 28.5t-11 41t11 41.5t30 29t43 10.5t43.5 -10.5t30.5 -29t11 -41.5t-11 -41t-30.5 -28.5
t-43.5 -10.5t-43 10.5zM353 560.5q-19 10.5 -30 29t-11 41.5t11 41.5t30 29t43 10.5t43.5 -10.5t30.5 -29t11 -41.5t-11 -41.5t-30.5 -29t-43.5 -10.5t-43 10.5z" />
    <glyph glyph-name="igrave" unicode="&#xec;" horiz-adv-x="249" 
d="M41 499h167v-499h-167v499zM74 551l-97 159h164l76 -159h-143z" />
    <glyph glyph-name="iacute" unicode="&#xed;" horiz-adv-x="249" 
d="M41 499h167v-499h-167v499zM109 710h164l-97 -159h-143z" />
    <glyph glyph-name="icircumflex" unicode="&#xee;" horiz-adv-x="249" 
d="M41 499h167v-499h-167v499zM46 710h158l77 -159h-119l-37 84l-38 -84h-119z" />
    <glyph glyph-name="idieresis" unicode="&#xef;" horiz-adv-x="249" 
d="M41 499h167v-499h-167v499zM-7.5 575q-19.5 21 -19.5 56t19.5 56t52.5 21q32 0 51.5 -21t19.5 -56t-19.5 -56t-51.5 -21q-33 0 -52.5 21zM154.5 575q-19.5 21 -19.5 56t19.5 56t51.5 21q33 0 52.5 -21t19.5 -56t-19.5 -56t-52.5 -21q-32 0 -51.5 21z" />
    <glyph glyph-name="eth" unicode="&#xf0;" horiz-adv-x="594" 
d="M564.5 365q9.5 -48 9.5 -109q0 -42 -6 -75t-19 -62q-57 -133 -262 -133q-91 0 -155 32t-93 95q-20 48 -20 111q0 74 23 121q26 59 78 91.5t123 32.5q72 0 124 -33q-25 49 -68 107l-219 -64v98l155 46q-33 39 -72 81v2h196l32 -36l128 38v-100l-63 -19q50 -65 75 -123
q24 -53 33.5 -101zM394 232q0 44 -11 67q-24 50 -85 50q-63 0 -86 -50q-11 -28 -11 -68q0 -22 2.5 -36.5t7.5 -27.5q11 -25 33 -37.5t54 -12.5q31 0 53 12t32 36q11 23 11 67z" />
    <glyph glyph-name="ntilde" unicode="&#xf1;" horiz-adv-x="574" 
d="M491.5 464q46.5 -50 46.5 -143v-321h-167v285q0 49 -19 71t-59 22q-42 0 -63.5 -24.5t-21.5 -73.5v-280h-167v499h167v-62q53 77 153 77q84 0 130.5 -50zM288 577q-6 3 -19 11t-23 12t-19 4q-17 0 -25 -13t-10 -40h-93q3 83 29.5 123t79.5 40q23 0 43 -7.5t43 -21.5
q21 -13 34 -19.5t26 -6.5q17 0 24.5 13t9.5 40h94q-2 -84 -28 -123.5t-80 -39.5q-43 0 -86 28z" />
    <glyph glyph-name="ograve" unicode="&#xf2;" horiz-adv-x="586" 
d="M137.5 22.5q-64.5 36.5 -94.5 103.5q-24 54 -24 124q0 69 24 123q30 67 94.5 104t155.5 37t155 -36.5t94 -103.5q25 -53 25 -124q0 -72 -25 -125q-30 -66 -94 -102.5t-155 -36.5t-155.5 36.5zM377 168q7 15 9.5 34.5t2.5 47.5q0 56 -12 81q-21 47 -84 47q-62 0 -84 -47
q-12 -28 -12 -81q0 -52 12 -82q22 -47 84 -47t84 47zM242 551l-109 159h164l93 -159h-148z" />
    <glyph glyph-name="oacute" unicode="&#xf3;" horiz-adv-x="586" 
d="M137.5 22.5q-64.5 36.5 -94.5 103.5q-24 54 -24 124q0 69 24 123q30 67 94.5 104t155.5 37t155 -36.5t94 -103.5q25 -53 25 -124q0 -72 -25 -125q-30 -66 -94 -102.5t-155 -36.5t-155.5 36.5zM377 168q7 15 9.5 34.5t2.5 47.5q0 56 -12 81q-21 47 -84 47q-62 0 -84 -47
q-12 -28 -12 -81q0 -52 12 -82q22 -47 84 -47t84 47zM291 710h164l-109 -159h-148z" />
    <glyph glyph-name="ocircumflex" unicode="&#xf4;" horiz-adv-x="586" 
d="M137.5 22.5q-64.5 36.5 -94.5 103.5q-24 54 -24 124q0 69 24 123q30 67 94.5 104t155.5 37t155 -36.5t94 -103.5q25 -53 25 -124q0 -72 -25 -125q-30 -66 -94 -102.5t-155 -36.5t-155.5 36.5zM377 168q7 15 9.5 34.5t2.5 47.5q0 56 -12 81q-21 47 -84 47q-62 0 -84 -47
q-12 -28 -12 -81q0 -52 12 -82q22 -47 84 -47t84 47zM199 710h192l102 -159h-146l-52 86l-53 -86h-146z" />
    <glyph glyph-name="otilde" unicode="&#xf5;" horiz-adv-x="586" 
d="M137.5 22.5q-64.5 36.5 -94.5 103.5q-24 54 -24 124q0 69 24 123q30 67 94.5 104t155.5 37t155 -36.5t94 -103.5q25 -53 25 -124q0 -72 -25 -125q-30 -66 -94 -102.5t-155 -36.5t-155.5 36.5zM377 168q7 15 9.5 34.5t2.5 47.5q0 56 -12 81q-21 47 -84 47q-62 0 -84 -47
q-12 -28 -12 -81q0 -52 12 -82q22 -47 84 -47t84 47zM291 577q-6 3 -19 11t-23 12t-19 4q-17 0 -25 -13t-10 -40h-93q3 83 29.5 123t79.5 40q23 0 43 -7.5t43 -21.5q21 -13 34 -19.5t26 -6.5q17 0 24.5 13t9.5 40h94q-2 -84 -28 -123.5t-80 -39.5q-43 0 -86 28z" />
    <glyph glyph-name="odieresis" unicode="&#xf6;" horiz-adv-x="586" 
d="M137.5 22.5q-64.5 36.5 -94.5 103.5q-24 54 -24 124q0 69 24 123q30 67 94.5 104t155.5 37t155 -36.5t94 -103.5q25 -53 25 -124q0 -72 -25 -125q-30 -66 -94 -102.5t-155 -36.5t-155.5 36.5zM377 168q7 15 9.5 34.5t2.5 47.5q0 56 -12 81q-21 47 -84 47q-62 0 -84 -47
q-12 -28 -12 -81q0 -52 12 -82q22 -47 84 -47t84 47zM141 561.5q-19 10.5 -30 28.5t-11 41t11 41.5t30 29t43 10.5t43.5 -10.5t30.5 -29t11 -41.5t-11 -41t-30.5 -28.5t-43.5 -10.5t-43 10.5zM358 560.5q-19 10.5 -30 29t-11 41.5t11 41.5t30 29t43 10.5t43.5 -10.5
t30.5 -29t11 -41.5t-11 -41.5t-30.5 -29t-43.5 -10.5t-43 10.5z" />
    <glyph glyph-name="divide" unicode="&#xf7;" horiz-adv-x="576" 
d="M232.5 433q-21.5 21 -21.5 56q0 34 21.5 54.5t56.5 20.5q33 0 54.5 -21t21.5 -54q0 -34 -21.5 -55.5t-54.5 -21.5q-35 0 -56.5 21zM43 358h490v-127h-490v127zM232.5 45.5q-21.5 21.5 -21.5 55.5t21.5 54.5t56.5 20.5q33 0 54.5 -20.5t21.5 -54.5t-21.5 -55.5
t-54.5 -21.5q-35 0 -56.5 21.5z" />
    <glyph glyph-name="oslash" unicode="&#xf8;" horiz-adv-x="586" 
d="M542 374q25 -53 25 -124q0 -72 -25 -125q-30 -66 -94 -102.5t-155 -36.5q-95 0 -163 41l-27 -27h-96l70 72q-20 23 -34 54q-24 54 -24 124q0 69 24 123q30 67 94.5 104t155.5 37q48 0 89.5 -11t74.5 -31l25 27h96l-68 -73q21 -26 32 -52zM197 250q0 -34 4 -54l153 165
q-23 17 -61 17q-62 0 -84 -47q-12 -28 -12 -81zM386.5 202.5q2.5 19.5 2.5 47.5t-3 49l-153 -161q23 -17 60 -17q62 0 84 47q7 15 9.5 34.5z" />
    <glyph glyph-name="ugrave" unicode="&#xf9;" horiz-adv-x="574" 
d="M533 499v-499h-167v61q-27 -37 -64.5 -56.5t-88.5 -19.5q-84 0 -130.5 50t-46.5 143v321h167v-285q0 -49 19 -71t59 -22q85 0 85 98v280h167zM227 551l-109 159h164l93 -159h-148z" />
    <glyph glyph-name="uacute" unicode="&#xfa;" horiz-adv-x="574" 
d="M533 499v-499h-167v61q-27 -37 -64.5 -56.5t-88.5 -19.5q-84 0 -130.5 50t-46.5 143v321h167v-285q0 -49 19 -71t59 -22q85 0 85 98v280h167zM276 710h164l-109 -159h-148z" />
    <glyph glyph-name="ucircumflex" unicode="&#xfb;" horiz-adv-x="574" 
d="M533 499v-499h-167v61q-27 -37 -64.5 -56.5t-88.5 -19.5q-84 0 -130.5 50t-46.5 143v321h167v-285q0 -49 19 -71t59 -22q85 0 85 98v280h167zM183 710h192l102 -159h-146l-52 86l-53 -86h-146z" />
    <glyph glyph-name="udieresis" unicode="&#xfc;" horiz-adv-x="574" 
d="M533 499v-499h-167v61q-27 -37 -64.5 -56.5t-88.5 -19.5q-84 0 -130.5 50t-46.5 143v321h167v-285q0 -49 19 -71t59 -22q85 0 85 98v280h167zM126 561.5q-19 10.5 -30 28.5t-11 41t11 41.5t30 29t43 10.5t43.5 -10.5t30.5 -29t11 -41.5t-11 -41t-30.5 -28.5t-43.5 -10.5
t-43 10.5zM343 560.5q-19 10.5 -30 29t-11 41.5t11 41.5t30 29t43 10.5t43.5 -10.5t30.5 -29t11 -41.5t-11 -41.5t-30.5 -29t-43.5 -10.5t-43 10.5z" />
    <glyph glyph-name="yacute" unicode="&#xfd;" horiz-adv-x="553" 
d="M557 499l-201 -499l-81 -202h-167l82 204l-194 497h180l103 -319l103 319h175zM275 710h164l-109 -159h-148z" />
    <glyph glyph-name="thorn" unicode="&#xfe;" horiz-adv-x="599" 
d="M579 249q0 -81 -27 -143q-26 -57 -76 -88.5t-118 -31.5q-99 0 -150 69v-257h-167v908h167v-262q51 69 150 69q68 0 118 -31.5t76 -88.5q27 -62 27 -144zM401 249q0 51 -12 79q-11 25 -33 37.5t-53 12.5q-47 0 -72 -29t-25 -85v-27q0 -57 24.5 -85.5t72.5 -28.5
q31 0 53 12.5t33 36.5q12 29 12 77z" />
    <glyph glyph-name="ydieresis" unicode="&#xff;" horiz-adv-x="553" 
d="M557 499l-201 -499l-81 -202h-167l82 204l-194 497h180l103 -319l103 319h175zM126 561.5q-19 10.5 -30 28.5t-11 41t11 41.5t30 29t43 10.5t43.5 -10.5t30.5 -29t11 -41.5t-11 -41t-30.5 -28.5t-43.5 -10.5t-43 10.5zM343 560.5q-19 10.5 -30 29t-11 41.5t11 41.5t30 29
t43 10.5t43.5 -10.5t30.5 -29t11 -41.5t-11 -41.5t-30.5 -29t-43.5 -10.5t-43 10.5z" />
    <glyph glyph-name="Amacron" unicode="&#x100;" horiz-adv-x="726" 
d="M501 133h-276l-41 -133h-188l232 706h270l232 -706h-188zM459 269l-95 306h-2l-95 -306h192zM200 879h327v-106h-327v106z" />
    <glyph glyph-name="amacron" unicode="&#x101;" horiz-adv-x="563" 
d="M526 287v-287h-167v59q-26 -36 -66 -54.5t-99 -18.5q-60 0 -102.5 21.5t-60.5 62.5q-14 28 -14 71q0 40 12 68q25 55 89 75.5t166 20.5h75v8q0 22 -1.5 33t-6.5 21q-15 33 -69 33q-29 0 -46 -7.5t-25 -24.5q-3 -7 -4 -14t-2 -16h-170q1 40 15 70q24 53 83.5 79.5
t146.5 26.5q91 0 145.5 -25t79.5 -79q21 -49 21 -123zM350 150q5 10 7 22t2 33v7h-64q-41 0 -65.5 -6.5t-32.5 -24.5q-5 -10 -5 -22q0 -14 5 -24q14 -30 66 -30q67 0 87 45zM126 682h319v-106h-319v106z" />
    <glyph glyph-name="Abreve" unicode="&#x102;" horiz-adv-x="726" 
d="M501 133h-276l-41 -133h-188l232 706h270l232 -706h-188zM459 269l-95 306h-2l-95 -306h192zM230.5 785.5q-47.5 38.5 -52.5 112.5h115q4 -32 21.5 -46.5t49.5 -14.5q33 0 49.5 14t24.5 47h110q-5 -74 -51 -112.5t-133 -38.5q-86 0 -133.5 38.5z" />
    <glyph glyph-name="abreve" unicode="&#x103;" horiz-adv-x="563" 
d="M526 287v-287h-167v59q-26 -36 -66 -54.5t-99 -18.5q-60 0 -102.5 21.5t-60.5 62.5q-14 28 -14 71q0 40 12 68q25 55 89 75.5t166 20.5h75v8q0 22 -1.5 33t-6.5 21q-15 33 -69 33q-29 0 -46 -7.5t-25 -24.5q-3 -7 -4 -14t-2 -16h-170q1 40 15 70q24 53 83.5 79.5
t146.5 26.5q91 0 145.5 -25t79.5 -79q21 -49 21 -123zM350 150q5 10 7 22t2 33v7h-64q-41 0 -65.5 -6.5t-32.5 -24.5q-5 -10 -5 -22q0 -14 5 -24q14 -30 66 -30q67 0 87 45zM148.5 585.5q-47.5 42.5 -52.5 124.5h117q4 -40 21.5 -57.5t51.5 -17.5t51 17.5t22 57.5h115
q-4 -82 -51 -124.5t-137 -42.5t-137.5 42.5z" />
    <glyph glyph-name="Aogonek" unicode="&#x104;" horiz-adv-x="726" 
d="M731 -114v-88q-37 -14 -82 -14q-58 0 -93 25t-35 72q0 39 25 68t69 51h-73l-41 133h-276l-41 -133h-188l232 706h270l232 -706q-38 -24 -58 -44.5t-20 -43.5q0 -16 11 -24.5t28 -8.5q22 0 40 7zM459 269l-95 306h-2l-95 -306h192z" />
    <glyph glyph-name="aogonek" unicode="&#x105;" horiz-adv-x="563" 
d="M527 -114v-88q-37 -14 -82 -14q-58 0 -93 25t-35 72q0 39 25 68t70 51h-53v59q-26 -36 -66 -54.5t-99 -18.5q-60 0 -102.5 21.5t-60.5 62.5q-14 28 -14 71q0 40 12 68q25 55 89 75.5t166 20.5h75v8q0 22 -1.5 33t-6.5 21q-15 33 -69 33q-29 0 -46 -7.5t-25 -24.5
q-3 -7 -4 -14t-2 -16h-170q1 40 15 70q24 53 83.5 79.5t146.5 26.5q91 0 145.5 -25t79.5 -79q21 -49 21 -123v-287q-38 -24 -58 -44.5t-20 -43.5q0 -16 11 -24.5t28 -8.5q22 0 40 7zM350 150q5 10 7 22t2 33v7h-64q-41 0 -65.5 -6.5t-32.5 -24.5q-5 -10 -5 -22q0 -14 5 -24
q14 -30 66 -30q67 0 87 45z" />
    <glyph glyph-name="Cacute" unicode="&#x106;" horiz-adv-x="738" 
d="M185 28.5q-82 47.5 -122 138.5q-35 79 -35 186t35 186q40 89 122 137.5t198 48.5q71 0 131.5 -21.5t105.5 -61.5q42 -38 65.5 -91t24.5 -114h-192q-3 60 -41 95q-19 17 -43 25t-58 8q-49 0 -83 -20t-51 -59q-11 -25 -15.5 -55.5t-4.5 -76.5q0 -48 4.5 -79.5t14.5 -55.5
q36 -78 136 -78q68 0 104 35q17 15 27.5 37.5t11.5 49.5h193q-1 -59 -24 -110t-64 -87q-45 -41 -107.5 -63t-134.5 -22q-116 0 -198 47.5zM381 898h172l-115 -145h-156z" />
    <glyph glyph-name="cacute" unicode="&#x107;" horiz-adv-x="572" 
d="M137.5 20.5q-63.5 34.5 -93.5 101.5q-25 56 -25 128q0 71 25 127q30 66 93.5 101.5t150.5 35.5q61 0 111.5 -17t86.5 -49q60 -54 66 -143h-181q-3 33 -25 54q-10 9 -24.5 14t-32.5 5q-27 0 -47 -11.5t-30 -33.5q-7 -15 -9.5 -34t-2.5 -49t2.5 -49t9.5 -34
q10 -22 30 -33.5t47 -11.5q38 0 57 18q11 10 17.5 25t6.5 31h181q-5 -89 -65 -144q-35 -32 -85.5 -49t-112.5 -17q-87 0 -150.5 34.5zM286 710h164l-109 -159h-148z" />
    <glyph glyph-name="Ccircumflex" unicode="&#x108;" horiz-adv-x="738" 
d="M185 28.5q-82 47.5 -122 138.5q-35 79 -35 186t35 186q40 89 122 137.5t198 48.5q71 0 131.5 -21.5t105.5 -61.5q42 -38 65.5 -91t24.5 -114h-192q-3 60 -41 95q-19 17 -43 25t-58 8q-49 0 -83 -20t-51 -59q-11 -25 -15.5 -55.5t-4.5 -76.5q0 -48 4.5 -79.5t14.5 -55.5
q36 -78 136 -78q68 0 104 35q17 15 27.5 37.5t11.5 49.5h193q-1 -59 -24 -110t-64 -87q-45 -41 -107.5 -63t-134.5 -22q-116 0 -198 47.5zM286 898h193l108 -145h-150l-55 72l-55 -72h-149z" />
    <glyph glyph-name="ccircumflex" unicode="&#x109;" horiz-adv-x="572" 
d="M137.5 20.5q-63.5 34.5 -93.5 101.5q-25 56 -25 128q0 71 25 127q30 66 93.5 101.5t150.5 35.5q61 0 111.5 -17t86.5 -49q60 -54 66 -143h-181q-3 33 -25 54q-10 9 -24.5 14t-32.5 5q-27 0 -47 -11.5t-30 -33.5q-7 -15 -9.5 -34t-2.5 -49t2.5 -49t9.5 -34
q10 -22 30 -33.5t47 -11.5q38 0 57 18q11 10 17.5 25t6.5 31h181q-5 -89 -65 -144q-35 -32 -85.5 -49t-112.5 -17q-87 0 -150.5 34.5zM194 710h192l102 -159h-146l-52 86l-53 -86h-146z" />
    <glyph glyph-name="Cdotaccent" unicode="&#x10a;" horiz-adv-x="738" 
d="M185 28.5q-82 47.5 -122 138.5q-35 79 -35 186t35 186q40 89 122 137.5t198 48.5q71 0 131.5 -21.5t105.5 -61.5q42 -38 65.5 -91t24.5 -114h-192q-3 60 -41 95q-19 17 -43 25t-58 8q-49 0 -83 -20t-51 -59q-11 -25 -15.5 -55.5t-4.5 -76.5q0 -48 4.5 -79.5t14.5 -55.5
q36 -78 136 -78q68 0 104 35q17 15 27.5 37.5t11.5 49.5h193q-1 -59 -24 -110t-64 -87q-45 -41 -107.5 -63t-134.5 -22q-116 0 -198 47.5zM337 762q-20 11 -31.5 30.5t-11.5 43.5t11.5 43t31.5 29.5t46 10.5q25 0 45 -10.5t31.5 -29.5t11.5 -43t-11.5 -43.5t-31.5 -30.5
t-45 -11q-26 0 -46 11z" />
    <glyph glyph-name="cdotaccent" unicode="&#x10b;" horiz-adv-x="572" 
d="M137.5 20.5q-63.5 34.5 -93.5 101.5q-25 56 -25 128q0 71 25 127q30 66 93.5 101.5t150.5 35.5q61 0 111.5 -17t86.5 -49q60 -54 66 -143h-181q-3 33 -25 54q-10 9 -24.5 14t-32.5 5q-27 0 -47 -11.5t-30 -33.5q-7 -15 -9.5 -34t-2.5 -49t2.5 -49t9.5 -34
q10 -22 30 -33.5t47 -11.5q38 0 57 18q11 10 17.5 25t6.5 31h181q-5 -89 -65 -144q-35 -32 -85.5 -49t-112.5 -17q-87 0 -150.5 34.5zM243.5 562q-20.5 11 -32 30t-11.5 43t11.5 43.5t32 30.5t45.5 11t45.5 -11t32 -30.5t11.5 -43.5t-11.5 -43t-32 -30t-45.5 -11t-45.5 11z
" />
    <glyph glyph-name="Ccaron" unicode="&#x10c;" horiz-adv-x="738" 
d="M185 28.5q-82 47.5 -122 138.5q-35 79 -35 186t35 186q40 89 122 137.5t198 48.5q71 0 131.5 -21.5t105.5 -61.5q42 -38 65.5 -91t24.5 -114h-192q-3 60 -41 95q-19 17 -43 25t-58 8q-49 0 -83 -20t-51 -59q-11 -25 -15.5 -55.5t-4.5 -76.5q0 -48 4.5 -79.5t14.5 -55.5
q36 -78 136 -78q68 0 104 35q17 15 27.5 37.5t11.5 49.5h193q-1 -59 -24 -110t-64 -87q-45 -41 -107.5 -63t-134.5 -22q-116 0 -198 47.5zM478 753h-192l-108 145h150l55 -73l54 73h150z" />
    <glyph glyph-name="ccaron" unicode="&#x10d;" horiz-adv-x="572" 
d="M137.5 20.5q-63.5 34.5 -93.5 101.5q-25 56 -25 128q0 71 25 127q30 66 93.5 101.5t150.5 35.5q61 0 111.5 -17t86.5 -49q60 -54 66 -143h-181q-3 33 -25 54q-10 9 -24.5 14t-32.5 5q-27 0 -47 -11.5t-30 -33.5q-7 -15 -9.5 -34t-2.5 -49t2.5 -49t9.5 -34
q10 -22 30 -33.5t47 -11.5q38 0 57 18q11 10 17.5 25t6.5 31h181q-5 -89 -65 -144q-35 -32 -85.5 -49t-112.5 -17q-87 0 -150.5 34.5zM386 551h-193l-102 160h146l53 -87l53 87h145z" />
    <glyph glyph-name="Dcaron" unicode="&#x10e;" horiz-adv-x="722" 
d="M50 706h298q116 0 195.5 -45t116.5 -129q17 -36 25 -80t8 -99t-8 -99t-25 -80q-37 -84 -116.5 -129t-195.5 -45h-298v706zM319 154q64 0 104 22t59 65q10 21 14 48t4 64t-4 64.5t-14 48.5q-20 43 -59.5 64.5t-103.5 21.5h-88v-398h88zM443 753h-192l-108 145h150l55 -73
l54 73h150z" />
    <glyph glyph-name="dcaron" unicode="&#x10f;" horiz-adv-x="731" 
d="M557 706v-706h-163v59q-27 -37 -65 -55t-88 -18q-68 0 -118 31.5t-76 88.5q-28 61 -28 144q0 79 28 143q26 58 76 89.5t118 31.5q99 0 150 -69v261h166zM392 264q0 55 -24.5 84.5t-71.5 29.5q-32 0 -54 -12.5t-33 -37.5q-12 -27 -12 -78q0 -50 12 -79q11 -25 33 -37.5
t54 -12.5q47 0 71.5 29.5t24.5 84.5v29zM604 706h142l-43 -172h-123z" />
    <glyph glyph-name="Dcroat" unicode="&#x110;" horiz-adv-x="722" 
d="M685 452q8 -44 8 -99t-8 -99t-25 -80q-37 -84 -116.5 -129t-195.5 -45h-298v303h-54v108h54v295h298q116 0 195.5 -45t116.5 -129q17 -36 25 -80zM496 289q4 27 4 64t-4 64.5t-14 48.5q-20 43 -59.5 64.5t-103.5 21.5h-88v-141h146v-108h-146v-149h88q64 0 104 22t59 65
q10 21 14 48z" />
    <glyph glyph-name="dcroat" unicode="&#x111;" horiz-adv-x="599" 
d="M600 560h-43v-560h-163v59q-27 -37 -65 -55t-88 -18q-68 0 -118 31.5t-76 88.5q-28 61 -28 144q0 79 28 143q26 58 76 89.5t118 31.5q99 0 150 -69v115h-173v92h173v54h166v-54h43v-92zM392 264q0 55 -24.5 84.5t-71.5 29.5q-32 0 -54 -12.5t-33 -37.5q-12 -27 -12 -78
q0 -50 12 -79q11 -25 33 -37.5t54 -12.5q47 0 71.5 29.5t24.5 84.5v29z" />
    <glyph glyph-name="Emacron" unicode="&#x112;" horiz-adv-x="550" 
d="M50 706h468v-148h-287v-129h284v-142h-284v-139h287v-148h-468v706zM123 879h327v-106h-327v106z" />
    <glyph glyph-name="emacron" unicode="&#x113;" horiz-adv-x="577" 
d="M378 146.5q5 10.5 7 21.5h169q-6 -71 -57 -117q-36 -33 -87.5 -49t-112.5 -16q-92 0 -158 35.5t-96 102.5q-24 54 -24 127q0 39 6 68.5t18 56.5q29 66 92 102t151 36q89 0 152.5 -37t93.5 -103q16 -35 21 -71t5 -94h-370q3 -36 12 -53q21 -48 94 -48q46 0 70 21
q9 7 14 17.5zM233.5 383.5q-22.5 -12.5 -33.5 -36.5q-5 -10 -7.5 -19.5t-3.5 -23.5h199q-1 14 -3 23.5t-7 19.5q-22 49 -89 49q-33 0 -55.5 -12.5zM130 682h319v-106h-319v106z" />
    <glyph glyph-name="Ebreve" unicode="&#x114;" horiz-adv-x="550" 
d="M50 706h468v-148h-287v-129h284v-142h-284v-139h287v-148h-468v706zM153.5 785.5q-47.5 38.5 -52.5 112.5h115q4 -32 21.5 -46.5t49.5 -14.5q33 0 49.5 14t24.5 47h110q-5 -74 -51 -112.5t-133 -38.5q-86 0 -133.5 38.5z" />
    <glyph glyph-name="ebreve" unicode="&#x115;" horiz-adv-x="577" 
d="M378 146.5q5 10.5 7 21.5h169q-6 -71 -57 -117q-36 -33 -87.5 -49t-112.5 -16q-92 0 -158 35.5t-96 102.5q-24 54 -24 127q0 39 6 68.5t18 56.5q29 66 92 102t151 36q89 0 152.5 -37t93.5 -103q16 -35 21 -71t5 -94h-370q3 -36 12 -53q21 -48 94 -48q46 0 70 21
q9 7 14 17.5zM233.5 383.5q-22.5 -12.5 -33.5 -36.5q-5 -10 -7.5 -19.5t-3.5 -23.5h199q-1 14 -3 23.5t-7 19.5q-22 49 -89 49q-33 0 -55.5 -12.5zM152.5 585.5q-47.5 42.5 -52.5 124.5h117q4 -40 21.5 -57.5t51.5 -17.5t51 17.5t22 57.5h115q-4 -82 -51 -124.5t-137 -42.5
t-137.5 42.5z" />
    <glyph glyph-name="Edotaccent" unicode="&#x116;" horiz-adv-x="550" 
d="M50 706h468v-148h-287v-129h284v-142h-284v-139h287v-148h-468v706zM240 762q-20 11 -31.5 30.5t-11.5 43.5t11.5 43t31.5 29.5t46 10.5q25 0 45 -10.5t31.5 -29.5t11.5 -43t-11.5 -43.5t-31.5 -30.5t-45 -11q-26 0 -46 11z" />
    <glyph glyph-name="edotaccent" unicode="&#x117;" horiz-adv-x="577" 
d="M378 146.5q5 10.5 7 21.5h169q-6 -71 -57 -117q-36 -33 -87.5 -49t-112.5 -16q-92 0 -158 35.5t-96 102.5q-24 54 -24 127q0 39 6 68.5t18 56.5q29 66 92 102t151 36q89 0 152.5 -37t93.5 -103q16 -35 21 -71t5 -94h-370q3 -36 12 -53q21 -48 94 -48q46 0 70 21
q9 7 14 17.5zM233.5 383.5q-22.5 -12.5 -33.5 -36.5q-5 -10 -7.5 -19.5t-3.5 -23.5h199q-1 14 -3 23.5t-7 19.5q-22 49 -89 49q-33 0 -55.5 -12.5zM243.5 562q-20.5 11 -32 30t-11.5 43t11.5 43.5t32 30.5t45.5 11t45.5 -11t32 -30.5t11.5 -43.5t-11.5 -43t-32 -30
t-45.5 -11t-45.5 11z" />
    <glyph glyph-name="Eogonek" unicode="&#x118;" horiz-adv-x="550" 
d="M519 -114v-88q-37 -14 -82 -14q-58 0 -93 25t-35 72q0 39 25 68t69 51h-353v706h468v-148h-287v-129h284v-142h-284v-139h287v-148q-38 -24 -58 -44.5t-20 -43.5q0 -16 11 -24.5t28 -8.5q22 0 40 7z" />
    <glyph glyph-name="eogonek" unicode="&#x119;" horiz-adv-x="577" 
d="M378 146.5q5 10.5 7 21.5h169q-4 -44 -26 -78.5t-71 -75.5q-41 -35 -57.5 -55.5t-16.5 -42.5q0 -18 11.5 -28t30.5 -10q18 0 37 8v-89q-39 -13 -82 -13q-58 0 -93 26.5t-35 75.5q0 58 56 100h-11q-92 0 -158 35.5t-96 102.5q-24 54 -24 127q0 39 6 68.5t18 56.5
q29 66 92 102t151 36q89 0 152.5 -37t93.5 -103q16 -35 21 -71t5 -94h-370q3 -36 12 -53q21 -48 94 -48q46 0 70 21q9 7 14 17.5zM233.5 383.5q-22.5 -12.5 -33.5 -36.5q-5 -10 -7.5 -19.5t-3.5 -23.5h199q-1 14 -3 23.5t-7 19.5q-22 49 -89 49q-33 0 -55.5 -12.5z" />
    <glyph glyph-name="Ecaron" unicode="&#x11a;" horiz-adv-x="550" 
d="M50 706h468v-148h-287v-129h284v-142h-284v-139h287v-148h-468v706zM381 753h-192l-108 145h150l55 -73l54 73h150z" />
    <glyph glyph-name="ecaron" unicode="&#x11b;" horiz-adv-x="577" 
d="M378 146.5q5 10.5 7 21.5h169q-6 -71 -57 -117q-36 -33 -87.5 -49t-112.5 -16q-92 0 -158 35.5t-96 102.5q-24 54 -24 127q0 39 6 68.5t18 56.5q29 66 92 102t151 36q89 0 152.5 -37t93.5 -103q16 -35 21 -71t5 -94h-370q3 -36 12 -53q21 -48 94 -48q46 0 70 21
q9 7 14 17.5zM233.5 383.5q-22.5 -12.5 -33.5 -36.5q-5 -10 -7.5 -19.5t-3.5 -23.5h199q-1 14 -3 23.5t-7 19.5q-22 49 -89 49q-33 0 -55.5 -12.5zM386 551h-193l-102 160h146l53 -87l53 87h145z" />
    <glyph glyph-name="Gcircumflex" unicode="&#x11c;" horiz-adv-x="746" 
d="M718 388v-46q0 -108 -37 -189q-38 -86 -113 -129t-184 -43q-117 0 -199 48.5t-123 137.5q-34 79 -34 186q0 105 35 186q41 90 123 138t198 48q74 0 135.5 -20.5t104.5 -60.5q38 -35 61 -82.5t27 -101.5h-187q-8 50 -38 76q-18 17 -44.5 25.5t-60.5 8.5q-102 0 -140 -81
q-11 -26 -16 -56.5t-5 -79.5q0 -48 5 -78.5t16 -56.5q37 -82 147 -82q50 0 84.5 18t50.5 53q11 24 12 55h-156v126h338zM287 898h193l108 -145h-150l-55 72l-55 -72h-149z" />
    <glyph glyph-name="gcircumflex" unicode="&#x11d;" horiz-adv-x="597" 
d="M556 499v-471q0 -74 -24 -126q-53 -118 -238 -118q-137 0 -208 63q-25 22 -39 50t-20 65h175q3 -22 19 -36q24 -21 72 -21q69 0 88 45q9 18 9 46v70q-26 -35 -64 -53.5t-91 -18.5q-67 0 -115.5 30.5t-74.5 87.5q-13 31 -19.5 65t-6.5 77t6.5 77t19.5 64q26 57 74.5 88
t115.5 31q104 0 157 -75v60h164zM365.5 153.5q24.5 28.5 24.5 82.5v30q0 55 -24.5 84t-70.5 29q-31 0 -53 -12.5t-33 -36.5q-7 -15 -9.5 -33t-2.5 -43q0 -29 2.5 -47t9.5 -34q11 -23 33 -35.5t53 -12.5q46 0 70.5 28.5zM198 710h192l102 -159h-146l-52 86l-53 -86h-146z" />
    <glyph glyph-name="Gbreve" unicode="&#x11e;" horiz-adv-x="746" 
d="M718 388v-46q0 -108 -37 -189q-38 -86 -113 -129t-184 -43q-117 0 -199 48.5t-123 137.5q-34 79 -34 186q0 105 35 186q41 90 123 138t198 48q74 0 135.5 -20.5t104.5 -60.5q38 -35 61 -82.5t27 -101.5h-187q-8 50 -38 76q-18 17 -44.5 25.5t-60.5 8.5q-102 0 -140 -81
q-11 -26 -16 -56.5t-5 -79.5q0 -48 5 -78.5t16 -56.5q37 -82 147 -82q50 0 84.5 18t50.5 53q11 24 12 55h-156v126h338zM250.5 785.5q-47.5 38.5 -52.5 112.5h115q4 -32 21.5 -46.5t49.5 -14.5q33 0 49.5 14t24.5 47h110q-5 -74 -51 -112.5t-133 -38.5q-86 0 -133.5 38.5z
" />
    <glyph glyph-name="gbreve" unicode="&#x11f;" horiz-adv-x="597" 
d="M556 499v-471q0 -74 -24 -126q-53 -118 -238 -118q-137 0 -208 63q-25 22 -39 50t-20 65h175q3 -22 19 -36q24 -21 72 -21q69 0 88 45q9 18 9 46v70q-26 -35 -64 -53.5t-91 -18.5q-67 0 -115.5 30.5t-74.5 87.5q-13 31 -19.5 65t-6.5 77t6.5 77t19.5 64q26 57 74.5 88
t115.5 31q104 0 157 -75v60h164zM365.5 153.5q24.5 28.5 24.5 82.5v30q0 55 -24.5 84t-70.5 29q-31 0 -53 -12.5t-33 -36.5q-7 -15 -9.5 -33t-2.5 -43q0 -29 2.5 -47t9.5 -34q11 -23 33 -35.5t53 -12.5q46 0 70.5 28.5zM156.5 585.5q-47.5 42.5 -52.5 124.5h117
q4 -40 21.5 -57.5t51.5 -17.5t51 17.5t22 57.5h115q-4 -82 -51 -124.5t-137 -42.5t-137.5 42.5z" />
    <glyph glyph-name="Gdotaccent" unicode="&#x120;" horiz-adv-x="746" 
d="M718 388v-46q0 -108 -37 -189q-38 -86 -113 -129t-184 -43q-117 0 -199 48.5t-123 137.5q-34 79 -34 186q0 105 35 186q41 90 123 138t198 48q74 0 135.5 -20.5t104.5 -60.5q38 -35 61 -82.5t27 -101.5h-187q-8 50 -38 76q-18 17 -44.5 25.5t-60.5 8.5q-102 0 -140 -81
q-11 -26 -16 -56.5t-5 -79.5q0 -48 5 -78.5t16 -56.5q37 -82 147 -82q50 0 84.5 18t50.5 53q11 24 12 55h-156v126h338zM338 762q-20 11 -31.5 30.5t-11.5 43.5t11.5 43t31.5 29.5t46 10.5q25 0 45 -10.5t31.5 -29.5t11.5 -43t-11.5 -43.5t-31.5 -30.5t-45 -11q-26 0 -46 11
z" />
    <glyph glyph-name="gdotaccent" unicode="&#x121;" horiz-adv-x="597" 
d="M556 499v-471q0 -74 -24 -126q-53 -118 -238 -118q-137 0 -208 63q-25 22 -39 50t-20 65h175q3 -22 19 -36q24 -21 72 -21q69 0 88 45q9 18 9 46v70q-26 -35 -64 -53.5t-91 -18.5q-67 0 -115.5 30.5t-74.5 87.5q-13 31 -19.5 65t-6.5 77t6.5 77t19.5 64q26 57 74.5 88
t115.5 31q104 0 157 -75v60h164zM365.5 153.5q24.5 28.5 24.5 82.5v30q0 55 -24.5 84t-70.5 29q-31 0 -53 -12.5t-33 -36.5q-7 -15 -9.5 -33t-2.5 -43q0 -29 2.5 -47t9.5 -34q11 -23 33 -35.5t53 -12.5q46 0 70.5 28.5zM247.5 562q-20.5 11 -32 30t-11.5 43t11.5 43.5
t32 30.5t45.5 11t45.5 -11t32 -30.5t11.5 -43.5t-11.5 -43t-32 -30t-45.5 -11t-45.5 11z" />
    <glyph glyph-name="Gcommaaccent" unicode="&#x122;" horiz-adv-x="746" 
d="M718 388v-46q0 -108 -37 -189q-38 -86 -113 -129t-184 -43q-117 0 -199 48.5t-123 137.5q-34 79 -34 186q0 105 35 186q41 90 123 138t198 48q74 0 135.5 -20.5t104.5 -60.5q38 -35 61 -82.5t27 -101.5h-187q-8 50 -38 76q-18 17 -44.5 25.5t-60.5 8.5q-102 0 -140 -81
q-11 -26 -16 -56.5t-5 -79.5q0 -48 5 -78.5t16 -56.5q37 -82 147 -82q50 0 84.5 18t50.5 53q11 24 12 55h-156v126h338zM300 -53h170l-49 -148h-157z" />
    <glyph glyph-name="gcommaaccent" unicode="&#x123;" horiz-adv-x="597" 
d="M556 499v-471q0 -74 -24 -126q-53 -118 -238 -118q-137 0 -208 63q-25 22 -39 50t-20 65h175q3 -22 19 -36q24 -21 72 -21q69 0 88 45q9 18 9 46v70q-26 -35 -64 -53.5t-91 -18.5q-67 0 -115.5 30.5t-74.5 87.5q-13 31 -19.5 65t-6.5 77t6.5 77t19.5 64q26 57 74.5 88
t115.5 31q104 0 157 -75v60h164zM365.5 153.5q24.5 28.5 24.5 82.5v30q0 55 -24.5 84t-70.5 29q-31 0 -53 -12.5t-33 -36.5q-7 -15 -9.5 -33t-2.5 -43q0 -29 2.5 -47t9.5 -34q11 -23 33 -35.5t53 -12.5q46 0 70.5 28.5zM347 558h-170l49 149h157z" />
    <glyph glyph-name="Hcircumflex" unicode="&#x124;" horiz-adv-x="720" 
d="M50 706h181v-276h258v276h181v-706h-181v281h-258v-281h-181v706zM264 898h193l108 -145h-150l-55 72l-55 -72h-149z" />
    <glyph glyph-name="hcircumflex" unicode="&#x125;" horiz-adv-x="574" 
d="M491.5 464q46.5 -50 46.5 -143v-321h-167v285q0 49 -19 71t-59 22q-42 0 -63.5 -24.5t-21.5 -73.5v-280h-167v706h167v-269q53 77 153 77q84 0 130.5 -50zM193 898h193l108 -145h-150l-55 72l-55 -72h-149z" />
    <glyph glyph-name="Hbar" unicode="&#x126;" horiz-adv-x="720" 
d="M670 706v-706h-181v281h-258v-281h-181v706h181v-90h258v90h181zM489 430v87h-258v-87h258z" />
    <glyph glyph-name="hbar" unicode="&#x127;" horiz-adv-x="574" 
d="M491.5 464q46.5 -50 46.5 -143v-321h-167v285q0 49 -19 71t-59 22q-42 0 -63.5 -24.5t-21.5 -73.5v-280h-167v560h-40v92h40v54h167v-54h174v-92h-174v-123q53 77 153 77q84 0 130.5 -50z" />
    <glyph glyph-name="Itilde" unicode="&#x128;" horiz-adv-x="281" 
d="M50 706h181v-706h-181v706zM168 756.5q-14 6.5 -32 19.5q-17 12 -27 17.5t-20 5.5q-14 0 -20.5 -11.5t-7.5 -35.5h-83q3 73 28 109.5t73 36.5q23 0 37.5 -7t33.5 -22q11 -9 20 -14.5t17 -5.5q15 0 21.5 11t9.5 38h85q-2 -76 -26 -112t-73 -36q-22 0 -36 6.5z" />
    <glyph glyph-name="itilde" unicode="&#x129;" horiz-adv-x="249" 
d="M41 499h167v-499h-167v499zM147.5 558q-15.5 9 -32.5 26q-12 12 -18 16.5t-14 4.5q-13 0 -18 -12.5t-7 -41.5h-87q1 57 10 92.5t28.5 53t53.5 17.5q24 0 40 -9t31 -26q12 -11 18.5 -15.5t14.5 -4.5q13 0 18 12.5t6 40.5h87q-1 -56 -10 -91.5t-28.5 -53.5t-52.5 -18
q-24 0 -39.5 9z" />
    <glyph glyph-name="Imacron" unicode="&#x12a;" horiz-adv-x="281" 
d="M50 706h181v-706h-181v706zM0 878h280v-105h-280v105z" />
    <glyph glyph-name="imacron" unicode="&#x12b;" horiz-adv-x="249" 
d="M41 499h167v-499h-167v499zM-8 682h267v-106h-267v106z" />
    <glyph glyph-name="Ibreve" unicode="&#x12c;" horiz-adv-x="281" 
d="M50 706h181v-706h-181v706zM20 785.5q-41 38.5 -42 112.5h112q3 -34 14.5 -47.5t36.5 -13.5q24 0 35.5 14t13.5 47h113q-2 -74 -43 -112.5t-120 -38.5t-120 38.5z" />
    <glyph glyph-name="ibreve" unicode="&#x12d;" horiz-adv-x="249" 
d="M41 499h167v-499h-167v499zM12.5 584.5q-38.5 42.5 -38.5 125.5h104q0 -43 11.5 -59.5t36.5 -16.5q24 0 35.5 16.5t11.5 59.5h104q-1 -83 -39 -125.5t-112 -42.5q-75 0 -113.5 42.5z" />
    <glyph glyph-name="Iogonek" unicode="&#x12e;" horiz-adv-x="281" 
d="M233 -114v-89q-36 -13 -72 -13q-54 0 -86.5 23.5t-32.5 67.5q0 42 20 72t55 53h-67v706h181v-706q-28 -25 -42.5 -47.5t-14.5 -47.5q0 -13 7.5 -19.5t20.5 -6.5q16 0 31 7z" />
    <glyph glyph-name="iogonek" unicode="&#x12f;" horiz-adv-x="249" 
d="M80 561.5q-20 10.5 -31.5 29.5t-11.5 43t11.5 43t31.5 29.5t45 10.5t45 -10.5t31.5 -29.5t11.5 -43t-11.5 -43t-31.5 -29.5t-45 -10.5t-45 10.5zM158.5 -114.5q7.5 -6.5 20.5 -6.5q16 0 31 7v-89q-36 -13 -73 -13q-53 0 -85.5 23.5t-32.5 67.5q0 42 20 72t55 53h-53v499
h167v-499q-28 -25 -42.5 -47.5t-14.5 -47.5q0 -13 7.5 -19.5z" />
    <glyph glyph-name="Idotaccent" unicode="&#x130;" horiz-adv-x="281" 
d="M50 706h181v-706h-181v706zM95 762q-20 11 -31.5 30.5t-11.5 43.5t11.5 43t31.5 29.5t46 10.5q25 0 45 -10.5t31.5 -29.5t11.5 -43t-11.5 -43.5t-31.5 -30.5t-45 -11q-26 0 -46 11z" />
    <glyph glyph-name="dotlessi" unicode="&#x131;" horiz-adv-x="249" 
d="M41 499h167v-499h-167v499z" />
    <glyph glyph-name="IJ" unicode="&#x132;" horiz-adv-x="628" 
d="M50 706h181v-706h-181v706zM288 0v160q17 -3 36 -3q32 0 50 9t26 29.5t8 56.5v454h181v-487q0 -76 -23.5 -125t-73.5 -73.5t-131 -24.5q-41 0 -73 4z" />
    <glyph glyph-name="ij" unicode="&#x133;" horiz-adv-x="506" 
d="M80 561.5q-20 10.5 -31.5 29.5t-11.5 43t11.5 43t31.5 29.5t45 10.5t45 -10.5t31.5 -29.5t11.5 -43t-11.5 -43t-31.5 -29.5t-45 -10.5t-45 10.5zM41 499h167v-499h-167v499zM336 561.5q-20 10.5 -31.5 29.5t-11.5 43t11.5 43t31.5 29.5t45 10.5t44.5 -10.5t31 -29.5
t11.5 -43t-11.5 -43t-31 -29.5t-44.5 -10.5t-45 10.5zM216 -203v142q19 -3 33 -3q26 0 38 12.5t12 38.5v512h166v-529q0 -62 -18.5 -101t-57.5 -57.5t-102 -18.5q-42 0 -71 4z" />
    <glyph glyph-name="Jcircumflex" unicode="&#x134;" horiz-adv-x="347" 
d="M7 0v160q17 -3 36 -3q32 0 50 9t26 29.5t8 56.5v454h181v-487q0 -76 -23.5 -125t-73.5 -73.5t-131 -24.5q-41 0 -73 4zM123 898h188l88 -145h-140l-41 73l-41 -73h-141z" />
    <glyph glyph-name="jcircumflex" unicode="&#x135;" horiz-adv-x="257" 
d="M-33 -203v142q19 -3 33 -3q26 0 38 12.5t12 38.5v512h166v-529q0 -62 -18.5 -101t-57.5 -57.5t-102 -18.5q-42 0 -71 4zM53 710h158l77 -159h-119l-37 84l-38 -84h-119z" />
    <glyph glyph-name="Kcommaaccent" unicode="&#x136;" horiz-adv-x="691" 
d="M474 0l-243 315v-315h-181v706h181v-257l211 257h214l-269 -317l310 -389h-223zM255 -53h170l-49 -148h-157z" />
    <glyph glyph-name="kcommaaccent" unicode="&#x137;" horiz-adv-x="563" 
d="M363 0l-155 208v-208h-167v706h167v-370l139 163h207l-201 -225l223 -274h-213zM198 -53h170l-49 -148h-157z" />
    <glyph glyph-name="kgreenlandic" unicode="&#x138;" horiz-adv-x="563" 
d="M363 0l-155 208v-208h-167v499h167v-163l139 163h207l-202 -224l225 -275h-214z" />
    <glyph glyph-name="Lacute" unicode="&#x139;" horiz-adv-x="427" 
d="M50 706h181v-550h189v-156h-370v706zM136 898h172l-115 -145h-156z" />
    <glyph glyph-name="lacute" unicode="&#x13a;" horiz-adv-x="249" 
d="M41 706h167v-706h-167v706zM123 898h172l-115 -145h-156z" />
    <glyph glyph-name="Lcommaaccent" unicode="&#x13b;" horiz-adv-x="427" 
d="M50 706h181v-550h189v-156h-370v706zM148 -53h170l-49 -148h-157z" />
    <glyph glyph-name="lcommaaccent" unicode="&#x13c;" horiz-adv-x="249" 
d="M41 706h167v-706h-167v706zM41 -53h170l-49 -148h-157z" />
    <glyph glyph-name="Lcaron" unicode="&#x13d;" horiz-adv-x="427" 
d="M50 706h181v-550h189v-156h-370v706zM290 706h142l-43 -172h-123z" />
    <glyph glyph-name="lcaron" unicode="&#x13e;" horiz-adv-x="381" 
d="M41 706h167v-706h-167v706zM254 706h142l-43 -172h-123z" />
    <glyph glyph-name="Ldot" unicode="&#x13f;" horiz-adv-x="510" 
d="M50 706h181v-550h189v-156h-370v706zM345 329q-22 12 -34.5 33.5t-12.5 49.5q0 43 27 69t71 26q43 0 69.5 -26t26.5 -69t-26.5 -69t-69.5 -26q-29 0 -51 12z" />
    <glyph glyph-name="ldot" unicode="&#x140;" horiz-adv-x="456" 
d="M41 706h167v-706h-167v706zM302 287q-22 12 -34.5 33.5t-12.5 49.5q0 43 27 69t71 26q43 0 69.5 -26t26.5 -69t-26.5 -69t-69.5 -26q-29 0 -51 12z" />
    <glyph glyph-name="Lslash" unicode="&#x141;" horiz-adv-x="427" 
d="M420 156v-156h-370v268l-54 -34v125l54 35v312h181v-223l128 82v-128l-128 -82v-199h189z" />
    <glyph glyph-name="lslash" unicode="&#x142;" horiz-adv-x="283" 
d="M282 396l-64 -45v-351h-167v267l-52 -34v132l52 35v306h167v-220l64 44v-134z" />
    <glyph glyph-name="Nacute" unicode="&#x143;" horiz-adv-x="736" 
d="M50 706h181l279 -436v436h176v-706h-183l-277 435v-435h-176v706zM368 898h172l-115 -145h-156z" />
    <glyph glyph-name="nacute" unicode="&#x144;" horiz-adv-x="574" 
d="M491.5 464q46.5 -50 46.5 -143v-321h-167v285q0 49 -19 71t-59 22q-42 0 -63.5 -24.5t-21.5 -73.5v-280h-167v499h167v-62q53 77 153 77q84 0 130.5 -50zM288 710h164l-109 -159h-148z" />
    <glyph glyph-name="Ncommaaccent" unicode="&#x145;" horiz-adv-x="736" 
d="M50 706h181l279 -436v436h176v-706h-183l-277 435v-435h-176v706zM280 -53h170l-49 -148h-157z" />
    <glyph glyph-name="ncommaaccent" unicode="&#x146;" horiz-adv-x="574" 
d="M491.5 464q46.5 -50 46.5 -143v-321h-167v285q0 49 -19 71t-59 22q-42 0 -63.5 -24.5t-21.5 -73.5v-280h-167v499h167v-62q53 77 153 77q84 0 130.5 -50zM208 -53h170l-49 -148h-157z" />
    <glyph glyph-name="Ncaron" unicode="&#x147;" horiz-adv-x="736" 
d="M50 706h181l279 -436v436h176v-706h-183l-277 435v-435h-176v706zM465 753h-192l-108 145h150l55 -73l54 73h150z" />
    <glyph glyph-name="ncaron" unicode="&#x148;" horiz-adv-x="574" 
d="M491.5 464q46.5 -50 46.5 -143v-321h-167v285q0 49 -19 71t-59 22q-42 0 -63.5 -24.5t-21.5 -73.5v-280h-167v499h167v-62q53 77 153 77q84 0 130.5 -50zM387 551h-193l-102 160h146l53 -87l53 87h145z" />
    <glyph glyph-name="napostrophe" unicode="&#x149;" horiz-adv-x="766" 
d="M90 706h171l-113 -284h-126zM682.5 464q46.5 -50 46.5 -143v-321h-167v285q0 49 -19 71t-59 22q-42 0 -63.5 -24.5t-21.5 -73.5v-280h-167v499h167v-62q53 77 153 77q84 0 130.5 -50z" />
    <glyph glyph-name="Eng" unicode="&#x14a;" horiz-adv-x="736" 
d="M686 706v-737q0 -91 -43.5 -132.5t-138.5 -41.5q-41 0 -75 3v140q20 -2 30 -2q52 0 52 50v19l-285 430v-435h-176v706h181l279 -423v423h176z" />
    <glyph glyph-name="eng" unicode="&#x14b;" horiz-adv-x="574" 
d="M491.5 464q46.5 -50 46.5 -143v-350q0 -92 -42.5 -134t-135.5 -42q-38 0 -71 3v142q9 -2 17 -2.5t16 -0.5q25 0 37 12.5t12 38.5v297q0 50 -19 71.5t-60 21.5t-62.5 -24.5t-21.5 -73.5v-280h-167v499h167v-62q26 38 63.5 57.5t87.5 19.5q86 0 132.5 -50z" />
    <glyph glyph-name="Omacron" unicode="&#x14c;" horiz-adv-x="764" 
d="M193.5 24q-78.5 43 -118.5 123q-23 41 -35 93.5t-12 112.5q0 105 36 188q39 88 121 136t197 48t196.5 -47.5t120.5 -134.5q36 -85 36 -190q0 -108 -37 -191q-39 -87 -120 -134t-196 -47q-110 0 -188.5 43zM469.5 163q34.5 22 52.5 63q11 25 16 55t5 72t-4.5 72t-15.5 56
q-40 84 -141 84q-103 0 -141 -84q-11 -25 -15.5 -54.5t-4.5 -73.5q0 -42 5 -72t16 -55q38 -85 140 -85q53 0 87.5 22zM219 879h327v-106h-327v106z" />
    <glyph glyph-name="omacron" unicode="&#x14d;" horiz-adv-x="586" 
d="M137.5 22.5q-64.5 36.5 -94.5 103.5q-24 54 -24 124q0 69 24 123q30 67 94.5 104t155.5 37t155 -36.5t94 -103.5q25 -53 25 -124q0 -72 -25 -125q-30 -66 -94 -102.5t-155 -36.5t-155.5 36.5zM377 168q7 15 9.5 34.5t2.5 47.5q0 56 -12 81q-21 47 -84 47q-62 0 -84 -47
q-12 -28 -12 -81q0 -52 12 -82q22 -47 84 -47t84 47zM134 682h319v-106h-319v106z" />
    <glyph glyph-name="Obreve" unicode="&#x14e;" horiz-adv-x="764" 
d="M193.5 24q-78.5 43 -118.5 123q-23 41 -35 93.5t-12 112.5q0 105 36 188q39 88 121 136t197 48t196.5 -47.5t120.5 -134.5q36 -85 36 -190q0 -108 -37 -191q-39 -87 -120 -134t-196 -47q-110 0 -188.5 43zM469.5 163q34.5 22 52.5 63q11 25 16 55t5 72t-4.5 72t-15.5 56
q-40 84 -141 84q-103 0 -141 -84q-11 -25 -15.5 -54.5t-4.5 -73.5q0 -42 5 -72t16 -55q38 -85 140 -85q53 0 87.5 22zM249.5 785.5q-47.5 38.5 -52.5 112.5h115q4 -32 21.5 -46.5t49.5 -14.5q33 0 49.5 14t24.5 47h110q-5 -74 -51 -112.5t-133 -38.5q-86 0 -133.5 38.5z" />
    <glyph glyph-name="obreve" unicode="&#x14f;" horiz-adv-x="586" 
d="M137.5 22.5q-64.5 36.5 -94.5 103.5q-24 54 -24 124q0 69 24 123q30 67 94.5 104t155.5 37t155 -36.5t94 -103.5q25 -53 25 -124q0 -72 -25 -125q-30 -66 -94 -102.5t-155 -36.5t-155.5 36.5zM377 168q7 15 9.5 34.5t2.5 47.5q0 56 -12 81q-21 47 -84 47q-62 0 -84 -47
q-12 -28 -12 -81q0 -52 12 -82q22 -47 84 -47t84 47zM157.5 585.5q-47.5 42.5 -52.5 124.5h117q4 -40 21.5 -57.5t51.5 -17.5t51 17.5t22 57.5h115q-4 -82 -51 -124.5t-137 -42.5t-137.5 42.5z" />
    <glyph glyph-name="Ohungarumlaut" unicode="&#x150;" horiz-adv-x="764" 
d="M193.5 24q-78.5 43 -118.5 123q-23 41 -35 93.5t-12 112.5q0 105 36 188q39 88 121 136t197 48t196.5 -47.5t120.5 -134.5q36 -85 36 -190q0 -108 -37 -191q-39 -87 -120 -134t-196 -47q-110 0 -188.5 43zM469.5 163q34.5 22 52.5 63q11 25 16 55t5 72t-4.5 72t-15.5 56
q-40 84 -141 84q-103 0 -141 -84q-11 -25 -15.5 -54.5t-4.5 -73.5q0 -42 5 -72t16 -55q38 -85 140 -85q53 0 87.5 22zM312 898h141l-122 -145h-117zM502 898h140l-121 -145h-117z" />
    <glyph glyph-name="ohungarumlaut" unicode="&#x151;" horiz-adv-x="586" 
d="M137.5 22.5q-64.5 36.5 -94.5 103.5q-24 54 -24 124q0 69 24 123q30 67 94.5 104t155.5 37t155 -36.5t94 -103.5q25 -53 25 -124q0 -72 -25 -125q-30 -66 -94 -102.5t-155 -36.5t-155.5 36.5zM377 168q7 15 9.5 34.5t2.5 47.5q0 56 -12 81q-21 47 -84 47q-62 0 -84 -47
q-12 -28 -12 -81q0 -52 12 -82q22 -47 84 -47t84 47zM222 710h140l-121 -159h-116zM411 710h140l-121 -159h-116z" />
    <glyph glyph-name="OE" unicode="&#x152;" horiz-adv-x="1030" 
d="M711 558v-130h284v-141h-284v-139h287v-148h-525q-44 -11 -95 -11q-113 0 -193.5 45t-119.5 129q-37 83 -37 190t37 190q38 84 119 129t194 45q50 0 96 -11h524v-148h-287zM378 141q99 0 137 84q11 25 15.5 55t4.5 73q0 45 -4.5 75t-15.5 54q-19 41 -52.5 62t-84.5 21
q-99 0 -137 -83q-11 -24 -15.5 -54t-4.5 -75q0 -44 5 -74t16 -54q38 -84 136 -84z" />
    <glyph glyph-name="oe" unicode="&#x153;" horiz-adv-x="891" 
d="M696 168h173q-7 -68 -52 -114q-33 -34 -83 -51t-109 -17q-54 0 -98.5 14.5t-77.5 41.5q-32 -27 -74.5 -41.5t-94.5 -14.5q-86 0 -146.5 35t-89.5 101q-25 54 -25 128t25 128q30 65 90.5 100.5t145.5 35.5q52 0 95 -14t74 -42q30 27 71.5 41.5t92.5 14.5q86 0 144.5 -36
t88.5 -100q15 -34 20.5 -73.5t5.5 -95.5h-341q3 -38 12 -56q20 -45 79 -45q40 0 58 24q13 13 16 36zM543 353q-10 -23 -11 -49h168q-1 14 -3.5 26.5t-6.5 21.5q-10 22 -28.5 33.5t-44.5 11.5q-54 0 -74 -44zM360 250q0 60 -13 87q-19 41 -67 41q-50 0 -69 -41
q-12 -28 -12 -87t12 -87q19 -42 69 -42q48 0 67 41q13 29 13 88z" />
    <glyph glyph-name="Racute" unicode="&#x154;" horiz-adv-x="641" 
d="M258 282h-27v-282h-181v706h313q168 0 218 -109q19 -44 19 -103q0 -29 -5 -56t-14 -48q-34 -84 -132 -102l205 -288h-205zM231 402h79q38 0 62 10t34 31q9 18 9 45q0 26 -9 44q-10 21 -34 30t-62 9h-79v-169zM306 898h172l-115 -145h-156z" />
    <glyph glyph-name="racute" unicode="&#x155;" horiz-adv-x="396" 
d="M41 499h166v-45q19 31 41.5 45t52.5 14q45 0 71.5 -26.5t26.5 -70.5q0 -28 -12 -50t-34 -34.5t-50 -12.5q-26 0 -47 12.5t-31 32.5q-11 -5 -14 -14t-3 -35v-315h-167v499zM215 710h164l-109 -159h-148z" />
    <glyph glyph-name="Rcommaaccent" unicode="&#x156;" horiz-adv-x="641" 
d="M258 282h-27v-282h-181v706h313q168 0 218 -109q19 -44 19 -103q0 -29 -5 -56t-14 -48q-34 -84 -132 -102l205 -288h-205zM231 402h79q38 0 62 10t34 31q9 18 9 45q0 26 -9 44q-10 21 -34 30t-62 9h-79v-169zM252 -53h170l-49 -148h-157z" />
    <glyph glyph-name="rcommaaccent" unicode="&#x157;" horiz-adv-x="396" 
d="M41 499h166v-45q19 31 41.5 45t52.5 14q45 0 71.5 -26.5t26.5 -70.5q0 -28 -12 -50t-34 -34.5t-50 -12.5q-26 0 -47 12.5t-31 32.5q-11 -5 -14 -14t-3 -35v-315h-167v499zM37 -53h170l-49 -148h-157z" />
    <glyph glyph-name="Rcaron" unicode="&#x158;" horiz-adv-x="641" 
d="M258 282h-27v-282h-181v706h313q168 0 218 -109q19 -44 19 -103q0 -29 -5 -56t-14 -48q-34 -84 -132 -102l205 -288h-205zM231 402h79q38 0 62 10t34 31q9 18 9 45q0 26 -9 44q-10 21 -34 30t-62 9h-79v-169zM403 753h-192l-108 145h150l55 -73l54 73h150z" />
    <glyph glyph-name="rcaron" unicode="&#x159;" horiz-adv-x="396" 
d="M41 499h166v-45q19 31 41.5 45t52.5 14q45 0 71.5 -26.5t26.5 -70.5q0 -28 -12 -50t-34 -34.5t-50 -12.5q-26 0 -47 12.5t-31 32.5q-11 -5 -14 -14t-3 -35v-315h-167v499zM315 551h-193l-102 160h146l53 -87l53 87h145z" />
    <glyph glyph-name="Sacute" unicode="&#x15a;" horiz-adv-x="634" 
d="M137 17.5q-70 36.5 -99 99.5q-19 42 -19 99h199q0 -33 9 -51q21 -49 94 -49q33 0 56 11t33 31q6 13 6 32q0 18 -6 31q-8 19 -28 32t-46 21.5t-67 19.5q-9 2 -49 14q-62 18 -105.5 46.5t-63.5 72.5q-16 35 -16 81q0 44 18 87q27 61 95.5 95.5t164.5 34.5q93 0 159 -33
t94 -95q10 -23 14.5 -45.5t4.5 -51.5h-188q0 17 -2 29t-7 23q-19 42 -82 42q-31 0 -52 -10t-29 -28q-5 -11 -5 -26q0 -16 5 -27q7 -16 24.5 -27t41.5 -18.5t63 -17.5q37 -10 47 -13q77 -21 126.5 -49t70.5 -77q17 -39 17 -89q0 -52 -19 -96q-30 -65 -103.5 -100t-178.5 -35
q-107 0 -177 36.5zM305 898h172l-115 -145h-156z" />
    <glyph glyph-name="sacute" unicode="&#x15b;" horiz-adv-x="499" 
d="M112 7.5q-55 25.5 -77 75.5q-16 35 -16 81h164q0 -25 7 -39q7 -16 21.5 -24t37.5 -8q20 0 33.5 6t18.5 18q4 8 4 19t-4 18q-6 13 -20 21t-37 15t-49 13q-54 14 -91.5 35t-55.5 60q-11 27 -11 57q0 36 13 65q20 46 73 70t126 24t124.5 -23t72.5 -69q14 -31 14 -70h-158
q0 21 -6 34q-13 27 -50 27q-17 0 -28.5 -5.5t-16.5 -15.5q-3 -7 -3 -16q0 -10 3 -16q6 -13 22 -21.5t39.5 -15.5t47.5 -13q61 -16 100.5 -38t57.5 -61q11 -23 11 -59q0 -40 -13 -69q-23 -51 -81 -76t-138 -25t-135 25.5zM250 710h164l-109 -159h-148z" />
    <glyph glyph-name="Scircumflex" unicode="&#x15c;" horiz-adv-x="634" 
d="M137 17.5q-70 36.5 -99 99.5q-19 42 -19 99h199q0 -33 9 -51q21 -49 94 -49q33 0 56 11t33 31q6 13 6 32q0 18 -6 31q-8 19 -28 32t-46 21.5t-67 19.5q-9 2 -49 14q-62 18 -105.5 46.5t-63.5 72.5q-16 35 -16 81q0 44 18 87q27 61 95.5 95.5t164.5 34.5q93 0 159 -33
t94 -95q10 -23 14.5 -45.5t4.5 -51.5h-188q0 17 -2 29t-7 23q-19 42 -82 42q-31 0 -52 -10t-29 -28q-5 -11 -5 -26q0 -16 5 -27q7 -16 24.5 -27t41.5 -18.5t63 -17.5q37 -10 47 -13q77 -21 126.5 -49t70.5 -77q17 -39 17 -89q0 -52 -19 -96q-30 -65 -103.5 -100t-178.5 -35
q-107 0 -177 36.5zM215 898h193l108 -145h-150l-55 72l-55 -72h-149z" />
    <glyph glyph-name="scircumflex" unicode="&#x15d;" horiz-adv-x="499" 
d="M112 7.5q-55 25.5 -77 75.5q-16 35 -16 81h164q0 -25 7 -39q7 -16 21.5 -24t37.5 -8q20 0 33.5 6t18.5 18q4 8 4 19t-4 18q-6 13 -20 21t-37 15t-49 13q-54 14 -91.5 35t-55.5 60q-11 27 -11 57q0 36 13 65q20 46 73 70t126 24t124.5 -23t72.5 -69q14 -31 14 -70h-158
q0 21 -6 34q-13 27 -50 27q-17 0 -28.5 -5.5t-16.5 -15.5q-3 -7 -3 -16q0 -10 3 -16q6 -13 22 -21.5t39.5 -15.5t47.5 -13q61 -16 100.5 -38t57.5 -61q11 -23 11 -59q0 -40 -13 -69q-23 -51 -81 -76t-138 -25t-135 25.5zM158 710h192l102 -159h-146l-52 86l-53 -86h-146z
" />
    <glyph glyph-name="Scedilla" unicode="&#x15e;" horiz-adv-x="634" 
d="M615 212q0 -52 -19 -96q-27 -59 -89 -93t-150 -40l-1 -1h5q49 0 76.5 -26t27.5 -69q0 -58 -41 -83t-117 -25q-58 0 -107 18l18 77q34 -14 75 -14q28 0 43 7.5t15 24.5q0 16 -14.5 23t-45.5 7h-62l15 64q-78 10 -130 44.5t-76 86.5q-19 42 -19 99h199q0 -33 9 -51
q21 -49 94 -49q33 0 56 11t33 31q6 13 6 32q0 18 -6 31q-8 19 -28 32t-46 21.5t-67 19.5q-9 2 -49 14q-62 18 -105.5 46.5t-63.5 72.5q-16 35 -16 81q0 44 18 87q27 61 95.5 95.5t164.5 34.5q93 0 159 -33t94 -95q10 -23 14.5 -45.5t4.5 -51.5h-188q0 17 -2 29t-7 23
q-19 42 -82 42q-31 0 -52 -10t-29 -28q-5 -11 -5 -26q0 -16 5 -27q7 -16 24.5 -27t41.5 -18.5t63 -17.5q37 -10 47 -13q77 -21 126.5 -49t70.5 -77q17 -39 17 -89z" />
    <glyph glyph-name="scedilla" unicode="&#x15f;" horiz-adv-x="499" 
d="M479 152q0 -40 -13 -69q-20 -43 -65 -67.5t-108 -31.5v-2h5q49 0 76.5 -26t27.5 -69q0 -58 -41 -82.5t-117 -24.5q-62 0 -107 18l17 77q34 -14 76 -14q28 0 42.5 7t14.5 24q0 16 -14 23.5t-45 7.5h-63l16 64q-54 8 -91.5 32.5t-54.5 63.5q-16 35 -16 81h164q0 -25 7 -39
q7 -16 21.5 -24t37.5 -8q20 0 33.5 6t18.5 18q4 8 4 19t-4 18q-6 13 -20 21t-37 15t-49 13q-54 14 -91.5 35t-55.5 60q-11 27 -11 57q0 36 13 65q20 46 73 70t126 24t124.5 -23t72.5 -69q14 -31 14 -70h-158q0 21 -6 34q-13 27 -50 27q-17 0 -28.5 -5.5t-16.5 -15.5
q-3 -7 -3 -16q0 -10 3 -16q6 -13 22 -21.5t39.5 -15.5t47.5 -13q61 -16 100.5 -38t57.5 -61q11 -23 11 -59z" />
    <glyph glyph-name="Scaron" unicode="&#x160;" horiz-adv-x="634" 
d="M137 17.5q-70 36.5 -99 99.5q-19 42 -19 99h199q0 -33 9 -51q21 -49 94 -49q33 0 56 11t33 31q6 13 6 32q0 18 -6 31q-8 19 -28 32t-46 21.5t-67 19.5q-9 2 -49 14q-62 18 -105.5 46.5t-63.5 72.5q-16 35 -16 81q0 44 18 87q27 61 95.5 95.5t164.5 34.5q93 0 159 -33
t94 -95q10 -23 14.5 -45.5t4.5 -51.5h-188q0 17 -2 29t-7 23q-19 42 -82 42q-31 0 -52 -10t-29 -28q-5 -11 -5 -26q0 -16 5 -27q7 -16 24.5 -27t41.5 -18.5t63 -17.5q37 -10 47 -13q77 -21 126.5 -49t70.5 -77q17 -39 17 -89q0 -52 -19 -96q-30 -65 -103.5 -100t-178.5 -35
q-107 0 -177 36.5zM406 753h-192l-108 145h150l55 -73l54 73h150z" />
    <glyph glyph-name="scaron" unicode="&#x161;" horiz-adv-x="499" 
d="M112 7.5q-55 25.5 -77 75.5q-16 35 -16 81h164q0 -25 7 -39q7 -16 21.5 -24t37.5 -8q20 0 33.5 6t18.5 18q4 8 4 19t-4 18q-6 13 -20 21t-37 15t-49 13q-54 14 -91.5 35t-55.5 60q-11 27 -11 57q0 36 13 65q20 46 73 70t126 24t124.5 -23t72.5 -69q14 -31 14 -70h-158
q0 21 -6 34q-13 27 -50 27q-17 0 -28.5 -5.5t-16.5 -15.5q-3 -7 -3 -16q0 -10 3 -16q6 -13 22 -21.5t39.5 -15.5t47.5 -13q61 -16 100.5 -38t57.5 -61q11 -23 11 -59q0 -40 -13 -69q-23 -51 -81 -76t-138 -25t-135 25.5zM350 551h-193l-102 160h146l53 -87l53 87h145z" />
    <glyph glyph-name="uni0162" unicode="&#x162;" horiz-adv-x="498" 
d="M295 0l-4 -17h5q49 0 76.5 -26t27.5 -69q0 -58 -41 -82.5t-117 -24.5q-61 0 -107 17l17 77q36 -13 76 -13q28 0 43 7t15 24q0 16 -14.5 23.5t-45.5 7.5h-62l18 76h-23v557h-152v149h484v-149h-151v-557h-45z" />
    <glyph glyph-name="uni0163" unicode="&#x163;" horiz-adv-x="377" 
d="M351 -40q27 -26 27 -69q0 -58 -41 -82.5t-116 -24.5q-61 0 -107 17l17 77q37 -14 76 -14q57 0 57 32q0 16 -14.5 23.5t-45.5 7.5h-62l19 77q-43 16 -62.5 54t-19.5 104v207h-67v130h67v119h167v-119h117v-130h-117v-178q0 -37 14.5 -52t46.5 -15q25 0 52 7v-129
q-33 -7 -88 -11l-2 -5h6q49 0 76 -26z" />
    <glyph glyph-name="Tcaron" unicode="&#x164;" horiz-adv-x="498" 
d="M159 557h-152v149h484v-149h-151v-557h-181v557zM345 753h-192l-108 145h150l55 -73l54 73h150z" />
    <glyph glyph-name="tcaron" unicode="&#x165;" horiz-adv-x="433" 
d="M151 8q-37 17 -54.5 54t-17.5 100v207h-67v130h67v119h167v-119h117v-130h-117v-178q0 -37 14.5 -52t46.5 -15q25 0 52 7v-129q-53 -11 -110 -11q-61 0 -98 17zM297 706h142l-43 -172h-123z" />
    <glyph glyph-name="Tbar" unicode="&#x166;" horiz-adv-x="498" 
d="M340 557v-135h111v-104h-111v-318h-181v318h-113v104h113v135h-152v149h484v-149h-151z" />
    <glyph glyph-name="tbar" unicode="&#x167;" horiz-adv-x="377" 
d="M246 369v-61h115v-97h-115v-20q0 -37 14.5 -52t46.5 -15q25 0 52 7v-129q-53 -11 -110 -11q-61 0 -98 17t-54.5 54t-17.5 100v49h-67v97h67v61h-67v130h67v119h167v-119h117v-130h-117z" />
    <glyph glyph-name="Utilde" unicode="&#x168;" horiz-adv-x="681" 
d="M168.5 10q-66.5 29 -98.5 89t-32 153v454h181v-442q0 -63 29.5 -95t90.5 -32q63 0 93 32t30 95v442h181v-454q0 -94 -32.5 -153.5t-99.5 -88.5t-172 -29q-104 0 -170.5 29zM382 755.5q-21 6.5 -42 18.5q-5 2 -21 9.5t-27.5 11t-21.5 3.5q-18 0 -27 -12.5t-11 -34.5h-91
q4 74 32 111.5t84 37.5q25 0 43 -7t47 -22q17 -10 30 -15t28 -5q18 0 27 11t14 37h94q-3 -73 -31 -111.5t-82 -38.5q-24 0 -45 6.5z" />
    <glyph glyph-name="utilde" unicode="&#x169;" horiz-adv-x="574" 
d="M533 499v-499h-167v61q-27 -37 -64.5 -56.5t-88.5 -19.5q-84 0 -130.5 50t-46.5 143v321h167v-285q0 -49 19 -71t59 -22q85 0 85 98v280h167zM276 577q-6 3 -19 11t-23 12t-19 4q-17 0 -25 -13t-10 -40h-93q3 83 29.5 123t79.5 40q23 0 43 -7.5t43 -21.5q21 -13 34 -19.5
t26 -6.5q17 0 24.5 13t9.5 40h94q-2 -84 -28 -123.5t-80 -39.5q-43 0 -86 28z" />
    <glyph glyph-name="Umacron" unicode="&#x16a;" horiz-adv-x="681" 
d="M168.5 10q-66.5 29 -98.5 89t-32 153v454h181v-442q0 -63 29.5 -95t90.5 -32q63 0 93 32t30 95v442h181v-454q0 -94 -32.5 -153.5t-99.5 -88.5t-172 -29q-104 0 -170.5 29zM178 879h327v-106h-327v106z" />
    <glyph glyph-name="umacron" unicode="&#x16b;" horiz-adv-x="574" 
d="M533 499v-499h-167v61q-27 -37 -64.5 -56.5t-88.5 -19.5q-84 0 -130.5 50t-46.5 143v321h167v-285q0 -49 19 -71t59 -22q85 0 85 98v280h167zM119 682h319v-106h-319v106z" />
    <glyph glyph-name="Ubreve" unicode="&#x16c;" horiz-adv-x="681" 
d="M168.5 10q-66.5 29 -98.5 89t-32 153v454h181v-442q0 -63 29.5 -95t90.5 -32q63 0 93 32t30 95v442h181v-454q0 -94 -32.5 -153.5t-99.5 -88.5t-172 -29q-104 0 -170.5 29zM208.5 785.5q-47.5 38.5 -52.5 112.5h115q4 -32 21.5 -46.5t49.5 -14.5q33 0 49.5 14t24.5 47
h110q-5 -74 -51 -112.5t-133 -38.5q-86 0 -133.5 38.5z" />
    <glyph glyph-name="ubreve" unicode="&#x16d;" horiz-adv-x="574" 
d="M533 499v-499h-167v61q-27 -37 -64.5 -56.5t-88.5 -19.5q-84 0 -130.5 50t-46.5 143v321h167v-285q0 -49 19 -71t59 -22q85 0 85 98v280h167zM141.5 585.5q-47.5 42.5 -52.5 124.5h117q4 -40 21.5 -57.5t51.5 -17.5t51 17.5t22 57.5h115q-4 -82 -51 -124.5t-137 -42.5
t-137.5 42.5z" />
    <glyph glyph-name="Uring" unicode="&#x16e;" horiz-adv-x="681" 
d="M168.5 10q-66.5 29 -98.5 89t-32 153v454h181v-442q0 -63 29.5 -95t90.5 -32q63 0 93 32t30 95v442h181v-454q0 -94 -32.5 -153.5t-99.5 -88.5t-172 -29q-104 0 -170.5 29zM267.5 743q-31.5 16 -49 45t-17.5 66q0 38 17.5 66.5t49 44t72.5 15.5q42 0 74 -16t49.5 -44.5
t17.5 -65.5t-17.5 -66t-50 -45t-73.5 -16t-72.5 16zM377 819q14 13 14 35t-13.5 35.5t-37.5 13.5q-22 0 -35.5 -13.5t-13.5 -35.5t13.5 -35t35.5 -13q23 0 37 13z" />
    <glyph glyph-name="uring" unicode="&#x16f;" horiz-adv-x="574" 
d="M533 499v-499h-167v61q-27 -37 -64.5 -56.5t-88.5 -19.5q-84 0 -130.5 50t-46.5 143v321h167v-285q0 -49 19 -71t59 -22q85 0 85 98v280h167zM204.5 555q-31.5 16 -49 45t-17.5 66q0 38 17.5 66.5t49 44t72.5 15.5q42 0 74 -16t49.5 -44.5t17.5 -65.5t-17.5 -66t-50 -45
t-73.5 -16t-72.5 16zM314 631q14 13 14 35t-13.5 35.5t-37.5 13.5q-22 0 -35.5 -13.5t-13.5 -35.5t13.5 -35t35.5 -13q23 0 37 13z" />
    <glyph glyph-name="Uhungarumlaut" unicode="&#x170;" horiz-adv-x="681" 
d="M168.5 10q-66.5 29 -98.5 89t-32 153v454h181v-442q0 -63 29.5 -95t90.5 -32q63 0 93 32t30 95v442h181v-454q0 -94 -32.5 -153.5t-99.5 -88.5t-172 -29q-104 0 -170.5 29zM271 898h141l-122 -145h-117zM461 898h140l-121 -145h-117z" />
    <glyph glyph-name="uhungarumlaut" unicode="&#x171;" horiz-adv-x="574" 
d="M533 499v-499h-167v61q-27 -37 -64.5 -56.5t-88.5 -19.5q-84 0 -130.5 50t-46.5 143v321h167v-285q0 -49 19 -71t59 -22q85 0 85 98v280h167zM207 710h140l-121 -159h-116zM396 710h140l-121 -159h-116z" />
    <glyph glyph-name="Uogonek" unicode="&#x172;" horiz-adv-x="681" 
d="M643 706v-454q0 -64 -14 -109t-40 -76t-66 -57q-39 -26 -58 -47.5t-19 -46.5q0 -18 10.5 -28t28.5 -10q19 0 40 8v-89q-41 -13 -82 -13q-59 0 -94 26.5t-35 75.5q0 55 50 95h-25q-104 0 -170.5 29t-98.5 89t-32 153v454h181v-442q0 -63 29.5 -95t90.5 -32q63 0 93 32
t30 95v442h181z" />
    <glyph glyph-name="uogonek" unicode="&#x173;" horiz-adv-x="574" 
d="M534 -114v-88q-37 -14 -82 -14q-58 0 -93 25t-35 72q0 39 25 68t69 51h-52v61q-27 -37 -64.5 -56.5t-88.5 -19.5q-84 0 -130.5 50t-46.5 143v321h167v-285q0 -49 19 -71t59 -22q85 0 85 98v280h167v-499q-38 -24 -58 -44.5t-20 -43.5q0 -16 11 -24.5t28 -8.5q22 0 40 7z
" />
    <glyph glyph-name="Wcircumflex" unicode="&#x174;" horiz-adv-x="983" 
d="M987 706l-195 -706h-188l-112 465l-112 -465h-185l-199 706h181l114 -449l107 449h190l106 -448l113 448h180zM397 898h193l108 -145h-150l-55 72l-55 -72h-149z" />
    <glyph glyph-name="wcircumflex" unicode="&#x175;" horiz-adv-x="854" 
d="M859 500l-180 -500h-168l-84 288l-84 -288h-170l-177 500h177l83 -294l91 294h157l92 -292l84 292h179zM330 710h192l102 -159h-146l-52 86l-53 -86h-146z" />
    <glyph glyph-name="Ycircumflex" unicode="&#x176;" horiz-adv-x="632" 
d="M226 304l-230 402h196l124 -231l124 231h196l-229 -402v-304h-181v304zM223 898h193l108 -145h-150l-55 72l-55 -72h-149z" />
    <glyph glyph-name="ycircumflex" unicode="&#x177;" horiz-adv-x="553" 
d="M557 499l-201 -499l-81 -202h-167l82 204l-194 497h180l103 -319l103 319h175zM183 710h192l102 -159h-146l-52 86l-53 -86h-146z" />
    <glyph glyph-name="Ydieresis" unicode="&#x178;" horiz-adv-x="632" 
d="M226 304l-230 402h196l124 -231l124 231h196l-229 -402v-304h-181v304zM161 761.5q-19 10.5 -29.5 28t-10.5 39.5q0 23 10.5 41t29.5 28t42 10t42 -10t30 -28t11 -41q0 -22 -11 -39.5t-30 -28t-42 -10.5t-42 10.5zM391 761.5q-19 10.5 -29.5 28t-10.5 39.5q0 23 10.5 41
t29.5 28t42 10t42 -10t30 -28t11 -41q0 -22 -11 -39.5t-30 -28t-42 -10.5t-42 10.5z" />
    <glyph glyph-name="Zacute" unicode="&#x179;" horiz-adv-x="610" 
d="M304 557h-282v149h563l-296 -557h308v-149h-592zM298 898h172l-115 -145h-156z" />
    <glyph glyph-name="zacute" unicode="&#x17a;" horiz-adv-x="490" 
d="M262 131h216v-131h-478l236 369h-213v130h464zM248 710h164l-109 -159h-148z" />
    <glyph glyph-name="Zdotaccent" unicode="&#x17b;" horiz-adv-x="610" 
d="M304 557h-282v149h563l-296 -557h308v-149h-592zM253 762q-20 11 -31.5 30.5t-11.5 43.5t11.5 43t31.5 29.5t46 10.5q25 0 45 -10.5t31.5 -29.5t11.5 -43t-11.5 -43.5t-31.5 -30.5t-45 -11q-26 0 -46 11z" />
    <glyph glyph-name="zdotaccent" unicode="&#x17c;" horiz-adv-x="490" 
d="M262 131h216v-131h-478l236 369h-213v130h464zM204.5 562q-20.5 11 -32 30t-11.5 43t11.5 43.5t32 30.5t45.5 11t45.5 -11t32 -30.5t11.5 -43.5t-11.5 -43t-32 -30t-45.5 -11t-45.5 11z" />
    <glyph glyph-name="Zcaron" unicode="&#x17d;" horiz-adv-x="610" 
d="M304 557h-282v149h563l-296 -557h308v-149h-592zM394 753h-192l-108 145h150l55 -73l54 73h150z" />
    <glyph glyph-name="zcaron" unicode="&#x17e;" horiz-adv-x="490" 
d="M262 131h216v-131h-478l236 369h-213v130h464zM347 551h-193l-102 160h146l53 -87l53 87h145z" />
    <glyph glyph-name="Schwa" unicode="&#x18f;" horiz-adv-x="746" 
d="M718 353q0 -107 -34 -186q-41 -89 -123 -137.5t-199 -48.5q-109 0 -183.5 43t-113.5 129q-37 81 -37 189v46h496q-1 33 -5.5 57t-14.5 44q-37 81 -140 81q-34 0 -60.5 -8.5t-44.5 -25.5q-31 -26 -37 -76h-188q4 55 27.5 102.5t60.5 81.5q43 40 104.5 60.5t135.5 20.5
q116 0 198 -48t123 -138q35 -81 35 -186zM504 218q10 24 14 44h-308q1 -31 12 -55q16 -35 50.5 -53t84.5 -18q110 0 147 82z" />
    <glyph glyph-name="florin" unicode="&#x192;" horiz-adv-x="416" 
d="M11 0v132q24 -7 47 -7q33 0 50 16.5t17 47.5v168h-111v84h111v103q0 63 20.5 102.5t64.5 58.5t115 19q40 0 80 -9v-132q-25 7 -50 7q-33 0 -48 -17t-15 -51v-81h111v-84h-111v-186q0 -63 -21 -102.5t-65 -58t-115 -18.5q-46 0 -80 8z" />
    <glyph glyph-name="Aringacute" unicode="&#x1fa;" horiz-adv-x="726" 
d="M501 133h-276l-41 -133h-188l232 706h270l232 -706h-188zM459 269l-95 306h-2l-95 -306h192zM289.5 743q-31.5 16 -49 45t-17.5 66q0 38 17.5 66.5t49 44t72.5 15.5q42 0 74 -16t49.5 -44.5t17.5 -65.5t-17.5 -66t-50 -45t-73.5 -16t-72.5 16zM399 819q14 13 14 35
t-13.5 35.5t-37.5 13.5q-22 0 -35.5 -13.5t-13.5 -35.5t13.5 -35t35.5 -13q23 0 37 13zM362 1171h172l-115 -145h-156z" />
    <glyph glyph-name="aringacute" unicode="&#x1fb;" horiz-adv-x="563" 
d="M526 287v-287h-167v59q-26 -36 -66 -54.5t-99 -18.5q-60 0 -102.5 21.5t-60.5 62.5q-14 28 -14 71q0 40 12 68q25 55 89 75.5t166 20.5h75v8q0 22 -1.5 33t-6.5 21q-15 33 -69 33q-29 0 -46 -7.5t-25 -24.5q-3 -7 -4 -14t-2 -16h-170q1 40 15 70q24 53 83.5 79.5
t146.5 26.5q91 0 145.5 -25t79.5 -79q21 -49 21 -123zM350 150q5 10 7 22t2 33v7h-64q-41 0 -65.5 -6.5t-32.5 -24.5q-5 -10 -5 -22q0 -14 5 -24q14 -30 66 -30q67 0 87 45zM211.5 555q-31.5 16 -49 45t-17.5 66q0 38 17.5 66.5t49 44t72.5 15.5q42 0 74 -16t49.5 -44.5
t17.5 -65.5t-17.5 -66t-50 -45t-73.5 -16t-72.5 16zM321 631q14 13 14 35t-13.5 35.5t-37.5 13.5q-22 0 -35.5 -13.5t-13.5 -35.5t13.5 -35t35.5 -13q23 0 37 13zM282 1002h164l-109 -159h-148z" />
    <glyph glyph-name="AEacute" unicode="&#x1fc;" horiz-adv-x="864" 
d="M561 558l18 -129h250v-142h-231l19 -139h215v-148h-379l-16 134h-205l-46 -134h-190l265 706h571v-148h-271zM420 270l-36 298h-2l-103 -298h141zM478 898h172l-115 -145h-156z" />
    <glyph glyph-name="aeacute" unicode="&#x1fd;" horiz-adv-x="886" 
d="M691 168h173q-4 -37 -18.5 -68t-38.5 -53q-34 -30 -82.5 -45.5t-104.5 -15.5q-68 0 -119.5 21.5t-84.5 63.5q-35 -42 -83.5 -63.5t-117.5 -21.5q-70 0 -117.5 21.5t-67.5 65.5q-13 29 -13 68q0 40 12 68q24 54 88.5 75t166.5 21h75v6q0 23 -1.5 34.5t-6.5 21.5
q-15 33 -69 33q-29 0 -46 -7.5t-25 -24.5q-3 -7 -4 -14t-2 -16h-170q1 40 15 70q23 53 83 79.5t147 26.5q63 0 105 -11t70 -36q59 47 153 47q86 0 144.5 -36t88.5 -100q15 -33 20.5 -73t5.5 -96h-341q3 -34 12 -57q10 -22 29.5 -33t49.5 -11q35 0 54 18q17 14 20 42z
M538 352q-5 -12 -7.5 -22.5t-3.5 -25.5h168q-1 14 -3.5 26t-6.5 22q-21 44 -74 44t-73 -44zM359 212h-64q-42 0 -66 -6t-32 -24q-5 -12 -5 -23t5 -24q14 -30 67 -30q33 0 54.5 10.5t30.5 31.5q5 12 7.5 24.5t2.5 33.5v7zM453 710h164l-109 -159h-148z" />
    <glyph glyph-name="Oslashacute" unicode="&#x1fe;" horiz-adv-x="764" 
d="M699 543q36 -85 36 -190q0 -108 -37 -191q-39 -87 -120 -134t-196 -47q-73 0 -132.5 19t-103.5 56l-55 -56h-112l114 116q-11 16 -18 31q-23 41 -35 93.5t-12 112.5q0 105 36 188q39 88 121 136t197 48q73 0 132.5 -19.5t104.5 -56.5l54 57h114l-114 -116q17 -26 26 -47z
M225.5 426.5q-4.5 -29.5 -4.5 -73.5q0 -64 11 -101l260 273q-40 40 -110 40q-103 0 -141 -84q-11 -25 -15.5 -54.5zM538 281q5 30 5 72q0 61 -10 100l-260 -273q41 -39 109 -39q53 0 87.5 22t52.5 63q11 25 16 55zM381 898h172l-115 -145h-156z" />
    <glyph glyph-name="oslashacute" unicode="&#x1ff;" horiz-adv-x="586" 
d="M542 374q25 -53 25 -124q0 -72 -25 -125q-30 -66 -94 -102.5t-155 -36.5q-95 0 -163 41l-27 -27h-96l70 72q-20 23 -34 54q-24 54 -24 124q0 69 24 123q30 67 94.5 104t155.5 37q48 0 89.5 -11t74.5 -31l25 27h96l-68 -73q21 -26 32 -52zM197 250q0 -34 4 -54l153 165
q-23 17 -61 17q-62 0 -84 -47q-12 -28 -12 -81zM386.5 202.5q2.5 19.5 2.5 47.5t-3 49l-153 -161q23 -17 60 -17q62 0 84 47q7 15 9.5 34.5zM291 710h164l-109 -159h-148z" />
    <glyph glyph-name="Scommaaccent" unicode="&#x218;" horiz-adv-x="634" 
d="M137 17.5q-70 36.5 -99 99.5q-19 42 -19 99h199q0 -33 9 -51q21 -49 94 -49q33 0 56 11t33 31q6 13 6 32q0 18 -6 31q-8 19 -28 32t-46 21.5t-67 19.5q-9 2 -49 14q-62 18 -105.5 46.5t-63.5 72.5q-16 35 -16 81q0 44 18 87q27 61 95.5 95.5t164.5 34.5q93 0 159 -33
t94 -95q10 -23 14.5 -45.5t4.5 -51.5h-188q0 17 -2 29t-7 23q-19 42 -82 42q-31 0 -52 -10t-29 -28q-5 -11 -5 -26q0 -16 5 -27q7 -16 24.5 -27t41.5 -18.5t63 -17.5q37 -10 47 -13q77 -21 126.5 -49t70.5 -77q17 -39 17 -89q0 -52 -19 -96q-30 -65 -103.5 -100t-178.5 -35
q-107 0 -177 36.5zM239 -54h170l-49 -148h-157z" />
    <glyph glyph-name="scommaaccent" unicode="&#x219;" horiz-adv-x="499" 
d="M112 7.5q-55 25.5 -77 75.5q-16 35 -16 81h164q0 -25 7 -39q7 -16 21.5 -24t37.5 -8q20 0 33.5 6t18.5 18q4 8 4 19t-4 18q-6 13 -20 21t-37 15t-49 13q-54 14 -91.5 35t-55.5 60q-11 27 -11 57q0 36 13 65q20 46 73 70t126 24t124.5 -23t72.5 -69q14 -31 14 -70h-158
q0 21 -6 34q-13 27 -50 27q-17 0 -28.5 -5.5t-16.5 -15.5q-3 -7 -3 -16q0 -10 3 -16q6 -13 22 -21.5t39.5 -15.5t47.5 -13q61 -16 100.5 -38t57.5 -61q11 -23 11 -59q0 -40 -13 -69q-23 -51 -81 -76t-138 -25t-135 25.5zM169 -54h170l-49 -148h-157z" />
    <glyph glyph-name="uni021A" unicode="&#x21a;" horiz-adv-x="498" 
d="M159 557h-152v149h484v-149h-151v-557h-181v557zM167 -53h170l-49 -148h-157z" />
    <glyph glyph-name="uni021B" unicode="&#x21b;" horiz-adv-x="377" 
d="M151 8q-37 17 -54.5 54t-17.5 100v207h-67v130h67v119h167v-119h117v-130h-117v-178q0 -37 14.5 -52t46.5 -15q25 0 52 7v-129q-53 -11 -110 -11q-61 0 -98 17zM145 -50h170l-49 -148h-157z" />
    <glyph glyph-name="dotlessj" unicode="&#x237;" horiz-adv-x="257" 
d="M-33 -203v142q19 -3 33 -3q26 0 38 12.5t12 38.5v512h166v-529q0 -62 -18.5 -101t-57.5 -57.5t-102 -18.5q-42 0 -71 4z" />
    <glyph glyph-name="schwa" unicode="&#x259;" horiz-adv-x="577" 
d="M558 248q0 -39 -6 -68.5t-18 -56.5q-29 -66 -92 -102t-151 -36q-89 0 -152.5 37t-93.5 103q-16 35 -21 71t-5 94h370q-3 36 -12 53q-20 48 -94 48q-49 0 -70 -21q-18 -15 -21 -39h-170q7 70 58 118q36 32 87.5 48t112.5 16q92 0 158 -35.5t96 -102.5q24 -52 24 -127z
M343.5 115.5q22.5 12.5 33.5 36.5q4 10 7 20.5t4 22.5h-199q1 -14 3 -23.5t7 -19.5q23 -49 89 -49q33 0 55.5 12.5z" />
    <glyph glyph-name="circumflex" unicode="&#x2c6;" horiz-adv-x="497" 
d="M153 710h192l102 -159h-146l-52 86l-53 -86h-146z" />
    <glyph glyph-name="caron" unicode="&#x2c7;" horiz-adv-x="497" 
d="M345 551h-193l-102 160h146l53 -87l53 87h145z" />
    <glyph glyph-name="uni02C9" unicode="&#x2c9;" horiz-adv-x="419" 
d="M50 682h319v-106h-319v106z" />
    <glyph glyph-name="breve" unicode="&#x2d8;" horiz-adv-x="478" 
d="M102.5 585.5q-47.5 42.5 -52.5 124.5h117q4 -40 21.5 -57.5t51.5 -17.5t51 17.5t22 57.5h115q-4 -82 -51 -124.5t-137 -42.5t-137.5 42.5z" />
    <glyph glyph-name="dotaccent" unicode="&#x2d9;" horiz-adv-x="278" 
d="M93.5 562q-20.5 11 -32 30t-11.5 43t11.5 43.5t32 30.5t45.5 11t45.5 -11t32 -30.5t11.5 -43.5t-11.5 -43t-32 -30t-45.5 -11t-45.5 11z" />
    <glyph glyph-name="ring" unicode="&#x2da;" horiz-adv-x="380" 
d="M116.5 555q-31.5 16 -49 45t-17.5 66q0 38 17.5 66.5t49 44t72.5 15.5q42 0 74 -16t49.5 -44.5t17.5 -65.5t-17.5 -66t-50 -45t-73.5 -16t-72.5 16zM226 631q14 13 14 35t-13.5 35.5t-37.5 13.5q-22 0 -35.5 -13.5t-13.5 -35.5t13.5 -35t35.5 -13q23 0 37 13z" />
    <glyph glyph-name="ogonek" unicode="&#x2db;" horiz-adv-x="312" 
d="M85 -191q-35 25 -35 72q0 40 26.5 69.5t72.5 51.5l110 -2q-38 -24 -58 -44.5t-20 -43.5q0 -16 11 -24.5t29 -8.5q22 0 39 7v-88q-37 -14 -82 -14q-58 0 -93 25z" />
    <glyph glyph-name="tilde" unicode="&#x2dc;" horiz-adv-x="483" 
d="M239 577q-6 3 -19 11t-23 12t-19 4q-17 0 -25 -13t-10 -40h-93q3 83 29.5 123t79.5 40q23 0 43 -7.5t43 -21.5q21 -13 34 -19.5t26 -6.5q17 0 24.5 13t9.5 40h94q-2 -84 -28 -123.5t-80 -39.5q-43 0 -86 28z" />
    <glyph glyph-name="hungarumlaut" unicode="&#x2dd;" horiz-adv-x="526" 
d="M147 710h140l-121 -159h-116zM336 710h140l-121 -159h-116z" />
    <glyph glyph-name="gravecomb" unicode="&#x300;" 
d="M-198 551l-109 159h164l93 -159h-148z" />
    <glyph glyph-name="acutecomb" unicode="&#x301;" 
d="M-214 710h164l-109 -159h-148z" />
    <glyph glyph-name="circumflexcomb" unicode="&#x302;" 
d="M-344 710h192l102 -159h-146l-52 86l-53 -86h-146z" />
    <glyph glyph-name="tildecomb" unicode="&#x303;" 
d="M-244 577q-6 3 -19 11t-23 12t-19 4q-17 0 -25 -13t-10 -40h-93q3 83 29.5 123t79.5 40q23 0 43 -7.5t43 -21.5q21 -13 34 -19.5t26 -6.5q17 0 24.5 13t9.5 40h94q-2 -84 -28 -123.5t-80 -39.5q-43 0 -86 28z" />
    <glyph glyph-name="macroncomb" unicode="&#x304;" 
d="M-369 682h319v-106h-319v106z" />
    <glyph glyph-name="brevecomb" unicode="&#x306;" 
d="M-375.5 585.5q-47.5 42.5 -52.5 124.5h117q4 -40 21.5 -57.5t51.5 -17.5t51 17.5t22 57.5h115q-4 -82 -51 -124.5t-137 -42.5t-137.5 42.5z" />
    <glyph glyph-name="dotaccentcomb" unicode="&#x307;" 
d="M-184.5 562q-20.5 11 -32 30t-11.5 43t11.5 43.5t32 30.5t45.5 11t45.5 -11t32 -30.5t11.5 -43.5t-11.5 -43t-32 -30t-45.5 -11t-45.5 11z" />
    <glyph glyph-name="dieresiscomb" unicode="&#x308;" 
d="M-395 561.5q-19 10.5 -30 28.5t-11 41t11 41.5t30 29t43 10.5t43.5 -10.5t30.5 -29t11 -41.5t-11 -41t-30.5 -28.5t-43.5 -10.5t-43 10.5zM-178 560.5q-19 10.5 -30 29t-11 41.5t11 41.5t30 29t43 10.5t43.5 -10.5t30.5 -29t11 -41.5t-11 -41.5t-30.5 -29t-43.5 -10.5
t-43 10.5z" />
    <glyph glyph-name="ringcomb" unicode="&#x30a;" 
d="M-263.5 555q-31.5 16 -49 45t-17.5 66q0 38 17.5 66.5t49 44t72.5 15.5q42 0 74 -16t49.5 -44.5t17.5 -65.5t-17.5 -66t-50 -45t-73.5 -16t-72.5 16zM-154 631q14 13 14 35t-13.5 35.5t-37.5 13.5q-22 0 -35.5 -13.5t-13.5 -35.5t13.5 -35t35.5 -13q23 0 37 13z" />
    <glyph glyph-name="hungarumlautcomb" unicode="&#x30b;" 
d="M-379 710h140l-121 -159h-116zM-190 710h140l-121 -159h-116z" />
    <glyph glyph-name="caroncomb" unicode="&#x30c;" 
d="M-152 551h-193l-102 160h146l53 -87l53 87h145z" />
    <glyph glyph-name="commaturnedabovecomb" unicode="&#x312;" 
d="M-86 558h-170l49 149h157z" />
    <glyph glyph-name="commaaccent" unicode="&#x326;" 
d="M-220 -53h170l-49 -148h-157z" />
    <glyph glyph-name="cedillacomb" unicode="&#x327;" 
d="M-77.5 -43q27.5 -26 27.5 -69q0 -58 -41 -82.5t-117 -24.5q-61 0 -107 17l17 77q36 -13 76 -13q28 0 43 7t15 24q0 16 -14.5 23.5t-45.5 7.5h-62l24 99h113l-10 -40h5q49 0 76.5 -26z" />
    <glyph glyph-name="ogonekcomb" unicode="&#x328;" 
d="M-227 -191q-35 25 -35 72q0 40 26.5 69.5t72.5 51.5l110 -2q-38 -24 -58 -44.5t-20 -43.5q0 -16 11 -24.5t29 -8.5q22 0 39 7v-88q-37 -14 -82 -14q-58 0 -93 25z" />
    <glyph glyph-name="uni0335" unicode="&#x335;" 
d="M-400 377h350v-98h-350v98z" />
    <glyph glyph-name="uni0336" unicode="&#x336;" 
d="M-354 678h354v-99h-354v99z" />
    <glyph glyph-name="uni0337" unicode="&#x337;" 
d="M0 530v-134l-142 -100v30l-141 -93v132l141 95v-27z" />
    <glyph glyph-name="uni0338" unicode="&#x338;" 
d="M-471 145l2 -5l251 270v1l82 88h96l-148 -159l-1 4l-252 -267l1 -2l-74 -75h-96z" />
    <glyph glyph-name="uni0394" unicode="&#x394;" horiz-adv-x="726" 
d="M730 0h-734l232 706h270zM500 137l-136 437h-2l-136 -437h274z" />
    <glyph glyph-name="uni03A9" unicode="&#x3a9;" horiz-adv-x="722" 
d="M536 132h140v-132h-276v281q34 6 58.5 25t36.5 47q9 18 12.5 38t3.5 46q0 25 -3.5 43.5t-10.5 34.5q-16 36 -50 55.5t-86 19.5q-51 0 -85.5 -19.5t-50.5 -55.5q-7 -16 -10.5 -34.5t-3.5 -43.5q0 -48 16 -84q13 -28 37 -47t59 -25v-281h-277v132h140v46q-92 36 -132 125
q-26 55 -26 134q0 40 6.5 72.5t19.5 60.5q34 76 113 115.5t194 39.5t194.5 -39.5t113.5 -115.5q25 -56 25 -133q0 -40 -6.5 -72.5t-19.5 -61.5q-40 -89 -132 -125v-46z" />
    <glyph glyph-name="uni03BC" unicode="&#x3bc;" horiz-adv-x="579" 
d="M538 499v-499h-165v64q-23 -38 -57 -58t-78 -20q-19 0 -41 5q10 -70 10 -135v-58h-166v701h167v-283q0 -51 18.5 -73t58.5 -22q86 0 86 99v279h167z" />
    <glyph glyph-name="pi" unicode="&#x3c0;" horiz-adv-x="728" 
d="M512 8q-37 17 -54.5 54t-17.5 100v207h-151v-369h-167v369h-79v130h643v-130h-80v-178q0 -37 15 -52t47 -15q11 0 18 1v-129q-42 -5 -76 -5q-61 0 -98 17z" />
    <glyph glyph-name="Wgrave" unicode="&#x1e80;" horiz-adv-x="983" 
d="M987 706l-195 -706h-188l-112 465l-112 -465h-185l-199 706h181l114 -449l107 449h190l106 -448l113 448h180zM437 753l-115 145h171l100 -145h-156z" />
    <glyph glyph-name="wgrave" unicode="&#x1e81;" horiz-adv-x="854" 
d="M859 500l-180 -500h-168l-84 288l-84 -288h-170l-177 500h177l83 -294l91 294h157l92 -292l84 292h179zM374 551l-109 159h164l93 -159h-148z" />
    <glyph glyph-name="Wacute" unicode="&#x1e82;" horiz-adv-x="983" 
d="M987 706l-195 -706h-188l-112 465l-112 -465h-185l-199 706h181l114 -449l107 449h190l106 -448l113 448h180zM492 898h172l-115 -145h-156z" />
    <glyph glyph-name="wacute" unicode="&#x1e83;" horiz-adv-x="854" 
d="M859 500l-180 -500h-168l-84 288l-84 -288h-170l-177 500h177l83 -294l91 294h157l92 -292l84 292h179zM423 710h164l-109 -159h-148z" />
    <glyph glyph-name="Wdieresis" unicode="&#x1e84;" horiz-adv-x="983" 
d="M987 706l-195 -706h-188l-112 465l-112 -465h-185l-199 706h181l114 -449l107 449h190l106 -448l113 448h180zM336 761.5q-19 10.5 -29.5 28t-10.5 39.5q0 23 10.5 41t29.5 28t42 10t42 -10t30 -28t11 -41q0 -22 -11 -39.5t-30 -28t-42 -10.5t-42 10.5zM566 761.5
q-19 10.5 -29.5 28t-10.5 39.5q0 23 10.5 41t29.5 28t42 10t42 -10t30 -28t11 -41q0 -22 -11 -39.5t-30 -28t-42 -10.5t-42 10.5z" />
    <glyph glyph-name="wdieresis" unicode="&#x1e85;" horiz-adv-x="854" 
d="M859 500l-180 -500h-168l-84 288l-84 -288h-170l-177 500h177l83 -294l91 294h157l92 -292l84 292h179zM273 561.5q-19 10.5 -30 28.5t-11 41t11 41.5t30 29t43 10.5t43.5 -10.5t30.5 -29t11 -41.5t-11 -41t-30.5 -28.5t-43.5 -10.5t-43 10.5zM490 560.5q-19 10.5 -30 29
t-11 41.5t11 41.5t30 29t43 10.5t43.5 -10.5t30.5 -29t11 -41.5t-11 -41.5t-30.5 -29t-43.5 -10.5t-43 10.5z" />
    <glyph glyph-name="Germandbls" unicode="&#x1e9e;" horiz-adv-x="690" 
d="M665 224q0 -56 -20 -101q-27 -62 -90.5 -94.5t-160.5 -32.5q-54 0 -100 8v147q26 -6 61 -6q92 0 113 49q8 19 8 40q0 28 -8 45q-22 48 -106 48q-23 0 -34 -1v2l90 229h-188v-557h-180v706h593v-4l-109 -280q40 -12 68 -37t43 -60q20 -46 20 -101z" />
    <glyph glyph-name="Ygrave" unicode="&#x1ef2;" horiz-adv-x="632" 
d="M226 304l-230 402h196l124 -231l124 231h196l-229 -402v-304h-181v304zM263 753l-115 145h171l100 -145h-156z" />
    <glyph glyph-name="ygrave" unicode="&#x1ef3;" horiz-adv-x="553" 
d="M557 499l-201 -499l-81 -202h-167l82 204l-194 497h180l103 -319l103 319h175zM226 551l-109 159h164l93 -159h-148z" />
    <glyph glyph-name="uni2009" unicode="&#x2009;" horiz-adv-x="72" 
 />
    <glyph glyph-name="uni2011" unicode="&#x2011;" horiz-adv-x="398" 
d="M43 364h312v-138h-312v138z" />
    <glyph glyph-name="endash" unicode="&#x2013;" horiz-adv-x="510" 
d="M43 364h424v-138h-424v138z" />
    <glyph glyph-name="emdash" unicode="&#x2014;" horiz-adv-x="1015" 
d="M43 364h929v-138h-929v138z" />
    <glyph glyph-name="quoteleft" unicode="&#x2018;" horiz-adv-x="283" 
d="M193 422h-171l113 284h126z" />
    <glyph glyph-name="quoteright" unicode="&#x2019;" horiz-adv-x="283" 
d="M90 706h171l-113 -284h-126z" />
    <glyph glyph-name="quotesinglbase" unicode="&#x201a;" horiz-adv-x="283" 
d="M90 146h171l-113 -284h-126z" />
    <glyph glyph-name="quotedblleft" unicode="&#x201c;" horiz-adv-x="500" 
d="M193 422h-171l113 284h126zM410 422h-171l113 284h126z" />
    <glyph glyph-name="quotedblright" unicode="&#x201d;" horiz-adv-x="500" 
d="M307 706h171l-113 -284h-126zM90 706h171l-113 -284h-126z" />
    <glyph glyph-name="quotedblbase" unicode="&#x201e;" horiz-adv-x="500" 
d="M307 146h171l-113 -284h-126zM90 146h171l-113 -284h-126z" />
    <glyph glyph-name="dagger" unicode="&#x2020;" horiz-adv-x="427" 
d="M414 408h-115v-408h-171v408h-115v146h115v152h171v-152h115v-146z" />
    <glyph glyph-name="daggerdbl" unicode="&#x2021;" horiz-adv-x="427" 
d="M299 426v-146h115v-146h-115v-134h-171v134h-115v146h115v146h-115v146h115v134h171v-134h115v-146h-115z" />
    <glyph glyph-name="bullet" unicode="&#x2022;" horiz-adv-x="488" 
d="M166 225.5q-35 19.5 -54 54t-19 79.5q0 46 19 79.5t53 52t80 18.5q44 0 78 -18.5t53 -52.5t19 -79t-19 -79.5t-53 -54t-78 -19.5t-79 19.5z" />
    <glyph glyph-name="ellipsis" unicode="&#x2026;" horiz-adv-x="881" 
d="M390 -7q-22 12 -34.5 33.5t-12.5 49.5q0 43 27 69t71 26q43 0 69.5 -26t26.5 -69t-26.5 -69t-69.5 -26q-29 0 -51 12zM662 -7q-22 12 -34.5 33.5t-12.5 49.5q0 43 27 69t71 26q43 0 69.5 -26t26.5 -69t-26.5 -69t-69.5 -26q-29 0 -51 12zM118 -7q-22 12 -34.5 33.5
t-12.5 49.5q0 43 27 69t71 26q43 0 69.5 -26t26.5 -69t-26.5 -69t-69.5 -26q-29 0 -51 12z" />
    <glyph glyph-name="perthousand" unicode="&#x2030;" horiz-adv-x="1028" 
d="M82 425q-35 18 -51 53q-16 36 -16 83q0 24 4 43.5t12 39.5q16 35 51 53t85 18q51 0 85 -18t50 -53q9 -20 13 -39t4 -44q0 -48 -17 -83q-16 -35 -50 -53t-85 -18q-50 0 -85 18zM534 706h118l-492 -706h-118zM191.5 502.5q9.5 5.5 13.5 14.5q4 7 5 18t1 26q0 32 -6 44
q-4 10 -13.5 15t-24.5 5q-16 0 -24.5 -4.5t-13.5 -15.5q-6 -13 -6 -44q0 -15 1 -26t5 -18q10 -20 38 -20q15 0 24.5 5.5zM442.5 10q-35.5 18 -51.5 53q-8 18 -11.5 38t-3.5 45t3.5 44.5t11.5 37.5q16 36 51.5 54t85.5 18t84.5 -18t50.5 -54q8 -19 12 -38.5t4 -43.5
q0 -25 -4 -44.5t-12 -38.5q-16 -35 -50.5 -53t-84.5 -18t-85.5 18zM776.5 10q-35.5 18 -51.5 53q-8 18 -11.5 38t-3.5 45t3.5 44.5t11.5 37.5q16 36 51.5 54t85.5 18t84.5 -18t50.5 -54q8 -19 12 -38.5t4 -43.5q0 -25 -4 -44.5t-12 -38.5q-16 -35 -50.5 -53t-84.5 -18
t-85.5 18zM551.5 86.5q9.5 5.5 14.5 15.5q3 8 4.5 17.5t1.5 26.5q0 29 -7 44q-5 10 -13.5 15t-23.5 5q-30 0 -39 -20q-6 -13 -6 -44q0 -17 1.5 -26.5t4.5 -17.5q10 -21 39 -21q14 0 23.5 5.5zM885.5 86.5q9.5 5.5 14.5 15.5q3 8 4.5 17.5t1.5 26.5q0 29 -7 44
q-5 10 -13.5 15t-23.5 5q-30 0 -39 -20q-6 -13 -6 -44q0 -17 1.5 -26.5t4.5 -17.5q10 -21 39 -21q14 0 23.5 5.5z" />
    <glyph glyph-name="guilsinglleft" unicode="&#x2039;" horiz-adv-x="339" 
d="M12 289l148 166h166l-148 -166l148 -165h-166z" />
    <glyph glyph-name="guilsinglright" unicode="&#x203a;" horiz-adv-x="339" 
d="M12 124l148 165l-148 166h167l148 -166l-148 -165h-167z" />
    <glyph glyph-name="fraction" unicode="&#x2044;" horiz-adv-x="208" 
d="M272 706h105l-440 -706h-106z" />
    <glyph glyph-name="zero.superior" unicode="&#x2070;" horiz-adv-x="430" 
d="M109.5 450q-43.5 23 -63.5 69q-11 25 -16 51.5t-5 61.5t5 61.5t16 51.5q20 46 63.5 69t105.5 23q63 0 106.5 -23t63.5 -69q11 -25 16 -52t5 -61t-5 -61t-16 -52q-20 -46 -63.5 -69t-106.5 -23q-62 0 -105.5 23zM245.5 542q11.5 6 17.5 19q4 10 5.5 23.5t1.5 47.5
t-1.5 47.5t-5.5 23.5q-12 25 -48 25q-18 0 -29.5 -6.5t-17.5 -18.5q-5 -10 -6.5 -24.5t-1.5 -46.5t1.5 -46.5t6.5 -24.5q6 -13 17 -19t30 -6t30.5 6z" />
    <glyph glyph-name="four.superior" unicode="&#x2074;" horiz-adv-x="428" 
d="M234 506h-246v2l146 318h223v-217h62v-103h-62v-68h-123v68zM234 609v177l-72 -177h72z" />
    <glyph glyph-name="five.superior" unicode="&#x2075;" horiz-adv-x="390" 
d="M92 447q-43 20 -62 61q-13 33 -13 71h123q0 -18 5 -31q13 -25 48 -25q32 0 44 22q4 10 4 20q0 12 -6 22q-12 19 -41.5 27t-81.5 8q-41 0 -78 -5l40 209h277l-16 -92h-159l-8 -44q13 2 28.5 3.5t29.5 1.5q51 0 85.5 -18t49.5 -51q12 -25 12 -58q0 -32 -12 -58
q-18 -41 -61.5 -62t-104.5 -21q-60 0 -103 20z" />
    <glyph glyph-name="six.superior" unicode="&#x2076;" horiz-adv-x="427" 
d="M406 571q0 -30 -12 -57q-19 -42 -64 -64.5t-110 -22.5q-134 0 -178 96q-19 42 -19 106t20 111q22 48 67 72.5t111 24.5q91 0 136 -45q28 -28 39 -78h-121q-5 13 -11 19q-14 14 -41 14q-22 0 -37.5 -9.5t-23.5 -27.5q-10 -23 -10 -53q17 17 44.5 25.5t62.5 8.5
q49 0 85 -17.5t51 -50.5q11 -22 11 -52zM269 563q0 9 -4 21q-10 23 -46 23q-17 0 -29.5 -6t-17.5 -17q-5 -10 -5 -22q0 -10 5 -20q10 -23 46 -23q37 0 47 22q4 9 4 22z" />
    <glyph glyph-name="seven.superior" unicode="&#x2077;" horiz-adv-x="370" 
d="M175 715h-159v111h358l-189 -388h-145z" />
    <glyph glyph-name="eight.superior" unicode="&#x2078;" horiz-adv-x="403" 
d="M382 553q0 -29 -9 -50q-17 -38 -62.5 -57t-109.5 -19q-63 0 -108.5 19t-62.5 57q-9 21 -9 50q0 26 9 45q18 39 65 50q-21 7 -35.5 19t-21.5 27q-8 18 -8 37q0 21 8 37q15 33 58.5 51t104.5 18t105 -18t58 -51q8 -16 8 -37q0 -22 -7 -37q-7 -16 -22 -27.5t-35 -18.5
q47 -11 65 -50q9 -19 9 -45zM155 722q0 -9 4 -17q9 -20 42 -20q34 0 43 20q3 6 3 17q0 9 -3 18q-5 9 -16 14t-27 5t-27 -5t-15 -15q-4 -7 -4 -17zM252 558q0 12 -3 19q-5 11 -18 17t-30 6t-29.5 -6t-17.5 -17q-3 -9 -3 -19t3 -18q5 -11 17.5 -17.5t29.5 -6.5q36 0 48 24
q3 8 3 18z" />
    <glyph glyph-name="nine.superior" unicode="&#x2079;" horiz-adv-x="427" 
d="M404 635q0 -64 -20 -111q-22 -48 -67.5 -72.5t-110.5 -24.5q-91 0 -137 45q-28 30 -39 78h122q3 -12 11 -19q14 -14 40 -14q45 0 62 37q9 21 9 52q-17 -16 -44 -24.5t-62 -8.5q-49 0 -85.5 17t-51.5 51q-10 23 -10 52q0 32 11 57q19 42 64.5 64.5t110.5 22.5
q134 0 178 -96q19 -42 19 -106zM259 702q0 12 -4 20q-5 12 -17.5 17.5t-29.5 5.5q-36 0 -46 -22q-5 -12 -5 -22q0 -11 5 -21q10 -23 46 -23q17 0 29.5 6t17.5 17q4 12 4 22z" />
    <glyph glyph-name="uni207A" unicode="&#x207a;" horiz-adv-x="349" 
d="M323 589h-104v-95h-89v95h-104v88h104v94h89v-94h104v-88z" />
    <glyph glyph-name="uni207B" unicode="&#x207b;" horiz-adv-x="349" 
d="M26 677h297v-89h-297v89z" />
    <glyph glyph-name="uni207C" unicode="&#x207c;" horiz-adv-x="346" 
d="M26 727h294v-76h-294v76zM26 616h294v-78h-294v78z" />
    <glyph glyph-name="uni207D" unicode="&#x207d;" horiz-adv-x="234" 
d="M61.5 489q-20.5 63 -20.5 143q0 81 20.5 143.5t62.5 131.5h102q-41 -67 -62.5 -132.5t-21.5 -142.5t21.5 -142t62.5 -132h-102q-42 68 -62.5 131z" />
    <glyph glyph-name="uni207E" unicode="&#x207e;" horiz-adv-x="234" 
d="M8 358q42 68 63.5 133t21.5 141q0 77 -21.5 142t-63.5 133h102q42 -69 62.5 -131.5t20.5 -143.5q0 -80 -20.5 -143t-62.5 -131h-102z" />
    <glyph glyph-name="n.superior" unicode="&#x207f;" horiz-adv-x="407" 
d="M352.5 683.5q32.5 -34.5 32.5 -98.5v-229h-131v201q0 28 -10.5 42t-35.5 14q-51 0 -51 -61v-196h-131v352h131v-36q41 46 103 46q60 0 92.5 -34.5z" />
    <glyph glyph-name="zero.inferior" unicode="&#x2080;" horiz-adv-x="430" 
d="M109.5 -108q-43.5 23 -63.5 69q-11 25 -16 51.5t-5 61.5t5 61.5t16 51.5q20 46 63.5 69t105.5 23q63 0 106.5 -23t63.5 -69q11 -25 16 -52t5 -61t-5 -61t-16 -52q-20 -46 -63.5 -69t-106.5 -23q-62 0 -105.5 23zM245.5 -16q11.5 6 17.5 19q4 10 5.5 23.5t1.5 47.5
t-1.5 47.5t-5.5 23.5q-12 25 -48 25q-18 0 -29.5 -6.5t-17.5 -18.5q-5 -10 -6.5 -24.5t-1.5 -46.5t1.5 -46.5t6.5 -24.5q6 -13 17 -19t30 -6t30.5 6z" />
    <glyph glyph-name="one.inferior" unicode="&#x2081;" horiz-adv-x="258" 
d="M79 156h-74l21 112h185v-388h-132v276z" />
    <glyph glyph-name="two.inferior" unicode="&#x2082;" horiz-adv-x="378" 
d="M0 -114l185 192q26 27 35.5 41t9.5 29q0 7 -4 15q-9 19 -38 19q-31 0 -43 -23q-5 -11 -5 -25h-126q0 36 13 65q36 81 161 81q59 0 100.5 -18.5t58.5 -56.5q11 -25 11 -55q0 -26 -10 -46.5t-31 -41.5q-23 -23 -82 -71h127v-111h-362v6z" />
    <glyph glyph-name="three.inferior" unicode="&#x2083;" horiz-adv-x="384" 
d="M363 -11q0 -25 -9 -45q-17 -38 -60.5 -57t-107.5 -19q-60 0 -101 18.5t-58 56.5q-14 32 -14 83h116q0 -23 6 -38q11 -23 46 -23q36 0 45 19q4 8 4 20q0 10 -4 18q-5 10 -18 14.5t-35 4.5h-14v75h15q40 0 49 20q3 6 3 16q0 9 -4 16q-8 17 -38 17q-32 0 -43 -21
q-2 -6 -3 -11.5t-1 -12.5h-117q0 33 11 60q17 40 60.5 60t100.5 20q55 0 96 -18.5t56 -53.5q9 -19 9 -44q0 -20 -7 -35q-15 -32 -57 -47q49 -12 65 -47q9 -19 9 -46z" />
    <glyph glyph-name="four.inferior" unicode="&#x2084;" horiz-adv-x="428" 
d="M234 -52h-246v2l146 318h223v-217h62v-103h-62v-68h-123v68zM234 51v177l-72 -177h72z" />
    <glyph glyph-name="five.inferior" unicode="&#x2085;" horiz-adv-x="390" 
d="M92 -111q-43 20 -62 61q-13 33 -13 71h123q0 -18 5 -31q13 -25 48 -25q32 0 44 22q4 10 4 20q0 12 -6 22q-12 19 -41.5 27t-81.5 8q-41 0 -78 -5l40 209h277l-16 -92h-159l-8 -44q13 2 28.5 3.5t29.5 1.5q51 0 85.5 -18t49.5 -51q12 -25 12 -58q0 -32 -12 -58
q-18 -41 -61.5 -62t-104.5 -21q-60 0 -103 20z" />
    <glyph glyph-name="six.inferior" unicode="&#x2086;" horiz-adv-x="427" 
d="M406 13q0 -30 -12 -57q-19 -42 -64 -64.5t-110 -22.5q-134 0 -178 96q-19 42 -19 106t20 111q22 48 67 72.5t111 24.5q91 0 136 -45q28 -28 39 -78h-121q-5 13 -11 19q-14 14 -41 14q-22 0 -37.5 -9.5t-23.5 -27.5q-10 -23 -10 -53q17 17 44.5 25.5t62.5 8.5
q49 0 85 -17.5t51 -50.5q11 -22 11 -52zM269 5q0 9 -4 21q-10 23 -46 23q-17 0 -29.5 -6t-17.5 -17q-5 -10 -5 -22q0 -10 5 -20q10 -23 46 -23q37 0 47 22q4 9 4 22z" />
    <glyph glyph-name="seven.inferior" unicode="&#x2087;" horiz-adv-x="370" 
d="M175 157h-159v111h358l-189 -388h-145z" />
    <glyph glyph-name="eight.inferior" unicode="&#x2088;" horiz-adv-x="403" 
d="M382 -5q0 -29 -9 -50q-17 -38 -62.5 -57t-109.5 -19q-63 0 -108.5 19t-62.5 57q-9 21 -9 50q0 26 9 45q18 39 65 50q-21 7 -35.5 19t-21.5 27q-8 18 -8 37q0 21 8 37q15 33 58.5 51t104.5 18t105 -18t58 -51q8 -16 8 -37q0 -22 -7 -37q-7 -16 -22 -27.5t-35 -18.5
q47 -11 65 -50q9 -19 9 -45zM155 164q0 -9 4 -17q9 -20 42 -20q34 0 43 20q3 6 3 17q0 9 -3 18q-5 9 -16 14t-27 5t-27 -5t-15 -15q-4 -7 -4 -17zM252 0q0 12 -3 19q-5 11 -18 17t-30 6t-29.5 -6t-17.5 -17q-3 -9 -3 -19t3 -18q5 -11 17.5 -17.5t29.5 -6.5q36 0 48 24
q3 8 3 18z" />
    <glyph glyph-name="nine.inferior" unicode="&#x2089;" horiz-adv-x="427" 
d="M404 77q0 -64 -20 -111q-22 -48 -67.5 -72.5t-110.5 -24.5q-91 0 -137 45q-28 30 -39 78h122q3 -12 11 -19q14 -14 40 -14q45 0 62 37q9 21 9 52q-17 -16 -44 -24.5t-62 -8.5q-49 0 -85.5 17t-51.5 51q-10 23 -10 52q0 32 11 57q19 42 64.5 64.5t110.5 22.5
q134 0 178 -96q19 -42 19 -106zM259 144q0 12 -4 20q-5 12 -17.5 17.5t-29.5 5.5q-36 0 -46 -22q-5 -12 -5 -22q0 -11 5 -21q10 -23 46 -23q17 0 29.5 6t17.5 17q4 12 4 22z" />
    <glyph glyph-name="uni208A" unicode="&#x208a;" horiz-adv-x="348" 
d="M323 31h-104v-95h-89v95h-104v88h104v94h89v-94h104v-88z" />
    <glyph glyph-name="uni208B" unicode="&#x208b;" horiz-adv-x="349" 
d="M26 119h297v-89h-297v89z" />
    <glyph glyph-name="uni208C" unicode="&#x208c;" horiz-adv-x="346" 
d="M26 169h294v-76h-294v76zM26 58h294v-78h-294v78z" />
    <glyph glyph-name="uni208D" unicode="&#x208d;" horiz-adv-x="234" 
d="M61.5 -69q-20.5 63 -20.5 143q0 81 20.5 143.5t62.5 131.5h102q-41 -67 -62.5 -132.5t-21.5 -142.5t21.5 -142t62.5 -132h-102q-42 68 -62.5 131z" />
    <glyph glyph-name="uni208E" unicode="&#x208e;" horiz-adv-x="234" 
d="M8 -200q42 68 63.5 133t21.5 141q0 77 -21.5 142t-63.5 133h102q42 -69 62.5 -131.5t20.5 -143.5q0 -80 -20.5 -143t-62.5 -131h-102z" />
    <glyph glyph-name="uni2099" unicode="&#x2099;" horiz-adv-x="407" 
d="M352.5 146.5q32.5 -34.5 32.5 -98.5v-229h-131v201q0 28 -10.5 42t-35.5 14q-51 0 -51 -61v-196h-131v352h131v-36q41 46 103 46q60 0 92.5 -34.5z" />
    <glyph glyph-name="Euro" unicode="&#x20ac;" horiz-adv-x="784" 
d="M759 263q-1 -59 -24 -110t-64 -87q-45 -41 -107.5 -63t-134.5 -22q-116 0 -198 47.5t-122 138.5q-21 48 -27 92h-59v77h51v17v25h-51v77h60q9 43 26 84q40 89 122 137.5t198 48.5q71 0 131.5 -21.5t105.5 -61.5q42 -38 65.5 -91t24.5 -114h-192q-3 60 -41 95
q-19 17 -43 25t-58 8q-49 0 -83 -20t-51 -59q-8 -20 -10 -31h194v-77h-204v-24v-18h204v-77h-197q4 -22 12 -40q36 -78 136 -78q68 0 104 35q17 15 27.5 37.5t11.5 49.5h193z" />
    <glyph glyph-name="uni20B9" unicode="&#x20b9;" horiz-adv-x="674" 
d="M369 245l216 -245h-212l-297 346h186q42 0 67 12t37 38q5 9 8 28h-333v82h332q-3 14 -7 22q-11 26 -35.5 38.5t-63.5 12.5h-227v127h622v-83h-158q18 -19 30 -45q14 -30 18 -72h111v-82h-111q-4 -41 -18 -73q-42 -92 -165 -106z" />
    <glyph glyph-name="uni20BA" unicode="&#x20ba;" horiz-adv-x="632" 
d="M618 312q0 -108 -31 -177q-30 -68 -94 -101.5t-167 -33.5h-228v250l-75 -33v88l75 33v48l-75 -33v88l75 33v232h179v-163l178 78v-88l-178 -78v-47l178 78v-89l-178 -78v-170h28q51 0 81.5 16.5t45.5 48.5q16 35 16 98h170z" />
    <glyph glyph-name="uni20BC" unicode="&#x20bc;" horiz-adv-x="881" 
d="M822.5 424q8.5 -42 8.5 -99v-325h-181v332q0 35 -4 59t-15 44q-15 27 -39 41t-61 14v-490h-181v490q-70 0 -99 -55q-11 -20 -15.5 -44t-4.5 -59v-332h-181v325q0 57 9.5 100.5t29.5 76.5q35 65 98.5 96t162.5 31v77h181v-77q100 0 165 -32t99 -98q19 -33 27.5 -75z" />
    <glyph glyph-name="uni2113" unicode="&#x2113;" horiz-adv-x="510" 
d="M262.5 138.5q25.5 -16.5 75.5 -16.5q53 0 105 21v-129q-32 -12 -69 -18t-74 -6q-220 0 -239 187q-16 -1 -50 -1v115q33 0 48 1v163q0 92 21.5 149t68 84t121.5 27q77 0 123.5 -24t68 -72.5t21.5 -124.5q0 -85 -26 -145t-81.5 -98.5t-146.5 -56.5q8 -39 33.5 -55.5z
M225 315q35 13 55 36t28 57.5t8 85.5q0 44 -5 67.5t-15 32t-27 8.5q-16 0 -25.5 -8t-14 -27.5t-4.5 -54.5v-197z" />
    <glyph glyph-name="uni2117" unicode="&#x2117;" horiz-adv-x="804" 
d="M193 34.5q-88 53.5 -130 146.5q-35 76 -35 172q0 95 35 171q28 62 77 107t116 69.5t147 24.5q77 0 143.5 -23.5t116.5 -68t78 -106.5q34 -77 34 -174q0 -95 -34 -172q-28 -61 -76.5 -106t-115.5 -69.5t-146 -24.5q-122 0 -210 53.5zM570 91q69 43 104 122q25 56 25 137
q0 88 -27 148q-35 77 -104 118.5t-164 41.5q-98 0 -169 -43t-106 -121q-26 -58 -26 -140t28 -141q35 -78 103.5 -121.5t167.5 -43.5t168 43zM238 584h211q55 0 91 -19.5t52 -56.5q14 -31 14 -75q0 -43 -14 -76q-16 -37 -52 -56t-91 -19h-75v-159h-136v461zM416 382
q18 0 29 5.5t16 17.5q6 11 6 28q0 18 -6 28q-10 23 -45 23h-42v-102h42z" />
    <glyph glyph-name="trademark" unicode="&#x2122;" horiz-adv-x="694" 
d="M70 619h-66v87h239v-87h-66v-223h-107v223zM266 706h123l77 -169l77 169h121v-310h-99v167l-77 -167h-46l-76 167v-167h-100v310z" />
    <glyph glyph-name="Omega" unicode="&#x2126;" horiz-adv-x="722" 
d="M536 132h140v-132h-276v281q34 6 58.5 25t36.5 47q9 18 12.5 38t3.5 46q0 25 -3.5 43.5t-10.5 34.5q-16 36 -50 55.5t-86 19.5q-51 0 -85.5 -19.5t-50.5 -55.5q-7 -16 -10.5 -34.5t-3.5 -43.5q0 -48 16 -84q13 -28 37 -47t59 -25v-281h-277v132h140v46q-92 36 -132 125
q-26 55 -26 134q0 40 6.5 72.5t19.5 60.5q34 76 113 115.5t194 39.5t194.5 -39.5t113.5 -115.5q25 -56 25 -133q0 -40 -6.5 -72.5t-19.5 -61.5q-40 -89 -132 -125v-46z" />
    <glyph glyph-name="estimated" unicode="&#x212e;" horiz-adv-x="834" 
d="M230 32.5q-87 43.5 -139.5 121.5t-52.5 176q0 96 51 174t138 122.5t190 44.5q102 0 188.5 -45t138 -124.5t51.5 -177.5h-608q-6 0 -8 -2.5t-2 -8.5v-197q47 -51 110 -78.5t130 -27.5q73 0 139 32.5t113 88.5h57q-56 -68 -138 -105t-171 -37q-100 0 -187 43.5zM648 347
q5 0 7 2.5t2 8.5v184q-44 51 -108 79.5t-132 28.5q-70 0 -133 -28.5t-107 -78.5v-185q0 -6 2 -8.5t8 -2.5h461z" />
    <glyph glyph-name="partialdiff" unicode="&#x2202;" horiz-adv-x="669" 
d="M638 366q0 -126 -40 -215q-37 -83 -109 -126.5t-178 -43.5q-94 0 -162.5 36.5t-99.5 105.5q-23 52 -23 116q0 61 21 109q26 58 83 88t136 30q64 0 112.5 -20.5t78.5 -59.5q0 83 -21 132q-34 72 -113 72q-49 0 -77 -28q-19 -19 -25 -46h-175q13 80 65 132q38 38 94 57.5
t125 19.5q101 0 169 -41t102 -118q37 -81 37 -200zM435 231q0 31 -11 54q-12 27 -38.5 42t-63.5 15q-36 0 -61.5 -14.5t-37.5 -40.5q-10 -23 -10 -55q0 -34 10 -55q12 -27 37.5 -41.5t62.5 -14.5q38 0 64 15t38 43q10 21 10 52z" />
    <glyph glyph-name="Delta" unicode="&#x2206;" horiz-adv-x="726" 
d="M730 0h-734l232 706h270zM500 137l-136 437h-2l-136 -437h274z" />
    <glyph glyph-name="product" unicode="&#x220f;" horiz-adv-x="722" 
d="M50 706h622v-908h-183v751h-256v-751h-183v908z" />
    <glyph glyph-name="summation" unicode="&#x2211;" horiz-adv-x="591" 
d="M260 278l-237 428h547v-149h-257l152 -279l-170 -330h293v-150h-576z" />
    <glyph glyph-name="minus" unicode="&#x2212;" horiz-adv-x="576" 
d="M43 358h490v-127h-490v127z" />
    <glyph glyph-name="uni2215" unicode="&#x2215;" horiz-adv-x="576" 
d="M368 706h146l-306 -706h-146z" />
    <glyph glyph-name="uni2219" unicode="&#x2219;" horiz-adv-x="576" 
d="M238.5 202.5q-25.5 13.5 -40 38.5t-14.5 57q0 33 14 58t40 38.5t59 13.5t58 -13.5t39 -38.5t14 -58q0 -32 -14 -57t-39 -38.5t-58 -13.5t-58.5 13.5z" />
    <glyph glyph-name="radical" unicode="&#x221a;" horiz-adv-x="749" 
d="M753 706l-291 -910h-189l-160 428l-103 -29v162l221 56l136 -406l206 699h180z" />
    <glyph glyph-name="infinity" unicode="&#x221e;" horiz-adv-x="823" 
d="M804 249q0 -60 -22 -107q-23 -52 -69.5 -81t-110.5 -29q-63 0 -108.5 28t-82.5 77q-37 -49 -82.5 -77t-108.5 -28q-64 0 -110.5 29.5t-69.5 80.5q-21 45 -21 107q0 63 21 108q23 52 69.5 81.5t110.5 29.5q62 0 107.5 -27.5t83.5 -77.5q37 49 82.5 77t108.5 28
q64 0 110.5 -29.5t69.5 -81.5q22 -47 22 -108zM287.5 192.5q22.5 19.5 44.5 56.5q-23 38 -45 57.5t-50 19.5q-20 0 -34 -9t-22 -25q-8 -15 -8 -43q0 -24 8 -40q7 -16 21.5 -26t34.5 -10q28 0 50.5 19.5zM650 249q0 28 -8 43q-8 16 -22.5 25t-33.5 9q-29 0 -51 -19.5
t-45 -57.5q24 -38 45.5 -57t50.5 -19q19 0 33.5 9.5t22.5 26.5q8 13 8 40z" />
    <glyph glyph-name="integral" unicode="&#x222b;" horiz-adv-x="431" 
d="M0 -202l28 140q26 -2 33 -2q25 0 38.5 12t15.5 38l51 548q9 92 55.5 135t137.5 43q39 0 72 -6l-30 -143q-11 3 -21 3q-21 0 -33 -12.5t-15 -39.5l-52 -546q-9 -93 -55 -134.5t-138 -41.5q-45 0 -87 6z" />
    <glyph glyph-name="approxequal" unicode="&#x2248;" horiz-adv-x="576" 
d="M332.5 319.5q-23.5 8.5 -52.5 23.5q-24 12 -37 16.5t-28 4.5q-20 0 -30.5 -12.5t-12.5 -38.5h-107q4 85 34.5 127.5t91.5 42.5q29 0 51.5 -7.5t53.5 -23.5q22 -12 35.5 -17t28.5 -5q20 0 30.5 12.5t12.5 37.5h108q-5 -85 -35 -127t-91 -42q-29 0 -52.5 8.5zM331 114.5
q-25 8.5 -51 23.5q-24 12 -37 16.5t-28 4.5q-20 0 -30.5 -12.5t-12.5 -39.5h-107q4 85 34.5 128t91.5 43q29 0 51.5 -7.5t53.5 -23.5q24 -13 36.5 -18t27.5 -5q20 0 30.5 13t12.5 39h108q-5 -86 -35 -128t-91 -42q-29 0 -54 8.5z" />
    <glyph glyph-name="notequal" unicode="&#x2260;" horiz-adv-x="576" 
d="M362 333l-49 -77h220v-127h-293l-65 -101h-88l65 101h-109v127h182l50 77h-232v127h305l65 100h87l-64 -100h97v-127h-171z" />
    <glyph glyph-name="lessequal" unicode="&#x2264;" horiz-adv-x="576" 
d="M529 429l-393 -61l393 -60v-129l-490 92v194l490 93v-129zM39 158h490v-127h-490v127z" />
    <glyph glyph-name="greaterequal" unicode="&#x2265;" horiz-adv-x="576" 
d="M533 465v-194l-490 -92v129l393 60l-393 61v129zM43 158h490v-127h-490v127z" />
    <glyph glyph-name="lozenge" unicode="&#x25ca;" horiz-adv-x="594" 
d="M16 253l187 453h188l187 -453l-187 -455h-188zM407 253l-110 290l-110 -290l110 -293z" />
    <glyph glyph-name="ff" unicode="&#xfb00;" horiz-adv-x="735" 
d="M73 369h-61v130h61v45q0 63 20.5 102.5t65 58.5t115.5 19q20 0 41.5 -2.5t38.5 -6.5v-132q-19 8 -49 8q-32 0 -48.5 -16t-16.5 -47v-29h111v-130h-111v-369h-167v369zM443 369h-61v130h61v45q0 63 20.5 102.5t65 58.5t115.5 19q20 0 41.5 -2.5t38.5 -6.5v-132
q-19 8 -49 8q-32 0 -48.5 -16t-16.5 -47v-29h111v-130h-111v-369h-167v369z" />
    <glyph glyph-name="fi" unicode="&#xfb01;" horiz-adv-x="614" 
d="M73 369h-61v130h61v45q0 63 20.5 102.5t65 58.5t115.5 19q20 0 41.5 -2.5t38.5 -6.5v-132q-19 8 -49 8q-32 0 -48.5 -16t-16.5 -47v-29h111v-130h-111v-369h-167v369zM445 561.5q-20 10.5 -31.5 29.5t-11.5 43t11.5 43t31.5 29.5t45 10.5t45 -10.5t31.5 -29.5t11.5 -43
t-11.5 -43t-31.5 -29.5t-45 -10.5t-45 10.5zM406 499h167v-499h-167v499z" />
    <glyph glyph-name="fl" unicode="&#xfb02;" horiz-adv-x="614" 
d="M73 369h-61v130h61v45q0 63 20.5 102.5t65 58.5t115.5 19q20 0 41.5 -2.5t38.5 -6.5v-132q-19 8 -49 8q-32 0 -48.5 -16t-16.5 -47v-29h111v-130h-111v-369h-167v369zM406 706h167v-706h-167v706z" />
    <glyph glyph-name="ffi" unicode="&#xfb03;" horiz-adv-x="984" 
d="M73 369h-61v130h61v45q0 63 20.5 102.5t65 58.5t115.5 19q20 0 41.5 -2.5t38.5 -6.5v-132q-19 8 -49 8q-32 0 -48.5 -16t-16.5 -47v-29h111v-130h-111v-369h-167v369zM443 369h-61v130h61v45q0 63 20.5 102.5t65 58.5t115.5 19q20 0 41.5 -2.5t38.5 -6.5v-132
q-19 8 -49 8q-32 0 -48.5 -16t-16.5 -47v-29h111v-130h-111v-369h-167v369zM815 561.5q-20 10.5 -31.5 29.5t-11.5 43t11.5 43t31.5 29.5t45 10.5t45 -10.5t31.5 -29.5t11.5 -43t-11.5 -43t-31.5 -29.5t-45 -10.5t-45 10.5zM776 499h167v-499h-167v499z" />
    <glyph glyph-name="ffl" unicode="&#xfb04;" horiz-adv-x="984" 
d="M73 369h-61v130h61v45q0 63 20.5 102.5t65 58.5t115.5 19q20 0 41.5 -2.5t38.5 -6.5v-132q-19 8 -49 8q-32 0 -48.5 -16t-16.5 -47v-29h111v-130h-111v-369h-167v369zM443 369h-61v130h61v45q0 63 20.5 102.5t65 58.5t115.5 19q20 0 41.5 -2.5t38.5 -6.5v-132
q-19 8 -49 8q-32 0 -48.5 -16t-16.5 -47v-29h111v-130h-111v-369h-167v369zM776 706h167v-706h-167v706z" />
    <glyph glyph-name="uniFEFF" unicode="&#xfeff;" 
 />
    <glyph glyph-name="uni00A40301" horiz-adv-x="347" 
d="M7 0v160q17 -3 36 -3q32 0 50 9t26 29.5t8 56.5v454h181v-487q0 -76 -23.5 -125t-73.5 -73.5t-131 -24.5q-41 0 -73 4zM217 898h172l-115 -145h-156z" />
    <glyph glyph-name="M.ss01" horiz-adv-x="835" 
d="M50 706h213l157 -258l152 258h213v-706h-170v492l-158 -264h-78l-158 264v-492h-171v706z" />
    <glyph glyph-name="Q.ss02" horiz-adv-x="764" 
d="M573 26l70 -123l-159 -75l-78 154q-8 -1 -24 -1q-110 0 -188.5 43t-118.5 123q-23 41 -35 93.5t-12 112.5q0 105 36 188q39 88 121 136t197 48t196.5 -47.5t120.5 -134.5q36 -85 36 -190q0 -108 -37 -191q-41 -89 -125 -136zM382 141q53 0 87.5 22t52.5 63q11 25 16 55
t5 72t-4.5 72t-15.5 56q-40 84 -141 84q-103 0 -141 -84q-11 -25 -15.5 -54.5t-4.5 -73.5q0 -42 5 -72t16 -55q38 -85 140 -85z" />
    <glyph glyph-name="R.ss03" horiz-adv-x="641" 
d="M569.5 290.5q16.5 -35.5 16.5 -88.5v-202h-181v181q0 50 -22 71.5t-76 21.5h-76v-274h-181v706h310q86 0 141 -25t79 -79q19 -43 19 -101q0 -26 -4.5 -45t-13.5 -38q-20 -48 -70 -73q42 -19 58.5 -54.5zM313 402q37 0 59.5 10.5t33.5 32.5q8 21 8 47q0 13 -2 22t-6 19
q-10 22 -33 32t-60 10h-82v-173h82z" />
    <glyph glyph-name="Racute.ss03" horiz-adv-x="641" 
d="M569.5 290.5q16.5 -35.5 16.5 -88.5v-202h-181v181q0 50 -22 71.5t-76 21.5h-76v-274h-181v706h310q86 0 141 -25t79 -79q19 -43 19 -101q0 -26 -4.5 -45t-13.5 -38q-20 -48 -70 -73q42 -19 58.5 -54.5zM313 402q37 0 59.5 10.5t33.5 32.5q8 21 8 47q0 13 -2 22t-6 19
q-10 22 -33 32t-60 10h-82v-173h82zM321 898h172l-115 -145h-156z" />
    <glyph glyph-name="Rcaron.ss03" horiz-adv-x="641" 
d="M569.5 290.5q16.5 -35.5 16.5 -88.5v-202h-181v181q0 50 -22 71.5t-76 21.5h-76v-274h-181v706h310q86 0 141 -25t79 -79q19 -43 19 -101q0 -26 -4.5 -45t-13.5 -38q-20 -48 -70 -73q42 -19 58.5 -54.5zM313 402q37 0 59.5 10.5t33.5 32.5q8 21 8 47q0 13 -2 22t-6 19
q-10 22 -33 32t-60 10h-82v-173h82zM418 753h-192l-108 145h150l55 -73l54 73h150z" />
    <glyph glyph-name="uni0156.ss03" horiz-adv-x="641" 
d="M569.5 290.5q16.5 -35.5 16.5 -88.5v-202h-181v181q0 50 -22 71.5t-76 21.5h-76v-274h-181v706h310q86 0 141 -25t79 -79q19 -43 19 -101q0 -26 -4.5 -45t-13.5 -38q-20 -48 -70 -73q42 -19 58.5 -54.5zM313 402q37 0 59.5 10.5t33.5 32.5q8 21 8 47q0 13 -2 22t-6 19
q-10 22 -33 32t-60 10h-82v-173h82zM237 -53h170l-49 -148h-157z" />
    <glyph glyph-name="Oslash.ss04" horiz-adv-x="764" 
d="M699 543q36 -85 36 -190q0 -108 -37 -191q-39 -87 -120 -134t-196 -47q-96 0 -170 34l-83 -106l-121 96l88 106q-14 21 -21 36q-23 41 -35 93.5t-12 112.5q0 105 36 188q39 88 121 136t197 48q95 0 171 -34l83 105l121 -96l-88 -105q18 -25 30 -52zM538 281q5 30 5 72
t-4.5 72t-15.5 56q-40 84 -141 84q-103 0 -141 -84q-11 -25 -15.5 -54.5t-4.5 -73.5q0 -42 5 -72t16 -55q38 -85 140 -85q53 0 87.5 22t52.5 63q11 25 16 55z" />
    <glyph glyph-name="i.loclTRK" horiz-adv-x="249" 
d="M41 499h167v-499h-167v499zM81 561.5q-20 10.5 -31.5 29.5t-11.5 43t11.5 43t31.5 29.5t45 10.5t44.5 -10.5t31 -29.5t11.5 -43t-11.5 -43t-31 -29.5t-44.5 -10.5t-45 10.5z" />
    <glyph glyph-name="uni006A0301" horiz-adv-x="257" 
d="M-33 -203v142q19 -3 33 -3q26 0 38 12.5t12 38.5v512h166v-529q0 -62 -18.5 -101t-57.5 -57.5t-102 -18.5q-42 0 -71 4zM116 710h164l-97 -159h-143z" />
    <glyph glyph-name="oslash.ss04" horiz-adv-x="586" 
d="M567 250q0 -72 -25 -125q-30 -66 -94 -102.5t-155 -36.5q-51 0 -95 12l-56 -85l-117 72l58 81q-26 27 -40 60q-24 54 -24 124q0 69 24 123q30 67 94.5 104t155.5 37q52 0 96 -12l54 83l118 -71l-58 -80q24 -27 39 -60q25 -53 25 -124zM386.5 202.5q2.5 19.5 2.5 47.5
q0 56 -12 81q-21 47 -84 47q-62 0 -84 -47q-12 -28 -12 -81q0 -52 12 -82q22 -47 84 -47t84 47q7 15 9.5 34.5z" />
    <glyph glyph-name="r.ss05" horiz-adv-x="396" 
d="M387 499v-143q-21 6 -52 6q-62 0 -94.5 -39t-32.5 -114v-209h-167v499h165v-66q20 35 52.5 54.5t76.5 19.5q26 0 52 -8z" />
    <glyph glyph-name="racute.ss05" horiz-adv-x="406" 
d="M387 499v-143q-21 6 -52 6q-62 0 -94.5 -39t-32.5 -114v-209h-167v499h165v-66q20 35 52.5 54.5t76.5 19.5q26 0 52 -8zM191 710h164l-97 -159h-143z" />
    <glyph glyph-name="rcaron.ss05" horiz-adv-x="406" 
d="M387 499v-143q-21 6 -52 6q-62 0 -94.5 -39t-32.5 -114v-209h-167v499h165v-66q20 35 52.5 54.5t76.5 19.5q26 0 52 -8zM165 710l38 -84l37 84h119l-77 -159h-158l-78 159h119z" />
    <glyph glyph-name="uni0157.ss05" horiz-adv-x="406" 
d="M387 499v-143q-21 6 -52 6q-62 0 -94.5 -39t-32.5 -114v-209h-167v499h165v-66q20 35 52.5 54.5t76.5 19.5q26 0 52 -8zM40 -53h170l-49 -148h-157z" />
    <glyph glyph-name="f_i" horiz-adv-x="614" 
d="M73 369h-61v130h61v45q0 63 20.5 102.5t65 58.5t115.5 19q20 0 41.5 -2.5t38.5 -6.5v-132q-19 8 -49 8q-32 0 -48.5 -16t-16.5 -47v-29h111v-130h-111v-369h-167v369zM445 561.5q-20 10.5 -31.5 29.5t-11.5 43t11.5 43t31.5 29.5t45 10.5t45 -10.5t31.5 -29.5t11.5 -43
t-11.5 -43t-31.5 -29.5t-45 -10.5t-45 10.5zM406 499h167v-499h-167v499z" />
    <glyph glyph-name="f_l" horiz-adv-x="614" 
d="M73 369h-61v130h61v45q0 63 20.5 102.5t65 58.5t115.5 19q20 0 41.5 -2.5t38.5 -6.5v-132q-19 8 -49 8q-32 0 -48.5 -16t-16.5 -47v-29h111v-130h-111v-369h-167v369zM406 706h167v-706h-167v706z" />
    <glyph glyph-name="zero.tf" horiz-adv-x="643" 
d="M159.5 20q-66.5 39 -99.5 117q-38 85 -38 216t38 216q33 78 99.5 117t161.5 39q96 0 162.5 -39t99.5 -117q38 -85 38 -216t-38 -216q-33 -78 -99.5 -117t-162.5 -39q-95 0 -161.5 39zM415 189q10 22 13 58.5t3 105.5t-3 105.5t-13 58.5q-25 55 -94 55q-68 0 -93 -55
q-10 -22 -13.5 -59.5t-3.5 -104.5t3.5 -104.5t13.5 -59.5q25 -55 93 -55q69 0 94 55z" />
    <glyph glyph-name="one.tf" horiz-adv-x="643" 
d="M264 548h-135l34 158h277v-706h-176v548z" />
    <glyph glyph-name="two.tf" horiz-adv-x="643" 
d="M18 3l295 345q46 53 64.5 84.5t18.5 63.5q0 21 -8 37q-9 22 -30 33t-51 11q-64 0 -86 -49q-13 -27 -13 -73h-173q0 80 25 136q30 67 94 100.5t157 33.5q91 0 156 -33t95 -98q19 -44 19 -100q0 -50 -18.5 -90.5t-59.5 -85.5q-68 -75 -165 -166h251v-152h-571v3z" />
    <glyph glyph-name="three.tf" horiz-adv-x="643" 
d="M600 198q0 -49 -18 -90q-59 -127 -262 -127q-100 0 -167 31.5t-94 95.5q-26 59 -26 154h170q-1 -54 14 -86q11 -26 35 -39.5t60 -13.5q71 0 94 50q9 21 9 48q0 22 -9 42q-23 48 -114 48h-25v116h25q84 0 106 46q7 15 7 36q0 22 -7 42q-21 43 -86 43q-69 0 -91 -47
q-8 -21 -9 -46h-168q0 57 19 98q28 63 96.5 94.5t161.5 31.5q94 0 157 -32t89 -89q16 -35 16 -80q0 -39 -13 -66q-14 -31 -39 -52.5t-65 -34.5q90 -24 119 -90q15 -36 15 -83z" />
    <glyph glyph-name="four.tf" horiz-adv-x="643" 
d="M632 143h-87v-143h-174v143h-371v2l235 561h310v-418h87v-145zM371 288v360h-2l-143 -360h145z" />
    <glyph glyph-name="five.tf" horiz-adv-x="643" 
d="M67 112q-26 60 -26 144h174q0 -52 13 -82q23 -51 90 -51q33 0 56 13.5t34 38.5q10 23 10 52q0 32 -11 56q-18 40 -67.5 57t-127.5 17q-34 0 -71 -2.5t-67 -7.5l61 359h443l-33 -149h-268l-19 -100q49 11 95 11q82 0 141 -31.5t86 -91.5q23 -51 23 -116t-23 -114
q-29 -65 -94 -99.5t-160 -34.5q-199 0 -259 131z" />
    <glyph glyph-name="six.tf" horiz-adv-x="643" 
d="M623 240q0 -64 -23 -115q-31 -69 -100 -106.5t-162 -37.5q-204 0 -275 160q-37 81 -37 204q0 129 40 218q35 79 103.5 120.5t168.5 41.5q66 0 118.5 -18.5t89.5 -55.5q53 -53 66 -135h-171q-5 26 -25 47q-28 28 -78 28q-80 0 -114 -74q-22 -48 -22 -129q29 38 77.5 59
t109.5 21q77 0 132 -30t80 -88q22 -47 22 -110zM441 233q0 32 -11 57q-12 26 -36 40t-59 14q-36 0 -61.5 -15t-37.5 -42q-11 -23 -11 -55q0 -33 11 -55q11 -27 36.5 -41.5t60.5 -14.5t60 14t37 40q11 25 11 58z" />
    <glyph glyph-name="seven.tf" horiz-adv-x="643" 
d="M367 548h-314v158h578l-315 -706h-201z" />
    <glyph glyph-name="eight.tf" horiz-adv-x="643" 
d="M617 203q0 -26 -4 -47t-13 -42q-29 -64 -100 -98.5t-178 -34.5t-178 35t-100 98q-9 21 -13 42t-4 47q0 47 17 84q17 36 47.5 61t73.5 35q-37 10 -64.5 31.5t-40.5 51.5q-14 31 -14 69t14 71q26 58 95 88.5t167 30.5q97 0 166 -30.5t96 -88.5q14 -33 14 -71t-14 -69
q-14 -30 -41 -51.5t-63 -31.5q87 -21 119 -94q18 -39 18 -86zM224 521q0 -22 7 -39q11 -24 34.5 -36.5t56.5 -12.5t56.5 12.5t34.5 36.5q7 15 7 39t-8 41q-10 22 -33 34.5t-57 12.5t-57 -12.5t-33 -34.5q-8 -17 -8 -41zM429 186.5q2 9.5 2 24.5q0 24 -9 45q-12 26 -38 40
t-62 14q-37 0 -62.5 -14t-37.5 -40q-9 -19 -9 -44q0 -15 2 -25t7 -20q12 -26 38 -39.5t62 -13.5t62 13.5t38 39.5q5 10 7 19.5z" />
    <glyph glyph-name="nine.tf" horiz-adv-x="643" 
d="M617 361q0 -131 -39 -218q-36 -79 -104.5 -120.5t-168.5 -41.5q-66 0 -118.5 18.5t-89.5 55.5q-53 53 -65 135h170q7 -28 25 -47q29 -28 78 -28q42 0 70.5 19t43.5 55q22 48 22 128q-30 -38 -77.5 -58.5t-109.5 -20.5q-77 0 -132 30t-80 88q-21 48 -21 110q0 67 22 115
q31 69 100 106.5t162 37.5q204 0 275 -160q37 -81 37 -204zM418 474q0 32 -10 55q-12 27 -37.5 41.5t-60.5 14.5t-60 -14t-36 -40q-11 -22 -11 -58q0 -34 10 -57q12 -26 36.5 -40t59.5 -14q36 0 61.5 15t37.5 42q10 24 10 55z" />
    <glyph glyph-name="zero.dnom" horiz-adv-x="430" 
d="M109.5 12q-43.5 23 -63.5 69q-11 25 -16 51.5t-5 61.5t5 61.5t16 51.5q20 46 63.5 69t105.5 23q63 0 106.5 -23t63.5 -69q11 -25 16 -52t5 -61t-5 -61t-16 -52q-20 -46 -63.5 -69t-106.5 -23q-62 0 -105.5 23zM245.5 104q11.5 6 17.5 19q4 10 5.5 23.5t1.5 47.5
t-1.5 47.5t-5.5 23.5q-12 25 -48 25q-18 0 -29.5 -6.5t-17.5 -18.5q-5 -10 -6.5 -24.5t-1.5 -46.5t1.5 -46.5t6.5 -24.5q6 -13 17 -19t30 -6t30.5 6z" />
    <glyph glyph-name="one.dnom" horiz-adv-x="258" 
d="M79 276h-74l21 112h185v-388h-132v276z" />
    <glyph glyph-name="two.dnom" horiz-adv-x="378" 
d="M0 6l185 192q26 27 35.5 41t9.5 29q0 7 -4 15q-9 19 -38 19q-31 0 -43 -23q-5 -11 -5 -25h-126q0 36 13 65q36 81 161 81q59 0 100.5 -18.5t58.5 -56.5q11 -25 11 -55q0 -26 -10 -46.5t-31 -41.5q-23 -23 -82 -71h127v-111h-362v6z" />
    <glyph glyph-name="three.dnom" horiz-adv-x="384" 
d="M363 109q0 -25 -9 -45q-17 -38 -60.5 -57t-107.5 -19q-60 0 -101 18.5t-58 56.5q-14 32 -14 83h116q0 -23 6 -38q11 -23 46 -23q36 0 45 19q4 8 4 20q0 10 -4 18q-5 10 -18 14.5t-35 4.5h-14v75h15q40 0 49 20q3 6 3 16q0 9 -4 16q-8 17 -38 17q-32 0 -43 -21
q-2 -6 -3 -11.5t-1 -12.5h-117q0 33 11 60q17 40 60.5 60t100.5 20q55 0 96 -18.5t56 -53.5q9 -19 9 -44q0 -20 -7 -35q-15 -32 -57 -47q49 -12 65 -47q9 -19 9 -46z" />
    <glyph glyph-name="four.dnom" horiz-adv-x="428" 
d="M234 68h-246v2l146 318h223v-217h62v-103h-62v-68h-123v68zM234 171v177l-72 -177h72z" />
    <glyph glyph-name="five.dnom" horiz-adv-x="390" 
d="M92 9q-43 20 -62 61q-13 33 -13 71h123q0 -18 5 -31q13 -25 48 -25q32 0 44 22q4 10 4 20q0 12 -6 22q-12 19 -41.5 27t-81.5 8q-41 0 -78 -5l40 209h277l-16 -92h-159l-8 -44q13 2 28.5 3.5t29.5 1.5q51 0 85.5 -18t49.5 -51q12 -25 12 -58q0 -32 -12 -58
q-18 -41 -61.5 -62t-104.5 -21q-60 0 -103 20z" />
    <glyph glyph-name="six.dnom" horiz-adv-x="427" 
d="M406 133q0 -30 -12 -57q-19 -42 -64 -64.5t-110 -22.5q-134 0 -178 96q-19 42 -19 106t20 111q22 48 67 72.5t111 24.5q91 0 136 -45q28 -28 39 -78h-121q-5 13 -11 19q-14 14 -41 14q-22 0 -37.5 -9.5t-23.5 -27.5q-10 -23 -10 -53q17 17 44.5 25.5t62.5 8.5
q49 0 85 -17.5t51 -50.5q11 -22 11 -52zM269 125q0 9 -4 21q-10 23 -46 23q-17 0 -29.5 -6t-17.5 -17q-5 -10 -5 -22q0 -10 5 -20q10 -23 46 -23q37 0 47 22q4 9 4 22z" />
    <glyph glyph-name="seven.dnom" horiz-adv-x="370" 
d="M175 277h-159v111h358l-189 -388h-145z" />
    <glyph glyph-name="eight.dnom" horiz-adv-x="403" 
d="M382 115q0 -29 -9 -50q-17 -38 -62.5 -57t-109.5 -19q-63 0 -108.5 19t-62.5 57q-9 21 -9 50q0 26 9 45q18 39 65 50q-21 7 -35.5 19t-21.5 27q-8 18 -8 37q0 21 8 37q15 33 58.5 51t104.5 18t105 -18t58 -51q8 -16 8 -37q0 -22 -7 -37q-7 -16 -22 -27.5t-35 -18.5
q47 -11 65 -50q9 -19 9 -45zM155 284q0 -9 4 -17q9 -20 42 -20q34 0 43 20q3 6 3 17q0 9 -3 18q-5 9 -16 14t-27 5t-27 -5t-15 -15q-4 -7 -4 -17zM252 120q0 12 -3 19q-5 11 -18 17t-30 6t-29.5 -6t-17.5 -17q-3 -9 -3 -19t3 -18q5 -11 17.5 -17.5t29.5 -6.5q36 0 48 24
q3 8 3 18z" />
    <glyph glyph-name="nine.dnom" horiz-adv-x="427" 
d="M404 197q0 -64 -20 -111q-22 -48 -67.5 -72.5t-110.5 -24.5q-91 0 -137 45q-28 30 -39 78h122q3 -12 11 -19q14 -14 40 -14q45 0 62 37q9 21 9 52q-17 -16 -44 -24.5t-62 -8.5q-49 0 -85.5 17t-51.5 51q-10 23 -10 52q0 32 11 57q19 42 64.5 64.5t110.5 22.5
q134 0 178 -96q19 -42 19 -106zM259 264q0 12 -4 20q-5 12 -17.5 17.5t-29.5 5.5q-36 0 -46 -22q-5 -12 -5 -22q0 -11 5 -21q10 -23 46 -23q17 0 29.5 6t17.5 17q4 12 4 22z" />
    <glyph glyph-name="zero.numr" horiz-adv-x="430" 
d="M109.5 330q-43.5 23 -63.5 69q-11 25 -16 51.5t-5 61.5t5 61.5t16 51.5q20 46 63.5 69t105.5 23q63 0 106.5 -23t63.5 -69q11 -25 16 -52t5 -61t-5 -61t-16 -52q-20 -46 -63.5 -69t-106.5 -23q-62 0 -105.5 23zM245.5 422q11.5 6 17.5 19q4 10 5.5 23.5t1.5 47.5
t-1.5 47.5t-5.5 23.5q-12 25 -48 25q-18 0 -29.5 -6.5t-17.5 -18.5q-5 -10 -6.5 -24.5t-1.5 -46.5t1.5 -46.5t6.5 -24.5q6 -13 17 -19t30 -6t30.5 6z" />
    <glyph glyph-name="one.numr" horiz-adv-x="258" 
d="M79 594h-74l21 112h185v-388h-132v276z" />
    <glyph glyph-name="two.numr" horiz-adv-x="378" 
d="M0 324l185 192q26 27 35.5 41t9.5 29q0 7 -4 15q-9 19 -38 19q-31 0 -43 -23q-5 -11 -5 -25h-126q0 36 13 65q36 81 161 81q59 0 100.5 -18.5t58.5 -56.5q11 -25 11 -55q0 -26 -10 -46.5t-31 -41.5q-23 -23 -82 -71h127v-111h-362v6z" />
    <glyph glyph-name="three.numr" horiz-adv-x="384" 
d="M363 427q0 -25 -9 -45q-17 -38 -60.5 -57t-107.5 -19q-60 0 -101 18.5t-58 56.5q-14 32 -14 83h116q0 -23 6 -38q11 -23 46 -23q36 0 45 19q4 8 4 20q0 10 -4 18q-5 10 -18 14.5t-35 4.5h-14v75h15q40 0 49 20q3 6 3 16q0 9 -4 16q-8 17 -38 17q-32 0 -43 -21
q-2 -6 -3 -11.5t-1 -12.5h-117q0 33 11 60q17 40 60.5 60t100.5 20q55 0 96 -18.5t56 -53.5q9 -19 9 -44q0 -20 -7 -35q-15 -32 -57 -47q49 -12 65 -47q9 -19 9 -46z" />
    <glyph glyph-name="four.numr" horiz-adv-x="428" 
d="M234 386h-246v2l146 318h223v-217h62v-103h-62v-68h-123v68zM234 489v177l-72 -177h72z" />
    <glyph glyph-name="five.numr" horiz-adv-x="390" 
d="M92 327q-43 20 -62 61q-13 33 -13 71h123q0 -18 5 -31q13 -25 48 -25q32 0 44 22q4 10 4 20q0 12 -6 22q-12 19 -41.5 27t-81.5 8q-41 0 -78 -5l40 209h277l-16 -92h-159l-8 -44q13 2 28.5 3.5t29.5 1.5q51 0 85.5 -18t49.5 -51q12 -25 12 -58q0 -32 -12 -58
q-18 -41 -61.5 -62t-104.5 -21q-60 0 -103 20z" />
    <glyph glyph-name="six.numr" horiz-adv-x="427" 
d="M406 451q0 -30 -12 -57q-19 -42 -64 -64.5t-110 -22.5q-134 0 -178 96q-19 42 -19 106t20 111q22 48 67 72.5t111 24.5q91 0 136 -45q28 -28 39 -78h-121q-5 13 -11 19q-14 14 -41 14q-22 0 -37.5 -9.5t-23.5 -27.5q-10 -23 -10 -53q17 17 44.5 25.5t62.5 8.5
q49 0 85 -17.5t51 -50.5q11 -22 11 -52zM269 443q0 9 -4 21q-10 23 -46 23q-17 0 -29.5 -6t-17.5 -17q-5 -10 -5 -22q0 -10 5 -20q10 -23 46 -23q37 0 47 22q4 9 4 22z" />
    <glyph glyph-name="seven.numr" horiz-adv-x="370" 
d="M175 595h-159v111h358l-189 -388h-145z" />
    <glyph glyph-name="eight.numr" horiz-adv-x="403" 
d="M382 433q0 -29 -9 -50q-17 -38 -62.5 -57t-109.5 -19q-63 0 -108.5 19t-62.5 57q-9 21 -9 50q0 26 9 45q18 39 65 50q-21 7 -35.5 19t-21.5 27q-8 18 -8 37q0 21 8 37q15 33 58.5 51t104.5 18t105 -18t58 -51q8 -16 8 -37q0 -22 -7 -37q-7 -16 -22 -27.5t-35 -18.5
q47 -11 65 -50q9 -19 9 -45zM155 602q0 -9 4 -17q9 -20 42 -20q34 0 43 20q3 6 3 17q0 9 -3 18q-5 9 -16 14t-27 5t-27 -5t-15 -15q-4 -7 -4 -17zM252 438q0 12 -3 19q-5 11 -18 17t-30 6t-29.5 -6t-17.5 -17q-3 -9 -3 -19t3 -18q5 -11 17.5 -17.5t29.5 -6.5q36 0 48 24
q3 8 3 18z" />
    <glyph glyph-name="nine.numr" horiz-adv-x="427" 
d="M404 515q0 -64 -20 -111q-22 -48 -67.5 -72.5t-110.5 -24.5q-91 0 -137 45q-28 30 -39 78h122q3 -12 11 -19q14 -14 40 -14q45 0 62 37q9 21 9 52q-17 -16 -44 -24.5t-62 -8.5q-49 0 -85.5 17t-51.5 51q-10 23 -10 52q0 32 11 57q19 42 64.5 64.5t110.5 22.5
q134 0 178 -96q19 -42 19 -106zM259 582q0 12 -4 20q-5 12 -17.5 17.5t-29.5 5.5q-36 0 -46 -22q-5 -12 -5 -22q0 -11 5 -21q10 -23 46 -23q17 0 29.5 6t17.5 17q4 12 4 22z" />
    <glyph glyph-name="colon.case" horiz-adv-x="337" 
d="M118 104q-22 12 -34.5 33.5t-12.5 49.5q0 43 27 69t71 26q43 0 69.5 -26t26.5 -69t-26.5 -69t-69.5 -26q-29 0 -51 12zM118 436q-22 12 -34.5 33.5t-12.5 49.5q0 43 27 69t71 26q43 0 69.5 -26t26.5 -69t-26.5 -69t-69.5 -26q-29 0 -51 12z" />
    <glyph glyph-name="semicolon.case" horiz-adv-x="342" 
d="M91 272h158l-105 -338h-120zM123 436q-22 12 -34.5 33.5t-12.5 49.5q0 43 27 69t71 26q43 0 69.5 -26t26.5 -69t-26.5 -69t-69.5 -26q-29 0 -51 12z" />
    <glyph glyph-name="exclamdown.case" horiz-adv-x="326" 
d="M213 709q22 -12 34.5 -33.5t12.5 -49.5q0 -43 -27 -69t-71 -26q-43 0 -69.5 26t-26.5 69t26.5 69t69.5 26q29 0 51 -12zM255 -4h-183l25 474h133z" />
    <glyph glyph-name="questiondown.case" horiz-adv-x="545" 
d="M332 715q22 -12 34.5 -33.5t12.5 -49.5q0 -44 -27 -70t-71 -26q-43 0 -69.5 26t-26.5 70q0 28 12 49.5t34 33.5t50 12q29 0 51 -12zM262.5 306q-30.5 -51 -43 -80.5t-12.5 -53.5q0 -30 17 -46.5t53 -16.5q26 0 42.5 8.5t24.5 26.5q4 10 5.5 20t1.5 26h163q0 -30 -3.5 -53
t-12.5 -43q-25 -55 -83 -83.5t-145 -28.5q-74 0 -128 21.5t-83 63t-29 99.5q0 32 12 64t41.5 83t100.5 162h185q-76 -118 -106.5 -169z" />
    <glyph glyph-name="periodcentered.case" horiz-adv-x="337" 
d="M118 286q-22 12 -34.5 33.5t-12.5 49.5q0 43 27 69t71 26q43 0 69.5 -26t26.5 -69t-26.5 -69t-69.5 -26q-29 0 -51 12z" />
    <glyph glyph-name="periodcentered.loclCAT.case" horiz-adv-x="83" 
d="M-82 329q-22 12 -34.5 33.5t-12.5 49.5q0 43 27 69t71 26q43 0 69.5 -26t26.5 -69t-26.5 -69t-69.5 -26q-29 0 -51 12z" />
    <glyph glyph-name="slash.case" horiz-adv-x="534" 
d="M359 756h164l-335 -806h-165z" />
    <glyph glyph-name="periodcentered.loclCAT" horiz-adv-x="207" 
d="M53 287q-22 12 -34.5 33.5t-12.5 49.5q0 43 27 69t71 26q43 0 69.5 -26t26.5 -69t-26.5 -69t-69.5 -26q-29 0 -51 12z" />
    <glyph glyph-name="parenleft.case" horiz-adv-x="370" 
d="M131.5 10.5q-30.5 74.5 -47 159t-16.5 183.5t16.5 184t47 159.5t76.5 155.5h148q-70 -119 -106 -239t-36 -260q0 -141 36 -260t106 -237h-148q-46 80 -76.5 154.5z" />
    <glyph glyph-name="parenright.case" horiz-adv-x="370" 
d="M14 -144q70 118 106 237t36 260q0 140 -36 260t-106 239h148q46 -80 76.5 -155t46.5 -159.5t16 -184.5t-16 -184t-46.5 -158.5t-76.5 -154.5h-148z" />
    <glyph glyph-name="braceleft.case" horiz-adv-x="402" 
d="M254.5 390.5q-22.5 -29.5 -70.5 -37.5q49 -8 71 -37.5t22 -88.5v-158q0 -34 7.5 -54t28 -30t58.5 -10h14v-118h-69q-57 0 -96 22t-58 62t-19 92v162q0 35 -8.5 54.5t-28.5 28t-56 8.5v135q36 0 56 8.5t28.5 28t8.5 54.5v162q0 52 19 92t58 62t96 22h69v-118h-14
q-38 0 -58.5 -10t-28 -29.5t-7.5 -54.5v-158q0 -60 -22.5 -89.5z" />
    <glyph glyph-name="braceright.case" horiz-adv-x="402" 
d="M267.5 457.5q8.5 -19.5 28.5 -28t56 -8.5v-135q-36 0 -56 -8.5t-28.5 -28t-8.5 -54.5v-162q0 -52 -19 -92t-58 -62t-96 -22h-69v118h14q38 0 58.5 10t28.5 30t8 54v158q0 60 22 89t70 37q-48 8 -70 37.5t-22 89.5v158q0 34 -8 54t-28.5 30t-58.5 10h-14v118h69
q57 0 96 -22t58 -62t19 -92v-162q0 -35 8.5 -54.5z" />
    <glyph glyph-name="bracketleft.case" horiz-adv-x="353" 
d="M85 852h251v-126h-109v-745h109v-125h-251v996z" />
    <glyph glyph-name="bracketright.case" horiz-adv-x="353" 
d="M17 -144v125h109v745h-109v126h251v-996h-251z" />
    <glyph glyph-name="hyphen.case" horiz-adv-x="398" 
d="M43 438h312v-138h-312v138z" />
    <glyph glyph-name="uni00AD.case" horiz-adv-x="398" 
d="M43 438h312v-138h-312v138z" />
    <glyph glyph-name="endash.case" horiz-adv-x="510" 
d="M43 438h424v-138h-424v138z" />
    <glyph glyph-name="emdash.case" horiz-adv-x="1015" 
d="M43 438h929v-138h-929v138z" />
    <glyph glyph-name="guillemotleft.case" horiz-adv-x="585" 
d="M12 363l148 166h166l-148 -166l148 -165h-166zM258 363l148 166h166l-148 -166l148 -165h-166z" />
    <glyph glyph-name="guillemotright.case" horiz-adv-x="585" 
d="M12 198l148 166l-148 165h167l148 -165l-148 -166h-167zM258 198l148 166l-148 165h167l148 -165l-148 -166h-167z" />
    <glyph glyph-name="guilsinglleft.case" horiz-adv-x="339" 
d="M12 363l148 166h166l-148 -166l148 -165h-166z" />
    <glyph glyph-name="guilsinglright.case" horiz-adv-x="339" 
d="M12 198l148 166l-148 165h167l148 -165l-148 -166h-167z" />
    <glyph glyph-name="cent.ss06" horiz-adv-x="572" 
d="M363.5 269q6.5 15 6.5 31h181q-5 -90 -65 -145q-25 -23 -59.5 -38.5t-75.5 -22.5v-94h-122v93q-65 11 -113 44.5t-72 87.5q-25 56 -25 128t25 128q25 54 72.5 87.5t112.5 44.5v93h122v-94q81 -12 135 -61q30 -27 46.5 -63t19.5 -79h-181q-3 33 -25 54q-19 18 -57 18
q-27 0 -47 -11t-30 -34q-7 -14 -9.5 -33t-2.5 -50q0 -30 2.5 -49t9.5 -33q10 -23 30 -34.5t47 -11.5q36 0 57 19q11 10 17.5 25z" />
    <glyph glyph-name="dollar.ss06" horiz-adv-x="638" 
d="M617 212q0 -52 -19 -96q-25 -55 -82 -88.5t-138 -43.5v-97h-128v98q-79 10 -132.5 44.5t-77.5 87.5q-19 42 -19 99h199q0 -33 9 -51q21 -49 94 -49q33 0 56 11t33 31q6 13 6 32q0 18 -6 31q-8 19 -28 32t-46 21.5t-67 19.5q-9 2 -49 14q-62 18 -105.5 46.5t-63.5 72.5
q-16 35 -16 81q0 44 18 87q23 50 73 82.5t121 42.5v99h129v-98q69 -10 118 -41.5t72 -82.5q10 -23 14.5 -45.5t4.5 -51.5h-188q0 17 -2 29t-7 23q-19 42 -82 42q-31 0 -52 -10t-29 -28q-5 -11 -5 -26q0 -16 5 -27q7 -16 24.5 -27t41.5 -18.5t63 -17.5q37 -10 47 -13
q77 -21 126.5 -49t70.5 -77q17 -39 17 -89z" />
    <glyph glyph-name="paragraph.ss07" horiz-adv-x="767" 
d="M309 255h-60q-167 0 -215 112q-11 23 -16 50.5t-5 63.5q0 69 20 113q51 112 224 112h503v-136h-70v-772h-151v772h-81v-772h-149v457zM309 389v183h-49q-36 0 -56 -9t-30 -31q-9 -19 -9 -51q0 -30 9 -50q10 -22 30.5 -32t55.5 -10h49z" />
    <glyph glyph-name="caroncomb.alt" 
d="M-127 706h142l-43 -172h-123z" />
    <glyph glyph-name="uni0335.Eth" 
d="M-381 411h381v-108h-381v108z" />
    <glyph glyph-name="uni0335.Tbar" 
d="M-455 382h405v-104h-405v104z" />
    <glyph glyph-name="caron.alt" horiz-adv-x="266" 
d="M74 706h142l-43 -172h-123z" />
    <glyph glyph-name="uni0308.case" 
d="M-405 761.5q-19 10.5 -29.5 28t-10.5 39.5q0 23 10.5 41t29.5 28t42 10t42 -10t30 -28t11 -41q0 -22 -11 -39.5t-30 -28t-42 -10.5t-42 10.5zM-175 761.5q-19 10.5 -29.5 28t-10.5 39.5q0 23 10.5 41t29.5 28t42 10t42 -10t30 -28t11 -41q0 -22 -11 -39.5t-30 -28
t-42 -10.5t-42 10.5z" />
    <glyph glyph-name="uni0307.case" 
d="M-184 762q-20 11 -31.5 30.5t-11.5 43.5t11.5 43t31.5 29.5t46 10.5q25 0 45 -10.5t31.5 -29.5t11.5 -43t-11.5 -43.5t-31.5 -30.5t-45 -11q-26 0 -46 11z" />
    <glyph glyph-name="gravecomb.case" 
d="M-206 753l-115 145h171l100 -145h-156z" />
    <glyph glyph-name="acutecomb.case" 
d="M-222 898h172l-115 -145h-156z" />
    <glyph glyph-name="uni030B.case" 
d="M-380 898h141l-122 -145h-117zM-190 898h140l-121 -145h-117z" />
    <glyph glyph-name="uni0302.case" 
d="M-351 898h193l108 -145h-150l-55 72l-55 -72h-149z" />
    <glyph glyph-name="uni030C.case" 
d="M-159 753h-192l-108 145h150l55 -73l54 73h150z" />
    <glyph glyph-name="uni0306.case" 
d="M-367.5 785.5q-47.5 38.5 -52.5 112.5h115q4 -32 21.5 -46.5t49.5 -14.5q33 0 49.5 14t24.5 47h110q-5 -74 -51 -112.5t-133 -38.5q-86 0 -133.5 38.5z" />
    <glyph glyph-name="uni030A.case" 
d="M-263.5 743q-31.5 16 -49 45t-17.5 66q0 38 17.5 66.5t49 44t72.5 15.5q42 0 74 -16t49.5 -44.5t17.5 -65.5t-17.5 -66t-50 -45t-73.5 -16t-72.5 16zM-154 819q14 13 14 35t-13.5 35.5t-37.5 13.5q-22 0 -35.5 -13.5t-13.5 -35.5t13.5 -35t35.5 -13q23 0 37 13z" />
    <glyph glyph-name="tildecomb.case" 
d="M-208 755.5q-21 6.5 -42 18.5q-5 2 -21 9.5t-27.5 11t-21.5 3.5q-18 0 -27 -12.5t-11 -34.5h-91q4 74 32 111.5t84 37.5q25 0 43 -7t47 -22q17 -10 30 -15t28 -5q18 0 27 11t14 37h94q-3 -73 -31 -111.5t-82 -38.5q-24 0 -45 6.5z" />
    <glyph glyph-name="uni0304.case" 
d="M-377 879h327v-106h-327v106z" />
    <glyph glyph-name="uni0337.case" 
d="M0 564v-128l-218 -140v29l-145 -93v126l145 94v-28z" />
    <glyph glyph-name="uni0338.case" 
d="M-662 189l9 2l376 394l3 -4l120 125h114l-197 -201l-5 3l-376 -395l-8 -1l-109 -112h-113z" />
    <glyph glyph-name="uni0308.narrow.case" 
d="M-349.5 761.5q-17.5 10.5 -27.5 28.5t-10 39q0 22 10 40t27.5 28.5t39.5 10.5t40 -10.5t28 -28.5t10 -40q0 -21 -10 -39t-28 -28.5t-40 -10.5t-39.5 10.5zM-167.5 761.5q-17.5 10.5 -27.5 28t-10 39.5t10 40t27.5 28.5t39.5 10.5t39.5 -10.5t28 -28.5t10.5 -40
t-10.5 -39.5t-28 -28t-39.5 -10.5t-39.5 10.5z" />
    <glyph glyph-name="uni0302.narrow.case" 
d="M-326 898h188l88 -145h-140l-41 73l-41 -73h-141z" />
    <glyph glyph-name="uni0306.narrow.case" 
d="M-333 785.5q-41 38.5 -42 112.5h112q3 -34 14.5 -47.5t36.5 -13.5q24 0 35.5 14t13.5 47h113q-2 -74 -43 -112.5t-120 -38.5t-120 38.5z" />
    <glyph glyph-name="tildecomb.narrow.case" 
d="M-185 756.5q-14 6.5 -32 19.5q-17 12 -27 17.5t-20 5.5q-14 0 -20.5 -11.5t-7.5 -35.5h-83q3 73 28 109.5t73 36.5q23 0 37.5 -7t33.5 -22q11 -9 20 -14.5t17 -5.5q15 0 21.5 11t9.5 38h85q-2 -76 -26 -112t-73 -36q-22 0 -36 6.5z" />
    <glyph glyph-name="uni0304.narrow.case" 
d="M-330 878h280v-105h-280v105z" />
    <glyph glyph-name="uni0335.dh" 
d="M-381 370h381v-92h-381v92z" />
    <glyph glyph-name="uni0307.i" 
d="M-182 561.5q-20 10.5 -31.5 29.5t-11.5 43t11.5 43t31.5 29.5t45 10.5t44.5 -10.5t31 -29.5t11.5 -43t-11.5 -43t-31 -29.5t-44.5 -10.5t-45 10.5z" />
    <glyph glyph-name="uni0308.narrow" 
d="M-335.5 575q-19.5 21 -19.5 56t19.5 56t52.5 21q32 0 51.5 -21t19.5 -56t-19.5 -56t-51.5 -21q-33 0 -52.5 21zM-173.5 575q-19.5 21 -19.5 56t19.5 56t51.5 21q33 0 52.5 -21t19.5 -56t-19.5 -56t-52.5 -21q-32 0 -51.5 21z" />
    <glyph glyph-name="gravecomb.narrow" 
d="M-193 551l-97 159h164l76 -159h-143z" />
    <glyph glyph-name="acutecomb.narrow" 
d="M-214 710h164l-97 -159h-143z" />
    <glyph glyph-name="uni0302.narrow" 
d="M-285 710h158l77 -159h-119l-37 84l-38 -84h-119z" />
    <glyph glyph-name="uni030C.narrow" 
d="M-252 710l38 -84l37 84h119l-77 -159h-158l-78 159h119z" />
    <glyph glyph-name="uni0306.narrow" 
d="M-314.5 584.5q-38.5 42.5 -38.5 125.5h104q0 -43 11.5 -59.5t36.5 -16.5q24 0 35.5 16.5t11.5 59.5h104q-1 -83 -39 -125.5t-112 -42.5q-75 0 -113.5 42.5z" />
    <glyph glyph-name="tildecomb.narrow" 
d="M-180.5 558q-15.5 9 -32.5 26q-12 12 -18 16.5t-14 4.5q-13 0 -18 -12.5t-7 -41.5h-87q1 57 10 92.5t28.5 53t53.5 17.5q24 0 40 -9t31 -26q12 -11 18.5 -15.5t14.5 -4.5q13 0 18 12.5t6 40.5h87q-1 -56 -10 -91.5t-28.5 -53.5t-52.5 -18q-24 0 -39.5 9z" />
    <glyph glyph-name="uni0304.narrow" 
d="M-317 682h267v-106h-267v106z" />
    <glyph glyph-name="uni0328.narrow" 
d="M-209.5 -192.5q-32.5 23.5 -32.5 67.5q0 42 21 73t57 54l111 -2q-28 -25 -43 -47.5t-15 -47.5q0 -13 8 -19.5t21 -6.5q16 0 30 7v-89q-34 -13 -72 -13q-53 0 -85.5 23.5z" />
    <glyph glyph-name="uni0338.ss04" 
d="M-221 466l78 120l118 -72l-134 -186zM-561 -14l131 181l62 -139l-76 -114z" />
    <glyph glyph-name="uni0338.case.ss04" 
d="M-241 655l112 141l122 -96l-165 -197zM-757 5l178 215l97 -114l-154 -197z" />
    </font>
</defs>
</svg>
